<svg viewBox="0 0 88 93" version="1.1" xmlns="http://www.w3.org/2000/svg" xmlns:xlink="http://www.w3.org/1999/xlink">
    <defs></defs>
    <g id="Page-1" stroke="none" stroke-width="1" fill="none" fill-rule="evenodd">
        <g id="eang-redesign" transform="translate(-328.000000, -1475.000000)" fill="#FFFFFF" fill-rule="nonzero">
            <g id="angular_whiteTransparent" transform="translate(328.000000, 1475.000000)">
                <g id="Group">
                    <polygon id="Shape" points="43.5368421 57.381 32.0968421 57.381 26.6778947 70.959 26.6778947 70.959 16.6273684 70.959 16.5810526 70.959 43.5368421 10.2765 43.5368421 10.323 43.5368421 10.323 43.5368421 0 43.5368421 0 0.416842105 15.438 6.99368421 72.6795 43.5368421 93 43.5368421 93"></polygon>
                    <polygon id="Shape" points="35.6631579 49.011 43.5368421 49.011 43.5368421 49.011 43.5368421 29.9925"></polygon>
                </g>
                <g id="Group" opacity="0.9" transform="translate(44.000000, 0.000000)">
                    <polygon id="Shape" points="0 57.381 11.5617021 57.381 17.0382979 70.959 17.0382979 70.959 27.1957447 70.959 27.2425532 70.959 0 10.2765 0 10.323 0 10.323 0 0 0 0 43.5787234 15.438 36.9319149 72.6795 0 93 0 93"></polygon>
                    <polygon id="Shape" points="7.95744681 49.011 0 49.011 0 49.011 0 29.9925"></polygon>
                </g>
            </g>
        </g>
    </g>
</svg>
