
<svg width="100%" height="100%" viewBox="0 0 194 166" version="1.1" xmlns="http://www.w3.org/2000/svg" xmlns:xlink="http://www.w3.org/1999/xlink">
    <!-- Generator: Sketch 49.3 (51167) - http://www.bohemiancoding.com/sketch -->
    <desc>Created with Sketch.</desc>
    <defs>
        <path d="M8,0 L84,0 C88.418278,-8.11624501e-16 92,3.581722 92,8 L92,66 C92,70.418278 88.418278,74 84,74 L8,74 C3.581722,74 5.41083001e-16,70.418278 0,66 L0,8 C-5.41083001e-16,3.581722 3.581722,8.11624501e-16 8,0 Z" id="path-1"></path>
        <mask id="mask-2" maskContentUnits="userSpaceOnUse" maskUnits="objectBoundingBox" x="0" y="0" width="92" height="74" fill="white">
            <use xlink:href="#path-1"></use>
        </mask>
        <path d="M110,0 L186,0 C190.418278,-8.11624501e-16 194,3.581722 194,8 L194,66 C194,70.418278 190.418278,74 186,74 L110,74 C105.581722,74 102,70.418278 102,66 L102,8 C102,3.581722 105.581722,8.11624501e-16 110,0 Z" id="path-3"></path>
        <mask id="mask-4" maskContentUnits="userSpaceOnUse" maskUnits="objectBoundingBox" x="0" y="0" width="92" height="74" fill="white">
            <use xlink:href="#path-3"></use>
        </mask>
    </defs>
    <g id="Page-1" stroke="none" stroke-width="1" fill="none" fill-rule="evenodd">
        <g id="eang-redesign" transform="translate(-297.000000, -2225.000000)">
            <g id="Group-12" transform="translate(297.000000, 2225.000000)">
                <g id="Group-8" fill="#FAFAFA" stroke="#333333" stroke-width="2">
                    <use id="Rectangle-17" mask="url(#mask-2)" stroke-dasharray="5" xlink:href="#path-1"></use>
                    <use id="Rectangle-17" mask="url(#mask-4)" stroke-dasharray="6" xlink:href="#path-3"></use>
                </g>
                <g id="input" transform="translate(17.000000, 24.000000)" fill="#444444" fill-rule="nonzero">
                    <path d="M58,2.5 C58,0.25 57.75,0.5 55.5,0.5 L3,0.5 C0.75,0.5 0.5,0.25 0.5,2.5 L0.5,25 C0.5,27.25 0.75,27.5 3,27.5 L55.5,28 C57.75,28 58,27.25 58,25 L58,2.5 Z M55.25,25.25 L2.75,25.25 L2.75,2.75 L55.25,2.75 L55.25,25.25 Z" id="Shape"></path>
                    <polygon id="Shape" points="7 7 11 7 11 22 7 22"></polygon>
                </g>
                <rect id="Rectangle-5" fill="#F7F7F7" x="64" y="22" width="15" height="11"></rect>
                <path d="M83.9343476,16.5309609 C78.9901944,16.5309609 75.2024748,15.1171764 71.9995501,12 C68.7969586,15.1171764 65.0094055,16.5309609 60.0656686,16.5309609 C60.0656686,24.6487207 58.387391,36.2773564 71.9994669,41 C85.6125419,36.2774398 83.9343476,24.6488041 83.9343476,16.5309609 Z M71.0041762,31 L67,26.8866494 L68.7928183,25.0453058 L71.0041762,27.3171404 L75.2072655,23 L77,24.8413437 L71.0041762,31 Z" id="Shape" fill="#425B9A" fill-rule="nonzero"></path>
                <g id="switch" transform="translate(118.000000, 20.000000)" fill="#000000" fill-rule="nonzero">
                    <path d="M42,0 L18,0 C8.075,0 0,8.075 0,18 C0,27.925 8.075,36 18,36 L42,36 C51.925,36 60,27.925 60,18 C60,8.075 51.925,0 42,0 Z M42,34 L18,34 C9.178,34 2,26.822 2,18 C2,9.178 9.178,2 18,2 L42,2 C50.822,2 58,9.178 58,18 C58,26.822 50.822,34 42,34 Z" id="Shape"></path>
                    <path d="M42,5 C34.832,5 29,10.832 29,18 C29,25.168 34.832,31 42,31 C49.168,31 55,25.168 55,18 C55,10.832 49.168,5 42,5 Z M42,29 C35.935,29 31,24.065 31,18 C31,11.935 35.935,7 42,7 C48.065,7 53,11.935 53,18 C53,24.065 48.065,29 42,29 Z" id="Shape"></path>
                    <path d="M17,9 C16.447,9 16,9.447 16,10 L16,26 C16,26.553 16.447,27 17,27 C17.553,27 18,26.553 18,26 L18,10 C18,9.447 17.553,9 17,9 Z" id="Shape"></path>
                </g>
                <g id="switch" transform="translate(0.000000, 130.000000)" fill="#000000" fill-rule="nonzero">
                    <path d="M42,0 L18,0 C8.075,0 0,8.075 0,18 C0,27.925 8.075,36 18,36 L42,36 C51.925,36 60,27.925 60,18 C60,8.075 51.925,0 42,0 Z M42,34 L18,34 C9.178,34 2,26.822 2,18 C2,9.178 9.178,2 18,2 L42,2 C50.822,2 58,9.178 58,18 C58,26.822 50.822,34 42,34 Z" id="Shape"></path>
                    <path d="M42,5 C34.832,5 29,10.832 29,18 C29,25.168 34.832,31 42,31 C49.168,31 55,25.168 55,18 C55,10.832 49.168,5 42,5 Z M42,29 C35.935,29 31,24.065 31,18 C31,11.935 35.935,7 42,7 C48.065,7 53,11.935 53,18 C53,24.065 48.065,29 42,29 Z" id="Shape"></path>
                    <path d="M17,9 C16.447,9 16,9.447 16,10 L16,26 C16,26.553 16.447,27 17,27 C17.553,27 18,26.553 18,26 L18,10 C18,9.447 17.553,9 17,9 Z" id="Shape"></path>
                </g>
                <g id="love" transform="translate(54.000000, 83.000000)" fill="#000000" fill-rule="nonzero">
                    <path d="M50.5654689,0 L12.4345311,0 C9.74955448,0 7.19317543,0.851474609 5.04142663,2.46212891 C4.62185194,2.77621094 4.53356669,3.37466797 4.84426043,3.79881836 C5.15495417,4.22296875 5.7469551,4.31196289 6.16652979,3.99813477 C7.99025432,2.63288086 10.1577011,1.91115234 12.4345311,1.91115234 L50.5653433,1.91115234 C56.37936,1.91115234 61.1093394,6.6928418 61.1093394,12.5701367 L61.1093394,37.8520898 C61.1093394,43.7295117 56.3792345,48.5110742 50.5653433,48.5110742 L34.4487021,48.5110742 C34.0592675,48.5110742 33.6830191,48.6756055 33.416782,48.9621387 L20.4731351,62.8749316 C20.1937117,63.1750488 19.8697061,63.0898633 19.7434946,63.0394629 C19.6171575,62.9889355 19.3234175,62.8266895 19.3234175,62.4143457 L19.3234175,49.9433594 C19.3234175,49.1537109 18.6879647,48.5113281 17.9068349,48.5113281 L12.4345311,48.5113281 C6.62051437,48.5113281 1.8904094,43.7296387 1.8904094,37.8523438 L1.8904094,12.5701367 C1.8904094,10.4078711 2.52699249,8.3262207 3.73146446,6.55040039 C4.02658584,6.11507812 3.91695139,5.52042969 3.48645093,5.22196289 C3.05607605,4.92349609 2.46746588,5.03458008 2.17234451,5.46964844 C0.751240885,7.56513672 0,10.0204102 0,12.5701367 L0,37.8520898 C0,44.7832227 5.57817079,50.4222266 12.4346567,50.4222266 L17.4330081,50.4222266 L17.4330081,62.4143457 C17.4330081,63.480498 18.0664516,64.423252 19.0468825,64.8160449 C19.3559437,64.9398242 19.6769353,65 19.9941594,65 C20.6834876,65 21.3554852,64.7160059 21.8502845,64.1843262 L34.6535289,50.4223535 L50.5654689,50.4223535 C57.4218292,50.4223535 63,44.7833496 63,37.8522168 L63,12.5701367 C63,5.63900391 57.4219548,0 50.5654689,0 Z" id="Shape"></path>
                </g>
                <path d="M75.5866699,100.767578 L75.5866699,104.861816 L73.2575684,104.861816 L73.2575684,100.796875 L69.4929199,94 L72.0270996,94 L74.4147949,98.6508789 L74.4880371,98.6508789 L76.7805176,94 L79.1242676,94 L75.5866699,100.767578 Z M81.8122559,105.044922 C81.1237759,105.044922 80.5292994,104.944825 80.0288086,104.744629 C79.5283178,104.544433 79.132814,104.258791 78.8422852,103.887695 C78.5517564,103.5166 78.3393561,103.09302 78.2050781,102.616943 C78.0708001,102.140867 78.0036621,101.600101 78.0036621,100.994629 C78.0036621,99.70556 78.3405728,98.6972693 79.0144043,97.9697266 C79.6882358,97.2421839 80.6892023,96.878418 82.017334,96.878418 C82.6813998,96.878418 83.2587866,96.9748526 83.7495117,97.1677246 C84.2402368,97.3605967 84.6320786,97.6352521 84.9250488,97.9916992 C85.218019,98.3481463 85.435302,98.7619605 85.5769043,99.2331543 C85.7185066,99.7043481 85.7893066,100.235349 85.7893066,100.826172 C85.7893066,102.154304 85.4646029,103.189449 84.8151855,103.931641 C84.1657682,104.673832 83.1648017,105.044922 81.8122559,105.044922 Z M81.9147949,103.360352 C82.4274928,103.360352 82.8083484,103.172365 83.057373,102.796387 C83.3063977,102.420408 83.4309082,101.78809 83.4309082,100.899414 C83.4309082,100.064449 83.3137219,99.4711932 83.0793457,99.1196289 C82.8449695,98.7680646 82.4714381,98.5922852 81.9587402,98.5922852 C81.4313938,98.5922852 81.0346693,98.7766095 80.7685547,99.1452637 C80.5024401,99.5139179 80.3693848,100.108394 80.3693848,100.928711 C80.3693848,101.802739 80.4877918,102.426512 80.7246094,102.800049 C80.961427,103.173586 81.3581515,103.360352 81.9147949,103.360352 Z M87.1223145,102.430176 L87.1223145,97.046875 L89.385498,97.046875 L89.385498,101.983398 C89.385498,102.408205 89.4611809,102.71704 89.6125488,102.909912 C89.7639168,103.102784 90.0178205,103.199219 90.3742676,103.199219 C90.6428236,103.199219 90.913817,103.135743 91.1872559,103.008789 C91.4606947,102.881835 91.6853019,102.740235 91.861084,102.583984 L91.861084,97.046875 L94.1242676,97.046875 L94.1242676,104.861816 L92.1760254,104.861816 L92.0075684,104.019531 C91.4118623,104.693363 90.5817924,105.030273 89.517334,105.030273 C87.9206463,105.030273 87.1223145,104.163583 87.1223145,102.430176 Z M100.767334,96.9003906 L100.767334,99.1049805 C100.259519,99.0610349 99.7663598,99.1013177 99.2878418,99.2258301 C98.8093238,99.3503424 98.4064958,99.5444323 98.0793457,99.8081055 L98.0793457,104.861816 L95.8161621,104.861816 L95.8161621,97.046875 L97.7497559,97.046875 L97.9108887,98.2773438 C98.5554231,97.3447219 99.3757274,96.878418 100.371826,96.878418 C100.410889,96.878418 100.475585,96.88208 100.565918,96.8894043 C100.65625,96.8967286 100.723388,96.9003906 100.767334,96.9003906 Z M66.9550781,121.861816 L63,121.861816 L63,111 L67.2993164,111 C67.9194367,111 68.4492166,111.067138 68.8886719,111.201416 C69.3281272,111.335694 69.6687,111.527343 69.9104004,111.776367 C70.1521008,112.025392 70.3254389,112.302489 70.4304199,112.607666 C70.5354009,112.912843 70.5878906,113.263182 70.5878906,113.658691 C70.5878906,114.342289 70.3962422,114.894041 70.0129395,115.313965 C69.6296368,115.733889 69.1352569,116.026855 68.5297852,116.192871 L68.5297852,116.222168 C70.2094811,116.427247 71.0493164,117.311027 71.0493164,118.873535 C71.0493164,119.308108 70.9821784,119.695067 70.8479004,120.034424 C70.7136224,120.373781 70.5280774,120.656981 70.2912598,120.884033 C70.0544422,121.111085 69.762697,121.299072 69.4160156,121.447998 C69.0693342,121.596925 68.6945821,121.703125 68.291748,121.766602 C67.888914,121.830078 67.4433618,121.861816 66.9550781,121.861816 Z M65.3071289,120.074707 L66.4936523,120.074707 C66.8354509,120.074707 67.123534,120.056397 67.3579102,120.019775 C67.5922863,119.983154 67.8083486,119.916016 68.0061035,119.818359 C68.2038584,119.720703 68.3503413,119.576661 68.4455566,119.38623 C68.540772,119.1958 68.5883789,118.956544 68.5883789,118.668457 C68.5883789,118.375487 68.5419927,118.131349 68.4492188,117.936035 C68.3564448,117.740722 68.2172861,117.594239 68.0317383,117.496582 C67.8461905,117.398925 67.6508799,117.331787 67.4458008,117.295166 C67.2407216,117.258545 66.9965834,117.240234 66.7133789,117.240234 L65.3071289,117.240234 L65.3071289,120.074707 Z M65.3071289,115.489746 L66.1640625,115.489746 C66.4033215,115.489746 66.6169424,115.479981 66.8049316,115.460449 C66.9929209,115.440918 67.18579,115.400635 67.3835449,115.3396 C67.5812998,115.278564 67.7460931,115.195557 67.8779297,115.090576 C68.0097663,114.985595 68.1171871,114.843995 68.2001953,114.665771 C68.2832035,114.487548 68.324707,114.276368 68.324707,114.032227 C68.324707,113.802733 68.2929691,113.609864 68.2294922,113.453613 C68.1660153,113.297362 68.0866704,113.175293 67.9914551,113.087402 C67.8962398,112.999511 67.7619638,112.932373 67.588623,112.885986 C67.4152823,112.839599 67.2529304,112.811523 67.1015625,112.801758 C66.9501946,112.791992 66.7524426,112.787109 66.5083008,112.787109 L65.3071289,112.787109 L65.3071289,115.489746 Z M72.2651367,119.430176 L72.2651367,114.046875 L74.5283203,114.046875 L74.5283203,118.983398 C74.5283203,119.408205 74.6040031,119.71704 74.7553711,119.909912 C74.906739,120.102784 75.1606427,120.199219 75.5170898,120.199219 C75.7856459,120.199219 76.0566393,120.135743 76.3300781,120.008789 C76.603517,119.881835 76.8281241,119.740235 77.0039062,119.583984 L77.0039062,114.046875 L79.2670898,114.046875 L79.2670898,121.861816 L77.3188477,121.861816 L77.1503906,121.019531 C76.5546845,121.693363 75.7246147,122.030273 74.6601562,122.030273 C73.0634686,122.030273 72.2651367,121.163583 72.2651367,119.430176 Z M90.9199219,119.884277 L91.2348633,121.458984 C91.0102528,121.605469 90.6831076,121.739745 90.253418,121.861816 C89.8237283,121.983887 89.3842796,122.044922 88.9350586,122.044922 C88.1000935,122.044922 87.473879,121.841066 87.0563965,121.43335 C86.6389139,121.025633 86.4301758,120.382329 86.4301758,119.503418 L86.4301758,115.709473 L83.6396484,115.709473 L83.6396484,119.188477 C83.6396484,119.564455 83.6982416,119.836669 83.8154297,120.005127 C83.9326178,120.173585 84.1596663,120.257812 84.496582,120.257812 C84.7797866,120.257812 85.1240214,120.167481 85.5292969,119.986816 L85.8735352,121.576172 C85.639159,121.703126 85.3425311,121.812988 84.9836426,121.905762 C84.6247541,121.998536 84.2524433,122.044922 83.8666992,122.044922 C83.0366169,122.044922 82.4140646,121.841066 81.9990234,121.43335 C81.5839823,121.025633 81.3764648,120.382329 81.3764648,119.503418 L81.3764648,115.709473 L80.2045898,115.709473 L80.2045898,114.046875 L81.3764648,114.046875 L81.3764648,111.739746 L83.6396484,111.439453 L83.6396484,114.046875 L86.4301758,114.046875 L86.4301758,111.739746 L88.7006836,111.439453 L88.7006836,114.046875 L90.7661133,114.046875 L90.7661133,115.709473 L88.7006836,115.709473 L88.7006836,119.188477 C88.7006836,119.554689 88.7666009,119.822021 88.8984375,119.990479 C89.0302741,120.158936 89.2719709,120.243164 89.6235352,120.243164 C89.8334971,120.243164 90.059325,120.207764 90.3010254,120.136963 C90.5427258,120.066162 90.7490226,119.981934 90.9199219,119.884277 Z M95.5048828,122.044922 C94.8164028,122.044922 94.2219263,121.944825 93.7214355,121.744629 C93.2209448,121.544433 92.8254409,121.258791 92.5349121,120.887695 C92.2443833,120.5166 92.0319831,120.09302 91.8977051,119.616943 C91.7634271,119.140867 91.6962891,118.600101 91.6962891,117.994629 C91.6962891,116.70556 92.0331998,115.697269 92.7070312,114.969727 C93.3808627,114.242184 94.3818293,113.878418 95.7099609,113.878418 C96.3740268,113.878418 96.9514136,113.974853 97.4421387,114.167725 C97.9328638,114.360597 98.3247056,114.635252 98.6176758,114.991699 C98.910646,115.348146 99.127929,115.761961 99.2695312,116.233154 C99.4111335,116.704348 99.4819336,117.235349 99.4819336,117.826172 C99.4819336,119.154304 99.1572298,120.189449 98.5078125,120.931641 C97.8583952,121.673832 96.8574286,122.044922 95.5048828,122.044922 Z M95.6074219,120.360352 C96.1201198,120.360352 96.5009753,120.172365 96.75,119.796387 C96.9990247,119.420408 97.1235352,118.78809 97.1235352,117.899414 C97.1235352,117.064449 97.0063488,116.471193 96.7719727,116.119629 C96.5375965,115.768065 96.1640651,115.592285 95.6513672,115.592285 C95.1240208,115.592285 94.7272963,115.776609 94.4611816,116.145264 C94.195067,116.513918 94.0620117,117.108394 94.0620117,117.928711 C94.0620117,118.802739 94.1804187,119.426512 94.4172363,119.800049 C94.6540539,120.173586 95.0507785,120.360352 95.6074219,120.360352 Z M107.934082,116.522461 L107.934082,121.861816 L105.670898,121.861816 L105.670898,116.910645 C105.670898,116.490721 105.587891,116.185548 105.421875,115.995117 C105.255859,115.804687 104.994631,115.709473 104.638184,115.709473 C104.354979,115.709473 104.072999,115.772949 103.792236,115.899902 C103.511473,116.026856 103.283204,116.168456 103.107422,116.324707 L103.107422,121.861816 L100.844238,121.861816 L100.844238,114.046875 L102.851074,114.046875 L102.975586,114.823242 C103.659183,114.193356 104.489253,113.878418 105.46582,113.878418 C106.320317,113.878418 106.945311,114.09326 107.34082,114.522949 C107.73633,114.952639 107.934082,115.619136 107.934082,116.522461 Z" id="Your-Button" fill="#333333"></path>
                <rect id="Rectangle-5" fill="#F7F7F7" x="166" y="22" width="15" height="11"></rect>
                <path d="M185.934348,16.5309609 C180.990194,16.5309609 177.202475,15.1171764 173.99955,12 C170.796959,15.1171764 167.009405,16.5309609 162.065669,16.5309609 C162.065669,24.6487207 160.387391,36.2773564 173.999467,41 C187.612542,36.2774398 185.934348,24.6488041 185.934348,16.5309609 Z M173.004176,31 L169,26.8866494 L170.792818,25.0453058 L173.004176,27.3171404 L177.207266,23 L179,24.8413437 L173.004176,31 Z" id="Shape" fill="#425B9A" fill-rule="nonzero"></path>
            </g>
        </g>
    </g>
</svg>
