<?xml version="1.0" encoding="UTF-8"?>
<svg xmlns="http://www.w3.org/2000/svg" xmlns:xlink="http://www.w3.org/1999/xlink" width="1.5em" height="1.5em" viewBox="0 0 48 35" version="1.1">
<g id="surface49250">
<path style=" stroke:none;fill-rule:nonzero;fill:rgb(25.745098%,50.196078%,123.627451%);fill-opacity:1;" d="M 39.777344 16.875 C 39.683594 16.761719 39.636719 16.613281 39.636719 16.472656 C 38.25 14.023438 38.164062 11.035156 36.777344 8.585938 C 32.867188 10.78125 30.195312 14.691406 27.648438 18.253906 C 26.109375 20.398438 24.730469 22.601562 23.464844 24.917969 C 22.191406 27.242188 20.953125 29.597656 19.527344 31.835938 C 19.320312 32.15625 18.789062 32.304688 18.5625 31.902344 C 17.886719 30.65625 17.128906 29.445312 16.257812 28.320312 C 15.507812 27.355469 14.652344 26.492188 13.882812 25.546875 C 12.695312 24.074219 11.417969 22.3125 9.769531 21.289062 C 9.167969 23.257812 8.464844 25.210938 8.15625 27.253906 C 10.460938 28.742188 12.226562 30.898438 13.921875 33.027344 C 15.910156 35.523438 17.960938 37.902344 20.195312 40.179688 C 21.636719 38.296875 22.632812 36.101562 23.832031 34.058594 C 25.246094 31.648438 26.898438 29.429688 28.648438 27.253906 C 30.402344 25.078125 32.429688 23.15625 34.460938 21.261719 C 35.417969 20.371094 36.542969 19.640625 37.566406 18.824219 C 38.335938 18.207031 39.085938 17.570312 39.789062 16.882812 C 39.789062 16.894531 39.789062 16.882812 39.777344 16.875 Z M 39.777344 16.875 "/>
<path style=" stroke:none;fill-rule:nonzero;fill:rgb(0%,0%,0%);fill-opacity:1;" d="M 40.894531 15.964844 L 40.632812 15.964844 C 39.101562 13.367188 39.113281 10.097656 37.445312 7.539062 C 37.265625 7.257812 36.9375 7.246094 36.664062 7.386719 C 32.390625 9.554688 29.523438 13.734375 26.804688 17.523438 C 25.246094 19.695312 23.839844 21.929688 22.546875 24.273438 C 21.394531 26.363281 20.289062 28.472656 19.039062 30.515625 C 18.476562 29.539062 17.859375 28.601562 17.175781 27.710938 C 16.40625 26.699219 15.507812 25.808594 14.710938 24.824219 C 13.285156 23.070312 11.765625 20.992188 9.675781 19.996094 C 9.328125 19.828125 8.980469 20.042969 8.878906 20.390625 C 8.242188 22.613281 7.398438 24.796875 7.050781 27.085938 C 7.050781 27.09375 7.050781 27.101562 7.050781 27.121094 C 6.863281 27.375 6.84375 27.789062 7.199219 28.003906 C 9.683594 29.464844 11.511719 31.828125 13.285156 34.058594 C 15.347656 36.65625 17.523438 39.132812 19.867188 41.476562 C 20.082031 41.691406 20.464844 41.644531 20.652344 41.429688 C 22.265625 39.496094 23.34375 37.210938 24.570312 35.035156 C 25.949219 32.605469 27.570312 30.320312 29.363281 28.171875 C 31.164062 26.023438 33.113281 24.074219 35.164062 22.171875 C 36.140625 21.261719 37.285156 20.511719 38.335938 19.679688 C 39.179688 19.003906 39.992188 18.300781 40.761719 17.539062 C 40.976562 17.492188 41.15625 17.34375 41.195312 17.101562 C 41.25 17.042969 41.304688 16.976562 41.363281 16.921875 C 41.71875 16.507812 41.363281 15.964844 40.894531 15.964844 Z M 37.566406 18.84375 C 36.542969 19.660156 35.429688 20.390625 34.460938 21.28125 C 32.417969 23.175781 30.394531 25.097656 28.648438 27.273438 C 26.898438 29.445312 25.246094 31.660156 23.832031 34.078125 C 22.632812 36.121094 21.636719 38.316406 20.195312 40.199219 C 17.960938 37.929688 15.898438 35.539062 13.921875 33.046875 C 12.226562 30.917969 10.453125 28.753906 8.15625 27.273438 C 8.464844 25.226562 9.167969 23.277344 9.769531 21.308594 C 11.429688 22.332031 12.695312 24.09375 13.882812 25.566406 C 14.652344 26.511719 15.507812 27.375 16.257812 28.339844 C 17.128906 29.464844 17.886719 30.675781 18.5625 31.921875 C 18.789062 32.335938 19.320312 32.175781 19.527344 31.855469 C 20.960938 29.617188 22.191406 27.261719 23.464844 24.9375 C 24.730469 22.621094 26.109375 20.417969 27.648438 18.273438 C 30.195312 14.710938 32.878906 10.789062 36.777344 8.605469 C 38.164062 11.054688 38.25 14.042969 39.636719 16.492188 C 39.636719 16.632812 39.683594 16.78125 39.777344 16.894531 C 39.777344 16.902344 39.789062 16.914062 39.789062 16.914062 C 39.085938 17.585938 38.335938 18.226562 37.566406 18.84375 Z M 37.566406 18.84375 "/>
</g>
</svg>
