
<svg width="100%" height="100%" viewBox="0 0 855 681" version="1.1" xmlns="http://www.w3.org/2000/svg" xmlns:xlink="http://www.w3.org/1999/xlink">
    <!-- Generator: Sketch 49.3 (51167) - http://www.bohemiancoding.com/sketch -->
    <desc>Created with Sketch.</desc>
    <defs>
        <linearGradient x1="50%" y1="100%" x2="50%" y2="-3.43494416e-15%" id="linearGradient-1">
            <stop stop-color="#808080" stop-opacity="0.25" offset="0%"></stop>
            <stop stop-color="#808080" stop-opacity="0.12" offset="54%"></stop>
            <stop stop-color="#808080" stop-opacity="0.1" offset="100%"></stop>
        </linearGradient>
    </defs>
    <g id="Page-1" stroke="none" stroke-width="1" fill="none" fill-rule="evenodd">
        <g id="Group-18" transform="translate(3.000000, 3.000000)" fill-rule="nonzero">
            <g id="undraw_contrast_vb82">
                <polygon id="Shape" stroke="#979797" stroke-width="6" points="0 0 0 34.06 0 675 849 675 849 34.06 849 0"></polygon>
                <rect id="Rectangle-path" stroke="#060606" stroke-width="4" x="12" y="42" width="828" height="621"></rect>
                <rect id="Rectangle-path" stroke="#242424" stroke-width="4" x="12" y="9" width="828" height="33"></rect>
                <circle id="Oval" stroke="#000000" stroke-width="4" cx="36" cy="25" r="8"></circle>
                <circle id="Oval" stroke="#000000" stroke-width="4" cx="58" cy="25" r="8"></circle>
                <circle id="Oval" stroke="#000000" stroke-width="4" cx="80" cy="25" r="8"></circle>
            </g>
            <g id="Group-17" transform="translate(40.000000, 78.000000)">
                <path d="M208.34,272.37 L208.34,555.24 L27.89,555.24 C22.5488948,555.24 13.3355615,555.24 0.25,555.24 C0.25,541.380559 0.25,531.987226 0.25,527.06 L0.25,272.37 L208.34,272.37 Z" id="Shape" fill="#DDE1EC"></path>
                <rect id="Rectangle-path" fill="#DDE1EC" x="544.9" y="316.81" width="70.45" height="9.75"></rect>
                <rect id="Rectangle-path" fill="#DDE1EC" x="666.28" y="251.78" width="70.45" height="9.75"></rect>
                <rect id="Rectangle-path" fill="#DDE1EC" x="666.28" y="282.13" width="70.45" height="9.75"></rect>
                <rect id="Rectangle-path" fill="#DDE1EC" x="666.28" y="347.16" width="70.45" height="9.75"></rect>
                <rect id="Rectangle-path" fill="#DDE1EC" x="289.12" y="256.12" width="209.17" height="9.75"></rect>
                <rect id="Rectangle-path" fill="#DDE1EC" x="289.12" y="286.46" width="209.17" height="9.75"></rect>
                <rect id="Rectangle-path" fill="#DDE1EC" x="289.12" y="316.81" width="209.17" height="9.75"></rect>
                <rect id="Rectangle-path" fill="#DDE1EC" x="289.12" y="347.16" width="209.17" height="9.75"></rect>
                <rect id="Rectangle-path" fill="#425B9A" x="0.25" y="0.34" width="208.09" height="277.45"></rect>
                <path d="M165,139.07 C165.018851,152.969854 160.243766,166.450992 151.48,177.24 C151.15,177.65 150.82,178.05 150.48,178.45 C150.413746,178.517986 150.35352,178.591595 150.3,178.67 C147.19519,182.263315 143.681394,185.481778 139.83,188.26 L139.33,188.63 C138.64,189.12 137.94,189.63 137.23,190.05 L136.74,190.36 L135.69,191.01 C135.53476,191.108211 135.374546,191.198332 135.21,191.28 C135.079767,191.373453 134.942717,191.45702 134.8,191.53 C133.26,192.43 131.67,193.26 130.04,194.02 C129.86,194.12 129.66,194.2 129.47,194.29 C129.28,194.38 129.06,194.49 128.84,194.57 C128.62,194.65 128.19,194.86 127.84,194.99 C124.347538,196.468425 120.720791,197.607016 117.01,198.39 C113.473032,199.147143 109.875289,199.585565 106.26,199.7 L105.71,199.7 L104.28,199.7 C99.5089648,199.716459 94.7526834,199.169335 90.11,198.07 L89.24,197.86 C87.2,197.326667 85.2,196.706667 83.24,196 C82.05,195.56 80.87,195.08 79.72,194.57 C79.43,194.44 79.15,194.32 78.86,194.18 L77.99,193.79 L77.23,193.4 L76.43,192.99 L75.54,192.52 L74.54,191.95 L74.38,191.86 C70.1173082,189.441027 66.1620576,186.516559 62.6,183.15 C62.3,182.86 61.99,182.58 61.7,182.27 C61.41,181.96 61.07,181.65 60.77,181.33 C41.7093732,161.701042 38.1396819,131.745289 52.0538652,108.186873 C65.9680485,84.6284568 93.9252074,73.2932411 120.317013,80.5096146 C146.708819,87.7259881 165.008728,111.709382 165,139.07 Z" id="Shape" fill="#FFFFFF"></path>
                <rect id="Rectangle-path" fill="#DDE1EC" x="289.12" y="413.81" width="209.17" height="121.39"></rect>
                <g id="Group-16" transform="translate(289.000000, 39.000000)">
                    <path d="M0,0 L456,0 L456,166 L0,166 L0,0 Z" id="Rectangle-path" stroke="#425B9A" fill="#FFFFFF" stroke-dasharray="14,16"></path>
                    <path d="M228.000001,124.999999 C254.509668,124.999999 276,103.509667 276,76.9999994 C276,50.4903317 254.509668,29 228.000001,29 C201.490333,29 180.000001,50.4903317 180.000001,76.9999994 C179.997135,89.7312693 185.053343,101.941922 194.05571,110.94429 C203.058078,119.946657 215.268731,125.002865 228.000001,124.999999 Z M228.000001,38.2910195 C243.656322,38.2910195 257.77102,47.7221596 263.762435,62.1867141 C269.75385,76.6512685 266.442073,93.3006909 255.371383,104.371382 C244.300692,115.442072 227.65127,118.753848 213.186715,112.762434 C198.722161,106.771019 189.291021,92.6563203 189.291021,76.9999994 C189.288154,66.732861 193.365489,56.8854148 200.625453,49.6254514 C207.885416,42.365488 217.732862,38.2881527 228.000001,38.2910195 Z M231.867658,101.77245 L224.12154,101.77245 C222.841176,101.766536 221.804699,100.73006 221.798785,99.4496953 L221.798785,76.9999994 L208.834572,76.9999994 C207.895293,76.9997552 207.04861,76.433837 206.689197,75.5660427 C206.329783,74.6982483 206.52839,73.6994035 207.192438,73.0351109 L226.357867,53.8696823 C227.259723,52.9914176 228.697064,52.9914176 229.59892,53.8696823 L248.764349,73.0351109 C249.428397,73.6994035 249.627004,74.6982483 249.267591,75.5660427 C248.908177,76.433837 248.061494,76.9997552 247.122215,76.9999994 L234.158002,76.9999994 L234.158002,99.4496953 C234.152489,100.713479 233.141919,101.743208 231.878461,101.77245 L231.867658,101.77245 Z" id="Shape" fill="#425B9A" opacity="0.5"></path>
                </g>
                <g id="Group-15" transform="translate(50.000000, 85.000000)">
                    <circle id="Oval" fill="url(#linearGradient-1)" cx="54" cy="54" r="54"></circle>
                    <circle id="Oval" fill="#425B9A" cx="54" cy="54" r="53"></circle>
                    <circle id="Oval" fill="#DDE1EC" cx="54" cy="54" r="42"></circle>
                    <rect id="Rectangle-path" fill="#535461" opacity="0.3" x="53" y="19" width="2" height="37"></rect>
                    <g id="Group" opacity="0.1" transform="translate(31.000000, 42.000000)" fill="#000000">
                        <rect id="Rectangle-path" x="25.4505242" y="11.0514655" width="33.5405712" height="2.93103448"></rect>
                        <rect id="Rectangle-path" transform="translate(11.634059, 6.840557) rotate(-62.360000) translate(-11.634059, -6.840557) " x="10.149963" y="-4.92168464" width="2.96819215" height="23.5244828"></rect>
                        <ellipse id="Oval" cx="22.9275609" cy="12.5169828" rx="4.45228822" ry="4.39655172"></ellipse>
                    </g>
                    <rect id="Rectangle-path" fill="#535461" x="56" y="53" width="34" height="3"></rect>
                    <rect id="Rectangle-path" fill="#535461" transform="translate(43.000000, 48.500000) rotate(27.640000) translate(-43.000000, -48.500000) " x="31" y="47" width="24" height="3"></rect>
                    <circle id="Oval" fill="#535461" cx="54.5" cy="54.5" r="4.5"></circle>
                    <g id="Group" opacity="0.1" transform="translate(12.000000, 12.000000)" fill="#000000">
                        <path d="M3.44015009,46.8424449 C3.44015009,23.7761454 22.4570356,5.07812775 45.9166979,5.07812775 C59.2667712,5.06651251 71.8431784,11.2361557 79.8619137,21.7307269 C72.6333959,8.81477974 58.6746717,0.0605066079 42.6146341,0.0605066079 C19.1549719,0.0605066079 0.138086304,18.7585242 0.138086304,41.8248238 C0.1242884,50.8863038 3.12160101,59.7041488 8.6739212,66.9365419 C5.23062968,60.7808859 3.42999562,53.8676843 3.44015009,46.8424449 Z" id="Shape"></path>
                    </g>
                    <path d="M85.5,34 C85.5,34 84.7196059,35.5201401 85.1087339,36" id="Shape" fill="#000000" opacity="0.05"></path>
                    <path d="M63,33 C63,33 63.4575,34.5201401 63,35" id="Shape" fill="#000000" opacity="0.05"></path>
                </g>
            </g>
        </g>
    </g>
</svg>
