
<svg width="100%" height="100%" viewBox="0 0 280 1044" version="1.1" xmlns="http://www.w3.org/2000/svg" xmlns:xlink="http://www.w3.org/1999/xlink">
    <!-- Generator: Sketch 49.3 (51167) - http://www.bohemiancoding.com/sketch -->
    <desc>Created with Sketch.</desc>
    <defs>
        <rect id="path-1" x="0" y="0" width="280" height="1044"></rect>
        <rect id="path-2" x="0" y="0" width="280" height="68"></rect>
        <rect id="path-3" x="0" y="976" width="280" height="68"></rect>
        <rect id="path-4" x="0" y="79" width="280" height="556"></rect>
    </defs>
    <g id="Page-1" stroke="none" stroke-width="1" fill="none" fill-rule="evenodd">
        <g id="Group-6">
            <g id="Group-4">
                <g id="Rectangle">
                    <use fill="#9A9A9A" fill-rule="evenodd" xlink:href="#path-1"></use>
                    <rect stroke="#979797" stroke-width="1" x="0.5" y="0.5" width="279" height="1043"></rect>
                </g>
                <g id="Rectangle-6">
                    <use fill="#D8D8D8" fill-rule="evenodd" xlink:href="#path-2"></use>
                    <rect stroke="#979797" stroke-width="1" x="0.5" y="0.5" width="279" height="67"></rect>
                </g>
                <g id="Rectangle-6">
                    <use fill="#D8D8D8" fill-rule="evenodd" xlink:href="#path-3"></use>
                    <rect stroke="#979797" stroke-width="1" x="0.5" y="976.5" width="279" height="67"></rect>
                </g>
                <g id="Rectangle-6">
                    <use fill="#BFBFBF" fill-rule="evenodd" xlink:href="#path-4"></use>
                    <rect stroke="#979797" stroke-width="1" x="0.5" y="79.5" width="279" height="555"></rect>
                </g>
            </g>
            <path d="M32.0429688,35.7578125 L38.7226562,38.1132812 L38.7226562,41.3945312 L28.6328125,37.1171875 L28.6328125,34.3515625 L38.7226562,30.0742188 L38.7226562,33.3554688 L32.0429688,35.7578125 Z M44.8164062,31.703125 C45.7148482,30.6249946 46.8437432,30.0859375 48.203125,30.0859375 C50.9531388,30.0859375 52.3476561,31.6835778 52.3867188,34.8789062 L52.3867188,43 L49,43 L49,34.9726562 C49,34.2460901 48.8437516,33.7089861 48.53125,33.3613281 C48.2187484,33.0136701 47.6992224,32.8398438 46.9726562,32.8398438 C45.9804638,32.8398438 45.261721,33.2226524 44.8164062,33.9882812 L44.8164062,43 L41.4296875,43 L41.4296875,25 L44.8164062,25 L44.8164062,31.703125 Z M60.7773438,43.234375 C58.9179595,43.234375 57.4043027,42.6640682 56.2363281,41.5234375 C55.0683535,40.3828068 54.484375,38.8632907 54.484375,36.9648438 L54.484375,36.6367188 C54.484375,35.3632749 54.7304663,34.2246144 55.2226562,33.2207031 C55.7148462,32.2167919 56.4121049,31.4433621 57.3144531,30.9003906 C58.2168014,30.3574192 59.246088,30.0859375 60.4023438,30.0859375 C62.1367274,30.0859375 63.5019481,30.632807 64.4980469,31.7265625 C65.4941456,32.820318 65.9921875,34.3710837 65.9921875,36.3789062 L65.9921875,37.7617188 L57.9179688,37.7617188 C58.0273443,38.5898479 58.3574191,39.2539038 58.9082031,39.7539062 C59.4589871,40.2539087 60.1562458,40.5039062 61,40.5039062 C62.304694,40.5039062 63.3242151,40.0312547 64.0585938,39.0859375 L65.7226562,40.9492188 C65.2148412,41.6679723 64.5273481,42.2285136 63.6601562,42.6308594 C62.7929644,43.0332051 61.8320365,43.234375 60.7773438,43.234375 Z M60.390625,32.828125 C59.7187466,32.828125 59.1738302,33.0546852 58.7558594,33.5078125 C58.3378885,33.9609398 58.0703131,34.6093708 57.953125,35.453125 L62.6640625,35.453125 L62.6640625,35.1835938 C62.6484374,34.43359 62.4453145,33.8535177 62.0546875,33.4433594 C61.6640605,33.0332011 61.1093786,32.828125 60.390625,32.828125 Z M75.2617188,43 C75.105468,42.695311 74.9921879,42.3164085 74.921875,41.8632812 C74.1015584,42.7773483 73.0351628,43.234375 71.7226562,43.234375 C70.4804625,43.234375 69.451176,42.8750036 68.6347656,42.15625 C67.8183553,41.4374964 67.4101562,40.5312555 67.4101562,39.4375 C67.4101562,38.0937433 67.9081981,37.0625036 68.9042969,36.34375 C69.9003956,35.6249964 71.3398343,35.2617188 73.2226562,35.2539062 L74.78125,35.2539062 L74.78125,34.5273438 C74.78125,33.9414033 74.6308609,33.472658 74.3300781,33.1210938 C74.0292954,32.7695295 73.5546907,32.59375 72.90625,32.59375 C72.3359346,32.59375 71.8886735,32.7304674 71.5644531,33.0039062 C71.2402328,33.2773451 71.078125,33.6523414 71.078125,34.1289062 L67.6914062,34.1289062 C67.6914062,33.3945276 67.9179665,32.7148469 68.3710938,32.0898438 C68.824221,31.4648406 69.4648396,30.9746112 70.2929688,30.6191406 C71.1210979,30.2636701 72.0507761,30.0859375 73.0820312,30.0859375 C74.6445391,30.0859375 75.884761,30.4785117 76.8027344,31.2636719 C77.7207077,32.0488321 78.1796875,33.1523366 78.1796875,34.5742188 L78.1796875,40.0703125 C78.1875,41.2734435 78.3554671,42.1835907 78.6835938,42.8007812 L78.6835938,43 L75.2617188,43 Z M72.4609375,40.6445312 C72.96094,40.6445312 73.4218729,40.5332042 73.84375,40.3105469 C74.2656271,40.0878895 74.578124,39.7890644 74.78125,39.4140625 L74.78125,37.234375 L73.515625,37.234375 C71.820304,37.234375 70.9179693,37.8203066 70.8085938,38.9921875 L70.796875,39.1914062 C70.796875,39.6132834 70.945311,39.9609361 71.2421875,40.234375 C71.539064,40.5078139 71.9453099,40.6445312 72.4609375,40.6445312 Z M80.2539062,36.5664062 C80.2539062,34.5898339 80.6972612,33.0156309 81.5839844,31.84375 C82.4707076,30.6718691 83.6835861,30.0859375 85.2226562,30.0859375 C86.4570374,30.0859375 87.4765585,30.5468704 88.28125,31.46875 L88.28125,25 L91.6796875,25 L91.6796875,43 L88.6210938,43 L88.4570312,41.6523438 C87.613277,42.7070365 86.5273504,43.234375 85.1992188,43.234375 C83.7070238,43.234375 82.5097701,42.6464903 81.6074219,41.4707031 C80.7050736,40.294916 80.2539062,38.6601667 80.2539062,36.5664062 Z M83.640625,36.8125 C83.640625,38.0000059 83.8476542,38.9101531 84.2617188,39.5429688 C84.6757833,40.1757844 85.2773398,40.4921875 86.0664062,40.4921875 C87.1132865,40.4921875 87.8515604,40.0507857 88.28125,39.1679688 L88.28125,34.1640625 C87.8593729,33.2812456 87.1289114,32.8398438 86.0898438,32.8398438 C84.4570231,32.8398438 83.640625,34.1640493 83.640625,36.8125 Z M100.140625,43.234375 C98.2812407,43.234375 96.767584,42.6640682 95.5996094,41.5234375 C94.4316348,40.3828068 93.8476562,38.8632907 93.8476562,36.9648438 L93.8476562,36.6367188 C93.8476562,35.3632749 94.0937475,34.2246144 94.5859375,33.2207031 C95.0781275,32.2167919 95.7753861,31.4433621 96.6777344,30.9003906 C97.5800826,30.3574192 98.6093692,30.0859375 99.765625,30.0859375 C101.500009,30.0859375 102.865229,30.632807 103.861328,31.7265625 C104.857427,32.820318 105.355469,34.3710837 105.355469,36.3789062 L105.355469,37.7617188 L97.28125,37.7617188 C97.3906255,38.5898479 97.7207004,39.2539038 98.2714844,39.7539062 C98.8222684,40.2539087 99.519527,40.5039062 100.363281,40.5039062 C101.667975,40.5039062 102.687496,40.0312547 103.421875,39.0859375 L105.085938,40.9492188 C104.578122,41.6679723 103.890629,42.2285136 103.023438,42.6308594 C102.156246,43.0332051 101.195318,43.234375 100.140625,43.234375 Z M99.7539062,32.828125 C99.0820279,32.828125 98.5371115,33.0546852 98.1191406,33.5078125 C97.7011698,33.9609398 97.4335943,34.6093708 97.3164062,35.453125 L102.027344,35.453125 L102.027344,35.1835938 C102.011719,34.43359 101.808596,33.8535177 101.417969,33.4433594 C101.027342,33.0332011 100.47266,32.828125 99.7539062,32.828125 Z M114.402344,33.4960938 C113.941404,33.4335934 113.535158,33.4023438 113.183594,33.4023438 C111.902337,33.4023438 111.062502,33.8359332 110.664062,34.703125 L110.664062,43 L107.277344,43 L107.277344,30.3203125 L110.476562,30.3203125 L110.570312,31.8320312 C111.250003,30.6679629 112.1914,30.0859375 113.394531,30.0859375 C113.769533,30.0859375 114.121092,30.1367182 114.449219,30.2382812 L114.402344,33.4960938 Z M122.945312,35.7226562 L116.136719,33.34375 L116.136719,30.0859375 L126.34375,34.3632812 L126.34375,37.1171875 L116.136719,41.40625 L116.136719,38.1367188 L122.945312,35.7226562 Z M131.171875,35.7578125 L137.851562,38.1132812 L137.851562,41.3945312 L127.761719,37.1171875 L127.761719,34.3515625 L137.851562,30.0742188 L137.851562,33.3554688 L131.171875,35.7578125 Z M141.707031,44.4648438 L139.1875,44.4648438 L145.46875,25.9375 L147.988281,25.9375 L141.707031,44.4648438 Z M152.910156,31.703125 C153.808598,30.6249946 154.937493,30.0859375 156.296875,30.0859375 C159.046889,30.0859375 160.441406,31.6835778 160.480469,34.8789062 L160.480469,43 L157.09375,43 L157.09375,34.9726562 C157.09375,34.2460901 156.937502,33.7089861 156.625,33.3613281 C156.312498,33.0136701 155.792972,32.8398438 155.066406,32.8398438 C154.074214,32.8398438 153.355471,33.2226524 152.910156,33.9882812 L152.910156,43 L149.523438,43 L149.523438,25 L152.910156,25 L152.910156,31.703125 Z M168.871094,43.234375 C167.011709,43.234375 165.498053,42.6640682 164.330078,41.5234375 C163.162104,40.3828068 162.578125,38.8632907 162.578125,36.9648438 L162.578125,36.6367188 C162.578125,35.3632749 162.824216,34.2246144 163.316406,33.2207031 C163.808596,32.2167919 164.505855,31.4433621 165.408203,30.9003906 C166.310551,30.3574192 167.339838,30.0859375 168.496094,30.0859375 C170.230477,30.0859375 171.595698,30.632807 172.591797,31.7265625 C173.587896,32.820318 174.085938,34.3710837 174.085938,36.3789062 L174.085938,37.7617188 L166.011719,37.7617188 C166.121094,38.5898479 166.451169,39.2539038 167.001953,39.7539062 C167.552737,40.2539087 168.249996,40.5039062 169.09375,40.5039062 C170.398444,40.5039062 171.417965,40.0312547 172.152344,39.0859375 L173.816406,40.9492188 C173.308591,41.6679723 172.621098,42.2285136 171.753906,42.6308594 C170.886714,43.0332051 169.925787,43.234375 168.871094,43.234375 Z M168.484375,32.828125 C167.812497,32.828125 167.26758,33.0546852 166.849609,33.5078125 C166.431639,33.9609398 166.164063,34.6093708 166.046875,35.453125 L170.757812,35.453125 L170.757812,35.1835938 C170.742187,34.43359 170.539064,33.8535177 170.148438,33.4433594 C169.757811,33.0332011 169.203129,32.828125 168.484375,32.828125 Z M183.355469,43 C183.199218,42.695311 183.085938,42.3164085 183.015625,41.8632812 C182.195308,42.7773483 181.128913,43.234375 179.816406,43.234375 C178.574213,43.234375 177.544926,42.8750036 176.728516,42.15625 C175.912105,41.4374964 175.503906,40.5312555 175.503906,39.4375 C175.503906,38.0937433 176.001948,37.0625036 176.998047,36.34375 C177.994146,35.6249964 179.433584,35.2617188 181.316406,35.2539062 L182.875,35.2539062 L182.875,34.5273438 C182.875,33.9414033 182.724611,33.472658 182.423828,33.1210938 C182.123045,32.7695295 181.648441,32.59375 181,32.59375 C180.429685,32.59375 179.982423,32.7304674 179.658203,33.0039062 C179.333983,33.2773451 179.171875,33.6523414 179.171875,34.1289062 L175.785156,34.1289062 C175.785156,33.3945276 176.011716,32.7148469 176.464844,32.0898438 C176.917971,31.4648406 177.55859,30.9746112 178.386719,30.6191406 C179.214848,30.2636701 180.144526,30.0859375 181.175781,30.0859375 C182.738289,30.0859375 183.978511,30.4785117 184.896484,31.2636719 C185.814458,32.0488321 186.273438,33.1523366 186.273438,34.5742188 L186.273438,40.0703125 C186.28125,41.2734435 186.449217,42.1835907 186.777344,42.8007812 L186.777344,43 L183.355469,43 Z M180.554688,40.6445312 C181.05469,40.6445312 181.515623,40.5332042 181.9375,40.3105469 C182.359377,40.0878895 182.671874,39.7890644 182.875,39.4140625 L182.875,37.234375 L181.609375,37.234375 C179.914054,37.234375 179.011719,37.8203066 178.902344,38.9921875 L178.890625,39.1914062 C178.890625,39.6132834 179.039061,39.9609361 179.335938,40.234375 C179.632814,40.5078139 180.03906,40.6445312 180.554688,40.6445312 Z M188.347656,36.5664062 C188.347656,34.5898339 188.791011,33.0156309 189.677734,31.84375 C190.564458,30.6718691 191.777336,30.0859375 193.316406,30.0859375 C194.550787,30.0859375 195.570308,30.5468704 196.375,31.46875 L196.375,25 L199.773438,25 L199.773438,43 L196.714844,43 L196.550781,41.6523438 C195.707027,42.7070365 194.6211,43.234375 193.292969,43.234375 C191.800774,43.234375 190.60352,42.6464903 189.701172,41.4707031 C188.798824,40.294916 188.347656,38.6601667 188.347656,36.5664062 Z M191.734375,36.8125 C191.734375,38.0000059 191.941404,38.9101531 192.355469,39.5429688 C192.769533,40.1757844 193.37109,40.4921875 194.160156,40.4921875 C195.207036,40.4921875 195.94531,40.0507857 196.375,39.1679688 L196.375,34.1640625 C195.953123,33.2812456 195.222661,32.8398438 194.183594,32.8398438 C192.550773,32.8398438 191.734375,34.1640493 191.734375,36.8125 Z M208.234375,43.234375 C206.374991,43.234375 204.861334,42.6640682 203.693359,41.5234375 C202.525385,40.3828068 201.941406,38.8632907 201.941406,36.9648438 L201.941406,36.6367188 C201.941406,35.3632749 202.187498,34.2246144 202.679688,33.2207031 C203.171877,32.2167919 203.869136,31.4433621 204.771484,30.9003906 C205.673833,30.3574192 206.703119,30.0859375 207.859375,30.0859375 C209.593759,30.0859375 210.958979,30.632807 211.955078,31.7265625 C212.951177,32.820318 213.449219,34.3710837 213.449219,36.3789062 L213.449219,37.7617188 L205.375,37.7617188 C205.484376,38.5898479 205.81445,39.2539038 206.365234,39.7539062 C206.916018,40.2539087 207.613277,40.5039062 208.457031,40.5039062 C209.761725,40.5039062 210.781246,40.0312547 211.515625,39.0859375 L213.179688,40.9492188 C212.671872,41.6679723 211.984379,42.2285136 211.117188,42.6308594 C210.249996,43.0332051 209.289068,43.234375 208.234375,43.234375 Z M207.847656,32.828125 C207.175778,32.828125 206.630861,33.0546852 206.212891,33.5078125 C205.79492,33.9609398 205.527344,34.6093708 205.410156,35.453125 L210.121094,35.453125 L210.121094,35.1835938 C210.105469,34.43359 209.902346,33.8535177 209.511719,33.4433594 C209.121092,33.0332011 208.56641,32.828125 207.847656,32.828125 Z M222.496094,33.4960938 C222.035154,33.4335934 221.628908,33.4023438 221.277344,33.4023438 C219.996087,33.4023438 219.156252,33.8359332 218.757812,34.703125 L218.757812,43 L215.371094,43 L215.371094,30.3203125 L218.570312,30.3203125 L218.664062,31.8320312 C219.343753,30.6679629 220.28515,30.0859375 221.488281,30.0859375 C221.863283,30.0859375 222.214842,30.1367182 222.542969,30.2382812 L222.496094,33.4960938 Z M231.039062,35.7226562 L224.230469,33.34375 L224.230469,30.0859375 L234.4375,34.3632812 L234.4375,37.1171875 L224.230469,41.40625 L224.230469,38.1367188 L231.039062,35.7226562 Z" id="&lt;header&gt;&lt;/header&gt;" fill="#4B4B4B"></path>
            <path d="M29.0429688,115.757812 L35.7226562,118.113281 L35.7226562,121.394531 L25.6328125,117.117188 L25.6328125,114.351562 L35.7226562,110.074219 L35.7226562,113.355469 L29.0429688,115.757812 Z M45.3789062,119.496094 C45.3789062,119.082029 45.1738302,118.755861 44.7636719,118.517578 C44.3535136,118.279296 43.695317,118.066407 42.7890625,117.878906 C39.7734224,117.246091 38.265625,115.964853 38.265625,114.035156 C38.265625,112.910151 38.7324172,111.970707 39.6660156,111.216797 C40.599614,110.462887 41.820305,110.085938 43.328125,110.085938 C44.937508,110.085938 46.2246046,110.46484 47.1894531,111.222656 C48.1543017,111.980473 48.6367188,112.964838 48.6367188,114.175781 L45.25,114.175781 C45.25,113.691404 45.0937516,113.291017 44.78125,112.974609 C44.4687484,112.658202 43.9804721,112.5 43.3164062,112.5 C42.7460909,112.5 42.3046891,112.628905 41.9921875,112.886719 C41.6796859,113.144533 41.5234375,113.472654 41.5234375,113.871094 C41.5234375,114.246096 41.7011701,114.548827 42.0566406,114.779297 C42.4121112,115.009767 43.0117145,115.208984 43.8554688,115.376953 C44.699223,115.544923 45.4101534,115.734374 45.9882812,115.945312 C47.7773527,116.601566 48.671875,117.738273 48.671875,119.355469 C48.671875,120.511725 48.1757862,121.447262 47.1835938,122.162109 C46.1914013,122.876957 44.9101641,123.234375 43.3398438,123.234375 C42.2773384,123.234375 41.3339885,123.044924 40.5097656,122.666016 C39.6855428,122.287107 39.0390648,121.767581 38.5703125,121.107422 C38.1015602,120.447262 37.8671875,119.734379 37.8671875,118.96875 L41.078125,118.96875 C41.1093752,119.570316 41.3320292,120.031248 41.7460938,120.351562 C42.1601583,120.671877 42.7148403,120.832031 43.4101562,120.832031 C44.058597,120.832031 44.5488265,120.708986 44.8808594,120.462891 C45.2128923,120.216796 45.3789062,119.894533 45.3789062,119.496094 Z M56.6875,123.234375 C54.8281157,123.234375 53.314459,122.664068 52.1464844,121.523438 C50.9785098,120.382807 50.3945312,118.863291 50.3945312,116.964844 L50.3945312,116.636719 C50.3945312,115.363275 50.6406225,114.224614 51.1328125,113.220703 C51.6250025,112.216792 52.3222611,111.443362 53.2246094,110.900391 C54.1269576,110.357419 55.1562442,110.085938 56.3125,110.085938 C58.0468837,110.085938 59.4121044,110.632807 60.4082031,111.726562 C61.4043019,112.820318 61.9023438,114.371084 61.9023438,116.378906 L61.9023438,117.761719 L53.828125,117.761719 C53.9375005,118.589848 54.2675754,119.253904 54.8183594,119.753906 C55.3691434,120.253909 56.066402,120.503906 56.9101562,120.503906 C58.2148503,120.503906 59.2343713,120.031255 59.96875,119.085938 L61.6328125,120.949219 C61.1249975,121.667972 60.4375043,122.228514 59.5703125,122.630859 C58.7031207,123.033205 57.7421928,123.234375 56.6875,123.234375 Z M56.3007812,112.828125 C55.6289029,112.828125 55.0839865,113.054685 54.6660156,113.507812 C54.2480448,113.96094 53.9804693,114.609371 53.8632812,115.453125 L58.5742188,115.453125 L58.5742188,115.183594 C58.5585937,114.43359 58.3554707,113.853518 57.9648438,113.443359 C57.5742168,113.033201 57.0195348,112.828125 56.3007812,112.828125 Z M69.0976562,120.503906 C69.7226594,120.503906 70.2304668,120.332033 70.6210938,119.988281 C71.0117207,119.64453 71.2148437,119.187503 71.2304688,118.617188 L74.40625,118.617188 C74.3984375,119.476567 74.1640648,120.263668 73.703125,120.978516 C73.2421852,121.693363 72.6113321,122.248045 71.8105469,122.642578 C71.0097616,123.037111 70.1250048,123.234375 69.15625,123.234375 C67.3437409,123.234375 65.9140677,122.658209 64.8671875,121.505859 C63.8203073,120.35351 63.296875,118.761729 63.296875,116.730469 L63.296875,116.507812 C63.296875,114.554678 63.8164011,112.9961 64.8554688,111.832031 C65.8945364,110.667963 67.3203034,110.085938 69.1328125,110.085938 C70.7187579,110.085938 71.9902296,110.537105 72.9472656,111.439453 C73.9043017,112.341801 74.3906249,113.542961 74.40625,115.042969 L71.2304688,115.042969 C71.2148437,114.386715 71.0117207,113.853518 70.6210938,113.443359 C70.2304668,113.033201 69.714847,112.828125 69.0742188,112.828125 C68.2851523,112.828125 67.6894551,113.115232 67.2871094,113.689453 C66.8847636,114.263675 66.6835938,115.195306 66.6835938,116.484375 L66.6835938,116.835938 C66.6835938,118.140632 66.8828105,119.078122 67.28125,119.648438 C67.6796895,120.218753 68.2851522,120.503906 69.0976562,120.503906 Z M80.3945312,107.203125 L80.3945312,110.320312 L82.5625,110.320312 L82.5625,112.804688 L80.3945312,112.804688 L80.3945312,119.132812 C80.3945312,119.601565 80.4843741,119.937499 80.6640625,120.140625 C80.8437509,120.343751 81.1874975,120.445312 81.6953125,120.445312 C82.0703144,120.445312 82.4023423,120.417969 82.6914062,120.363281 L82.6914062,122.929688 C82.0273404,123.132814 81.3437535,123.234375 80.640625,123.234375 C78.2656131,123.234375 77.0546877,122.035168 77.0078125,119.636719 L77.0078125,112.804688 L75.15625,112.804688 L75.15625,110.320312 L77.0078125,110.320312 L77.0078125,107.203125 L80.3945312,107.203125 Z M88.0234375,123 L84.625,123 L84.625,110.320312 L88.0234375,110.320312 L88.0234375,123 Z M84.4257812,107.039062 C84.4257812,106.531247 84.5957014,106.113283 84.9355469,105.785156 C85.2753923,105.45703 85.7382783,105.292969 86.3242188,105.292969 C86.9023466,105.292969 87.3632795,105.45703 87.7070312,105.785156 C88.050783,106.113283 88.2226562,106.531247 88.2226562,107.039062 C88.2226562,107.55469 88.0488299,107.976561 87.7011719,108.304688 C87.3535139,108.632814 86.8945341,108.796875 86.3242188,108.796875 C85.7539034,108.796875 85.2949236,108.632814 84.9472656,108.304688 C84.5996076,107.976561 84.4257812,107.55469 84.4257812,107.039062 Z M90.2851562,116.542969 C90.2851562,115.28515 90.5273413,114.164067 91.0117188,113.179688 C91.4960962,112.195308 92.1933548,111.433596 93.1035156,110.894531 C94.0136764,110.355466 95.0703065,110.085938 96.2734375,110.085938 C97.9843836,110.085938 99.380854,110.60937 100.462891,111.65625 C101.544927,112.70313 102.148437,114.124991 102.273438,115.921875 L102.296875,116.789062 C102.296875,118.734385 101.753912,120.294916 100.667969,121.470703 C99.5820258,122.64649 98.1250091,123.234375 96.296875,123.234375 C94.4687409,123.234375 93.0097711,122.648443 91.9199219,121.476562 C90.8300727,120.304682 90.2851562,118.710948 90.2851562,116.695312 L90.2851562,116.542969 Z M93.671875,116.789062 C93.671875,117.992194 93.8984352,118.912106 94.3515625,119.548828 C94.8046898,120.18555 95.4531208,120.503906 96.296875,120.503906 C97.1171916,120.503906 97.7578102,120.189456 98.21875,119.560547 C98.6796898,118.931637 98.9101562,117.925788 98.9101562,116.542969 C98.9101562,115.363275 98.6796898,114.449222 98.21875,113.800781 C97.7578102,113.152341 97.1093792,112.828125 96.2734375,112.828125 C95.4453084,112.828125 94.8046898,113.150387 94.3515625,113.794922 C93.8984352,114.439456 93.671875,115.437493 93.671875,116.789062 Z M107.5,110.320312 L107.605469,111.785156 C108.511723,110.652338 109.726555,110.085938 111.25,110.085938 C112.593757,110.085938 113.593747,110.480465 114.25,111.269531 C114.906253,112.058598 115.242187,113.238273 115.257813,114.808594 L115.257813,123 L111.871094,123 L111.871094,114.890625 C111.871094,114.171871 111.714845,113.650392 111.402344,113.326172 C111.089842,113.001952 110.570316,112.839844 109.84375,112.839844 C108.89062,112.839844 108.175784,113.24609 107.699219,114.058594 L107.699219,123 L104.3125,123 L104.3125,110.320312 L107.5,110.320312 Z M124.738281,115.722656 L117.929688,113.34375 L117.929688,110.085938 L128.136719,114.363281 L128.136719,117.117188 L117.929688,121.40625 L117.929688,118.136719 L124.738281,115.722656 Z M132.964844,115.757812 L139.644531,118.113281 L139.644531,121.394531 L129.554688,117.117188 L129.554688,114.351562 L139.644531,110.074219 L139.644531,113.355469 L132.964844,115.757812 Z M143.5,124.464844 L140.980469,124.464844 L147.261719,105.9375 L149.78125,105.9375 L143.5,124.464844 Z M158.265625,119.496094 C158.265625,119.082029 158.060549,118.755861 157.650391,118.517578 C157.240232,118.279296 156.582036,118.066407 155.675781,117.878906 C152.660141,117.246091 151.152344,115.964853 151.152344,114.035156 C151.152344,112.910151 151.619136,111.970707 152.552734,111.216797 C153.486333,110.462887 154.707024,110.085938 156.214844,110.085938 C157.824227,110.085938 159.111323,110.46484 160.076172,111.222656 C161.04102,111.980473 161.523438,112.964838 161.523438,114.175781 L158.136719,114.175781 C158.136719,113.691404 157.98047,113.291017 157.667969,112.974609 C157.355467,112.658202 156.867191,112.5 156.203125,112.5 C155.63281,112.5 155.191408,112.628905 154.878906,112.886719 C154.566405,113.144533 154.410156,113.472654 154.410156,113.871094 C154.410156,114.246096 154.587889,114.548827 154.943359,114.779297 C155.29883,115.009767 155.898433,115.208984 156.742188,115.376953 C157.585942,115.544923 158.296872,115.734374 158.875,115.945312 C160.664071,116.601566 161.558594,117.738273 161.558594,119.355469 C161.558594,120.511725 161.062505,121.447262 160.070312,122.162109 C159.07812,122.876957 157.796883,123.234375 156.226562,123.234375 C155.164057,123.234375 154.220707,123.044924 153.396484,122.666016 C152.572262,122.287107 151.925784,121.767581 151.457031,121.107422 C150.988279,120.447262 150.753906,119.734379 150.753906,118.96875 L153.964844,118.96875 C153.996094,119.570316 154.218748,120.031248 154.632812,120.351562 C155.046877,120.671877 155.601559,120.832031 156.296875,120.832031 C156.945316,120.832031 157.435545,120.708986 157.767578,120.462891 C158.099611,120.216796 158.265625,119.894533 158.265625,119.496094 Z M169.574219,123.234375 C167.714834,123.234375 166.201178,122.664068 165.033203,121.523438 C163.865229,120.382807 163.28125,118.863291 163.28125,116.964844 L163.28125,116.636719 C163.28125,115.363275 163.527341,114.224614 164.019531,113.220703 C164.511721,112.216792 165.20898,111.443362 166.111328,110.900391 C167.013676,110.357419 168.042963,110.085938 169.199219,110.085938 C170.933602,110.085938 172.298823,110.632807 173.294922,111.726562 C174.291021,112.820318 174.789062,114.371084 174.789062,116.378906 L174.789062,117.761719 L166.714844,117.761719 C166.824219,118.589848 167.154294,119.253904 167.705078,119.753906 C168.255862,120.253909 168.953121,120.503906 169.796875,120.503906 C171.101569,120.503906 172.12109,120.031255 172.855469,119.085938 L174.519531,120.949219 C174.011716,121.667972 173.324223,122.228514 172.457031,122.630859 C171.589839,123.033205 170.628912,123.234375 169.574219,123.234375 Z M169.1875,112.828125 C168.515622,112.828125 167.970705,113.054685 167.552734,113.507812 C167.134764,113.96094 166.867188,114.609371 166.75,115.453125 L171.460938,115.453125 L171.460938,115.183594 C171.445312,114.43359 171.242189,113.853518 170.851562,113.443359 C170.460936,113.033201 169.906254,112.828125 169.1875,112.828125 Z M181.984375,120.503906 C182.609378,120.503906 183.117186,120.332033 183.507812,119.988281 C183.898439,119.64453 184.101562,119.187503 184.117188,118.617188 L187.292969,118.617188 C187.285156,119.476567 187.050784,120.263668 186.589844,120.978516 C186.128904,121.693363 185.498051,122.248045 184.697266,122.642578 C183.89648,123.037111 183.011724,123.234375 182.042969,123.234375 C180.23046,123.234375 178.800786,122.658209 177.753906,121.505859 C176.707026,120.35351 176.183594,118.761729 176.183594,116.730469 L176.183594,116.507812 C176.183594,114.554678 176.70312,112.9961 177.742188,111.832031 C178.781255,110.667963 180.207022,110.085938 182.019531,110.085938 C183.605477,110.085938 184.876948,110.537105 185.833984,111.439453 C186.79102,112.341801 187.277344,113.542961 187.292969,115.042969 L184.117188,115.042969 C184.101562,114.386715 183.898439,113.853518 183.507812,113.443359 C183.117186,113.033201 182.601566,112.828125 181.960938,112.828125 C181.171871,112.828125 180.576174,113.115232 180.173828,113.689453 C179.771482,114.263675 179.570312,115.195306 179.570312,116.484375 L179.570312,116.835938 C179.570312,118.140632 179.769529,119.078122 180.167969,119.648438 C180.566408,120.218753 181.171871,120.503906 181.984375,120.503906 Z M193.28125,107.203125 L193.28125,110.320312 L195.449219,110.320312 L195.449219,112.804688 L193.28125,112.804688 L193.28125,119.132812 C193.28125,119.601565 193.371093,119.937499 193.550781,120.140625 C193.73047,120.343751 194.074216,120.445312 194.582031,120.445312 C194.957033,120.445312 195.289061,120.417969 195.578125,120.363281 L195.578125,122.929688 C194.914059,123.132814 194.230472,123.234375 193.527344,123.234375 C191.152332,123.234375 189.941406,122.035168 189.894531,119.636719 L189.894531,112.804688 L188.042969,112.804688 L188.042969,110.320312 L189.894531,110.320312 L189.894531,107.203125 L193.28125,107.203125 Z M200.910156,123 L197.511719,123 L197.511719,110.320312 L200.910156,110.320312 L200.910156,123 Z M197.3125,107.039062 C197.3125,106.531247 197.48242,106.113283 197.822266,105.785156 C198.162111,105.45703 198.624997,105.292969 199.210938,105.292969 C199.789065,105.292969 200.249998,105.45703 200.59375,105.785156 C200.937502,106.113283 201.109375,106.531247 201.109375,107.039062 C201.109375,107.55469 200.935549,107.976561 200.587891,108.304688 C200.240233,108.632814 199.781253,108.796875 199.210938,108.796875 C198.640622,108.796875 198.181642,108.632814 197.833984,108.304688 C197.486326,107.976561 197.3125,107.55469 197.3125,107.039062 Z M203.171875,116.542969 C203.171875,115.28515 203.41406,114.164067 203.898438,113.179688 C204.382815,112.195308 205.080074,111.433596 205.990234,110.894531 C206.900395,110.355466 207.957025,110.085938 209.160156,110.085938 C210.871102,110.085938 212.267573,110.60937 213.349609,111.65625 C214.431646,112.70313 215.035156,114.124991 215.160156,115.921875 L215.183594,116.789062 C215.183594,118.734385 214.64063,120.294916 213.554688,121.470703 C212.468745,122.64649 211.011728,123.234375 209.183594,123.234375 C207.35546,123.234375 205.89649,122.648443 204.806641,121.476562 C203.716791,120.304682 203.171875,118.710948 203.171875,116.695312 L203.171875,116.542969 Z M206.558594,116.789062 C206.558594,117.992194 206.785154,118.912106 207.238281,119.548828 C207.691409,120.18555 208.33984,120.503906 209.183594,120.503906 C210.00391,120.503906 210.644529,120.189456 211.105469,119.560547 C211.566409,118.931637 211.796875,117.925788 211.796875,116.542969 C211.796875,115.363275 211.566409,114.449222 211.105469,113.800781 C210.644529,113.152341 209.996098,112.828125 209.160156,112.828125 C208.332027,112.828125 207.691409,113.150387 207.238281,113.794922 C206.785154,114.439456 206.558594,115.437493 206.558594,116.789062 Z M220.386719,110.320312 L220.492188,111.785156 C221.398442,110.652338 222.613274,110.085938 224.136719,110.085938 C225.480475,110.085938 226.480465,110.480465 227.136719,111.269531 C227.792972,112.058598 228.128906,113.238273 228.144531,114.808594 L228.144531,123 L224.757812,123 L224.757812,114.890625 C224.757812,114.171871 224.601564,113.650392 224.289062,113.326172 C223.976561,113.001952 223.457035,112.839844 222.730469,112.839844 C221.777339,112.839844 221.062502,113.24609 220.585938,114.058594 L220.585938,123 L217.199219,123 L217.199219,110.320312 L220.386719,110.320312 Z M237.625,115.722656 L230.816406,113.34375 L230.816406,110.085938 L241.023438,114.363281 L241.023438,117.117188 L230.816406,121.40625 L230.816406,118.136719 L237.625,115.722656 Z" id="&lt;section&gt;&lt;/section&gt;" fill="#4B4B4B"></path>
            <path d="M42.0429688,1010.75781 L48.7226562,1013.11328 L48.7226562,1016.39453 L38.6328125,1012.11719 L38.6328125,1009.35156 L48.7226562,1005.07422 L48.7226562,1008.35547 L42.0429688,1010.75781 Z M52.4375,1018 L52.4375,1007.80469 L50.5507812,1007.80469 L50.5507812,1005.32031 L52.4375,1005.32031 L52.4375,1004.24219 C52.4375,1002.82031 52.845699,1001.7168 53.6621094,1000.93164 C54.4785197,1000.14648 55.6210864,999.753906 57.0898438,999.753906 C57.5585961,999.753906 58.1328091,999.83203 58.8125,999.988281 L58.7773438,1002.61328 C58.4960923,1002.54297 58.1523458,1002.50781 57.7460938,1002.50781 C56.4726499,1002.50781 55.8359375,1003.10546 55.8359375,1004.30078 L55.8359375,1005.32031 L58.3554688,1005.32031 L58.3554688,1007.80469 L55.8359375,1007.80469 L55.8359375,1018 L52.4375,1018 Z M59.5859375,1011.54297 C59.5859375,1010.28515 59.8281226,1009.16407 60.3125,1008.17969 C60.7968774,1007.19531 61.4941361,1006.4336 62.4042969,1005.89453 C63.3144577,1005.35547 64.3710877,1005.08594 65.5742188,1005.08594 C67.2851648,1005.08594 68.6816352,1005.60937 69.7636719,1006.65625 C70.8457085,1007.70313 71.4492181,1009.12499 71.5742188,1010.92188 L71.5976562,1011.78906 C71.5976562,1013.73438 71.0546929,1015.29492 69.96875,1016.4707 C68.8828071,1017.64649 67.4257904,1018.23438 65.5976562,1018.23438 C63.7695221,1018.23438 62.3105523,1017.64844 61.2207031,1016.47656 C60.1308539,1015.30468 59.5859375,1013.71095 59.5859375,1011.69531 L59.5859375,1011.54297 Z M62.9726562,1011.78906 C62.9726562,1012.99219 63.1992165,1013.91211 63.6523438,1014.54883 C64.105471,1015.18555 64.753902,1015.50391 65.5976562,1015.50391 C66.4179729,1015.50391 67.0585914,1015.18946 67.5195312,1014.56055 C67.9804711,1013.93164 68.2109375,1012.92579 68.2109375,1011.54297 C68.2109375,1010.36328 67.9804711,1009.44922 67.5195312,1008.80078 C67.0585914,1008.15234 66.4101604,1007.82812 65.5742188,1007.82812 C64.7460896,1007.82812 64.105471,1008.15039 63.6523438,1008.79492 C63.1992165,1009.43946 62.9726562,1010.43749 62.9726562,1011.78906 Z M73.15625,1011.54297 C73.15625,1010.28515 73.3984351,1009.16407 73.8828125,1008.17969 C74.3671899,1007.19531 75.0644486,1006.4336 75.9746094,1005.89453 C76.8847702,1005.35547 77.9414002,1005.08594 79.1445312,1005.08594 C80.8554773,1005.08594 82.2519477,1005.60937 83.3339844,1006.65625 C84.416021,1007.70313 85.0195306,1009.12499 85.1445312,1010.92188 L85.1679688,1011.78906 C85.1679688,1013.73438 84.6250054,1015.29492 83.5390625,1016.4707 C82.4531196,1017.64649 80.9961029,1018.23438 79.1679688,1018.23438 C77.3398346,1018.23438 75.8808648,1017.64844 74.7910156,1016.47656 C73.7011664,1015.30468 73.15625,1013.71095 73.15625,1011.69531 L73.15625,1011.54297 Z M76.5429688,1011.78906 C76.5429688,1012.99219 76.769529,1013.91211 77.2226562,1014.54883 C77.6757835,1015.18555 78.3242145,1015.50391 79.1679688,1015.50391 C79.9882854,1015.50391 80.6289039,1015.18946 81.0898438,1014.56055 C81.5507836,1013.93164 81.78125,1012.92579 81.78125,1011.54297 C81.78125,1010.36328 81.5507836,1009.44922 81.0898438,1008.80078 C80.6289039,1008.15234 79.9804729,1007.82812 79.1445312,1007.82812 C78.3164021,1007.82812 77.6757835,1008.15039 77.2226562,1008.79492 C76.769529,1009.43946 76.5429688,1010.43749 76.5429688,1011.78906 Z M91.3085938,1002.20312 L91.3085938,1005.32031 L93.4765625,1005.32031 L93.4765625,1007.80469 L91.3085938,1007.80469 L91.3085938,1014.13281 C91.3085938,1014.60156 91.3984366,1014.9375 91.578125,1015.14062 C91.7578134,1015.34375 92.10156,1015.44531 92.609375,1015.44531 C92.9843769,1015.44531 93.3164048,1015.41797 93.6054688,1015.36328 L93.6054688,1017.92969 C92.9414029,1018.13281 92.257816,1018.23438 91.5546875,1018.23438 C89.1796756,1018.23438 87.9687502,1017.03517 87.921875,1014.63672 L87.921875,1007.80469 L86.0703125,1007.80469 L86.0703125,1005.32031 L87.921875,1005.32031 L87.921875,1002.20312 L91.3085938,1002.20312 Z M101.199219,1018.23438 C99.3398345,1018.23438 97.8261777,1017.66407 96.6582031,1016.52344 C95.4902285,1015.38281 94.90625,1013.86329 94.90625,1011.96484 L94.90625,1011.63672 C94.90625,1010.36327 95.1523413,1009.22461 95.6445312,1008.2207 C96.1367212,1007.21679 96.8339799,1006.44336 97.7363281,1005.90039 C98.6386764,1005.35742 99.667963,1005.08594 100.824219,1005.08594 C102.558602,1005.08594 103.923823,1005.63281 104.919922,1006.72656 C105.916021,1007.82032 106.414062,1009.37108 106.414062,1011.37891 L106.414062,1012.76172 L98.3398438,1012.76172 C98.4492193,1013.58985 98.7792941,1014.2539 99.3300781,1014.75391 C99.8808621,1015.25391 100.578121,1015.50391 101.421875,1015.50391 C102.726569,1015.50391 103.74609,1015.03125 104.480469,1014.08594 L106.144531,1015.94922 C105.636716,1016.66797 104.949223,1017.22851 104.082031,1017.63086 C103.214839,1018.03321 102.253912,1018.23438 101.199219,1018.23438 Z M100.8125,1007.82812 C100.140622,1007.82812 99.5957052,1008.05469 99.1777344,1008.50781 C98.7597635,1008.96094 98.4921881,1009.60937 98.375,1010.45312 L103.085938,1010.45312 L103.085938,1010.18359 C103.070312,1009.43359 102.867189,1008.85352 102.476562,1008.44336 C102.085936,1008.0332 101.531254,1007.82812 100.8125,1007.82812 Z M115.460938,1008.49609 C114.999998,1008.43359 114.593752,1008.40234 114.242188,1008.40234 C112.960931,1008.40234 112.121096,1008.83593 111.722656,1009.70312 L111.722656,1018 L108.335938,1018 L108.335938,1005.32031 L111.535156,1005.32031 L111.628906,1006.83203 C112.308597,1005.66796 113.249994,1005.08594 114.453125,1005.08594 C114.828127,1005.08594 115.179686,1005.13672 115.507812,1005.23828 L115.460938,1008.49609 Z M124.003906,1010.72266 L117.195312,1008.34375 L117.195312,1005.08594 L127.402344,1009.36328 L127.402344,1012.11719 L117.195312,1016.40625 L117.195312,1013.13672 L124.003906,1010.72266 Z M132.230469,1010.75781 L138.910156,1013.11328 L138.910156,1016.39453 L128.820312,1012.11719 L128.820312,1009.35156 L138.910156,1005.07422 L138.910156,1008.35547 L132.230469,1010.75781 Z M142.765625,1019.46484 L140.246094,1019.46484 L146.527344,1000.9375 L149.046875,1000.9375 L142.765625,1019.46484 Z M151.589844,1018 L151.589844,1007.80469 L149.703125,1007.80469 L149.703125,1005.32031 L151.589844,1005.32031 L151.589844,1004.24219 C151.589844,1002.82031 151.998043,1001.7168 152.814453,1000.93164 C153.630863,1000.14648 154.77343,999.753906 156.242188,999.753906 C156.71094,999.753906 157.285153,999.83203 157.964844,999.988281 L157.929688,1002.61328 C157.648436,1002.54297 157.30469,1002.50781 156.898438,1002.50781 C155.624994,1002.50781 154.988281,1003.10546 154.988281,1004.30078 L154.988281,1005.32031 L157.507812,1005.32031 L157.507812,1007.80469 L154.988281,1007.80469 L154.988281,1018 L151.589844,1018 Z M158.738281,1011.54297 C158.738281,1010.28515 158.980466,1009.16407 159.464844,1008.17969 C159.949221,1007.19531 160.64648,1006.4336 161.556641,1005.89453 C162.466801,1005.35547 163.523431,1005.08594 164.726562,1005.08594 C166.437509,1005.08594 167.833979,1005.60937 168.916016,1006.65625 C169.998052,1007.70313 170.601562,1009.12499 170.726562,1010.92188 L170.75,1011.78906 C170.75,1013.73438 170.207037,1015.29492 169.121094,1016.4707 C168.035151,1017.64649 166.578134,1018.23438 164.75,1018.23438 C162.921866,1018.23438 161.462896,1017.64844 160.373047,1016.47656 C159.283198,1015.30468 158.738281,1013.71095 158.738281,1011.69531 L158.738281,1011.54297 Z M162.125,1011.78906 C162.125,1012.99219 162.35156,1013.91211 162.804688,1014.54883 C163.257815,1015.18555 163.906246,1015.50391 164.75,1015.50391 C165.570317,1015.50391 166.210935,1015.18946 166.671875,1014.56055 C167.132815,1013.93164 167.363281,1012.92579 167.363281,1011.54297 C167.363281,1010.36328 167.132815,1009.44922 166.671875,1008.80078 C166.210935,1008.15234 165.562504,1007.82812 164.726562,1007.82812 C163.898433,1007.82812 163.257815,1008.15039 162.804688,1008.79492 C162.35156,1009.43946 162.125,1010.43749 162.125,1011.78906 Z M172.308594,1011.54297 C172.308594,1010.28515 172.550779,1009.16407 173.035156,1008.17969 C173.519534,1007.19531 174.216792,1006.4336 175.126953,1005.89453 C176.037114,1005.35547 177.093744,1005.08594 178.296875,1005.08594 C180.007821,1005.08594 181.404291,1005.60937 182.486328,1006.65625 C183.568365,1007.70313 184.171874,1009.12499 184.296875,1010.92188 L184.320312,1011.78906 C184.320312,1013.73438 183.777349,1015.29492 182.691406,1016.4707 C181.605463,1017.64649 180.148447,1018.23438 178.320312,1018.23438 C176.492178,1018.23438 175.033209,1017.64844 173.943359,1016.47656 C172.85351,1015.30468 172.308594,1013.71095 172.308594,1011.69531 L172.308594,1011.54297 Z M175.695312,1011.78906 C175.695312,1012.99219 175.921873,1013.91211 176.375,1014.54883 C176.828127,1015.18555 177.476558,1015.50391 178.320312,1015.50391 C179.140629,1015.50391 179.781248,1015.18946 180.242188,1014.56055 C180.703127,1013.93164 180.933594,1012.92579 180.933594,1011.54297 C180.933594,1010.36328 180.703127,1009.44922 180.242188,1008.80078 C179.781248,1008.15234 179.132817,1007.82812 178.296875,1007.82812 C177.468746,1007.82812 176.828127,1008.15039 176.375,1008.79492 C175.921873,1009.43946 175.695312,1010.43749 175.695312,1011.78906 Z M190.460938,1002.20312 L190.460938,1005.32031 L192.628906,1005.32031 L192.628906,1007.80469 L190.460938,1007.80469 L190.460938,1014.13281 C190.460938,1014.60156 190.55078,1014.9375 190.730469,1015.14062 C190.910157,1015.34375 191.253904,1015.44531 191.761719,1015.44531 C192.136721,1015.44531 192.468749,1015.41797 192.757812,1015.36328 L192.757812,1017.92969 C192.093747,1018.13281 191.41016,1018.23438 190.707031,1018.23438 C188.332019,1018.23438 187.121094,1017.03517 187.074219,1014.63672 L187.074219,1007.80469 L185.222656,1007.80469 L185.222656,1005.32031 L187.074219,1005.32031 L187.074219,1002.20312 L190.460938,1002.20312 Z M200.351562,1018.23438 C198.492178,1018.23438 196.978521,1017.66407 195.810547,1016.52344 C194.642572,1015.38281 194.058594,1013.86329 194.058594,1011.96484 L194.058594,1011.63672 C194.058594,1010.36327 194.304685,1009.22461 194.796875,1008.2207 C195.289065,1007.21679 195.986324,1006.44336 196.888672,1005.90039 C197.79102,1005.35742 198.820307,1005.08594 199.976562,1005.08594 C201.710946,1005.08594 203.076167,1005.63281 204.072266,1006.72656 C205.068364,1007.82032 205.566406,1009.37108 205.566406,1011.37891 L205.566406,1012.76172 L197.492188,1012.76172 C197.601563,1013.58985 197.931638,1014.2539 198.482422,1014.75391 C199.033206,1015.25391 199.730465,1015.50391 200.574219,1015.50391 C201.878913,1015.50391 202.898434,1015.03125 203.632812,1014.08594 L205.296875,1015.94922 C204.78906,1016.66797 204.101567,1017.22851 203.234375,1017.63086 C202.367183,1018.03321 201.406255,1018.23438 200.351562,1018.23438 Z M199.964844,1007.82812 C199.292965,1007.82812 198.748049,1008.05469 198.330078,1008.50781 C197.912107,1008.96094 197.644532,1009.60937 197.527344,1010.45312 L202.238281,1010.45312 L202.238281,1010.18359 C202.222656,1009.43359 202.019533,1008.85352 201.628906,1008.44336 C201.238279,1008.0332 200.683597,1007.82812 199.964844,1007.82812 Z M214.613281,1008.49609 C214.152341,1008.43359 213.746096,1008.40234 213.394531,1008.40234 C212.113275,1008.40234 211.273439,1008.83593 210.875,1009.70312 L210.875,1018 L207.488281,1018 L207.488281,1005.32031 L210.6875,1005.32031 L210.78125,1006.83203 C211.460941,1005.66796 212.402338,1005.08594 213.605469,1005.08594 C213.980471,1005.08594 214.33203,1005.13672 214.660156,1005.23828 L214.613281,1008.49609 Z M223.15625,1010.72266 L216.347656,1008.34375 L216.347656,1005.08594 L226.554688,1009.36328 L226.554688,1012.11719 L216.347656,1016.40625 L216.347656,1013.13672 L223.15625,1010.72266 Z" id="&lt;footer&gt;&lt;/footer&gt;" fill="#4B4B4B"></path>
        </g>
    </g>
</svg>
