<svg viewBox="0 0 280 1044" xmlns="http://www.w3.org/2000/svg" xmlns:xlink="http://www.w3.org/1999/xlink">
  <defs>
    <path id="a" d="M0 0h280v1044H0z"/>
    <path id="b" d="M0 0h280v68H0z"/>
    <path id="c" d="M0 976h280v68H0z"/>
    <path id="d" d="M0 79h280v556H0z"/>
  </defs>
  <g fill="none" fill-rule="evenodd">
    <use fill="#9A9A9A" xlink:href="#a"/>
    <path stroke="#979797" d="M.5.5h279v1043H.5z"/>
    <use fill="#D8D8D8" xlink:href="#b"/>
    <path stroke="#979797" d="M.5.5h279v67H.5z"/>
    <g>
      <use fill="#D8D8D8" xlink:href="#c"/>
      <path stroke="#979797" d="M.5 976.5h279v67H.5z"/>
    </g>
    <g>
      <use fill="#BFBFBF" xlink:href="#d"/>
      <path stroke="#979797" d="M.5 79.5h279v555H.5z"/>
    </g>
    <path d="M32.0429688 35.7578125l6.6796874 2.3554687v3.28125l-10.0898437-4.2773437v-2.765625l10.0898437-4.2773437v3.28125l-6.6796874 2.4023437zm12.7734374-4.0546875c.898442-1.0781304 2.027337-1.6171875 3.3867188-1.6171875 2.7500138 0 4.1445311 1.5976403 4.1835938 4.7929687V43H49v-8.0273438c0-.7265661-.1562484-1.2636701-.46875-1.6113281s-.8320276-.5214843-1.5585938-.5214843c-.9921924 0-1.7109352.3828086-2.15625 1.1484374V43h-3.3867187V25h3.3867187v6.703125zm15.9609376 11.53125c-1.8593843 0-3.3730411-.5703068-4.5410157-1.7109375s-1.7519531-2.6601468-1.7519531-4.5585937v-.328125c0-1.2734439.2460913-2.4121044.7382812-3.4160157.49219-1.0039112 1.1894487-1.777341 2.0917969-2.3203125.9023483-.5429714 1.9316349-.8144531 3.0878907-.8144531 1.7343836 0 3.0996043.5468695 4.0957031 1.640625.9960987 1.0937555 1.4941406 2.6445212 1.4941406 4.6523437v1.3828126h-8.0742187c.1093755.8281291.4394503 1.492185.9902343 1.9921874.550784.5000025 1.2480427.75 2.0917969.75 1.304694 0 2.3242151-.4726515 3.0585938-1.4179687l1.6640624 1.8632813c-.507815.7187535-1.1953081 1.2792948-2.0625 1.6816406-.8671918.4023457-1.8281197.6035156-2.8828124.6035156zm-.3867188-10.40625c-.6718784 0-1.2167948.2265602-1.6347656.6796875-.4179709.4531273-.6855463 1.1015583-.8027344 1.9453125h4.7109375v-.2695312c-.0156251-.7500038-.218748-1.3300761-.609375-1.7402344s-.9453089-.6152344-1.6640625-.6152344zM75.2617188 43c-.1562508-.304689-.2695309-.6835915-.3398438-1.1367188-.8203166.9140671-1.8867122 1.3710938-3.1992188 1.3710938-1.2421937 0-2.2714802-.3593714-3.0878906-1.078125-.8164103-.7187536-1.2246094-1.6249945-1.2246094-2.71875 0-1.3437567.4980419-2.3749964 1.4941407-3.09375.9960987-.7187536 2.4355374-1.0820312 4.3183593-1.0898438H74.78125v-.7265624c0-.5859405-.1503891-1.0546858-.4511719-1.40625-.3007827-.3515643-.7753874-.5273438-1.4238281-.5273438-.5703154 0-1.0175765.1367174-1.3417969.4101562-.3242203.2734389-.4863281.6484352-.4863281 1.125h-3.3867188c0-.7343786.2265603-1.4140593.6796876-2.0390624.4531272-.6250032 1.0937458-1.1152326 1.921875-1.4707032.8281291-.3554705 1.7578073-.5332031 2.7890624-.5332031 1.5625079 0 2.8027298.3925742 3.7207032 1.1777344.9179733.7851602 1.3769531 1.8886647 1.3769531 3.3105469v5.4960937c.0078125 1.203131.1757796 2.1132782.5039063 2.7304687V43h-3.421875zm-2.8007813-2.3554688c.5000025 0 .9609354-.111327 1.3828125-.3339843.4218771-.2226574.734374-.5214825.9375-.8964844V37.234375h-1.265625c-1.695321 0-2.5976557.5859316-2.7070312 1.7578125l-.0117188.1992187c0 .4218772.148436.7695299.4453125 1.0429688.2968765.2734389.7031224.4101562 1.21875.4101562zm7.7929687-4.078125c0-1.9765723.443355-3.5507753 1.3300782-4.7226562.8867232-1.1718809 2.0996017-1.7578125 3.6386718-1.7578125 1.2343812 0 2.2539023.4609329 3.0585938 1.3828125V25h3.3984375v18h-3.0585937l-.1640626-1.3476562c-.8437542 1.0546927-1.9296808 1.5820312-3.2578124 1.5820312-1.492195 0-2.6894487-.5878847-3.5917969-1.7636719-.9023483-1.1757871-1.3535157-2.8105364-1.3535157-4.9042969zm3.3867188.2460938c0 1.1875059.2070292 2.0976531.6210938 2.7304688.4140645.6328156 1.015621.9492187 1.8046874.9492187 1.0468803 0 1.7851542-.4414018 2.2148438-1.3242187v-5.0039063c-.4218771-.8828169-1.1523386-1.3242187-2.1914062-1.3242187-1.6328207 0-2.4492188 1.3242055-2.4492188 3.9726562zm16.5 6.421875c-1.8593843 0-3.373041-.5703068-4.5410156-1.7109375-1.1679746-1.1406307-1.7519532-2.6601468-1.7519532-4.5585937v-.328125c0-1.2734439.2460913-2.4121044.7382813-3.4160157.49219-1.0039112 1.1894486-1.777341 2.0917969-2.3203125.9023482-.5429714 1.9316348-.8144531 3.0878906-.8144531 1.734384 0 3.099604.5468695 4.095703 1.640625.996099 1.0937555 1.494141 2.6445212 1.494141 4.6523437v1.3828126H97.28125c.1093755.8281291.4394504 1.492185.9902344 1.9921874.550784.5000025 1.2480426.75 2.0917966.75 1.304694 0 2.324215-.4726515 3.058594-1.4179687l1.664063 1.8632813c-.507816.7187535-1.195309 1.2792948-2.0625 1.6816406-.867192.4023457-1.82812.6035156-2.882813.6035156zm-.3867188-10.40625c-.6718783 0-1.2167947.2265602-1.6347656.6796875-.4179708.4531273-.6855463 1.1015583-.8027344 1.9453125h4.7109378v-.2695312c-.015625-.7500038-.218748-1.3300761-.609375-1.7402344s-.945309-.6152344-1.6640628-.6152344zm14.6484378.6679688c-.46094-.0625004-.867186-.09375-1.21875-.09375-1.281257 0-2.121092.4335894-2.519532 1.3007812V43h-3.386718V30.3203125h3.199218l.09375 1.5117187c.679691-1.1640683 1.621088-1.7460937 2.824219-1.7460937.375002 0 .726561.0507807 1.054688.1523437l-.046875 3.2578126zm8.542968 2.2265624l-6.808593-2.3789062v-3.2578125l10.207031 4.2773437v2.7539063L116.136719 41.40625v-3.2695312l6.808593-2.4140626zm8.226563.0351563l6.679687 2.3554687v3.28125l-10.089843-4.2773437v-2.765625l10.089843-4.2773437v3.28125l-6.679687 2.4023437zm10.535156 8.7070313H139.1875L145.46875 25.9375h2.519531l-6.28125 18.5273438zm11.203125-12.7617188c.898442-1.0781304 2.027337-1.6171875 3.386719-1.6171875 2.750014 0 4.144531 1.5976403 4.183594 4.7929687V43h-3.386719v-8.0273438c0-.7265661-.156248-1.2636701-.46875-1.6113281s-.832028-.5214843-1.558594-.5214843c-.992192 0-1.710935.3828086-2.15625 1.1484374V43h-3.386718V25h3.386718v6.703125zm15.960938 11.53125c-1.859385 0-3.373041-.5703068-4.541016-1.7109375-1.167974-1.1406307-1.751953-2.6601468-1.751953-4.5585937v-.328125c0-1.2734439.246091-2.4121044.738281-3.4160157.49219-1.0039112 1.189449-1.777341 2.091797-2.3203125.902348-.5429714 1.931635-.8144531 3.087891-.8144531 1.734383 0 3.099604.5468695 4.095703 1.640625.996099 1.0937555 1.494141 2.6445212 1.494141 4.6523437v1.3828126h-8.074219c.109375.8281291.43945 1.492185.990234 1.9921874.550784.5000025 1.248043.75 2.091797.75 1.304694 0 2.324215-.4726515 3.058594-1.4179687l1.664062 1.8632813c-.507815.7187535-1.195308 1.2792948-2.0625 1.6816406-.867192.4023457-1.828119.6035156-2.882812.6035156zm-.386719-10.40625c-.671878 0-1.216795.2265602-1.634766.6796875-.41797.4531273-.685546 1.1015583-.802734 1.9453125h4.710937v-.2695312c-.015625-.7500038-.218748-1.3300761-.609374-1.7402344-.390627-.4101583-.945309-.6152344-1.664063-.6152344zM183.355469 43c-.156251-.304689-.269531-.6835915-.339844-1.1367188-.820317.9140671-1.886712 1.3710938-3.199219 1.3710938-1.242193 0-2.27148-.3593714-3.08789-1.078125-.816411-.7187536-1.22461-1.6249945-1.22461-2.71875 0-1.3437567.498042-2.3749964 1.494141-3.09375.996099-.7187536 2.435537-1.0820312 4.318359-1.0898438H182.875v-.7265624c0-.5859405-.150389-1.0546858-.451172-1.40625-.300783-.3515643-.775387-.5273438-1.423828-.5273438-.570315 0-1.017577.1367174-1.341797.4101562-.32422.2734389-.486328.6484352-.486328 1.125h-3.386719c0-.7343786.22656-1.4140593.679688-2.0390624.453127-.6250032 1.093746-1.1152326 1.921875-1.4707032.828129-.3554705 1.757807-.5332031 2.789062-.5332031 1.562508 0 2.80273.3925742 3.720703 1.1777344.917974.7851602 1.376954 1.8886647 1.376954 3.3105469v5.4960937c.007812 1.203131.175779 2.1132782.503906 2.7304687V43h-3.421875zm-2.800781-2.3554688c.500002 0 .960935-.111327 1.382812-.3339843.421877-.2226574.734374-.5214825.9375-.8964844V37.234375h-1.265625c-1.695321 0-2.597656.5859316-2.707031 1.7578125l-.011719.1992187c0 .4218772.148436.7695299.445313 1.0429688.296876.2734389.703122.4101562 1.21875.4101562zm7.792968-4.078125c0-1.9765723.443355-3.5507753 1.330078-4.7226562.886724-1.1718809 2.099602-1.7578125 3.638672-1.7578125 1.234381 0 2.253902.4609329 3.058594 1.3828125V25h3.398438v18h-3.058594l-.164063-1.3476562c-.843754 1.0546927-1.929681 1.5820312-3.257812 1.5820312-1.492195 0-2.689449-.5878847-3.591797-1.7636719-.902348-1.1757871-1.353516-2.8105364-1.353516-4.9042969zm3.386719.2460938c0 1.1875059.207029 2.0976531.621094 2.7304688.414064.6328156 1.015621.9492187 1.804687.9492187 1.04688 0 1.785154-.4414018 2.214844-1.3242187v-5.0039063c-.421877-.8828169-1.152339-1.3242187-2.191406-1.3242187-1.632821 0-2.449219 1.3242055-2.449219 3.9726562zm16.5 6.421875c-1.859384 0-3.373041-.5703068-4.541016-1.7109375-1.167974-1.1406307-1.751953-2.6601468-1.751953-4.5585937v-.328125c0-1.2734439.246092-2.4121044.738282-3.4160157.492189-1.0039112 1.189448-1.777341 2.091796-2.3203125.902349-.5429714 1.931635-.8144531 3.087891-.8144531 1.734384 0 3.099604.5468695 4.095703 1.640625.996099 1.0937555 1.494141 2.6445212 1.494141 4.6523437v1.3828126H205.375c.109376.8281291.43945 1.492185.990234 1.9921874.550784.5000025 1.248043.75 2.091797.75 1.304694 0 2.324215-.4726515 3.058594-1.4179687l1.664063 1.8632813c-.507816.7187535-1.195309 1.2792948-2.0625 1.6816406-.867192.4023457-1.82812.6035156-2.882813.6035156zm-.386719-10.40625c-.671878 0-1.216795.2265602-1.634765.6796875-.417971.4531273-.685547 1.1015583-.802735 1.9453125h4.710938v-.2695312c-.015625-.7500038-.218748-1.3300761-.609375-1.7402344s-.945309-.6152344-1.664063-.6152344zm14.648438.6679688c-.46094-.0625004-.867186-.09375-1.21875-.09375-1.281257 0-2.121092.4335894-2.519532 1.3007812V43h-3.386718V30.3203125h3.199218l.09375 1.5117187c.679691-1.1640683 1.621088-1.7460937 2.824219-1.7460937.375002 0 .726561.0507807 1.054688.1523437l-.046875 3.2578126zm8.542968 2.2265624l-6.808593-2.3789062v-3.2578125l10.207031 4.2773437v2.7539063L224.230469 41.40625v-3.2695312l6.808593-2.4140626zM29.0429688 115.757812l6.6796874 2.355469v3.28125l-10.0898437-4.277343v-2.765626l10.0898437-4.277343v3.28125l-6.6796874 2.402343zm16.3359374 3.738282c0-.414065-.205076-.740233-.6152343-.978516-.4101583-.238282-1.0683549-.451171-1.9746094-.638672-3.0156401-.632815-4.5234375-1.914053-4.5234375-3.84375 0-1.125005.4667922-2.064449 1.4003906-2.818359.9335984-.75391 2.1542894-1.130859 3.6621094-1.130859 1.609383 0 2.8964796.378902 3.8613281 1.136718.9648486.757817 1.4472657 1.742182 1.4472657 2.953125H45.25c0-.484377-.1562484-.884764-.46875-1.201172-.3125016-.316407-.8007779-.474609-1.4648438-.474609-.5703153 0-1.0117171.128905-1.3242187.386719-.3125016.257814-.46875.585935-.46875.984375 0 .375002.1777326.677733.5332031.908203.3554706.23047.9550739.429687 1.7988282.597656.8437542.16797 1.5546846.357421 2.1328124.568359 1.7890715.656254 2.6835938 1.792961 2.6835938 3.410157 0 1.156256-.4960888 2.091793-1.4882812 2.80664-.9921925.714848-2.2734297 1.072266-3.84375 1.072266-1.0625054 0-2.0058553-.189451-2.8300782-.568359-.8242228-.378909-1.4707008-.898435-1.9394531-1.558594-.4687523-.66016-.703125-1.373043-.703125-2.138672h3.2109375c.0312502.601566.2539042 1.062498.6679688 1.382812.4140645.320315.9687465.480469 1.6640624.480469.6484408 0 1.1386703-.123045 1.4707032-.36914.3320329-.246095.4980468-.568358.4980468-.966797zM56.6875 123.234375c-1.8593843 0-3.373041-.570307-4.5410156-1.710937-1.1679746-1.140631-1.7519532-2.660147-1.7519532-4.558594v-.328125c0-1.273444.2460913-2.412105.7382813-3.416016s1.1894486-1.777341 2.0917969-2.320312c.9023482-.542972 1.9316348-.814453 3.0878906-.814453 1.7343837 0 3.0996044.546869 4.0957031 1.640624.9960988 1.093756 1.4941407 2.644522 1.4941407 4.652344v1.382813H53.828125c.1093755.828129.4394504 1.492185.9902344 1.992187.550784.500003 1.2480426.75 2.0917968.75 1.3046941 0 2.3242151-.472651 3.0585938-1.417968l1.6640625 1.863281c-.507815.718753-1.1953082 1.279295-2.0625 1.68164-.8671918.402346-1.8281197.603516-2.8828125.603516zm-.3867188-10.40625c-.6718783 0-1.2167947.22656-1.6347656.679687-.4179708.453128-.6855463 1.101559-.8027344 1.945313h4.7109376v-.269531c-.0156251-.750004-.2187481-1.330076-.609375-1.740235-.390627-.410158-.945309-.615234-1.6640626-.615234zm12.796875 7.675781c.6250032 0 1.1328106-.171873 1.5234376-.515625.3906269-.343751.5937499-.800778.609375-1.371093H74.40625c-.0078125.859379-.2421852 1.64648-.703125 2.361328-.4609398.714847-1.0917929 1.269529-1.8925781 1.664062-.8007853.394533-1.6855421.591797-2.6542969.591797-1.8125091 0-3.2421823-.576166-4.2890625-1.728516-1.0468802-1.152349-1.5703125-2.74413-1.5703125-4.77539v-.222657c0-1.953134.5195261-3.511712 1.5585938-4.675781 1.0390676-1.164068 2.4648346-1.746093 4.2773437-1.746093 1.5859454 0 2.8574171.451167 3.8144531 1.353515.9570361.902348 1.4433593 2.103508 1.4589844 3.603516h-3.1757812c-.0156251-.656254-.2187481-1.189451-.609375-1.59961-.390627-.410158-.9062468-.615234-1.546875-.615234-.7890665 0-1.3847637.287107-1.7871094.861328-.4023458.574222-.6035156 1.505853-.6035156 2.794922v.351563c0 1.304694.1992167 2.242184.5976562 2.8125.3984395.570315 1.0039022.855468 1.8164062.855468zm11.296875-13.300781v3.117187H82.5625v2.484376h-2.1679688v6.328124c0 .468753.0898429.804687.2695313 1.007813.1796884.203126.523435.304687 1.03125.304687.3750019 0 .7070298-.027343.9960937-.082031v2.566407c-.6640658.203126-1.3476527.304687-2.0507812.304687-2.3750119 0-3.5859373-1.199207-3.6328125-3.597656v-6.832031H75.15625v-2.484376h1.8515625v-3.117187h3.3867187zM88.0234375 123H84.625v-12.679688h3.3984375V123zm-3.5976563-15.960938c0-.507815.1699202-.925779.5097657-1.253906.3398454-.328126.8027314-.492187 1.3886719-.492187.5781278 0 1.0390607.164061 1.3828124.492187.3437518.328127.515625.746091.515625 1.253906 0 .515628-.1738263.937499-.5214843 1.265626-.347658.328126-.8066378.492187-1.3769531.492187-.5703154 0-1.0292952-.164061-1.3769532-.492187-.347658-.328127-.5214844-.749998-.5214844-1.265626zm5.859375 9.503907c0-1.257819.2421851-2.378902.7265626-3.363281.4843774-.98438 1.181636-1.746092 2.0917968-2.285157.9101608-.539065 1.9667909-.808593 3.1699219-.808593 1.7109461 0 3.1074165.523432 4.1894535 1.570312 1.082036 1.04688 1.685546 2.468741 1.810547 4.265625l.023437.867187c0 1.945323-.542963 3.505854-1.628906 4.681641-1.0859432 1.175787-2.5429599 1.763672-4.371094 1.763672-1.8281341 0-3.2871039-.585932-4.3769531-1.757813-1.0898492-1.17188-1.6347657-2.765614-1.6347657-4.78125v-.152343zm3.3867188.246093c0 1.203132.2265602 2.123044.6796875 2.759766.4531273.636722 1.1015583.955078 1.9453125.955078.8203166 0 1.4609352-.31445 1.921875-.943359.4609398-.62891.6914062-1.634759.6914062-3.017578 0-1.179694-.2304664-2.093747-.6914062-2.742188-.4609398-.64844-1.1093708-.972656-1.9453125-.972656-.8281291 0-1.4687477.322262-1.921875.966797-.4531273.644534-.6796875 1.642571-.6796875 2.99414zM107.5 110.320312l.105469 1.464844c.906254-1.132818 2.121086-1.699218 3.644531-1.699218 1.343757 0 2.343747.394527 3 1.183593.656253.789067.992187 1.968742 1.007813 3.539063V123h-3.386719v-8.109375c0-.718754-.156249-1.240233-.46875-1.564453-.312502-.32422-.832028-.486328-1.558594-.486328-.95313 0-1.667966.406246-2.144531 1.21875V123H104.3125v-12.679688H107.5zm17.238281 5.402344l-6.808593-2.378906v-3.257812l10.207031 4.277343v2.753907l-10.207031 4.289062v-3.269531l6.808593-2.414063zm8.226563.035156l6.679687 2.355469v3.28125l-10.089843-4.277343v-2.765626l10.089843-4.277343v3.28125l-6.679687 2.402343zM143.5 124.464844h-2.519531l6.28125-18.527344h2.519531L143.5 124.464844zm14.765625-4.96875c0-.414065-.205076-.740233-.615234-.978516-.410159-.238282-1.068355-.451171-1.97461-.638672-3.01564-.632815-4.523437-1.914053-4.523437-3.84375 0-1.125005.466792-2.064449 1.40039-2.818359.933599-.75391 2.15429-1.130859 3.66211-1.130859 1.609383 0 2.896479.378902 3.861328 1.136718.964848.757817 1.447266 1.742182 1.447266 2.953125h-3.386719c0-.484377-.156249-.884764-.46875-1.201172-.312502-.316407-.800778-.474609-1.464844-.474609-.570315 0-1.011717.128905-1.324219.386719-.312501.257814-.46875.585935-.46875.984375 0 .375002.177733.677733.533203.908203.355471.23047.955074.429687 1.798829.597656.843754.16797 1.554684.357421 2.132812.568359 1.789071.656254 2.683594 1.792961 2.683594 3.410157 0 1.156256-.496089 2.091793-1.488282 2.80664-.992192.714848-2.273429 1.072266-3.84375 1.072266-1.062505 0-2.005855-.189451-2.830078-.568359-.824222-.378909-1.4707-.898435-1.939453-1.558594-.468752-.66016-.703125-1.373043-.703125-2.138672h3.210938c.03125.601566.253904 1.062498.667968 1.382812.414065.320315.968747.480469 1.664063.480469.648441 0 1.13867-.123045 1.470703-.36914s.498047-.568358.498047-.966797zm11.308594 3.738281c-1.859385 0-3.373041-.570307-4.541016-1.710937-1.167974-1.140631-1.751953-2.660147-1.751953-4.558594v-.328125c0-1.273444.246091-2.412105.738281-3.416016.49219-1.003911 1.189449-1.777341 2.091797-2.320312.902348-.542972 1.931635-.814453 3.087891-.814453 1.734383 0 3.099604.546869 4.095703 1.640624.996099 1.093756 1.49414 2.644522 1.49414 4.652344v1.382813h-8.074218c.109375.828129.43945 1.492185.990234 1.992187.550784.500003 1.248043.75 2.091797.75 1.304694 0 2.324215-.472651 3.058594-1.417968l1.664062 1.863281c-.507815.718753-1.195308 1.279295-2.0625 1.68164-.867192.402346-1.828119.603516-2.882812.603516zm-.386719-10.40625c-.671878 0-1.216795.22656-1.634766.679687-.41797.453128-.685546 1.101559-.802734 1.945313h4.710938v-.269531c-.015626-.750004-.218749-1.330076-.609376-1.740235-.390626-.410158-.945308-.615234-1.664062-.615234zm12.796875 7.675781c.625003 0 1.132811-.171873 1.523437-.515625.390627-.343751.59375-.800778.609376-1.371093h3.175781c-.007813.859379-.242185 1.64648-.703125 2.361328-.46094.714847-1.091793 1.269529-1.892578 1.664062-.800786.394533-1.685542.591797-2.654297.591797-1.812509 0-3.242183-.576166-4.289063-1.728516-1.04688-1.152349-1.570312-2.74413-1.570312-4.77539v-.222657c0-1.953134.519526-3.511712 1.558594-4.675781 1.039067-1.164068 2.464834-1.746093 4.277343-1.746093 1.585946 0 2.857417.451167 3.814453 1.353515s1.44336 2.103508 1.458985 3.603516h-3.175781c-.015626-.656254-.218749-1.189451-.609376-1.59961-.390626-.410158-.906246-.615234-1.546874-.615234-.789067 0-1.384764.287107-1.78711.861328-.402346.574222-.603516 1.505853-.603516 2.794922v.351563c0 1.304694.199217 2.242184.597657 2.8125.398439.570315 1.003902.855468 1.816406.855468zm11.296875-13.300781v3.117187h2.167969v2.484376h-2.167969v6.328124c0 .468753.089843.804687.269531 1.007813.179689.203126.523435.304687 1.03125.304687.375002 0 .70703-.027343.996094-.082031v2.566407c-.664066.203126-1.347653.304687-2.050781.304687-2.375012 0-3.585938-1.199207-3.632813-3.597656v-6.832031h-1.851562v-2.484376h1.851562v-3.117187h3.386719zM200.910156 123h-3.398437v-12.679688h3.398437V123zm-3.597656-15.960938c0-.507815.16992-.925779.509766-1.253906.339845-.328126.802731-.492187 1.388672-.492187.578127 0 1.03906.164061 1.382812.492187.343752.328127.515625.746091.515625 1.253906 0 .515628-.173826.937499-.521484 1.265626-.347658.328126-.806638.492187-1.376953.492187-.570316 0-1.029296-.164061-1.376954-.492187-.347658-.328127-.521484-.749998-.521484-1.265626zm5.859375 9.503907c0-1.257819.242185-2.378902.726563-3.363281.484377-.98438 1.181636-1.746092 2.091796-2.285157.910161-.539065 1.966791-.808593 3.169922-.808593 1.710946 0 3.107417.523432 4.189453 1.570312 1.082037 1.04688 1.685547 2.468741 1.810547 4.265625l.023438.867187c0 1.945323-.542964 3.505854-1.628906 4.681641-1.085943 1.175787-2.54296 1.763672-4.371094 1.763672-1.828134 0-3.287104-.585932-4.376953-1.757813-1.08985-1.17188-1.634766-2.765614-1.634766-4.78125v-.152343zm3.386719.246093c0 1.203132.22656 2.123044.679687 2.759766.453128.636722 1.101559.955078 1.945313.955078.820316 0 1.460935-.31445 1.921875-.943359.46094-.62891.691406-1.634759.691406-3.017578 0-1.179694-.230466-2.093747-.691406-2.742188-.46094-.64844-1.109371-.972656-1.945313-.972656-.828129 0-1.468747.322262-1.921875.966797-.453127.644534-.679687 1.642571-.679687 2.99414zm13.828125-6.46875l.105469 1.464844c.906254-1.132818 2.121086-1.699218 3.644531-1.699218 1.343756 0 2.343746.394527 3 1.183593.656253.789067.992187 1.968742 1.007812 3.539063V123h-3.386719v-8.109375c0-.718754-.156248-1.240233-.46875-1.564453-.312501-.32422-.832027-.486328-1.558593-.486328-.95313 0-1.667967.406246-2.144531 1.21875V123h-3.386719v-12.679688h3.1875zm17.238281 5.402344l-6.808594-2.378906v-3.257812l10.207032 4.277343v2.753907l-10.207032 4.289062v-3.269531l6.808594-2.414063zM42.0429688 1010.75781l6.6796874 2.35547v3.28125l-10.0898437-4.27734v-2.76563l10.0898437-4.27734v3.28125l-6.6796874 2.40234zM52.4375 1018v-10.19531h-1.8867188v-2.48438H52.4375v-1.07812c0-1.42188.408199-2.52539 1.2246094-3.31055.8164103-.78516 1.958977-1.177734 3.4277344-1.177734.4687523 0 1.0429653.078124 1.7226562.234375l-.0351562 2.624999c-.2812515-.07031-.624998-.10547-1.03125-.10547-1.2734439 0-1.9101563.59765-1.9101563 1.79297v1.01953h2.5195313v2.48438h-2.5195313V1018H52.4375zm7.1484375-6.45703c0-1.25782.2421851-2.3789.7265625-3.36328.4843774-.98438 1.1816361-1.74609 2.0917969-2.28516.9101608-.53906 1.9667908-.80859 3.1699219-.80859 1.710946 0 3.1074164.52343 4.1894531 1.57031 1.0820366 1.04688 1.6855462 2.46874 1.8105469 4.26563l.0234374.86718c0 1.94532-.5429633 3.50586-1.6289062 4.68164-1.0859429 1.17579-2.5429596 1.76368-4.3710938 1.76368-1.8281341 0-3.2871039-.58594-4.3769531-1.75782-1.0898492-1.17188-1.6347656-2.76561-1.6347656-4.78125v-.15234zm3.3867187.24609c0 1.20313.2265603 2.12305.6796876 2.75977.4531272.63672 1.1015582.95508 1.9453124.95508.8203167 0 1.4609352-.31445 1.921875-.94336.4609399-.62891.6914063-1.63476.6914063-3.01758 0-1.17969-.2304664-2.09375-.6914063-2.74219-.4609398-.64844-1.1093708-.97266-1.9453124-.97266-.8281292 0-1.4687478.32227-1.921875.9668-.4531273.64454-.6796876 1.64257-.6796876 2.99414zm10.1835938-.24609c0-1.25782.2421851-2.3789.7265625-3.36328.4843774-.98438 1.1816361-1.74609 2.0917969-2.28516.9101608-.53906 1.9667908-.80859 3.1699218-.80859 1.7109461 0 3.1074165.52343 4.1894532 1.57031 1.0820366 1.04688 1.6855462 2.46874 1.8105468 4.26563l.0234376.86718c0 1.94532-.5429634 3.50586-1.6289063 4.68164-1.0859429 1.17579-2.5429596 1.76368-4.3710937 1.76368-1.8281342 0-3.287104-.58594-4.3769532-1.75782-1.0898492-1.17188-1.6347656-2.76561-1.6347656-4.78125v-.15234zm3.3867188.24609c0 1.20313.2265602 2.12305.6796874 2.75977.4531273.63672 1.1015583.95508 1.9453126.95508.8203166 0 1.4609351-.31445 1.921875-.94336.4609398-.62891.6914062-1.63476.6914062-3.01758 0-1.17969-.2304664-2.09375-.6914062-2.74219-.4609399-.64844-1.1093709-.97266-1.9453126-.97266-.8281291 0-1.4687477.32227-1.921875.9668-.4531272.64454-.6796874 1.64257-.6796874 2.99414zm14.765625-9.58594v3.11719h2.1679687v2.48438h-2.1679687v6.32812c0 .46875.0898428.80469.2695312 1.00781.1796884.20313.523435.30469 1.03125.30469.3750019 0 .7070298-.02734.9960938-.08203v2.56641c-.6640659.20312-1.3476528.30469-2.0507813.30469-2.3750119 0-3.5859373-1.19921-3.6328125-3.59766v-6.83203h-1.8515625v-2.48438h1.8515625v-3.11719h3.3867188zm9.8906252 16.03126c-1.8593845 0-3.3730413-.57031-4.5410159-1.71094-1.1679746-1.14063-1.7519531-2.66015-1.7519531-4.5586v-.32812c0-1.27345.2460913-2.41211.7382812-3.41602.49219-1.00391 1.1894487-1.77734 2.0917969-2.32031.9023483-.54297 1.9316349-.81445 3.0878909-.81445 1.734383 0 3.099604.54687 4.095703 1.64062.996099 1.09376 1.49414 2.64452 1.49414 4.65235v1.38281h-8.0742182c.1093755.82813.4394503 1.49218.9902343 1.99219.550784.5 1.2480429.75 2.0917969.75 1.304694 0 2.324215-.47266 3.058594-1.41797l1.664062 1.86328c-.507815.71875-1.195308 1.27929-2.0625 1.68164s-1.828119.60352-2.882812.60352zm-.386719-10.40626c-.671878 0-1.2167948.22657-1.6347656.67969-.4179709.45313-.6855463 1.10156-.8027344 1.94531h4.710938v-.26953c-.015626-.75-.218749-1.33007-.609376-1.74023-.390626-.41016-.945308-.61524-1.664062-.61524zm14.648438.66797c-.46094-.0625-.867186-.09375-1.21875-.09375-1.281257 0-2.121092.43359-2.519532 1.30078V1018h-3.386718v-12.67969h3.199218l.09375 1.51172c.679691-1.16407 1.621088-1.74609 2.824219-1.74609.375002 0 .726561.05078 1.054687.15234l-.046874 3.25781zm8.542968 2.22657l-6.808594-2.37891v-3.25781l10.207032 4.27734v2.75391l-10.207032 4.28906v-3.26953l6.808594-2.41406zm8.226563.03515l6.679687 2.35547v3.28125l-10.089844-4.27734v-2.76563l10.089844-4.27734v3.28125l-6.679687 2.40234zm10.535156 8.70703h-2.519531l6.28125-18.52734h2.519531l-6.28125 18.52734zM151.589844 1018v-10.19531h-1.886719v-2.48438h1.886719v-1.07812c0-1.42188.408199-2.52539 1.224609-3.31055.81641-.78516 1.958977-1.177734 3.427735-1.177734.468752 0 1.042965.078124 1.722656.234375l-.035156 2.624999c-.281252-.07031-.624998-.10547-1.03125-.10547-1.273444 0-1.910157.59765-1.910157 1.79297v1.01953h2.519531v2.48438h-2.519531V1018h-3.398437zm7.148437-6.45703c0-1.25782.242185-2.3789.726563-3.36328.484377-.98438 1.181636-1.74609 2.091797-2.28516.91016-.53906 1.96679-.80859 3.169921-.80859 1.710947 0 3.107417.52343 4.189454 1.57031 1.082036 1.04688 1.685546 2.46874 1.810546 4.26563l.023438.86718c0 1.94532-.542963 3.50586-1.628906 4.68164-1.085943 1.17579-2.54296 1.76368-4.371094 1.76368-1.828134 0-3.287104-.58594-4.376953-1.75782-1.089849-1.17188-1.634766-2.76561-1.634766-4.78125v-.15234zm3.386719.24609c0 1.20313.22656 2.12305.679688 2.75977.453127.63672 1.101558.95508 1.945312.95508.820317 0 1.460935-.31445 1.921875-.94336.46094-.62891.691406-1.63476.691406-3.01758 0-1.17969-.230466-2.09375-.691406-2.74219-.46094-.64844-1.109371-.97266-1.945313-.97266-.828129 0-1.468747.32227-1.921874.9668-.453128.64454-.679688 1.64257-.679688 2.99414zm10.183594-.24609c0-1.25782.242185-2.3789.726562-3.36328.484378-.98438 1.181636-1.74609 2.091797-2.28516.910161-.53906 1.966791-.80859 3.169922-.80859 1.710946 0 3.107416.52343 4.189453 1.57031 1.082037 1.04688 1.685546 2.46874 1.810547 4.26563l.023437.86718c0 1.94532-.542963 3.50586-1.628906 4.68164-1.085943 1.17579-2.542959 1.76368-4.371094 1.76368-1.828134 0-3.287103-.58594-4.376953-1.75782-1.089849-1.17188-1.634765-2.76561-1.634765-4.78125v-.15234zm3.386718.24609c0 1.20313.226561 2.12305.679688 2.75977.453127.63672 1.101558.95508 1.945312.95508.820317 0 1.460936-.31445 1.921876-.94336.460939-.62891.691406-1.63476.691406-3.01758 0-1.17969-.230467-2.09375-.691406-2.74219-.46094-.64844-1.109371-.97266-1.945313-.97266-.828129 0-1.468748.32227-1.921875.9668-.453127.64454-.679688 1.64257-.679688 2.99414zm14.765626-9.58594v3.11719h2.167968v2.48438h-2.167968v6.32812c0 .46875.089842.80469.269531 1.00781.179688.20313.523435.30469 1.03125.30469.375002 0 .70703-.02734.996093-.08203v2.56641c-.664065.20312-1.347652.30469-2.050781.30469-2.375012 0-3.585937-1.19921-3.632812-3.59766v-6.83203h-1.851563v-2.48438h1.851563v-3.11719h3.386719zm9.890624 16.03126c-1.859384 0-3.373041-.57031-4.541015-1.71094-1.167975-1.14063-1.751953-2.66015-1.751953-4.5586v-.32812c0-1.27345.246091-2.41211.738281-3.41602.49219-1.00391 1.189449-1.77734 2.091797-2.32031.902348-.54297 1.931635-.81445 3.08789-.81445 1.734384 0 3.099605.54687 4.095704 1.64062.996098 1.09376 1.49414 2.64452 1.49414 4.65235v1.38281h-8.074218c.109375.82813.43945 1.49218.990234 1.99219.550784.5 1.248043.75 2.091797.75 1.304694 0 2.324215-.47266 3.058593-1.41797l1.664063 1.86328c-.507815.71875-1.195308 1.27929-2.0625 1.68164s-1.82812.60352-2.882813.60352zm-.386718-10.40626c-.671879 0-1.216795.22657-1.634766.67969-.417971.45313-.685546 1.10156-.802734 1.94531h4.710937v-.26953c-.015625-.75-.218748-1.33007-.609375-1.74023-.390627-.41016-.945309-.61524-1.664062-.61524zm14.648437.66797c-.46094-.0625-.867185-.09375-1.21875-.09375-1.281256 0-2.121092.43359-2.519531 1.30078V1018h-3.386719v-12.67969h3.199219l.09375 1.51172c.679691-1.16407 1.621088-1.74609 2.824219-1.74609.375002 0 .726561.05078 1.054687.15234l-.046875 3.25781zm8.542969 2.22657l-6.808594-2.37891v-3.25781l10.207032 4.27734v2.75391l-10.207032 4.28906v-3.26953l6.808594-2.41406z" fill="#4B4B4B"/>
  </g>
</svg>
