
<svg width="100%" height="100%" viewBox="0 0 280 1044" version="1.1" xmlns="http://www.w3.org/2000/svg" xmlns:xlink="http://www.w3.org/1999/xlink">
    <!-- Generator: Sketch 49.3 (51167) - http://www.bohemiancoding.com/sketch -->
    <desc>Created with Sketch.</desc>
    <defs>
        <rect id="path-1" x="0" y="0" width="280" height="1044"></rect>
        <rect id="path-2" x="0" y="0" width="280" height="68"></rect>
        <rect id="path-3" x="0" y="976" width="280" height="68"></rect>
        <rect id="path-4" x="0" y="79" width="280" height="556"></rect>
    </defs>
    <g id="Page-1" stroke="none" stroke-width="1" fill="none" fill-rule="evenodd">
        <g id="Group-4">
            <g id="Rectangle">
                <use fill="#9A9A9A" fill-rule="evenodd" xlink:href="#path-1"></use>
                <rect stroke="#979797" stroke-width="1" x="0.5" y="0.5" width="279" height="1043"></rect>
            </g>
            <g id="Rectangle-6">
                <use fill="#D8D8D8" fill-rule="evenodd" xlink:href="#path-2"></use>
                <rect stroke="#979797" stroke-width="1" x="0.5" y="0.5" width="279" height="67"></rect>
            </g>
            <g id="Rectangle-6">
                <use fill="#D8D8D8" fill-rule="evenodd" xlink:href="#path-3"></use>
                <rect stroke="#979797" stroke-width="1" x="0.5" y="976.5" width="279" height="67"></rect>
            </g>
            <g id="Rectangle-6">
                <use fill="#BFBFBF" fill-rule="evenodd" xlink:href="#path-4"></use>
                <rect stroke="#979797" stroke-width="1" x="0.5" y="79.5" width="279" height="555"></rect>
            </g>
            <path d="M25.664,34.92 L25.664,33.72 L36.872,26.76 L38.24,28.92 L29.504,34.2 L38.24,39.36 L36.872,41.52 L25.664,34.92 Z M39.2,25.2 L44.048,25.2 L44.048,31.344 L44.144,31.344 C44.5280019,30.8319974 45.0399968,30.4240015 45.68,30.12 C46.3200032,29.8159985 47.0719957,29.664 47.936,29.664 C48.544003,29.664 49.1039974,29.7439992 49.616,29.904 C50.1280026,30.0640008 50.5679982,30.3279982 50.936,30.696 C51.3040018,31.0640018 51.591999,31.5639968 51.8,32.196 C52.008001,32.8280032 52.112,33.6079954 52.112,34.536 L52.112,42 L48.992,42 L48.992,35.184 C48.992,34.2079951 48.7840021,33.5040022 48.368,33.072 C47.9519979,32.6399978 47.4080034,32.424 46.736,32.424 C46.143997,32.424 45.6000025,32.6039982 45.104,32.964 C44.6079975,33.3240018 44.256001,33.7839972 44.048,34.344 L44.048,42 L40.928,42 L40.928,27.84 L39.2,27.84 L39.2,25.2 Z M66.416,40.728 C66.207999,40.920001 65.9400016,41.1079991 65.612,41.292 C65.2839984,41.4760009 64.9000022,41.6479992 64.46,41.808 C64.0199978,41.9680008 63.5360026,42.0959995 63.008,42.192 C62.4799974,42.2880005 61.920003,42.336 61.328,42.336 C60.3039949,42.336 59.388004,42.1920014 58.58,41.904 C57.771996,41.6159986 57.0880028,41.1960028 56.528,40.644 C55.9679972,40.0919972 55.5400015,39.4280039 55.244,38.652 C54.9479985,37.8759961 54.8,36.992005 54.8,36 C54.8,34.9439947 54.9679983,34.020004 55.304,33.228 C55.6400017,32.435996 56.0999971,31.7760026 56.684,31.248 C57.2680029,30.7199974 57.9519961,30.3240013 58.736,30.06 C59.5200039,29.7959987 60.3679954,29.664 61.28,29.664 C61.888003,29.664 62.5159968,29.7439992 63.164,29.904 C63.8120032,30.0640008 64.4079973,30.339998 64.952,30.732 C65.4960027,31.124002 65.9399983,31.6479967 66.284,32.304 C66.6280017,32.9600033 66.8,33.791995 66.8,34.8 C66.8,35.4880034 66.7200008,36.231996 66.56,37.032 L57.92,37.032 C57.9360001,37.5440026 58.043999,37.9759982 58.244,38.328 C58.444001,38.6800018 58.7079984,38.9679989 59.036,39.192 C59.3640016,39.4160011 59.7399979,39.5799995 60.164,39.684 C60.5880021,39.7880005 61.0399976,39.84 61.52,39.84 C62.4800048,39.84 63.2679969,39.7280011 63.884,39.504 C64.5000031,39.2799989 64.9999981,39.0080016 65.384,38.688 L66.416,40.728 Z M61.232,32.16 C60.8159979,32.16 60.4240018,32.2159994 60.056,32.328 C59.6879982,32.4400006 59.3560015,32.6039989 59.06,32.82 C58.7639985,33.0360011 58.520001,33.3039984 58.328,33.624 C58.135999,33.9440016 58.0240002,34.303998 57.992,34.704 L63.896,34.704 C63.896,33.9199961 63.6760022,33.3000023 63.236,32.844 C62.7959978,32.3879977 62.1280045,32.16 61.232,32.16 Z M70.16,30.816 C70.8000032,30.5279986 71.5399958,30.280001 72.38,30.072 C73.2200042,29.863999 74.2159942,29.76 75.368,29.76 C76.2000042,29.76 76.9079971,29.859999 77.492,30.06 C78.0760029,30.260001 78.5479982,30.5439982 78.908,30.912 C79.2680018,31.2800018 79.5279992,31.7199974 79.688,32.232 C79.8480008,32.7440026 79.928,33.3199968 79.928,33.96 C79.928,34.7760041 79.9000003,35.4719971 79.844,36.048 C79.7879997,36.6240029 79.76,37.1359978 79.76,37.584 C79.76,37.9200017 79.7759998,38.2959979 79.808,38.712 C79.8400002,38.9360011 79.8639999,39.151999 79.88,39.36 L81.44,39.36 L81.44,42 L77.456,42 L77.144,40.368 L77.024,40.368 C76.7039984,40.8640025 76.248003,41.2919982 75.656,41.652 C75.063997,42.0120018 74.264005,42.192 73.256,42.192 C72.055994,42.192 71.1040035,41.8720032 70.4,41.232 C69.6959965,40.5919968 69.344,39.7440053 69.344,38.688 C69.344,38.0159966 69.4679988,37.4360024 69.716,36.948 C69.9640012,36.4599976 70.3239976,36.0600016 70.796,35.748 C71.2680024,35.4359984 71.8359967,35.2040008 72.5,35.052 C73.1640033,34.8999992 73.9039959,34.824 74.72,34.824 C75.0080014,34.824 75.3119984,34.8399998 75.632,34.872 C75.9520016,34.9040002 76.3439977,34.9359998 76.808,34.968 C76.8400002,34.8079992 76.856,34.6480008 76.856,34.488 L76.856,34.032 C76.856,33.423997 76.6800018,32.9880013 76.328,32.724 C75.9759982,32.4599987 75.4560034,32.328 74.768,32.328 C73.9519959,32.328 73.2160033,32.431999 72.56,32.64 C71.9039967,32.848001 71.3520022,33.055999 70.904,33.264 L70.16,30.816 Z M74.264,39.624 C75.0320038,39.624 75.6079981,39.4840014 75.992,39.204 C76.3760019,38.9239986 76.6559991,38.6240016 76.832,38.304 L76.832,36.864 C76.6719992,36.8319998 76.4320016,36.7960002 76.112,36.756 C75.7919984,36.7159998 75.4480018,36.696 75.08,36.696 C74.7759985,36.696 74.4720015,36.7239997 74.168,36.78 C73.8639985,36.8360003 73.5920012,36.9239994 73.352,37.044 C73.1119988,37.1640006 72.9200007,37.319999 72.776,37.512 C72.6319993,37.704001 72.56,37.9359986 72.56,38.208 C72.56,38.6560022 72.6919987,39.0039988 72.956,39.252 C73.2200013,39.5000012 73.655997,39.624 74.264,39.624 Z M89.744,25.2 L94.76,25.2 L94.76,35.568 C94.76,36.768006 94.8239994,37.9519942 94.952,39.12 C94.952,39.2000004 94.9599999,39.2799996 94.976,39.36 L96.512,39.36 L96.512,42 L92.648,42 L92.336,40.464 L92.24,40.464 C92.0799992,40.7520014 91.8640014,41.0079989 91.592,41.232 C91.3199986,41.4560011 91.0160017,41.6519992 90.68,41.82 C90.3439983,41.9880008 89.976002,42.1159996 89.576,42.204 C89.175998,42.2920004 88.776002,42.336 88.376,42.336 C87.6239962,42.336 86.9160033,42.2160012 86.252,41.976 C85.5879967,41.7359988 85.0080025,41.3640025 84.512,40.86 C84.0159975,40.3559975 83.6240014,39.7160039 83.336,38.94 C83.0479986,38.1639961 82.904,37.2480053 82.904,36.192 C82.904,35.1679949 83.0599984,34.256004 83.372,33.456 C83.6840016,32.655996 84.1159972,31.9800028 84.668,31.428 C85.2200028,30.8759972 85.8719962,30.4520015 86.624,30.156 C87.3760038,29.8599985 88.1999955,29.712 89.096,29.712 C89.5920025,29.712 90.0599978,29.7399997 90.5,29.796 C90.9400022,29.8520003 91.3199984,29.9439994 91.64,30.072 L91.64,27.84 L89.744,27.84 L89.744,25.2 Z M89.096,39.696 C89.704003,39.696 90.2439976,39.5480015 90.716,39.252 C91.1880024,38.9559985 91.4959993,38.5280028 91.64,37.968 L91.64,32.88 C91.4159989,32.7039991 91.108002,32.5720004 90.716,32.484 C90.323998,32.3959996 89.9120022,32.352 89.48,32.352 C89.0479978,32.352 88.628002,32.4239993 88.22,32.568 C87.811998,32.7120007 87.4520016,32.9399984 87.14,33.252 C86.8279984,33.5640016 86.5800009,33.9679975 86.396,34.464 C86.2119991,34.9600025 86.12,35.5679964 86.12,36.288 C86.12,37.3120051 86.3759974,38.1359969 86.888,38.76 C87.4000026,39.3840031 88.1359952,39.696 89.096,39.696 Z M109.616,40.728 C109.407999,40.920001 109.140002,41.1079991 108.812,41.292 C108.483998,41.4760009 108.100002,41.6479992 107.66,41.808 C107.219998,41.9680008 106.736003,42.0959995 106.208,42.192 C105.679997,42.2880005 105.120003,42.336 104.528,42.336 C103.503995,42.336 102.588004,42.1920014 101.78,41.904 C100.971996,41.6159986 100.288003,41.1960028 99.728,40.644 C99.1679972,40.0919972 98.7400015,39.4280039 98.444,38.652 C98.1479985,37.8759961 98,36.992005 98,36 C98,34.9439947 98.1679983,34.020004 98.504,33.228 C98.8400017,32.435996 99.2999971,31.7760026 99.884,31.248 C100.468003,30.7199974 101.151996,30.3240013 101.936,30.06 C102.720004,29.7959987 103.567995,29.664 104.48,29.664 C105.088003,29.664 105.715997,29.7439992 106.364,29.904 C107.012003,30.0640008 107.607997,30.339998 108.152,30.732 C108.696003,31.124002 109.139998,31.6479967 109.484,32.304 C109.828002,32.9600033 110,33.791995 110,34.8 C110,35.4880034 109.920001,36.231996 109.76,37.032 L101.12,37.032 C101.136,37.5440026 101.243999,37.9759982 101.444,38.328 C101.644001,38.6800018 101.907998,38.9679989 102.236,39.192 C102.564002,39.4160011 102.939998,39.5799995 103.364,39.684 C103.788002,39.7880005 104.239998,39.84 104.72,39.84 C105.680005,39.84 106.467997,39.7280011 107.084,39.504 C107.700003,39.2799989 108.199998,39.0080016 108.584,38.688 L109.616,40.728 Z M104.432,32.16 C104.015998,32.16 103.624002,32.2159994 103.256,32.328 C102.887998,32.4400006 102.556001,32.6039989 102.26,32.82 C101.963999,33.0360011 101.720001,33.3039984 101.528,33.624 C101.335999,33.9440016 101.224,34.303998 101.192,34.704 L107.096,34.704 C107.096,33.9199961 106.876002,33.3000023 106.436,32.844 C105.995998,32.3879977 105.328004,32.16 104.432,32.16 Z M112.136,39.36 L115.112,39.36 L115.112,32.64 L112.136,32.64 L112.136,30 L117.536,30 L117.896,31.584 L117.992,31.584 C118.440002,31.0559974 118.951997,30.6160018 119.528,30.264 C120.104003,29.9119982 120.775996,29.736 121.544,29.736 C122.504005,29.736 123.259997,30.0879965 123.812,30.792 C124.364003,31.4960035 124.64,32.6719918 124.64,34.32 L121.832,34.32 C121.832,33.7439971 121.748001,33.3240013 121.58,33.06 C121.411999,32.7959987 121.144002,32.664 120.776,32.664 C120.135997,32.664 119.620002,32.8239984 119.228,33.144 C118.835998,33.4640016 118.504001,33.8319979 118.232,34.248 L118.232,39.36 L123.44,39.36 L123.44,42 L112.136,42 L112.136,39.36 Z M127.832,41.52 L126.464,39.36 L135.2,34.2 L126.464,28.92 L127.832,26.76 L139.04,33.72 L139.04,34.92 L127.832,41.52 Z M140.864,34.92 L140.864,33.72 L152.072,26.76 L153.44,28.92 L144.704,34.2 L153.44,39.36 L152.072,41.52 L140.864,34.92 Z M154.4,25.2 L159.248,25.2 L159.248,31.344 L159.344,31.344 C159.728002,30.8319974 160.239997,30.4240015 160.88,30.12 C161.520003,29.8159985 162.271996,29.664 163.136,29.664 C163.744003,29.664 164.303997,29.7439992 164.816,29.904 C165.328003,30.0640008 165.767998,30.3279982 166.136,30.696 C166.504002,31.0640018 166.791999,31.5639968 167,32.196 C167.208001,32.8280032 167.312,33.6079954 167.312,34.536 L167.312,42 L164.192,42 L164.192,35.184 C164.192,34.2079951 163.984002,33.5040022 163.568,33.072 C163.151998,32.6399978 162.608003,32.424 161.936,32.424 C161.343997,32.424 160.800002,32.6039982 160.304,32.964 C159.807998,33.3240018 159.456001,33.7839972 159.248,34.344 L159.248,42 L156.128,42 L156.128,27.84 L154.4,27.84 L154.4,25.2 Z M181.616,40.728 C181.407999,40.920001 181.140002,41.1079991 180.812,41.292 C180.483998,41.4760009 180.100002,41.6479992 179.66,41.808 C179.219998,41.9680008 178.736003,42.0959995 178.208,42.192 C177.679997,42.2880005 177.120003,42.336 176.528,42.336 C175.503995,42.336 174.588004,42.1920014 173.78,41.904 C172.971996,41.6159986 172.288003,41.1960028 171.728,40.644 C171.167997,40.0919972 170.740001,39.4280039 170.444,38.652 C170.147999,37.8759961 170,36.992005 170,36 C170,34.9439947 170.167998,34.020004 170.504,33.228 C170.840002,32.435996 171.299997,31.7760026 171.884,31.248 C172.468003,30.7199974 173.151996,30.3240013 173.936,30.06 C174.720004,29.7959987 175.567995,29.664 176.48,29.664 C177.088003,29.664 177.715997,29.7439992 178.364,29.904 C179.012003,30.0640008 179.607997,30.339998 180.152,30.732 C180.696003,31.124002 181.139998,31.6479967 181.484,32.304 C181.828002,32.9600033 182,33.791995 182,34.8 C182,35.4880034 181.920001,36.231996 181.76,37.032 L173.12,37.032 C173.136,37.5440026 173.243999,37.9759982 173.444,38.328 C173.644001,38.6800018 173.907998,38.9679989 174.236,39.192 C174.564002,39.4160011 174.939998,39.5799995 175.364,39.684 C175.788002,39.7880005 176.239998,39.84 176.72,39.84 C177.680005,39.84 178.467997,39.7280011 179.084,39.504 C179.700003,39.2799989 180.199998,39.0080016 180.584,38.688 L181.616,40.728 Z M176.432,32.16 C176.015998,32.16 175.624002,32.2159994 175.256,32.328 C174.887998,32.4400006 174.556001,32.6039989 174.26,32.82 C173.963999,33.0360011 173.720001,33.3039984 173.528,33.624 C173.335999,33.9440016 173.224,34.303998 173.192,34.704 L179.096,34.704 C179.096,33.9199961 178.876002,33.3000023 178.436,32.844 C177.995998,32.3879977 177.328004,32.16 176.432,32.16 Z M185.36,30.816 C186.000003,30.5279986 186.739996,30.280001 187.58,30.072 C188.420004,29.863999 189.415994,29.76 190.568,29.76 C191.400004,29.76 192.107997,29.859999 192.692,30.06 C193.276003,30.260001 193.747998,30.5439982 194.108,30.912 C194.468002,31.2800018 194.727999,31.7199974 194.888,32.232 C195.048001,32.7440026 195.128,33.3199968 195.128,33.96 C195.128,34.7760041 195.1,35.4719971 195.044,36.048 C194.988,36.6240029 194.96,37.1359978 194.96,37.584 C194.96,37.9200017 194.976,38.2959979 195.008,38.712 C195.04,38.9360011 195.064,39.151999 195.08,39.36 L196.64,39.36 L196.64,42 L192.656,42 L192.344,40.368 L192.224,40.368 C191.903998,40.8640025 191.448003,41.2919982 190.856,41.652 C190.263997,42.0120018 189.464005,42.192 188.456,42.192 C187.255994,42.192 186.304004,41.8720032 185.6,41.232 C184.895996,40.5919968 184.544,39.7440053 184.544,38.688 C184.544,38.0159966 184.667999,37.4360024 184.916,36.948 C185.164001,36.4599976 185.523998,36.0600016 185.996,35.748 C186.468002,35.4359984 187.035997,35.2040008 187.7,35.052 C188.364003,34.8999992 189.103996,34.824 189.92,34.824 C190.208001,34.824 190.511998,34.8399998 190.832,34.872 C191.152002,34.9040002 191.543998,34.9359998 192.008,34.968 C192.04,34.8079992 192.056,34.6480008 192.056,34.488 L192.056,34.032 C192.056,33.423997 191.880002,32.9880013 191.528,32.724 C191.175998,32.4599987 190.656003,32.328 189.968,32.328 C189.151996,32.328 188.416003,32.431999 187.76,32.64 C187.103997,32.848001 186.552002,33.055999 186.104,33.264 L185.36,30.816 Z M189.464,39.624 C190.232004,39.624 190.807998,39.4840014 191.192,39.204 C191.576002,38.9239986 191.855999,38.6240016 192.032,38.304 L192.032,36.864 C191.871999,36.8319998 191.632002,36.7960002 191.312,36.756 C190.991998,36.7159998 190.648002,36.696 190.28,36.696 C189.975998,36.696 189.672002,36.7239997 189.368,36.78 C189.063998,36.8360003 188.792001,36.9239994 188.552,37.044 C188.311999,37.1640006 188.120001,37.319999 187.976,37.512 C187.831999,37.704001 187.76,37.9359986 187.76,38.208 C187.76,38.6560022 187.891999,39.0039988 188.156,39.252 C188.420001,39.5000012 188.855997,39.624 189.464,39.624 Z M204.944,25.2 L209.96,25.2 L209.96,35.568 C209.96,36.768006 210.023999,37.9519942 210.152,39.12 C210.152,39.2000004 210.16,39.2799996 210.176,39.36 L211.712,39.36 L211.712,42 L207.848,42 L207.536,40.464 L207.44,40.464 C207.279999,40.7520014 207.064001,41.0079989 206.792,41.232 C206.519999,41.4560011 206.216002,41.6519992 205.88,41.82 C205.543998,41.9880008 205.176002,42.1159996 204.776,42.204 C204.375998,42.2920004 203.976002,42.336 203.576,42.336 C202.823996,42.336 202.116003,42.2160012 201.452,41.976 C200.787997,41.7359988 200.208002,41.3640025 199.712,40.86 C199.215998,40.3559975 198.824001,39.7160039 198.536,38.94 C198.247999,38.1639961 198.104,37.2480053 198.104,36.192 C198.104,35.1679949 198.259998,34.256004 198.572,33.456 C198.884002,32.655996 199.315997,31.9800028 199.868,31.428 C200.420003,30.8759972 201.071996,30.4520015 201.824,30.156 C202.576004,29.8599985 203.399996,29.712 204.296,29.712 C204.792002,29.712 205.259998,29.7399997 205.7,29.796 C206.140002,29.8520003 206.519998,29.9439994 206.84,30.072 L206.84,27.84 L204.944,27.84 L204.944,25.2 Z M204.296,39.696 C204.904003,39.696 205.443998,39.5480015 205.916,39.252 C206.388002,38.9559985 206.695999,38.5280028 206.84,37.968 L206.84,32.88 C206.615999,32.7039991 206.308002,32.5720004 205.916,32.484 C205.523998,32.3959996 205.112002,32.352 204.68,32.352 C204.247998,32.352 203.828002,32.4239993 203.42,32.568 C203.011998,32.7120007 202.652002,32.9399984 202.34,33.252 C202.027998,33.5640016 201.780001,33.9679975 201.596,34.464 C201.411999,34.9600025 201.32,35.5679964 201.32,36.288 C201.32,37.3120051 201.575997,38.1359969 202.088,38.76 C202.600003,39.3840031 203.335995,39.696 204.296,39.696 Z M224.816,40.728 C224.607999,40.920001 224.340002,41.1079991 224.012,41.292 C223.683998,41.4760009 223.300002,41.6479992 222.86,41.808 C222.419998,41.9680008 221.936003,42.0959995 221.408,42.192 C220.879997,42.2880005 220.320003,42.336 219.728,42.336 C218.703995,42.336 217.788004,42.1920014 216.98,41.904 C216.171996,41.6159986 215.488003,41.1960028 214.928,40.644 C214.367997,40.0919972 213.940001,39.4280039 213.644,38.652 C213.347999,37.8759961 213.2,36.992005 213.2,36 C213.2,34.9439947 213.367998,34.020004 213.704,33.228 C214.040002,32.435996 214.499997,31.7760026 215.084,31.248 C215.668003,30.7199974 216.351996,30.3240013 217.136,30.06 C217.920004,29.7959987 218.767995,29.664 219.68,29.664 C220.288003,29.664 220.915997,29.7439992 221.564,29.904 C222.212003,30.0640008 222.807997,30.339998 223.352,30.732 C223.896003,31.124002 224.339998,31.6479967 224.684,32.304 C225.028002,32.9600033 225.2,33.791995 225.2,34.8 C225.2,35.4880034 225.120001,36.231996 224.96,37.032 L216.32,37.032 C216.336,37.5440026 216.443999,37.9759982 216.644,38.328 C216.844001,38.6800018 217.107998,38.9679989 217.436,39.192 C217.764002,39.4160011 218.139998,39.5799995 218.564,39.684 C218.988002,39.7880005 219.439998,39.84 219.92,39.84 C220.880005,39.84 221.667997,39.7280011 222.284,39.504 C222.900003,39.2799989 223.399998,39.0080016 223.784,38.688 L224.816,40.728 Z M219.632,32.16 C219.215998,32.16 218.824002,32.2159994 218.456,32.328 C218.087998,32.4400006 217.756001,32.6039989 217.46,32.82 C217.163999,33.0360011 216.920001,33.3039984 216.728,33.624 C216.535999,33.9440016 216.424,34.303998 216.392,34.704 L222.296,34.704 C222.296,33.9199961 222.076002,33.3000023 221.636,32.844 C221.195998,32.3879977 220.528004,32.16 219.632,32.16 Z M227.336,39.36 L230.312,39.36 L230.312,32.64 L227.336,32.64 L227.336,30 L232.736,30 L233.096,31.584 L233.192,31.584 C233.640002,31.0559974 234.151997,30.6160018 234.728,30.264 C235.304003,29.9119982 235.975996,29.736 236.744,29.736 C237.704005,29.736 238.459997,30.0879965 239.012,30.792 C239.564003,31.4960035 239.84,32.6719918 239.84,34.32 L237.032,34.32 C237.032,33.7439971 236.948001,33.3240013 236.78,33.06 C236.611999,32.7959987 236.344002,32.664 235.976,32.664 C235.335997,32.664 234.820002,32.8239984 234.428,33.144 C234.035998,33.4640016 233.704001,33.8319979 233.432,34.248 L233.432,39.36 L238.64,39.36 L238.64,42 L227.336,42 L227.336,39.36 Z M243.032,41.52 L241.664,39.36 L250.4,34.2 L241.664,28.92 L243.032,26.76 L254.24,33.72 L254.24,34.92 L243.032,41.52 Z" id="&lt;header&gt;&lt;header&gt;" fill="#4B4B4B"></path>
            <path d="M11.264,110.92 L11.264,109.72 L22.472,102.76 L23.84,104.92 L15.104,110.2 L23.84,115.36 L22.472,117.52 L11.264,110.92 Z M34.448,114.688 C34.448,114.367998 34.252002,114.112001 33.86,113.92 C33.467998,113.727999 32.9840029,113.552001 32.408,113.392 C31.8319971,113.231999 31.2000034,113.068001 30.512,112.9 C29.8239966,112.731999 29.1920029,112.500001 28.616,112.204 C28.0399971,111.907999 27.556002,111.532002 27.164,111.076 C26.771998,110.619998 26.576,110.032004 26.576,109.312 C26.576,108.719997 26.7079987,108.200002 26.972,107.752 C27.2360013,107.303998 27.5959977,106.924002 28.052,106.612 C28.5080023,106.299998 29.0519968,106.064001 29.684,105.904 C30.3160032,105.743999 30.9999963,105.664 31.736,105.664 C32.5200039,105.664 33.207997,105.719999 33.8,105.832 C34.392003,105.944001 34.9079978,106.079999 35.348,106.24 C35.7880022,106.400001 36.1639984,106.579999 36.476,106.78 C36.7880016,106.980001 37.0559989,107.159999 37.28,107.32 L35.96,109.456 C35.7199988,109.311999 35.4440016,109.164001 35.132,109.012 C34.8199984,108.859999 34.4920017,108.720001 34.148,108.592 C33.8039983,108.463999 33.4440019,108.36 33.068,108.28 C32.6919981,108.2 32.3200018,108.16 31.952,108.16 C31.2799966,108.16 30.7360021,108.247999 30.32,108.424 C29.9039979,108.600001 29.696,108.871998 29.696,109.24 C29.696,109.528001 29.891998,109.759999 30.284,109.936 C30.676002,110.112001 31.1599971,110.275999 31.736,110.428 C32.3120029,110.580001 32.9439966,110.743999 33.632,110.92 C34.3200034,111.096001 34.9519971,111.323999 35.528,111.604 C36.1040029,111.884001 36.587998,112.247998 36.98,112.696 C37.372002,113.144002 37.568,113.719996 37.568,114.424 C37.568,115.640006 37.1240044,116.595997 36.236,117.292 C35.3479956,117.988003 34.0320087,118.336 32.288,118.336 C30.9119931,118.336 29.724005,118.132002 28.724,117.724 C27.723995,117.315998 26.920003,116.840003 26.312,116.296 L27.752,114.04 C27.960001,114.216001 28.2359983,114.411999 28.58,114.628 C28.9240017,114.844001 29.3119978,115.039999 29.744,115.216 C30.1760022,115.392001 30.6359976,115.539999 31.124,115.66 C31.6120024,115.780001 32.0959976,115.84 32.576,115.84 C33.0880026,115.84 33.5279982,115.752001 33.896,115.576 C34.2640018,115.399999 34.448,115.104002 34.448,114.688 Z M52.016,116.728 C51.807999,116.920001 51.5400016,117.107999 51.212,117.292 C50.8839984,117.476001 50.5000022,117.647999 50.06,117.808 C49.6199978,117.968001 49.1360026,118.096 48.608,118.192 C48.0799974,118.288 47.520003,118.336 46.928,118.336 C45.9039949,118.336 44.988004,118.192001 44.18,117.904 C43.371996,117.615999 42.6880028,117.196003 42.128,116.644 C41.5679972,116.091997 41.1400015,115.428004 40.844,114.652 C40.5479985,113.875996 40.4,112.992005 40.4,112 C40.4,110.943995 40.5679983,110.020004 40.904,109.228 C41.2400017,108.435996 41.6999971,107.776003 42.284,107.248 C42.8680029,106.719997 43.5519961,106.324001 44.336,106.06 C45.1200039,105.795999 45.9679954,105.664 46.88,105.664 C47.488003,105.664 48.1159968,105.743999 48.764,105.904 C49.4120032,106.064001 50.0079973,106.339998 50.552,106.732 C51.0960027,107.124002 51.5399983,107.647997 51.884,108.304 C52.2280017,108.960003 52.4,109.791995 52.4,110.8 C52.4,111.488003 52.3200008,112.231996 52.16,113.032 L43.52,113.032 C43.5360001,113.544003 43.643999,113.975998 43.844,114.328 C44.044001,114.680002 44.3079984,114.967999 44.636,115.192 C44.9640016,115.416001 45.3399979,115.579999 45.764,115.684 C46.1880021,115.788001 46.6399976,115.84 47.12,115.84 C48.0800048,115.84 48.8679969,115.728001 49.484,115.504 C50.1000031,115.279999 50.5999981,115.008002 50.984,114.688 L52.016,116.728 Z M46.832,108.16 C46.4159979,108.16 46.0240018,108.215999 45.656,108.328 C45.2879982,108.440001 44.9560015,108.603999 44.66,108.82 C44.3639985,109.036001 44.120001,109.303998 43.928,109.624 C43.735999,109.944002 43.6240002,110.303998 43.592,110.704 L49.496,110.704 C49.496,109.919996 49.2760022,109.300002 48.836,108.844 C48.3959978,108.387998 47.7280045,108.16 46.832,108.16 Z M66.704,116.848 C66.0479967,117.344002 65.2800044,117.715999 64.4,117.964 C63.5199956,118.212001 62.6000048,118.336 61.64,118.336 C60.5999948,118.336 59.676004,118.184002 58.868,117.88 C58.059996,117.575998 57.3800028,117.148003 56.828,116.596 C56.2759972,116.043997 55.8560014,115.376004 55.568,114.592 C55.2799986,113.807996 55.136,112.944005 55.136,112 C55.136,110.991995 55.3039983,110.096004 55.64,109.312 C55.9760017,108.527996 56.443997,107.864003 57.044,107.32 C57.644003,106.775997 58.3519959,106.364001 59.168,106.084 C59.9840041,105.803999 60.8719952,105.664 61.832,105.664 C62.7280045,105.664 63.5679961,105.767999 64.352,105.976 C65.1360039,106.184001 65.7359979,106.383999 66.152,106.576 L66.152,110.8 L63.512,110.8 L63.512,108.592 C63.0159975,108.479999 62.5200025,108.424 62.024,108.424 C61.5759978,108.424 61.1320022,108.491999 60.692,108.628 C60.2519978,108.764001 59.8600017,108.979999 59.516,109.276 C59.1719983,109.572001 58.8920011,109.943998 58.676,110.392 C58.4599989,110.840002 58.352,111.375997 58.352,112 C58.352,112.512003 58.4399991,112.983998 58.616,113.416 C58.7920009,113.848002 59.0399984,114.223998 59.36,114.544 C59.6800016,114.864002 60.0759976,115.115999 60.548,115.3 C61.0200024,115.484001 61.5439971,115.576 62.12,115.576 C63.0320046,115.576 63.7799971,115.448001 64.364,115.192 C64.9480029,114.935999 65.3839986,114.712001 65.672,114.52 L66.704,116.848 Z M70.784,108.64 L68.408,108.64 L68.408,106 L70.784,106 L70.784,103.264 L73.904,102.376 L73.904,106 L80.192,106 L80.192,108.64 L73.904,108.64 L73.904,112.072 C73.904,113.304006 74.1359977,114.195997 74.6,114.748 C75.0640023,115.300003 75.7119958,115.576 76.544,115.576 C76.9760022,115.576 77.3679982,115.524001 77.72,115.42 C78.0720018,115.315999 78.3879986,115.184001 78.668,115.024 C78.9480014,114.863999 79.2039988,114.688001 79.436,114.496 C79.6680012,114.303999 79.879999,114.128001 80.072,113.968 L81.512,116.128 C81.2399986,116.448002 80.900002,116.739999 80.492,117.004 C80.083998,117.268001 79.6440024,117.499999 79.172,117.7 C78.6999976,117.900001 78.2080026,118.055999 77.696,118.168 C77.1839974,118.280001 76.6800025,118.336 76.184,118.336 C74.391991,118.336 73.0440045,117.836005 72.14,116.836 C71.2359955,115.835995 70.784,114.248011 70.784,112.072 L70.784,108.64 Z M83.816,115.36 L88.04,115.36 L88.04,108.64 L83.816,108.64 L83.816,106 L91.16,106 L91.16,115.36 L95.6,115.36 L95.6,118 L83.816,118 L83.816,115.36 Z M87.464,102.736 C87.464,102.239998 87.6479982,101.816002 88.016,101.464 C88.3840018,101.111998 88.8959967,100.936 89.552,100.936 C90.2240034,100.936 90.759998,101.111998 91.16,101.464 C91.560002,101.816002 91.76,102.239998 91.76,102.736 C91.76,103.248003 91.560002,103.667998 91.16,103.996 C90.759998,104.324002 90.2240034,104.488 89.552,104.488 C88.8959967,104.488 88.3840018,104.324002 88.016,103.996 C87.6479982,103.667998 87.464,103.248003 87.464,102.736 Z M97.64,112 C97.64,110.991995 97.7919985,110.096004 98.096,109.312 C98.4000015,108.527996 98.8319972,107.864003 99.392,107.32 C99.9520028,106.775997 100.619996,106.364001 101.396,106.084 C102.172004,105.803999 103.039995,105.664 104,105.664 C105.008005,105.664 105.907996,105.815998 106.7,106.12 C107.492004,106.424002 108.159997,106.851997 108.704,107.404 C109.248003,107.956003 109.659999,108.623996 109.94,109.408 C110.220001,110.192004 110.36,111.055995 110.36,112 C110.36,113.008005 110.208002,113.903996 109.904,114.688 C109.599998,115.472004 109.168003,116.135997 108.608,116.68 C108.047997,117.224003 107.380004,117.635999 106.604,117.916 C105.827996,118.196001 104.960005,118.336 104,118.336 C102.991995,118.336 102.092004,118.184002 101.3,117.88 C100.507996,117.575998 99.8400027,117.148003 99.296,116.596 C98.7519973,116.043997 98.3400014,115.376004 98.06,114.592 C97.7799986,113.807996 97.64,112.944005 97.64,112 Z M100.856,112 C100.856,112.528003 100.927999,113.015998 101.072,113.464 C101.216001,113.912002 101.423999,114.303998 101.696,114.64 C101.968001,114.976002 102.295998,115.235999 102.68,115.42 C103.064002,115.604001 103.503998,115.696 104,115.696 C104.928005,115.696 105.683997,115.400003 106.268,114.808 C106.852003,114.215997 107.144,113.280006 107.144,112 C107.144,110.895994 106.872003,110.004003 106.328,109.324 C105.783997,108.643997 105.008005,108.304 104,108.304 C103.551998,108.304 103.136002,108.371999 102.752,108.508 C102.367998,108.644001 102.036001,108.863998 101.756,109.168 C101.475999,109.472002 101.256001,109.855998 101.096,110.32 C100.935999,110.784002 100.856,111.343997 100.856,112 Z M111.488,106 L115.688,106 L116.048,107.584 L116.144,107.584 C116.512002,107.071997 117.039997,106.624002 117.728,106.24 C118.416003,105.855998 119.239995,105.664 120.2,105.664 C120.792003,105.664 121.347997,105.743999 121.868,105.904 C122.388003,106.064001 122.831998,106.327998 123.2,106.696 C123.568002,107.064002 123.859999,107.563997 124.076,108.196 C124.292001,108.828003 124.4,109.607995 124.4,110.536 L124.4,118 L121.28,118 L121.28,111.184 C121.28,110.207995 121.060002,109.504002 120.62,109.072 C120.179998,108.639998 119.624003,108.424 118.952,108.424 C118.359997,108.424 117.820002,108.595998 117.332,108.94 C116.843998,109.284002 116.512001,109.711997 116.336,110.224 L116.336,118 L113.216,118 L113.216,108.64 L111.488,108.64 L111.488,106 Z M127.832,117.52 L126.464,115.36 L135.2,110.2 L126.464,104.92 L127.832,102.76 L139.04,109.72 L139.04,110.92 L127.832,117.52 Z M140.864,110.92 L140.864,109.72 L152.072,102.76 L153.44,104.92 L144.704,110.2 L153.44,115.36 L152.072,117.52 L140.864,110.92 Z M164.048,114.688 C164.048,114.367998 163.852002,114.112001 163.46,113.92 C163.067998,113.727999 162.584003,113.552001 162.008,113.392 C161.431997,113.231999 160.800003,113.068001 160.112,112.9 C159.423997,112.731999 158.792003,112.500001 158.216,112.204 C157.639997,111.907999 157.156002,111.532002 156.764,111.076 C156.371998,110.619998 156.176,110.032004 156.176,109.312 C156.176,108.719997 156.307999,108.200002 156.572,107.752 C156.836001,107.303998 157.195998,106.924002 157.652,106.612 C158.108002,106.299998 158.651997,106.064001 159.284,105.904 C159.916003,105.743999 160.599996,105.664 161.336,105.664 C162.120004,105.664 162.807997,105.719999 163.4,105.832 C163.992003,105.944001 164.507998,106.079999 164.948,106.24 C165.388002,106.400001 165.763998,106.579999 166.076,106.78 C166.388002,106.980001 166.655999,107.159999 166.88,107.32 L165.56,109.456 C165.319999,109.311999 165.044002,109.164001 164.732,109.012 C164.419998,108.859999 164.092002,108.720001 163.748,108.592 C163.403998,108.463999 163.044002,108.36 162.668,108.28 C162.291998,108.2 161.920002,108.16 161.552,108.16 C160.879997,108.16 160.336002,108.247999 159.92,108.424 C159.503998,108.600001 159.296,108.871998 159.296,109.24 C159.296,109.528001 159.491998,109.759999 159.884,109.936 C160.276002,110.112001 160.759997,110.275999 161.336,110.428 C161.912003,110.580001 162.543997,110.743999 163.232,110.92 C163.920003,111.096001 164.551997,111.323999 165.128,111.604 C165.704003,111.884001 166.187998,112.247998 166.58,112.696 C166.972002,113.144002 167.168,113.719996 167.168,114.424 C167.168,115.640006 166.724004,116.595997 165.836,117.292 C164.947996,117.988003 163.632009,118.336 161.888,118.336 C160.511993,118.336 159.324005,118.132002 158.324,117.724 C157.323995,117.315998 156.520003,116.840003 155.912,116.296 L157.352,114.04 C157.560001,114.216001 157.835998,114.411999 158.18,114.628 C158.524002,114.844001 158.911998,115.039999 159.344,115.216 C159.776002,115.392001 160.235998,115.539999 160.724,115.66 C161.212002,115.780001 161.695998,115.84 162.176,115.84 C162.688003,115.84 163.127998,115.752001 163.496,115.576 C163.864002,115.399999 164.048,115.104002 164.048,114.688 Z M181.616,116.728 C181.407999,116.920001 181.140002,117.107999 180.812,117.292 C180.483998,117.476001 180.100002,117.647999 179.66,117.808 C179.219998,117.968001 178.736003,118.096 178.208,118.192 C177.679997,118.288 177.120003,118.336 176.528,118.336 C175.503995,118.336 174.588004,118.192001 173.78,117.904 C172.971996,117.615999 172.288003,117.196003 171.728,116.644 C171.167997,116.091997 170.740001,115.428004 170.444,114.652 C170.147999,113.875996 170,112.992005 170,112 C170,110.943995 170.167998,110.020004 170.504,109.228 C170.840002,108.435996 171.299997,107.776003 171.884,107.248 C172.468003,106.719997 173.151996,106.324001 173.936,106.06 C174.720004,105.795999 175.567995,105.664 176.48,105.664 C177.088003,105.664 177.715997,105.743999 178.364,105.904 C179.012003,106.064001 179.607997,106.339998 180.152,106.732 C180.696003,107.124002 181.139998,107.647997 181.484,108.304 C181.828002,108.960003 182,109.791995 182,110.8 C182,111.488003 181.920001,112.231996 181.76,113.032 L173.12,113.032 C173.136,113.544003 173.243999,113.975998 173.444,114.328 C173.644001,114.680002 173.907998,114.967999 174.236,115.192 C174.564002,115.416001 174.939998,115.579999 175.364,115.684 C175.788002,115.788001 176.239998,115.84 176.72,115.84 C177.680005,115.84 178.467997,115.728001 179.084,115.504 C179.700003,115.279999 180.199998,115.008002 180.584,114.688 L181.616,116.728 Z M176.432,108.16 C176.015998,108.16 175.624002,108.215999 175.256,108.328 C174.887998,108.440001 174.556001,108.603999 174.26,108.82 C173.963999,109.036001 173.720001,109.303998 173.528,109.624 C173.335999,109.944002 173.224,110.303998 173.192,110.704 L179.096,110.704 C179.096,109.919996 178.876002,109.300002 178.436,108.844 C177.995998,108.387998 177.328004,108.16 176.432,108.16 Z M196.304,116.848 C195.647997,117.344002 194.880004,117.715999 194,117.964 C193.119996,118.212001 192.200005,118.336 191.24,118.336 C190.199995,118.336 189.276004,118.184002 188.468,117.88 C187.659996,117.575998 186.980003,117.148003 186.428,116.596 C185.875997,116.043997 185.456001,115.376004 185.168,114.592 C184.879999,113.807996 184.736,112.944005 184.736,112 C184.736,110.991995 184.903998,110.096004 185.24,109.312 C185.576002,108.527996 186.043997,107.864003 186.644,107.32 C187.244003,106.775997 187.951996,106.364001 188.768,106.084 C189.584004,105.803999 190.471995,105.664 191.432,105.664 C192.328004,105.664 193.167996,105.767999 193.952,105.976 C194.736004,106.184001 195.335998,106.383999 195.752,106.576 L195.752,110.8 L193.112,110.8 L193.112,108.592 C192.615998,108.479999 192.120002,108.424 191.624,108.424 C191.175998,108.424 190.732002,108.491999 190.292,108.628 C189.851998,108.764001 189.460002,108.979999 189.116,109.276 C188.771998,109.572001 188.492001,109.943998 188.276,110.392 C188.059999,110.840002 187.952,111.375997 187.952,112 C187.952,112.512003 188.039999,112.983998 188.216,113.416 C188.392001,113.848002 188.639998,114.223998 188.96,114.544 C189.280002,114.864002 189.675998,115.115999 190.148,115.3 C190.620002,115.484001 191.143997,115.576 191.72,115.576 C192.632005,115.576 193.379997,115.448001 193.964,115.192 C194.548003,114.935999 194.983999,114.712001 195.272,114.52 L196.304,116.848 Z M200.384,108.64 L198.008,108.64 L198.008,106 L200.384,106 L200.384,103.264 L203.504,102.376 L203.504,106 L209.792,106 L209.792,108.64 L203.504,108.64 L203.504,112.072 C203.504,113.304006 203.735998,114.195997 204.2,114.748 C204.664002,115.300003 205.311996,115.576 206.144,115.576 C206.576002,115.576 206.967998,115.524001 207.32,115.42 C207.672002,115.315999 207.987999,115.184001 208.268,115.024 C208.548001,114.863999 208.803999,114.688001 209.036,114.496 C209.268001,114.303999 209.479999,114.128001 209.672,113.968 L211.112,116.128 C210.839999,116.448002 210.500002,116.739999 210.092,117.004 C209.683998,117.268001 209.244002,117.499999 208.772,117.7 C208.299998,117.900001 207.808003,118.055999 207.296,118.168 C206.783997,118.280001 206.280002,118.336 205.784,118.336 C203.991991,118.336 202.644005,117.836005 201.74,116.836 C200.835995,115.835995 200.384,114.248011 200.384,112.072 L200.384,108.64 Z M213.416,115.36 L217.64,115.36 L217.64,108.64 L213.416,108.64 L213.416,106 L220.76,106 L220.76,115.36 L225.2,115.36 L225.2,118 L213.416,118 L213.416,115.36 Z M217.064,102.736 C217.064,102.239998 217.247998,101.816002 217.616,101.464 C217.984002,101.111998 218.495997,100.936 219.152,100.936 C219.824003,100.936 220.359998,101.111998 220.76,101.464 C221.160002,101.816002 221.36,102.239998 221.36,102.736 C221.36,103.248003 221.160002,103.667998 220.76,103.996 C220.359998,104.324002 219.824003,104.488 219.152,104.488 C218.495997,104.488 217.984002,104.324002 217.616,103.996 C217.247998,103.667998 217.064,103.248003 217.064,102.736 Z M227.24,112 C227.24,110.991995 227.391998,110.096004 227.696,109.312 C228.000002,108.527996 228.431997,107.864003 228.992,107.32 C229.552003,106.775997 230.219996,106.364001 230.996,106.084 C231.772004,105.803999 232.639995,105.664 233.6,105.664 C234.608005,105.664 235.507996,105.815998 236.3,106.12 C237.092004,106.424002 237.759997,106.851997 238.304,107.404 C238.848003,107.956003 239.259999,108.623996 239.54,109.408 C239.820001,110.192004 239.96,111.055995 239.96,112 C239.96,113.008005 239.808002,113.903996 239.504,114.688 C239.199998,115.472004 238.768003,116.135997 238.208,116.68 C237.647997,117.224003 236.980004,117.635999 236.204,117.916 C235.427996,118.196001 234.560005,118.336 233.6,118.336 C232.591995,118.336 231.692004,118.184002 230.9,117.88 C230.107996,117.575998 229.440003,117.148003 228.896,116.596 C228.351997,116.043997 227.940001,115.376004 227.66,114.592 C227.379999,113.807996 227.24,112.944005 227.24,112 Z M230.456,112 C230.456,112.528003 230.527999,113.015998 230.672,113.464 C230.816001,113.912002 231.023999,114.303998 231.296,114.64 C231.568001,114.976002 231.895998,115.235999 232.28,115.42 C232.664002,115.604001 233.103998,115.696 233.6,115.696 C234.528005,115.696 235.283997,115.400003 235.868,114.808 C236.452003,114.215997 236.744,113.280006 236.744,112 C236.744,110.895994 236.472003,110.004003 235.928,109.324 C235.383997,108.643997 234.608005,108.304 233.6,108.304 C233.151998,108.304 232.736002,108.371999 232.352,108.508 C231.967998,108.644001 231.636001,108.863998 231.356,109.168 C231.075999,109.472002 230.856001,109.855998 230.696,110.32 C230.535999,110.784002 230.456,111.343997 230.456,112 Z M241.088,106 L245.288,106 L245.648,107.584 L245.744,107.584 C246.112002,107.071997 246.639997,106.624002 247.328,106.24 C248.016003,105.855998 248.839995,105.664 249.8,105.664 C250.392003,105.664 250.947997,105.743999 251.468,105.904 C251.988003,106.064001 252.431998,106.327998 252.8,106.696 C253.168002,107.064002 253.459999,107.563997 253.676,108.196 C253.892001,108.828003 254,109.607995 254,110.536 L254,118 L250.88,118 L250.88,111.184 C250.88,110.207995 250.660002,109.504002 250.22,109.072 C249.779998,108.639998 249.224003,108.424 248.552,108.424 C247.959997,108.424 247.420002,108.595998 246.932,108.94 C246.443998,109.284002 246.112001,109.711997 245.936,110.224 L245.936,118 L242.816,118 L242.816,108.64 L241.088,108.64 L241.088,106 Z M257.432,117.52 L256.064,115.36 L264.8,110.2 L256.064,104.92 L257.432,102.76 L268.64,109.72 L268.64,110.92 L257.432,117.52 Z" id="&lt;section&gt;&lt;section&gt;" fill="#4B4B4B"></path>
            <path d="M40.564,1010.92 L40.564,1009.72 L51.772,1002.76 L53.14,1004.92 L44.404,1010.2 L53.14,1015.36 L51.772,1017.52 L40.564,1010.92 Z M56.26,1006.816 C56.9000032,1006.528 57.6399958,1006.28 58.48,1006.072 C59.3200042,1005.864 60.3159942,1005.76 61.468,1005.76 C62.3000042,1005.76 63.0079971,1005.86 63.592,1006.06 C64.1760029,1006.26 64.6479982,1006.544 65.008,1006.912 C65.3680018,1007.28 65.6279992,1007.72 65.788,1008.232 C65.9480008,1008.744 66.028,1009.32 66.028,1009.96 C66.028,1010.776 66.0000003,1011.472 65.944,1012.048 C65.8879997,1012.624 65.86,1013.136 65.86,1013.584 C65.86,1013.92 65.8759998,1014.296 65.908,1014.712 C65.9400002,1014.936 65.9639999,1015.152 65.98,1015.36 L67.54,1015.36 L67.54,1018 L63.556,1018 L63.244,1016.368 L63.124,1016.368 C62.8039984,1016.864 62.348003,1017.292 61.756,1017.652 C61.163997,1018.012 60.364005,1018.192 59.356,1018.192 C58.155994,1018.192 57.2040035,1017.872 56.5,1017.232 C55.7959965,1016.592 55.444,1015.74401 55.444,1014.688 C55.444,1014.016 55.5679988,1013.436 55.816,1012.948 C56.0640012,1012.46 56.4239976,1012.06 56.896,1011.748 C57.3680024,1011.436 57.9359967,1011.204 58.6,1011.052 C59.2640033,1010.9 60.0039959,1010.824 60.82,1010.824 C61.1080014,1010.824 61.4119984,1010.84 61.732,1010.872 C62.0520016,1010.904 62.4439977,1010.936 62.908,1010.968 C62.9400002,1010.808 62.956,1010.648 62.956,1010.488 L62.956,1010.032 C62.956,1009.424 62.7800018,1008.988 62.428,1008.724 C62.0759982,1008.46 61.5560034,1008.328 60.868,1008.328 C60.0519959,1008.328 59.3160033,1008.432 58.66,1008.64 C58.0039967,1008.848 57.4520022,1009.056 57.004,1009.264 L56.26,1006.816 Z M60.364,1015.624 C61.1320038,1015.624 61.7079981,1015.484 62.092,1015.204 C62.4760019,1014.924 62.7559991,1014.624 62.932,1014.304 L62.932,1012.864 C62.7719992,1012.832 62.5320016,1012.796 62.212,1012.756 C61.8919984,1012.716 61.5480018,1012.696 61.18,1012.696 C60.8759985,1012.696 60.5720015,1012.724 60.268,1012.78 C59.9639985,1012.836 59.6920012,1012.924 59.452,1013.044 C59.2119988,1013.164 59.0200007,1013.32 58.876,1013.512 C58.7319993,1013.704 58.66,1013.936 58.66,1014.208 C58.66,1014.656 58.7919987,1015.004 59.056,1015.252 C59.3200013,1015.5 59.755997,1015.624 60.364,1015.624 Z M78.148,1014.688 C78.148,1014.368 77.952002,1014.112 77.56,1013.92 C77.167998,1013.728 76.6840029,1013.552 76.108,1013.392 C75.5319971,1013.232 74.9000034,1013.068 74.212,1012.9 C73.5239966,1012.732 72.8920029,1012.5 72.316,1012.204 C71.7399971,1011.908 71.256002,1011.532 70.864,1011.076 C70.471998,1010.62 70.276,1010.032 70.276,1009.312 C70.276,1008.72 70.4079987,1008.2 70.672,1007.752 C70.9360013,1007.304 71.2959977,1006.924 71.752,1006.612 C72.2080023,1006.3 72.7519968,1006.064 73.384,1005.904 C74.0160032,1005.744 74.6999963,1005.664 75.436,1005.664 C76.2200039,1005.664 76.907997,1005.72 77.5,1005.832 C78.092003,1005.944 78.6079978,1006.08 79.048,1006.24 C79.4880022,1006.4 79.8639984,1006.58 80.176,1006.78 C80.4880016,1006.98 80.7559989,1007.16 80.98,1007.32 L79.66,1009.456 C79.4199988,1009.312 79.1440016,1009.164 78.832,1009.012 C78.5199984,1008.86 78.1920017,1008.72 77.848,1008.592 C77.5039983,1008.464 77.1440019,1008.36 76.768,1008.28 C76.3919981,1008.2 76.0200018,1008.16 75.652,1008.16 C74.9799966,1008.16 74.4360021,1008.248 74.02,1008.424 C73.6039979,1008.6 73.396,1008.872 73.396,1009.24 C73.396,1009.528 73.591998,1009.76 73.984,1009.936 C74.376002,1010.112 74.8599971,1010.276 75.436,1010.428 C76.0120029,1010.58 76.6439966,1010.744 77.332,1010.92 C78.0200034,1011.096 78.6519971,1011.324 79.228,1011.604 C79.8040029,1011.884 80.287998,1012.248 80.68,1012.696 C81.072002,1013.144 81.268,1013.72 81.268,1014.424 C81.268,1015.64001 80.8240044,1016.596 79.936,1017.292 C79.0479956,1017.988 77.7320087,1018.336 75.988,1018.336 C74.6119931,1018.336 73.424005,1018.132 72.424,1017.724 C71.423995,1017.316 70.620003,1016.84 70.012,1016.296 L71.452,1014.04 C71.660001,1014.216 71.9359983,1014.412 72.28,1014.628 C72.6240017,1014.844 73.0119978,1015.04 73.444,1015.216 C73.8760022,1015.392 74.3359976,1015.54 74.824,1015.66 C75.3120024,1015.78 75.7959976,1015.84 76.276,1015.84 C76.7880026,1015.84 77.2279982,1015.752 77.596,1015.576 C77.9640018,1015.4 78.148,1015.104 78.148,1014.688 Z M84.316,1015.36 L88.54,1015.36 L88.54,1008.64 L84.316,1008.64 L84.316,1006 L91.66,1006 L91.66,1015.36 L96.1,1015.36 L96.1,1018 L84.316,1018 L84.316,1015.36 Z M87.964,1002.736 C87.964,1002.24 88.1479982,1001.816 88.516,1001.464 C88.8840018,1001.112 89.3959967,1000.936 90.052,1000.936 C90.7240034,1000.936 91.259998,1001.112 91.66,1001.464 C92.060002,1001.816 92.26,1002.24 92.26,1002.736 C92.26,1003.248 92.060002,1003.668 91.66,1003.996 C91.259998,1004.324 90.7240034,1004.488 90.052,1004.488 C89.3959967,1004.488 88.8840018,1004.324 88.516,1003.996 C88.1479982,1003.668 87.964,1003.248 87.964,1002.736 Z M104.644,1001.2 L109.66,1001.2 L109.66,1011.568 C109.66,1012.76801 109.723999,1013.95199 109.852,1015.12 C109.852,1015.2 109.86,1015.28 109.876,1015.36 L111.412,1015.36 L111.412,1018 L107.548,1018 L107.236,1016.464 L107.14,1016.464 C106.979999,1016.752 106.764001,1017.008 106.492,1017.232 C106.219999,1017.456 105.916002,1017.652 105.58,1017.82 C105.243998,1017.988 104.876002,1018.116 104.476,1018.204 C104.075998,1018.292 103.676002,1018.336 103.276,1018.336 C102.523996,1018.336 101.816003,1018.216 101.152,1017.976 C100.487997,1017.736 99.9080025,1017.364 99.412,1016.86 C98.9159975,1016.356 98.5240014,1015.716 98.236,1014.94 C97.9479986,1014.164 97.804,1013.24801 97.804,1012.192 C97.804,1011.16799 97.9599984,1010.256 98.272,1009.456 C98.5840016,1008.656 99.0159972,1007.98 99.568,1007.428 C100.120003,1006.876 100.771996,1006.452 101.524,1006.156 C102.276004,1005.86 103.099996,1005.712 103.996,1005.712 C104.492002,1005.712 104.959998,1005.74 105.4,1005.796 C105.840002,1005.852 106.219998,1005.944 106.54,1006.072 L106.54,1003.84 L104.644,1003.84 L104.644,1001.2 Z M103.996,1015.696 C104.604003,1015.696 105.143998,1015.548 105.616,1015.252 C106.088002,1014.956 106.395999,1014.528 106.54,1013.968 L106.54,1008.88 C106.315999,1008.704 106.008002,1008.572 105.616,1008.484 C105.223998,1008.396 104.812002,1008.352 104.38,1008.352 C103.947998,1008.352 103.528002,1008.424 103.12,1008.568 C102.711998,1008.712 102.352002,1008.94 102.04,1009.252 C101.727998,1009.564 101.480001,1009.968 101.296,1010.464 C101.111999,1010.96 101.02,1011.568 101.02,1012.288 C101.02,1013.31201 101.275997,1014.136 101.788,1014.76 C102.300003,1015.384 103.035995,1015.696 103.996,1015.696 Z M124.516,1016.728 C124.307999,1016.92 124.040002,1017.108 123.712,1017.292 C123.383998,1017.476 123.000002,1017.648 122.56,1017.808 C122.119998,1017.968 121.636003,1018.096 121.108,1018.192 C120.579997,1018.288 120.020003,1018.336 119.428,1018.336 C118.403995,1018.336 117.488004,1018.192 116.68,1017.904 C115.871996,1017.616 115.188003,1017.196 114.628,1016.644 C114.067997,1016.092 113.640001,1015.428 113.344,1014.652 C113.047999,1013.876 112.9,1012.992 112.9,1012 C112.9,1010.94399 113.067998,1010.02 113.404,1009.228 C113.740002,1008.436 114.199997,1007.776 114.784,1007.248 C115.368003,1006.72 116.051996,1006.324 116.836,1006.06 C117.620004,1005.796 118.467995,1005.664 119.38,1005.664 C119.988003,1005.664 120.615997,1005.744 121.264,1005.904 C121.912003,1006.064 122.507997,1006.34 123.052,1006.732 C123.596003,1007.124 124.039998,1007.648 124.384,1008.304 C124.728002,1008.96 124.9,1009.79199 124.9,1010.8 C124.9,1011.488 124.820001,1012.232 124.66,1013.032 L116.02,1013.032 C116.036,1013.544 116.143999,1013.976 116.344,1014.328 C116.544001,1014.68 116.807998,1014.968 117.136,1015.192 C117.464002,1015.416 117.839998,1015.58 118.264,1015.684 C118.688002,1015.788 119.139998,1015.84 119.62,1015.84 C120.580005,1015.84 121.367997,1015.728 121.984,1015.504 C122.600003,1015.28 123.099998,1015.008 123.484,1014.688 L124.516,1016.728 Z M119.332,1008.16 C118.915998,1008.16 118.524002,1008.216 118.156,1008.328 C117.787998,1008.44 117.456001,1008.604 117.16,1008.82 C116.863999,1009.036 116.620001,1009.304 116.428,1009.624 C116.235999,1009.944 116.124,1010.304 116.092,1010.704 L121.996,1010.704 C121.996,1009.92 121.776002,1009.3 121.336,1008.844 C120.895998,1008.388 120.228004,1008.16 119.332,1008.16 Z M128.332,1017.52 L126.964,1015.36 L135.7,1010.2 L126.964,1004.92 L128.332,1002.76 L139.54,1009.72 L139.54,1010.92 L128.332,1017.52 Z M141.364,1010.92 L141.364,1009.72 L152.572,1002.76 L153.94,1004.92 L145.204,1010.2 L153.94,1015.36 L152.572,1017.52 L141.364,1010.92 Z M157.06,1006.816 C157.700003,1006.528 158.439996,1006.28 159.28,1006.072 C160.120004,1005.864 161.115994,1005.76 162.268,1005.76 C163.100004,1005.76 163.807997,1005.86 164.392,1006.06 C164.976003,1006.26 165.447998,1006.544 165.808,1006.912 C166.168002,1007.28 166.427999,1007.72 166.588,1008.232 C166.748001,1008.744 166.828,1009.32 166.828,1009.96 C166.828,1010.776 166.8,1011.472 166.744,1012.048 C166.688,1012.624 166.66,1013.136 166.66,1013.584 C166.66,1013.92 166.676,1014.296 166.708,1014.712 C166.74,1014.936 166.764,1015.152 166.78,1015.36 L168.34,1015.36 L168.34,1018 L164.356,1018 L164.044,1016.368 L163.924,1016.368 C163.603998,1016.864 163.148003,1017.292 162.556,1017.652 C161.963997,1018.012 161.164005,1018.192 160.156,1018.192 C158.955994,1018.192 158.004004,1017.872 157.3,1017.232 C156.595996,1016.592 156.244,1015.74401 156.244,1014.688 C156.244,1014.016 156.367999,1013.436 156.616,1012.948 C156.864001,1012.46 157.223998,1012.06 157.696,1011.748 C158.168002,1011.436 158.735997,1011.204 159.4,1011.052 C160.064003,1010.9 160.803996,1010.824 161.62,1010.824 C161.908001,1010.824 162.211998,1010.84 162.532,1010.872 C162.852002,1010.904 163.243998,1010.936 163.708,1010.968 C163.74,1010.808 163.756,1010.648 163.756,1010.488 L163.756,1010.032 C163.756,1009.424 163.580002,1008.988 163.228,1008.724 C162.875998,1008.46 162.356003,1008.328 161.668,1008.328 C160.851996,1008.328 160.116003,1008.432 159.46,1008.64 C158.803997,1008.848 158.252002,1009.056 157.804,1009.264 L157.06,1006.816 Z M161.164,1015.624 C161.932004,1015.624 162.507998,1015.484 162.892,1015.204 C163.276002,1014.924 163.555999,1014.624 163.732,1014.304 L163.732,1012.864 C163.571999,1012.832 163.332002,1012.796 163.012,1012.756 C162.691998,1012.716 162.348002,1012.696 161.98,1012.696 C161.675998,1012.696 161.372002,1012.724 161.068,1012.78 C160.763998,1012.836 160.492001,1012.924 160.252,1013.044 C160.011999,1013.164 159.820001,1013.32 159.676,1013.512 C159.531999,1013.704 159.46,1013.936 159.46,1014.208 C159.46,1014.656 159.591999,1015.004 159.856,1015.252 C160.120001,1015.5 160.555997,1015.624 161.164,1015.624 Z M178.948,1014.688 C178.948,1014.368 178.752002,1014.112 178.36,1013.92 C177.967998,1013.728 177.484003,1013.552 176.908,1013.392 C176.331997,1013.232 175.700003,1013.068 175.012,1012.9 C174.323997,1012.732 173.692003,1012.5 173.116,1012.204 C172.539997,1011.908 172.056002,1011.532 171.664,1011.076 C171.271998,1010.62 171.076,1010.032 171.076,1009.312 C171.076,1008.72 171.207999,1008.2 171.472,1007.752 C171.736001,1007.304 172.095998,1006.924 172.552,1006.612 C173.008002,1006.3 173.551997,1006.064 174.184,1005.904 C174.816003,1005.744 175.499996,1005.664 176.236,1005.664 C177.020004,1005.664 177.707997,1005.72 178.3,1005.832 C178.892003,1005.944 179.407998,1006.08 179.848,1006.24 C180.288002,1006.4 180.663998,1006.58 180.976,1006.78 C181.288002,1006.98 181.555999,1007.16 181.78,1007.32 L180.46,1009.456 C180.219999,1009.312 179.944002,1009.164 179.632,1009.012 C179.319998,1008.86 178.992002,1008.72 178.648,1008.592 C178.303998,1008.464 177.944002,1008.36 177.568,1008.28 C177.191998,1008.2 176.820002,1008.16 176.452,1008.16 C175.779997,1008.16 175.236002,1008.248 174.82,1008.424 C174.403998,1008.6 174.196,1008.872 174.196,1009.24 C174.196,1009.528 174.391998,1009.76 174.784,1009.936 C175.176002,1010.112 175.659997,1010.276 176.236,1010.428 C176.812003,1010.58 177.443997,1010.744 178.132,1010.92 C178.820003,1011.096 179.451997,1011.324 180.028,1011.604 C180.604003,1011.884 181.087998,1012.248 181.48,1012.696 C181.872002,1013.144 182.068,1013.72 182.068,1014.424 C182.068,1015.64001 181.624004,1016.596 180.736,1017.292 C179.847996,1017.988 178.532009,1018.336 176.788,1018.336 C175.411993,1018.336 174.224005,1018.132 173.224,1017.724 C172.223995,1017.316 171.420003,1016.84 170.812,1016.296 L172.252,1014.04 C172.460001,1014.216 172.735998,1014.412 173.08,1014.628 C173.424002,1014.844 173.811998,1015.04 174.244,1015.216 C174.676002,1015.392 175.135998,1015.54 175.624,1015.66 C176.112002,1015.78 176.595998,1015.84 177.076,1015.84 C177.588003,1015.84 178.027998,1015.752 178.396,1015.576 C178.764002,1015.4 178.948,1015.104 178.948,1014.688 Z M185.116,1015.36 L189.34,1015.36 L189.34,1008.64 L185.116,1008.64 L185.116,1006 L192.46,1006 L192.46,1015.36 L196.9,1015.36 L196.9,1018 L185.116,1018 L185.116,1015.36 Z M188.764,1002.736 C188.764,1002.24 188.947998,1001.816 189.316,1001.464 C189.684002,1001.112 190.195997,1000.936 190.852,1000.936 C191.524003,1000.936 192.059998,1001.112 192.46,1001.464 C192.860002,1001.816 193.06,1002.24 193.06,1002.736 C193.06,1003.248 192.860002,1003.668 192.46,1003.996 C192.059998,1004.324 191.524003,1004.488 190.852,1004.488 C190.195997,1004.488 189.684002,1004.324 189.316,1003.996 C188.947998,1003.668 188.764,1003.248 188.764,1002.736 Z M205.444,1001.2 L210.46,1001.2 L210.46,1011.568 C210.46,1012.76801 210.523999,1013.95199 210.652,1015.12 C210.652,1015.2 210.66,1015.28 210.676,1015.36 L212.212,1015.36 L212.212,1018 L208.348,1018 L208.036,1016.464 L207.94,1016.464 C207.779999,1016.752 207.564001,1017.008 207.292,1017.232 C207.019999,1017.456 206.716002,1017.652 206.38,1017.82 C206.043998,1017.988 205.676002,1018.116 205.276,1018.204 C204.875998,1018.292 204.476002,1018.336 204.076,1018.336 C203.323996,1018.336 202.616003,1018.216 201.952,1017.976 C201.287997,1017.736 200.708002,1017.364 200.212,1016.86 C199.715998,1016.356 199.324001,1015.716 199.036,1014.94 C198.747999,1014.164 198.604,1013.24801 198.604,1012.192 C198.604,1011.16799 198.759998,1010.256 199.072,1009.456 C199.384002,1008.656 199.815997,1007.98 200.368,1007.428 C200.920003,1006.876 201.571996,1006.452 202.324,1006.156 C203.076004,1005.86 203.899996,1005.712 204.796,1005.712 C205.292002,1005.712 205.759998,1005.74 206.2,1005.796 C206.640002,1005.852 207.019998,1005.944 207.34,1006.072 L207.34,1003.84 L205.444,1003.84 L205.444,1001.2 Z M204.796,1015.696 C205.404003,1015.696 205.943998,1015.548 206.416,1015.252 C206.888002,1014.956 207.195999,1014.528 207.34,1013.968 L207.34,1008.88 C207.115999,1008.704 206.808002,1008.572 206.416,1008.484 C206.023998,1008.396 205.612002,1008.352 205.18,1008.352 C204.747998,1008.352 204.328002,1008.424 203.92,1008.568 C203.511998,1008.712 203.152002,1008.94 202.84,1009.252 C202.527998,1009.564 202.280001,1009.968 202.096,1010.464 C201.911999,1010.96 201.82,1011.568 201.82,1012.288 C201.82,1013.31201 202.075997,1014.136 202.588,1014.76 C203.100003,1015.384 203.835995,1015.696 204.796,1015.696 Z M225.316,1016.728 C225.107999,1016.92 224.840002,1017.108 224.512,1017.292 C224.183998,1017.476 223.800002,1017.648 223.36,1017.808 C222.919998,1017.968 222.436003,1018.096 221.908,1018.192 C221.379997,1018.288 220.820003,1018.336 220.228,1018.336 C219.203995,1018.336 218.288004,1018.192 217.48,1017.904 C216.671996,1017.616 215.988003,1017.196 215.428,1016.644 C214.867997,1016.092 214.440001,1015.428 214.144,1014.652 C213.847999,1013.876 213.7,1012.992 213.7,1012 C213.7,1010.94399 213.867998,1010.02 214.204,1009.228 C214.540002,1008.436 214.999997,1007.776 215.584,1007.248 C216.168003,1006.72 216.851996,1006.324 217.636,1006.06 C218.420004,1005.796 219.267995,1005.664 220.18,1005.664 C220.788003,1005.664 221.415997,1005.744 222.064,1005.904 C222.712003,1006.064 223.307997,1006.34 223.852,1006.732 C224.396003,1007.124 224.839998,1007.648 225.184,1008.304 C225.528002,1008.96 225.7,1009.79199 225.7,1010.8 C225.7,1011.488 225.620001,1012.232 225.46,1013.032 L216.82,1013.032 C216.836,1013.544 216.943999,1013.976 217.144,1014.328 C217.344001,1014.68 217.607998,1014.968 217.936,1015.192 C218.264002,1015.416 218.639998,1015.58 219.064,1015.684 C219.488002,1015.788 219.939998,1015.84 220.42,1015.84 C221.380005,1015.84 222.167997,1015.728 222.784,1015.504 C223.400003,1015.28 223.899998,1015.008 224.284,1014.688 L225.316,1016.728 Z M220.132,1008.16 C219.715998,1008.16 219.324002,1008.216 218.956,1008.328 C218.587998,1008.44 218.256001,1008.604 217.96,1008.82 C217.663999,1009.036 217.420001,1009.304 217.228,1009.624 C217.035999,1009.944 216.924,1010.304 216.892,1010.704 L222.796,1010.704 C222.796,1009.92 222.576002,1009.3 222.136,1008.844 C221.695998,1008.388 221.028004,1008.16 220.132,1008.16 Z M229.132,1017.52 L227.764,1015.36 L236.5,1010.2 L227.764,1004.92 L229.132,1002.76 L240.34,1009.72 L240.34,1010.92 L229.132,1017.52 Z" id="&lt;aside&gt;&lt;aside&gt;" fill="#4B4B4B"></path>
        </g>
    </g>
</svg>
