<svg viewBox="0 0 526 559" xmlns="http://www.w3.org/2000/svg" xmlns:xlink="http://www.w3.org/1999/xlink">
  <defs>
    <path id="e" d="M3 37h522v524H3z"/>
    <filter x="-.7%" y="-.5%" width="101.3%" height="101.3%" filterUnits="objectBoundingBox" id="d">
      <feOffset dy="1" in="SourceAlpha" result="shadowOffsetOuter1"/>
      <feGaussianBlur stdDeviation="1" in="shadowOffsetOuter1" result="shadowBlurOuter1"/>
      <feComposite in="shadowBlurOuter1" in2="SourceAlpha" operator="out" result="shadowBlurOuter1"/>
      <feColorMatrix values="0 0 0 0 0 0 0 0 0 0 0 0 0 0 0 0 0 0 0.5 0" in="shadowBlurOuter1"/>
    </filter>
    <path d="M0 0h490v80H0V0z" id="a"/>
    <mask id="f" x="0" y="0" width="490" height="80" fill="#fff">
      <use xlink:href="#a"/>
    </mask>
    <path d="M0 0h490v344H0V0z" id="b"/>
    <filter x="-.4%" y="-.3%" width="100.8%" height="101.2%" filterUnits="objectBoundingBox" id="g">
      <feOffset dy="1" in="SourceAlpha" result="shadowOffsetOuter1"/>
      <feGaussianBlur stdDeviation=".5" in="shadowOffsetOuter1" result="shadowBlurOuter1"/>
      <feComposite in="shadowBlurOuter1" in2="SourceAlpha" operator="out" result="shadowBlurOuter1"/>
      <feColorMatrix values="0 0 0 0 0 0 0 0 0 0 0 0 0 0 0 0 0 0 0.5 0" in="shadowBlurOuter1"/>
    </filter>
    <mask id="h" x="0" y="0" width="490" height="344" fill="#fff">
      <use xlink:href="#b"/>
    </mask>
    <path d="M0 0h490v62H0V0z" id="c"/>
    <filter x="-.4%" y="-1.6%" width="100.8%" height="106.5%" filterUnits="objectBoundingBox" id="i">
      <feOffset dy="1" in="SourceAlpha" result="shadowOffsetOuter1"/>
      <feGaussianBlur stdDeviation=".5" in="shadowOffsetOuter1" result="shadowBlurOuter1"/>
      <feComposite in="shadowBlurOuter1" in2="SourceAlpha" operator="out" result="shadowBlurOuter1"/>
      <feColorMatrix values="0 0 0 0 0 0 0 0 0 0 0 0 0 0 0 0 0 0 0.5 0" in="shadowBlurOuter1"/>
    </filter>
    <mask id="j" x="0" y="0" width="490" height="62" fill="#fff">
      <use xlink:href="#c"/>
    </mask>
  </defs>
  <g fill="none" fill-rule="evenodd">
    <g transform="translate(-1 -5)">
      <use fill="#000" filter="url(#d)" xlink:href="#e"/>
      <use fill-opacity=".30000001" fill="#EDEDED" xlink:href="#e"/>
      <path stroke="#D5D5D5" d="M3.5 37.5h521v523H3.5z"/>
    </g>
    <g transform="translate(17 464)" opacity=".14594656">
      <use stroke="#000" mask="url(#f)" stroke-width="4" fill-opacity=".1" fill="#BCBCBC" stroke-dasharray="4 4" xlink:href="#a"/>
      <path d="M20 47.752c0-.5120026.1879981-.9519982.564-1.32.3760019-.3680018.8279974-.552 1.356-.552.5120026 0 .9599981.1759982 1.344.528.3840019.3520018.576.7839974.576 1.296 0 .5120026-.1879981.9519982-.564 1.32-.3760019.3680018-.8279974.552-1.356.552-.2560013 0-.4999988-.0479995-.732-.144-.2320012-.0960005-.4359991-.2239992-.612-.384-.1760009-.1600008-.3159995-.3519989-.42-.576-.1040005-.2240011-.156-.4639987-.156-.72zm14.88-5.232c0-.3680018-.0519995-.7199983-.156-1.056-.1040005-.3360017-.2679989-.6319987-.492-.888s-.5079983-.4599992-.852-.612c-.3440017-.1520008-.7479977-.228-1.212-.228-.8640043 0-1.595997.2599974-2.196.78-.600003.5200026-.9319997 1.1879959-.996 2.004h5.904zm2.88 1.296v.384c0 .1280006-.0079999.2559994-.024.384h-8.76c.0320002.4160021.1399991.7959983.324 1.14.1840009.3440017.4279985.6399988.732.888.3040015.2480012.6479981.4439993 1.032.588.3840019.1440007.7839979.216 1.2.216.7200036 0 1.3279975-.1319987 1.824-.396.4960025-.2640013.9039984-.6279977 1.224-1.092l1.92 1.536c-1.1360057 1.5360077-2.7839892 2.304-4.944 2.304-.8960045 0-1.7199962-.1399986-2.472-.42-.7520038-.2800014-1.4039972-.6759974-1.956-1.188-.5520028-.5120026-.9839984-1.1399963-1.296-1.884-.3120016-.7440037-.468-1.5879953-.468-2.532 0-.9280046.1559984-1.7719962.468-2.532s.7399973-1.4079973 1.284-1.944c.5440027-.5360027 1.1879963-.9519985 1.932-1.248.7440037-.2960015 1.5479957-.444 2.412-.444.800004 0 1.5399966.1319987 2.22.396.6800034.2640013 1.2679975.6559974 1.764 1.176.4960025.5200026.8839986 1.1679961 1.164 1.944.2800014.7760039.42 1.6839948.42 2.724zm9.792 4.152h-.072c-.2880014.5120026-.7519968.9319984-1.392 1.26-.6400032.3280016-1.3679959.492-2.184.492-.4640023 0-.9479975-.0599994-1.452-.18-.5040025-.1200006-.9679979-.3199986-1.392-.6-.4240021-.2800014-.7759986-.6479977-1.056-1.104-.2800014-.4560023-.42-1.0199966-.42-1.692 0-.8640043.2439976-1.5519974.732-2.064.4880024-.5120026 1.1159962-.9039986 1.884-1.176.7680038-.2720014 1.6199953-.4519996 2.556-.54.9360047-.0880004 1.8519955-.132 2.748-.132v-.288c0-.7200036-.2599974-1.2519983-.78-1.596-.5200026-.3440017-1.1399964-.516-1.86-.516-.608003 0-1.1919972.1279987-1.752.384-.5600028.2560013-1.0239982.5679982-1.392.936L40.232 39.4c.6560033-.608003 1.4119957-1.0639985 2.268-1.368.8560043-.3040015 1.7239956-.456 2.604-.456 1.0240051 0 1.8679967.1439986 2.532.432.6640033.2880014 1.1879981.6639977 1.572 1.128.3840019.4640023.6519992.9839971.804 1.56.1520008.5760029.228 1.1519971.228 1.728v7.008h-2.688v-1.464zm-.048-3.792h-.648c-.4640023 0-.9519974.0199998-1.464.06s-.9839978.1279993-1.416.264c-.4320022.1360007-.7919986.3279988-1.08.576-.2880014.2480012-.432.5879978-.432 1.02 0 .2720014.0599994.4999991.18.684.1200006.1840009.275999.3319994.468.444.192001.1120006.4079988.1919998.648.24.2400012.0480002.4799988.072.72.072.992005 0 1.7439974-.2639974 2.256-.792.5120026-.5280026.768-1.2479954.768-2.16v-.408zm11.088.576h-5.76v-2.448h5.76v2.448zm10.56-3.648c-.2240011-.3200016-.5599978-.5879989-1.008-.804-.4480022-.2160011-.9039977-.324-1.368-.324-.5280026 0-.991998.1079989-1.392.324-.400002.2160011-.7319987.4999982-.996.852s-.4599994.7479978-.588 1.188c-.1280006.4400022-.192.8839978-.192 1.332 0 .4480022.0679993.8919978.204 1.332.1360007.4400022.3399986.8359982.612 1.188.2720014.3520018.611998.6359989 1.02.852.408002.2160011.8839973.324 1.428.324.4480022 0 .8959978-.0879991 1.344-.264.4480022-.1760009.8079986-.4319983 1.08-.768l1.8 1.824c-.4800024.5120026-1.0919963.9079986-1.836 1.188-.7440037.2800014-1.5479957.42-2.412.42-.8480042 0-1.6519962-.1359986-2.412-.408-.7600038-.2720014-1.4239972-.6719974-1.992-1.2-.5680028-.5280026-1.0159984-1.1679962-1.344-1.92-.3280016-.7520038-.492-1.6079952-.492-2.568 0-.9280046.1639984-1.7679962.492-2.52s.7719972-1.3919974 1.332-1.92 1.2119963-.9359986 1.956-1.224c.7440037-.2880014 1.5399958-.432 2.388-.432.8480042 0 1.667996.1599984 2.46.48.792004.3200016 1.4199977.7599972 1.884 1.32l-1.968 1.728zm10.992 6.864h-.072c-.2880014.5120026-.7519968.9319984-1.392 1.26-.6400032.3280016-1.3679959.492-2.184.492-.4640023 0-.9479975-.0599994-1.452-.18-.5040025-.1200006-.9679979-.3199986-1.392-.6-.4240021-.2800014-.7759986-.6479977-1.056-1.104-.2800014-.4560023-.42-1.0199966-.42-1.692 0-.8640043.2439976-1.5519974.732-2.064.4880024-.5120026 1.1159962-.9039986 1.884-1.176.7680038-.2720014 1.6199953-.4519996 2.556-.54.9360047-.0880004 1.8519955-.132 2.748-.132v-.288c0-.7200036-.2599974-1.2519983-.78-1.596-.5200026-.3440017-1.1399964-.516-1.86-.516-.608003 0-1.1919972.1279987-1.752.384-.5600028.2560013-1.0239982.5679982-1.392.936L72.824 39.4c.6560033-.608003 1.4119957-1.0639985 2.268-1.368.8560043-.3040015 1.7239956-.456 2.604-.456 1.0240051 0 1.8679967.1439986 2.532.432.6640033.2880014 1.1879981.6639977 1.572 1.128.3840019.4640023.6519992.9839971.804 1.56.1520008.5760029.228 1.1519971.228 1.728v7.008h-2.688v-1.464zm-.048-3.792h-.648c-.4640023 0-.9519974.0199998-1.464.06s-.9839978.1279993-1.416.264c-.4320022.1360007-.7919986.3279988-1.08.576-.2880014.2480012-.432.5879978-.432 1.02 0 .2720014.0599994.4999991.18.684.1200006.1840009.275999.3319994.468.444.192001.1120006.4079988.1919998.648.24.2400012.0480002.4799988.072.72.072.992005 0 1.7439974-.2639974 2.256-.792.5120026-.5280026.768-1.2479954.768-2.16v-.408zm6.096-6.264h2.76v1.92H89c.3200016-.6720034.7679971-1.2159979 1.344-1.632.5760029-.4160021 1.2479962-.624 2.016-.624.1120006 0 .2319994.004.36.012s.2399995.0279998.336.06v2.64c-.192001-.0480002-.3559993-.0799999-.492-.096-.1360007-.0160001-.2679994-.024-.396-.024-.6560033 0-1.183998.1199988-1.584.36-.400002.2400012-.7119989.5279983-.936.864-.2240011.3360017-.3759996.6799982-.456 1.032-.0800004.3520018-.12.631999-.12.84v6.168h-2.88v-11.52zm20.016 11.52h-2.736v-1.728h-.048c-.400002.6720034-.955996 1.1839982-1.668 1.536-.712004.3520018-1.475996.528-2.292.528-.8800044 0-1.6679965-.1639984-2.364-.492-.6960035-.3280016-1.2879976-.7679972-1.776-1.32-.4880024-.5520028-.8639987-1.1999963-1.128-1.944-.2640013-.7440037-.396-1.5399958-.396-2.388 0-.8480042.1359986-1.6399963.408-2.376.2720014-.7360037.6559975-1.3759973 1.152-1.92.4960025-.5440027 1.0879966-.9719984 1.776-1.284.6880034-.3120016 1.4399959-.468 2.256-.468.5280026 0 .999998.0599994 1.416.18.416002.1200006.779998.2679991 1.092.444.312002.1760009.579999.367999.804.576.224001.208001.407999.407999.552.6h.072v-8.088h2.88v18.144zm-9.48-5.808c0 .4480022.0679993.8959978.204 1.344.1360007.4480022.3399986.8479982.612 1.2.2720014.3520018.6159979.6399989 1.032.864.4160021.2240011.9039972.336 1.464.336.528003 0 .999998-.1079989 1.416-.324.416002-.2160011.771999-.4999982 1.068-.852.296001-.3520018.519999-.7479978.672-1.188.152001-.4400022.228-.8839978.228-1.332 0-.4480022-.075999-.8959978-.228-1.344-.152001-.4480022-.375999-.8479982-.672-1.2-.296001-.3520018-.651998-.6399989-1.068-.864-.416002-.2240011-.887997-.336-1.416-.336-.5600028 0-1.0479979.1079989-1.464.324-.4160021.2160011-.7599986.4999982-1.032.852-.2720014.3520018-.4759993.7479978-.612 1.188-.1360007.4400022-.204.8839978-.204 1.332zm17.976 1.128h-5.76v-2.448h5.76v2.448zm3.144-4.536h-2.184v-2.304h2.184v-1.704c0-.6880034.075999-1.3479968.228-1.98s.407998-1.1879976.768-1.668c.360002-.4800024.835997-.8599986 1.428-1.14.592003-.2800014 1.335996-.42 2.232-.42.320002 0 .587999.0119999.804.036.216001.0240001.435999.0679997.66.132l-.192 2.448c-.160001-.0480002-.331999-.0879998-.516-.12-.184001-.0320002-.379999-.048-.588-.048-.416002 0-.751999.0799992-1.008.24-.256001.1600008-.451999.3679987-.588.624-.136001.2560013-.228.5359985-.276.84-.048.3040015-.072.5999986-.072.888v1.872h2.664v2.304h-2.664v9.216h-2.88v-9.216zm6.648 3.408c0-.9120046.163998-1.7399963.492-2.484.328002-.7440037.771997-1.3799974 1.332-1.908s1.223996-.9359986 1.992-1.224c.768004-.2880014 1.583996-.432 2.448-.432s1.679996.1439986 2.448.432c.768004.2880014 1.431997.6959974 1.992 1.224s1.003998 1.1639963 1.332 1.908c.328002.7440037.492 1.5719954.492 2.484 0 .9120046-.163998 1.7439962-.492 2.496s-.771997 1.3959973-1.332 1.932c-.560003.5360027-1.223996.9559985-1.992 1.26-.768004.3040015-1.583996.456-2.448.456s-1.679996-.1519985-2.448-.456c-.768004-.3040015-1.431997-.7239973-1.992-1.26s-1.003998-1.1799962-1.332-1.932c-.328002-.7520038-.492-1.5839954-.492-2.496zm2.928 0c0 .4480022.067999.8959978.204 1.344.136001.4480022.339999.8479982.612 1.2.272001.3520018.615998.6399989 1.032.864.416002.2240011.911997.336 1.488.336s1.071998-.1119989 1.488-.336.759999-.5119982 1.032-.864c.272001-.3520018.475999-.7519978.612-1.2.136001-.4480022.204-.8959978.204-1.344 0-.4480022-.067999-.8919978-.204-1.332-.136001-.4400022-.339999-.8359982-.612-1.188-.272001-.3520018-.615998-.6359989-1.032-.852-.416002-.2160011-.911997-.324-1.488-.324s-1.071998.1079989-1.488.324-.759999.4999982-1.032.852c-.272001.3520018-.475999.7479978-.612 1.188-.136001.4400022-.204.8839978-.204 1.332zm11.712 0c0-.9120046.163998-1.7399963.492-2.484.328002-.7440037.771997-1.3799974 1.332-1.908s1.223996-.9359986 1.992-1.224c.768004-.2880014 1.583996-.432 2.448-.432s1.679996.1439986 2.448.432c.768004.2880014 1.431997.6959974 1.992 1.224s1.003998 1.1639963 1.332 1.908c.328002.7440037.492 1.5719954.492 2.484 0 .9120046-.163998 1.7439962-.492 2.496s-.771997 1.3959973-1.332 1.932c-.560003.5360027-1.223996.9559985-1.992 1.26-.768004.3040015-1.583996.456-2.448.456s-1.679996-.1519985-2.448-.456c-.768004-.3040015-1.431997-.7239973-1.992-1.26s-1.003998-1.1799962-1.332-1.932c-.328002-.7520038-.492-1.5839954-.492-2.496zm2.928 0c0 .4480022.067999.8959978.204 1.344.136001.4480022.339999.8479982.612 1.2.272001.3520018.615998.6399989 1.032.864.416002.2240011.911997.336 1.488.336s1.071998-.1119989 1.488-.336.759999-.5119982 1.032-.864c.272001-.3520018.475999-.7519978.612-1.2.136001-.4480022.204-.8959978.204-1.344 0-.4480022-.067999-.8919978-.204-1.332-.136001-.4400022-.339999-.8359982-.612-1.188-.272001-.3520018-.615998-.6359989-1.032-.852-.416002-.2160011-.911997-.324-1.488-.324s-1.071998.1079989-1.488.324-.759999.4999982-1.032.852c-.272001.3520018-.475999.7479978-.612 1.188-.136001.4400022-.204.8839978-.204 1.332zm10.728-3.408v-2.304h2.016v-3.336h2.832v3.336h2.88v2.304h-2.88v5.352c0 .5120026.091999.9359983.276 1.272.184001.3360017.595997.504 1.236.504.192001 0 .399999-.0199998.624-.06s.423999-.0999996.6-.18l.096 2.256c-.256001.0960005-.559998.1719997-.912.228-.352002.0560003-.687998.084-1.008.084-.768004 0-1.391998-.1079989-1.872-.324-.480002-.2160011-.859999-.5119981-1.14-.888-.280001-.3760019-.471999-.8079976-.576-1.296-.104001-.4880024-.156-1.0119972-.156-1.572v-5.376h-2.016zm17.928 2.304c0-.3680018-.051999-.7199983-.156-1.056-.104001-.3360017-.267999-.6319987-.492-.888s-.507998-.4599992-.852-.612c-.344002-.1520008-.747998-.228-1.212-.228-.864004 0-1.595997.2599974-2.196.78-.600003.5200026-.932 1.1879959-.996 2.004h5.904zm2.88 1.296v.384c0 .1280006-.008.2559994-.024.384h-8.76c.032.4160021.139999.7959983.324 1.14.184001.3440017.427998.6399988.732.888.304002.2480012.647998.4439993 1.032.588.384002.1440007.783998.216 1.2.216.720004 0 1.327998-.1319987 1.824-.396.496002-.2640013.903998-.6279977 1.224-1.092l1.92 1.536c-1.136006 1.5360077-2.783989 2.304-4.944 2.304-.896004 0-1.719996-.1399986-2.472-.42-.752004-.2800014-1.403997-.6759974-1.956-1.188s-.983998-1.1399963-1.296-1.884c-.312002-.7440037-.468-1.5879953-.468-2.532 0-.9280046.155998-1.7719962.468-2.532s.739997-1.4079973 1.284-1.944 1.187996-.9519985 1.932-1.248c.744004-.2960015 1.547996-.444 2.412-.444.800004 0 1.539997.1319987 2.22.396.680003.2640013 1.267998.6559974 1.764 1.176.496002.5200026.883999 1.1679961 1.164 1.944.280001.7760039.42 1.6839948.42 2.724zm2.784-5.904h2.76v1.92h.048c.320002-.6720034.767997-1.2159979 1.344-1.632.576003-.4160021 1.247996-.624 2.016-.624.112001 0 .231999.004.36.012.128001.008.24.0279998.336.06v2.64c-.192001-.0480002-.355999-.0799999-.492-.096-.136001-.0160001-.267999-.024-.396-.024-.656003 0-1.183998.1199988-1.584.36-.400002.2400012-.711999.5279983-.936.864-.224001.3360017-.376.6799982-.456 1.032-.08.3520018-.12.631999-.12.84v6.168h-2.88v-11.52z" fill="#000"/>
    </g>
    <g opacity=".15">
      <g stroke-dasharray="4 4" transform="translate(17 115)">
        <use fill="#000" filter="url(#g)" xlink:href="#b"/>
        <use stroke="#000" mask="url(#h)" stroke-width="4" fill-opacity=".20000002" fill="#BCBCBC" xlink:href="#b"/>
      </g>
      <path d="M37 141.464c0-.5120026.1879981-.9519982.564-1.32.3760019-.3680018.8279974-.552 1.356-.552.5120026 0 .9599981.1759982 1.344.528.3840019.3520018.576.7839974.576 1.296 0 .5120026-.1879981.9519982-.564 1.32-.3760019.3680018-.8279974.552-1.356.552-.2560013 0-.4999988-.0479995-.732-.144-.2320012-.0960005-.4359991-.2239992-.612-.384-.1760009-.1600008-.3159995-.3519989-.42-.576-.1040005-.2240011-.156-.4639987-.156-.72zm14.88-5.232c0-.3680018-.0519995-.7199983-.156-1.056-.1040005-.3360017-.2679989-.6319987-.492-.888s-.5079983-.4599992-.852-.612c-.3440017-.1520008-.7479977-.228-1.212-.228-.8640043 0-1.595997.2599974-2.196.78-.600003.5200026-.9319997 1.1879959-.996 2.004h5.904zm2.88 1.296v.384c0 .1280006-.0079999.2559994-.024.384h-8.76c.0320002.4160021.1399991.7959983.324 1.14.1840009.3440017.4279985.6399988.732.888.3040015.2480012.6479981.4439993 1.032.588.3840019.1440007.7839979.216 1.2.216.7200036 0 1.3279975-.1319987 1.824-.396.4960025-.2640013.9039984-.6279977 1.224-1.092l1.92 1.536c-1.1360057 1.5360077-2.7839892 2.304-4.944 2.304-.8960045 0-1.7199962-.1399986-2.472-.42-.7520038-.2800014-1.4039972-.6759974-1.956-1.188-.5520028-.5120026-.9839984-1.1399963-1.296-1.884-.3120016-.7440037-.468-1.5879953-.468-2.532 0-.9280046.1559984-1.7719962.468-2.532s.7399973-1.4079973 1.284-1.944c.5440027-.5360027 1.1879963-.9519985 1.932-1.248.7440037-.2960015 1.5479957-.444 2.412-.444.800004 0 1.5399966.1319987 2.22.396.6800034.2640013 1.2679975.6559974 1.764 1.176.4960025.5200026.8839986 1.1679961 1.164 1.944.2800014.7760039.42 1.6839948.42 2.724zm9.792 4.152h-.072c-.2880014.5120026-.7519968.9319984-1.392 1.26-.6400032.3280016-1.3679959.492-2.184.492-.4640023 0-.9479975-.0599994-1.452-.18-.5040025-.1200006-.9679979-.3199986-1.392-.6-.4240021-.2800014-.7759986-.6479977-1.056-1.104-.2800014-.4560023-.42-1.0199966-.42-1.692 0-.8640043.2439976-1.5519974.732-2.064.4880024-.5120026 1.1159962-.9039986 1.884-1.176.7680038-.2720014 1.6199953-.4519996 2.556-.54.9360047-.0880004 1.8519955-.132 2.748-.132v-.288c0-.7200036-.2599974-1.2519983-.78-1.596-.5200026-.3440017-1.1399964-.516-1.86-.516-.608003 0-1.1919972.1279987-1.752.384-.5600028.2560013-1.0239982.5679982-1.392.936l-1.488-1.752c.6560033-.608003 1.4119957-1.0639985 2.268-1.368.8560043-.3040015 1.7239956-.456 2.604-.456 1.0240051 0 1.8679967.1439986 2.532.432.6640033.2880014 1.1879981.6639977 1.572 1.128.3840019.4640023.6519992.9839971.804 1.56.1520008.5760029.228 1.1519971.228 1.728v7.008h-2.688v-1.464zm-.048-3.792h-.648c-.4640023 0-.9519974.0199998-1.464.06s-.9839978.1279993-1.416.264c-.4320022.1360007-.7919986.3279988-1.08.576-.2880014.2480012-.432.5879978-.432 1.02 0 .2720014.0599994.4999991.18.684.1200006.1840009.275999.3319994.468.444.192001.1120006.4079988.1919998.648.24.2400012.0480002.4799988.072.72.072.992005 0 1.7439974-.2639974 2.256-.792.5120026-.5280026.768-1.2479954.768-2.16v-.408zm11.088.576h-5.76v-2.448h5.76v2.448zm10.56-3.648c-.2240011-.3200016-.5599978-.5879989-1.008-.804-.4480022-.2160011-.9039977-.324-1.368-.324-.5280026 0-.991998.1079989-1.392.324-.400002.2160011-.7319987.4999982-.996.852s-.4599994.7479978-.588 1.188c-.1280006.4400022-.192.8839978-.192 1.332 0 .4480022.0679993.8919978.204 1.332.1360007.4400022.3399986.8359982.612 1.188.2720014.3520018.611998.6359989 1.02.852.408002.2160011.8839973.324 1.428.324.4480022 0 .8959978-.0879991 1.344-.264.4480022-.1760009.8079986-.4319983 1.08-.768l1.8 1.824c-.4800024.5120026-1.0919963.9079986-1.836 1.188-.7440037.2800014-1.5479957.42-2.412.42-.8480042 0-1.6519962-.1359986-2.412-.408-.7600038-.2720014-1.4239972-.6719974-1.992-1.2-.5680028-.5280026-1.0159984-1.1679962-1.344-1.92-.3280016-.7520038-.492-1.6079952-.492-2.568 0-.9280046.1639984-1.7679962.492-2.52s.7719972-1.3919974 1.332-1.92 1.2119963-.9359986 1.956-1.224c.7440037-.2880014 1.5399958-.432 2.388-.432.8480042 0 1.667996.1599984 2.46.48.792004.3200016 1.4199977.7599972 1.884 1.32l-1.968 1.728zm10.992 6.864h-.072c-.2880014.5120026-.7519968.9319984-1.392 1.26-.6400032.3280016-1.3679959.492-2.184.492-.4640023 0-.9479975-.0599994-1.452-.18-.5040025-.1200006-.9679979-.3199986-1.392-.6-.4240021-.2800014-.7759986-.6479977-1.056-1.104-.2800014-.4560023-.42-1.0199966-.42-1.692 0-.8640043.2439976-1.5519974.732-2.064.4880024-.5120026 1.1159962-.9039986 1.884-1.176.7680038-.2720014 1.6199953-.4519996 2.556-.54.9360047-.0880004 1.8519955-.132 2.748-.132v-.288c0-.7200036-.2599974-1.2519983-.78-1.596-.5200026-.3440017-1.1399964-.516-1.86-.516-.608003 0-1.1919972.1279987-1.752.384-.5600028.2560013-1.0239982.5679982-1.392.936l-1.488-1.752c.6560033-.608003 1.4119957-1.0639985 2.268-1.368.8560043-.3040015 1.7239956-.456 2.604-.456 1.0240051 0 1.8679967.1439986 2.532.432.6640033.2880014 1.1879981.6639977 1.572 1.128.3840019.4640023.6519992.9839971.804 1.56.1520008.5760029.228 1.1519971.228 1.728v7.008h-2.688v-1.464zm-.048-3.792h-.648c-.4640023 0-.9519974.0199998-1.464.06s-.9839978.1279993-1.416.264c-.4320022.1360007-.7919986.3279988-1.08.576-.2880014.2480012-.432.5879978-.432 1.02 0 .2720014.0599994.4999991.18.684.1200006.1840009.275999.3319994.468.444.192001.1120006.4079988.1919998.648.24.2400012.0480002.4799988.072.72.072.992005 0 1.7439974-.2639974 2.256-.792.5120026-.5280026.768-1.2479954.768-2.16v-.408zm6.096-6.264h2.76v1.92H106c.3200016-.6720034.7679971-1.2159979 1.344-1.632.5760029-.4160021 1.2479962-.624 2.016-.624.1120006 0 .2319994.004.36.012s.2399995.0279998.336.06V134c-.192001-.0480002-.3559993-.0799999-.492-.096-.1360007-.0160001-.2679994-.024-.396-.024-.6560033 0-1.183998.1199988-1.584.36-.400002.2400012-.7119989.5279983-.936.864-.2240011.3360017-.3759996.6799982-.456 1.032-.0800004.3520018-.12.631999-.12.84v6.168h-2.88v-11.52zm20.016 11.52h-2.736v-1.728h-.048c-.400002.6720034-.955996 1.1839982-1.668 1.536-.712004.3520018-1.475996.528-2.292.528-.8800044 0-1.6679965-.1639984-2.364-.492-.6960035-.3280016-1.2879976-.7679972-1.776-1.32-.4880024-.5520028-.8639987-1.1999963-1.128-1.944-.2640013-.7440037-.396-1.5399958-.396-2.388 0-.8480042.1359986-1.6399963.408-2.376.2720014-.7360037.6559975-1.3759973 1.152-1.92.4960025-.5440027 1.0879966-.9719984 1.776-1.284.6880034-.3120016 1.4399959-.468 2.256-.468.5280026 0 .999998.0599994 1.416.18.416002.1200006.779998.2679991 1.092.444.312002.1760009.579999.367999.804.576.224001.208001.407999.407999.552.6h.072V125h2.88v18.144zm-9.48-5.808c0 .4480022.0679993.8959978.204 1.344.1360007.4480022.3399986.8479982.612 1.2.2720014.3520018.6159979.6399989 1.032.864.4160021.2240011.9039972.336 1.464.336.528003 0 .999998-.1079989 1.416-.324.416002-.2160011.771999-.4999982 1.068-.852.296001-.3520018.519999-.7479978.672-1.188.152001-.4400022.228-.8839978.228-1.332 0-.4480022-.075999-.8959978-.228-1.344-.152001-.4480022-.375999-.8479982-.672-1.2-.296001-.3520018-.651998-.6399989-1.068-.864-.416002-.2240011-.887997-.336-1.416-.336-.5600028 0-1.0479979.1079989-1.464.324-.4160021.2160011-.7599986.4999982-1.032.852-.2720014.3520018-.4759993.7479978-.612 1.188-.1360007.4400022-.204.8839978-.204 1.332zm17.976 1.128h-5.76v-2.448h5.76v2.448zm10.56-3.648c-.224001-.3200016-.559998-.5879989-1.008-.804-.448002-.2160011-.903998-.324-1.368-.324-.528003 0-.991998.1079989-1.392.324-.400002.2160011-.731999.4999982-.996.852-.264001.3520018-.459999.7479978-.588 1.188-.128001.4400022-.192.8839978-.192 1.332 0 .4480022.067999.8919978.204 1.332.136001.4400022.339999.8359982.612 1.188.272001.3520018.611998.6359989 1.02.852.408002.2160011.883997.324 1.428.324.448002 0 .895998-.0879991 1.344-.264.448002-.1760009.807999-.4319983 1.08-.768l1.8 1.824c-.480002.5120026-1.091996.9079986-1.836 1.188-.744004.2800014-1.547996.42-2.412.42-.848004 0-1.651996-.1359986-2.412-.408-.760004-.2720014-1.423997-.6719974-1.992-1.2s-1.015998-1.1679962-1.344-1.92c-.328002-.7520038-.492-1.6079952-.492-2.568 0-.9280046.163998-1.7679962.492-2.52s.771997-1.3919974 1.332-1.92 1.211996-.9359986 1.956-1.224c.744004-.2880014 1.539996-.432 2.388-.432s1.667996.1599984 2.46.48c.792004.3200016 1.419998.7599972 1.884 1.32l-1.968 1.728zm3.168 2.52c0-.9120046.163998-1.7399963.492-2.484.328002-.7440037.771997-1.3799974 1.332-1.908s1.223996-.9359986 1.992-1.224c.768004-.2880014 1.583996-.432 2.448-.432s1.679996.1439986 2.448.432c.768004.2880014 1.431997.6959974 1.992 1.224s1.003998 1.1639963 1.332 1.908c.328002.7440037.492 1.5719954.492 2.484 0 .9120046-.163998 1.7439962-.492 2.496s-.771997 1.3959973-1.332 1.932c-.560003.5360027-1.223996.9559985-1.992 1.26-.768004.3040015-1.583996.456-2.448.456s-1.679996-.1519985-2.448-.456c-.768004-.3040015-1.431997-.7239973-1.992-1.26s-1.003998-1.1799962-1.332-1.932c-.328002-.7520038-.492-1.5839954-.492-2.496zm2.928 0c0 .4480022.067999.8959978.204 1.344.136001.4480022.339999.8479982.612 1.2.272001.3520018.615998.6399989 1.032.864.416002.2240011.911997.336 1.488.336s1.071998-.1119989 1.488-.336.759999-.5119982 1.032-.864c.272001-.3520018.475999-.7519978.612-1.2.136001-.4480022.204-.8959978.204-1.344 0-.4480022-.067999-.8919978-.204-1.332-.136001-.4400022-.339999-.8359982-.612-1.188-.272001-.3520018-.615998-.6359989-1.032-.852-.416002-.2160011-.911997-.324-1.488-.324s-1.071998.1079989-1.488.324-.759999.4999982-1.032.852c-.272001.3520018-.475999.7479978-.612 1.188-.136001.4400022-.204.8839978-.204 1.332zm12.384-5.712h2.736v1.848h.048c.256001-.5760029.699997-1.0839978 1.332-1.524.632003-.4400022 1.379996-.66 2.244-.66.752004 0 1.395997.1319987 1.932.396s.975998.6119978 1.32 1.044c.344002.4320022.595999.9279972.756 1.488.160001.5600028.24 1.135997.24 1.728v7.2h-2.88v-6.384c0-.3360017-.024-.6879982-.072-1.056-.048-.3680018-.151999-.6999985-.312-.996-.160001-.2960015-.379999-.539999-.66-.732-.280001-.192001-.651998-.288-1.116-.288-.464002 0-.863998.0919991-1.2.276-.336002.1840009-.611999.4199986-.828.708-.216001.2880014-.379999.6199981-.492.996-.112001.3760019-.168.7559981-.168 1.14v6.336h-2.88v-11.52zm12.312 2.304v-2.304h2.016v-3.336h2.832v3.336h2.88v2.304h-2.88v5.352c0 .5120026.091999.9359983.276 1.272.184001.3360017.595997.504 1.236.504.192001 0 .399999-.0199998.624-.06s.423999-.0999996.6-.18l.096 2.256c-.256001.0960005-.559998.1719997-.912.228-.352002.0560003-.687998.084-1.008.084-.768004 0-1.391998-.1079989-1.872-.324-.480002-.2160011-.859999-.5119981-1.14-.888-.280001-.3760019-.471999-.8079976-.576-1.296-.104001-.4880024-.156-1.0119972-.156-1.572v-5.376h-2.016zm17.928 2.304c0-.3680018-.051999-.7199983-.156-1.056-.104001-.3360017-.267999-.6319987-.492-.888s-.507998-.4599992-.852-.612c-.344002-.1520008-.747998-.228-1.212-.228-.864004 0-1.595997.2599974-2.196.78-.600003.5200026-.932 1.1879959-.996 2.004h5.904zm2.88 1.296v.384c0 .1280006-.008.2559994-.024.384h-8.76c.032.4160021.139999.7959983.324 1.14.184001.3440017.427998.6399988.732.888.304002.2480012.647998.4439993 1.032.588.384002.1440007.783998.216 1.2.216.720004 0 1.327998-.1319987 1.824-.396.496002-.2640013.903998-.6279977 1.224-1.092l1.92 1.536c-1.136006 1.5360077-2.783989 2.304-4.944 2.304-.896004 0-1.719996-.1399986-2.472-.42-.752004-.2800014-1.403997-.6759974-1.956-1.188s-.983998-1.1399963-1.296-1.884c-.312002-.7440037-.468-1.5879953-.468-2.532 0-.9280046.155998-1.7719962.468-2.532s.739997-1.4079973 1.284-1.944 1.187996-.9519985 1.932-1.248c.744004-.2960015 1.547996-.444 2.412-.444.800004 0 1.539997.1319987 2.22.396.680003.2640013 1.267998.6559974 1.764 1.176.496002.5200026.883999 1.1679961 1.164 1.944.280001.7760039.42 1.6839948.42 2.724zm2.784-5.904h2.736v1.848h.048c.256001-.5760029.699997-1.0839978 1.332-1.524.632003-.4400022 1.379996-.66 2.244-.66.752004 0 1.395997.1319987 1.932.396s.975998.6119978 1.32 1.044c.344002.4320022.595999.9279972.756 1.488.160001.5600028.24 1.135997.24 1.728v7.2h-2.88v-6.384c0-.3360017-.024-.6879982-.072-1.056-.048-.3680018-.151999-.6999985-.312-.996-.160001-.2960015-.379999-.539999-.66-.732-.280001-.192001-.651998-.288-1.116-.288-.464002 0-.863998.0919991-1.2.276-.336002.1840009-.611999.4199986-.828.708-.216001.2880014-.379999.6199981-.492.996-.112001.3760019-.168.7559981-.168 1.14v6.336h-2.88v-11.52zm12.312 2.304v-2.304h2.016v-3.336h2.832v3.336h2.88v2.304h-2.88v5.352c0 .5120026.091999.9359983.276 1.272.184001.3360017.595997.504 1.236.504.192001 0 .399999-.0199998.624-.06s.423999-.0999996.6-.18l.096 2.256c-.256001.0960005-.559998.1719997-.912.228-.352002.0560003-.687998.084-1.008.084-.768004 0-1.391998-.1079989-1.872-.324-.480002-.2160011-.859999-.5119981-1.14-.888-.280001-.3760019-.471999-.8079976-.576-1.296-.104001-.4880024-.156-1.0119972-.156-1.572v-5.376h-2.016z" fill="#000"/>
    </g>
    <g stroke-dasharray="4 4" transform="translate(17 49)">
      <use fill="#000" filter="url(#i)" xlink:href="#c"/>
      <use stroke="#000" mask="url(#j)" stroke-width="4" fill-opacity=".1" fill="#BCBCBC" xlink:href="#c"/>
    </g>
    <path d="M37 87.464c0-.5120026.1879981-.9519982.564-1.32.3760019-.3680018.8279974-.552 1.356-.552.5120026 0 .9599981.1759982 1.344.528.3840019.3520018.576.7839974.576 1.296 0 .5120026-.1879981.9519982-.564 1.32-.3760019.3680018-.8279974.552-1.356.552-.2560013 0-.4999988-.0479995-.732-.144-.2320012-.0960005-.4359991-.2239992-.612-.384-.1760009-.1600008-.3159995-.3519989-.42-.576-.1040005-.2240011-.156-.4639987-.156-.72zm14.88-5.232c0-.3680018-.0519995-.7199983-.156-1.056-.1040005-.3360017-.2679989-.6319987-.492-.888s-.5079983-.4599992-.852-.612c-.3440017-.1520008-.7479977-.228-1.212-.228-.8640043 0-1.595997.2599974-2.196.78-.600003.5200026-.9319997 1.1879959-.996 2.004h5.904zm2.88 1.296v.384c0 .1280006-.0079999.2559994-.024.384h-8.76c.0320002.4160021.1399991.7959983.324 1.14.1840009.3440017.4279985.6399988.732.888.3040015.2480012.6479981.4439993 1.032.588.3840019.1440007.7839979.216 1.2.216.7200036 0 1.3279975-.1319987 1.824-.396.4960025-.2640013.9039984-.6279977 1.224-1.092l1.92 1.536c-1.1360057 1.5360077-2.7839892 2.304-4.944 2.304-.8960045 0-1.7199962-.1399986-2.472-.42-.7520038-.2800014-1.4039972-.6759974-1.956-1.188-.5520028-.5120026-.9839984-1.1399963-1.296-1.884-.3120016-.7440037-.468-1.5879953-.468-2.532 0-.9280046.1559984-1.7719962.468-2.532s.7399973-1.4079973 1.284-1.944c.5440027-.5360027 1.1879963-.9519985 1.932-1.248.7440037-.2960015 1.5479957-.444 2.412-.444.800004 0 1.5399966.1319987 2.22.396.6800034.2640013 1.2679975.6559974 1.764 1.176.4960025.5200026.8839986 1.1679961 1.164 1.944.2800014.7760039.42 1.6839948.42 2.724zm9.792 4.152h-.072c-.2880014.5120026-.7519968.9319984-1.392 1.26-.6400032.3280016-1.3679959.492-2.184.492-.4640023 0-.9479975-.0599994-1.452-.18-.5040025-.1200006-.9679979-.3199986-1.392-.6-.4240021-.2800014-.7759986-.6479977-1.056-1.104-.2800014-.4560023-.42-1.0199966-.42-1.692 0-.8640043.2439976-1.5519974.732-2.064.4880024-.5120026 1.1159962-.9039986 1.884-1.176.7680038-.2720014 1.6199953-.4519996 2.556-.54.9360047-.0880004 1.8519955-.132 2.748-.132v-.288c0-.7200036-.2599974-1.2519983-.78-1.596-.5200026-.3440017-1.1399964-.516-1.86-.516-.608003 0-1.1919972.1279987-1.752.384-.5600028.2560013-1.0239982.5679982-1.392.936l-1.488-1.752c.6560033-.608003 1.4119957-1.0639985 2.268-1.368.8560043-.3040015 1.7239956-.456 2.604-.456 1.0240051 0 1.8679967.1439986 2.532.432.6640033.2880014 1.1879981.6639977 1.572 1.128.3840019.4640023.6519992.9839971.804 1.56.1520008.5760029.228 1.1519971.228 1.728v7.008h-2.688V87.68zm-.048-3.792h-.648c-.4640023 0-.9519974.0199998-1.464.06s-.9839978.1279993-1.416.264c-.4320022.1360007-.7919986.3279988-1.08.576-.2880014.2480012-.432.5879978-.432 1.02 0 .2720014.0599994.4999991.18.684.1200006.1840009.275999.3319994.468.444.192001.1120006.4079988.1919998.648.24.2400012.0480002.4799988.072.72.072.992005 0 1.7439974-.2639974 2.256-.792.5120026-.5280026.768-1.2479954.768-2.16v-.408zm11.088.576h-5.76v-2.448h5.76v2.448zm10.56-3.648c-.2240011-.3200016-.5599978-.5879989-1.008-.804-.4480022-.2160011-.9039977-.324-1.368-.324-.5280026 0-.991998.1079989-1.392.324-.400002.2160011-.7319987.4999982-.996.852s-.4599994.7479978-.588 1.188c-.1280006.4400022-.192.8839978-.192 1.332 0 .4480022.0679993.8919978.204 1.332.1360007.4400022.3399986.8359982.612 1.188.2720014.3520018.611998.6359989 1.02.852.408002.2160011.8839973.324 1.428.324.4480022 0 .8959978-.0879991 1.344-.264.4480022-.1760009.8079986-.4319983 1.08-.768l1.8 1.824c-.4800024.5120026-1.0919963.9079986-1.836 1.188-.7440037.2800014-1.5479957.42-2.412.42-.8480042 0-1.6519962-.1359986-2.412-.408-.7600038-.2720014-1.4239972-.6719974-1.992-1.2-.5680028-.5280026-1.0159984-1.1679962-1.344-1.92-.3280016-.7520038-.492-1.6079952-.492-2.568 0-.9280046.1639984-1.7679962.492-2.52s.7719972-1.3919974 1.332-1.92 1.2119963-.9359986 1.956-1.224c.7440037-.2880014 1.5399958-.432 2.388-.432.8480042 0 1.667996.1599984 2.46.48.792004.3200016 1.4199977.7599972 1.884 1.32l-1.968 1.728zm10.992 6.864h-.072c-.2880014.5120026-.7519968.9319984-1.392 1.26-.6400032.3280016-1.3679959.492-2.184.492-.4640023 0-.9479975-.0599994-1.452-.18-.5040025-.1200006-.9679979-.3199986-1.392-.6-.4240021-.2800014-.7759986-.6479977-1.056-1.104-.2800014-.4560023-.42-1.0199966-.42-1.692 0-.8640043.2439976-1.5519974.732-2.064.4880024-.5120026 1.1159962-.9039986 1.884-1.176.7680038-.2720014 1.6199953-.4519996 2.556-.54.9360047-.0880004 1.8519955-.132 2.748-.132v-.288c0-.7200036-.2599974-1.2519983-.78-1.596-.5200026-.3440017-1.1399964-.516-1.86-.516-.608003 0-1.1919972.1279987-1.752.384-.5600028.2560013-1.0239982.5679982-1.392.936l-1.488-1.752c.6560033-.608003 1.4119957-1.0639985 2.268-1.368.8560043-.3040015 1.7239956-.456 2.604-.456 1.0240051 0 1.8679967.1439986 2.532.432.6640033.2880014 1.1879981.6639977 1.572 1.128.3840019.4640023.6519992.9839971.804 1.56.1520008.5760029.228 1.1519971.228 1.728v7.008h-2.688V87.68zm-.048-3.792h-.648c-.4640023 0-.9519974.0199998-1.464.06s-.9839978.1279993-1.416.264c-.4320022.1360007-.7919986.3279988-1.08.576-.2880014.2480012-.432.5879978-.432 1.02 0 .2720014.0599994.4999991.18.684.1200006.1840009.275999.3319994.468.444.192001.1120006.4079988.1919998.648.24.2400012.0480002.4799988.072.72.072.992005 0 1.7439974-.2639974 2.256-.792.5120026-.5280026.768-1.2479954.768-2.16v-.408zm6.096-6.264h2.76v1.92H106c.3200016-.6720034.7679971-1.2159979 1.344-1.632.5760029-.4160021 1.2479962-.624 2.016-.624.1120006 0 .2319994.004.36.012s.2399995.0279998.336.06V80c-.192001-.0480002-.3559993-.0799999-.492-.096-.1360007-.0160001-.2679994-.024-.396-.024-.6560033 0-1.183998.1199988-1.584.36-.400002.2400012-.7119989.5279983-.936.864-.2240011.3360017-.3759996.6799982-.456 1.032-.0800004.3520018-.12.631999-.12.84v6.168h-2.88v-11.52zm20.016 11.52h-2.736v-1.728h-.048c-.400002.6720034-.955996 1.1839982-1.668 1.536-.712004.3520018-1.475996.528-2.292.528-.8800044 0-1.6679965-.1639984-2.364-.492-.6960035-.3280016-1.2879976-.7679972-1.776-1.32-.4880024-.5520028-.8639987-1.1999963-1.128-1.944-.2640013-.7440037-.396-1.5399958-.396-2.388 0-.8480042.1359986-1.6399963.408-2.376.2720014-.7360037.6559975-1.3759973 1.152-1.92.4960025-.5440027 1.0879966-.9719984 1.776-1.284.6880034-.3120016 1.4399959-.468 2.256-.468.5280026 0 .999998.0599994 1.416.18.416002.1200006.779998.2679991 1.092.444.312002.1760009.579999.367999.804.576.224001.208001.407999.407999.552.6h.072V71h2.88v18.144zm-9.48-5.808c0 .4480022.0679993.8959978.204 1.344.1360007.4480022.3399986.8479982.612 1.2.2720014.3520018.6159979.6399989 1.032.864.4160021.2240011.9039972.336 1.464.336.528003 0 .999998-.1079989 1.416-.324.416002-.2160011.771999-.4999982 1.068-.852.296001-.3520018.519999-.7479978.672-1.188.152001-.4400022.228-.8839978.228-1.332 0-.4480022-.075999-.8959978-.228-1.344-.152001-.4480022-.375999-.8479982-.672-1.2-.296001-.3520018-.651998-.6399989-1.068-.864-.416002-.2240011-.887997-.336-1.416-.336-.5600028 0-1.0479979.1079989-1.464.324-.4160021.2160011-.7599986.4999982-1.032.852-.2720014.3520018-.4759993.7479978-.612 1.188-.1360007.4400022-.204.8839978-.204 1.332zm17.976 1.128h-5.76v-2.448h5.76v2.448zm9.096-7.176c.752004 0 1.395997.1319987 1.932.396s.975998.6119978 1.32 1.044c.344002.4320022.595999.9279972.756 1.488.160001.5600028.24 1.135997.24 1.728v7.2h-2.88v-6.336c0-.3360017-.024-.6839982-.072-1.044-.048-.3600018-.147999-.6879985-.3-.984-.152001-.2960015-.367999-.539999-.648-.732-.280001-.192001-.651998-.288-1.116-.288-.464002 0-.863998.0879991-1.2.264-.336002.1760009-.615999.4119985-.84.708s-.391999.6279982-.504.996c-.112001.3680018-.168.7439981-.168 1.128v6.288h-2.88V71h2.88v8.232h.048c.112001-.2400012.275999-.4759988.492-.708.216001-.2320012.467999-.4399991.756-.624.288001-.1840009.615998-.3319994.984-.444.368002-.1120006.767998-.168 1.2-.168zm15.72 4.944c0-.3680018-.051999-.7199983-.156-1.056-.104001-.3360017-.267999-.6319987-.492-.888s-.507998-.4599992-.852-.612c-.344002-.1520008-.747998-.228-1.212-.228-.864004 0-1.595997.2599974-2.196.78-.600003.5200026-.932 1.1879959-.996 2.004h5.904zm2.88 1.296v.384c0 .1280006-.008.2559994-.024.384h-8.76c.032.4160021.139999.7959983.324 1.14.184001.3440017.427998.6399988.732.888.304002.2480012.647998.4439993 1.032.588.384002.1440007.783998.216 1.2.216.720004 0 1.327998-.1319987 1.824-.396.496002-.2640013.903998-.6279977 1.224-1.092l1.92 1.536c-1.136006 1.5360077-2.783989 2.304-4.944 2.304-.896004 0-1.719996-.1399986-2.472-.42-.752004-.2800014-1.403997-.6759974-1.956-1.188s-.983998-1.1399963-1.296-1.884c-.312002-.7440037-.468-1.5879953-.468-2.532 0-.9280046.155998-1.7719962.468-2.532s.739997-1.4079973 1.284-1.944 1.187996-.9519985 1.932-1.248c.744004-.2960015 1.547996-.444 2.412-.444.800004 0 1.539997.1319987 2.22.396.680003.2640013 1.267998.6559974 1.764 1.176.496002.5200026.883999 1.1679961 1.164 1.944.280001.7760039.42 1.6839948.42 2.724zm9.792 4.152h-.072c-.288001.5120026-.751997.9319984-1.392 1.26-.640003.3280016-1.367996.492-2.184.492-.464002 0-.947997-.0599994-1.452-.18-.504003-.1200006-.967998-.3199986-1.392-.6-.424002-.2800014-.775999-.6479977-1.056-1.104-.280001-.4560023-.42-1.0199966-.42-1.692 0-.8640043.243998-1.5519974.732-2.064s1.115996-.9039986 1.884-1.176c.768004-.2720014 1.619995-.4519996 2.556-.54.936005-.0880004 1.851996-.132 2.748-.132v-.288c0-.7200036-.259997-1.2519983-.78-1.596-.520003-.3440017-1.139996-.516-1.86-.516-.608003 0-1.191997.1279987-1.752.384s-1.023998.5679982-1.392.936l-1.488-1.752c.656003-.608003 1.411996-1.0639985 2.268-1.368.856004-.3040015 1.723996-.456 2.604-.456 1.024005 0 1.867997.1439986 2.532.432.664003.2880014 1.187998.6639977 1.572 1.128.384002.4640023.651999.9839971.804 1.56.152001.5760029.228 1.1519971.228 1.728v7.008h-2.688V87.68zm-.048-3.792h-.648c-.464002 0-.951997.0199998-1.464.06s-.983998.1279993-1.416.264c-.432002.1360007-.791999.3279988-1.08.576-.288001.2480012-.432.5879978-.432 1.02 0 .2720014.059999.4999991.18.684.120001.1840009.275999.3319994.468.444.192001.1120006.407999.1919998.648.24.240001.0480002.479999.072.72.072.992005 0 1.743997-.2639974 2.256-.792.512003-.5280026.768-1.2479954.768-2.16v-.408zm17.808 5.256h-2.736v-1.728h-.048c-.400002.6720034-.955996 1.1839982-1.668 1.536-.712004.3520018-1.475996.528-2.292.528-.880004 0-1.667997-.1639984-2.364-.492-.696003-.3280016-1.287998-.7679972-1.776-1.32-.488002-.5520028-.863999-1.1999963-1.128-1.944-.264001-.7440037-.396-1.5399958-.396-2.388 0-.8480042.135999-1.6399963.408-2.376.272001-.7360037.655998-1.3759973 1.152-1.92.496002-.5440027 1.087997-.9719984 1.776-1.284.688003-.3120016 1.439996-.468 2.256-.468.528003 0 .999998.0599994 1.416.18.416002.1200006.779998.2679991 1.092.444.312002.1760009.579999.367999.804.576.224001.208001.407999.407999.552.6h.072V71h2.88v18.144zm-9.48-5.808c0 .4480022.067999.8959978.204 1.344.136001.4480022.339999.8479982.612 1.2.272001.3520018.615998.6399989 1.032.864.416002.2240011.903997.336 1.464.336.528003 0 .999998-.1079989 1.416-.324.416002-.2160011.771999-.4999982 1.068-.852.296001-.3520018.519999-.7479978.672-1.188.152001-.4400022.228-.8839978.228-1.332 0-.4480022-.075999-.8959978-.228-1.344-.152001-.4480022-.375999-.8479982-.672-1.2-.296001-.3520018-.651998-.6399989-1.068-.864-.416002-.2240011-.887997-.336-1.416-.336-.560003 0-1.047998.1079989-1.464.324s-.759999.4999982-1.032.852c-.272001.3520018-.475999.7479978-.612 1.188-.136001.4400022-.204.8839978-.204 1.332zm21.096-1.104c0-.3680018-.051999-.7199983-.156-1.056-.104001-.3360017-.267999-.6319987-.492-.888s-.507998-.4599992-.852-.612c-.344002-.1520008-.747998-.228-1.212-.228-.864004 0-1.595997.2599974-2.196.78-.600003.5200026-.932 1.1879959-.996 2.004h5.904zm2.88 1.296v.384c0 .1280006-.008.2559994-.024.384h-8.76c.032.4160021.139999.7959983.324 1.14.184001.3440017.427998.6399988.732.888.304002.2480012.647998.4439993 1.032.588.384002.1440007.783998.216 1.2.216.720004 0 1.327998-.1319987 1.824-.396.496002-.2640013.903998-.6279977 1.224-1.092l1.92 1.536c-1.136006 1.5360077-2.783989 2.304-4.944 2.304-.896004 0-1.719996-.1399986-2.472-.42-.752004-.2800014-1.403997-.6759974-1.956-1.188s-.983998-1.1399963-1.296-1.884c-.312002-.7440037-.468-1.5879953-.468-2.532 0-.9280046.155998-1.7719962.468-2.532s.739997-1.4079973 1.284-1.944 1.187996-.9519985 1.932-1.248c.744004-.2960015 1.547996-.444 2.412-.444.800004 0 1.539997.1319987 2.22.396.680003.2640013 1.267998.6559974 1.764 1.176.496002.5200026.883999 1.1679961 1.164 1.944.280001.7760039.42 1.6839948.42 2.724zm2.784-5.904h2.76v1.92h.048c.320002-.6720034.767997-1.2159979 1.344-1.632.576003-.4160021 1.247996-.624 2.016-.624.112001 0 .231999.004.36.012.128001.008.24.0279998.336.06V80c-.192001-.0480002-.355999-.0799999-.492-.096-.136001-.0160001-.267999-.024-.396-.024-.656003 0-1.183998.1199988-1.584.36-.400002.2400012-.711999.5279983-.936.864-.224001.3360017-.376.6799982-.456 1.032-.08.3520018-.12.631999-.12.84v6.168h-2.88v-11.52z" fill="#000"/>
    <text font-family="AvenirNext-DemiBold, Avenir Next" font-size="24" font-weight="500" fill="#000" transform="translate(-1 -5)">
      <tspan x=".408" y="24">.ea-card</tspan>
    </text>
  </g>
</svg>
