<svg viewBox="0 0 526 559" xmlns="http://www.w3.org/2000/svg" xmlns:xlink="http://www.w3.org/1999/xlink">
  <defs>
    <path id="e" d="M3 37h522v524H3z"/>
    <filter x="-.7%" y="-.5%" width="101.3%" height="101.3%" filterUnits="objectBoundingBox" id="d">
      <feOffset dy="1" in="SourceAlpha" result="shadowOffsetOuter1"/>
      <feGaussianBlur stdDeviation="1" in="shadowOffsetOuter1" result="shadowBlurOuter1"/>
      <feComposite in="shadowBlurOuter1" in2="SourceAlpha" operator="out" result="shadowBlurOuter1"/>
      <feColorMatrix values="0 0 0 0 0 0 0 0 0 0 0 0 0 0 0 0 0 0 0.5 0" in="shadowBlurOuter1"/>
    </filter>
    <path d="M0 0h490v80H0V0z" id="a"/>
    <mask id="f" x="0" y="0" width="490" height="80" fill="#fff">
      <use xlink:href="#a"/>
    </mask>
    <path d="M0 0h490v344H0V0z" id="b"/>
    <filter x="-.4%" y="-.3%" width="100.8%" height="101.2%" filterUnits="objectBoundingBox" id="g">
      <feOffset dy="1" in="SourceAlpha" result="shadowOffsetOuter1"/>
      <feGaussianBlur stdDeviation=".5" in="shadowOffsetOuter1" result="shadowBlurOuter1"/>
      <feComposite in="shadowBlurOuter1" in2="SourceAlpha" operator="out" result="shadowBlurOuter1"/>
      <feColorMatrix values="0 0 0 0 0 0 0 0 0 0 0 0 0 0 0 0 0 0 0.5 0" in="shadowBlurOuter1"/>
    </filter>
    <mask id="h" x="0" y="0" width="490" height="344" fill="#fff">
      <use xlink:href="#b"/>
    </mask>
    <path d="M0 0h490v62H0V0z" id="c"/>
    <filter x="-.4%" y="-1.6%" width="100.8%" height="106.5%" filterUnits="objectBoundingBox" id="i">
      <feOffset dy="1" in="SourceAlpha" result="shadowOffsetOuter1"/>
      <feGaussianBlur stdDeviation=".5" in="shadowOffsetOuter1" result="shadowBlurOuter1"/>
      <feComposite in="shadowBlurOuter1" in2="SourceAlpha" operator="out" result="shadowBlurOuter1"/>
      <feColorMatrix values="0 0 0 0 0 0 0 0 0 0 0 0 0 0 0 0 0 0 0.5 0" in="shadowBlurOuter1"/>
    </filter>
    <mask id="j" x="0" y="0" width="490" height="62" fill="#fff">
      <use xlink:href="#c"/>
    </mask>
  </defs>
  <g fill="none" fill-rule="evenodd">
    <g transform="translate(-1 -5)">
      <use fill="#000" filter="url(#d)" xlink:href="#e"/>
      <use fill-opacity=".3" fill="#EDEDED" xlink:href="#e"/>
      <path stroke="#D5D5D5" d="M3.5 37.5h521v523H3.5z"/>
    </g>
    <g transform="translate(17 464)" opacity=".146">
      <use stroke="#000" mask="url(#f)" stroke-width="4" fill-opacity=".1" fill="#BCBCBC" stroke-dasharray="4 4" xlink:href="#a"/>
      <path d="M20 47.752c0-.512.188-.952.564-1.32a1.87 1.87 0 0 1 1.356-.552c.512 0 .96.176 1.344.528.384.352.576.784.576 1.296s-.188.952-.564 1.32a1.87 1.87 0 0 1-1.356.552c-.256 0-.5-.048-.732-.144a2.087 2.087 0 0 1-.612-.384 1.784 1.784 0 0 1-.42-.576 1.689 1.689 0 0 1-.156-.72zm14.88-5.232c0-.368-.052-.72-.156-1.056a2.417 2.417 0 0 0-.492-.888 2.402 2.402 0 0 0-.852-.612c-.344-.152-.748-.228-1.212-.228-.864 0-1.596.26-2.196.78-.6.52-.932 1.188-.996 2.004h5.904zm2.88 1.296v.384c0 .128-.008.256-.024.384h-8.76a2.852 2.852 0 0 0 1.056 2.028c.304.248.648.444 1.032.588a3.39 3.39 0 0 0 1.2.216c.72 0 1.328-.132 1.824-.396a3.417 3.417 0 0 0 1.224-1.092l1.92 1.536c-1.136 1.536-2.784 2.304-4.944 2.304-.896 0-1.72-.14-2.472-.42a5.834 5.834 0 0 1-1.956-1.188 5.354 5.354 0 0 1-1.296-1.884c-.312-.744-.468-1.588-.468-2.532 0-.928.156-1.772.468-2.532.312-.76.74-1.408 1.284-1.944a5.743 5.743 0 0 1 1.932-1.248 6.465 6.465 0 0 1 2.412-.444c.8 0 1.54.132 2.22.396.68.264 1.268.656 1.764 1.176.496.52.884 1.168 1.164 1.944.28.776.42 1.684.42 2.724zm9.792 4.152h-.072c-.288.512-.752.932-1.392 1.26-.64.328-1.368.492-2.184.492-.464 0-.948-.06-1.452-.18a4.322 4.322 0 0 1-1.392-.6 3.488 3.488 0 0 1-1.056-1.104c-.28-.456-.42-1.02-.42-1.692 0-.864.244-1.552.732-2.064s1.116-.904 1.884-1.176a10.62 10.62 0 0 1 2.556-.54 29.356 29.356 0 0 1 2.748-.132v-.288c0-.72-.26-1.252-.78-1.596-.52-.344-1.14-.516-1.86-.516-.608 0-1.192.128-1.752.384s-1.024.568-1.392.936L40.232 39.4a6.5 6.5 0 0 1 2.268-1.368 7.73 7.73 0 0 1 2.604-.456c1.024 0 1.868.144 2.532.432.664.288 1.188.664 1.572 1.128.384.464.652.984.804 1.56.152.576.228 1.152.228 1.728v7.008h-2.688v-1.464zm-.048-3.792h-.648c-.464 0-.952.02-1.464.06-.512.04-.984.128-1.416.264a3.023 3.023 0 0 0-1.08.576c-.288.248-.432.588-.432 1.02 0 .272.06.5.18.684.12.184.276.332.468.444.192.112.408.192.648.24.24.048.48.072.72.072.992 0 1.744-.264 2.256-.792.512-.528.768-1.248.768-2.16v-.408zm11.088.576h-5.76v-2.448h5.76v2.448zm10.56-3.648c-.224-.32-.56-.588-1.008-.804a3.12 3.12 0 0 0-1.368-.324c-.528 0-.992.108-1.392.324-.4.216-.732.5-.996.852a3.67 3.67 0 0 0-.588 1.188c-.128.44-.192.884-.192 1.332 0 .448.068.892.204 1.332.136.44.34.836.612 1.188a3.11 3.11 0 0 0 1.02.852c.408.216.884.324 1.428.324.448 0 .896-.088 1.344-.264a2.56 2.56 0 0 0 1.08-.768l1.8 1.824c-.48.512-1.092.908-1.836 1.188-.744.28-1.548.42-2.412.42a7.104 7.104 0 0 1-2.412-.408 5.721 5.721 0 0 1-1.992-1.2 5.692 5.692 0 0 1-1.344-1.92c-.328-.752-.492-1.608-.492-2.568 0-.928.164-1.768.492-2.52a5.777 5.777 0 0 1 1.332-1.92 5.95 5.95 0 0 1 1.956-1.224 6.557 6.557 0 0 1 2.388-.432c.848 0 1.668.16 2.46.48.792.32 1.42.76 1.884 1.32l-1.968 1.728zm10.992 6.864h-.072c-.288.512-.752.932-1.392 1.26-.64.328-1.368.492-2.184.492-.464 0-.948-.06-1.452-.18a4.322 4.322 0 0 1-1.392-.6 3.488 3.488 0 0 1-1.056-1.104c-.28-.456-.42-1.02-.42-1.692 0-.864.244-1.552.732-2.064s1.116-.904 1.884-1.176a10.62 10.62 0 0 1 2.556-.54 29.356 29.356 0 0 1 2.748-.132v-.288c0-.72-.26-1.252-.78-1.596-.52-.344-1.14-.516-1.86-.516-.608 0-1.192.128-1.752.384s-1.024.568-1.392.936L72.824 39.4a6.5 6.5 0 0 1 2.268-1.368 7.73 7.73 0 0 1 2.604-.456c1.024 0 1.868.144 2.532.432.664.288 1.188.664 1.572 1.128.384.464.652.984.804 1.56.152.576.228 1.152.228 1.728v7.008h-2.688v-1.464zm-.048-3.792h-.648c-.464 0-.952.02-1.464.06-.512.04-.984.128-1.416.264a3.023 3.023 0 0 0-1.08.576c-.288.248-.432.588-.432 1.02 0 .272.06.5.18.684.12.184.276.332.468.444.192.112.408.192.648.24.24.048.48.072.72.072.992 0 1.744-.264 2.256-.792.512-.528.768-1.248.768-2.16v-.408zm6.096-6.264h2.76v1.92H89a4.202 4.202 0 0 1 1.344-1.632c.576-.416 1.248-.624 2.016-.624.112 0 .232.004.36.012.128.008.24.028.336.06v2.64a3.39 3.39 0 0 0-.888-.12c-.656 0-1.184.12-1.584.36-.4.24-.712.528-.936.864-.224.336-.376.68-.456 1.032-.08.352-.12.632-.12.84v6.168h-2.88v-11.52zm20.016 11.52h-2.736v-1.728h-.048a3.92 3.92 0 0 1-1.668 1.536 5.102 5.102 0 0 1-2.292.528c-.88 0-1.668-.164-2.364-.492a5.428 5.428 0 0 1-1.776-1.32 5.857 5.857 0 0 1-1.128-1.944 7.089 7.089 0 0 1-.396-2.388 6.8 6.8 0 0 1 .408-2.376 5.799 5.799 0 0 1 1.152-1.92 5.384 5.384 0 0 1 1.776-1.284 5.398 5.398 0 0 1 2.256-.468c.528 0 1 .06 1.416.18.416.12.78.268 1.092.444.312.176.58.368.804.576.224.208.408.408.552.6h.072v-8.088h2.88v18.144zm-9.48-5.808c0 .448.068.896.204 1.344.136.448.34.848.612 1.2.272.352.616.64 1.032.864.416.224.904.336 1.464.336.528 0 1-.108 1.416-.324.416-.216.772-.5 1.068-.852.296-.352.52-.748.672-1.188.152-.44.228-.884.228-1.332a4.16 4.16 0 0 0-.228-1.344 3.627 3.627 0 0 0-1.74-2.064 2.939 2.939 0 0 0-1.416-.336c-.56 0-1.048.108-1.464.324-.416.216-.76.5-1.032.852a3.723 3.723 0 0 0-.612 1.188c-.136.44-.204.884-.204 1.332zm17.976 1.128h-5.76v-2.448h5.76v2.448zm3.144-4.536h-2.184v-2.304h2.184v-1.704c0-.688.076-1.348.228-1.98a4.497 4.497 0 0 1 .768-1.668c.36-.48.836-.86 1.428-1.14.592-.28 1.336-.42 2.232-.42.32 0 .588.012.804.036.216.024.436.068.66.132l-.192 2.448a4.451 4.451 0 0 0-.516-.12 3.432 3.432 0 0 0-.588-.048c-.416 0-.752.08-1.008.24-.256.16-.452.368-.588.624a2.661 2.661 0 0 0-.276.84 5.69 5.69 0 0 0-.072.888v1.872h2.664v2.304h-2.664v9.216h-2.88v-9.216zm6.648 3.408c0-.912.164-1.74.492-2.484a5.808 5.808 0 0 1 1.332-1.908 5.872 5.872 0 0 1 1.992-1.224 6.914 6.914 0 0 1 2.448-.432c.864 0 1.68.144 2.448.432a5.872 5.872 0 0 1 1.992 1.224 5.808 5.808 0 0 1 1.332 1.908c.328.744.492 1.572.492 2.484 0 .912-.164 1.744-.492 2.496a5.91 5.91 0 0 1-1.332 1.932 6.083 6.083 0 0 1-1.992 1.26 6.59 6.59 0 0 1-2.448.456 6.59 6.59 0 0 1-2.448-.456 6.083 6.083 0 0 1-1.992-1.26 5.91 5.91 0 0 1-1.332-1.932c-.328-.752-.492-1.584-.492-2.496zm2.928 0c0 .448.068.896.204 1.344.136.448.34.848.612 1.2.272.352.616.64 1.032.864.416.224.912.336 1.488.336s1.072-.112 1.488-.336c.416-.224.76-.512 1.032-.864s.476-.752.612-1.2a4.487 4.487 0 0 0 0-2.676 3.723 3.723 0 0 0-.612-1.188 3.073 3.073 0 0 0-1.032-.852c-.416-.216-.912-.324-1.488-.324s-1.072.108-1.488.324c-.416.216-.76.5-1.032.852a3.723 3.723 0 0 0-.612 1.188c-.136.44-.204.884-.204 1.332zm11.712 0c0-.912.164-1.74.492-2.484a5.808 5.808 0 0 1 1.332-1.908 5.872 5.872 0 0 1 1.992-1.224 6.914 6.914 0 0 1 2.448-.432c.864 0 1.68.144 2.448.432a5.872 5.872 0 0 1 1.992 1.224 5.808 5.808 0 0 1 1.332 1.908c.328.744.492 1.572.492 2.484 0 .912-.164 1.744-.492 2.496a5.91 5.91 0 0 1-1.332 1.932 6.083 6.083 0 0 1-1.992 1.26 6.59 6.59 0 0 1-2.448.456 6.59 6.59 0 0 1-2.448-.456 6.083 6.083 0 0 1-1.992-1.26 5.91 5.91 0 0 1-1.332-1.932c-.328-.752-.492-1.584-.492-2.496zm2.928 0c0 .448.068.896.204 1.344.136.448.34.848.612 1.2.272.352.616.64 1.032.864.416.224.912.336 1.488.336s1.072-.112 1.488-.336c.416-.224.76-.512 1.032-.864s.476-.752.612-1.2a4.487 4.487 0 0 0 0-2.676 3.723 3.723 0 0 0-.612-1.188 3.073 3.073 0 0 0-1.032-.852c-.416-.216-.912-.324-1.488-.324s-1.072.108-1.488.324c-.416.216-.76.5-1.032.852a3.723 3.723 0 0 0-.612 1.188c-.136.44-.204.884-.204 1.332zm10.728-3.408v-2.304h2.016v-3.336h2.832v3.336h2.88v2.304h-2.88v5.352c0 .512.092.936.276 1.272.184.336.596.504 1.236.504.192 0 .4-.02.624-.06.224-.04.424-.1.6-.18l.096 2.256c-.256.096-.56.172-.912.228a6.422 6.422 0 0 1-1.008.084c-.768 0-1.392-.108-1.872-.324a2.838 2.838 0 0 1-1.14-.888 3.287 3.287 0 0 1-.576-1.296 7.535 7.535 0 0 1-.156-1.572v-5.376h-2.016zm17.928 2.304c0-.368-.052-.72-.156-1.056a2.417 2.417 0 0 0-.492-.888 2.402 2.402 0 0 0-.852-.612c-.344-.152-.748-.228-1.212-.228-.864 0-1.596.26-2.196.78-.6.52-.932 1.188-.996 2.004h5.904zm2.88 1.296v.384c0 .128-.008.256-.024.384h-8.76a2.852 2.852 0 0 0 1.056 2.028c.304.248.648.444 1.032.588a3.39 3.39 0 0 0 1.2.216c.72 0 1.328-.132 1.824-.396a3.417 3.417 0 0 0 1.224-1.092l1.92 1.536c-1.136 1.536-2.784 2.304-4.944 2.304-.896 0-1.72-.14-2.472-.42a5.834 5.834 0 0 1-1.956-1.188 5.354 5.354 0 0 1-1.296-1.884c-.312-.744-.468-1.588-.468-2.532 0-.928.156-1.772.468-2.532.312-.76.74-1.408 1.284-1.944a5.743 5.743 0 0 1 1.932-1.248 6.465 6.465 0 0 1 2.412-.444c.8 0 1.54.132 2.22.396.68.264 1.268.656 1.764 1.176.496.52.884 1.168 1.164 1.944.28.776.42 1.684.42 2.724zm2.784-5.904h2.76v1.92h.048a4.202 4.202 0 0 1 1.344-1.632c.576-.416 1.248-.624 2.016-.624.112 0 .232.004.36.012.128.008.24.028.336.06v2.64a3.39 3.39 0 0 0-.888-.12c-.656 0-1.184.12-1.584.36-.4.24-.712.528-.936.864-.224.336-.376.68-.456 1.032-.08.352-.12.632-.12.84v6.168h-2.88v-11.52z" fill="#000"/>
    </g>
    <g stroke-dasharray="4 4" transform="translate(17 115)">
      <use fill="#000" filter="url(#g)" xlink:href="#b"/>
      <use stroke="#000" mask="url(#h)" stroke-width="4" fill-opacity=".2" fill="#BCBCBC" xlink:href="#b"/>
    </g>
    <path d="M37 141.464c0-.512.188-.952.564-1.32a1.87 1.87 0 0 1 1.356-.552c.512 0 .96.176 1.344.528.384.352.576.784.576 1.296s-.188.952-.564 1.32a1.87 1.87 0 0 1-1.356.552c-.256 0-.5-.048-.732-.144a2.087 2.087 0 0 1-.612-.384 1.784 1.784 0 0 1-.42-.576 1.689 1.689 0 0 1-.156-.72zm14.88-5.232c0-.368-.052-.72-.156-1.056a2.417 2.417 0 0 0-.492-.888 2.402 2.402 0 0 0-.852-.612c-.344-.152-.748-.228-1.212-.228-.864 0-1.596.26-2.196.78-.6.52-.932 1.188-.996 2.004h5.904zm2.88 1.296v.384c0 .128-.008.256-.024.384h-8.76a2.852 2.852 0 0 0 1.056 2.028c.304.248.648.444 1.032.588a3.39 3.39 0 0 0 1.2.216c.72 0 1.328-.132 1.824-.396a3.417 3.417 0 0 0 1.224-1.092l1.92 1.536c-1.136 1.536-2.784 2.304-4.944 2.304-.896 0-1.72-.14-2.472-.42a5.834 5.834 0 0 1-1.956-1.188 5.354 5.354 0 0 1-1.296-1.884c-.312-.744-.468-1.588-.468-2.532 0-.928.156-1.772.468-2.532.312-.76.74-1.408 1.284-1.944a5.743 5.743 0 0 1 1.932-1.248 6.465 6.465 0 0 1 2.412-.444c.8 0 1.54.132 2.22.396.68.264 1.268.656 1.764 1.176.496.52.884 1.168 1.164 1.944.28.776.42 1.684.42 2.724zm9.792 4.152h-.072c-.288.512-.752.932-1.392 1.26-.64.328-1.368.492-2.184.492-.464 0-.948-.06-1.452-.18a4.322 4.322 0 0 1-1.392-.6 3.488 3.488 0 0 1-1.056-1.104c-.28-.456-.42-1.02-.42-1.692 0-.864.244-1.552.732-2.064s1.116-.904 1.884-1.176a10.62 10.62 0 0 1 2.556-.54 29.356 29.356 0 0 1 2.748-.132v-.288c0-.72-.26-1.252-.78-1.596-.52-.344-1.14-.516-1.86-.516-.608 0-1.192.128-1.752.384s-1.024.568-1.392.936l-1.488-1.752a6.5 6.5 0 0 1 2.268-1.368 7.73 7.73 0 0 1 2.604-.456c1.024 0 1.868.144 2.532.432.664.288 1.188.664 1.572 1.128.384.464.652.984.804 1.56.152.576.228 1.152.228 1.728v7.008h-2.688v-1.464zm-.048-3.792h-.648c-.464 0-.952.02-1.464.06-.512.04-.984.128-1.416.264a3.023 3.023 0 0 0-1.08.576c-.288.248-.432.588-.432 1.02 0 .272.06.5.18.684.12.184.276.332.468.444.192.112.408.192.648.24.24.048.48.072.72.072.992 0 1.744-.264 2.256-.792.512-.528.768-1.248.768-2.16v-.408zm11.088.576h-5.76v-2.448h5.76v2.448zm10.56-3.648c-.224-.32-.56-.588-1.008-.804a3.12 3.12 0 0 0-1.368-.324c-.528 0-.992.108-1.392.324-.4.216-.732.5-.996.852a3.67 3.67 0 0 0-.588 1.188c-.128.44-.192.884-.192 1.332 0 .448.068.892.204 1.332.136.44.34.836.612 1.188a3.11 3.11 0 0 0 1.02.852c.408.216.884.324 1.428.324.448 0 .896-.088 1.344-.264a2.56 2.56 0 0 0 1.08-.768l1.8 1.824c-.48.512-1.092.908-1.836 1.188-.744.28-1.548.42-2.412.42a7.104 7.104 0 0 1-2.412-.408 5.721 5.721 0 0 1-1.992-1.2 5.692 5.692 0 0 1-1.344-1.92c-.328-.752-.492-1.608-.492-2.568 0-.928.164-1.768.492-2.52a5.777 5.777 0 0 1 1.332-1.92 5.95 5.95 0 0 1 1.956-1.224 6.557 6.557 0 0 1 2.388-.432c.848 0 1.668.16 2.46.48.792.32 1.42.76 1.884 1.32l-1.968 1.728zm10.992 6.864h-.072c-.288.512-.752.932-1.392 1.26-.64.328-1.368.492-2.184.492-.464 0-.948-.06-1.452-.18a4.322 4.322 0 0 1-1.392-.6 3.488 3.488 0 0 1-1.056-1.104c-.28-.456-.42-1.02-.42-1.692 0-.864.244-1.552.732-2.064s1.116-.904 1.884-1.176a10.62 10.62 0 0 1 2.556-.54 29.356 29.356 0 0 1 2.748-.132v-.288c0-.72-.26-1.252-.78-1.596-.52-.344-1.14-.516-1.86-.516-.608 0-1.192.128-1.752.384s-1.024.568-1.392.936l-1.488-1.752a6.5 6.5 0 0 1 2.268-1.368 7.73 7.73 0 0 1 2.604-.456c1.024 0 1.868.144 2.532.432.664.288 1.188.664 1.572 1.128.384.464.652.984.804 1.56.152.576.228 1.152.228 1.728v7.008h-2.688v-1.464zm-.048-3.792h-.648c-.464 0-.952.02-1.464.06-.512.04-.984.128-1.416.264a3.023 3.023 0 0 0-1.08.576c-.288.248-.432.588-.432 1.02 0 .272.06.5.18.684.12.184.276.332.468.444.192.112.408.192.648.24.24.048.48.072.72.072.992 0 1.744-.264 2.256-.792.512-.528.768-1.248.768-2.16v-.408zm6.096-6.264h2.76v1.92H106a4.202 4.202 0 0 1 1.344-1.632c.576-.416 1.248-.624 2.016-.624.112 0 .232.004.36.012.128.008.24.028.336.06V134a3.39 3.39 0 0 0-.888-.12c-.656 0-1.184.12-1.584.36-.4.24-.712.528-.936.864-.224.336-.376.68-.456 1.032-.08.352-.12.632-.12.84v6.168h-2.88v-11.52zm20.016 11.52h-2.736v-1.728h-.048a3.92 3.92 0 0 1-1.668 1.536 5.102 5.102 0 0 1-2.292.528c-.88 0-1.668-.164-2.364-.492a5.428 5.428 0 0 1-1.776-1.32 5.857 5.857 0 0 1-1.128-1.944 7.089 7.089 0 0 1-.396-2.388 6.8 6.8 0 0 1 .408-2.376 5.799 5.799 0 0 1 1.152-1.92 5.384 5.384 0 0 1 1.776-1.284 5.398 5.398 0 0 1 2.256-.468c.528 0 1 .06 1.416.18.416.12.78.268 1.092.444.312.176.58.368.804.576.224.208.408.408.552.6h.072V125h2.88v18.144zm-9.48-5.808c0 .448.068.896.204 1.344.136.448.34.848.612 1.2.272.352.616.64 1.032.864.416.224.904.336 1.464.336.528 0 1-.108 1.416-.324.416-.216.772-.5 1.068-.852.296-.352.52-.748.672-1.188.152-.44.228-.884.228-1.332a4.16 4.16 0 0 0-.228-1.344 3.627 3.627 0 0 0-1.74-2.064 2.939 2.939 0 0 0-1.416-.336c-.56 0-1.048.108-1.464.324-.416.216-.76.5-1.032.852a3.723 3.723 0 0 0-.612 1.188c-.136.44-.204.884-.204 1.332zm17.976 1.128h-5.76v-2.448h5.76v2.448zm10.56-3.648c-.224-.32-.56-.588-1.008-.804a3.12 3.12 0 0 0-1.368-.324c-.528 0-.992.108-1.392.324-.4.216-.732.5-.996.852a3.67 3.67 0 0 0-.588 1.188c-.128.44-.192.884-.192 1.332 0 .448.068.892.204 1.332.136.44.34.836.612 1.188a3.11 3.11 0 0 0 1.02.852c.408.216.884.324 1.428.324.448 0 .896-.088 1.344-.264a2.56 2.56 0 0 0 1.08-.768l1.8 1.824c-.48.512-1.092.908-1.836 1.188-.744.28-1.548.42-2.412.42a7.104 7.104 0 0 1-2.412-.408 5.721 5.721 0 0 1-1.992-1.2 5.692 5.692 0 0 1-1.344-1.92c-.328-.752-.492-1.608-.492-2.568 0-.928.164-1.768.492-2.52a5.777 5.777 0 0 1 1.332-1.92 5.95 5.95 0 0 1 1.956-1.224 6.557 6.557 0 0 1 2.388-.432c.848 0 1.668.16 2.46.48.792.32 1.42.76 1.884 1.32l-1.968 1.728zm3.168 2.52c0-.912.164-1.74.492-2.484a5.808 5.808 0 0 1 1.332-1.908 5.872 5.872 0 0 1 1.992-1.224 6.914 6.914 0 0 1 2.448-.432c.864 0 1.68.144 2.448.432a5.872 5.872 0 0 1 1.992 1.224 5.808 5.808 0 0 1 1.332 1.908c.328.744.492 1.572.492 2.484 0 .912-.164 1.744-.492 2.496a5.91 5.91 0 0 1-1.332 1.932 6.083 6.083 0 0 1-1.992 1.26 6.59 6.59 0 0 1-2.448.456 6.59 6.59 0 0 1-2.448-.456 6.083 6.083 0 0 1-1.992-1.26 5.91 5.91 0 0 1-1.332-1.932c-.328-.752-.492-1.584-.492-2.496zm2.928 0c0 .448.068.896.204 1.344.136.448.34.848.612 1.2.272.352.616.64 1.032.864.416.224.912.336 1.488.336s1.072-.112 1.488-.336c.416-.224.76-.512 1.032-.864s.476-.752.612-1.2a4.487 4.487 0 0 0 0-2.676 3.723 3.723 0 0 0-.612-1.188 3.073 3.073 0 0 0-1.032-.852c-.416-.216-.912-.324-1.488-.324s-1.072.108-1.488.324c-.416.216-.76.5-1.032.852a3.723 3.723 0 0 0-.612 1.188c-.136.44-.204.884-.204 1.332zm12.384-5.712h2.736v1.848h.048c.256-.576.7-1.084 1.332-1.524.632-.44 1.38-.66 2.244-.66.752 0 1.396.132 1.932.396s.976.612 1.32 1.044c.344.432.596.928.756 1.488.16.56.24 1.136.24 1.728v7.2h-2.88v-6.384c0-.336-.024-.688-.072-1.056a2.85 2.85 0 0 0-.312-.996 2.07 2.07 0 0 0-.66-.732c-.28-.192-.652-.288-1.116-.288-.464 0-.864.092-1.2.276-.336.184-.612.42-.828.708-.216.288-.38.62-.492.996a3.974 3.974 0 0 0-.168 1.14v6.336h-2.88v-11.52zm12.312 2.304v-2.304h2.016v-3.336h2.832v3.336h2.88v2.304h-2.88v5.352c0 .512.092.936.276 1.272.184.336.596.504 1.236.504.192 0 .4-.02.624-.06.224-.04.424-.1.6-.18l.096 2.256c-.256.096-.56.172-.912.228a6.422 6.422 0 0 1-1.008.084c-.768 0-1.392-.108-1.872-.324a2.838 2.838 0 0 1-1.14-.888 3.287 3.287 0 0 1-.576-1.296 7.535 7.535 0 0 1-.156-1.572v-5.376h-2.016zm17.928 2.304c0-.368-.052-.72-.156-1.056a2.417 2.417 0 0 0-.492-.888 2.402 2.402 0 0 0-.852-.612c-.344-.152-.748-.228-1.212-.228-.864 0-1.596.26-2.196.78-.6.52-.932 1.188-.996 2.004h5.904zm2.88 1.296v.384c0 .128-.008.256-.024.384h-8.76a2.852 2.852 0 0 0 1.056 2.028c.304.248.648.444 1.032.588a3.39 3.39 0 0 0 1.2.216c.72 0 1.328-.132 1.824-.396a3.417 3.417 0 0 0 1.224-1.092l1.92 1.536c-1.136 1.536-2.784 2.304-4.944 2.304-.896 0-1.72-.14-2.472-.42a5.834 5.834 0 0 1-1.956-1.188 5.354 5.354 0 0 1-1.296-1.884c-.312-.744-.468-1.588-.468-2.532 0-.928.156-1.772.468-2.532.312-.76.74-1.408 1.284-1.944a5.743 5.743 0 0 1 1.932-1.248 6.465 6.465 0 0 1 2.412-.444c.8 0 1.54.132 2.22.396.68.264 1.268.656 1.764 1.176.496.52.884 1.168 1.164 1.944.28.776.42 1.684.42 2.724zm2.784-5.904h2.736v1.848h.048c.256-.576.7-1.084 1.332-1.524.632-.44 1.38-.66 2.244-.66.752 0 1.396.132 1.932.396s.976.612 1.32 1.044c.344.432.596.928.756 1.488.16.56.24 1.136.24 1.728v7.2h-2.88v-6.384c0-.336-.024-.688-.072-1.056a2.85 2.85 0 0 0-.312-.996 2.07 2.07 0 0 0-.66-.732c-.28-.192-.652-.288-1.116-.288-.464 0-.864.092-1.2.276-.336.184-.612.42-.828.708-.216.288-.38.62-.492.996a3.974 3.974 0 0 0-.168 1.14v6.336h-2.88v-11.52zm12.312 2.304v-2.304h2.016v-3.336h2.832v3.336h2.88v2.304h-2.88v5.352c0 .512.092.936.276 1.272.184.336.596.504 1.236.504.192 0 .4-.02.624-.06.224-.04.424-.1.6-.18l.096 2.256c-.256.096-.56.172-.912.228a6.422 6.422 0 0 1-1.008.084c-.768 0-1.392-.108-1.872-.324a2.838 2.838 0 0 1-1.14-.888 3.287 3.287 0 0 1-.576-1.296 7.535 7.535 0 0 1-.156-1.572v-5.376h-2.016z" fill="#000"/>
    <g opacity=".146">
      <g stroke-dasharray="4 4" transform="translate(17 49)">
        <use fill="#000" filter="url(#i)" xlink:href="#c"/>
        <use stroke="#000" mask="url(#j)" stroke-width="4" fill-opacity=".1" fill="#BCBCBC" xlink:href="#c"/>
      </g>
      <path d="M37 87.464c0-.512.188-.952.564-1.32a1.87 1.87 0 0 1 1.356-.552c.512 0 .96.176 1.344.528.384.352.576.784.576 1.296s-.188.952-.564 1.32a1.87 1.87 0 0 1-1.356.552c-.256 0-.5-.048-.732-.144a2.087 2.087 0 0 1-.612-.384 1.784 1.784 0 0 1-.42-.576 1.689 1.689 0 0 1-.156-.72zm14.88-5.232c0-.368-.052-.72-.156-1.056a2.417 2.417 0 0 0-.492-.888 2.402 2.402 0 0 0-.852-.612c-.344-.152-.748-.228-1.212-.228-.864 0-1.596.26-2.196.78-.6.52-.932 1.188-.996 2.004h5.904zm2.88 1.296v.384c0 .128-.008.256-.024.384h-8.76a2.852 2.852 0 0 0 1.056 2.028c.304.248.648.444 1.032.588a3.39 3.39 0 0 0 1.2.216c.72 0 1.328-.132 1.824-.396a3.417 3.417 0 0 0 1.224-1.092l1.92 1.536c-1.136 1.536-2.784 2.304-4.944 2.304-.896 0-1.72-.14-2.472-.42a5.834 5.834 0 0 1-1.956-1.188 5.354 5.354 0 0 1-1.296-1.884c-.312-.744-.468-1.588-.468-2.532 0-.928.156-1.772.468-2.532.312-.76.74-1.408 1.284-1.944a5.743 5.743 0 0 1 1.932-1.248 6.465 6.465 0 0 1 2.412-.444c.8 0 1.54.132 2.22.396.68.264 1.268.656 1.764 1.176.496.52.884 1.168 1.164 1.944.28.776.42 1.684.42 2.724zm9.792 4.152h-.072c-.288.512-.752.932-1.392 1.26-.64.328-1.368.492-2.184.492-.464 0-.948-.06-1.452-.18a4.322 4.322 0 0 1-1.392-.6 3.488 3.488 0 0 1-1.056-1.104c-.28-.456-.42-1.02-.42-1.692 0-.864.244-1.552.732-2.064s1.116-.904 1.884-1.176a10.62 10.62 0 0 1 2.556-.54 29.356 29.356 0 0 1 2.748-.132v-.288c0-.72-.26-1.252-.78-1.596-.52-.344-1.14-.516-1.86-.516-.608 0-1.192.128-1.752.384s-1.024.568-1.392.936l-1.488-1.752a6.5 6.5 0 0 1 2.268-1.368 7.73 7.73 0 0 1 2.604-.456c1.024 0 1.868.144 2.532.432.664.288 1.188.664 1.572 1.128.384.464.652.984.804 1.56.152.576.228 1.152.228 1.728v7.008h-2.688V87.68zm-.048-3.792h-.648c-.464 0-.952.02-1.464.06-.512.04-.984.128-1.416.264a3.023 3.023 0 0 0-1.08.576c-.288.248-.432.588-.432 1.02 0 .272.06.5.18.684.12.184.276.332.468.444.192.112.408.192.648.24.24.048.48.072.72.072.992 0 1.744-.264 2.256-.792.512-.528.768-1.248.768-2.16v-.408zm11.088.576h-5.76v-2.448h5.76v2.448zm10.56-3.648c-.224-.32-.56-.588-1.008-.804a3.12 3.12 0 0 0-1.368-.324c-.528 0-.992.108-1.392.324-.4.216-.732.5-.996.852a3.67 3.67 0 0 0-.588 1.188c-.128.44-.192.884-.192 1.332 0 .448.068.892.204 1.332.136.44.34.836.612 1.188a3.11 3.11 0 0 0 1.02.852c.408.216.884.324 1.428.324.448 0 .896-.088 1.344-.264a2.56 2.56 0 0 0 1.08-.768l1.8 1.824c-.48.512-1.092.908-1.836 1.188-.744.28-1.548.42-2.412.42a7.104 7.104 0 0 1-2.412-.408 5.721 5.721 0 0 1-1.992-1.2 5.692 5.692 0 0 1-1.344-1.92c-.328-.752-.492-1.608-.492-2.568 0-.928.164-1.768.492-2.52a5.777 5.777 0 0 1 1.332-1.92 5.95 5.95 0 0 1 1.956-1.224 6.557 6.557 0 0 1 2.388-.432c.848 0 1.668.16 2.46.48.792.32 1.42.76 1.884 1.32l-1.968 1.728zm10.992 6.864h-.072c-.288.512-.752.932-1.392 1.26-.64.328-1.368.492-2.184.492-.464 0-.948-.06-1.452-.18a4.322 4.322 0 0 1-1.392-.6 3.488 3.488 0 0 1-1.056-1.104c-.28-.456-.42-1.02-.42-1.692 0-.864.244-1.552.732-2.064s1.116-.904 1.884-1.176a10.62 10.62 0 0 1 2.556-.54 29.356 29.356 0 0 1 2.748-.132v-.288c0-.72-.26-1.252-.78-1.596-.52-.344-1.14-.516-1.86-.516-.608 0-1.192.128-1.752.384s-1.024.568-1.392.936l-1.488-1.752a6.5 6.5 0 0 1 2.268-1.368 7.73 7.73 0 0 1 2.604-.456c1.024 0 1.868.144 2.532.432.664.288 1.188.664 1.572 1.128.384.464.652.984.804 1.56.152.576.228 1.152.228 1.728v7.008h-2.688V87.68zm-.048-3.792h-.648c-.464 0-.952.02-1.464.06-.512.04-.984.128-1.416.264a3.023 3.023 0 0 0-1.08.576c-.288.248-.432.588-.432 1.02 0 .272.06.5.18.684.12.184.276.332.468.444.192.112.408.192.648.24.24.048.48.072.72.072.992 0 1.744-.264 2.256-.792.512-.528.768-1.248.768-2.16v-.408zm6.096-6.264h2.76v1.92H106a4.202 4.202 0 0 1 1.344-1.632c.576-.416 1.248-.624 2.016-.624.112 0 .232.004.36.012.128.008.24.028.336.06V80a3.39 3.39 0 0 0-.888-.12c-.656 0-1.184.12-1.584.36-.4.24-.712.528-.936.864-.224.336-.376.68-.456 1.032-.08.352-.12.632-.12.84v6.168h-2.88v-11.52zm20.016 11.52h-2.736v-1.728h-.048a3.92 3.92 0 0 1-1.668 1.536 5.102 5.102 0 0 1-2.292.528c-.88 0-1.668-.164-2.364-.492a5.428 5.428 0 0 1-1.776-1.32 5.857 5.857 0 0 1-1.128-1.944 7.089 7.089 0 0 1-.396-2.388 6.8 6.8 0 0 1 .408-2.376 5.799 5.799 0 0 1 1.152-1.92 5.384 5.384 0 0 1 1.776-1.284 5.398 5.398 0 0 1 2.256-.468c.528 0 1 .06 1.416.18.416.12.78.268 1.092.444.312.176.58.368.804.576.224.208.408.408.552.6h.072V71h2.88v18.144zm-9.48-5.808c0 .448.068.896.204 1.344.136.448.34.848.612 1.2.272.352.616.64 1.032.864.416.224.904.336 1.464.336.528 0 1-.108 1.416-.324.416-.216.772-.5 1.068-.852.296-.352.52-.748.672-1.188.152-.44.228-.884.228-1.332a4.16 4.16 0 0 0-.228-1.344 3.627 3.627 0 0 0-1.74-2.064 2.939 2.939 0 0 0-1.416-.336c-.56 0-1.048.108-1.464.324-.416.216-.76.5-1.032.852a3.723 3.723 0 0 0-.612 1.188c-.136.44-.204.884-.204 1.332zm17.976 1.128h-5.76v-2.448h5.76v2.448zm9.096-7.176c.752 0 1.396.132 1.932.396s.976.612 1.32 1.044c.344.432.596.928.756 1.488.16.56.24 1.136.24 1.728v7.2h-2.88v-6.336c0-.336-.024-.684-.072-1.044a3.006 3.006 0 0 0-.3-.984 1.964 1.964 0 0 0-.648-.732c-.28-.192-.652-.288-1.116-.288-.464 0-.864.088-1.2.264a2.485 2.485 0 0 0-.84.708 3.16 3.16 0 0 0-.504.996 3.853 3.853 0 0 0-.168 1.128v6.288h-2.88V71h2.88v8.232h.048c.112-.24.276-.476.492-.708a3.88 3.88 0 0 1 1.74-1.068 4.104 4.104 0 0 1 1.2-.168zm15.72 4.944c0-.368-.052-.72-.156-1.056a2.417 2.417 0 0 0-.492-.888 2.402 2.402 0 0 0-.852-.612c-.344-.152-.748-.228-1.212-.228-.864 0-1.596.26-2.196.78-.6.52-.932 1.188-.996 2.004h5.904zm2.88 1.296v.384c0 .128-.008.256-.024.384h-8.76a2.852 2.852 0 0 0 1.056 2.028c.304.248.648.444 1.032.588a3.39 3.39 0 0 0 1.2.216c.72 0 1.328-.132 1.824-.396a3.417 3.417 0 0 0 1.224-1.092l1.92 1.536c-1.136 1.536-2.784 2.304-4.944 2.304-.896 0-1.72-.14-2.472-.42a5.834 5.834 0 0 1-1.956-1.188 5.354 5.354 0 0 1-1.296-1.884c-.312-.744-.468-1.588-.468-2.532 0-.928.156-1.772.468-2.532.312-.76.74-1.408 1.284-1.944a5.743 5.743 0 0 1 1.932-1.248 6.465 6.465 0 0 1 2.412-.444c.8 0 1.54.132 2.22.396.68.264 1.268.656 1.764 1.176.496.52.884 1.168 1.164 1.944.28.776.42 1.684.42 2.724zm9.792 4.152h-.072c-.288.512-.752.932-1.392 1.26-.64.328-1.368.492-2.184.492-.464 0-.948-.06-1.452-.18a4.322 4.322 0 0 1-1.392-.6 3.488 3.488 0 0 1-1.056-1.104c-.28-.456-.42-1.02-.42-1.692 0-.864.244-1.552.732-2.064s1.116-.904 1.884-1.176a10.62 10.62 0 0 1 2.556-.54 29.356 29.356 0 0 1 2.748-.132v-.288c0-.72-.26-1.252-.78-1.596-.52-.344-1.14-.516-1.86-.516-.608 0-1.192.128-1.752.384s-1.024.568-1.392.936l-1.488-1.752a6.5 6.5 0 0 1 2.268-1.368 7.73 7.73 0 0 1 2.604-.456c1.024 0 1.868.144 2.532.432.664.288 1.188.664 1.572 1.128.384.464.652.984.804 1.56.152.576.228 1.152.228 1.728v7.008h-2.688V87.68zm-.048-3.792h-.648c-.464 0-.952.02-1.464.06-.512.04-.984.128-1.416.264a3.023 3.023 0 0 0-1.08.576c-.288.248-.432.588-.432 1.02 0 .272.06.5.18.684.12.184.276.332.468.444.192.112.408.192.648.24.24.048.48.072.72.072.992 0 1.744-.264 2.256-.792.512-.528.768-1.248.768-2.16v-.408zm17.808 5.256h-2.736v-1.728h-.048a3.92 3.92 0 0 1-1.668 1.536 5.102 5.102 0 0 1-2.292.528c-.88 0-1.668-.164-2.364-.492a5.428 5.428 0 0 1-1.776-1.32 5.857 5.857 0 0 1-1.128-1.944 7.089 7.089 0 0 1-.396-2.388 6.8 6.8 0 0 1 .408-2.376 5.799 5.799 0 0 1 1.152-1.92 5.384 5.384 0 0 1 1.776-1.284 5.398 5.398 0 0 1 2.256-.468c.528 0 1 .06 1.416.18.416.12.78.268 1.092.444.312.176.58.368.804.576.224.208.408.408.552.6h.072V71h2.88v18.144zm-9.48-5.808c0 .448.068.896.204 1.344.136.448.34.848.612 1.2.272.352.616.64 1.032.864.416.224.904.336 1.464.336.528 0 1-.108 1.416-.324.416-.216.772-.5 1.068-.852.296-.352.52-.748.672-1.188.152-.44.228-.884.228-1.332a4.16 4.16 0 0 0-.228-1.344 3.627 3.627 0 0 0-1.74-2.064 2.939 2.939 0 0 0-1.416-.336c-.56 0-1.048.108-1.464.324-.416.216-.76.5-1.032.852a3.723 3.723 0 0 0-.612 1.188c-.136.44-.204.884-.204 1.332zm21.096-1.104c0-.368-.052-.72-.156-1.056a2.417 2.417 0 0 0-.492-.888 2.402 2.402 0 0 0-.852-.612c-.344-.152-.748-.228-1.212-.228-.864 0-1.596.26-2.196.78-.6.52-.932 1.188-.996 2.004h5.904zm2.88 1.296v.384c0 .128-.008.256-.024.384h-8.76a2.852 2.852 0 0 0 1.056 2.028c.304.248.648.444 1.032.588a3.39 3.39 0 0 0 1.2.216c.72 0 1.328-.132 1.824-.396A3.417 3.417 0 0 0 199 85.64l1.92 1.536c-1.136 1.536-2.784 2.304-4.944 2.304-.896 0-1.72-.14-2.472-.42a5.834 5.834 0 0 1-1.956-1.188 5.354 5.354 0 0 1-1.296-1.884c-.312-.744-.468-1.588-.468-2.532 0-.928.156-1.772.468-2.532.312-.76.74-1.408 1.284-1.944a5.743 5.743 0 0 1 1.932-1.248 6.465 6.465 0 0 1 2.412-.444c.8 0 1.54.132 2.22.396.68.264 1.268.656 1.764 1.176.496.52.884 1.168 1.164 1.944.28.776.42 1.684.42 2.724zm2.784-5.904h2.76v1.92h.048a4.202 4.202 0 0 1 1.344-1.632c.576-.416 1.248-.624 2.016-.624.112 0 .232.004.36.012.128.008.24.028.336.06V80a3.39 3.39 0 0 0-.888-.12c-.656 0-1.184.12-1.584.36-.4.24-.712.528-.936.864-.224.336-.376.68-.456 1.032-.08.352-.12.632-.12.84v6.168h-2.88v-11.52z" fill="#000"/>
    </g>
    <text font-family="AvenirNext-DemiBold, Avenir Next" font-size="24" font-weight="500" fill="#000" transform="translate(-1 -5)">
      <tspan x=".408" y="24">.ea-card</tspan>
    </text>
    <path fill="#D8D8D8" d="M19 153h486v285H19z"/>
  </g>
</svg>
