
<svg width="100%" height="100%" viewBox="0 0 526 559" version="1.1" xmlns="http://www.w3.org/2000/svg" xmlns:xlink="http://www.w3.org/1999/xlink">
   
    <defs>
        <rect id="path-1" x="3" y="37" width="522" height="524"></rect>
        <filter x="-0.7%" y="-0.5%" width="101.3%" height="101.3%" filterUnits="objectBoundingBox" id="filter-2">
            <feOffset dx="0" dy="1" in="SourceAlpha" result="shadowOffsetOuter1"></feOffset>
            <feGaussianBlur stdDeviation="1" in="shadowOffsetOuter1" result="shadowBlurOuter1"></feGaussianBlur>
            <feComposite in="shadowBlurOuter1" in2="SourceAlpha" operator="out" result="shadowBlurOuter1"></feComposite>
            <feColorMatrix values="0 0 0 0 0   0 0 0 0 0   0 0 0 0 0  0 0 0 0.5 0" type="matrix" in="shadowBlurOuter1"></feColorMatrix>
        </filter>
        <path d="M0,0 L490,0 L490,80 L0,80 L0,0 Z" id="path-3"></path>
        <mask id="mask-4" maskContentUnits="userSpaceOnUse" maskUnits="objectBoundingBox" x="0" y="0" width="490" height="80" fill="white">
            <use xlink:href="#path-3"></use>
        </mask>
        <path d="M0,0 L490,0 L490,344 L0,344 L0,0 Z" id="path-5"></path>
        <filter x="-0.4%" y="-0.3%" width="100.8%" height="101.2%" filterUnits="objectBoundingBox" id="filter-6">
            <feOffset dx="0" dy="1" in="SourceAlpha" result="shadowOffsetOuter1"></feOffset>
            <feGaussianBlur stdDeviation="0.5" in="shadowOffsetOuter1" result="shadowBlurOuter1"></feGaussianBlur>
            <feComposite in="shadowBlurOuter1" in2="SourceAlpha" operator="out" result="shadowBlurOuter1"></feComposite>
            <feColorMatrix values="0 0 0 0 0   0 0 0 0 0   0 0 0 0 0  0 0 0 0.5 0" type="matrix" in="shadowBlurOuter1"></feColorMatrix>
        </filter>
        <mask id="mask-7" maskContentUnits="userSpaceOnUse" maskUnits="objectBoundingBox" x="0" y="0" width="490" height="344" fill="white">
            <use xlink:href="#path-5"></use>
        </mask>
        <path d="M0,0 L490,0 L490,62 L0,62 L0,0 Z" id="path-8"></path>
        <filter x="-0.4%" y="-1.6%" width="100.8%" height="106.5%" filterUnits="objectBoundingBox" id="filter-9">
            <feOffset dx="0" dy="1" in="SourceAlpha" result="shadowOffsetOuter1"></feOffset>
            <feGaussianBlur stdDeviation="0.5" in="shadowOffsetOuter1" result="shadowBlurOuter1"></feGaussianBlur>
            <feComposite in="shadowBlurOuter1" in2="SourceAlpha" operator="out" result="shadowBlurOuter1"></feComposite>
            <feColorMatrix values="0 0 0 0 0   0 0 0 0 0   0 0 0 0 0  0 0 0 0.5 0" type="matrix" in="shadowBlurOuter1"></feColorMatrix>
        </filter>
        <mask id="mask-10" maskContentUnits="userSpaceOnUse" maskUnits="objectBoundingBox" x="0" y="0" width="490" height="62" fill="white">
            <use xlink:href="#path-8"></use>
        </mask>
    </defs>
    <g id="Page-1" stroke="none" stroke-width="1" fill="none" fill-rule="evenodd">
        <g id="Artboard" transform="translate(-645.000000, -1328.000000)">
            <g id="ea-card-component" transform="translate(644.000000, 1323.000000)">
                <g id="component">
                    <use fill="black" fill-opacity="1" filter="url(#filter-2)" xlink:href="#path-1"></use>
                    <use fill-opacity="0.300000012" fill="#EDEDED" fill-rule="evenodd" xlink:href="#path-1"></use>
                    <rect stroke="#D5D5D5" stroke-width="1" x="3.5" y="37.5" width="521" height="523"></rect>
                </g>
                <g id=".ea-card" transform="translate(18.000000, 54.000000)">
                    <g id=".ea-card-footer" transform="translate(0.000000, 415.000000)" opacity="0.145946558">
                        <use stroke="#000000" mask="url(#mask-4)" stroke-width="4" fill-opacity="0.100000001" fill="#BCBCBC" stroke-dasharray="4,4" xlink:href="#path-3"></use>
                        <path d="M20,47.752 C20,47.2399974 20.1879981,46.8000018 20.564,46.432 C20.9400019,46.0639982 21.3919974,45.88 21.92,45.88 C22.4320026,45.88 22.8799981,46.0559982 23.264,46.408 C23.6480019,46.7600018 23.84,47.1919974 23.84,47.704 C23.84,48.2160026 23.6520019,48.6559982 23.276,49.024 C22.8999981,49.3920018 22.4480026,49.576 21.92,49.576 C21.6639987,49.576 21.4200012,49.5280005 21.188,49.432 C20.9559988,49.3359995 20.7520009,49.2080008 20.576,49.048 C20.3999991,48.8879992 20.2600005,48.6960011 20.156,48.472 C20.0519995,48.2479989 20,48.0080013 20,47.752 Z M34.88,42.52 C34.88,42.1519982 34.8280005,41.8000017 34.724,41.464 C34.6199995,41.1279983 34.4560011,40.8320013 34.232,40.576 C34.0079989,40.3199987 33.7240017,40.1160008 33.38,39.964 C33.0359983,39.8119992 32.6320023,39.736 32.168,39.736 C31.3039957,39.736 30.572003,39.9959974 29.972,40.516 C29.371997,41.0360026 29.0400003,41.7039959 28.976,42.52 L34.88,42.52 Z M37.76,43.816 L37.76,44.2 C37.76,44.3280006 37.7520001,44.4559994 37.736,44.584 L28.976,44.584 C29.0080002,45.0000021 29.1159991,45.3799983 29.3,45.724 C29.4840009,46.0680017 29.7279985,46.3639988 30.032,46.612 C30.3360015,46.8600012 30.6799981,47.0559993 31.064,47.2 C31.4480019,47.3440007 31.8479979,47.416 32.264,47.416 C32.9840036,47.416 33.5919975,47.2840013 34.088,47.02 C34.5840025,46.7559987 34.9919984,46.3920023 35.312,45.928 L37.232,47.464 C36.0959943,49.0000077 34.4480108,49.768 32.288,49.768 C31.3919955,49.768 30.5680038,49.6280014 29.816,49.348 C29.0639962,49.0679986 28.4120028,48.6720026 27.86,48.16 C27.3079972,47.6479974 26.8760016,47.0200037 26.564,46.276 C26.2519984,45.5319963 26.096,44.6880047 26.096,43.744 C26.096,42.8159954 26.2519984,41.9720038 26.564,41.212 C26.8760016,40.4519962 27.3039973,39.8040027 27.848,39.268 C28.3920027,38.7319973 29.0359963,38.3160015 29.78,38.02 C30.5240037,37.7239985 31.3279957,37.576 32.192,37.576 C32.992004,37.576 33.7319966,37.7079987 34.412,37.972 C35.0920034,38.2360013 35.6799975,38.6279974 36.176,39.148 C36.6720025,39.6680026 37.0599986,40.3159961 37.34,41.092 C37.6200014,41.8680039 37.76,42.7759948 37.76,43.816 Z M47.552,47.968 L47.48,47.968 C47.1919986,48.4800026 46.7280032,48.8999984 46.088,49.228 C45.4479968,49.5560016 44.7200041,49.72 43.904,49.72 C43.4399977,49.72 42.9560025,49.6600006 42.452,49.54 C41.9479975,49.4199994 41.4840021,49.2200014 41.06,48.94 C40.6359979,48.6599986 40.2840014,48.2920023 40.004,47.836 C39.7239986,47.3799977 39.584,46.8160034 39.584,46.144 C39.584,45.2799957 39.8279976,44.5920026 40.316,44.08 C40.8040024,43.5679974 41.4319962,43.1760014 42.2,42.904 C42.9680038,42.6319986 43.8199953,42.4520004 44.756,42.364 C45.6920047,42.2759996 46.6079955,42.232 47.504,42.232 L47.504,41.944 C47.504,41.2239964 47.2440026,40.6920017 46.724,40.348 C46.2039974,40.0039983 45.5840036,39.832 44.864,39.832 C44.255997,39.832 43.6720028,39.9599987 43.112,40.216 C42.5519972,40.4720013 42.0880018,40.7839982 41.72,41.152 L40.232,39.4 C40.8880033,38.791997 41.6439957,38.3360015 42.5,38.032 C43.3560043,37.7279985 44.2239956,37.576 45.104,37.576 C46.1280051,37.576 46.9719967,37.7199986 47.636,38.008 C48.3000033,38.2960014 48.8239981,38.6719977 49.208,39.136 C49.5920019,39.6000023 49.8599992,40.1199971 50.012,40.696 C50.1640008,41.2720029 50.24,41.8479971 50.24,42.424 L50.24,49.432 L47.552,49.432 L47.552,47.968 Z M47.504,44.176 L46.856,44.176 C46.3919977,44.176 45.9040026,44.1959998 45.392,44.236 C44.8799974,44.2760002 44.4080022,44.3639993 43.976,44.5 C43.5439978,44.6360007 43.1840014,44.8279988 42.896,45.076 C42.6079986,45.3240012 42.464,45.6639978 42.464,46.096 C42.464,46.3680014 42.5239994,46.5959991 42.644,46.78 C42.7640006,46.9640009 42.919999,47.1119994 43.112,47.224 C43.304001,47.3360006 43.5199988,47.4159998 43.76,47.464 C44.0000012,47.5120002 44.2399988,47.536 44.48,47.536 C45.472005,47.536 46.2239974,47.2720026 46.736,46.744 C47.2480026,46.2159974 47.504,45.4960046 47.504,44.584 L47.504,44.176 Z M58.592,44.752 L52.832,44.752 L52.832,42.304 L58.592,42.304 L58.592,44.752 Z M69.152,41.104 C68.9279989,40.7839984 68.5920022,40.5160011 68.144,40.3 C67.6959978,40.0839989 67.2400023,39.976 66.776,39.976 C66.2479974,39.976 65.784002,40.0839989 65.384,40.3 C64.983998,40.5160011 64.6520013,40.7999982 64.388,41.152 C64.1239987,41.5040018 63.9280006,41.8999978 63.8,42.34 C63.6719994,42.7800022 63.608,43.2239978 63.608,43.672 C63.608,44.1200022 63.6759993,44.5639978 63.812,45.004 C63.9480007,45.4440022 64.1519986,45.8399982 64.424,46.192 C64.6960014,46.5440018 65.035998,46.8279989 65.444,47.044 C65.852002,47.2600011 66.3279973,47.368 66.872,47.368 C67.3200022,47.368 67.7679978,47.2800009 68.216,47.104 C68.6640022,46.9279991 69.0239986,46.6720017 69.296,46.336 L71.096,48.16 C70.6159976,48.6720026 70.0040037,49.0679986 69.26,49.348 C68.5159963,49.6280014 67.7120043,49.768 66.848,49.768 C65.9999958,49.768 65.1960038,49.6320014 64.436,49.36 C63.6759962,49.0879986 63.0120028,48.6880026 62.444,48.16 C61.8759972,47.6319974 61.4280016,46.9920038 61.1,46.24 C60.7719984,45.4879962 60.608,44.6320048 60.608,43.672 C60.608,42.7439954 60.7719984,41.9040038 61.1,41.152 C61.4280016,40.3999962 61.8719972,39.7600026 62.432,39.232 C62.9920028,38.7039974 63.6439963,38.2960014 64.388,38.008 C65.1320037,37.7199986 65.9279958,37.576 66.776,37.576 C67.6240042,37.576 68.443996,37.7359984 69.236,38.056 C70.028004,38.3760016 70.6559977,38.8159972 71.12,39.376 L69.152,41.104 Z M80.144,47.968 L80.072,47.968 C79.7839986,48.4800026 79.3200032,48.8999984 78.68,49.228 C78.0399968,49.5560016 77.3120041,49.72 76.496,49.72 C76.0319977,49.72 75.5480025,49.6600006 75.044,49.54 C74.5399975,49.4199994 74.0760021,49.2200014 73.652,48.94 C73.2279979,48.6599986 72.8760014,48.2920023 72.596,47.836 C72.3159986,47.3799977 72.176,46.8160034 72.176,46.144 C72.176,45.2799957 72.4199976,44.5920026 72.908,44.08 C73.3960024,43.5679974 74.0239962,43.1760014 74.792,42.904 C75.5600038,42.6319986 76.4119953,42.4520004 77.348,42.364 C78.2840047,42.2759996 79.1999955,42.232 80.096,42.232 L80.096,41.944 C80.096,41.2239964 79.8360026,40.6920017 79.316,40.348 C78.7959974,40.0039983 78.1760036,39.832 77.456,39.832 C76.847997,39.832 76.2640028,39.9599987 75.704,40.216 C75.1439972,40.4720013 74.6800018,40.7839982 74.312,41.152 L72.824,39.4 C73.4800033,38.791997 74.2359957,38.3360015 75.092,38.032 C75.9480043,37.7279985 76.8159956,37.576 77.696,37.576 C78.7200051,37.576 79.5639967,37.7199986 80.228,38.008 C80.8920033,38.2960014 81.4159981,38.6719977 81.8,39.136 C82.1840019,39.6000023 82.4519992,40.1199971 82.604,40.696 C82.7560008,41.2720029 82.832,41.8479971 82.832,42.424 L82.832,49.432 L80.144,49.432 L80.144,47.968 Z M80.096,44.176 L79.448,44.176 C78.9839977,44.176 78.4960026,44.1959998 77.984,44.236 C77.4719974,44.2760002 77.0000022,44.3639993 76.568,44.5 C76.1359978,44.6360007 75.7760014,44.8279988 75.488,45.076 C75.1999986,45.3240012 75.056,45.6639978 75.056,46.096 C75.056,46.3680014 75.1159994,46.5959991 75.236,46.78 C75.3560006,46.9640009 75.511999,47.1119994 75.704,47.224 C75.896001,47.3360006 76.1119988,47.4159998 76.352,47.464 C76.5920012,47.5120002 76.8319988,47.536 77.072,47.536 C78.064005,47.536 78.8159974,47.2720026 79.328,46.744 C79.8400026,46.2159974 80.096,45.4960046 80.096,44.584 L80.096,44.176 Z M86.192,37.912 L88.952,37.912 L88.952,39.832 L89,39.832 C89.3200016,39.1599966 89.7679971,38.6160021 90.344,38.2 C90.9200029,37.7839979 91.5919962,37.576 92.36,37.576 C92.4720006,37.576 92.5919994,37.58 92.72,37.588 C92.8480006,37.596 92.9599995,37.6159998 93.056,37.648 L93.056,40.288 C92.863999,40.2399998 92.7000007,40.2080001 92.564,40.192 C92.4279993,40.1759999 92.2960006,40.168 92.168,40.168 C91.5119967,40.168 90.984002,40.2879988 90.584,40.528 C90.183998,40.7680012 89.8720011,41.0559983 89.648,41.392 C89.4239989,41.7280017 89.2720004,42.0719982 89.192,42.424 C89.1119996,42.7760018 89.072,43.055999 89.072,43.264 L89.072,49.432 L86.192,49.432 L86.192,37.912 Z M106.208,49.432 L103.472,49.432 L103.472,47.704 L103.424,47.704 C103.023998,48.3760034 102.468004,48.8879982 101.756,49.24 C101.043996,49.5920018 100.280004,49.768 99.464,49.768 C98.5839956,49.768 97.7960035,49.6040016 97.1,49.276 C96.4039965,48.9479984 95.8120024,48.5080028 95.324,47.956 C94.8359976,47.4039972 94.4600013,46.7560037 94.196,46.012 C93.9319987,45.2679963 93.8,44.4720042 93.8,43.624 C93.8,42.7759958 93.9359986,41.9840037 94.208,41.248 C94.4800014,40.5119963 94.8639975,39.8720027 95.36,39.328 C95.8560025,38.7839973 96.4479966,38.3560016 97.136,38.044 C97.8240034,37.7319984 98.5759959,37.576 99.392,37.576 C99.9200026,37.576 100.391998,37.6359994 100.808,37.756 C101.224002,37.8760006 101.587998,38.0239991 101.9,38.2 C102.212002,38.3760009 102.479999,38.567999 102.704,38.776 C102.928001,38.984001 103.111999,39.183999 103.256,39.376 L103.328,39.376 L103.328,31.288 L106.208,31.288 L106.208,49.432 Z M96.728,43.624 C96.728,44.0720022 96.7959993,44.5199978 96.932,44.968 C97.0680007,45.4160022 97.2719986,45.8159982 97.544,46.168 C97.8160014,46.5200018 98.1599979,46.8079989 98.576,47.032 C98.9920021,47.2560011 99.4799972,47.368 100.04,47.368 C100.568003,47.368 101.039998,47.2600011 101.456,47.044 C101.872002,46.8279989 102.227999,46.5440018 102.524,46.192 C102.820001,45.8399982 103.043999,45.4440022 103.196,45.004 C103.348001,44.5639978 103.424,44.1200022 103.424,43.672 C103.424,43.2239978 103.348001,42.7760022 103.196,42.328 C103.043999,41.8799978 102.820001,41.4800018 102.524,41.128 C102.227999,40.7759982 101.872002,40.4880011 101.456,40.264 C101.039998,40.0399989 100.568003,39.928 100.04,39.928 C99.4799972,39.928 98.9920021,40.0359989 98.576,40.252 C98.1599979,40.4680011 97.8160014,40.7519982 97.544,41.104 C97.2719986,41.4560018 97.0680007,41.8519978 96.932,42.292 C96.7959993,42.7320022 96.728,43.1759978 96.728,43.624 Z M114.704,44.752 L108.944,44.752 L108.944,42.304 L114.704,42.304 L114.704,44.752 Z M117.848,40.216 L115.664,40.216 L115.664,37.912 L117.848,37.912 L117.848,36.208 C117.848,35.5199966 117.923999,34.8600032 118.076,34.228 C118.228001,33.5959968 118.483998,33.0400024 118.844,32.56 C119.204002,32.0799976 119.679997,31.7000014 120.272,31.42 C120.864003,31.1399986 121.607996,31 122.504,31 C122.824002,31 123.091999,31.0119999 123.308,31.036 C123.524001,31.0600001 123.743999,31.1039997 123.968,31.168 L123.776,33.616 C123.615999,33.5679998 123.444001,33.5280002 123.26,33.496 C123.075999,33.4639998 122.880001,33.448 122.672,33.448 C122.255998,33.448 121.920001,33.5279992 121.664,33.688 C121.407999,33.8480008 121.212001,34.0559987 121.076,34.312 C120.939999,34.5680013 120.848,34.8479985 120.8,35.152 C120.752,35.4560015 120.728,35.7519986 120.728,36.04 L120.728,37.912 L123.392,37.912 L123.392,40.216 L120.728,40.216 L120.728,49.432 L117.848,49.432 L117.848,40.216 Z M124.496,43.624 C124.496,42.7119954 124.659998,41.8840037 124.988,41.14 C125.316002,40.3959963 125.759997,39.7600026 126.32,39.232 C126.880003,38.7039974 127.543996,38.2960014 128.312,38.008 C129.080004,37.7199986 129.895996,37.576 130.76,37.576 C131.624004,37.576 132.439996,37.7199986 133.208,38.008 C133.976004,38.2960014 134.639997,38.7039974 135.2,39.232 C135.760003,39.7600026 136.203998,40.3959963 136.532,41.14 C136.860002,41.8840037 137.024,42.7119954 137.024,43.624 C137.024,44.5360046 136.860002,45.3679962 136.532,46.12 C136.203998,46.8720038 135.760003,47.5159973 135.2,48.052 C134.639997,48.5880027 133.976004,49.0079985 133.208,49.312 C132.439996,49.6160015 131.624004,49.768 130.76,49.768 C129.895996,49.768 129.080004,49.6160015 128.312,49.312 C127.543996,49.0079985 126.880003,48.5880027 126.32,48.052 C125.759997,47.5159973 125.316002,46.8720038 124.988,46.12 C124.659998,45.3679962 124.496,44.5360046 124.496,43.624 Z M127.424,43.624 C127.424,44.0720022 127.491999,44.5199978 127.628,44.968 C127.764001,45.4160022 127.967999,45.8159982 128.24,46.168 C128.512001,46.5200018 128.855998,46.8079989 129.272,47.032 C129.688002,47.2560011 130.183997,47.368 130.76,47.368 C131.336003,47.368 131.831998,47.2560011 132.248,47.032 C132.664002,46.8079989 133.007999,46.5200018 133.28,46.168 C133.552001,45.8159982 133.755999,45.4160022 133.892,44.968 C134.028001,44.5199978 134.096,44.0720022 134.096,43.624 C134.096,43.1759978 134.028001,42.7320022 133.892,42.292 C133.755999,41.8519978 133.552001,41.4560018 133.28,41.104 C133.007999,40.7519982 132.664002,40.4680011 132.248,40.252 C131.831998,40.0359989 131.336003,39.928 130.76,39.928 C130.183997,39.928 129.688002,40.0359989 129.272,40.252 C128.855998,40.4680011 128.512001,40.7519982 128.24,41.104 C127.967999,41.4560018 127.764001,41.8519978 127.628,42.292 C127.491999,42.7320022 127.424,43.1759978 127.424,43.624 Z M139.136,43.624 C139.136,42.7119954 139.299998,41.8840037 139.628,41.14 C139.956002,40.3959963 140.399997,39.7600026 140.96,39.232 C141.520003,38.7039974 142.183996,38.2960014 142.952,38.008 C143.720004,37.7199986 144.535996,37.576 145.4,37.576 C146.264004,37.576 147.079996,37.7199986 147.848,38.008 C148.616004,38.2960014 149.279997,38.7039974 149.84,39.232 C150.400003,39.7600026 150.843998,40.3959963 151.172,41.14 C151.500002,41.8840037 151.664,42.7119954 151.664,43.624 C151.664,44.5360046 151.500002,45.3679962 151.172,46.12 C150.843998,46.8720038 150.400003,47.5159973 149.84,48.052 C149.279997,48.5880027 148.616004,49.0079985 147.848,49.312 C147.079996,49.6160015 146.264004,49.768 145.4,49.768 C144.535996,49.768 143.720004,49.6160015 142.952,49.312 C142.183996,49.0079985 141.520003,48.5880027 140.96,48.052 C140.399997,47.5159973 139.956002,46.8720038 139.628,46.12 C139.299998,45.3679962 139.136,44.5360046 139.136,43.624 Z M142.064,43.624 C142.064,44.0720022 142.131999,44.5199978 142.268,44.968 C142.404001,45.4160022 142.607999,45.8159982 142.88,46.168 C143.152001,46.5200018 143.495998,46.8079989 143.912,47.032 C144.328002,47.2560011 144.823997,47.368 145.4,47.368 C145.976003,47.368 146.471998,47.2560011 146.888,47.032 C147.304002,46.8079989 147.647999,46.5200018 147.92,46.168 C148.192001,45.8159982 148.395999,45.4160022 148.532,44.968 C148.668001,44.5199978 148.736,44.0720022 148.736,43.624 C148.736,43.1759978 148.668001,42.7320022 148.532,42.292 C148.395999,41.8519978 148.192001,41.4560018 147.92,41.104 C147.647999,40.7519982 147.304002,40.4680011 146.888,40.252 C146.471998,40.0359989 145.976003,39.928 145.4,39.928 C144.823997,39.928 144.328002,40.0359989 143.912,40.252 C143.495998,40.4680011 143.152001,40.7519982 142.88,41.104 C142.607999,41.4560018 142.404001,41.8519978 142.268,42.292 C142.131999,42.7320022 142.064,43.1759978 142.064,43.624 Z M152.792,40.216 L152.792,37.912 L154.808,37.912 L154.808,34.576 L157.64,34.576 L157.64,37.912 L160.52,37.912 L160.52,40.216 L157.64,40.216 L157.64,45.568 C157.64,46.0800026 157.731999,46.5039983 157.916,46.84 C158.100001,47.1760017 158.511997,47.344 159.152,47.344 C159.344001,47.344 159.551999,47.3240002 159.776,47.284 C160.000001,47.2439998 160.199999,47.1840004 160.376,47.104 L160.472,49.36 C160.215999,49.4560005 159.912002,49.5319997 159.56,49.588 C159.207998,49.6440003 158.872002,49.672 158.552,49.672 C157.783996,49.672 157.160002,49.5640011 156.68,49.348 C156.199998,49.1319989 155.820001,48.8360019 155.54,48.46 C155.259999,48.0839981 155.068001,47.6520024 154.964,47.164 C154.859999,46.6759976 154.808,46.1520028 154.808,45.592 L154.808,40.216 L152.792,40.216 Z M170.72,42.52 C170.72,42.1519982 170.668001,41.8000017 170.564,41.464 C170.459999,41.1279983 170.296001,40.8320013 170.072,40.576 C169.847999,40.3199987 169.564002,40.1160008 169.22,39.964 C168.875998,39.8119992 168.472002,39.736 168.008,39.736 C167.143996,39.736 166.412003,39.9959974 165.812,40.516 C165.211997,41.0360026 164.88,41.7039959 164.816,42.52 L170.72,42.52 Z M173.6,43.816 L173.6,44.2 C173.6,44.3280006 173.592,44.4559994 173.576,44.584 L164.816,44.584 C164.848,45.0000021 164.955999,45.3799983 165.14,45.724 C165.324001,46.0680017 165.567998,46.3639988 165.872,46.612 C166.176002,46.8600012 166.519998,47.0559993 166.904,47.2 C167.288002,47.3440007 167.687998,47.416 168.104,47.416 C168.824004,47.416 169.431998,47.2840013 169.928,47.02 C170.424002,46.7559987 170.831998,46.3920023 171.152,45.928 L173.072,47.464 C171.935994,49.0000077 170.288011,49.768 168.128,49.768 C167.231996,49.768 166.408004,49.6280014 165.656,49.348 C164.903996,49.0679986 164.252003,48.6720026 163.7,48.16 C163.147997,47.6479974 162.716002,47.0200037 162.404,46.276 C162.091998,45.5319963 161.936,44.6880047 161.936,43.744 C161.936,42.8159954 162.091998,41.9720038 162.404,41.212 C162.716002,40.4519962 163.143997,39.8040027 163.688,39.268 C164.232003,38.7319973 164.875996,38.3160015 165.62,38.02 C166.364004,37.7239985 167.167996,37.576 168.032,37.576 C168.832004,37.576 169.571997,37.7079987 170.252,37.972 C170.932003,38.2360013 171.519998,38.6279974 172.016,39.148 C172.512002,39.6680026 172.899999,40.3159961 173.18,41.092 C173.460001,41.8680039 173.6,42.7759948 173.6,43.816 Z M176.384,37.912 L179.144,37.912 L179.144,39.832 L179.192,39.832 C179.512002,39.1599966 179.959997,38.6160021 180.536,38.2 C181.112003,37.7839979 181.783996,37.576 182.552,37.576 C182.664001,37.576 182.783999,37.58 182.912,37.588 C183.040001,37.596 183.152,37.6159998 183.248,37.648 L183.248,40.288 C183.055999,40.2399998 182.892001,40.2080001 182.756,40.192 C182.619999,40.1759999 182.488001,40.168 182.36,40.168 C181.703997,40.168 181.176002,40.2879988 180.776,40.528 C180.375998,40.7680012 180.064001,41.0559983 179.84,41.392 C179.615999,41.7280017 179.464,42.0719982 179.384,42.424 C179.304,42.7760018 179.264,43.055999 179.264,43.264 L179.264,49.432 L176.384,49.432 L176.384,37.912 Z" fill="#000000"></path>
                    </g>
                    <g id=".ea-card-content" transform="translate(0.000000, 66.000000)" opacity="0.15">
                        <g stroke-dasharray="4,4">
                            <use fill="black" fill-opacity="1" filter="url(#filter-6)" xlink:href="#path-5"></use>
                            <use stroke="#000000" mask="url(#mask-7)" stroke-width="4" fill-opacity="0.200000018" fill="#BCBCBC" fill-rule="evenodd" xlink:href="#path-5"></use>
                        </g>
                        <path d="M20,26.464 C20,25.9519974 20.1879981,25.5120018 20.564,25.144 C20.9400019,24.7759982 21.3919974,24.592 21.92,24.592 C22.4320026,24.592 22.8799981,24.7679982 23.264,25.12 C23.6480019,25.4720018 23.84,25.9039974 23.84,26.416 C23.84,26.9280026 23.6520019,27.3679982 23.276,27.736 C22.8999981,28.1040018 22.4480026,28.288 21.92,28.288 C21.6639987,28.288 21.4200012,28.2400005 21.188,28.144 C20.9559988,28.0479995 20.7520009,27.9200008 20.576,27.76 C20.3999991,27.5999992 20.2600005,27.4080011 20.156,27.184 C20.0519995,26.9599989 20,26.7200013 20,26.464 Z M34.88,21.232 C34.88,20.8639982 34.8280005,20.5120017 34.724,20.176 C34.6199995,19.8399983 34.4560011,19.5440013 34.232,19.288 C34.0079989,19.0319987 33.7240017,18.8280008 33.38,18.676 C33.0359983,18.5239992 32.6320023,18.448 32.168,18.448 C31.3039957,18.448 30.572003,18.7079974 29.972,19.228 C29.371997,19.7480026 29.0400003,20.4159959 28.976,21.232 L34.88,21.232 Z M37.76,22.528 L37.76,22.912 C37.76,23.0400006 37.7520001,23.1679994 37.736,23.296 L28.976,23.296 C29.0080002,23.7120021 29.1159991,24.0919983 29.3,24.436 C29.4840009,24.7800017 29.7279985,25.0759988 30.032,25.324 C30.3360015,25.5720012 30.6799981,25.7679993 31.064,25.912 C31.4480019,26.0560007 31.8479979,26.128 32.264,26.128 C32.9840036,26.128 33.5919975,25.9960013 34.088,25.732 C34.5840025,25.4679987 34.9919984,25.1040023 35.312,24.64 L37.232,26.176 C36.0959943,27.7120077 34.4480108,28.48 32.288,28.48 C31.3919955,28.48 30.5680038,28.3400014 29.816,28.06 C29.0639962,27.7799986 28.4120028,27.3840026 27.86,26.872 C27.3079972,26.3599974 26.8760016,25.7320037 26.564,24.988 C26.2519984,24.2439963 26.096,23.4000047 26.096,22.456 C26.096,21.5279954 26.2519984,20.6840038 26.564,19.924 C26.8760016,19.1639962 27.3039973,18.5160027 27.848,17.98 C28.3920027,17.4439973 29.0359963,17.0280015 29.78,16.732 C30.5240037,16.4359985 31.3279957,16.288 32.192,16.288 C32.992004,16.288 33.7319966,16.4199987 34.412,16.684 C35.0920034,16.9480013 35.6799975,17.3399974 36.176,17.86 C36.6720025,18.3800026 37.0599986,19.0279961 37.34,19.804 C37.6200014,20.5800039 37.76,21.4879948 37.76,22.528 Z M47.552,26.68 L47.48,26.68 C47.1919986,27.1920026 46.7280032,27.6119984 46.088,27.94 C45.4479968,28.2680016 44.7200041,28.432 43.904,28.432 C43.4399977,28.432 42.9560025,28.3720006 42.452,28.252 C41.9479975,28.1319994 41.4840021,27.9320014 41.06,27.652 C40.6359979,27.3719986 40.2840014,27.0040023 40.004,26.548 C39.7239986,26.0919977 39.584,25.5280034 39.584,24.856 C39.584,23.9919957 39.8279976,23.3040026 40.316,22.792 C40.8040024,22.2799974 41.4319962,21.8880014 42.2,21.616 C42.9680038,21.3439986 43.8199953,21.1640004 44.756,21.076 C45.6920047,20.9879996 46.6079955,20.944 47.504,20.944 L47.504,20.656 C47.504,19.9359964 47.2440026,19.4040017 46.724,19.06 C46.2039974,18.7159983 45.5840036,18.544 44.864,18.544 C44.255997,18.544 43.6720028,18.6719987 43.112,18.928 C42.5519972,19.1840013 42.0880018,19.4959982 41.72,19.864 L40.232,18.112 C40.8880033,17.503997 41.6439957,17.0480015 42.5,16.744 C43.3560043,16.4399985 44.2239956,16.288 45.104,16.288 C46.1280051,16.288 46.9719967,16.4319986 47.636,16.72 C48.3000033,17.0080014 48.8239981,17.3839977 49.208,17.848 C49.5920019,18.3120023 49.8599992,18.8319971 50.012,19.408 C50.1640008,19.9840029 50.24,20.5599971 50.24,21.136 L50.24,28.144 L47.552,28.144 L47.552,26.68 Z M47.504,22.888 L46.856,22.888 C46.3919977,22.888 45.9040026,22.9079998 45.392,22.948 C44.8799974,22.9880002 44.4080022,23.0759993 43.976,23.212 C43.5439978,23.3480007 43.1840014,23.5399988 42.896,23.788 C42.6079986,24.0360012 42.464,24.3759978 42.464,24.808 C42.464,25.0800014 42.5239994,25.3079991 42.644,25.492 C42.7640006,25.6760009 42.919999,25.8239994 43.112,25.936 C43.304001,26.0480006 43.5199988,26.1279998 43.76,26.176 C44.0000012,26.2240002 44.2399988,26.248 44.48,26.248 C45.472005,26.248 46.2239974,25.9840026 46.736,25.456 C47.2480026,24.9279974 47.504,24.2080046 47.504,23.296 L47.504,22.888 Z M58.592,23.464 L52.832,23.464 L52.832,21.016 L58.592,21.016 L58.592,23.464 Z M69.152,19.816 C68.9279989,19.4959984 68.5920022,19.2280011 68.144,19.012 C67.6959978,18.7959989 67.2400023,18.688 66.776,18.688 C66.2479974,18.688 65.784002,18.7959989 65.384,19.012 C64.983998,19.2280011 64.6520013,19.5119982 64.388,19.864 C64.1239987,20.2160018 63.9280006,20.6119978 63.8,21.052 C63.6719994,21.4920022 63.608,21.9359978 63.608,22.384 C63.608,22.8320022 63.6759993,23.2759978 63.812,23.716 C63.9480007,24.1560022 64.1519986,24.5519982 64.424,24.904 C64.6960014,25.2560018 65.035998,25.5399989 65.444,25.756 C65.852002,25.9720011 66.3279973,26.08 66.872,26.08 C67.3200022,26.08 67.7679978,25.9920009 68.216,25.816 C68.6640022,25.6399991 69.0239986,25.3840017 69.296,25.048 L71.096,26.872 C70.6159976,27.3840026 70.0040037,27.7799986 69.26,28.06 C68.5159963,28.3400014 67.7120043,28.48 66.848,28.48 C65.9999958,28.48 65.1960038,28.3440014 64.436,28.072 C63.6759962,27.7999986 63.0120028,27.4000026 62.444,26.872 C61.8759972,26.3439974 61.4280016,25.7040038 61.1,24.952 C60.7719984,24.1999962 60.608,23.3440048 60.608,22.384 C60.608,21.4559954 60.7719984,20.6160038 61.1,19.864 C61.4280016,19.1119962 61.8719972,18.4720026 62.432,17.944 C62.9920028,17.4159974 63.6439963,17.0080014 64.388,16.72 C65.1320037,16.4319986 65.9279958,16.288 66.776,16.288 C67.6240042,16.288 68.443996,16.4479984 69.236,16.768 C70.028004,17.0880016 70.6559977,17.5279972 71.12,18.088 L69.152,19.816 Z M80.144,26.68 L80.072,26.68 C79.7839986,27.1920026 79.3200032,27.6119984 78.68,27.94 C78.0399968,28.2680016 77.3120041,28.432 76.496,28.432 C76.0319977,28.432 75.5480025,28.3720006 75.044,28.252 C74.5399975,28.1319994 74.0760021,27.9320014 73.652,27.652 C73.2279979,27.3719986 72.8760014,27.0040023 72.596,26.548 C72.3159986,26.0919977 72.176,25.5280034 72.176,24.856 C72.176,23.9919957 72.4199976,23.3040026 72.908,22.792 C73.3960024,22.2799974 74.0239962,21.8880014 74.792,21.616 C75.5600038,21.3439986 76.4119953,21.1640004 77.348,21.076 C78.2840047,20.9879996 79.1999955,20.944 80.096,20.944 L80.096,20.656 C80.096,19.9359964 79.8360026,19.4040017 79.316,19.06 C78.7959974,18.7159983 78.1760036,18.544 77.456,18.544 C76.847997,18.544 76.2640028,18.6719987 75.704,18.928 C75.1439972,19.1840013 74.6800018,19.4959982 74.312,19.864 L72.824,18.112 C73.4800033,17.503997 74.2359957,17.0480015 75.092,16.744 C75.9480043,16.4399985 76.8159956,16.288 77.696,16.288 C78.7200051,16.288 79.5639967,16.4319986 80.228,16.72 C80.8920033,17.0080014 81.4159981,17.3839977 81.8,17.848 C82.1840019,18.3120023 82.4519992,18.8319971 82.604,19.408 C82.7560008,19.9840029 82.832,20.5599971 82.832,21.136 L82.832,28.144 L80.144,28.144 L80.144,26.68 Z M80.096,22.888 L79.448,22.888 C78.9839977,22.888 78.4960026,22.9079998 77.984,22.948 C77.4719974,22.9880002 77.0000022,23.0759993 76.568,23.212 C76.1359978,23.3480007 75.7760014,23.5399988 75.488,23.788 C75.1999986,24.0360012 75.056,24.3759978 75.056,24.808 C75.056,25.0800014 75.1159994,25.3079991 75.236,25.492 C75.3560006,25.6760009 75.511999,25.8239994 75.704,25.936 C75.896001,26.0480006 76.1119988,26.1279998 76.352,26.176 C76.5920012,26.2240002 76.8319988,26.248 77.072,26.248 C78.064005,26.248 78.8159974,25.9840026 79.328,25.456 C79.8400026,24.9279974 80.096,24.2080046 80.096,23.296 L80.096,22.888 Z M86.192,16.624 L88.952,16.624 L88.952,18.544 L89,18.544 C89.3200016,17.8719966 89.7679971,17.3280021 90.344,16.912 C90.9200029,16.4959979 91.5919962,16.288 92.36,16.288 C92.4720006,16.288 92.5919994,16.292 92.72,16.3 C92.8480006,16.308 92.9599995,16.3279998 93.056,16.36 L93.056,19 C92.863999,18.9519998 92.7000007,18.9200001 92.564,18.904 C92.4279993,18.8879999 92.2960006,18.88 92.168,18.88 C91.5119967,18.88 90.984002,18.9999988 90.584,19.24 C90.183998,19.4800012 89.8720011,19.7679983 89.648,20.104 C89.4239989,20.4400017 89.2720004,20.7839982 89.192,21.136 C89.1119996,21.4880018 89.072,21.767999 89.072,21.976 L89.072,28.144 L86.192,28.144 L86.192,16.624 Z M106.208,28.144 L103.472,28.144 L103.472,26.416 L103.424,26.416 C103.023998,27.0880034 102.468004,27.5999982 101.756,27.952 C101.043996,28.3040018 100.280004,28.48 99.464,28.48 C98.5839956,28.48 97.7960035,28.3160016 97.1,27.988 C96.4039965,27.6599984 95.8120024,27.2200028 95.324,26.668 C94.8359976,26.1159972 94.4600013,25.4680037 94.196,24.724 C93.9319987,23.9799963 93.8,23.1840042 93.8,22.336 C93.8,21.4879958 93.9359986,20.6960037 94.208,19.96 C94.4800014,19.2239963 94.8639975,18.5840027 95.36,18.04 C95.8560025,17.4959973 96.4479966,17.0680016 97.136,16.756 C97.8240034,16.4439984 98.5759959,16.288 99.392,16.288 C99.9200026,16.288 100.391998,16.3479994 100.808,16.468 C101.224002,16.5880006 101.587998,16.7359991 101.9,16.912 C102.212002,17.0880009 102.479999,17.279999 102.704,17.488 C102.928001,17.696001 103.111999,17.895999 103.256,18.088 L103.328,18.088 L103.328,10 L106.208,10 L106.208,28.144 Z M96.728,22.336 C96.728,22.7840022 96.7959993,23.2319978 96.932,23.68 C97.0680007,24.1280022 97.2719986,24.5279982 97.544,24.88 C97.8160014,25.2320018 98.1599979,25.5199989 98.576,25.744 C98.9920021,25.9680011 99.4799972,26.08 100.04,26.08 C100.568003,26.08 101.039998,25.9720011 101.456,25.756 C101.872002,25.5399989 102.227999,25.2560018 102.524,24.904 C102.820001,24.5519982 103.043999,24.1560022 103.196,23.716 C103.348001,23.2759978 103.424,22.8320022 103.424,22.384 C103.424,21.9359978 103.348001,21.4880022 103.196,21.04 C103.043999,20.5919978 102.820001,20.1920018 102.524,19.84 C102.227999,19.4879982 101.872002,19.2000011 101.456,18.976 C101.039998,18.7519989 100.568003,18.64 100.04,18.64 C99.4799972,18.64 98.9920021,18.7479989 98.576,18.964 C98.1599979,19.1800011 97.8160014,19.4639982 97.544,19.816 C97.2719986,20.1680018 97.0680007,20.5639978 96.932,21.004 C96.7959993,21.4440022 96.728,21.8879978 96.728,22.336 Z M114.704,23.464 L108.944,23.464 L108.944,21.016 L114.704,21.016 L114.704,23.464 Z M125.264,19.816 C125.039999,19.4959984 124.704002,19.2280011 124.256,19.012 C123.807998,18.7959989 123.352002,18.688 122.888,18.688 C122.359997,18.688 121.896002,18.7959989 121.496,19.012 C121.095998,19.2280011 120.764001,19.5119982 120.5,19.864 C120.235999,20.2160018 120.040001,20.6119978 119.912,21.052 C119.783999,21.4920022 119.72,21.9359978 119.72,22.384 C119.72,22.8320022 119.787999,23.2759978 119.924,23.716 C120.060001,24.1560022 120.263999,24.5519982 120.536,24.904 C120.808001,25.2560018 121.147998,25.5399989 121.556,25.756 C121.964002,25.9720011 122.439997,26.08 122.984,26.08 C123.432002,26.08 123.879998,25.9920009 124.328,25.816 C124.776002,25.6399991 125.135999,25.3840017 125.408,25.048 L127.208,26.872 C126.727998,27.3840026 126.116004,27.7799986 125.372,28.06 C124.627996,28.3400014 123.824004,28.48 122.96,28.48 C122.111996,28.48 121.308004,28.3440014 120.548,28.072 C119.787996,27.7999986 119.124003,27.4000026 118.556,26.872 C117.987997,26.3439974 117.540002,25.7040038 117.212,24.952 C116.883998,24.1999962 116.72,23.3440048 116.72,22.384 C116.72,21.4559954 116.883998,20.6160038 117.212,19.864 C117.540002,19.1119962 117.983997,18.4720026 118.544,17.944 C119.104003,17.4159974 119.755996,17.0080014 120.5,16.72 C121.244004,16.4319986 122.039996,16.288 122.888,16.288 C123.736004,16.288 124.555996,16.4479984 125.348,16.768 C126.140004,17.0880016 126.767998,17.5279972 127.232,18.088 L125.264,19.816 Z M128.432,22.336 C128.432,21.4239954 128.595998,20.5960037 128.924,19.852 C129.252002,19.1079963 129.695997,18.4720026 130.256,17.944 C130.816003,17.4159974 131.479996,17.0080014 132.248,16.72 C133.016004,16.4319986 133.831996,16.288 134.696,16.288 C135.560004,16.288 136.375996,16.4319986 137.144,16.72 C137.912004,17.0080014 138.575997,17.4159974 139.136,17.944 C139.696003,18.4720026 140.139998,19.1079963 140.468,19.852 C140.796002,20.5960037 140.96,21.4239954 140.96,22.336 C140.96,23.2480046 140.796002,24.0799962 140.468,24.832 C140.139998,25.5840038 139.696003,26.2279973 139.136,26.764 C138.575997,27.3000027 137.912004,27.7199985 137.144,28.024 C136.375996,28.3280015 135.560004,28.48 134.696,28.48 C133.831996,28.48 133.016004,28.3280015 132.248,28.024 C131.479996,27.7199985 130.816003,27.3000027 130.256,26.764 C129.695997,26.2279973 129.252002,25.5840038 128.924,24.832 C128.595998,24.0799962 128.432,23.2480046 128.432,22.336 Z M131.36,22.336 C131.36,22.7840022 131.427999,23.2319978 131.564,23.68 C131.700001,24.1280022 131.903999,24.5279982 132.176,24.88 C132.448001,25.2320018 132.791998,25.5199989 133.208,25.744 C133.624002,25.9680011 134.119997,26.08 134.696,26.08 C135.272003,26.08 135.767998,25.9680011 136.184,25.744 C136.600002,25.5199989 136.943999,25.2320018 137.216,24.88 C137.488001,24.5279982 137.691999,24.1280022 137.828,23.68 C137.964001,23.2319978 138.032,22.7840022 138.032,22.336 C138.032,21.8879978 137.964001,21.4440022 137.828,21.004 C137.691999,20.5639978 137.488001,20.1680018 137.216,19.816 C136.943999,19.4639982 136.600002,19.1800011 136.184,18.964 C135.767998,18.7479989 135.272003,18.64 134.696,18.64 C134.119997,18.64 133.624002,18.7479989 133.208,18.964 C132.791998,19.1800011 132.448001,19.4639982 132.176,19.816 C131.903999,20.1680018 131.700001,20.5639978 131.564,21.004 C131.427999,21.4440022 131.36,21.8879978 131.36,22.336 Z M143.744,16.624 L146.48,16.624 L146.48,18.472 L146.528,18.472 C146.784001,17.8959971 147.227997,17.3880022 147.86,16.948 C148.492003,16.5079978 149.239996,16.288 150.104,16.288 C150.856004,16.288 151.499997,16.4199987 152.036,16.684 C152.572003,16.9480013 153.011998,17.2959978 153.356,17.728 C153.700002,18.1600022 153.951999,18.6559972 154.112,19.216 C154.272001,19.7760028 154.352,20.351997 154.352,20.944 L154.352,28.144 L151.472,28.144 L151.472,21.76 C151.472,21.4239983 151.448,21.0720018 151.4,20.704 C151.352,20.3359982 151.248001,20.0040015 151.088,19.708 C150.927999,19.4119985 150.708001,19.168001 150.428,18.976 C150.147999,18.783999 149.776002,18.688 149.312,18.688 C148.847998,18.688 148.448002,18.7799991 148.112,18.964 C147.775998,19.1480009 147.500001,19.3839986 147.284,19.672 C147.067999,19.9600014 146.904001,20.2919981 146.792,20.668 C146.679999,21.0440019 146.624,21.4239981 146.624,21.808 L146.624,28.144 L143.744,28.144 L143.744,16.624 Z M156.056,18.928 L156.056,16.624 L158.072,16.624 L158.072,13.288 L160.904,13.288 L160.904,16.624 L163.784,16.624 L163.784,18.928 L160.904,18.928 L160.904,24.28 C160.904,24.7920026 160.995999,25.2159983 161.18,25.552 C161.364001,25.8880017 161.775997,26.056 162.416,26.056 C162.608001,26.056 162.815999,26.0360002 163.04,25.996 C163.264001,25.9559998 163.463999,25.8960004 163.64,25.816 L163.736,28.072 C163.479999,28.1680005 163.176002,28.2439997 162.824,28.3 C162.471998,28.3560003 162.136002,28.384 161.816,28.384 C161.047996,28.384 160.424002,28.2760011 159.944,28.06 C159.463998,27.8439989 159.084001,27.5480019 158.804,27.172 C158.523999,26.7959981 158.332001,26.3640024 158.228,25.876 C158.123999,25.3879976 158.072,24.8640028 158.072,24.304 L158.072,18.928 L156.056,18.928 Z M173.984,21.232 C173.984,20.8639982 173.932001,20.5120017 173.828,20.176 C173.723999,19.8399983 173.560001,19.5440013 173.336,19.288 C173.111999,19.0319987 172.828002,18.8280008 172.484,18.676 C172.139998,18.5239992 171.736002,18.448 171.272,18.448 C170.407996,18.448 169.676003,18.7079974 169.076,19.228 C168.475997,19.7480026 168.144,20.4159959 168.08,21.232 L173.984,21.232 Z M176.864,22.528 L176.864,22.912 C176.864,23.0400006 176.856,23.1679994 176.84,23.296 L168.08,23.296 C168.112,23.7120021 168.219999,24.0919983 168.404,24.436 C168.588001,24.7800017 168.831998,25.0759988 169.136,25.324 C169.440002,25.5720012 169.783998,25.7679993 170.168,25.912 C170.552002,26.0560007 170.951998,26.128 171.368,26.128 C172.088004,26.128 172.695998,25.9960013 173.192,25.732 C173.688002,25.4679987 174.095998,25.1040023 174.416,24.64 L176.336,26.176 C175.199994,27.7120077 173.552011,28.48 171.392,28.48 C170.495996,28.48 169.672004,28.3400014 168.92,28.06 C168.167996,27.7799986 167.516003,27.3840026 166.964,26.872 C166.411997,26.3599974 165.980002,25.7320037 165.668,24.988 C165.355998,24.2439963 165.2,23.4000047 165.2,22.456 C165.2,21.5279954 165.355998,20.6840038 165.668,19.924 C165.980002,19.1639962 166.407997,18.5160027 166.952,17.98 C167.496003,17.4439973 168.139996,17.0280015 168.884,16.732 C169.628004,16.4359985 170.431996,16.288 171.296,16.288 C172.096004,16.288 172.835997,16.4199987 173.516,16.684 C174.196003,16.9480013 174.783998,17.3399974 175.28,17.86 C175.776002,18.3800026 176.163999,19.0279961 176.444,19.804 C176.724001,20.5800039 176.864,21.4879948 176.864,22.528 Z M179.648,16.624 L182.384,16.624 L182.384,18.472 L182.432,18.472 C182.688001,17.8959971 183.131997,17.3880022 183.764,16.948 C184.396003,16.5079978 185.143996,16.288 186.008,16.288 C186.760004,16.288 187.403997,16.4199987 187.94,16.684 C188.476003,16.9480013 188.915998,17.2959978 189.26,17.728 C189.604002,18.1600022 189.855999,18.6559972 190.016,19.216 C190.176001,19.7760028 190.256,20.351997 190.256,20.944 L190.256,28.144 L187.376,28.144 L187.376,21.76 C187.376,21.4239983 187.352,21.0720018 187.304,20.704 C187.256,20.3359982 187.152001,20.0040015 186.992,19.708 C186.831999,19.4119985 186.612001,19.168001 186.332,18.976 C186.051999,18.783999 185.680002,18.688 185.216,18.688 C184.751998,18.688 184.352002,18.7799991 184.016,18.964 C183.679998,19.1480009 183.404001,19.3839986 183.188,19.672 C182.971999,19.9600014 182.808001,20.2919981 182.696,20.668 C182.583999,21.0440019 182.528,21.4239981 182.528,21.808 L182.528,28.144 L179.648,28.144 L179.648,16.624 Z M191.96,18.928 L191.96,16.624 L193.976,16.624 L193.976,13.288 L196.808,13.288 L196.808,16.624 L199.688,16.624 L199.688,18.928 L196.808,18.928 L196.808,24.28 C196.808,24.7920026 196.899999,25.2159983 197.084,25.552 C197.268001,25.8880017 197.679997,26.056 198.32,26.056 C198.512001,26.056 198.719999,26.0360002 198.944,25.996 C199.168001,25.9559998 199.367999,25.8960004 199.544,25.816 L199.64,28.072 C199.383999,28.1680005 199.080002,28.2439997 198.728,28.3 C198.375998,28.3560003 198.040002,28.384 197.72,28.384 C196.951996,28.384 196.328002,28.2760011 195.848,28.06 C195.367998,27.8439989 194.988001,27.5480019 194.708,27.172 C194.427999,26.7959981 194.236001,26.3640024 194.132,25.876 C194.027999,25.3879976 193.976,24.8640028 193.976,24.304 L193.976,18.928 L191.96,18.928 Z" fill="#000000"></path>
                    </g>
                    <g id=".ea-card-header">
                        <g stroke-dasharray="4,4">
                            <use fill="black" fill-opacity="1" filter="url(#filter-9)" xlink:href="#path-8"></use>
                            <use stroke="#000000" mask="url(#mask-10)" stroke-width="4" fill-opacity="0.100000001" fill="#BCBCBC" fill-rule="evenodd" xlink:href="#path-8"></use>
                        </g>
                        <path d="M20,38.464 C20,37.9519974 20.1879981,37.5120018 20.564,37.144 C20.9400019,36.7759982 21.3919974,36.592 21.92,36.592 C22.4320026,36.592 22.8799981,36.7679982 23.264,37.12 C23.6480019,37.4720018 23.84,37.9039974 23.84,38.416 C23.84,38.9280026 23.6520019,39.3679982 23.276,39.736 C22.8999981,40.1040018 22.4480026,40.288 21.92,40.288 C21.6639987,40.288 21.4200012,40.2400005 21.188,40.144 C20.9559988,40.0479995 20.7520009,39.9200008 20.576,39.76 C20.3999991,39.5999992 20.2600005,39.4080011 20.156,39.184 C20.0519995,38.9599989 20,38.7200013 20,38.464 Z M34.88,33.232 C34.88,32.8639982 34.8280005,32.5120017 34.724,32.176 C34.6199995,31.8399983 34.4560011,31.5440013 34.232,31.288 C34.0079989,31.0319987 33.7240017,30.8280008 33.38,30.676 C33.0359983,30.5239992 32.6320023,30.448 32.168,30.448 C31.3039957,30.448 30.572003,30.7079974 29.972,31.228 C29.371997,31.7480026 29.0400003,32.4159959 28.976,33.232 L34.88,33.232 Z M37.76,34.528 L37.76,34.912 C37.76,35.0400006 37.7520001,35.1679994 37.736,35.296 L28.976,35.296 C29.0080002,35.7120021 29.1159991,36.0919983 29.3,36.436 C29.4840009,36.7800017 29.7279985,37.0759988 30.032,37.324 C30.3360015,37.5720012 30.6799981,37.7679993 31.064,37.912 C31.4480019,38.0560007 31.8479979,38.128 32.264,38.128 C32.9840036,38.128 33.5919975,37.9960013 34.088,37.732 C34.5840025,37.4679987 34.9919984,37.1040023 35.312,36.64 L37.232,38.176 C36.0959943,39.7120077 34.4480108,40.48 32.288,40.48 C31.3919955,40.48 30.5680038,40.3400014 29.816,40.06 C29.0639962,39.7799986 28.4120028,39.3840026 27.86,38.872 C27.3079972,38.3599974 26.8760016,37.7320037 26.564,36.988 C26.2519984,36.2439963 26.096,35.4000047 26.096,34.456 C26.096,33.5279954 26.2519984,32.6840038 26.564,31.924 C26.8760016,31.1639962 27.3039973,30.5160027 27.848,29.98 C28.3920027,29.4439973 29.0359963,29.0280015 29.78,28.732 C30.5240037,28.4359985 31.3279957,28.288 32.192,28.288 C32.992004,28.288 33.7319966,28.4199987 34.412,28.684 C35.0920034,28.9480013 35.6799975,29.3399974 36.176,29.86 C36.6720025,30.3800026 37.0599986,31.0279961 37.34,31.804 C37.6200014,32.5800039 37.76,33.4879948 37.76,34.528 Z M47.552,38.68 L47.48,38.68 C47.1919986,39.1920026 46.7280032,39.6119984 46.088,39.94 C45.4479968,40.2680016 44.7200041,40.432 43.904,40.432 C43.4399977,40.432 42.9560025,40.3720006 42.452,40.252 C41.9479975,40.1319994 41.4840021,39.9320014 41.06,39.652 C40.6359979,39.3719986 40.2840014,39.0040023 40.004,38.548 C39.7239986,38.0919977 39.584,37.5280034 39.584,36.856 C39.584,35.9919957 39.8279976,35.3040026 40.316,34.792 C40.8040024,34.2799974 41.4319962,33.8880014 42.2,33.616 C42.9680038,33.3439986 43.8199953,33.1640004 44.756,33.076 C45.6920047,32.9879996 46.6079955,32.944 47.504,32.944 L47.504,32.656 C47.504,31.9359964 47.2440026,31.4040017 46.724,31.06 C46.2039974,30.7159983 45.5840036,30.544 44.864,30.544 C44.255997,30.544 43.6720028,30.6719987 43.112,30.928 C42.5519972,31.1840013 42.0880018,31.4959982 41.72,31.864 L40.232,30.112 C40.8880033,29.503997 41.6439957,29.0480015 42.5,28.744 C43.3560043,28.4399985 44.2239956,28.288 45.104,28.288 C46.1280051,28.288 46.9719967,28.4319986 47.636,28.72 C48.3000033,29.0080014 48.8239981,29.3839977 49.208,29.848 C49.5920019,30.3120023 49.8599992,30.8319971 50.012,31.408 C50.1640008,31.9840029 50.24,32.5599971 50.24,33.136 L50.24,40.144 L47.552,40.144 L47.552,38.68 Z M47.504,34.888 L46.856,34.888 C46.3919977,34.888 45.9040026,34.9079998 45.392,34.948 C44.8799974,34.9880002 44.4080022,35.0759993 43.976,35.212 C43.5439978,35.3480007 43.1840014,35.5399988 42.896,35.788 C42.6079986,36.0360012 42.464,36.3759978 42.464,36.808 C42.464,37.0800014 42.5239994,37.3079991 42.644,37.492 C42.7640006,37.6760009 42.919999,37.8239994 43.112,37.936 C43.304001,38.0480006 43.5199988,38.1279998 43.76,38.176 C44.0000012,38.2240002 44.2399988,38.248 44.48,38.248 C45.472005,38.248 46.2239974,37.9840026 46.736,37.456 C47.2480026,36.9279974 47.504,36.2080046 47.504,35.296 L47.504,34.888 Z M58.592,35.464 L52.832,35.464 L52.832,33.016 L58.592,33.016 L58.592,35.464 Z M69.152,31.816 C68.9279989,31.4959984 68.5920022,31.2280011 68.144,31.012 C67.6959978,30.7959989 67.2400023,30.688 66.776,30.688 C66.2479974,30.688 65.784002,30.7959989 65.384,31.012 C64.983998,31.2280011 64.6520013,31.5119982 64.388,31.864 C64.1239987,32.2160018 63.9280006,32.6119978 63.8,33.052 C63.6719994,33.4920022 63.608,33.9359978 63.608,34.384 C63.608,34.8320022 63.6759993,35.2759978 63.812,35.716 C63.9480007,36.1560022 64.1519986,36.5519982 64.424,36.904 C64.6960014,37.2560018 65.035998,37.5399989 65.444,37.756 C65.852002,37.9720011 66.3279973,38.08 66.872,38.08 C67.3200022,38.08 67.7679978,37.9920009 68.216,37.816 C68.6640022,37.6399991 69.0239986,37.3840017 69.296,37.048 L71.096,38.872 C70.6159976,39.3840026 70.0040037,39.7799986 69.26,40.06 C68.5159963,40.3400014 67.7120043,40.48 66.848,40.48 C65.9999958,40.48 65.1960038,40.3440014 64.436,40.072 C63.6759962,39.7999986 63.0120028,39.4000026 62.444,38.872 C61.8759972,38.3439974 61.4280016,37.7040038 61.1,36.952 C60.7719984,36.1999962 60.608,35.3440048 60.608,34.384 C60.608,33.4559954 60.7719984,32.6160038 61.1,31.864 C61.4280016,31.1119962 61.8719972,30.4720026 62.432,29.944 C62.9920028,29.4159974 63.6439963,29.0080014 64.388,28.72 C65.1320037,28.4319986 65.9279958,28.288 66.776,28.288 C67.6240042,28.288 68.443996,28.4479984 69.236,28.768 C70.028004,29.0880016 70.6559977,29.5279972 71.12,30.088 L69.152,31.816 Z M80.144,38.68 L80.072,38.68 C79.7839986,39.1920026 79.3200032,39.6119984 78.68,39.94 C78.0399968,40.2680016 77.3120041,40.432 76.496,40.432 C76.0319977,40.432 75.5480025,40.3720006 75.044,40.252 C74.5399975,40.1319994 74.0760021,39.9320014 73.652,39.652 C73.2279979,39.3719986 72.8760014,39.0040023 72.596,38.548 C72.3159986,38.0919977 72.176,37.5280034 72.176,36.856 C72.176,35.9919957 72.4199976,35.3040026 72.908,34.792 C73.3960024,34.2799974 74.0239962,33.8880014 74.792,33.616 C75.5600038,33.3439986 76.4119953,33.1640004 77.348,33.076 C78.2840047,32.9879996 79.1999955,32.944 80.096,32.944 L80.096,32.656 C80.096,31.9359964 79.8360026,31.4040017 79.316,31.06 C78.7959974,30.7159983 78.1760036,30.544 77.456,30.544 C76.847997,30.544 76.2640028,30.6719987 75.704,30.928 C75.1439972,31.1840013 74.6800018,31.4959982 74.312,31.864 L72.824,30.112 C73.4800033,29.503997 74.2359957,29.0480015 75.092,28.744 C75.9480043,28.4399985 76.8159956,28.288 77.696,28.288 C78.7200051,28.288 79.5639967,28.4319986 80.228,28.72 C80.8920033,29.0080014 81.4159981,29.3839977 81.8,29.848 C82.1840019,30.3120023 82.4519992,30.8319971 82.604,31.408 C82.7560008,31.9840029 82.832,32.5599971 82.832,33.136 L82.832,40.144 L80.144,40.144 L80.144,38.68 Z M80.096,34.888 L79.448,34.888 C78.9839977,34.888 78.4960026,34.9079998 77.984,34.948 C77.4719974,34.9880002 77.0000022,35.0759993 76.568,35.212 C76.1359978,35.3480007 75.7760014,35.5399988 75.488,35.788 C75.1999986,36.0360012 75.056,36.3759978 75.056,36.808 C75.056,37.0800014 75.1159994,37.3079991 75.236,37.492 C75.3560006,37.6760009 75.511999,37.8239994 75.704,37.936 C75.896001,38.0480006 76.1119988,38.1279998 76.352,38.176 C76.5920012,38.2240002 76.8319988,38.248 77.072,38.248 C78.064005,38.248 78.8159974,37.9840026 79.328,37.456 C79.8400026,36.9279974 80.096,36.2080046 80.096,35.296 L80.096,34.888 Z M86.192,28.624 L88.952,28.624 L88.952,30.544 L89,30.544 C89.3200016,29.8719966 89.7679971,29.3280021 90.344,28.912 C90.9200029,28.4959979 91.5919962,28.288 92.36,28.288 C92.4720006,28.288 92.5919994,28.292 92.72,28.3 C92.8480006,28.308 92.9599995,28.3279998 93.056,28.36 L93.056,31 C92.863999,30.9519998 92.7000007,30.9200001 92.564,30.904 C92.4279993,30.8879999 92.2960006,30.88 92.168,30.88 C91.5119967,30.88 90.984002,30.9999988 90.584,31.24 C90.183998,31.4800012 89.8720011,31.7679983 89.648,32.104 C89.4239989,32.4400017 89.2720004,32.7839982 89.192,33.136 C89.1119996,33.4880018 89.072,33.767999 89.072,33.976 L89.072,40.144 L86.192,40.144 L86.192,28.624 Z M106.208,40.144 L103.472,40.144 L103.472,38.416 L103.424,38.416 C103.023998,39.0880034 102.468004,39.5999982 101.756,39.952 C101.043996,40.3040018 100.280004,40.48 99.464,40.48 C98.5839956,40.48 97.7960035,40.3160016 97.1,39.988 C96.4039965,39.6599984 95.8120024,39.2200028 95.324,38.668 C94.8359976,38.1159972 94.4600013,37.4680037 94.196,36.724 C93.9319987,35.9799963 93.8,35.1840042 93.8,34.336 C93.8,33.4879958 93.9359986,32.6960037 94.208,31.96 C94.4800014,31.2239963 94.8639975,30.5840027 95.36,30.04 C95.8560025,29.4959973 96.4479966,29.0680016 97.136,28.756 C97.8240034,28.4439984 98.5759959,28.288 99.392,28.288 C99.9200026,28.288 100.391998,28.3479994 100.808,28.468 C101.224002,28.5880006 101.587998,28.7359991 101.9,28.912 C102.212002,29.0880009 102.479999,29.279999 102.704,29.488 C102.928001,29.696001 103.111999,29.895999 103.256,30.088 L103.328,30.088 L103.328,22 L106.208,22 L106.208,40.144 Z M96.728,34.336 C96.728,34.7840022 96.7959993,35.2319978 96.932,35.68 C97.0680007,36.1280022 97.2719986,36.5279982 97.544,36.88 C97.8160014,37.2320018 98.1599979,37.5199989 98.576,37.744 C98.9920021,37.9680011 99.4799972,38.08 100.04,38.08 C100.568003,38.08 101.039998,37.9720011 101.456,37.756 C101.872002,37.5399989 102.227999,37.2560018 102.524,36.904 C102.820001,36.5519982 103.043999,36.1560022 103.196,35.716 C103.348001,35.2759978 103.424,34.8320022 103.424,34.384 C103.424,33.9359978 103.348001,33.4880022 103.196,33.04 C103.043999,32.5919978 102.820001,32.1920018 102.524,31.84 C102.227999,31.4879982 101.872002,31.2000011 101.456,30.976 C101.039998,30.7519989 100.568003,30.64 100.04,30.64 C99.4799972,30.64 98.9920021,30.7479989 98.576,30.964 C98.1599979,31.1800011 97.8160014,31.4639982 97.544,31.816 C97.2719986,32.1680018 97.0680007,32.5639978 96.932,33.004 C96.7959993,33.4440022 96.728,33.8879978 96.728,34.336 Z M114.704,35.464 L108.944,35.464 L108.944,33.016 L114.704,33.016 L114.704,35.464 Z M123.8,28.288 C124.552004,28.288 125.195997,28.4199987 125.732,28.684 C126.268003,28.9480013 126.707998,29.2959978 127.052,29.728 C127.396002,30.1600022 127.647999,30.6559972 127.808,31.216 C127.968001,31.7760028 128.048,32.351997 128.048,32.944 L128.048,40.144 L125.168,40.144 L125.168,33.808 C125.168,33.4719983 125.144,33.1240018 125.096,32.764 C125.048,32.4039982 124.948001,32.0760015 124.796,31.78 C124.643999,31.4839985 124.428001,31.240001 124.148,31.048 C123.867999,30.855999 123.496002,30.76 123.032,30.76 C122.567998,30.76 122.168002,30.8479991 121.832,31.024 C121.495998,31.2000009 121.216001,31.4359985 120.992,31.732 C120.767999,32.0280015 120.600001,32.3599982 120.488,32.728 C120.375999,33.0960018 120.32,33.4719981 120.32,33.856 L120.32,40.144 L117.44,40.144 L117.44,22 L120.32,22 L120.32,30.232 L120.368,30.232 C120.480001,29.9919988 120.643999,29.7560012 120.86,29.524 C121.076001,29.2919988 121.327999,29.0840009 121.616,28.9 C121.904001,28.7159991 122.231998,28.5680006 122.6,28.456 C122.968002,28.3439994 123.367998,28.288 123.8,28.288 Z M139.52,33.232 C139.52,32.8639982 139.468001,32.5120017 139.364,32.176 C139.259999,31.8399983 139.096001,31.5440013 138.872,31.288 C138.647999,31.0319987 138.364002,30.8280008 138.02,30.676 C137.675998,30.5239992 137.272002,30.448 136.808,30.448 C135.943996,30.448 135.212003,30.7079974 134.612,31.228 C134.011997,31.7480026 133.68,32.4159959 133.616,33.232 L139.52,33.232 Z M142.4,34.528 L142.4,34.912 C142.4,35.0400006 142.392,35.1679994 142.376,35.296 L133.616,35.296 C133.648,35.7120021 133.755999,36.0919983 133.94,36.436 C134.124001,36.7800017 134.367998,37.0759988 134.672,37.324 C134.976002,37.5720012 135.319998,37.7679993 135.704,37.912 C136.088002,38.0560007 136.487998,38.128 136.904,38.128 C137.624004,38.128 138.231998,37.9960013 138.728,37.732 C139.224002,37.4679987 139.631998,37.1040023 139.952,36.64 L141.872,38.176 C140.735994,39.7120077 139.088011,40.48 136.928,40.48 C136.031996,40.48 135.208004,40.3400014 134.456,40.06 C133.703996,39.7799986 133.052003,39.3840026 132.5,38.872 C131.947997,38.3599974 131.516002,37.7320037 131.204,36.988 C130.891998,36.2439963 130.736,35.4000047 130.736,34.456 C130.736,33.5279954 130.891998,32.6840038 131.204,31.924 C131.516002,31.1639962 131.943997,30.5160027 132.488,29.98 C133.032003,29.4439973 133.675996,29.0280015 134.42,28.732 C135.164004,28.4359985 135.967996,28.288 136.832,28.288 C137.632004,28.288 138.371997,28.4199987 139.052,28.684 C139.732003,28.9480013 140.319998,29.3399974 140.816,29.86 C141.312002,30.3800026 141.699999,31.0279961 141.98,31.804 C142.260001,32.5800039 142.4,33.4879948 142.4,34.528 Z M152.192,38.68 L152.12,38.68 C151.831999,39.1920026 151.368003,39.6119984 150.728,39.94 C150.087997,40.2680016 149.360004,40.432 148.544,40.432 C148.079998,40.432 147.596003,40.3720006 147.092,40.252 C146.587997,40.1319994 146.124002,39.9320014 145.7,39.652 C145.275998,39.3719986 144.924001,39.0040023 144.644,38.548 C144.363999,38.0919977 144.224,37.5280034 144.224,36.856 C144.224,35.9919957 144.467998,35.3040026 144.956,34.792 C145.444002,34.2799974 146.071996,33.8880014 146.84,33.616 C147.608004,33.3439986 148.459995,33.1640004 149.396,33.076 C150.332005,32.9879996 151.247996,32.944 152.144,32.944 L152.144,32.656 C152.144,31.9359964 151.884003,31.4040017 151.364,31.06 C150.843997,30.7159983 150.224004,30.544 149.504,30.544 C148.895997,30.544 148.312003,30.6719987 147.752,30.928 C147.191997,31.1840013 146.728002,31.4959982 146.36,31.864 L144.872,30.112 C145.528003,29.503997 146.283996,29.0480015 147.14,28.744 C147.996004,28.4399985 148.863996,28.288 149.744,28.288 C150.768005,28.288 151.611997,28.4319986 152.276,28.72 C152.940003,29.0080014 153.463998,29.3839977 153.848,29.848 C154.232002,30.3120023 154.499999,30.8319971 154.652,31.408 C154.804001,31.9840029 154.88,32.5599971 154.88,33.136 L154.88,40.144 L152.192,40.144 L152.192,38.68 Z M152.144,34.888 L151.496,34.888 C151.031998,34.888 150.544003,34.9079998 150.032,34.948 C149.519997,34.9880002 149.048002,35.0759993 148.616,35.212 C148.183998,35.3480007 147.824001,35.5399988 147.536,35.788 C147.247999,36.0360012 147.104,36.3759978 147.104,36.808 C147.104,37.0800014 147.163999,37.3079991 147.284,37.492 C147.404001,37.6760009 147.559999,37.8239994 147.752,37.936 C147.944001,38.0480006 148.159999,38.1279998 148.4,38.176 C148.640001,38.2240002 148.879999,38.248 149.12,38.248 C150.112005,38.248 150.863997,37.9840026 151.376,37.456 C151.888003,36.9279974 152.144,36.2080046 152.144,35.296 L152.144,34.888 Z M169.952,40.144 L167.216,40.144 L167.216,38.416 L167.168,38.416 C166.767998,39.0880034 166.212004,39.5999982 165.5,39.952 C164.787996,40.3040018 164.024004,40.48 163.208,40.48 C162.327996,40.48 161.540003,40.3160016 160.844,39.988 C160.147997,39.6599984 159.556002,39.2200028 159.068,38.668 C158.579998,38.1159972 158.204001,37.4680037 157.94,36.724 C157.675999,35.9799963 157.544,35.1840042 157.544,34.336 C157.544,33.4879958 157.679999,32.6960037 157.952,31.96 C158.224001,31.2239963 158.607998,30.5840027 159.104,30.04 C159.600002,29.4959973 160.191997,29.0680016 160.88,28.756 C161.568003,28.4439984 162.319996,28.288 163.136,28.288 C163.664003,28.288 164.135998,28.3479994 164.552,28.468 C164.968002,28.5880006 165.331998,28.7359991 165.644,28.912 C165.956002,29.0880009 166.223999,29.279999 166.448,29.488 C166.672001,29.696001 166.855999,29.895999 167,30.088 L167.072,30.088 L167.072,22 L169.952,22 L169.952,40.144 Z M160.472,34.336 C160.472,34.7840022 160.539999,35.2319978 160.676,35.68 C160.812001,36.1280022 161.015999,36.5279982 161.288,36.88 C161.560001,37.2320018 161.903998,37.5199989 162.32,37.744 C162.736002,37.9680011 163.223997,38.08 163.784,38.08 C164.312003,38.08 164.783998,37.9720011 165.2,37.756 C165.616002,37.5399989 165.971999,37.2560018 166.268,36.904 C166.564001,36.5519982 166.787999,36.1560022 166.94,35.716 C167.092001,35.2759978 167.168,34.8320022 167.168,34.384 C167.168,33.9359978 167.092001,33.4880022 166.94,33.04 C166.787999,32.5919978 166.564001,32.1920018 166.268,31.84 C165.971999,31.4879982 165.616002,31.2000011 165.2,30.976 C164.783998,30.7519989 164.312003,30.64 163.784,30.64 C163.223997,30.64 162.736002,30.7479989 162.32,30.964 C161.903998,31.1800011 161.560001,31.4639982 161.288,31.816 C161.015999,32.1680018 160.812001,32.5639978 160.676,33.004 C160.539999,33.4440022 160.472,33.8879978 160.472,34.336 Z M181.568,33.232 C181.568,32.8639982 181.516001,32.5120017 181.412,32.176 C181.307999,31.8399983 181.144001,31.5440013 180.92,31.288 C180.695999,31.0319987 180.412002,30.8280008 180.068,30.676 C179.723998,30.5239992 179.320002,30.448 178.856,30.448 C177.991996,30.448 177.260003,30.7079974 176.66,31.228 C176.059997,31.7480026 175.728,32.4159959 175.664,33.232 L181.568,33.232 Z M184.448,34.528 L184.448,34.912 C184.448,35.0400006 184.44,35.1679994 184.424,35.296 L175.664,35.296 C175.696,35.7120021 175.803999,36.0919983 175.988,36.436 C176.172001,36.7800017 176.415998,37.0759988 176.72,37.324 C177.024002,37.5720012 177.367998,37.7679993 177.752,37.912 C178.136002,38.0560007 178.535998,38.128 178.952,38.128 C179.672004,38.128 180.279998,37.9960013 180.776,37.732 C181.272002,37.4679987 181.679998,37.1040023 182,36.64 L183.92,38.176 C182.783994,39.7120077 181.136011,40.48 178.976,40.48 C178.079996,40.48 177.256004,40.3400014 176.504,40.06 C175.751996,39.7799986 175.100003,39.3840026 174.548,38.872 C173.995997,38.3599974 173.564002,37.7320037 173.252,36.988 C172.939998,36.2439963 172.784,35.4000047 172.784,34.456 C172.784,33.5279954 172.939998,32.6840038 173.252,31.924 C173.564002,31.1639962 173.991997,30.5160027 174.536,29.98 C175.080003,29.4439973 175.723996,29.0280015 176.468,28.732 C177.212004,28.4359985 178.015996,28.288 178.88,28.288 C179.680004,28.288 180.419997,28.4199987 181.1,28.684 C181.780003,28.9480013 182.367998,29.3399974 182.864,29.86 C183.360002,30.3800026 183.747999,31.0279961 184.028,31.804 C184.308001,32.5800039 184.448,33.4879948 184.448,34.528 Z M187.232,28.624 L189.992,28.624 L189.992,30.544 L190.04,30.544 C190.360002,29.8719966 190.807997,29.3280021 191.384,28.912 C191.960003,28.4959979 192.631996,28.288 193.4,28.288 C193.512001,28.288 193.631999,28.292 193.76,28.3 C193.888001,28.308 194,28.3279998 194.096,28.36 L194.096,31 C193.903999,30.9519998 193.740001,30.9200001 193.604,30.904 C193.467999,30.8879999 193.336001,30.88 193.208,30.88 C192.551997,30.88 192.024002,30.9999988 191.624,31.24 C191.223998,31.4800012 190.912001,31.7679983 190.688,32.104 C190.463999,32.4400017 190.312,32.7839982 190.232,33.136 C190.152,33.4880018 190.112,33.767999 190.112,33.976 L190.112,40.144 L187.232,40.144 L187.232,28.624 Z" fill="#000000"></path>
                    </g>
                </g>
                <text id="title" font-family="AvenirNext-DemiBold, Avenir Next" font-size="24" font-weight="500" fill="#000000">
                    <tspan x="0.408" y="24">.ea-card</tspan>
                </text>
            </g>
        </g>
    </g>
</svg>
