
<svg width="100%" height="100%" viewBox="0 0 1440 62" version="1.1" xmlns="http://www.w3.org/2000/svg" xmlns:xlink="http://www.w3.org/1999/xlink">
    <!-- Generator: Sketch 49.3 (51167) - http://www.bohemiancoding.com/sketch -->
    <desc>Created with Sketch.</desc>
    <defs>
        <rect id="path-1" x="3" y="3" width="394" height="56"></rect>
        <rect id="path-2" x="1044" y="3" width="394" height="56"></rect>
    </defs>
    <g id="Page-1" stroke="none" stroke-width="1" fill="none" fill-rule="evenodd">
        <g id="Group-2">
            <g id="Group-5">
                <g id="Group-6">
                    <rect id="Rectangle" fill="#D8D8D8" x="0" y="0" width="1440" height="62"></rect>
                    <g id="Rectangle-3">
                        <use fill="#B0B0B0" fill-rule="evenodd" xlink:href="#path-1"></use>
                        <rect stroke="#979797" stroke-width="1" x="3.5" y="3.5" width="393" height="55"></rect>
                    </g>
                    <g id="Rectangle-3">
                        <use fill="#B0B0B0" fill-rule="evenodd" xlink:href="#path-2"></use>
                        <rect stroke="#979797" stroke-width="1" x="1044.5" y="3.5" width="393" height="55"></rect>
                    </g>
                    <path d="M74.4101562,33.7578125 L81.0898438,36.1132812 L81.0898438,39.3945312 L71,35.1171875 L71,32.3515625 L81.0898438,28.0742188 L81.0898438,31.3554688 L74.4101562,33.7578125 Z M87.1835938,29.703125 C88.0820357,28.6249946 89.2109307,28.0859375 90.5703125,28.0859375 C93.3203263,28.0859375 94.7148436,29.6835778 94.7539062,32.8789062 L94.7539062,41 L91.3671875,41 L91.3671875,32.9726562 C91.3671875,32.2460901 91.2109391,31.7089861 90.8984375,31.3613281 C90.5859359,31.0136701 90.0664099,30.8398438 89.3398438,30.8398438 C88.3476513,30.8398438 87.6289085,31.2226524 87.1835938,31.9882812 L87.1835938,41 L83.796875,41 L83.796875,23 L87.1835938,23 L87.1835938,29.703125 Z M103.144531,41.234375 C101.285147,41.234375 99.7714902,40.6640682 98.6035156,39.5234375 C97.435541,38.3828068 96.8515625,36.8632907 96.8515625,34.9648438 L96.8515625,34.6367188 C96.8515625,33.3632749 97.0976538,32.2246144 97.5898438,31.2207031 C98.0820337,30.2167919 98.7792924,29.4433621 99.6816406,28.9003906 C100.583989,28.3574192 101.613275,28.0859375 102.769531,28.0859375 C104.503915,28.0859375 105.869136,28.632807 106.865234,29.7265625 C107.861333,30.820318 108.359375,32.3710837 108.359375,34.3789062 L108.359375,35.7617188 L100.285156,35.7617188 C100.394532,36.5898479 100.724607,37.2539038 101.275391,37.7539062 C101.826175,38.2539087 102.523433,38.5039062 103.367188,38.5039062 C104.671882,38.5039062 105.691403,38.0312547 106.425781,37.0859375 L108.089844,38.9492188 C107.582029,39.6679723 106.894536,40.2285136 106.027344,40.6308594 C105.160152,41.0332051 104.199224,41.234375 103.144531,41.234375 Z M102.757812,30.828125 C102.085934,30.828125 101.541018,31.0546852 101.123047,31.5078125 C100.705076,31.9609398 100.437501,32.6093708 100.320312,33.453125 L105.03125,33.453125 L105.03125,33.1835938 C105.015625,32.43359 104.812502,31.8535177 104.421875,31.4433594 C104.031248,31.0332011 103.476566,30.828125 102.757812,30.828125 Z M117.628906,41 C117.472655,40.695311 117.359375,40.3164085 117.289062,39.8632812 C116.468746,40.7773483 115.40235,41.234375 114.089844,41.234375 C112.84765,41.234375 111.818363,40.8750036 111.001953,40.15625 C110.185543,39.4374964 109.777344,38.5312555 109.777344,37.4375 C109.777344,36.0937433 110.275386,35.0625036 111.271484,34.34375 C112.267583,33.6249964 113.707022,33.2617188 115.589844,33.2539062 L117.148438,33.2539062 L117.148438,32.5273438 C117.148438,31.9414033 116.998048,31.472658 116.697266,31.1210938 C116.396483,30.7695295 115.921878,30.59375 115.273438,30.59375 C114.703122,30.59375 114.255861,30.7304674 113.931641,31.0039062 C113.60742,31.2773451 113.445312,31.6523414 113.445312,32.1289062 L110.058594,32.1289062 C110.058594,31.3945276 110.285154,30.7148469 110.738281,30.0898438 C111.191409,29.4648406 111.832027,28.9746112 112.660156,28.6191406 C113.488285,28.2636701 114.417964,28.0859375 115.449219,28.0859375 C117.011727,28.0859375 118.251949,28.4785117 119.169922,29.2636719 C120.087895,30.0488321 120.546875,31.1523366 120.546875,32.5742188 L120.546875,38.0703125 C120.554688,39.2734435 120.722655,40.1835907 121.050781,40.8007812 L121.050781,41 L117.628906,41 Z M114.828125,38.6445312 C115.328127,38.6445312 115.78906,38.5332042 116.210938,38.3105469 C116.632815,38.0878895 116.945311,37.7890644 117.148438,37.4140625 L117.148438,35.234375 L115.882812,35.234375 C114.187492,35.234375 113.285157,35.8203066 113.175781,36.9921875 L113.164062,37.1914062 C113.164062,37.6132834 113.312499,37.9609361 113.609375,38.234375 C113.906251,38.5078139 114.312497,38.6445312 114.828125,38.6445312 Z M122.621094,34.5664062 C122.621094,32.5898339 123.064449,31.0156309 123.951172,29.84375 C124.837895,28.6718691 126.050774,28.0859375 127.589844,28.0859375 C128.824225,28.0859375 129.843746,28.5468704 130.648438,29.46875 L130.648438,23 L134.046875,23 L134.046875,41 L130.988281,41 L130.824219,39.6523438 C129.980465,40.7070365 128.894538,41.234375 127.566406,41.234375 C126.074211,41.234375 124.876958,40.6464903 123.974609,39.4707031 C123.072261,38.294916 122.621094,36.6601667 122.621094,34.5664062 Z M126.007812,34.8125 C126.007812,36.0000059 126.214842,36.9101531 126.628906,37.5429688 C127.042971,38.1757844 127.644527,38.4921875 128.433594,38.4921875 C129.480474,38.4921875 130.218748,38.0507857 130.648438,37.1679688 L130.648438,32.1640625 C130.22656,31.2812456 129.496099,30.8398438 128.457031,30.8398438 C126.824211,30.8398438 126.007812,32.1640493 126.007812,34.8125 Z M142.507812,41.234375 C140.648428,41.234375 139.134771,40.6640682 137.966797,39.5234375 C136.798822,38.3828068 136.214844,36.8632907 136.214844,34.9648438 L136.214844,34.6367188 C136.214844,33.3632749 136.460935,32.2246144 136.953125,31.2207031 C137.445315,30.2167919 138.142574,29.4433621 139.044922,28.9003906 C139.94727,28.3574192 140.976557,28.0859375 142.132812,28.0859375 C143.867196,28.0859375 145.232417,28.632807 146.228516,29.7265625 C147.224614,30.820318 147.722656,32.3710837 147.722656,34.3789062 L147.722656,35.7617188 L139.648438,35.7617188 C139.757813,36.5898479 140.087888,37.2539038 140.638672,37.7539062 C141.189456,38.2539087 141.886715,38.5039062 142.730469,38.5039062 C144.035163,38.5039062 145.054684,38.0312547 145.789062,37.0859375 L147.453125,38.9492188 C146.94531,39.6679723 146.257817,40.2285136 145.390625,40.6308594 C144.523433,41.0332051 143.562505,41.234375 142.507812,41.234375 Z M142.121094,30.828125 C141.449215,30.828125 140.904299,31.0546852 140.486328,31.5078125 C140.068357,31.9609398 139.800782,32.6093708 139.683594,33.453125 L144.394531,33.453125 L144.394531,33.1835938 C144.378906,32.43359 144.175783,31.8535177 143.785156,31.4433594 C143.394529,31.0332011 142.839847,30.828125 142.121094,30.828125 Z M156.769531,31.4960938 C156.308591,31.4335934 155.902346,31.4023438 155.550781,31.4023438 C154.269525,31.4023438 153.429689,31.8359332 153.03125,32.703125 L153.03125,41 L149.644531,41 L149.644531,28.3203125 L152.84375,28.3203125 L152.9375,29.8320312 C153.617191,28.6679629 154.558588,28.0859375 155.761719,28.0859375 C156.136721,28.0859375 156.48828,28.1367182 156.816406,28.2382812 L156.769531,31.4960938 Z M165.3125,33.7226562 L158.503906,31.34375 L158.503906,28.0859375 L168.710938,32.3632812 L168.710938,35.1171875 L158.503906,39.40625 L158.503906,36.1367188 L165.3125,33.7226562 Z M173.539062,33.7578125 L180.21875,36.1132812 L180.21875,39.3945312 L170.128906,35.1171875 L170.128906,32.3515625 L180.21875,28.0742188 L180.21875,31.3554688 L173.539062,33.7578125 Z M184.074219,42.4648438 L181.554688,42.4648438 L187.835938,23.9375 L190.355469,23.9375 L184.074219,42.4648438 Z M195.277344,29.703125 C196.175786,28.6249946 197.304681,28.0859375 198.664062,28.0859375 C201.414076,28.0859375 202.808594,29.6835778 202.847656,32.8789062 L202.847656,41 L199.460938,41 L199.460938,32.9726562 C199.460938,32.2460901 199.304689,31.7089861 198.992188,31.3613281 C198.679686,31.0136701 198.16016,30.8398438 197.433594,30.8398438 C196.441401,30.8398438 195.722658,31.2226524 195.277344,31.9882812 L195.277344,41 L191.890625,41 L191.890625,23 L195.277344,23 L195.277344,29.703125 Z M211.238281,41.234375 C209.378897,41.234375 207.86524,40.6640682 206.697266,39.5234375 C205.529291,38.3828068 204.945312,36.8632907 204.945312,34.9648438 L204.945312,34.6367188 C204.945312,33.3632749 205.191404,32.2246144 205.683594,31.2207031 C206.175784,30.2167919 206.873042,29.4433621 207.775391,28.9003906 C208.677739,28.3574192 209.707025,28.0859375 210.863281,28.0859375 C212.597665,28.0859375 213.962886,28.632807 214.958984,29.7265625 C215.955083,30.820318 216.453125,32.3710837 216.453125,34.3789062 L216.453125,35.7617188 L208.378906,35.7617188 C208.488282,36.5898479 208.818357,37.2539038 209.369141,37.7539062 C209.919925,38.2539087 210.617183,38.5039062 211.460938,38.5039062 C212.765632,38.5039062 213.785153,38.0312547 214.519531,37.0859375 L216.183594,38.9492188 C215.675779,39.6679723 214.988286,40.2285136 214.121094,40.6308594 C213.253902,41.0332051 212.292974,41.234375 211.238281,41.234375 Z M210.851562,30.828125 C210.179684,30.828125 209.634768,31.0546852 209.216797,31.5078125 C208.798826,31.9609398 208.531251,32.6093708 208.414062,33.453125 L213.125,33.453125 L213.125,33.1835938 C213.109375,32.43359 212.906252,31.8535177 212.515625,31.4433594 C212.124998,31.0332011 211.570316,30.828125 210.851562,30.828125 Z M225.722656,41 C225.566405,40.695311 225.453125,40.3164085 225.382812,39.8632812 C224.562496,40.7773483 223.4961,41.234375 222.183594,41.234375 C220.9414,41.234375 219.912113,40.8750036 219.095703,40.15625 C218.279293,39.4374964 217.871094,38.5312555 217.871094,37.4375 C217.871094,36.0937433 218.369136,35.0625036 219.365234,34.34375 C220.361333,33.6249964 221.800772,33.2617188 223.683594,33.2539062 L225.242188,33.2539062 L225.242188,32.5273438 C225.242188,31.9414033 225.091798,31.472658 224.791016,31.1210938 C224.490233,30.7695295 224.015628,30.59375 223.367188,30.59375 C222.796872,30.59375 222.349611,30.7304674 222.025391,31.0039062 C221.70117,31.2773451 221.539062,31.6523414 221.539062,32.1289062 L218.152344,32.1289062 C218.152344,31.3945276 218.378904,30.7148469 218.832031,30.0898438 C219.285159,29.4648406 219.925777,28.9746112 220.753906,28.6191406 C221.582035,28.2636701 222.511714,28.0859375 223.542969,28.0859375 C225.105477,28.0859375 226.345699,28.4785117 227.263672,29.2636719 C228.181645,30.0488321 228.640625,31.1523366 228.640625,32.5742188 L228.640625,38.0703125 C228.648438,39.2734435 228.816405,40.1835907 229.144531,40.8007812 L229.144531,41 L225.722656,41 Z M222.921875,38.6445312 C223.421877,38.6445312 223.88281,38.5332042 224.304688,38.3105469 C224.726565,38.0878895 225.039061,37.7890644 225.242188,37.4140625 L225.242188,35.234375 L223.976562,35.234375 C222.281242,35.234375 221.378907,35.8203066 221.269531,36.9921875 L221.257812,37.1914062 C221.257812,37.6132834 221.406249,37.9609361 221.703125,38.234375 C222.000001,38.5078139 222.406247,38.6445312 222.921875,38.6445312 Z M230.714844,34.5664062 C230.714844,32.5898339 231.158199,31.0156309 232.044922,29.84375 C232.931645,28.6718691 234.144524,28.0859375 235.683594,28.0859375 C236.917975,28.0859375 237.937496,28.5468704 238.742188,29.46875 L238.742188,23 L242.140625,23 L242.140625,41 L239.082031,41 L238.917969,39.6523438 C238.074215,40.7070365 236.988288,41.234375 235.660156,41.234375 C234.167961,41.234375 232.970708,40.6464903 232.068359,39.4707031 C231.166011,38.294916 230.714844,36.6601667 230.714844,34.5664062 Z M234.101562,34.8125 C234.101562,36.0000059 234.308592,36.9101531 234.722656,37.5429688 C235.136721,38.1757844 235.738277,38.4921875 236.527344,38.4921875 C237.574224,38.4921875 238.312498,38.0507857 238.742188,37.1679688 L238.742188,32.1640625 C238.32031,31.2812456 237.589849,30.8398438 236.550781,30.8398438 C234.917961,30.8398438 234.101562,32.1640493 234.101562,34.8125 Z M250.601562,41.234375 C248.742178,41.234375 247.228521,40.6640682 246.060547,39.5234375 C244.892572,38.3828068 244.308594,36.8632907 244.308594,34.9648438 L244.308594,34.6367188 C244.308594,33.3632749 244.554685,32.2246144 245.046875,31.2207031 C245.539065,30.2167919 246.236324,29.4433621 247.138672,28.9003906 C248.04102,28.3574192 249.070307,28.0859375 250.226562,28.0859375 C251.960946,28.0859375 253.326167,28.632807 254.322266,29.7265625 C255.318364,30.820318 255.816406,32.3710837 255.816406,34.3789062 L255.816406,35.7617188 L247.742188,35.7617188 C247.851563,36.5898479 248.181638,37.2539038 248.732422,37.7539062 C249.283206,38.2539087 249.980465,38.5039062 250.824219,38.5039062 C252.128913,38.5039062 253.148434,38.0312547 253.882812,37.0859375 L255.546875,38.9492188 C255.03906,39.6679723 254.351567,40.2285136 253.484375,40.6308594 C252.617183,41.0332051 251.656255,41.234375 250.601562,41.234375 Z M250.214844,30.828125 C249.542965,30.828125 248.998049,31.0546852 248.580078,31.5078125 C248.162107,31.9609398 247.894532,32.6093708 247.777344,33.453125 L252.488281,33.453125 L252.488281,33.1835938 C252.472656,32.43359 252.269533,31.8535177 251.878906,31.4433594 C251.488279,31.0332011 250.933597,30.828125 250.214844,30.828125 Z M264.863281,31.4960938 C264.402341,31.4335934 263.996096,31.4023438 263.644531,31.4023438 C262.363275,31.4023438 261.523439,31.8359332 261.125,32.703125 L261.125,41 L257.738281,41 L257.738281,28.3203125 L260.9375,28.3203125 L261.03125,29.8320312 C261.710941,28.6679629 262.652338,28.0859375 263.855469,28.0859375 C264.230471,28.0859375 264.58203,28.1367182 264.910156,28.2382812 L264.863281,31.4960938 Z M273.40625,33.7226562 L266.597656,31.34375 L266.597656,28.0859375 L276.804688,32.3632812 L276.804688,35.1171875 L266.597656,39.40625 L266.597656,36.1367188 L273.40625,33.7226562 Z" id="&lt;header&gt;&lt;/header&gt;" fill="#4B4B4B"></path>
                    <path d="M1158.41016,31.7578125 L1165.08984,34.1132812 L1165.08984,37.3945312 L1155,33.1171875 L1155,30.3515625 L1165.08984,26.0742188 L1165.08984,29.3554688 L1158.41016,31.7578125 Z M1175.22656,39 C1175.07031,38.695311 1174.95703,38.3164085 1174.88672,37.8632812 C1174.0664,38.7773483 1173.00001,39.234375 1171.6875,39.234375 C1170.44531,39.234375 1169.41602,38.8750036 1168.59961,38.15625 C1167.7832,37.4374964 1167.375,36.5312555 1167.375,35.4375 C1167.375,34.0937433 1167.87304,33.0625036 1168.86914,32.34375 C1169.86524,31.6249964 1171.30468,31.2617188 1173.1875,31.2539062 L1174.74609,31.2539062 L1174.74609,30.5273438 C1174.74609,29.9414033 1174.5957,29.472658 1174.29492,29.1210938 C1173.99414,28.7695295 1173.51953,28.59375 1172.87109,28.59375 C1172.30078,28.59375 1171.85352,28.7304674 1171.5293,29.0039062 C1171.20508,29.2773451 1171.04297,29.6523414 1171.04297,30.1289062 L1167.65625,30.1289062 C1167.65625,29.3945276 1167.88281,28.7148469 1168.33594,28.0898438 C1168.78906,27.4648406 1169.42968,26.9746112 1170.25781,26.6191406 C1171.08594,26.2636701 1172.01562,26.0859375 1173.04688,26.0859375 C1174.60938,26.0859375 1175.8496,26.4785117 1176.76758,27.2636719 C1177.68555,28.0488321 1178.14453,29.1523366 1178.14453,30.5742188 L1178.14453,36.0703125 C1178.15234,37.2734435 1178.32031,38.1835907 1178.64844,38.8007812 L1178.64844,39 L1175.22656,39 Z M1172.42578,36.6445312 C1172.92578,36.6445312 1173.38672,36.5332042 1173.80859,36.3105469 C1174.23047,36.0878895 1174.54297,35.7890644 1174.74609,35.4140625 L1174.74609,33.234375 L1173.48047,33.234375 C1171.78515,33.234375 1170.88281,33.8203066 1170.77344,34.9921875 L1170.76172,35.1914062 C1170.76172,35.6132834 1170.91015,35.9609361 1171.20703,36.234375 C1171.50391,36.5078139 1171.91015,36.6445312 1172.42578,36.6445312 Z M1187.61328,35.4960938 C1187.61328,35.0820292 1187.40821,34.7558606 1186.99805,34.5175781 C1186.58789,34.2792957 1185.92969,34.0664072 1185.02344,33.8789062 C1182.0078,33.2460906 1180.5,31.9648534 1180.5,30.0351562 C1180.5,28.9101506 1180.96679,27.9707069 1181.90039,27.2167969 C1182.83399,26.4628869 1184.05468,26.0859375 1185.5625,26.0859375 C1187.17188,26.0859375 1188.45898,26.46484 1189.42383,27.2226562 C1190.38868,27.9804725 1190.87109,28.9648377 1190.87109,30.1757812 L1187.48438,30.1757812 C1187.48438,29.6914038 1187.32813,29.2910172 1187.01562,28.9746094 C1186.70312,28.6582015 1186.21485,28.5 1185.55078,28.5 C1184.98047,28.5 1184.53906,28.628905 1184.22656,28.8867188 C1183.91406,29.1445325 1183.75781,29.4726543 1183.75781,29.8710938 C1183.75781,30.2460956 1183.93555,30.548827 1184.29102,30.7792969 C1184.64649,31.0097668 1185.24609,31.2089835 1186.08984,31.3769531 C1186.9336,31.5449227 1187.64453,31.7343739 1188.22266,31.9453125 C1190.01173,32.6015658 1190.90625,33.7382732 1190.90625,35.3554688 C1190.90625,36.5117245 1190.41016,37.4472621 1189.41797,38.1621094 C1188.42578,38.8769567 1187.14454,39.234375 1185.57422,39.234375 C1184.51171,39.234375 1183.56836,39.0449238 1182.74414,38.6660156 C1181.91992,38.2871075 1181.27344,37.7675814 1180.80469,37.1074219 C1180.33594,36.4472623 1180.10156,35.7343788 1180.10156,34.96875 L1183.3125,34.96875 C1183.34375,35.5703155 1183.5664,36.0312484 1183.98047,36.3515625 C1184.39453,36.6718766 1184.94922,36.8320312 1185.64453,36.8320312 C1186.29297,36.8320312 1186.7832,36.7089856 1187.11523,36.4628906 C1187.44727,36.2167956 1187.61328,35.8945332 1187.61328,35.4960938 Z M1196.66016,39 L1193.26172,39 L1193.26172,26.3203125 L1196.66016,26.3203125 L1196.66016,39 Z M1193.0625,23.0390625 C1193.0625,22.5312475 1193.23242,22.1132829 1193.57227,21.7851562 C1193.91211,21.4570296 1194.375,21.2929688 1194.96094,21.2929688 C1195.53907,21.2929688 1196,21.4570296 1196.34375,21.7851562 C1196.6875,22.1132829 1196.85938,22.5312475 1196.85938,23.0390625 C1196.85938,23.5546901 1196.68555,23.9765609 1196.33789,24.3046875 C1195.99023,24.6328141 1195.53125,24.796875 1194.96094,24.796875 C1194.39062,24.796875 1193.93164,24.6328141 1193.58398,24.3046875 C1193.23633,23.9765609 1193.0625,23.5546901 1193.0625,23.0390625 Z M1198.92188,32.5664062 C1198.92188,30.5898339 1199.36523,29.0156309 1200.25195,27.84375 C1201.13868,26.6718691 1202.35155,26.0859375 1203.89062,26.0859375 C1205.12501,26.0859375 1206.14453,26.5468704 1206.94922,27.46875 L1206.94922,21 L1210.34766,21 L1210.34766,39 L1207.28906,39 L1207.125,37.6523438 C1206.28125,38.7070365 1205.19532,39.234375 1203.86719,39.234375 C1202.37499,39.234375 1201.17774,38.6464903 1200.27539,37.4707031 C1199.37304,36.294916 1198.92188,34.6601667 1198.92188,32.5664062 Z M1202.30859,32.8125 C1202.30859,34.0000059 1202.51562,34.9101531 1202.92969,35.5429688 C1203.34375,36.1757844 1203.94531,36.4921875 1204.73438,36.4921875 C1205.78126,36.4921875 1206.51953,36.0507857 1206.94922,35.1679688 L1206.94922,30.1640625 C1206.52734,29.2812456 1205.79688,28.8398438 1204.75781,28.8398438 C1203.12499,28.8398438 1202.30859,30.1640493 1202.30859,32.8125 Z M1218.80859,39.234375 C1216.94921,39.234375 1215.43555,38.6640682 1214.26758,37.5234375 C1213.0996,36.3828068 1212.51562,34.8632907 1212.51562,32.9648438 L1212.51562,32.6367188 C1212.51562,31.3632749 1212.76172,30.2246144 1213.25391,29.2207031 C1213.7461,28.2167919 1214.44335,27.4433621 1215.3457,26.9003906 C1216.24805,26.3574192 1217.27734,26.0859375 1218.43359,26.0859375 C1220.16798,26.0859375 1221.5332,26.632807 1222.5293,27.7265625 C1223.5254,28.820318 1224.02344,30.3710837 1224.02344,32.3789062 L1224.02344,33.7617188 L1215.94922,33.7617188 C1216.05859,34.5898479 1216.38867,35.2539037 1216.93945,35.7539062 C1217.49024,36.2539088 1218.1875,36.5039062 1219.03125,36.5039062 C1220.33594,36.5039062 1221.35547,36.0312547 1222.08984,35.0859375 L1223.75391,36.9492188 C1223.24609,37.6679723 1222.5586,38.2285136 1221.69141,38.6308594 C1220.82421,39.0332051 1219.86329,39.234375 1218.80859,39.234375 Z M1218.42188,28.828125 C1217.75,28.828125 1217.20508,29.0546852 1216.78711,29.5078125 C1216.36914,29.9609398 1216.10156,30.6093708 1215.98438,31.453125 L1220.69531,31.453125 L1220.69531,31.1835938 C1220.67969,30.43359 1220.47656,29.8535177 1220.08594,29.4433594 C1219.69531,29.0332011 1219.14063,28.828125 1218.42188,28.828125 Z M1232.85938,31.7226562 L1226.05078,29.34375 L1226.05078,26.0859375 L1236.25781,30.3632812 L1236.25781,33.1171875 L1226.05078,37.40625 L1226.05078,34.1367188 L1232.85938,31.7226562 Z M1241.08594,31.7578125 L1247.76562,34.1132812 L1247.76562,37.3945312 L1237.67578,33.1171875 L1237.67578,30.3515625 L1247.76562,26.0742188 L1247.76562,29.3554688 L1241.08594,31.7578125 Z M1251.62109,40.4648438 L1249.10156,40.4648438 L1255.38281,21.9375 L1257.90234,21.9375 L1251.62109,40.4648438 Z M1266.86719,39 C1266.71094,38.695311 1266.59766,38.3164085 1266.52734,37.8632812 C1265.70703,38.7773483 1264.64063,39.234375 1263.32812,39.234375 C1262.08593,39.234375 1261.05664,38.8750036 1260.24023,38.15625 C1259.42382,37.4374964 1259.01562,36.5312555 1259.01562,35.4375 C1259.01562,34.0937433 1259.51367,33.0625036 1260.50977,32.34375 C1261.50586,31.6249964 1262.9453,31.2617188 1264.82812,31.2539062 L1266.38672,31.2539062 L1266.38672,30.5273438 C1266.38672,29.9414033 1266.23633,29.472658 1265.93555,29.1210938 C1265.63476,28.7695295 1265.16016,28.59375 1264.51172,28.59375 C1263.9414,28.59375 1263.49414,28.7304674 1263.16992,29.0039062 C1262.8457,29.2773451 1262.68359,29.6523414 1262.68359,30.1289062 L1259.29688,30.1289062 C1259.29688,29.3945276 1259.52344,28.7148469 1259.97656,28.0898438 C1260.42969,27.4648406 1261.07031,26.9746112 1261.89844,26.6191406 C1262.72657,26.2636701 1263.65624,26.0859375 1264.6875,26.0859375 C1266.25001,26.0859375 1267.49023,26.4785117 1268.4082,27.2636719 C1269.32618,28.0488321 1269.78516,29.1523366 1269.78516,30.5742188 L1269.78516,36.0703125 C1269.79297,37.2734435 1269.96094,38.1835907 1270.28906,38.8007812 L1270.28906,39 L1266.86719,39 Z M1264.06641,36.6445312 C1264.56641,36.6445312 1265.02734,36.5332042 1265.44922,36.3105469 C1265.8711,36.0878895 1266.18359,35.7890644 1266.38672,35.4140625 L1266.38672,33.234375 L1265.12109,33.234375 C1263.42577,33.234375 1262.52344,33.8203066 1262.41406,34.9921875 L1262.40234,35.1914062 C1262.40234,35.6132834 1262.55078,35.9609361 1262.84766,36.234375 C1263.14453,36.5078139 1263.55078,36.6445312 1264.06641,36.6445312 Z M1279.25391,35.4960938 C1279.25391,35.0820292 1279.04883,34.7558606 1278.63867,34.5175781 C1278.22851,34.2792957 1277.57032,34.0664072 1276.66406,33.8789062 C1273.64842,33.2460906 1272.14062,31.9648534 1272.14062,30.0351562 C1272.14062,28.9101506 1272.60742,27.9707069 1273.54102,27.2167969 C1274.47461,26.4628869 1275.6953,26.0859375 1277.20312,26.0859375 C1278.81251,26.0859375 1280.0996,26.46484 1281.06445,27.2226562 C1282.0293,27.9804725 1282.51172,28.9648377 1282.51172,30.1757812 L1279.125,30.1757812 C1279.125,29.6914038 1278.96875,29.2910172 1278.65625,28.9746094 C1278.34375,28.6582015 1277.85547,28.5 1277.19141,28.5 C1276.62109,28.5 1276.17969,28.628905 1275.86719,28.8867188 C1275.55469,29.1445325 1275.39844,29.4726543 1275.39844,29.8710938 C1275.39844,30.2460956 1275.57617,30.548827 1275.93164,30.7792969 C1276.28711,31.0097668 1276.88671,31.2089835 1277.73047,31.3769531 C1278.57422,31.5449227 1279.28515,31.7343739 1279.86328,31.9453125 C1281.65235,32.6015658 1282.54688,33.7382732 1282.54688,35.3554688 C1282.54688,36.5117245 1282.05079,37.4472621 1281.05859,38.1621094 C1280.0664,38.8769567 1278.78516,39.234375 1277.21484,39.234375 C1276.15234,39.234375 1275.20899,39.0449238 1274.38477,38.6660156 C1273.56054,38.2871075 1272.91406,37.7675814 1272.44531,37.1074219 C1271.97656,36.4472623 1271.74219,35.7343788 1271.74219,34.96875 L1274.95312,34.96875 C1274.98438,35.5703155 1275.20703,36.0312484 1275.62109,36.3515625 C1276.03516,36.6718766 1276.58984,36.8320312 1277.28516,36.8320312 C1277.9336,36.8320312 1278.42383,36.7089856 1278.75586,36.4628906 C1279.08789,36.2167956 1279.25391,35.8945332 1279.25391,35.4960938 Z M1288.30078,39 L1284.90234,39 L1284.90234,26.3203125 L1288.30078,26.3203125 L1288.30078,39 Z M1284.70312,23.0390625 C1284.70312,22.5312475 1284.87305,22.1132829 1285.21289,21.7851562 C1285.55274,21.4570296 1286.01562,21.2929688 1286.60156,21.2929688 C1287.17969,21.2929688 1287.64062,21.4570296 1287.98438,21.7851562 C1288.32813,22.1132829 1288.5,22.5312475 1288.5,23.0390625 C1288.5,23.5546901 1288.32617,23.9765609 1287.97852,24.3046875 C1287.63086,24.6328141 1287.17188,24.796875 1286.60156,24.796875 C1286.03125,24.796875 1285.57227,24.6328141 1285.22461,24.3046875 C1284.87695,23.9765609 1284.70312,23.5546901 1284.70312,23.0390625 Z M1290.5625,32.5664062 C1290.5625,30.5898339 1291.00585,29.0156309 1291.89258,27.84375 C1292.7793,26.6718691 1293.99218,26.0859375 1295.53125,26.0859375 C1296.76563,26.0859375 1297.78515,26.5468704 1298.58984,27.46875 L1298.58984,21 L1301.98828,21 L1301.98828,39 L1298.92969,39 L1298.76562,37.6523438 C1297.92187,38.7070365 1296.83594,39.234375 1295.50781,39.234375 C1294.01562,39.234375 1292.81836,38.6464903 1291.91602,37.4707031 C1291.01367,36.294916 1290.5625,34.6601667 1290.5625,32.5664062 Z M1293.94922,32.8125 C1293.94922,34.0000059 1294.15625,34.9101531 1294.57031,35.5429688 C1294.98438,36.1757844 1295.58593,36.4921875 1296.375,36.4921875 C1297.42188,36.4921875 1298.16015,36.0507857 1298.58984,35.1679688 L1298.58984,30.1640625 C1298.16797,29.2812456 1297.43751,28.8398438 1296.39844,28.8398438 C1294.76562,28.8398438 1293.94922,30.1640493 1293.94922,32.8125 Z M1310.44922,39.234375 C1308.58983,39.234375 1307.07618,38.6640682 1305.9082,37.5234375 C1304.74023,36.3828068 1304.15625,34.8632907 1304.15625,32.9648438 L1304.15625,32.6367188 C1304.15625,31.3632749 1304.40234,30.2246144 1304.89453,29.2207031 C1305.38672,28.2167919 1306.08398,27.4433621 1306.98633,26.9003906 C1307.88868,26.3574192 1308.91796,26.0859375 1310.07422,26.0859375 C1311.8086,26.0859375 1313.17382,26.632807 1314.16992,27.7265625 C1315.16602,28.820318 1315.66406,30.3710837 1315.66406,32.3789062 L1315.66406,33.7617188 L1307.58984,33.7617188 C1307.69922,34.5898479 1308.02929,35.2539037 1308.58008,35.7539062 C1309.13086,36.2539088 1309.82812,36.5039062 1310.67188,36.5039062 C1311.97657,36.5039062 1312.99609,36.0312547 1313.73047,35.0859375 L1315.39453,36.9492188 C1314.88672,37.6679723 1314.19922,38.2285136 1313.33203,38.6308594 C1312.46484,39.0332051 1311.50391,39.234375 1310.44922,39.234375 Z M1310.0625,28.828125 C1309.39062,28.828125 1308.84571,29.0546852 1308.42773,29.5078125 C1308.00976,29.9609398 1307.74219,30.6093708 1307.625,31.453125 L1312.33594,31.453125 L1312.33594,31.1835938 C1312.32031,30.43359 1312.11719,29.8535177 1311.72656,29.4433594 C1311.33594,29.0332011 1310.78125,28.828125 1310.0625,28.828125 Z M1324.5,31.7226562 L1317.69141,29.34375 L1317.69141,26.0859375 L1327.89844,30.3632812 L1327.89844,33.1171875 L1317.69141,37.40625 L1317.69141,34.1367188 L1324.5,31.7226562 Z" id="&lt;aside&gt;&lt;/aside&gt;" fill="#4B4B4B"></path>
                </g>
            </g>
        </g>
    </g>
</svg>
