
<svg width="100%" height="100%" viewBox="0 0 1440 62" version="1.1" xmlns="http://www.w3.org/2000/svg" xmlns:xlink="http://www.w3.org/1999/xlink">
    <!-- Generator: Sketch 49.3 (51167) - http://www.bohemiancoding.com/sketch -->
    <desc>Created with Sketch.</desc>
    <defs>
        <rect id="path-1" x="3" y="3" width="394" height="56"></rect>
        <rect id="path-2" x="1044" y="3" width="394" height="56"></rect>
    </defs>
    <g id="Page-1" stroke="none" stroke-width="1" fill="none" fill-rule="evenodd">
        <g id="Group-2">
            <rect id="Rectangle" fill="#838383" x="1384" y="6" width="45" height="50"></rect>
            <rect id="Rectangle" fill="#838383" x="1319" y="6" width="45" height="50"></rect>
            <rect id="Rectangle" fill="#838383" x="1254" y="6" width="45" height="50"></rect>
            <g id="Group-5">
                <rect id="Rectangle" fill="#D8D8D8" x="0" y="0" width="1440" height="62"></rect>
                <g id="Rectangle-3">
                    <use fill="#B0B0B0" fill-rule="evenodd" xlink:href="#path-1"></use>
                    <rect stroke="#979797" stroke-width="1" x="3.5" y="3.5" width="393" height="55"></rect>
                </g>
                <path d="M68.836,31.33 L68.836,30.03 L80.978,22.49 L82.46,24.83 L72.996,30.55 L82.46,36.14 L80.978,38.48 L68.836,31.33 Z M83.5,20.8 L88.752,20.8 L88.752,27.456 L88.856,27.456 C89.2720021,26.9013306 89.8266632,26.459335 90.52,26.13 C91.2133368,25.800665 92.0279953,25.636 92.964,25.636 C93.62267,25.636 94.2293306,25.7226658 94.784,25.896 C95.3386694,26.0693342 95.8153313,26.3553313 96.214,26.754 C96.6126687,27.1526687 96.9246655,27.6943299 97.15,28.379 C97.3753345,29.0636701 97.488,29.9086616 97.488,30.914 L97.488,39 L94.108,39 L94.108,31.616 C94.108,30.5586614 93.8826689,29.7960023 93.432,29.328 C92.9813311,28.8599977 92.3920036,28.626 91.664,28.626 C91.0226635,28.626 90.433336,28.8209981 89.896,29.211 C89.358664,29.6010019 88.9773345,30.0993303 88.752,30.706 L88.752,39 L85.372,39 L85.372,23.66 L83.5,23.66 L83.5,20.8 Z M112.984,37.622 C112.758666,37.830001 112.468335,38.0336657 112.113,38.233 C111.757665,38.4323343 111.341669,38.6186658 110.865,38.792 C110.388331,38.9653342 109.864003,39.1039995 109.292,39.208 C108.719997,39.3120005 108.113337,39.364 107.472,39.364 C106.362661,39.364 105.370338,39.2080016 104.495,38.896 C103.619662,38.5839984 102.87867,38.129003 102.272,37.531 C101.66533,36.932997 101.201668,36.2136709 100.881,35.373 C100.560332,34.5323291 100.4,33.574672 100.4,32.5 C100.4,31.3559943 100.581998,30.3550043 100.946,29.497 C101.310002,28.6389957 101.80833,27.9240029 102.441,27.352 C103.07367,26.7799971 103.814662,26.3510014 104.664,26.065 C105.513338,25.7789986 106.431995,25.636 107.42,25.636 C108.07867,25.636 108.758996,25.7226658 109.461,25.896 C110.163004,26.0693342 110.808664,26.3683312 111.398,26.793 C111.987336,27.2176688 112.468331,27.7853298 112.841,28.496 C113.213669,29.2066702 113.4,30.1079945 113.4,31.2 C113.4,31.9453371 113.313334,32.751329 113.14,33.618 L103.78,33.618 C103.797333,34.1726694 103.914332,34.6406648 104.131,35.022 C104.347668,35.4033352 104.633665,35.7153321 104.989,35.958 C105.344335,36.2006679 105.751664,36.3783328 106.211,36.491 C106.670336,36.6036672 107.159997,36.66 107.68,36.66 C108.720005,36.66 109.573663,36.5386679 110.241,36.296 C110.908337,36.0533321 111.449998,35.7586684 111.866,35.412 L112.984,37.622 Z M107.368,28.34 C106.917331,28.34 106.492669,28.4006661 106.094,28.522 C105.695331,28.6433339 105.335668,28.8209988 105.015,29.055 C104.694332,29.2890012 104.430001,29.5793316 104.222,29.926 C104.013999,30.2726684 103.892667,30.6626645 103.858,31.096 L110.254,31.096 C110.254,30.2466624 110.015669,29.5750025 109.539,29.081 C109.062331,28.5869975 108.338672,28.34 107.368,28.34 Z M117.04,26.884 C117.733337,26.5719984 118.534995,26.3033345 119.445,26.078 C120.355005,25.8526655 121.433994,25.74 122.682,25.74 C123.583338,25.74 124.35033,25.8483322 124.983,26.065 C125.61567,26.2816678 126.126998,26.5893313 126.517,26.988 C126.907002,27.3866687 127.188666,27.8633306 127.362,28.418 C127.535334,28.9726694 127.622,29.5966632 127.622,30.29 C127.622,31.1740044 127.591667,31.9279969 127.531,32.552 C127.470333,33.1760031 127.44,33.7306642 127.44,34.216 C127.44,34.5800018 127.457333,34.9873311 127.492,35.438 C127.526667,35.6806679 127.552667,35.9146655 127.57,36.14 L129.26,36.14 L129.26,39 L124.944,39 L124.606,37.232 L124.476,37.232 C124.129332,37.769336 123.635337,38.232998 122.994,38.623 C122.352663,39.013002 121.486005,39.208 120.394,39.208 C119.093993,39.208 118.06267,38.8613368 117.3,38.168 C116.53733,37.4746632 116.156,36.5560057 116.156,35.412 C116.156,34.6839964 116.290332,34.0556693 116.559,33.527 C116.827668,32.9983307 117.217664,32.5650017 117.729,32.227 C118.240336,31.8889983 118.855663,31.6376675 119.575,31.473 C120.294337,31.3083325 121.095996,31.226 121.98,31.226 C122.292002,31.226 122.621332,31.2433332 122.968,31.278 C123.314668,31.3126668 123.739331,31.3473332 124.242,31.382 C124.276667,31.2086658 124.294,31.0353342 124.294,30.862 L124.294,30.368 C124.294,29.70933 124.103335,29.2370014 123.722,28.951 C123.340665,28.6649986 122.777337,28.522 122.032,28.522 C121.147996,28.522 120.35067,28.6346655 119.64,28.86 C118.92933,29.0853345 118.331336,29.3106655 117.846,29.536 L117.04,26.884 Z M121.486,36.426 C122.318004,36.426 122.941998,36.2743349 123.358,35.971 C123.774002,35.6676651 124.077332,35.3426684 124.268,34.996 L124.268,33.436 C124.094666,33.4013332 123.834668,33.3623336 123.488,33.319 C123.141332,33.2756665 122.768669,33.254 122.37,33.254 C122.040665,33.254 121.711335,33.284333 121.382,33.345 C121.052665,33.405667 120.758001,33.5009994 120.498,33.631 C120.237999,33.7610006 120.030001,33.929999 119.874,34.138 C119.717999,34.346001 119.64,34.5973319 119.64,34.892 C119.64,35.3773358 119.782999,35.754332 120.069,36.023 C120.355001,36.291668 120.82733,36.426 121.486,36.426 Z M138.256,20.8 L143.69,20.8 L143.69,32.032 C143.69,33.3320065 143.759333,34.6146603 143.898,35.88 C143.898,35.9666671 143.906667,36.0533329 143.924,36.14 L145.588,36.14 L145.588,39 L141.402,39 L141.064,37.336 L140.96,37.336 C140.786666,37.6480016 140.552668,37.9253321 140.258,38.168 C139.963332,38.4106679 139.634002,38.6229991 139.27,38.805 C138.905998,38.9870009 138.507335,39.1256662 138.074,39.221 C137.640664,39.3163338 137.207335,39.364 136.774,39.364 C135.959329,39.364 135.192337,39.2340013 134.473,38.974 C133.753663,38.7139987 133.125336,38.3110027 132.588,37.765 C132.050664,37.2189973 131.626002,36.5256709 131.314,35.685 C131.001998,34.8443291 130.846,33.8520057 130.846,32.708 C130.846,31.5986611 131.014998,30.610671 131.353,29.744 C131.691002,28.877329 132.158997,28.145003 132.757,27.547 C133.355003,26.948997 134.061329,26.4896683 134.876,26.169 C135.690671,25.8483317 136.583328,25.688 137.554,25.688 C138.091336,25.688 138.598331,25.718333 139.075,25.779 C139.551669,25.839667 139.963332,25.9393326 140.31,26.078 L140.31,23.66 L138.256,23.66 L138.256,20.8 Z M137.554,36.504 C138.21267,36.504 138.797664,36.3436683 139.309,36.023 C139.820336,35.7023317 140.153999,35.2386697 140.31,34.632 L140.31,29.12 C140.067332,28.9293324 139.733669,28.7863338 139.309,28.691 C138.884331,28.5956662 138.438002,28.548 137.97,28.548 C137.501998,28.548 137.047002,28.6259992 136.605,28.782 C136.162998,28.9380008 135.773002,29.1849983 135.435,29.523 C135.096998,29.8610017 134.828334,30.298664 134.629,30.836 C134.429666,31.373336 134.33,32.0319961 134.33,32.812 C134.33,33.9213389 134.607331,34.8139966 135.162,35.49 C135.716669,36.1660034 136.513995,36.504 137.554,36.504 Z M159.784,37.622 C159.558666,37.830001 159.268335,38.0336657 158.913,38.233 C158.557665,38.4323343 158.141669,38.6186658 157.665,38.792 C157.188331,38.9653342 156.664003,39.1039995 156.092,39.208 C155.519997,39.3120005 154.913337,39.364 154.272,39.364 C153.162661,39.364 152.170338,39.2080016 151.295,38.896 C150.419662,38.5839984 149.67867,38.129003 149.072,37.531 C148.46533,36.932997 148.001668,36.2136709 147.681,35.373 C147.360332,34.5323291 147.2,33.574672 147.2,32.5 C147.2,31.3559943 147.381998,30.3550043 147.746,29.497 C148.110002,28.6389957 148.60833,27.9240029 149.241,27.352 C149.87367,26.7799971 150.614662,26.3510014 151.464,26.065 C152.313338,25.7789986 153.231995,25.636 154.22,25.636 C154.87867,25.636 155.558996,25.7226658 156.261,25.896 C156.963004,26.0693342 157.608664,26.3683312 158.198,26.793 C158.787336,27.2176688 159.268331,27.7853298 159.641,28.496 C160.013669,29.2066702 160.2,30.1079945 160.2,31.2 C160.2,31.9453371 160.113334,32.751329 159.94,33.618 L150.58,33.618 C150.597333,34.1726694 150.714332,34.6406648 150.931,35.022 C151.147668,35.4033352 151.433665,35.7153321 151.789,35.958 C152.144335,36.2006679 152.551664,36.3783328 153.011,36.491 C153.470336,36.6036672 153.959997,36.66 154.48,36.66 C155.520005,36.66 156.373663,36.5386679 157.041,36.296 C157.708337,36.0533321 158.249998,35.7586684 158.666,35.412 L159.784,37.622 Z M154.168,28.34 C153.717331,28.34 153.292669,28.4006661 152.894,28.522 C152.495331,28.6433339 152.135668,28.8209988 151.815,29.055 C151.494332,29.2890012 151.230001,29.5793316 151.022,29.926 C150.813999,30.2726684 150.692667,30.6626645 150.658,31.096 L157.054,31.096 C157.054,30.2466624 156.815669,29.5750025 156.339,29.081 C155.862331,28.5869975 155.138672,28.34 154.168,28.34 Z M162.514,36.14 L165.738,36.14 L165.738,28.86 L162.514,28.86 L162.514,26 L168.364,26 L168.754,27.716 L168.858,27.716 C169.343336,27.1439971 169.897997,26.6673352 170.522,26.286 C171.146003,25.9046648 171.873996,25.714 172.706,25.714 C173.746005,25.714 174.564997,26.0953295 175.163,26.858 C175.761003,27.6206705 176.06,28.8946577 176.06,30.68 L173.018,30.68 C173.018,30.0559969 172.927001,29.6010014 172.745,29.315 C172.562999,29.0289986 172.272669,28.886 171.874,28.886 C171.180663,28.886 170.621669,29.0593316 170.197,29.406 C169.772331,29.7526684 169.412668,30.1513311 169.118,30.602 L169.118,36.14 L174.76,36.14 L174.76,39 L162.514,39 L162.514,36.14 Z M179.518,38.48 L178.036,36.14 L187.5,30.55 L178.036,24.83 L179.518,22.49 L191.66,30.03 L191.66,31.33 L179.518,38.48 Z M193.636,31.33 L193.636,30.03 L205.778,22.49 L207.26,24.83 L197.796,30.55 L207.26,36.14 L205.778,38.48 L193.636,31.33 Z M219.454,20.488 L222.002,21.632 L212.72,42.64 L210.172,41.444 L219.454,20.488 Z M223.9,20.8 L229.152,20.8 L229.152,27.456 L229.256,27.456 C229.672002,26.9013306 230.226663,26.459335 230.92,26.13 C231.613337,25.800665 232.427995,25.636 233.364,25.636 C234.02267,25.636 234.629331,25.7226658 235.184,25.896 C235.738669,26.0693342 236.215331,26.3553313 236.614,26.754 C237.012669,27.1526687 237.324666,27.6943299 237.55,28.379 C237.775334,29.0636701 237.888,29.9086616 237.888,30.914 L237.888,39 L234.508,39 L234.508,31.616 C234.508,30.5586614 234.282669,29.7960023 233.832,29.328 C233.381331,28.8599977 232.792004,28.626 232.064,28.626 C231.422663,28.626 230.833336,28.8209981 230.296,29.211 C229.758664,29.6010019 229.377334,30.0993303 229.152,30.706 L229.152,39 L225.772,39 L225.772,23.66 L223.9,23.66 L223.9,20.8 Z M253.384,37.622 C253.158666,37.830001 252.868335,38.0336657 252.513,38.233 C252.157665,38.4323343 251.741669,38.6186658 251.265,38.792 C250.788331,38.9653342 250.264003,39.1039995 249.692,39.208 C249.119997,39.3120005 248.513337,39.364 247.872,39.364 C246.762661,39.364 245.770338,39.2080016 244.895,38.896 C244.019662,38.5839984 243.27867,38.129003 242.672,37.531 C242.06533,36.932997 241.601668,36.2136709 241.281,35.373 C240.960332,34.5323291 240.8,33.574672 240.8,32.5 C240.8,31.3559943 240.981998,30.3550043 241.346,29.497 C241.710002,28.6389957 242.20833,27.9240029 242.841,27.352 C243.47367,26.7799971 244.214662,26.3510014 245.064,26.065 C245.913338,25.7789986 246.831995,25.636 247.82,25.636 C248.47867,25.636 249.158996,25.7226658 249.861,25.896 C250.563004,26.0693342 251.208664,26.3683312 251.798,26.793 C252.387336,27.2176688 252.868331,27.7853298 253.241,28.496 C253.613669,29.2066702 253.8,30.1079945 253.8,31.2 C253.8,31.9453371 253.713334,32.751329 253.54,33.618 L244.18,33.618 C244.197333,34.1726694 244.314332,34.6406648 244.531,35.022 C244.747668,35.4033352 245.033665,35.7153321 245.389,35.958 C245.744335,36.2006679 246.151664,36.3783328 246.611,36.491 C247.070336,36.6036672 247.559997,36.66 248.08,36.66 C249.120005,36.66 249.973663,36.5386679 250.641,36.296 C251.308337,36.0533321 251.849998,35.7586684 252.266,35.412 L253.384,37.622 Z M247.768,28.34 C247.317331,28.34 246.892669,28.4006661 246.494,28.522 C246.095331,28.6433339 245.735668,28.8209988 245.415,29.055 C245.094332,29.2890012 244.830001,29.5793316 244.622,29.926 C244.413999,30.2726684 244.292667,30.6626645 244.258,31.096 L250.654,31.096 C250.654,30.2466624 250.415669,29.5750025 249.939,29.081 C249.462331,28.5869975 248.738672,28.34 247.768,28.34 Z M257.44,26.884 C258.133337,26.5719984 258.934995,26.3033345 259.845,26.078 C260.755005,25.8526655 261.833994,25.74 263.082,25.74 C263.983338,25.74 264.75033,25.8483322 265.383,26.065 C266.01567,26.2816678 266.526998,26.5893313 266.917,26.988 C267.307002,27.3866687 267.588666,27.8633306 267.762,28.418 C267.935334,28.9726694 268.022,29.5966632 268.022,30.29 C268.022,31.1740044 267.991667,31.9279969 267.931,32.552 C267.870333,33.1760031 267.84,33.7306642 267.84,34.216 C267.84,34.5800018 267.857333,34.9873311 267.892,35.438 C267.926667,35.6806679 267.952667,35.9146655 267.97,36.14 L269.66,36.14 L269.66,39 L265.344,39 L265.006,37.232 L264.876,37.232 C264.529332,37.769336 264.035337,38.232998 263.394,38.623 C262.752663,39.013002 261.886005,39.208 260.794,39.208 C259.493993,39.208 258.46267,38.8613368 257.7,38.168 C256.93733,37.4746632 256.556,36.5560057 256.556,35.412 C256.556,34.6839964 256.690332,34.0556693 256.959,33.527 C257.227668,32.9983307 257.617664,32.5650017 258.129,32.227 C258.640336,31.8889983 259.255663,31.6376675 259.975,31.473 C260.694337,31.3083325 261.495996,31.226 262.38,31.226 C262.692002,31.226 263.021332,31.2433332 263.368,31.278 C263.714668,31.3126668 264.139331,31.3473332 264.642,31.382 C264.676667,31.2086658 264.694,31.0353342 264.694,30.862 L264.694,30.368 C264.694,29.70933 264.503335,29.2370014 264.122,28.951 C263.740665,28.6649986 263.177337,28.522 262.432,28.522 C261.547996,28.522 260.75067,28.6346655 260.04,28.86 C259.32933,29.0853345 258.731336,29.3106655 258.246,29.536 L257.44,26.884 Z M261.886,36.426 C262.718004,36.426 263.341998,36.2743349 263.758,35.971 C264.174002,35.6676651 264.477332,35.3426684 264.668,34.996 L264.668,33.436 C264.494666,33.4013332 264.234668,33.3623336 263.888,33.319 C263.541332,33.2756665 263.168669,33.254 262.77,33.254 C262.440665,33.254 262.111335,33.284333 261.782,33.345 C261.452665,33.405667 261.158001,33.5009994 260.898,33.631 C260.637999,33.7610006 260.430001,33.929999 260.274,34.138 C260.117999,34.346001 260.04,34.5973319 260.04,34.892 C260.04,35.3773358 260.182999,35.754332 260.469,36.023 C260.755001,36.291668 261.22733,36.426 261.886,36.426 Z M278.656,20.8 L284.09,20.8 L284.09,32.032 C284.09,33.3320065 284.159333,34.6146603 284.298,35.88 C284.298,35.9666671 284.306667,36.0533329 284.324,36.14 L285.988,36.14 L285.988,39 L281.802,39 L281.464,37.336 L281.36,37.336 C281.186666,37.6480016 280.952668,37.9253321 280.658,38.168 C280.363332,38.4106679 280.034002,38.6229991 279.67,38.805 C279.305998,38.9870009 278.907335,39.1256662 278.474,39.221 C278.040664,39.3163338 277.607335,39.364 277.174,39.364 C276.359329,39.364 275.592337,39.2340013 274.873,38.974 C274.153663,38.7139987 273.525336,38.3110027 272.988,37.765 C272.450664,37.2189973 272.026002,36.5256709 271.714,35.685 C271.401998,34.8443291 271.246,33.8520057 271.246,32.708 C271.246,31.5986611 271.414998,30.610671 271.753,29.744 C272.091002,28.877329 272.558997,28.145003 273.157,27.547 C273.755003,26.948997 274.461329,26.4896683 275.276,26.169 C276.090671,25.8483317 276.983328,25.688 277.954,25.688 C278.491336,25.688 278.998331,25.718333 279.475,25.779 C279.951669,25.839667 280.363332,25.9393326 280.71,26.078 L280.71,23.66 L278.656,23.66 L278.656,20.8 Z M277.954,36.504 C278.61267,36.504 279.197664,36.3436683 279.709,36.023 C280.220336,35.7023317 280.553999,35.2386697 280.71,34.632 L280.71,29.12 C280.467332,28.9293324 280.133669,28.7863338 279.709,28.691 C279.284331,28.5956662 278.838002,28.548 278.37,28.548 C277.901998,28.548 277.447002,28.6259992 277.005,28.782 C276.562998,28.9380008 276.173002,29.1849983 275.835,29.523 C275.496998,29.8610017 275.228334,30.298664 275.029,30.836 C274.829666,31.373336 274.73,32.0319961 274.73,32.812 C274.73,33.9213389 275.007331,34.8139966 275.562,35.49 C276.116669,36.1660034 276.913995,36.504 277.954,36.504 Z M300.184,37.622 C299.958666,37.830001 299.668335,38.0336657 299.313,38.233 C298.957665,38.4323343 298.541669,38.6186658 298.065,38.792 C297.588331,38.9653342 297.064003,39.1039995 296.492,39.208 C295.919997,39.3120005 295.313337,39.364 294.672,39.364 C293.562661,39.364 292.570338,39.2080016 291.695,38.896 C290.819662,38.5839984 290.07867,38.129003 289.472,37.531 C288.86533,36.932997 288.401668,36.2136709 288.081,35.373 C287.760332,34.5323291 287.6,33.574672 287.6,32.5 C287.6,31.3559943 287.781998,30.3550043 288.146,29.497 C288.510002,28.6389957 289.00833,27.9240029 289.641,27.352 C290.27367,26.7799971 291.014662,26.3510014 291.864,26.065 C292.713338,25.7789986 293.631995,25.636 294.62,25.636 C295.27867,25.636 295.958996,25.7226658 296.661,25.896 C297.363004,26.0693342 298.008664,26.3683312 298.598,26.793 C299.187336,27.2176688 299.668331,27.7853298 300.041,28.496 C300.413669,29.2066702 300.6,30.1079945 300.6,31.2 C300.6,31.9453371 300.513334,32.751329 300.34,33.618 L290.98,33.618 C290.997333,34.1726694 291.114332,34.6406648 291.331,35.022 C291.547668,35.4033352 291.833665,35.7153321 292.189,35.958 C292.544335,36.2006679 292.951664,36.3783328 293.411,36.491 C293.870336,36.6036672 294.359997,36.66 294.88,36.66 C295.920005,36.66 296.773663,36.5386679 297.441,36.296 C298.108337,36.0533321 298.649998,35.7586684 299.066,35.412 L300.184,37.622 Z M294.568,28.34 C294.117331,28.34 293.692669,28.4006661 293.294,28.522 C292.895331,28.6433339 292.535668,28.8209988 292.215,29.055 C291.894332,29.2890012 291.630001,29.5793316 291.422,29.926 C291.213999,30.2726684 291.092667,30.6626645 291.058,31.096 L297.454,31.096 C297.454,30.2466624 297.215669,29.5750025 296.739,29.081 C296.262331,28.5869975 295.538672,28.34 294.568,28.34 Z M302.914,36.14 L306.138,36.14 L306.138,28.86 L302.914,28.86 L302.914,26 L308.764,26 L309.154,27.716 L309.258,27.716 C309.743336,27.1439971 310.297997,26.6673352 310.922,26.286 C311.546003,25.9046648 312.273996,25.714 313.106,25.714 C314.146005,25.714 314.964997,26.0953295 315.563,26.858 C316.161003,27.6206705 316.46,28.8946577 316.46,30.68 L313.418,30.68 C313.418,30.0559969 313.327001,29.6010014 313.145,29.315 C312.962999,29.0289986 312.672669,28.886 312.274,28.886 C311.580663,28.886 311.021669,29.0593316 310.597,29.406 C310.172331,29.7526684 309.812668,30.1513311 309.518,30.602 L309.518,36.14 L315.16,36.14 L315.16,39 L302.914,39 L302.914,36.14 Z M319.918,38.48 L318.436,36.14 L327.9,30.55 L318.436,24.83 L319.918,22.49 L332.06,30.03 L332.06,31.33 L319.918,38.48 Z" id="&lt;header&gt;&lt;/header&gt;" fill="#4B4B4B"></path>
                <g id="Rectangle-3">
                    <use fill="#B0B0B0" fill-rule="evenodd" xlink:href="#path-2"></use>
                    <rect stroke="#979797" stroke-width="1" x="1044.5" y="3.5" width="393" height="55"></rect>
                </g>
                <path d="M1124.936,31.33 L1124.936,30.03 L1137.078,22.49 L1138.56,24.83 L1129.096,30.55 L1138.56,36.14 L1137.078,38.48 L1124.936,31.33 Z M1141.94,26.884 C1142.63334,26.5719984 1143.435,26.3033345 1144.345,26.078 C1145.255,25.8526655 1146.33399,25.74 1147.582,25.74 C1148.48334,25.74 1149.25033,25.8483322 1149.883,26.065 C1150.51567,26.2816678 1151.027,26.5893313 1151.417,26.988 C1151.807,27.3866687 1152.08867,27.8633306 1152.262,28.418 C1152.43533,28.9726694 1152.522,29.5966632 1152.522,30.29 C1152.522,31.1740044 1152.49167,31.9279969 1152.431,32.552 C1152.37033,33.1760031 1152.34,33.7306642 1152.34,34.216 C1152.34,34.5800018 1152.35733,34.9873311 1152.392,35.438 C1152.42667,35.6806679 1152.45267,35.9146655 1152.47,36.14 L1154.16,36.14 L1154.16,39 L1149.844,39 L1149.506,37.232 L1149.376,37.232 C1149.02933,37.769336 1148.53534,38.232998 1147.894,38.623 C1147.25266,39.013002 1146.38601,39.208 1145.294,39.208 C1143.99399,39.208 1142.96267,38.8613368 1142.2,38.168 C1141.43733,37.4746632 1141.056,36.5560057 1141.056,35.412 C1141.056,34.6839964 1141.19033,34.0556693 1141.459,33.527 C1141.72767,32.9983307 1142.11766,32.5650017 1142.629,32.227 C1143.14034,31.8889983 1143.75566,31.6376675 1144.475,31.473 C1145.19434,31.3083325 1145.996,31.226 1146.88,31.226 C1147.192,31.226 1147.52133,31.2433332 1147.868,31.278 C1148.21467,31.3126668 1148.63933,31.3473332 1149.142,31.382 C1149.17667,31.2086658 1149.194,31.0353342 1149.194,30.862 L1149.194,30.368 C1149.194,29.70933 1149.00334,29.2370014 1148.622,28.951 C1148.24066,28.6649986 1147.67734,28.522 1146.932,28.522 C1146.048,28.522 1145.25067,28.6346655 1144.54,28.86 C1143.82933,29.0853345 1143.23134,29.3106655 1142.746,29.536 L1141.94,26.884 Z M1146.386,36.426 C1147.218,36.426 1147.842,36.2743349 1148.258,35.971 C1148.674,35.6676651 1148.97733,35.3426684 1149.168,34.996 L1149.168,33.436 C1148.99467,33.4013332 1148.73467,33.3623336 1148.388,33.319 C1148.04133,33.2756665 1147.66867,33.254 1147.27,33.254 C1146.94067,33.254 1146.61133,33.284333 1146.282,33.345 C1145.95267,33.405667 1145.658,33.5009994 1145.398,33.631 C1145.138,33.7610006 1144.93,33.929999 1144.774,34.138 C1144.618,34.346001 1144.54,34.5973319 1144.54,34.892 C1144.54,35.3773358 1144.683,35.754332 1144.969,36.023 C1145.255,36.291668 1145.72733,36.426 1146.386,36.426 Z M1165.652,35.412 C1165.652,35.0653316 1165.43967,34.788001 1165.015,34.58 C1164.59033,34.371999 1164.066,34.1813342 1163.442,34.008 C1162.818,33.8346658 1162.13334,33.6570009 1161.388,33.475 C1160.64266,33.2929991 1159.958,33.0416683 1159.334,32.721 C1158.71,32.4003317 1158.18567,31.9930025 1157.761,31.499 C1157.33633,31.0049975 1157.124,30.3680039 1157.124,29.588 C1157.124,28.9466635 1157.267,28.3833358 1157.553,27.898 C1157.839,27.4126642 1158.229,27.0010017 1158.723,26.663 C1159.217,26.3249983 1159.80633,26.0693342 1160.491,25.896 C1161.17567,25.7226658 1161.91666,25.636 1162.714,25.636 C1163.56334,25.636 1164.30866,25.6966661 1164.95,25.818 C1165.59134,25.9393339 1166.15033,26.0866658 1166.627,26.26 C1167.10367,26.4333342 1167.511,26.6283322 1167.849,26.845 C1168.187,27.0616677 1168.47733,27.2566658 1168.72,27.43 L1167.29,29.744 C1167.03,29.5879992 1166.731,29.4276675 1166.393,29.263 C1166.055,29.0983325 1165.69967,28.9466674 1165.327,28.808 C1164.95433,28.6693326 1164.56434,28.5566671 1164.157,28.47 C1163.74966,28.3833329 1163.34667,28.34 1162.948,28.34 C1162.22,28.34 1161.63067,28.4353324 1161.18,28.626 C1160.72933,28.8166676 1160.504,29.1113313 1160.504,29.51 C1160.504,29.8220016 1160.71633,30.0733324 1161.141,30.264 C1161.56567,30.4546676 1162.09,30.6323325 1162.714,30.797 C1163.338,30.9616675 1164.02266,31.1393324 1164.768,31.33 C1165.51334,31.5206676 1166.198,31.7676651 1166.822,32.071 C1167.446,32.3743348 1167.97033,32.7686642 1168.395,33.254 C1168.81967,33.7393358 1169.032,34.3633295 1169.032,35.126 C1169.032,36.4433399 1168.551,37.4789962 1167.589,38.233 C1166.627,38.9870038 1165.20134,39.364 1163.312,39.364 C1161.82133,39.364 1160.53434,39.1430022 1159.451,38.701 C1158.36766,38.2589978 1157.49667,37.7433363 1156.838,37.154 L1158.398,34.71 C1158.62333,34.9006676 1158.92233,35.1129988 1159.295,35.347 C1159.66767,35.5810012 1160.088,35.7933324 1160.556,35.984 C1161.024,36.1746676 1161.52233,36.3349994 1162.051,36.465 C1162.57967,36.5950007 1163.104,36.66 1163.624,36.66 C1164.17867,36.66 1164.65533,36.5646676 1165.054,36.374 C1165.45267,36.1833324 1165.652,35.8626689 1165.652,35.412 Z M1172.334,36.14 L1176.91,36.14 L1176.91,28.86 L1172.334,28.86 L1172.334,26 L1180.29,26 L1180.29,36.14 L1185.1,36.14 L1185.1,39 L1172.334,39 L1172.334,36.14 Z M1176.286,22.464 C1176.286,21.926664 1176.48533,21.4673352 1176.884,21.086 C1177.28267,20.7046648 1177.83733,20.514 1178.548,20.514 C1179.276,20.514 1179.85666,20.7046648 1180.29,21.086 C1180.72334,21.4673352 1180.94,21.926664 1180.94,22.464 C1180.94,23.0186694 1180.72334,23.4736649 1180.29,23.829 C1179.85666,24.1843351 1179.276,24.362 1178.548,24.362 C1177.83733,24.362 1177.28267,24.1843351 1176.884,23.829 C1176.48533,23.4736649 1176.286,23.0186694 1176.286,22.464 Z M1194.356,20.8 L1199.79,20.8 L1199.79,32.032 C1199.79,33.3320065 1199.85933,34.6146603 1199.998,35.88 C1199.998,35.9666671 1200.00667,36.0533329 1200.024,36.14 L1201.688,36.14 L1201.688,39 L1197.502,39 L1197.164,37.336 L1197.06,37.336 C1196.88667,37.6480016 1196.65267,37.9253321 1196.358,38.168 C1196.06333,38.4106679 1195.734,38.6229991 1195.37,38.805 C1195.006,38.9870009 1194.60734,39.1256662 1194.174,39.221 C1193.74066,39.3163338 1193.30734,39.364 1192.874,39.364 C1192.05933,39.364 1191.29234,39.2340013 1190.573,38.974 C1189.85366,38.7139987 1189.22534,38.3110027 1188.688,37.765 C1188.15066,37.2189973 1187.726,36.5256709 1187.414,35.685 C1187.102,34.8443291 1186.946,33.8520057 1186.946,32.708 C1186.946,31.5986611 1187.115,30.610671 1187.453,29.744 C1187.791,28.877329 1188.259,28.145003 1188.857,27.547 C1189.455,26.948997 1190.16133,26.4896683 1190.976,26.169 C1191.79067,25.8483317 1192.68333,25.688 1193.654,25.688 C1194.19134,25.688 1194.69833,25.718333 1195.175,25.779 C1195.65167,25.839667 1196.06333,25.9393326 1196.41,26.078 L1196.41,23.66 L1194.356,23.66 L1194.356,20.8 Z M1193.654,36.504 C1194.31267,36.504 1194.89766,36.3436683 1195.409,36.023 C1195.92034,35.7023317 1196.254,35.2386697 1196.41,34.632 L1196.41,29.12 C1196.16733,28.9293324 1195.83367,28.7863338 1195.409,28.691 C1194.98433,28.5956662 1194.538,28.548 1194.07,28.548 C1193.602,28.548 1193.147,28.6259992 1192.705,28.782 C1192.263,28.9380008 1191.873,29.1849983 1191.535,29.523 C1191.197,29.8610017 1190.92833,30.298664 1190.729,30.836 C1190.52967,31.373336 1190.43,32.0319961 1190.43,32.812 C1190.43,33.9213389 1190.70733,34.8139966 1191.262,35.49 C1191.81667,36.1660034 1192.61399,36.504 1193.654,36.504 Z M1215.884,37.622 C1215.65867,37.830001 1215.36834,38.0336657 1215.013,38.233 C1214.65766,38.4323343 1214.24167,38.6186658 1213.765,38.792 C1213.28833,38.9653342 1212.764,39.1039995 1212.192,39.208 C1211.62,39.3120005 1211.01334,39.364 1210.372,39.364 C1209.26266,39.364 1208.27034,39.2080016 1207.395,38.896 C1206.51966,38.5839984 1205.77867,38.129003 1205.172,37.531 C1204.56533,36.932997 1204.10167,36.2136709 1203.781,35.373 C1203.46033,34.5323291 1203.3,33.574672 1203.3,32.5 C1203.3,31.3559943 1203.482,30.3550043 1203.846,29.497 C1204.21,28.6389957 1204.70833,27.9240029 1205.341,27.352 C1205.97367,26.7799971 1206.71466,26.3510014 1207.564,26.065 C1208.41334,25.7789986 1209.332,25.636 1210.32,25.636 C1210.97867,25.636 1211.659,25.7226658 1212.361,25.896 C1213.063,26.0693342 1213.70866,26.3683312 1214.298,26.793 C1214.88734,27.2176688 1215.36833,27.7853298 1215.741,28.496 C1216.11367,29.2066702 1216.3,30.1079945 1216.3,31.2 C1216.3,31.9453371 1216.21333,32.751329 1216.04,33.618 L1206.68,33.618 C1206.69733,34.1726694 1206.81433,34.6406648 1207.031,35.022 C1207.24767,35.4033352 1207.53366,35.7153321 1207.889,35.958 C1208.24434,36.2006679 1208.65166,36.3783328 1209.111,36.491 C1209.57034,36.6036672 1210.06,36.66 1210.58,36.66 C1211.62001,36.66 1212.47366,36.5386679 1213.141,36.296 C1213.80834,36.0533321 1214.35,35.7586684 1214.766,35.412 L1215.884,37.622 Z M1210.268,28.34 C1209.81733,28.34 1209.39267,28.4006661 1208.994,28.522 C1208.59533,28.6433339 1208.23567,28.8209988 1207.915,29.055 C1207.59433,29.2890012 1207.33,29.5793316 1207.122,29.926 C1206.914,30.2726684 1206.79267,30.6626645 1206.758,31.096 L1213.154,31.096 C1213.154,30.2466624 1212.91567,29.5750025 1212.439,29.081 C1211.96233,28.5869975 1211.23867,28.34 1210.268,28.34 Z M1220.018,38.48 L1218.536,36.14 L1228,30.55 L1218.536,24.83 L1220.018,22.49 L1232.16,30.03 L1232.16,31.33 L1220.018,38.48 Z M1234.136,31.33 L1234.136,30.03 L1246.278,22.49 L1247.76,24.83 L1238.296,30.55 L1247.76,36.14 L1246.278,38.48 L1234.136,31.33 Z M1259.954,20.488 L1262.502,21.632 L1253.22,42.64 L1250.672,41.444 L1259.954,20.488 Z M1266.74,26.884 C1267.43334,26.5719984 1268.235,26.3033345 1269.145,26.078 C1270.055,25.8526655 1271.13399,25.74 1272.382,25.74 C1273.28334,25.74 1274.05033,25.8483322 1274.683,26.065 C1275.31567,26.2816678 1275.827,26.5893313 1276.217,26.988 C1276.607,27.3866687 1276.88867,27.8633306 1277.062,28.418 C1277.23533,28.9726694 1277.322,29.5966632 1277.322,30.29 C1277.322,31.1740044 1277.29167,31.9279969 1277.231,32.552 C1277.17033,33.1760031 1277.14,33.7306642 1277.14,34.216 C1277.14,34.5800018 1277.15733,34.9873311 1277.192,35.438 C1277.22667,35.6806679 1277.25267,35.9146655 1277.27,36.14 L1278.96,36.14 L1278.96,39 L1274.644,39 L1274.306,37.232 L1274.176,37.232 C1273.82933,37.769336 1273.33534,38.232998 1272.694,38.623 C1272.05266,39.013002 1271.18601,39.208 1270.094,39.208 C1268.79399,39.208 1267.76267,38.8613368 1267,38.168 C1266.23733,37.4746632 1265.856,36.5560057 1265.856,35.412 C1265.856,34.6839964 1265.99033,34.0556693 1266.259,33.527 C1266.52767,32.9983307 1266.91766,32.5650017 1267.429,32.227 C1267.94034,31.8889983 1268.55566,31.6376675 1269.275,31.473 C1269.99434,31.3083325 1270.796,31.226 1271.68,31.226 C1271.992,31.226 1272.32133,31.2433332 1272.668,31.278 C1273.01467,31.3126668 1273.43933,31.3473332 1273.942,31.382 C1273.97667,31.2086658 1273.994,31.0353342 1273.994,30.862 L1273.994,30.368 C1273.994,29.70933 1273.80334,29.2370014 1273.422,28.951 C1273.04066,28.6649986 1272.47734,28.522 1271.732,28.522 C1270.848,28.522 1270.05067,28.6346655 1269.34,28.86 C1268.62933,29.0853345 1268.03134,29.3106655 1267.546,29.536 L1266.74,26.884 Z M1271.186,36.426 C1272.018,36.426 1272.642,36.2743349 1273.058,35.971 C1273.474,35.6676651 1273.77733,35.3426684 1273.968,34.996 L1273.968,33.436 C1273.79467,33.4013332 1273.53467,33.3623336 1273.188,33.319 C1272.84133,33.2756665 1272.46867,33.254 1272.07,33.254 C1271.74067,33.254 1271.41133,33.284333 1271.082,33.345 C1270.75267,33.405667 1270.458,33.5009994 1270.198,33.631 C1269.938,33.7610006 1269.73,33.929999 1269.574,34.138 C1269.418,34.346001 1269.34,34.5973319 1269.34,34.892 C1269.34,35.3773358 1269.483,35.754332 1269.769,36.023 C1270.055,36.291668 1270.52733,36.426 1271.186,36.426 Z M1290.452,35.412 C1290.452,35.0653316 1290.23967,34.788001 1289.815,34.58 C1289.39033,34.371999 1288.866,34.1813342 1288.242,34.008 C1287.618,33.8346658 1286.93334,33.6570009 1286.188,33.475 C1285.44266,33.2929991 1284.758,33.0416683 1284.134,32.721 C1283.51,32.4003317 1282.98567,31.9930025 1282.561,31.499 C1282.13633,31.0049975 1281.924,30.3680039 1281.924,29.588 C1281.924,28.9466635 1282.067,28.3833358 1282.353,27.898 C1282.639,27.4126642 1283.029,27.0010017 1283.523,26.663 C1284.017,26.3249983 1284.60633,26.0693342 1285.291,25.896 C1285.97567,25.7226658 1286.71666,25.636 1287.514,25.636 C1288.36334,25.636 1289.10866,25.6966661 1289.75,25.818 C1290.39134,25.9393339 1290.95033,26.0866658 1291.427,26.26 C1291.90367,26.4333342 1292.311,26.6283322 1292.649,26.845 C1292.987,27.0616677 1293.27733,27.2566658 1293.52,27.43 L1292.09,29.744 C1291.83,29.5879992 1291.531,29.4276675 1291.193,29.263 C1290.855,29.0983325 1290.49967,28.9466674 1290.127,28.808 C1289.75433,28.6693326 1289.36434,28.5566671 1288.957,28.47 C1288.54966,28.3833329 1288.14667,28.34 1287.748,28.34 C1287.02,28.34 1286.43067,28.4353324 1285.98,28.626 C1285.52933,28.8166676 1285.304,29.1113313 1285.304,29.51 C1285.304,29.8220016 1285.51633,30.0733324 1285.941,30.264 C1286.36567,30.4546676 1286.89,30.6323325 1287.514,30.797 C1288.138,30.9616675 1288.82266,31.1393324 1289.568,31.33 C1290.31334,31.5206676 1290.998,31.7676651 1291.622,32.071 C1292.246,32.3743348 1292.77033,32.7686642 1293.195,33.254 C1293.61967,33.7393358 1293.832,34.3633295 1293.832,35.126 C1293.832,36.4433399 1293.351,37.4789962 1292.389,38.233 C1291.427,38.9870038 1290.00134,39.364 1288.112,39.364 C1286.62133,39.364 1285.33434,39.1430022 1284.251,38.701 C1283.16766,38.2589978 1282.29667,37.7433363 1281.638,37.154 L1283.198,34.71 C1283.42333,34.9006676 1283.72233,35.1129988 1284.095,35.347 C1284.46767,35.5810012 1284.888,35.7933324 1285.356,35.984 C1285.824,36.1746676 1286.32233,36.3349994 1286.851,36.465 C1287.37967,36.5950007 1287.904,36.66 1288.424,36.66 C1288.97867,36.66 1289.45533,36.5646676 1289.854,36.374 C1290.25267,36.1833324 1290.452,35.8626689 1290.452,35.412 Z M1297.134,36.14 L1301.71,36.14 L1301.71,28.86 L1297.134,28.86 L1297.134,26 L1305.09,26 L1305.09,36.14 L1309.9,36.14 L1309.9,39 L1297.134,39 L1297.134,36.14 Z M1301.086,22.464 C1301.086,21.926664 1301.28533,21.4673352 1301.684,21.086 C1302.08267,20.7046648 1302.63733,20.514 1303.348,20.514 C1304.076,20.514 1304.65666,20.7046648 1305.09,21.086 C1305.52334,21.4673352 1305.74,21.926664 1305.74,22.464 C1305.74,23.0186694 1305.52334,23.4736649 1305.09,23.829 C1304.65666,24.1843351 1304.076,24.362 1303.348,24.362 C1302.63733,24.362 1302.08267,24.1843351 1301.684,23.829 C1301.28533,23.4736649 1301.086,23.0186694 1301.086,22.464 Z M1319.156,20.8 L1324.59,20.8 L1324.59,32.032 C1324.59,33.3320065 1324.65933,34.6146603 1324.798,35.88 C1324.798,35.9666671 1324.80667,36.0533329 1324.824,36.14 L1326.488,36.14 L1326.488,39 L1322.302,39 L1321.964,37.336 L1321.86,37.336 C1321.68667,37.6480016 1321.45267,37.9253321 1321.158,38.168 C1320.86333,38.4106679 1320.534,38.6229991 1320.17,38.805 C1319.806,38.9870009 1319.40734,39.1256662 1318.974,39.221 C1318.54066,39.3163338 1318.10734,39.364 1317.674,39.364 C1316.85933,39.364 1316.09234,39.2340013 1315.373,38.974 C1314.65366,38.7139987 1314.02534,38.3110027 1313.488,37.765 C1312.95066,37.2189973 1312.526,36.5256709 1312.214,35.685 C1311.902,34.8443291 1311.746,33.8520057 1311.746,32.708 C1311.746,31.5986611 1311.915,30.610671 1312.253,29.744 C1312.591,28.877329 1313.059,28.145003 1313.657,27.547 C1314.255,26.948997 1314.96133,26.4896683 1315.776,26.169 C1316.59067,25.8483317 1317.48333,25.688 1318.454,25.688 C1318.99134,25.688 1319.49833,25.718333 1319.975,25.779 C1320.45167,25.839667 1320.86333,25.9393326 1321.21,26.078 L1321.21,23.66 L1319.156,23.66 L1319.156,20.8 Z M1318.454,36.504 C1319.11267,36.504 1319.69766,36.3436683 1320.209,36.023 C1320.72034,35.7023317 1321.054,35.2386697 1321.21,34.632 L1321.21,29.12 C1320.96733,28.9293324 1320.63367,28.7863338 1320.209,28.691 C1319.78433,28.5956662 1319.338,28.548 1318.87,28.548 C1318.402,28.548 1317.947,28.6259992 1317.505,28.782 C1317.063,28.9380008 1316.673,29.1849983 1316.335,29.523 C1315.997,29.8610017 1315.72833,30.298664 1315.529,30.836 C1315.32967,31.373336 1315.23,32.0319961 1315.23,32.812 C1315.23,33.9213389 1315.50733,34.8139966 1316.062,35.49 C1316.61667,36.1660034 1317.41399,36.504 1318.454,36.504 Z M1340.684,37.622 C1340.45867,37.830001 1340.16834,38.0336657 1339.813,38.233 C1339.45766,38.4323343 1339.04167,38.6186658 1338.565,38.792 C1338.08833,38.9653342 1337.564,39.1039995 1336.992,39.208 C1336.42,39.3120005 1335.81334,39.364 1335.172,39.364 C1334.06266,39.364 1333.07034,39.2080016 1332.195,38.896 C1331.31966,38.5839984 1330.57867,38.129003 1329.972,37.531 C1329.36533,36.932997 1328.90167,36.2136709 1328.581,35.373 C1328.26033,34.5323291 1328.1,33.574672 1328.1,32.5 C1328.1,31.3559943 1328.282,30.3550043 1328.646,29.497 C1329.01,28.6389957 1329.50833,27.9240029 1330.141,27.352 C1330.77367,26.7799971 1331.51466,26.3510014 1332.364,26.065 C1333.21334,25.7789986 1334.132,25.636 1335.12,25.636 C1335.77867,25.636 1336.459,25.7226658 1337.161,25.896 C1337.863,26.0693342 1338.50866,26.3683312 1339.098,26.793 C1339.68734,27.2176688 1340.16833,27.7853298 1340.541,28.496 C1340.91367,29.2066702 1341.1,30.1079945 1341.1,31.2 C1341.1,31.9453371 1341.01333,32.751329 1340.84,33.618 L1331.48,33.618 C1331.49733,34.1726694 1331.61433,34.6406648 1331.831,35.022 C1332.04767,35.4033352 1332.33366,35.7153321 1332.689,35.958 C1333.04434,36.2006679 1333.45166,36.3783328 1333.911,36.491 C1334.37034,36.6036672 1334.86,36.66 1335.38,36.66 C1336.42001,36.66 1337.27366,36.5386679 1337.941,36.296 C1338.60834,36.0533321 1339.15,35.7586684 1339.566,35.412 L1340.684,37.622 Z M1335.068,28.34 C1334.61733,28.34 1334.19267,28.4006661 1333.794,28.522 C1333.39533,28.6433339 1333.03567,28.8209988 1332.715,29.055 C1332.39433,29.2890012 1332.13,29.5793316 1331.922,29.926 C1331.714,30.2726684 1331.59267,30.6626645 1331.558,31.096 L1337.954,31.096 C1337.954,30.2466624 1337.71567,29.5750025 1337.239,29.081 C1336.76233,28.5869975 1336.03867,28.34 1335.068,28.34 Z M1344.818,38.48 L1343.336,36.14 L1352.8,30.55 L1343.336,24.83 L1344.818,22.49 L1356.96,30.03 L1356.96,31.33 L1344.818,38.48 Z" id="&lt;aside&gt;&lt;/aside&gt;" fill="#4B4B4B"></path>
            </g>
        </g>
    </g>
</svg>
