<svg viewBox="0 0 151 48" xmlns="http://www.w3.org/2000/svg">
  <g fill="#FFF" fill-rule="evenodd">
    <path d="M16.99 14.65c-.028.057-.057.113-.057.198V32.48c0 .085.028.142.057.198 0 .057.028.113.085.142.028.028.085.057.113.085.057 0 .142.028.198.028H30.17a.507.507 0 0 0 .312-.085c.057-.028.085-.113.085-.198l.028-.028.028-.028c0-.028.028-.057.028-.057.028-.028.028-.057.028-.085v-3.175c0-.312-.142-.482-.454-.482h-8.589v-3.429h6.435c.057 0 .142 0 .17-.028a.63.63 0 0 0 .142-.085.405.405 0 0 0 .113-.283v-2.721c0-.085 0-.142-.028-.198-.028-.057-.057-.085-.085-.113a.218.218 0 0 0-.142-.057c-.057-.028-.113-.028-.198-.028h-6.406v-3.344H29.914c.085 0 .142-.028.227-.028.057-.028.085-.085.142-.142l.085-.17c.028-.057.028-.113.028-.17v-3.118c0-.085 0-.142-.028-.227a.63.63 0 0 0-.085-.142.469.469 0 0 0-.34-.142H17.387c-.057 0-.142.028-.198.028-.028.028-.085.057-.113.113a.15.15 0 0 0-.086.139zm22.366.085v.057h-.028l-6.86 17.773c0 .057-.028.113-.028.17.028.028.028.057.057.085a.63.63 0 0 1 .142.085c.057 0 .113.028.198.028h3.713a.612.612 0 0 0 .34-.113.515.515 0 0 0 .198-.283c.113-.255.17-.454.255-.652l.255-.652c.057-.198.142-.397.227-.624l.255-.652.028-.057H44.94l.028.057c.142.368.312.822.482 1.276l.255.652c.057.198.142.397.255.624v.028l.085.17c.028.057.085.085.113.113a.458.458 0 0 0 .17.085c.057 0 .142.028.227.028h3.6a.559.559 0 0 0 .255-.057c.085 0 .113-.028.17-.085.028-.028.028-.057.028-.113.028-.057 0-.113-.028-.17l-6.633-17.121-.312-.709c0-.028-.028-.057-.057-.085-.057-.028-.085-.057-.142-.113-.028-.028-.085-.057-.113-.085-.057 0-.113-.028-.17-.028h-3.231c-.028 0-.057 0-.085.028-.028 0-.057 0-.085.028-.057 0-.085.028-.113.028-.028.028-.057.057-.085.057l-.085.085-.057.057c-.028.029-.056.057-.056.085zm1.842 6.066c.085-.227.142-.454.227-.68l.113-.283.085.283 1.956 5.783.028.142H39.44l.057-.142c.057-.227.142-.454.227-.68.085-.255.17-.482.255-.709.085-.227.17-.482.227-.737.085-.227.17-.482.255-.765.085-.255.17-.482.227-.737l.255-.765c.085-.228.17-.483.255-.71z"/>
    <path d="M14.468.647h35.263c2.75 0 4.677 1.219 6.18 3.033 1.247 1.502 2.126 3.43 2.948 5.357 1.531 3.628 3.061 7.257 4.62 10.885 1.304 3.09 1.304 4.819 0 7.909-1.559 3.628-3.09 7.257-4.62 10.885-.822 1.928-1.701 3.855-2.948 5.357-1.502 1.814-3.43 3.033-6.18 3.033H14.468c-2.721 0-4.677-1.191-6.18-3.005-1.276-1.531-2.154-3.458-2.948-5.414-1.361-3.317-2.693-6.661-4.054-10.006-1.502-3.685-1.559-5.783-.057-9.496a1459.68 1459.68 0 0 0 4.11-10.12c.794-1.956 1.672-3.883 2.948-5.414C9.79 1.838 11.746.647 14.468.647zm35.263 4.819H14.468c-1.077 0-1.871.482-2.494 1.247-.879 1.049-1.559 2.58-2.183 4.139-1.502 3.685-3.005 7.398-4.507 11.083-.595 1.474-.482 2.636.113 4.11 1.446 3.628 2.92 7.228 4.394 10.857.624 1.559 1.304 3.09 2.183 4.139.624.765 1.417 1.247 2.494 1.247h35.263c1.077 0 1.843-.482 2.494-1.247.85-1.077 1.559-2.608 2.211-4.167 1.587-3.742 3.175-7.512 4.791-11.254.454-1.134.567-2.126.085-3.288-1.644-3.798-3.26-7.625-4.876-11.452-.652-1.559-1.361-3.09-2.211-4.167-.652-.765-1.417-1.247-2.494-1.247z" fill-rule="nonzero"/>
    <path d="M72.068 14.65c-.028.057-.057.113-.057.198L70.197 32.48c0 .142.057.255.113.34.057.057.17.113.34.113h3.572c.17 0 .283-.057.368-.113.085-.085.113-.198.142-.34v-.028l1.077-9.723.085-.539.142.51 2.835 9.78v.028c0 .028.028.057.057.113 0 .028.057.085.113.142.028.028.085.085.142.113.028 0 .057.028.085.028h3.317c.028 0 .085-.028.113-.028.028-.028.085-.085.142-.113a.63.63 0 0 1 .085-.142c.028-.057.057-.085.057-.113v-.028l2.835-9.808.17-.51.057.539 1.077 9.751v.028c.028.142.057.255.142.34a.627.627 0 0 0 .368.113h3.572c.17 0 .283-.057.34-.113.085-.057.113-.142.113-.283v-.057c-.142-1.474-.312-2.948-.454-4.422a225.49 225.49 0 0 0-.454-4.394c-.142-1.474-.312-2.92-.454-4.394-.142-1.474-.312-2.948-.454-4.422a.399.399 0 0 0-.057-.198c-.028-.057-.057-.085-.113-.142-.057-.057-.085-.085-.17-.085v-.028c-.028 0-.113-.028-.17-.028h-4.309c-.255 0-.454.142-.539.425l-3.458 11.452-.113.34-.113-.34-3.43-11.452c-.057-.283-.227-.425-.482-.425h-4.365a.527.527 0 0 0-.227.057c-.057 0-.085.028-.142.085-.028.056-.084.084-.084.141zM99.11 24.685a6.25 6.25 0 0 1 0-2.069c.057-.312.142-.652.283-.964.113-.312.255-.595.425-.879.17-.255.368-.51.567-.737.227-.255.454-.454.709-.624.283-.198.539-.34.85-.482a4.92 4.92 0 0 1 1.956-.397c.34 0 .709.028 1.02.085.34.085.652.17.935.312.312.142.595.283.85.482.255.17.482.368.709.624.227.227.397.482.567.737.17.283.312.567.454.879.113.312.198.652.255.964a6.26 6.26 0 0 1 0 2.069c-.057.34-.142.652-.255.964a5.908 5.908 0 0 1-.454.85c-.17.283-.34.539-.567.765a7.677 7.677 0 0 1-.709.624c-.255.17-.539.34-.85.454-.283.142-.595.227-.935.312a6.158 6.158 0 0 1-2.04 0c-.34-.085-.652-.17-.935-.312-.312-.113-.567-.283-.85-.454a7.392 7.392 0 0 1-.709-.624 5.42 5.42 0 0 1-.567-.765 3.972 3.972 0 0 1-.425-.85 3.78 3.78 0 0 1-.284-.964zm-4.422-3.572a9.537 9.537 0 0 0-.34 2.551c0 .454.028.879.085 1.304.057.425.142.822.255 1.247.113.397.255.794.397 1.191.17.368.34.737.567 1.077.198.34.425.68.68.992.255.34.51.652.794.935.312.283.595.567.935.794.312.255.652.482 1.02.709.34.198.709.368 1.077.539.397.17.794.283 1.191.397.822.227 1.672.34 2.551.34.425 0 .879-.028 1.304-.085.397-.057.822-.142 1.247-.255a5.613 5.613 0 0 0 1.162-.397c.397-.17.765-.34 1.106-.539a9.27 9.27 0 0 0 1.02-.709c.312-.227.624-.51.935-.794.283-.283.567-.595.794-.935.255-.312.482-.652.68-.992.227-.34.397-.709.567-1.106.142-.368.283-.765.397-1.162.113-.425.198-.822.255-1.247.057-.425.085-.85.085-1.304 0-.454-.028-.879-.085-1.304a8.55 8.55 0 0 0-.255-1.219 11.618 11.618 0 0 0-.397-1.191c-.17-.397-.34-.765-.567-1.106a6.352 6.352 0 0 0-.68-1.02c-.227-.34-.51-.624-.794-.935-.312-.283-.595-.567-.935-.794a6.396 6.396 0 0 0-1.02-.68c-.34-.227-.709-.397-1.106-.567a14.016 14.016 0 0 0-1.162-.397c-.425-.113-.85-.198-1.276-.255a9.28 9.28 0 0 0-1.276-.085c-.454 0-.879.028-1.304.085a9.852 9.852 0 0 0-1.247.255c-.397.113-.794.255-1.191.397-.368.17-.737.34-1.077.567a6.352 6.352 0 0 0-1.02.68c-.34.227-.624.51-.935.794a8.62 8.62 0 0 0-.794.935 6.396 6.396 0 0 0-.68 1.02c-.227.34-.397.709-.567 1.106-.169.369-.283.766-.396 1.163zm37.758 5.074c.227-.794.312-1.644.312-2.523 0-.425-.028-.85-.085-1.276a8.55 8.55 0 0 0-.255-1.219c-.113-.397-.227-.794-.397-1.162-.17-.369-.34-.737-.539-1.077-.227-.34-.454-.68-.68-.992-.255-.312-.539-.595-.822-.879a7.548 7.548 0 0 0-.907-.765h-.028a7.684 7.684 0 0 0-.992-.68 6.576 6.576 0 0 0-1.105-.51c-.369-.17-.765-.283-1.162-.397a9.537 9.537 0 0 0-2.551-.34h-6.208a.527.527 0 0 0-.227.057c-.057 0-.085.028-.142.085a.608.608 0 0 0-.085.142c0 .057-.028.142-.028.198v17.66c0 .17.057.283.142.312a.608.608 0 0 0 .142.085c.057 0 .142.028.198.028h6.208c.454 0 .879-.028 1.304-.085a9.852 9.852 0 0 0 1.247-.255c.397-.113.794-.227 1.191-.368.369-.17.737-.34 1.077-.539a8.754 8.754 0 0 0 1.02-.624c.312-.255.624-.51.907-.794a12 12 0 0 0 .822-.879c.227-.312.454-.652.68-.992.198-.34.397-.68.539-1.049.168-.368.31-.765.424-1.162zm-11.226 2.325v-9.807h1.785c.34 0 .68.028 1.02.085.34.057.652.17.964.283.312.113.595.255.879.454.255.17.51.369.737.567.227.227.454.482.624.737.198.255.34.539.482.85.142.283.227.624.312.935a6.25 6.25 0 0 1 0 2.041 4.545 4.545 0 0 1-.255.879 3.729 3.729 0 0 1-.425.822 4.442 4.442 0 0 1-1.247 1.276c-.227.17-.51.312-.765.454a4.585 4.585 0 0 1-.879.312 3.233 3.233 0 0 1-.935.142c-.198.028-.34.028-.51.057h-.311c-.113.028-.198.028-.312.028h-1.162v-.115h-.002zm15.081-13.862c0 .057-.028.113-.028.198V32.48c0 .085.028.142.028.198a.63.63 0 0 0 .085.142c.057.028.085.057.142.085.057 0 .142.028.198.028h12.784a.507.507 0 0 0 .312-.085c.057-.028.085-.113.085-.198v-.028l.028-.028.057-.057c.028-.028.028-.057.028-.085v-3.175c0-.312-.17-.482-.454-.482h-8.589v-3.429h6.406c.085 0 .142 0 .198-.028a.63.63 0 0 0 .142-.085c.057-.085.113-.198.113-.283v-2.721c0-.085-.028-.142-.028-.198-.028-.057-.057-.085-.085-.113-.057-.028-.085-.057-.142-.057-.057-.028-.142-.028-.198-.028h-6.406v-3.344H149.254c.085 0 .142-.028.198-.028.057-.028.113-.085.17-.142l.085-.17c.028-.057.028-.113.028-.17v-3.118c0-.085 0-.142-.028-.227a.63.63 0 0 0-.085-.142.489.489 0 0 0-.368-.142h-12.529c-.085 0-.142.028-.198.028a.219.219 0 0 0-.113.113c-.057.026-.085.082-.113.139z"/>
  </g>
</svg>
