
<svg width="100%" height="100%"  viewBox="0 0 435 491" version="1.1" xmlns="http://www.w3.org/2000/svg" xmlns:xlink="http://www.w3.org/1999/xlink">
    <!-- Generator: Sketch 48.1 (47250) - http://www.bohemiancoding.com/sketch -->
    <desc>Created with Sketch.</desc>
    <defs>
        <linearGradient x1="49.8572925%" y1="99.8538948%" x2="50.0190144%" y2="-0.19189207%" id="linearGradient-1">
            <stop stop-color="#000F25" offset="0%"></stop>
            <stop stop-color="#6E6E6E" offset="100%"></stop>
        </linearGradient>
    </defs>
    <g id="Page-1" stroke="none" stroke-width="1" fill="none" fill-rule="evenodd">
        <g id="Group-4" transform="translate(11.000000, 11.000000)">
            <g id="eang-logo">
                <polygon id="Shape" stroke="#FFFFFF" stroke-width="20" fill="url(#linearGradient-1)" points="205.71 0.171 412.78 81.397 392.76 354.25 206.853 467.51 19.803 353.106 0.356 81.968"></polygon>
                <polygon id="Shape" fill-opacity="0.098" fill="#000000" points="205.142 0.01 206.858 467.414 392.533 353.779 412.258 81.055"></polygon>
            </g>
            <path d="M183.051558,270.3018 L189.490998,269.61186 L189.950958,288.24024 C172.472391,291.766618 156.987226,293.52978 143.494999,293.52978 C126.476394,293.52978 114.249247,288.853567 106.81319,279.501 C99.3771326,270.148434 95.6591598,255.199883 95.6591598,234.654901 C95.6591598,193.871578 112.294213,173.480222 145.564819,173.480222 C177.762179,173.480222 193.860618,191.035186 193.860618,226.145641 L192.250758,244.084081 L120.956959,244.084081 C121.11028,253.589968 123.180079,260.565958 127.166419,265.01226 C131.152759,269.458563 138.588705,271.68168 149.474479,271.68168 C160.360253,271.68168 171.552501,271.221725 183.051558,270.3018 Z M169.252758,224.765761 C169.252758,213.420025 167.451267,205.485794 163.848229,200.962832 C160.245191,196.439869 154.150782,194.178422 145.564819,194.178422 C136.978856,194.178422 130.731129,196.554858 126.821449,201.307802 C122.91177,206.060745 120.8803,213.879987 120.726979,224.765761 L169.252758,224.765761 Z M312.041117,211.426921 L312.041117,263.862361 C312.194437,267.235417 313.076018,269.726842 314.685886,271.33671 C316.295754,272.946578 318.78718,273.981478 322.160236,274.44144 L321.470296,293.52978 C308.284711,293.52978 298.089033,290.693388 290.882957,285.02052 C278.617296,290.693388 266.275159,293.52978 253.856178,293.52978 C231.011384,293.52978 219.589158,281.340962 219.589158,256.962961 C219.589158,245.310583 222.693857,236.878067 228.903348,231.665161 C235.112839,226.452255 244.656913,223.309227 257.535858,222.235981 L287.203277,219.706201 L287.203277,211.426921 C287.203277,205.294091 285.86174,201.001174 283.178627,198.548042 C280.495514,196.094909 276.547563,194.868362 271.334657,194.868362 C261.522128,194.868362 249.256651,195.481636 234.537858,196.708202 L227.178498,197.168162 L226.258578,179.459702 C242.970541,175.473362 258.340717,173.480222 272.369567,173.480222 C286.398417,173.480222 296.517436,176.508262 302.726927,182.564432 C308.936418,188.620602 312.041117,198.241336 312.041117,211.426921 Z M260.525597,239.944441 C249.946465,240.864366 244.656978,246.613808 244.656978,257.192941 C244.656978,267.772073 249.333191,273.06156 258.685757,273.06156 C266.351796,273.06156 274.477674,271.835013 283.063637,269.38188 L287.203277,268.002 L287.203277,237.414661 L260.525597,239.944441 Z" id="ea" fill="#FFFFFF"></path>
        </g>
    </g>
</svg>
