<svg viewBox="0 0 85 55" xmlns="http://www.w3.org/2000/svg">
  <g fill="#000" fill-rule="evenodd">
    <path d="M17.802 19.517c2.733.035 4.675.9 5.825 2.516 1.115 1.655 1.33 3.812.684 6.437h-9.133c.216 1.546 1.438 2.338 3.667 2.338.863 0 1.762-.108 2.732-.288.97-.18 1.69-.396 2.23-.647l.575 3.74c-1.905.899-3.883 1.365-5.86 1.365-2.517 0-4.567-.683-6.149-2.05C10.792 31.527 10 29.62 10 27.176c0-1.654.431-3.128 1.223-4.315.791-1.186 1.726-2.05 2.877-2.554 1.149-.539 2.407-.79 3.702-.79zm-2.589 5.86h4.747c.072-.611-.108-1.078-.575-1.401a2.79 2.79 0 0 0-1.618-.504c-.575 0-1.115.18-1.619.504-.503.323-.791.79-.935 1.401zm21.575 7.156a3.661 3.661 0 0 1-1.905 1.762c-.9.395-1.835.576-2.84.576-1.402 0-2.625-.432-3.668-1.294-1.042-.863-1.618-1.978-1.654-3.344-.072-1.797.431-3.128 1.474-4.063 1.043-.935 2.481-1.366 4.243-1.366 1.33 0 2.409.251 3.272.791v-.43c0-1.116-1.043-1.69-3.165-1.69-1.654 0-3.02.25-4.063.791l-.612-3.667c1.619-.72 3.452-1.078 5.574-1.078 2.193 0 3.955.466 5.321 1.366 1.331.9 2.013 2.373 2.013 4.423v4.71c0 .467 0 .755.036.97.035.18.143.36.323.504.18.143.469.251.863.251v2.805c-3.235.752-4.997.104-5.212-2.017zm-1.115-3.452v-.323c-.647-.467-1.439-.684-2.301-.647-.575.035-1.007.215-1.295.503-.288.324-.396.72-.288 1.259.072.683.539 1.042 1.366 1.042.611 0 1.186-.18 1.726-.503.54-.324.792-.756.792-1.33z"/>
    <path d="M24.374 4.607a5958.941 5958.941 0 0 1-17.96 8.009c-1.03.456-1.75.767-2.014 1.342-.216.528 0 1.319.096 2.326L7.013 38.68c.096.72.311 1.343.96 1.727 5.49 3.476 10.982 6.21 16.449 9.663.623.384.91.456 1.51.072 5.588-3.525 11.198-6.33 16.786-9.855.503-.311.6-.48.671-1.055l2.806-24.936c.072-.648-.264-.84-.815-1.104-6.402-2.829-12.781-5.682-19.183-8.535-.671-.29-1.151-.338-1.823-.05zM1.212 10.505C8.932 7.052 16.678 3.624 24.399.171c.528-.216 1.103-.24 1.654 0C33.75 3.6 41.472 7.028 49.168 10.458a2.03 2.03 0 0 1 1.295 2.11c-1.079 9.592-2.158 19.183-3.237 28.75-.072.6-.384 1.15-.935 1.486C39.649 47 32.983 50.477 26.34 54.673c-.647.407-1.486.456-2.182.023-6.642-4.196-13.283-7.65-19.902-11.845a1.99 1.99 0 0 1-1.007-1.534C2.17 31.75 1.092 22.158.013 12.567a2.005 2.005 0 0 1 1.199-2.062z" fill-rule="nonzero"/>
    <path d="M57.98 33.713h-4.761c.138-1.081.184-2.047.184-3.473v-7.084c0-1.587-.046-2.553-.184-3.473h4.577v.966c0 .138-.023.483-.023.644 1.449-1.38 2.852-1.955 4.738-1.955 1.587 0 2.852.437 3.703 1.288.92.92 1.311 2.047 1.311 3.864v5.773c0 1.334.069 2.484.184 3.45h-4.784c.138-1.104.184-2.07.184-3.473v-4.715c0-.92-.092-1.311-.368-1.702-.299-.414-.828-.644-1.518-.644-1.288 0-2.438.805-3.427 2.415v4.646c0 1.311.046 2.277.184 3.473zm11.891 1.794l3.312-2.185c.805 1.035 1.978 1.564 3.496 1.564 1.265 0 2.254-.345 2.806-1.012.483-.552.69-1.242.736-2.461-1.173 1.058-2.415 1.518-4.186 1.518-4.002 0-6.532-2.622-6.532-6.808 0-4.094 2.599-6.785 6.532-6.785 1.702 0 2.944.391 4.186 1.334v-.989h4.508c-.138 1.035-.184 1.84-.184 3.197v8.073c0 2.76-.782 4.623-2.392 5.75-1.242.874-3.174 1.357-5.474 1.357-3.128 0-5.198-.782-6.808-2.553zm4.002-9.361c0 2.116 1.196 3.473 3.013 3.473 1.886 0 3.243-1.449 3.243-3.496 0-2.047-1.357-3.519-3.22-3.519-1.84 0-3.036 1.403-3.036 3.542z"/>
  </g>
</svg>
