
<svg width="100%" height="100%" viewBox="0 0 257 230" version="1.1" xmlns="http://www.w3.org/2000/svg" xmlns:xlink="http://www.w3.org/1999/xlink">
    <!-- Generator: Sketch 49.3 (51167) - http://www.bohemiancoding.com/sketch -->
    <desc>Created with Sketch.</desc>
    <defs>
        <linearGradient x1="47213%" y1="50775%" x2="47213%" y2="49263%" id="linearGradient-1">
            <stop stop-color="#425B9A" stop-opacity="0.25" offset="0%"></stop>
            <stop stop-color="#808080" stop-opacity="0.12" offset="54%"></stop>
            <stop stop-color="#808080" stop-opacity="0.1" offset="100%"></stop>
        </linearGradient>
    </defs>
    <g id="Page-1" stroke="none" stroke-width="1" fill="none" fill-rule="evenodd">
        <g id="Group-14">
            <polygon id="Shape" fill="url(#linearGradient-1)" fill-rule="nonzero" transform="translate(117.000000, 61.500000) scale(-1, -1) translate(-117.000000, -61.500000) " points="121.640805 59.4450402 122 59.266756 121.913793 59.252681 121.942529 59.2339142 121.889847 59.252681 112 58 112.215517 61.2044236 112.52682 64.0475871 113.135057 63.7426273 113.700192 65"></polygon>
            <polygon id="Shape" fill="#4285F4" fill-rule="nonzero" transform="translate(116.500000, 61.000000) scale(-1, -1) translate(-116.500000, -61.000000) " points="112 60.6256684 112.283465 63 121 59 113.431496 59.1497326"></polygon>
            <polygon id="Shape" fill="#000000" fill-rule="nonzero" opacity="0.2" transform="translate(116.500000, 61.000000) scale(-1, -1) translate(-116.500000, -61.000000) " points="112 60.6256684 112.283465 63 121 59 113.431496 59.1497326"></polygon>
            <polygon id="Shape" fill="#FFFFFF" fill-rule="nonzero" transform="translate(117.500000, 63.500000) scale(-1, -1) translate(-117.500000, -63.500000) " points="113 62 122 63.176 113.18962 65"></polygon>
            <polygon id="Shape" fill="#FFFFFF" fill-rule="nonzero" transform="translate(116.500000, 60.500000) scale(-1, -1) translate(-116.500000, -60.500000) " points="113.237379 63 121 58 112 60.4577778"></polygon>
            <polygon id="Shape" fill="url(#linearGradient-1)" fill-rule="nonzero" transform="translate(35.500000, 62.500000) scale(-1, -1) translate(-35.500000, -62.500000) " points="42.5192906 57.4027899 43 57.0335658 42.8739888 57.0383609 42.9066584 57 42.8366521 57.0383609 28 57.6665214 29.1387679 62.5479512 30.3242066 66.8395815 31.1409459 66.2114211 32.2890479 68"></polygon>
            <polygon id="Shape" fill="#4285F4" fill-rule="nonzero" transform="translate(35.500000, 63.500000) scale(-1, -1) translate(-35.500000, -63.500000) " points="29 64.0848806 30.0931072 68 42 59 30.7217611 61.2297082"></polygon>
            <polygon id="Shape" fill="#000000" fill-rule="nonzero" opacity="0.2" transform="translate(35.500000, 63.500000) scale(-1, -1) translate(-35.500000, -63.500000) " points="29 64.0848806 30.0931072 68 42 59 30.7217611 61.2297082"></polygon>
            <polygon id="Shape" fill="#FFFFFF" fill-rule="nonzero" transform="translate(36.000000, 65.500000) scale(-1, -1) translate(-36.000000, -65.500000) " points="29 63.629108 43 63 30.0427522 68"></polygon>
            <polygon id="Shape" fill="#FFFFFF" fill-rule="nonzero" transform="translate(34.500000, 63.000000) scale(-1, -1) translate(-34.500000, -63.000000) " points="30.6029301 68 41 58 28 64.2322275"></polygon>
            <polygon id="Shape" fill="url(#linearGradient-1)" fill-rule="nonzero" transform="translate(74.000000, 40.500000) scale(-1, -1) translate(-74.000000, -40.500000) " points="78.6212471 40.5799087 79 40.4931507 78.9214781 40.4657534 78.9538106 40.4520548 78.8983834 40.4520548 69.9422633 37 69.3833718 40.0776256 69 42.8310502 69.6420323 42.6849315 69.8683603 44"></polygon>
            <polygon id="Shape" fill="#4285F4" fill-rule="nonzero" transform="translate(73.000000, 40.000000) scale(-1, -1) translate(-73.000000, -40.000000) " points="68.3769841 39.2874693 68 42 78 39.7297297 70.2470238 38"></polygon>
            <polygon id="Shape" fill="#000000" fill-rule="nonzero" opacity="0.2" transform="translate(73.000000, 40.000000) scale(-1, -1) translate(-73.000000, -40.000000) " points="68.3769841 39.2874693 68 42 78 39.7297297 70.2470238 38"></polygon>
            <polygon id="Shape" fill="#FFFFFF" fill-rule="nonzero" transform="translate(73.500000, 41.500000) scale(-1, -1) translate(-73.500000, -41.500000) " points="69.5149485 40 78 43 69 42.6181047"></polygon>
            <polygon id="Shape" fill="#FFFFFF" fill-rule="nonzero" transform="translate(73.500000, 38.500000) scale(-1, -1) translate(-73.500000, -38.500000) " points="69.5146832 40 78 37 69 37.3787234"></polygon>
            <g id="Group" opacity="0.3" transform="translate(224.000000, 158.000000) scale(-1, -1) translate(-224.000000, -158.000000) translate(216.000000, 152.000000)" fill-rule="nonzero">
                <polygon id="Shape" fill="url(#linearGradient-1)" points="15.2824242 0.645 15.7769697 0.26 15.6460606 0.265 15.6848485 0.225 15.6072727 0.265 0.198787879 0.92 1.38181818 6.01 2.61333333 10.49 3.4569697 9.83 4.65454545 11.7"></polygon>
                <polygon id="Shape" fill="#4285F4" points="1.86666667 5.82 2.99636364 9.92 15.3066667 0.495 3.64606061 2.83"></polygon>
                <polygon id="Shape" fill="#000000" opacity="0.2" points="1.86666667 5.82 2.99636364 9.92 15.3066667 0.495 3.64606061 2.83"></polygon>
                <polygon id="Shape" fill="#FFFFFF" points="0.785454545 1.165 15.3066667 0.495 1.86666667 5.82"></polygon>
                <polygon id="Shape" fill="#FFFFFF" points="4.89212121 11.015 15.2145455 0.47 2.30787879 7.04"></polygon>
            </g>
            <g id="Group" opacity="0.3" transform="translate(189.000000, 82.000000) scale(-1, -1) translate(-189.000000, -82.000000) translate(181.000000, 76.000000)" fill-rule="nonzero">
                <polygon id="Shape" fill="url(#linearGradient-1)" points="15.1418182 0.64 15.6412121 0.25 15.510303 0.255 15.5490909 0.22 15.4715152 0.255 0.063030303 0.91 1.24606061 6 2.47272727 10.48 3.32121212 9.825 4.51393939 11.69"></polygon>
                <polygon id="Shape" fill="#4285F4" points="1.73090909 5.815 2.86060606 9.91 15.1660606 0.485 3.51030303 2.82"></polygon>
                <polygon id="Shape" fill="#000000" opacity="0.2" points="1.73090909 5.815 2.86060606 9.91 15.1660606 0.485 3.51030303 2.82"></polygon>
                <polygon id="Shape" fill="#FFFFFF" points="0.64969697 1.16 15.1660606 0.485 1.73090909 5.815"></polygon>
                <polygon id="Shape" fill="#FFFFFF" points="4.75636364 11.01 15.0787879 0.46 2.17212121 7.03"></polygon>
            </g>
            <g id="Group" opacity="0.5" transform="translate(230.500000, 52.000000) scale(-1, -1) translate(-230.500000, -52.000000) translate(225.000000, 48.000000)" fill-rule="nonzero">
                <polygon id="Shape" fill="url(#linearGradient-1)" points="10.52 4.17 10.93 4.075 10.85 4.04 10.88 4.03 10.82 4.03 1.13 0.25 0.52 3.62 0.105 6.635 0.8 6.47 1.05 7.915"></polygon>
                <polygon id="Shape" fill="#4285F4" points="0.87 3.64 0.495 6.4 10.575 4.09 2.755 2.33"></polygon>
                <polygon id="Shape" fill="#000000" opacity="0.2" points="0.87 3.64 0.495 6.4 10.575 4.09 2.755 2.33"></polygon>
                <polygon id="Shape" fill="#FFFFFF" points="1.425 0.555 10.575 4.09 0.87 3.64"></polygon>
                <polygon id="Shape" fill="#FFFFFF" points="1.375 7.57 10.525 4.045 0.825 4.49"></polygon>
            </g>
            <g id="Group" opacity="0.5" transform="translate(151.500000, 168.000000) scale(-1, -1) translate(-151.500000, -168.000000) translate(146.000000, 164.000000)" fill-rule="nonzero">
                <polygon id="Shape" fill="url(#linearGradient-1)" points="10.525 4.13647059 10.935 4.04235294 10.85 4.01411765 10.885 4 10.825 4.00470588 1.13 0.442352941 0.525 3.61411765 0.11 6.45647059 0.805 6.30117647 1.055 7.65647059"></polygon>
                <polygon id="Shape" fill="#4285F4" points="0.875 3.63294118 0.495 6.23058824 10.58 4.05647059 2.76 2.4"></polygon>
                <polygon id="Shape" fill="#000000" opacity="0.2" points="0.875 3.63294118 0.495 6.23058824 10.58 4.05647059 2.76 2.4"></polygon>
                <polygon id="Shape" fill="#FFFFFF" points="1.43 0.734117647 10.58 4.05647059 0.875 3.63294118"></polygon>
                <polygon id="Shape" fill="#FFFFFF" points="1.38 7.33647059 10.53 4.01882353 0.825 4.43294118"></polygon>
            </g>
            <g id="Group" opacity="0.2" transform="translate(64.500000, 223.000000) scale(-1, -1) translate(-64.500000, -223.000000) translate(59.000000, 219.000000)" fill-rule="nonzero">
                <polygon id="Shape" fill="url(#linearGradient-1)" points="10.3256522 4.16 10.7178261 4.065 10.6413043 4.035 10.67 4.02 10.6126087 4.025 1.33913043 0.24 0.760434783 3.61 0.363478261 6.63 1.02826087 6.465 1.2673913 7.905"></polygon>
                <polygon id="Shape" fill="#4285F4" points="1.09521739 3.63 0.73173913 6.39 10.3782609 4.08 2.89826087 2.32"></polygon>
                <polygon id="Shape" fill="#000000" points="1.09521739 3.63 0.73173913 6.39 10.3782609 4.08 2.89826087 2.32"></polygon>
                <polygon id="Shape" fill="#FFFFFF" points="1.62608696 0.545 10.3782609 4.08 1.09521739 3.63"></polygon>
                <polygon id="Shape" fill="#FFFFFF" points="1.57826087 7.565 10.3304348 4.035 1.05217391 4.48"></polygon>
            </g>
            <polygon id="Shape" fill="url(#linearGradient-1)" fill-rule="nonzero" transform="translate(202.500000, 213.500000) scale(-1, -1) translate(-202.500000, -213.500000) " points="209.46395 210.277193 210 209.992544 209.873041 209.973246 209.915361 209.944298 209.835423 209.968421 195 208 195.324451 213.041667 195.789969 217.509211 196.702194 217.02193 197.548589 219"></polygon>
            <polygon id="Shape" fill="#4285F4" fill-rule="nonzero" transform="translate(202.000000, 213.500000) scale(-1, -1) translate(-202.000000, -213.500000) " points="195 212.850945 195.43765 217 209 210 197.226726 210.264521"></polygon>
            <polygon id="Shape" fill="#000000" fill-rule="nonzero" opacity="0.2" transform="translate(202.000000, 213.500000) scale(-1, -1) translate(-202.000000, -213.500000) " points="195 212.850945 195.43765 217 209 210 197.226726 210.264521"></polygon>
            <polygon id="Shape" fill="#FFFFFF" fill-rule="nonzero" transform="translate(202.000000, 216.500000) scale(-1, -1) translate(-202.000000, -216.500000) " points="195 214 209 215.956067 195.29657 219"></polygon>
            <polygon id="Shape" fill="#FFFFFF" fill-rule="nonzero" transform="translate(202.000000, 213.000000) scale(-1, -1) translate(-202.000000, -213.000000) " points="196.923401 217 209 209 195 212.934884"></polygon>
            <polygon id="Shape" fill="url(#linearGradient-1)" fill-rule="nonzero" transform="translate(177.500000, 148.500000) scale(-1, -1) translate(-177.500000, -148.500000) " points="194.599099 158.14998 196 158.237974 195.766516 158.05221 195.885641 158.042433 195.695042 157.993547 168.439408 136 163.245589 146.42237 159 155.886586 161.377721 156.033242 160.777334 161"></polygon>
            <polygon id="Shape" fill="#4285F4" fill-rule="nonzero" transform="translate(176.500000, 146.500000) scale(-1, -1) translate(-176.500000, -146.500000) " points="162.94332 142.323444 159 150.653039 194 153 170.359479 140"></polygon>
            <polygon id="Shape" fill="#000000" fill-rule="nonzero" opacity="0.2" transform="translate(176.500000, 146.500000) scale(-1, -1) translate(-176.500000, -146.500000) " points="162.94332 142.323444 159 150.653039 194 153 170.359479 140"></polygon>
            <polygon id="Shape" fill="#FFFFFF" fill-rule="nonzero" transform="translate(174.500000, 150.000000) scale(-1, -1) translate(-174.500000, -150.000000) " points="163.826956 140 190 160 159 149.241706"></polygon>
            <polygon id="Shape" fill="#FFFFFF" fill-rule="nonzero" transform="translate(176.500000, 143.000000) scale(-1, -1) translate(-176.500000, -143.000000) " points="160 148 193 145.693015 161.235088 138"></polygon>
            <polygon id="Shape" fill="url(#linearGradient-1)" fill-rule="nonzero" transform="translate(171.000000, 26.000000) scale(-1, -1) translate(-171.000000, -26.000000) " points="207.045818 43.9606533 210 44.0571641 209.500431 43.6855976 209.740608 43.6566444 209.341914 43.5697847 150.623353 0 140.343762 21.8114328 132 41.5768374 137.005296 41.7360802 136.054194 52"></polygon>
            <polygon id="Shape" fill="#4285F4" fill-rule="nonzero" transform="translate(171.000000, 22.000000) scale(-1, -1) translate(-171.000000, -22.000000) " points="142.56539 14.3742219 135 32.2153057 207 35 157.634159 9"></polygon>
            <polygon id="Shape" fill="#000000" fill-rule="nonzero" opacity="0.2" transform="translate(171.000000, 22.000000) scale(-1, -1) translate(-171.000000, -22.000000) " points="142.56539 14.3742219 135 32.2153057 207 35 157.634159 9"></polygon>
            <polygon id="Shape" fill="#FFFFFF" fill-rule="nonzero" transform="translate(166.500000, 28.500000) scale(-1, -1) translate(-166.500000, -28.500000) " points="143.417012 8 199 49 134 28.0181883"></polygon>
            <polygon id="Shape" fill="#FFFFFF" fill-rule="nonzero" transform="translate(169.000000, 13.000000) scale(-1, -1) translate(-169.000000, -13.000000) " points="135 24 203 16.8501207 136.895254 2"></polygon>
            <polygon id="Shape" fill="url(#linearGradient-1)" fill-rule="nonzero" transform="translate(110.500000, 217.500000) scale(-1, -1) translate(-110.500000, -217.500000) " points="126.70442 211.817751 128 211.239332 127.70511 211.18718 127.80663 211.125545 127.61326 211.172957 93 205 93.1643646 216.355016 93.7299724 226.439408 95.929558 225.462735 97.6892265 230"></polygon>
            <polygon id="Shape" fill="#4285F4" fill-rule="nonzero" transform="translate(111.000000, 216.500000) scale(-1, -1) translate(-111.000000, -216.500000) " points="95 214.577792 95.5189704 224 127 209.794061 100.33254 209"></polygon>
            <polygon id="Shape" fill="#000000" fill-rule="nonzero" opacity="0.2" transform="translate(111.000000, 216.500000) scale(-1, -1) translate(-111.000000, -216.500000) " points="95 214.577792 95.5189704 224 127 209.794061 100.33254 209"></polygon>
            <polygon id="Shape" fill="#FFFFFF" fill-rule="nonzero" transform="translate(111.000000, 224.000000) scale(-1, -1) translate(-111.000000, -224.000000) " points="95 219 127 224.488584 95.1469194 229"></polygon>
            <polygon id="Shape" fill="#FFFFFF" fill-rule="nonzero" transform="translate(111.000000, 214.500000) scale(-1, -1) translate(-111.000000, -214.500000) " points="98.8339897 223 127 206 95 213.466374"></polygon>
            <polygon id="Shape" fill="url(#linearGradient-1)" fill-rule="nonzero" transform="translate(74.500000, 178.500000) scale(-1, -1) translate(-74.500000, -178.500000) " points="90.6995856 172.817751 92 172.244074 91.7051105 172.191921 91.8017956 172.125545 91.6132597 172.172957 57 166 57.1643646 177.355016 57.7299724 187.439408 59.929558 186.467476 61.6892265 191"></polygon>
            <polygon id="Shape" fill="#4285F4" fill-rule="nonzero" transform="translate(75.000000, 178.500000) scale(-1, -1) translate(-75.000000, -178.500000) " points="59 176.577792 59.5142857 186 91 171.794061 64.3285714 171"></polygon>
            <polygon id="Shape" fill="#000000" fill-rule="nonzero" opacity="0.2" transform="translate(75.000000, 178.500000) scale(-1, -1) translate(-75.000000, -178.500000) " points="59 176.577792 59.5142857 186 91 171.794061 64.3285714 171"></polygon>
            <polygon id="Shape" fill="#FFFFFF" fill-rule="nonzero" transform="translate(75.000000, 186.000000) scale(-1, -1) translate(-75.000000, -186.000000) " points="59 181 91 186.488584 59.1516588 191"></polygon>
            <polygon id="Shape" fill="#FFFFFF" fill-rule="nonzero" transform="translate(74.000000, 176.500000) scale(-1, -1) translate(-74.000000, -176.500000) " points="61.8345705 185 90 168 58 175.463756"></polygon>
            <polygon id="Shape" fill="url(#linearGradient-1)" fill-rule="nonzero" transform="translate(249.500000, 183.500000) scale(-1, -1) translate(-249.500000, -183.500000) " points="256.459248 180.272368 257 179.987719 256.873041 179.973246 256.910658 179.944298 256.830721 179.968421 242 178 242.324451 183.036842 242.785266 187.504386 243.697492 187.02193 244.543887 189"></polygon>
            <polygon id="Shape" fill="#4285F4" fill-rule="nonzero" transform="translate(250.000000, 183.500000) scale(-1, -1) translate(-250.000000, -183.500000) " points="243 182.852941 243.43765 187 257 180 245.226726 180.264706"></polygon>
            <polygon id="Shape" fill="#000000" fill-rule="nonzero" opacity="0.2" transform="translate(250.000000, 183.500000) scale(-1, -1) translate(-250.000000, -183.500000) " points="243 182.852941 243.43765 187 257 180 245.226726 180.264706"></polygon>
            <polygon id="Shape" fill="#FFFFFF" fill-rule="nonzero" transform="translate(250.000000, 186.500000) scale(-1, -1) translate(-250.000000, -186.500000) " points="243 184 257 185.956067 243.29657 189"></polygon>
            <polygon id="Shape" fill="#FFFFFF" fill-rule="nonzero" transform="translate(249.000000, 183.000000) scale(-1, -1) translate(-249.000000, -183.000000) " points="243.923401 187 256 179 242 182.934884"></polygon>
            <polygon id="Shape" fill="url(#linearGradient-1)" fill-rule="nonzero" transform="translate(158.500000, 190.500000) scale(-1, -1) translate(-158.500000, -190.500000) " points="165.463782 187.277193 166 186.992544 165.877705 186.973246 165.915334 186.944298 165.835372 186.968421 151 185 151.319849 190.041667 151.785513 194.509211 152.698024 194.026754 153.544685 196"></polygon>
            <polygon id="Shape" fill="#4285F4" fill-rule="nonzero" transform="translate(159.000000, 190.500000) scale(-1, -1) translate(-159.000000, -190.500000) " points="152 189.850945 152.43765 194 166 187 154.226726 187.264521"></polygon>
            <polygon id="Shape" fill="#000000" fill-rule="nonzero" opacity="0.2" transform="translate(159.000000, 190.500000) scale(-1, -1) translate(-159.000000, -190.500000) " points="152 189.850945 152.43765 194 166 187 154.226726 187.264521"></polygon>
            <polygon id="Shape" fill="#FFFFFF" fill-rule="nonzero" transform="translate(159.000000, 192.500000) scale(-1, -1) translate(-159.000000, -192.500000) " points="152 190 166 191.95288 152.29657 195"></polygon>
            <polygon id="Shape" fill="#FFFFFF" fill-rule="nonzero" transform="translate(158.000000, 190.000000) scale(-1, -1) translate(-158.000000, -190.000000) " points="152.923401 194 165 186 151 189.939535"></polygon>
            <g id="Group-11" transform="translate(0.000000, 82.000000)" fill="#FFFFFF">
                <path d="M26.9474769,30 C31.1313275,30.0551317 34.1050858,31.3960128 35.8668094,33.906473 C37.5741467,36.474034 37.9043485,39.8232833 36.9137432,43.8971204 L22.9287272,43.8971204 C23.2589289,46.2973173 25.1313672,47.525966 28.5440996,47.525966 C29.8649066,47.525966 31.2420423,47.358602 32.7279502,47.0790057 C34.2138582,46.7994093 35.3151782,46.4646813 36.1406826,46.0748216 L37.0225156,51.8793995 C34.1050858,53.2754123 31.0769414,54 28.0487969,54 C24.1951481,54 21.0562889,52.9387152 18.6341618,50.8181147 C16.2120347,48.6423825 15,45.6829929 15,41.8887522 C15,39.3211912 15.6604035,37.0332267 16.8724383,35.1902535 C18.084473,33.3492493 19.5159948,32.0083682 21.2777183,31.2266798 C23.0374995,30.3898597 24.9643239,30 26.9474769,30 Z M22.9831133,39.0967266 L30.251437,39.0967266 C30.3621517,38.1476741 30.0863361,37.4230864 29.3715464,36.9209943 C28.6548143,36.4189023 27.8293099,36.1393059 26.8930907,36.1393059 C26.0132001,36.1393059 25.1857534,36.4189023 24.4146351,36.9209943 C23.6435169,37.4230864 23.2026004,38.1476741 22.9831133,39.0967266 Z M56.018829,50.2037903 C55.4128117,51.4324391 54.4222064,52.3795225 53.1013993,52.9387152 C51.7242637,53.5530396 50.2927419,53.832636 48.7524478,53.832636 C46.6061363,53.832636 44.733698,53.1631799 43.1370754,51.8242678 C41.5404527,50.4853556 40.6586197,48.7546148 40.6042336,46.6340143 C40.4935188,43.8439577 41.2646371,41.7784888 42.8612598,40.3273443 C44.4578824,38.8761999 46.6605225,38.2067438 49.3584651,38.2067438 C51.3960043,38.2067438 53.0470131,38.5966035 54.3678202,39.4353926 L54.3678202,38.7659365 C54.3678202,37.0351957 52.7711975,36.1432439 49.5216237,36.1432439 C46.9887819,36.1432439 44.8968565,36.5331036 43.3002339,37.3718927 L42.3640147,31.6795471 C44.8424704,30.5631307 47.6491854,30.005907 50.8987593,30.005907 C54.2571055,30.005907 56.9550482,30.7304947 59.0469735,32.1265075 C61.0845126,33.5225203 62.1295041,35.8104849 62.1295041,38.9923702 L62.1295041,46.3032242 C62.1295041,47.027812 62.1295041,47.4747723 62.1838903,47.8095004 C62.2382764,48.0890967 62.4033773,48.3667241 62.6791929,48.5911888 C62.9550085,48.8136845 63.395925,48.9810485 64,48.9810485 L64,53.3344819 C59.0469735,54.5020921 56.3490308,53.495939 56.018829,50.2037903 Z M54.3114917,44.8461728 L54.3114917,44.3440807 C53.3208864,43.619493 52.1088516,43.282796 50.7880446,43.3398966 C49.908154,43.3950283 49.2458081,43.6746247 48.8048916,44.121585 C48.3639751,44.6236771 48.1988742,45.2380015 48.3639751,46.0748216 C48.4746898,47.1361063 49.1894795,47.6933301 50.4559004,47.6933301 C51.3921196,47.6933301 52.2720101,47.4137337 53.0994569,46.9116416 C53.9269037,46.4095496 54.3114917,45.7381245 54.3114917,44.8461728 Z" id="Shape"></path>
                <g id="EA-Mode_10" fill-rule="nonzero">
                    <path d="M37.7562578,7.11935956 C28.4701129,11.2700092 19.2219668,15.3827474 9.93582185,19.4967929 C8.33855774,20.2014229 7.22479688,20.682506 6.81598113,21.5714641 C6.48185287,22.3872138 6.81598113,23.6095311 6.96404581,25.166515 C8.26387025,36.6915944 9.56369469,48.253278 10.8635191,59.7783575 C11.0115838,60.889555 11.3457121,61.8530287 12.3494071,62.4465389 C20.8546092,67.8195058 29.3611215,72.0446711 37.829635,77.3810339 C38.7953312,77.9745441 39.2408355,78.0856639 40.1698431,77.4921536 C48.8244201,72.0446711 57.5156858,67.7096934 66.1702628,62.2622108 C66.9498954,61.7811277 67.0992704,61.5209767 67.2106465,60.6320187 C68.6598459,47.7735022 70.107735,34.9515898 71.5569344,22.0930733 C71.6683105,21.0929955 71.1481187,20.7962404 70.2937986,20.3883655 C60.377396,16.0154764 50.4963717,11.6059831 40.5799692,7.19648974 C39.5395855,6.74939614 38.7966415,6.67488054 37.7562578,7.11935956 Z M1.87743445,16.2351013 C13.8366055,10.8987385 25.8337754,5.60028715 37.7942567,0.263924362 C38.6118882,-0.0694349007 39.5028969,-0.106039055 40.357217,0.263924362 C52.2796994,5.563683 64.2401807,10.8621343 76.1626632,16.161893 C77.4624876,16.6442834 78.3168077,17.9777205 78.168743,19.4235846 C76.4967914,34.2469598 74.8261501,49.0690278 73.1541985,63.8544915 C73.0428225,64.781361 72.5593192,65.6337149 71.7049991,66.1514022 C61.4164694,72.636874 51.0912511,78.009841 40.8027213,84.4940054 C39.8003366,85.1241198 38.5005121,85.1986354 37.4234399,84.5306096 C27.1349101,78.0451378 16.8463804,72.708775 6.59453927,66.2246105 C5.74021917,65.7435274 5.14665015,64.8911735 5.03396376,63.8531843 C3.36201216,49.0677205 1.69137087,34.2443452 0.0194192743,19.4222773 C-0.128645405,18.1254444 0.577610011,16.7907001 1.87743445,16.2351013 Z" id="Shape"></path>
                </g>
                <path d="M89.4036496,52.2665848 L82,52.2665848 C82.2145985,50.5921376 82.2861314,49.0958231 82.2861314,46.8869779 L82.2861314,35.9140049 C82.2861314,33.455774 82.2145985,31.9594595 82,30.534398 L89.1175182,30.534398 L89.1175182,32.0307125 C89.1175182,32.2444717 89.0817518,32.7788698 89.0817518,33.0282555 C91.3350365,30.8906634 93.5167883,30 96.449635,30 C98.9175182,30 100.884672,30.6769042 102.208029,31.995086 C103.638686,33.4201474 104.246715,35.1658477 104.246715,37.980344 L104.246715,46.9226044 C104.246715,48.9889435 104.354015,50.7702703 104.532847,52.2665848 L97.0934307,52.2665848 C97.3080292,50.5565111 97.379562,49.0601966 97.379562,46.8869779 L97.379562,39.5835381 C97.379562,38.1584767 97.2364964,37.5528256 96.8072993,36.9471744 C96.3423358,36.3058968 95.519708,35.9496314 94.4467153,35.9496314 C92.4437956,35.9496314 90.6554745,37.1965602 89.1175182,39.6904177 L89.1175182,46.8869779 C89.1175182,48.9176904 89.1890511,50.4140049 89.4036496,52.2665848 Z M107.894891,55.0454545 L113.045255,51.6609337 C114.29708,53.2641278 116.121168,54.0835381 118.481752,54.0835381 C120.448905,54.0835381 121.986861,53.54914 122.845255,52.5159705 C123.59635,51.6609337 123.918248,50.5921376 123.989781,48.7039312 C122.165693,50.3427518 120.234307,51.0552826 117.480292,51.0552826 C111.256934,51.0552826 107.322628,46.9938575 107.322628,40.509828 C107.322628,34.1683047 111.364234,30 117.480292,30 C120.127007,30 122.058394,30.6056511 123.989781,32.0663391 L123.989781,30.534398 L131,30.534398 C130.785401,32.1375921 130.713869,33.3845209 130.713869,35.4864865 L130.713869,47.9914005 C130.713869,52.2665848 129.49781,55.1523342 126.994161,56.8980344 C125.062774,58.2518428 122.058394,59 118.481752,59 C113.617518,59 110.39854,57.7886978 107.894891,55.0454545 Z M114.118248,40.5454545 C114.118248,43.8230958 115.978102,45.9250614 118.80365,45.9250614 C121.736496,45.9250614 123.846715,43.6805897 123.846715,40.509828 C123.846715,37.3390663 121.736496,35.0589681 118.839416,35.0589681 C115.978102,35.0589681 114.118248,37.2321867 114.118248,40.5454545 Z" id="ng"></path>
            </g>
        </g>
    </g>
</svg>
