<svg viewBox="0 0 855 681" xmlns="http://www.w3.org/2000/svg">
  <g fill="none" fill-rule="evenodd">
    <g fill-rule="nonzero" transform="translate(3 3)">
      <path stroke="#979797" stroke-width="6" d="M0 0v675h849V0z"/>
      <path stroke="#060606" stroke-width="4" fill="#FFF" d="M12 42h828v621H12z"/>
      <path stroke="#242424" stroke-width="4" d="M12 9h828v33H12z"/>
      <circle stroke="#000" stroke-width="4" cx="36" cy="25" r="8"/>
      <circle stroke="#000" stroke-width="4" cx="58" cy="25" r="8"/>
      <circle stroke="#000" stroke-width="4" cx="80" cy="25" r="8"/>
    </g>
    <path fill="#333" d="M94 360h674v199H94z"/>
    <path fill="#DDE1EC" fill-rule="nonzero" d="M395.9 472.81h70.45v9.75H395.9zm121.38-30.68h70.45v9.75h-70.45zm-347.16-30.01h209.17v9.75H170.12zm0 30.34h209.17v9.75H170.12zm0 30.35h209.17v9.75H170.12zm0 30.35h209.17v9.75H170.12z"/>
    <path d="M185 126v15h-14a228.693 228.693 0 0 1 14-15zm7-4h19v19h-19zm26 0h19v19h-19zm26 0h19v19h-19zm27 0h19v19h-19zm26 0h19v19h-19z" fill="#425B9A" fill-rule="nonzero" opacity=".2"/>
    <path fill="#425B9A" fill-rule="nonzero" d="M323 122h19v19h-19z"/>
    <path fill="#425B9A" fill-rule="nonzero" opacity=".2" d="M349 122h19v19h-19zm26 0h19v19h-19zm26 0h19v19h-19z"/>
    <path fill="#425B9A" fill-rule="nonzero" d="M428 122h19v19h-19z"/>
    <path fill="#425B9A" fill-rule="nonzero" opacity=".2" d="M454 122h19v19h-19zm26 0h19v19h-19zm26 0h19v19h-19zm26 0h19v19h-19zm26 0h19v19h-19zm27 0h19v19h-19z"/>
    <path fill="#425B9A" fill-rule="nonzero" d="M611 122h19v19h-19zm26 0h19v19h-19z"/>
    <path fill="#425B9A" fill-rule="nonzero" opacity=".2" d="M663 122h19v19h-19zm26 0h19v19h-19z"/>
    <path fill="#425B9A" fill-rule="nonzero" d="M715 122h19v19h-19zm27 0h19v19h-19zm-583 34v9h-6a172.513 172.513 0 0 1 6-9z"/>
    <path fill="#425B9A" fill-rule="nonzero" opacity=".2" d="M166 146h19v19h-19z"/>
    <path fill="#425B9A" fill-rule="nonzero" d="M192 146h19v19h-19z"/>
    <path fill="#425B9A" fill-rule="nonzero" opacity=".2" d="M218 146h19v19h-19z"/>
    <path fill="#425B9A" fill-rule="nonzero" opacity=".7" d="M244 146h19v19h-19z"/>
    <path fill="#425B9A" fill-rule="nonzero" opacity=".2" d="M271 146h19v19h-19z"/>
    <path fill="#425B9A" fill-rule="nonzero" opacity=".4" d="M297 146h19v19h-19z"/>
    <path fill="#425B9A" fill-rule="nonzero" d="M323 146h19v19h-19z"/>
    <path fill="#425B9A" fill-rule="nonzero" opacity=".4" d="M349 146h19v19h-19z"/>
    <path fill="#425B9A" fill-rule="nonzero" opacity=".2" d="M375 146h19v19h-19z"/>
    <path fill="#425B9A" fill-rule="nonzero" opacity=".4" d="M401 146h19v19h-19z"/>
    <path fill="#425B9A" fill-rule="nonzero" d="M428 146h19v19h-19z"/>
    <path fill="#425B9A" fill-rule="nonzero" opacity=".4" d="M454 146h19v19h-19zm26 0h19v19h-19z"/>
    <path fill="#425B9A" fill-rule="nonzero" opacity=".2" d="M506 146h19v19h-19z"/>
    <path fill="#425B9A" fill-rule="nonzero" opacity=".4" d="M532 146h19v19h-19zm26 0h19v19h-19z"/>
    <path fill="#425B9A" fill-rule="nonzero" opacity=".2" d="M585 146h19v19h-19zm26 0h19v19h-19z"/>
    <path fill="#425B9A" fill-rule="nonzero" opacity=".4" d="M637 146h19v19h-19z"/>
    <path fill="#425B9A" fill-rule="nonzero" opacity=".2" d="M663 146h19v19h-19z"/>
    <path fill="#425B9A" fill-rule="nonzero" d="M689 146h19v19h-19zm26 0h19v19h-19zm27 0h19v19h-19z"/>
    <path d="M106 176v13H87v-6.35a131.835 131.835 0 0 1 19-6.65zm27-4v18h-19v-15.329z" fill="#425B9A" fill-rule="nonzero" opacity=".2"/>
    <path fill="#425B9A" fill-rule="nonzero" d="M140 170h19v19h-19z"/>
    <path fill="#425B9A" fill-rule="nonzero" opacity=".7" d="M166 170h19v19h-19z"/>
    <path fill="#425B9A" fill-rule="nonzero" d="M192 170h19v19h-19z"/>
    <path fill="#425B9A" fill-rule="nonzero" opacity=".7" d="M218 170h19v19h-19zm26 0h19v19h-19z"/>
    <path fill="#425B9A" fill-rule="nonzero" opacity=".2" d="M271 170h19v19h-19z"/>
    <path fill="#425B9A" fill-rule="nonzero" opacity=".4" d="M297 170h19v19h-19zm26 0h19v19h-19z"/>
    <path fill="#425B9A" fill-rule="nonzero" d="M349 170h19v19h-19z"/>
    <path fill="#425B9A" fill-rule="nonzero" opacity=".2" d="M375 170h19v19h-19z"/>
    <path fill="#425B9A" fill-rule="nonzero" opacity=".4" d="M401 170h19v19h-19z"/>
    <path fill="#425B9A" fill-rule="nonzero" d="M428 170h19v19h-19z"/>
    <path fill="#425B9A" fill-rule="nonzero" opacity=".2" d="M454 170h19v19h-19z"/>
    <path fill="#425B9A" fill-rule="nonzero" opacity=".4" d="M480 170h19v19h-19z"/>
    <path fill="#425B9A" fill-rule="nonzero" opacity=".2" d="M506 170h19v19h-19z"/>
    <path fill="#425B9A" fill-rule="nonzero" d="M532 170h19v19h-19z"/>
    <path fill="#425B9A" fill-rule="nonzero" opacity=".2" d="M558 170h19v19h-19z"/>
    <path fill="#425B9A" fill-rule="nonzero" opacity=".7" d="M585 170h19v19h-19zm26 0h19v19h-19z"/>
    <path fill="#425B9A" fill-rule="nonzero" opacity=".4" d="M637 170h19v19h-19z"/>
    <path fill="#425B9A" fill-rule="nonzero" opacity=".2" d="M663 170h19v19h-19z"/>
    <path fill="#425B9A" fill-rule="nonzero" d="M689 170h19v19h-19zm26 0h19v19h-19zm27 0h19v19h-19z"/>
    <path fill="#425B9A" fill-rule="nonzero" opacity=".2" d="M87 195h19v19H87zm27 0h19v19h-19zm26 0h19v19h-19zm26 0h19v19h-19z"/>
    <path fill="#425B9A" fill-rule="nonzero" d="M192 195h19v19h-19z"/>
    <path fill="#425B9A" fill-rule="nonzero" opacity=".7" d="M218 195h19v19h-19zm26 0h19v19h-19z"/>
    <path fill="#425B9A" fill-rule="nonzero" opacity=".2" d="M271 195h19v19h-19zm26 0h19v19h-19z"/>
    <path fill="#425B9A" fill-rule="nonzero" opacity=".4" d="M323 195h19v19h-19zm26 0h19v19h-19z"/>
    <path fill="#425B9A" fill-rule="nonzero" d="M375 195h19v19h-19z"/>
    <path fill="#425B9A" fill-rule="nonzero" opacity=".2" d="M401 195h19v19h-19z"/>
    <path fill="#425B9A" fill-rule="nonzero" opacity=".4" d="M428 195h19v19h-19zm26 0h19v19h-19zm26 0h19v19h-19zm26 0h19v19h-19z"/>
    <path fill="#425B9A" fill-rule="nonzero" opacity=".2" d="M532 195h19v19h-19zm26 0h19v19h-19zm27 0h19v19h-19zm26 0h19v19h-19z"/>
    <path fill="#425B9A" fill-rule="nonzero" opacity=".7" d="M637 195h19v19h-19zm26 0h19v19h-19z"/>
    <path fill="#425B9A" fill-rule="nonzero" opacity=".4" d="M689 195h19v19h-19z"/>
    <path fill="#425B9A" fill-rule="nonzero" opacity=".2" d="M715 195h19v19h-19z"/>
    <path fill="#425B9A" fill-rule="nonzero" d="M742 195h19v19h-19z"/>
    <path fill="#425B9A" fill-rule="nonzero" opacity=".2" d="M87 219h19v19H87zm27 0h19v19h-19z"/>
    <path fill="#425B9A" fill-rule="nonzero" opacity=".4" d="M140 219h19v19h-19z"/>
    <path fill="#425B9A" fill-rule="nonzero" opacity=".2" d="M166 219h19v19h-19zm26 0h19v19h-19z"/>
    <path fill="#425B9A" fill-rule="nonzero" opacity=".7" d="M218 219h19v19h-19zm26 0h19v19h-19z"/>
    <path fill="#425B9A" fill-rule="nonzero" opacity=".2" d="M271 219h19v19h-19zm26 0h19v19h-19z"/>
    <path fill="#425B9A" fill-rule="nonzero" opacity=".4" d="M323 219h19v19h-19z"/>
    <path fill="#425B9A" fill-rule="nonzero" d="M349 219h19v19h-19z"/>
    <path fill="#425B9A" fill-rule="nonzero" opacity=".2" d="M375 219h19v19h-19z"/>
    <path fill="#425B9A" fill-rule="nonzero" d="M401 219h19v19h-19zm27 0h19v19h-19zm26 0h19v19h-19z"/>
    <path fill="#425B9A" fill-rule="nonzero" opacity=".2" d="M480 219h19v19h-19z"/>
    <path fill="#425B9A" fill-rule="nonzero" d="M506 219h19v19h-19z"/>
    <path fill="#425B9A" fill-rule="nonzero" opacity=".2" d="M532 219h19v19h-19zm26 0h19v19h-19zm27 0h19v19h-19zm26 0h19v19h-19zm26 0h19v19h-19z"/>
    <path fill="#425B9A" fill-rule="nonzero" opacity=".7" d="M663 219h19v19h-19z"/>
    <path fill="#425B9A" fill-rule="nonzero" opacity=".2" d="M689 219h19v19h-19zm26 0h19v19h-19z"/>
    <path fill="#425B9A" fill-rule="nonzero" d="M742 219h19v19h-19z"/>
    <path fill="#425B9A" fill-rule="nonzero" opacity=".2" d="M87 243h19v19H87zm27 0h19v19h-19zm26 0h19v19h-19z"/>
    <path fill="#425B9A" fill-rule="nonzero" opacity=".4" d="M166 243h19v19h-19z"/>
    <path fill="#425B9A" fill-rule="nonzero" opacity=".2" d="M192 243h19v19h-19zm26 0h19v19h-19z"/>
    <path fill="#425B9A" fill-rule="nonzero" opacity=".7" d="M244 243h19v19h-19z"/>
    <path fill="#425B9A" fill-rule="nonzero" opacity=".2" d="M271 243h19v19h-19zm26 0h19v19h-19zm26 0h19v19h-19z"/>
    <path fill="#425B9A" fill-rule="nonzero" d="M349 243h19v19h-19z"/>
    <path fill="#425B9A" fill-rule="nonzero" opacity=".2" d="M375 243h19v19h-19z"/>
    <path fill="#425B9A" fill-rule="nonzero" d="M401 243h19v19h-19zm27 0h19v19h-19z"/>
    <path fill="#425B9A" fill-rule="nonzero" opacity=".2" d="M454 243h19v19h-19zm26 0h19v19h-19zm26 0h19v19h-19zm26 0h19v19h-19zm26 0h19v19h-19zm27 0h19v19h-19zm26 0h19v19h-19zm26 0h19v19h-19zm26 0h19v19h-19zm26 0h19v19h-19z"/>
    <path fill="#425B9A" fill-rule="nonzero" opacity=".4" d="M715 243h19v19h-19z"/>
    <path fill="#425B9A" fill-rule="nonzero" d="M742 243h19v19h-19z"/>
    <path fill="#425B9A" fill-rule="nonzero" opacity=".7" d="M87 267h19v19H87zm27 0h19v19h-19zm26 0h19v19h-19zm26 0h19v19h-19zm26 0h19v19h-19z"/>
    <path fill="#425B9A" fill-rule="nonzero" opacity=".2" d="M218 267h19v19h-19zm26 0h19v19h-19zm27 0h19v19h-19zm26 0h19v19h-19zm26 0h19v19h-19zm26 0h19v19h-19z"/>
    <path fill="#425B9A" fill-rule="nonzero" d="M375 267h19v19h-19z"/>
    <path fill="#425B9A" fill-rule="nonzero" opacity=".2" d="M401 267h19v19h-19zm27 0h19v19h-19zm26 0h19v19h-19z"/>
    <path fill="#425B9A" fill-rule="nonzero" d="M480 267h19v19h-19z"/>
    <path fill="#425B9A" fill-rule="nonzero" opacity=".2" d="M506 267h19v19h-19zm26 0h19v19h-19zm26 0h19v19h-19zm27 0h19v19h-19zm26 0h19v19h-19zm26 0h19v19h-19zm26 0h19v19h-19zm26 0h19v19h-19zm26 0h19v19h-19z"/>
    <path fill="#425B9A" fill-rule="nonzero" d="M742 267h19v19h-19z"/>
    <path d="M610.999 268.923V272l-4.512-.426L598 263s13.13 2.86 12.999 5.923z" stroke="#4C4981" fill="#425B9A" fill-rule="nonzero" opacity=".1"/>
    <text font-family="CartographMonoCF-Regular, Cartograph Mono CF" font-size="37" fill="#FFF" transform="translate(3 3)">
      <tspan x="139" y="422">&lt; &gt;</tspan>
    </text>
    <text font-family="CartographMonoCF-Regular, Cartograph Mono CF" font-size="37" fill="#FFF" transform="translate(3 3)">
      <tspan x="140" y="452">&lt; /&gt;</tspan>
    </text>
    <text font-family="CartographMonoCF-Regular, Cartograph Mono CF" font-size="37" fill="#FFF" transform="translate(3 3)">
      <tspan x="139" y="512">&lt; &gt;</tspan>
    </text>
  </g>
</svg>
