
<svg width="100%" height="100%" viewBox="0 0 855 681" version="1.1" xmlns="http://www.w3.org/2000/svg" xmlns:xlink="http://www.w3.org/1999/xlink">
    <!-- Generator: Sketch 49.3 (51167) - http://www.bohemiancoding.com/sketch -->
    <desc>Created with Sketch.</desc>
    <defs></defs>
    <g id="Page-1" stroke="none" stroke-width="1" fill="none" fill-rule="evenodd">
        <g id="Group-45" transform="translate(3.000000, 3.000000)">
            <g id="Group-42">
                <g id="undraw_contrast_vb82" fill-rule="nonzero">
                    <polygon id="Shape" stroke="#979797" stroke-width="6" points="0 0 0 34.06 0 675 849 675 849 34.06 849 0"></polygon>
                    <rect id="Rectangle-path" stroke="#060606" stroke-width="4" fill="#FFFFFF" x="12" y="42" width="828" height="621"></rect>
                    <rect id="Rectangle-path" stroke="#242424" stroke-width="4" x="12" y="9" width="828" height="33"></rect>
                    <circle id="Oval" stroke="#000000" stroke-width="4" cx="36" cy="25" r="8"></circle>
                    <circle id="Oval" stroke="#000000" stroke-width="4" cx="58" cy="25" r="8"></circle>
                    <circle id="Oval" stroke="#000000" stroke-width="4" cx="80" cy="25" r="8"></circle>
                </g>
                <g id="Group-40" transform="translate(84.000000, 119.000000)">
                    <rect id="Rectangle-13" fill="#333333" x="7" y="238" width="674" height="199"></rect>
                    <rect id="Rectangle-path" fill="#DDE1EC" fill-rule="nonzero" x="308.9" y="350.81" width="70.45" height="9.75"></rect>
                    <rect id="Rectangle-path" fill="#DDE1EC" fill-rule="nonzero" x="430.28" y="320.13" width="70.45" height="9.75"></rect>
                    <rect id="Rectangle-path" fill="#DDE1EC" fill-rule="nonzero" x="83.12" y="290.12" width="209.17" height="9.75"></rect>
                    <rect id="Rectangle-path" fill="#DDE1EC" fill-rule="nonzero" x="83.12" y="320.46" width="209.17" height="9.75"></rect>
                    <rect id="Rectangle-path" fill="#DDE1EC" fill-rule="nonzero" x="83.12" y="350.81" width="209.17" height="9.75"></rect>
                    <rect id="Rectangle-path" fill="#DDE1EC" fill-rule="nonzero" x="83.12" y="381.16" width="209.17" height="9.75"></rect>
                    <path d="M98,4 L98,19 L84,19 C88.3866667,13.8501229 93.0533333,8.85012285 98,4 Z" id="Shape" fill="#425B9A" fill-rule="nonzero" opacity="0.2"></path>
                    <rect id="Rectangle-path" fill="#425B9A" fill-rule="nonzero" opacity="0.2" x="105" y="0" width="19" height="19"></rect>
                    <rect id="Rectangle-path" fill="#425B9A" fill-rule="nonzero" opacity="0.2" x="131" y="0" width="19" height="19"></rect>
                    <rect id="Rectangle-path" fill="#425B9A" fill-rule="nonzero" opacity="0.2" x="157" y="0" width="19" height="19"></rect>
                    <rect id="Rectangle-path" fill="#425B9A" fill-rule="nonzero" opacity="0.2" x="184" y="0" width="19" height="19"></rect>
                    <rect id="Rectangle-path" fill="#425B9A" fill-rule="nonzero" opacity="0.2" x="210" y="0" width="19" height="19"></rect>
                    <rect id="Rectangle-path" fill="#425B9A" fill-rule="nonzero" x="236" y="0" width="19" height="19"></rect>
                    <rect id="Rectangle-path" fill="#425B9A" fill-rule="nonzero" opacity="0.2" x="262" y="0" width="19" height="19"></rect>
                    <rect id="Rectangle-path" fill="#425B9A" fill-rule="nonzero" opacity="0.2" x="288" y="0" width="19" height="19"></rect>
                    <rect id="Rectangle-path" fill="#425B9A" fill-rule="nonzero" opacity="0.2" x="314" y="0" width="19" height="19"></rect>
                    <rect id="Rectangle-path" fill="#425B9A" fill-rule="nonzero" x="341" y="0" width="19" height="19"></rect>
                    <rect id="Rectangle-path" fill="#425B9A" fill-rule="nonzero" opacity="0.2" x="367" y="0" width="19" height="19"></rect>
                    <rect id="Rectangle-path" fill="#425B9A" fill-rule="nonzero" opacity="0.2" x="393" y="0" width="19" height="19"></rect>
                    <rect id="Rectangle-path" fill="#425B9A" fill-rule="nonzero" opacity="0.2" x="419" y="0" width="19" height="19"></rect>
                    <rect id="Rectangle-path" fill="#425B9A" fill-rule="nonzero" opacity="0.2" x="445" y="0" width="19" height="19"></rect>
                    <rect id="Rectangle-path" fill="#425B9A" fill-rule="nonzero" opacity="0.2" x="471" y="0" width="19" height="19"></rect>
                    <rect id="Rectangle-path" fill="#425B9A" fill-rule="nonzero" opacity="0.2" x="498" y="0" width="19" height="19"></rect>
                    <rect id="Rectangle-path" fill="#425B9A" fill-rule="nonzero" x="524" y="0" width="19" height="19"></rect>
                    <rect id="Rectangle-path" fill="#425B9A" fill-rule="nonzero" x="550" y="0" width="19" height="19"></rect>
                    <rect id="Rectangle-path" fill="#425B9A" fill-rule="nonzero" opacity="0.2" x="576" y="0" width="19" height="19"></rect>
                    <rect id="Rectangle-path" fill="#425B9A" fill-rule="nonzero" opacity="0.2" x="602" y="0" width="19" height="19"></rect>
                    <rect id="Rectangle-path" fill="#425B9A" fill-rule="nonzero" x="628" y="0" width="19" height="19"></rect>
                    <rect id="Rectangle-path" fill="#425B9A" fill-rule="nonzero" x="655" y="0" width="19" height="19"></rect>
                    <path d="M72,34 L72,43 L66,43 C67.9070905,39.9355372 69.9070905,36.9355372 72,34 Z" id="Shape" fill="#425B9A" fill-rule="nonzero"></path>
                    <rect id="Rectangle-path" fill="#425B9A" fill-rule="nonzero" opacity="0.2" x="79" y="24" width="19" height="19"></rect>
                    <rect id="Rectangle-path" fill="#425B9A" fill-rule="nonzero" x="105" y="24" width="19" height="19"></rect>
                    <rect id="Rectangle-path" fill="#425B9A" fill-rule="nonzero" opacity="0.2" x="131" y="24" width="19" height="19"></rect>
                    <rect id="Rectangle-path" fill="#425B9A" fill-rule="nonzero" opacity="0.7" x="157" y="24" width="19" height="19"></rect>
                    <rect id="Rectangle-path" fill="#425B9A" fill-rule="nonzero" opacity="0.2" x="184" y="24" width="19" height="19"></rect>
                    <rect id="Rectangle-path" fill="#425B9A" fill-rule="nonzero" opacity="0.4" x="210" y="24" width="19" height="19"></rect>
                    <rect id="Rectangle-path" fill="#425B9A" fill-rule="nonzero" x="236" y="24" width="19" height="19"></rect>
                    <rect id="Rectangle-path" fill="#425B9A" fill-rule="nonzero" opacity="0.4" x="262" y="24" width="19" height="19"></rect>
                    <rect id="Rectangle-path" fill="#425B9A" fill-rule="nonzero" opacity="0.2" x="288" y="24" width="19" height="19"></rect>
                    <rect id="Rectangle-path" fill="#425B9A" fill-rule="nonzero" opacity="0.4" x="314" y="24" width="19" height="19"></rect>
                    <rect id="Rectangle-path" fill="#425B9A" fill-rule="nonzero" x="341" y="24" width="19" height="19"></rect>
                    <rect id="Rectangle-path" fill="#425B9A" fill-rule="nonzero" opacity="0.4" x="367" y="24" width="19" height="19"></rect>
                    <rect id="Rectangle-path" fill="#425B9A" fill-rule="nonzero" opacity="0.4" x="393" y="24" width="19" height="19"></rect>
                    <rect id="Rectangle-path" fill="#425B9A" fill-rule="nonzero" opacity="0.2" x="419" y="24" width="19" height="19"></rect>
                    <rect id="Rectangle-path" fill="#425B9A" fill-rule="nonzero" opacity="0.4" x="445" y="24" width="19" height="19"></rect>
                    <rect id="Rectangle-path" fill="#425B9A" fill-rule="nonzero" opacity="0.4" x="471" y="24" width="19" height="19"></rect>
                    <rect id="Rectangle-path" fill="#425B9A" fill-rule="nonzero" opacity="0.2" x="498" y="24" width="19" height="19"></rect>
                    <rect id="Rectangle-path" fill="#425B9A" fill-rule="nonzero" opacity="0.2" x="524" y="24" width="19" height="19"></rect>
                    <rect id="Rectangle-path" fill="#425B9A" fill-rule="nonzero" opacity="0.4" x="550" y="24" width="19" height="19"></rect>
                    <rect id="Rectangle-path" fill="#425B9A" fill-rule="nonzero" opacity="0.2" x="576" y="24" width="19" height="19"></rect>
                    <rect id="Rectangle-path" fill="#425B9A" fill-rule="nonzero" x="602" y="24" width="19" height="19"></rect>
                    <rect id="Rectangle-path" fill="#425B9A" fill-rule="nonzero" x="628" y="24" width="19" height="19"></rect>
                    <rect id="Rectangle-path" fill="#425B9A" fill-rule="nonzero" x="655" y="24" width="19" height="19"></rect>
                    <path d="M19,54 L19,67 L0,67 L0,60.6494672 C6.14776071,57.9543895 12.5002287,55.7312038 19,54 Z" id="Shape" fill="#425B9A" fill-rule="nonzero" opacity="0.2"></path>
                    <polygon id="Shape" fill="#425B9A" fill-rule="nonzero" opacity="0.2" points="46 50 46 68 27 68 27 52.6706231"></polygon>
                    <rect id="Rectangle-path" fill="#425B9A" fill-rule="nonzero" x="53" y="48" width="19" height="19"></rect>
                    <rect id="Rectangle-path" fill="#425B9A" fill-rule="nonzero" opacity="0.7" x="79" y="48" width="19" height="19"></rect>
                    <rect id="Rectangle-path" fill="#425B9A" fill-rule="nonzero" x="105" y="48" width="19" height="19"></rect>
                    <rect id="Rectangle-path" fill="#425B9A" fill-rule="nonzero" opacity="0.7" x="131" y="48" width="19" height="19"></rect>
                    <rect id="Rectangle-path" fill="#425B9A" fill-rule="nonzero" opacity="0.7" x="157" y="48" width="19" height="19"></rect>
                    <rect id="Rectangle-path" fill="#425B9A" fill-rule="nonzero" opacity="0.2" x="184" y="48" width="19" height="19"></rect>
                    <rect id="Rectangle-path" fill="#425B9A" fill-rule="nonzero" opacity="0.4" x="210" y="48" width="19" height="19"></rect>
                    <rect id="Rectangle-path" fill="#425B9A" fill-rule="nonzero" opacity="0.4" x="236" y="48" width="19" height="19"></rect>
                    <rect id="Rectangle-path" fill="#425B9A" fill-rule="nonzero" x="262" y="48" width="19" height="19"></rect>
                    <rect id="Rectangle-path" fill="#425B9A" fill-rule="nonzero" opacity="0.2" x="288" y="48" width="19" height="19"></rect>
                    <rect id="Rectangle-path" fill="#425B9A" fill-rule="nonzero" opacity="0.4" x="314" y="48" width="19" height="19"></rect>
                    <rect id="Rectangle-path" fill="#425B9A" fill-rule="nonzero" x="341" y="48" width="19" height="19"></rect>
                    <rect id="Rectangle-path" fill="#425B9A" fill-rule="nonzero" opacity="0.2" x="367" y="48" width="19" height="19"></rect>
                    <rect id="Rectangle-path" fill="#425B9A" fill-rule="nonzero" opacity="0.4" x="393" y="48" width="19" height="19"></rect>
                    <rect id="Rectangle-path" fill="#425B9A" fill-rule="nonzero" opacity="0.2" x="419" y="48" width="19" height="19"></rect>
                    <rect id="Rectangle-path" fill="#425B9A" fill-rule="nonzero" x="445" y="48" width="19" height="19"></rect>
                    <rect id="Rectangle-path" fill="#425B9A" fill-rule="nonzero" opacity="0.2" x="471" y="48" width="19" height="19"></rect>
                    <rect id="Rectangle-path" fill="#425B9A" fill-rule="nonzero" opacity="0.7" x="498" y="48" width="19" height="19"></rect>
                    <rect id="Rectangle-path" fill="#425B9A" fill-rule="nonzero" opacity="0.7" x="524" y="48" width="19" height="19"></rect>
                    <rect id="Rectangle-path" fill="#425B9A" fill-rule="nonzero" opacity="0.4" x="550" y="48" width="19" height="19"></rect>
                    <rect id="Rectangle-path" fill="#425B9A" fill-rule="nonzero" opacity="0.2" x="576" y="48" width="19" height="19"></rect>
                    <rect id="Rectangle-path" fill="#425B9A" fill-rule="nonzero" x="602" y="48" width="19" height="19"></rect>
                    <rect id="Rectangle-path" fill="#425B9A" fill-rule="nonzero" x="628" y="48" width="19" height="19"></rect>
                    <rect id="Rectangle-path" fill="#425B9A" fill-rule="nonzero" x="655" y="48" width="19" height="19"></rect>
                    <rect id="Rectangle-path" fill="#425B9A" fill-rule="nonzero" opacity="0.2" x="0" y="73" width="19" height="19"></rect>
                    <rect id="Rectangle-path" fill="#425B9A" fill-rule="nonzero" opacity="0.2" x="27" y="73" width="19" height="19"></rect>
                    <rect id="Rectangle-path" fill="#425B9A" fill-rule="nonzero" opacity="0.2" x="53" y="73" width="19" height="19"></rect>
                    <rect id="Rectangle-path" fill="#425B9A" fill-rule="nonzero" opacity="0.2" x="79" y="73" width="19" height="19"></rect>
                    <rect id="Rectangle-path" fill="#425B9A" fill-rule="nonzero" x="105" y="73" width="19" height="19"></rect>
                    <rect id="Rectangle-path" fill="#425B9A" fill-rule="nonzero" opacity="0.7" x="131" y="73" width="19" height="19"></rect>
                    <rect id="Rectangle-path" fill="#425B9A" fill-rule="nonzero" opacity="0.7" x="157" y="73" width="19" height="19"></rect>
                    <rect id="Rectangle-path" fill="#425B9A" fill-rule="nonzero" opacity="0.2" x="184" y="73" width="19" height="19"></rect>
                    <rect id="Rectangle-path" fill="#425B9A" fill-rule="nonzero" opacity="0.2" x="210" y="73" width="19" height="19"></rect>
                    <rect id="Rectangle-path" fill="#425B9A" fill-rule="nonzero" opacity="0.4" x="236" y="73" width="19" height="19"></rect>
                    <rect id="Rectangle-path" fill="#425B9A" fill-rule="nonzero" opacity="0.4" x="262" y="73" width="19" height="19"></rect>
                    <rect id="Rectangle-path" fill="#425B9A" fill-rule="nonzero" x="288" y="73" width="19" height="19"></rect>
                    <rect id="Rectangle-path" fill="#425B9A" fill-rule="nonzero" opacity="0.2" x="314" y="73" width="19" height="19"></rect>
                    <rect id="Rectangle-path" fill="#425B9A" fill-rule="nonzero" opacity="0.4" x="341" y="73" width="19" height="19"></rect>
                    <rect id="Rectangle-path" fill="#425B9A" fill-rule="nonzero" opacity="0.4" x="367" y="73" width="19" height="19"></rect>
                    <rect id="Rectangle-path" fill="#425B9A" fill-rule="nonzero" opacity="0.4" x="393" y="73" width="19" height="19"></rect>
                    <rect id="Rectangle-path" fill="#425B9A" fill-rule="nonzero" opacity="0.4" x="419" y="73" width="19" height="19"></rect>
                    <rect id="Rectangle-path" fill="#425B9A" fill-rule="nonzero" opacity="0.2" x="445" y="73" width="19" height="19"></rect>
                    <rect id="Rectangle-path" fill="#425B9A" fill-rule="nonzero" opacity="0.2" x="471" y="73" width="19" height="19"></rect>
                    <rect id="Rectangle-path" fill="#425B9A" fill-rule="nonzero" opacity="0.2" x="498" y="73" width="19" height="19"></rect>
                    <rect id="Rectangle-path" fill="#425B9A" fill-rule="nonzero" opacity="0.2" x="524" y="73" width="19" height="19"></rect>
                    <rect id="Rectangle-path" fill="#425B9A" fill-rule="nonzero" opacity="0.7" x="550" y="73" width="19" height="19"></rect>
                    <rect id="Rectangle-path" fill="#425B9A" fill-rule="nonzero" opacity="0.7" x="576" y="73" width="19" height="19"></rect>
                    <rect id="Rectangle-path" fill="#425B9A" fill-rule="nonzero" opacity="0.4" x="602" y="73" width="19" height="19"></rect>
                    <rect id="Rectangle-path" fill="#425B9A" fill-rule="nonzero" opacity="0.2" x="628" y="73" width="19" height="19"></rect>
                    <rect id="Rectangle-path" fill="#425B9A" fill-rule="nonzero" x="655" y="73" width="19" height="19"></rect>
                    <rect id="Rectangle-path" fill="#425B9A" fill-rule="nonzero" opacity="0.2" x="0" y="97" width="19" height="19"></rect>
                    <rect id="Rectangle-path" fill="#425B9A" fill-rule="nonzero" opacity="0.2" x="27" y="97" width="19" height="19"></rect>
                    <rect id="Rectangle-path" fill="#425B9A" fill-rule="nonzero" opacity="0.4" x="53" y="97" width="19" height="19"></rect>
                    <rect id="Rectangle-path" fill="#425B9A" fill-rule="nonzero" opacity="0.2" x="79" y="97" width="19" height="19"></rect>
                    <rect id="Rectangle-path" fill="#425B9A" fill-rule="nonzero" opacity="0.2" x="105" y="97" width="19" height="19"></rect>
                    <rect id="Rectangle-path" fill="#425B9A" fill-rule="nonzero" opacity="0.7" x="131" y="97" width="19" height="19"></rect>
                    <rect id="Rectangle-path" fill="#425B9A" fill-rule="nonzero" opacity="0.7" x="157" y="97" width="19" height="19"></rect>
                    <rect id="Rectangle-path" fill="#425B9A" fill-rule="nonzero" opacity="0.2" x="184" y="97" width="19" height="19"></rect>
                    <rect id="Rectangle-path" fill="#425B9A" fill-rule="nonzero" opacity="0.2" x="210" y="97" width="19" height="19"></rect>
                    <rect id="Rectangle-path" fill="#425B9A" fill-rule="nonzero" opacity="0.4" x="236" y="97" width="19" height="19"></rect>
                    <rect id="Rectangle-path" fill="#425B9A" fill-rule="nonzero" x="262" y="97" width="19" height="19"></rect>
                    <rect id="Rectangle-path" fill="#425B9A" fill-rule="nonzero" opacity="0.2" x="288" y="97" width="19" height="19"></rect>
                    <rect id="Rectangle-path" fill="#425B9A" fill-rule="nonzero" x="314" y="97" width="19" height="19"></rect>
                    <rect id="Rectangle-path" fill="#425B9A" fill-rule="nonzero" x="341" y="97" width="19" height="19"></rect>
                    <rect id="Rectangle-path" fill="#425B9A" fill-rule="nonzero" x="367" y="97" width="19" height="19"></rect>
                    <rect id="Rectangle-path" fill="#425B9A" fill-rule="nonzero" opacity="0.2" x="393" y="97" width="19" height="19"></rect>
                    <rect id="Rectangle-path" fill="#425B9A" fill-rule="nonzero" x="419" y="97" width="19" height="19"></rect>
                    <rect id="Rectangle-path" fill="#425B9A" fill-rule="nonzero" opacity="0.2" x="445" y="97" width="19" height="19"></rect>
                    <rect id="Rectangle-path" fill="#425B9A" fill-rule="nonzero" opacity="0.2" x="471" y="97" width="19" height="19"></rect>
                    <rect id="Rectangle-path" fill="#425B9A" fill-rule="nonzero" opacity="0.2" x="498" y="97" width="19" height="19"></rect>
                    <rect id="Rectangle-path" fill="#425B9A" fill-rule="nonzero" opacity="0.2" x="524" y="97" width="19" height="19"></rect>
                    <rect id="Rectangle-path" fill="#425B9A" fill-rule="nonzero" opacity="0.2" x="550" y="97" width="19" height="19"></rect>
                    <rect id="Rectangle-path" fill="#425B9A" fill-rule="nonzero" opacity="0.7" x="576" y="97" width="19" height="19"></rect>
                    <rect id="Rectangle-path" fill="#425B9A" fill-rule="nonzero" opacity="0.2" x="602" y="97" width="19" height="19"></rect>
                    <rect id="Rectangle-path" fill="#425B9A" fill-rule="nonzero" opacity="0.2" x="628" y="97" width="19" height="19"></rect>
                    <rect id="Rectangle-path" fill="#425B9A" fill-rule="nonzero" x="655" y="97" width="19" height="19"></rect>
                    <rect id="Rectangle-path" fill="#425B9A" fill-rule="nonzero" opacity="0.2" x="0" y="121" width="19" height="19"></rect>
                    <rect id="Rectangle-path" fill="#425B9A" fill-rule="nonzero" opacity="0.2" x="27" y="121" width="19" height="19"></rect>
                    <rect id="Rectangle-path" fill="#425B9A" fill-rule="nonzero" opacity="0.2" x="53" y="121" width="19" height="19"></rect>
                    <rect id="Rectangle-path" fill="#425B9A" fill-rule="nonzero" opacity="0.4" x="79" y="121" width="19" height="19"></rect>
                    <rect id="Rectangle-path" fill="#425B9A" fill-rule="nonzero" opacity="0.2" x="105" y="121" width="19" height="19"></rect>
                    <rect id="Rectangle-path" fill="#425B9A" fill-rule="nonzero" opacity="0.2" x="131" y="121" width="19" height="19"></rect>
                    <rect id="Rectangle-path" fill="#425B9A" fill-rule="nonzero" opacity="0.7" x="157" y="121" width="19" height="19"></rect>
                    <rect id="Rectangle-path" fill="#425B9A" fill-rule="nonzero" opacity="0.2" x="184" y="121" width="19" height="19"></rect>
                    <rect id="Rectangle-path" fill="#425B9A" fill-rule="nonzero" opacity="0.2" x="210" y="121" width="19" height="19"></rect>
                    <rect id="Rectangle-path" fill="#425B9A" fill-rule="nonzero" opacity="0.2" x="236" y="121" width="19" height="19"></rect>
                    <rect id="Rectangle-path" fill="#425B9A" fill-rule="nonzero" x="262" y="121" width="19" height="19"></rect>
                    <rect id="Rectangle-path" fill="#425B9A" fill-rule="nonzero" opacity="0.2" x="288" y="121" width="19" height="19"></rect>
                    <rect id="Rectangle-path" fill="#425B9A" fill-rule="nonzero" x="314" y="121" width="19" height="19"></rect>
                    <rect id="Rectangle-path" fill="#425B9A" fill-rule="nonzero" x="341" y="121" width="19" height="19"></rect>
                    <rect id="Rectangle-path" fill="#425B9A" fill-rule="nonzero" opacity="0.2" x="367" y="121" width="19" height="19"></rect>
                    <rect id="Rectangle-path" fill="#425B9A" fill-rule="nonzero" opacity="0.2" x="393" y="121" width="19" height="19"></rect>
                    <rect id="Rectangle-path" fill="#425B9A" fill-rule="nonzero" opacity="0.2" x="419" y="121" width="19" height="19"></rect>
                    <rect id="Rectangle-path" fill="#425B9A" fill-rule="nonzero" opacity="0.2" x="445" y="121" width="19" height="19"></rect>
                    <rect id="Rectangle-path" fill="#425B9A" fill-rule="nonzero" opacity="0.2" x="471" y="121" width="19" height="19"></rect>
                    <rect id="Rectangle-path" fill="#425B9A" fill-rule="nonzero" opacity="0.2" x="498" y="121" width="19" height="19"></rect>
                    <rect id="Rectangle-path" fill="#425B9A" fill-rule="nonzero" opacity="0.2" x="524" y="121" width="19" height="19"></rect>
                    <rect id="Rectangle-path" fill="#425B9A" fill-rule="nonzero" opacity="0.2" x="550" y="121" width="19" height="19"></rect>
                    <rect id="Rectangle-path" fill="#425B9A" fill-rule="nonzero" opacity="0.2" x="576" y="121" width="19" height="19"></rect>
                    <rect id="Rectangle-path" fill="#425B9A" fill-rule="nonzero" opacity="0.2" x="602" y="121" width="19" height="19"></rect>
                    <rect id="Rectangle-path" fill="#425B9A" fill-rule="nonzero" opacity="0.4" x="628" y="121" width="19" height="19"></rect>
                    <rect id="Rectangle-path" fill="#425B9A" fill-rule="nonzero" x="655" y="121" width="19" height="19"></rect>
                    <rect id="Rectangle-path" fill="#425B9A" fill-rule="nonzero" opacity="0.7" x="0" y="145" width="19" height="19"></rect>
                    <rect id="Rectangle-path" fill="#425B9A" fill-rule="nonzero" opacity="0.7" x="27" y="145" width="19" height="19"></rect>
                    <rect id="Rectangle-path" fill="#425B9A" fill-rule="nonzero" opacity="0.7" x="53" y="145" width="19" height="19"></rect>
                    <rect id="Rectangle-path" fill="#425B9A" fill-rule="nonzero" opacity="0.7" x="79" y="145" width="19" height="19"></rect>
                    <rect id="Rectangle-path" fill="#425B9A" fill-rule="nonzero" opacity="0.7" x="105" y="145" width="19" height="19"></rect>
                    <rect id="Rectangle-path" fill="#425B9A" fill-rule="nonzero" opacity="0.2" x="131" y="145" width="19" height="19"></rect>
                    <rect id="Rectangle-path" fill="#425B9A" fill-rule="nonzero" opacity="0.2" x="157" y="145" width="19" height="19"></rect>
                    <rect id="Rectangle-path" fill="#425B9A" fill-rule="nonzero" opacity="0.2" x="184" y="145" width="19" height="19"></rect>
                    <rect id="Rectangle-path" fill="#425B9A" fill-rule="nonzero" opacity="0.2" x="210" y="145" width="19" height="19"></rect>
                    <rect id="Rectangle-path" fill="#425B9A" fill-rule="nonzero" opacity="0.2" x="236" y="145" width="19" height="19"></rect>
                    <rect id="Rectangle-path" fill="#425B9A" fill-rule="nonzero" opacity="0.2" x="262" y="145" width="19" height="19"></rect>
                    <rect id="Rectangle-path" fill="#425B9A" fill-rule="nonzero" x="288" y="145" width="19" height="19"></rect>
                    <rect id="Rectangle-path" fill="#425B9A" fill-rule="nonzero" opacity="0.2" x="314" y="145" width="19" height="19"></rect>
                    <rect id="Rectangle-path" fill="#425B9A" fill-rule="nonzero" opacity="0.2" x="341" y="145" width="19" height="19"></rect>
                    <rect id="Rectangle-path" fill="#425B9A" fill-rule="nonzero" opacity="0.2" x="367" y="145" width="19" height="19"></rect>
                    <rect id="Rectangle-path" fill="#425B9A" fill-rule="nonzero" x="393" y="145" width="19" height="19"></rect>
                    <rect id="Rectangle-path" fill="#425B9A" fill-rule="nonzero" opacity="0.2" x="419" y="145" width="19" height="19"></rect>
                    <rect id="Rectangle-path" fill="#425B9A" fill-rule="nonzero" opacity="0.2" x="445" y="145" width="19" height="19"></rect>
                    <rect id="Rectangle-path" fill="#425B9A" fill-rule="nonzero" opacity="0.2" x="471" y="145" width="19" height="19"></rect>
                    <rect id="Rectangle-path" fill="#425B9A" fill-rule="nonzero" opacity="0.2" x="498" y="145" width="19" height="19"></rect>
                    <rect id="Rectangle-path" fill="#425B9A" fill-rule="nonzero" opacity="0.2" x="524" y="145" width="19" height="19"></rect>
                    <rect id="Rectangle-path" fill="#425B9A" fill-rule="nonzero" opacity="0.2" x="550" y="145" width="19" height="19"></rect>
                    <rect id="Rectangle-path" fill="#425B9A" fill-rule="nonzero" opacity="0.2" x="576" y="145" width="19" height="19"></rect>
                    <rect id="Rectangle-path" fill="#425B9A" fill-rule="nonzero" opacity="0.2" x="602" y="145" width="19" height="19"></rect>
                    <rect id="Rectangle-path" fill="#425B9A" fill-rule="nonzero" opacity="0.2" x="628" y="145" width="19" height="19"></rect>
                    <rect id="Rectangle-path" fill="#425B9A" fill-rule="nonzero" x="655" y="145" width="19" height="19"></rect>
                    <path d="M523.999034,146.922822 L523.999034,150 L519.486973,149.574274 L511,141 C511,141 524.129485,143.860581 523.999034,146.922822 Z" id="Shape" stroke="#4C4981" fill="#425B9A" fill-rule="nonzero" opacity="0.1"></path>
                </g>
            </g>
            <text id="&lt;-&gt;" font-family="CartographMonoCF-Regular, Cartograph Mono CF" font-size="37" font-weight="normal" fill="#FFFFFF">
                <tspan x="139" y="422">&lt; 							 &gt;</tspan>
            </text>
            <text id="&lt;-/&gt;" font-family="CartographMonoCF-Regular, Cartograph Mono CF" font-size="37" font-weight="normal" fill="#FFFFFF">
                <tspan x="140" y="452">&lt; 							 				      /&gt;</tspan>
            </text>
            <text id="&lt;-&gt;" font-family="CartographMonoCF-Regular, Cartograph Mono CF" font-size="37" font-weight="normal" fill="#FFFFFF">
                <tspan x="139" y="512">&lt; 							 &gt;</tspan>
            </text>
        </g>
    </g>
</svg>
