
<svg width="100%" height="100%" viewBox="0 0 185 184" version="1.1" xmlns="http://www.w3.org/2000/svg" xmlns:xlink="http://www.w3.org/1999/xlink">
    <!-- Generator: Sketch 49.3 (51167) - http://www.bohemiancoding.com/sketch -->
    <desc>Created with Sketch.</desc>
    <defs>
        <rect id="path-1" x="0" y="0" width="185" height="184" rx="8"></rect>
    </defs>
    <g id="Page-1" stroke="none" stroke-width="1" fill="none" fill-rule="evenodd">
        <g id="eang-redesign" transform="translate(-297.000000, -1804.000000)">
            <g id="Group-7" transform="translate(297.000000, 1804.000000)">
                <g id="Rectangle-17">
                    <use fill="#333333" fill-rule="evenodd" xlink:href="#path-1"></use>
                    <rect stroke="#979797" stroke-width="1" x="0.5" y="0.5" width="184" height="183" rx="8"></rect>
                </g>
                <g id="Group-11" transform="translate(21.000000, 21.000000)" fill="#F7F7F7">
                    <path d="M6.10546875,10.8105469 L6.10546875,15 L5.015625,15 L5.015625,10.9804688 C5.015625,10.5429666 4.9248056,10.2138683 4.74316406,9.99316406 C4.56152253,9.77245983 4.26758016,9.66210938 3.86132812,9.66210938 C3.54101402,9.66210938 3.2109392,9.74121015 2.87109375,9.89941406 C2.5312483,10.057618 2.26171975,10.2265616 2.0625,10.40625 L2.0625,15 L0.97265625,15 L0.97265625,8.83007812 L1.93359375,8.83007812 L1.9921875,9.5625 C2.70703482,8.98827838 3.4472618,8.70117188 4.21289062,8.70117188 C4.86523764,8.70117188 5.34374848,8.87597481 5.6484375,9.22558594 C5.95312652,9.57519706 6.10546875,10.1035121 6.10546875,10.8105469 Z M10.2070312,8.70117188 C11.0234416,8.70117188 11.6191388,8.88867 11.9941406,9.26367188 C12.0996099,9.02148316 12.2343742,8.82714917 12.3984375,8.68066406 C12.5625008,8.53417896 12.7519521,8.4609375 12.9667969,8.4609375 C13.1308602,8.4609375 13.3105459,8.49218719 13.5058594,8.5546875 L13.5058594,9.43359375 C13.0917948,9.40624986 12.6992206,9.44921818 12.328125,9.5625 C12.632814,9.91406426 12.7851562,10.3632785 12.7851562,10.9101562 C12.7851562,11.5898471 12.5478539,12.1269512 12.0732422,12.5214844 C11.5986304,12.9160176 10.9960974,13.1132812 10.265625,13.1132812 C9.80859146,13.1132812 9.44140764,13.0664067 9.1640625,12.9726562 C9.16015623,12.9765625 9.1318362,13.0019529 9.07910156,13.0488281 C9.02636692,13.0957034 8.99511724,13.1249999 8.98535156,13.1367188 C8.97558589,13.1484376 8.95117207,13.175781 8.91210938,13.21875 C8.87304668,13.261719 8.84765631,13.2968749 8.8359375,13.3242188 C8.82421869,13.3515626 8.81152351,13.385742 8.79785156,13.4267578 C8.78417962,13.4677736 8.77734375,13.5078123 8.77734375,13.546875 C8.77734375,13.6835944 8.8320307,13.7900387 8.94140625,13.8662109 C9.0507818,13.9423832 9.25976408,13.9921874 9.56835938,14.015625 L11.2851562,14.1386719 C11.976566,14.1816408 12.4853499,14.3173817 12.8115234,14.5458984 C13.1376969,14.7744152 13.3007812,15.1738253 13.3007812,15.7441406 C13.3007812,16.0371108 13.240235,16.298827 13.1191406,16.5292969 C12.9980463,16.7597668 12.8369151,16.9472649 12.6357422,17.0917969 C12.4345693,17.2363288 12.1943373,17.3564448 11.9150391,17.4521484 C11.6357408,17.547852 11.3505874,17.6152342 11.0595703,17.6542969 C10.7685532,17.6933596 10.4609391,17.7128906 10.1367188,17.7128906 C8.28905326,17.7128906 7.36523438,17.2050832 7.36523438,16.1894531 C7.36523438,15.8652328 7.46093654,15.5820325 7.65234375,15.3398438 C7.84375096,15.097655 8.08007672,14.9082038 8.36132812,14.7714844 L8.36132812,14.7597656 C8.13867076,14.6699214 7.97070369,14.5585944 7.85742188,14.4257812 C7.74414006,14.2929681 7.6875,14.1210948 7.6875,13.9101562 C7.6875,13.6718738 7.7578118,13.4609384 7.8984375,13.2773438 C8.0390632,13.0937491 8.24023307,12.9003916 8.50195312,12.6972656 C8.21679545,12.5449211 7.99316487,12.3164078 7.83105469,12.0117188 C7.6689445,11.7070297 7.58789062,11.359377 7.58789062,10.96875 C7.58789062,10.2890591 7.82616949,9.74121302 8.30273438,9.32519531 C8.77929926,8.90917761 9.41405854,8.70117188 10.2070312,8.70117188 Z M11.7304688,10.921875 C11.7304688,10.4687477 11.6015638,10.1308605 11.34375,9.90820312 C11.0859362,9.68554576 10.7187524,9.57421875 10.2421875,9.57421875 C9.77734143,9.57421875 9.40136862,9.6826161 9.11425781,9.89941406 C8.827147,10.116212 8.68359375,10.4492165 8.68359375,10.8984375 C8.68359375,11.7773481 9.19530738,12.2167969 10.21875,12.2167969 C10.6757835,12.2167969 11.0419908,12.1025402 11.3173828,11.8740234 C11.5927748,11.6455067 11.7304688,11.328127 11.7304688,10.921875 Z M12.1757812,15.8789062 C12.1757812,15.6406238 12.1035163,15.4638678 11.9589844,15.3486328 C11.8144524,15.2333979 11.5429707,15.1621095 11.1445312,15.1347656 L9.140625,15.0117187 C8.89453002,15.1718758 8.71875053,15.324218 8.61328125,15.46875 C8.50781197,15.613282 8.45507812,15.7851553 8.45507812,15.984375 C8.45507812,16.2617201 8.59179551,16.4746086 8.86523438,16.6230469 C9.13867324,16.7714851 9.60546545,16.8457031 10.265625,16.8457031 C11.5390689,16.8457031 12.1757812,16.5234407 12.1757812,15.8789062 Z M22.2714844,10.8105469 L22.2714844,15 L21.1816406,15 L21.1816406,10.9804688 C21.1816406,10.5429666 21.0908212,10.2138683 20.9091797,9.99316406 C20.7275382,9.77245983 20.4335958,9.66210938 20.0273438,9.66210938 C19.7070296,9.66210938 19.3769548,9.74121015 19.0371094,9.89941406 C18.6972639,10.057618 18.4277354,10.2265616 18.2285156,10.40625 L18.2285156,15 L17.1386719,15 L17.1386719,8.83007812 L18.0996094,8.83007812 L18.1582031,9.5625 C18.8730504,8.98827838 19.6132774,8.70117188 20.3789062,8.70117188 C21.0312533,8.70117188 21.5097641,8.87597481 21.8144531,9.22558594 C22.1191421,9.57519706 22.2714844,10.1035121 22.2714844,10.8105469 Z M26.578125,15.1464844 C26.1523416,15.1464844 25.7744157,15.0888678 25.4443359,14.9736328 C25.1142562,14.8583979 24.8427745,14.7021494 24.6298828,14.5048828 C24.4169911,14.3076162 24.2421882,14.0693373 24.1054688,13.7900391 C23.9687493,13.5107408 23.8720706,13.2197281 23.8154297,12.9169922 C23.7587888,12.6142563 23.7304688,12.285158 23.7304688,11.9296875 C23.7304688,11.488279 23.7812495,11.0878924 23.8828125,10.7285156 C23.9843755,10.3691388 24.123046,10.0654309 24.2988281,9.81738281 C24.4746103,9.5693347 24.6855456,9.36035241 24.9316406,9.19042969 C25.1777356,9.02050696 25.4433579,8.89648477 25.7285156,8.81835938 C26.0136733,8.74023398 26.3164046,8.70117188 26.6367188,8.70117188 C27.0585959,8.70117188 27.4287093,8.76757746 27.7470703,8.90039062 C28.0654313,9.03320379 28.3203115,9.22070191 28.5117188,9.46289062 C28.703126,9.70507934 28.8466792,9.98437342 28.9423828,10.3007812 C29.0380864,10.6171891 29.0859375,10.9707012 29.0859375,11.3613281 C29.0859375,11.6464858 29.0703127,11.9160144 29.0390625,12.1699219 L24.8847656,12.1699219 C24.9082032,12.9121131 25.0693344,13.4414047 25.3681641,13.7578125 C25.6669937,14.0742203 26.0820286,14.2324219 26.6132812,14.2324219 C27.0390646,14.2324219 27.3652332,14.1416025 27.5917969,13.9599609 C27.8183605,13.7783194 27.9765621,13.5058612 28.0664062,13.1425781 L29.0273438,13.3535156 C28.9062494,13.9394561 28.6269553,14.3847641 28.1894531,14.6894531 C27.7519509,14.9941421 27.2148469,15.1464844 26.578125,15.1464844 Z M24.8964844,11.3027344 L27.9550781,11.3027344 C27.9550781,10.1581974 27.4921921,9.5859375 26.5664062,9.5859375 C26.3554677,9.5859375 26.1562509,9.61914029 25.96875,9.68554688 C25.7812491,9.75195346 25.6083992,9.85156184 25.4501953,9.984375 C25.2919914,10.1171882 25.164063,10.2958973 25.0664062,10.5205078 C24.9687495,10.7451183 24.9121095,11.0058579 24.8964844,11.3027344 Z M32.8769531,15 L31.5820312,15 L29.6484375,8.83007812 L30.7558594,8.83007812 L32.2558594,13.8457031 L33.609375,8.83007812 L34.7402344,8.83007812 L36.0820312,13.8222656 L36.09375,13.8222656 L37.5585938,8.83007812 L38.6132812,8.83007812 L36.6914062,15 L35.4199219,15 L34.1484375,10.1425781 L34.1367188,10.1425781 L32.8769531,15 Z M42.2226562,17.5429687 L42.2226562,8.83007812 L43.171875,8.83007812 L43.2304688,9.5390625 C43.8554719,8.98046596 44.5664023,8.70117188 45.3632812,8.70117188 C45.6992204,8.70117188 45.9999987,8.75585883 46.265625,8.86523438 C46.5312513,8.97460992 46.7675771,9.1464832 46.9746094,9.38085938 C47.1816417,9.61523555 47.3408198,9.93456829 47.4521484,10.3388672 C47.5634771,10.7431661 47.6191406,11.2207004 47.6191406,11.7714844 C47.6191406,12.3574248 47.5507819,12.8710915 47.4140625,13.3125 C47.2773431,13.7539085 47.0898449,14.1054674 46.8515625,14.3671875 C46.6132801,14.6289076 46.342775,14.8242181 46.0400391,14.953125 C45.7373032,15.0820319 45.4082049,15.1464844 45.0527344,15.1464844 C44.4042936,15.1464844 43.8125027,14.9453145 43.2773438,14.5429687 L43.2773438,17.5429687 L42.2226562,17.5429687 Z M43.3125,10.3945312 L43.3125,13.6054688 C43.8398464,14.0156271 44.369138,14.2207031 44.9003906,14.2207031 C45.9707085,14.2207031 46.5058594,13.4003988 46.5058594,11.7597656 C46.5058594,10.9980431 46.3867199,10.4492204 46.1484375,10.1132812 C45.9101551,9.77734207 45.5410181,9.609375 45.0410156,9.609375 C44.7246078,9.609375 44.4091813,9.68847577 44.0947266,9.84667969 C43.7802719,10.0048836 43.5195323,10.187499 43.3125,10.3945312 Z M52.4648438,8.71289062 L52.4648438,9.83789062 C52.0898419,9.78710912 51.6962911,9.82714778 51.2841797,9.95800781 C50.8720683,10.0888678 50.5371107,10.2734363 50.2792969,10.5117188 L50.2792969,15 L49.1894531,15 L49.1894531,8.83007812 L50.1035156,8.83007812 L50.1855469,9.72070312 C50.4511732,9.36132633 50.7490218,9.1015633 51.0791016,8.94140625 C51.4091813,8.7812492 51.7949197,8.70117188 52.2363281,8.70117188 C52.2597657,8.70117188 52.2978513,8.70312498 52.3505859,8.70703125 C52.4033206,8.71093752 52.4414061,8.71289062 52.4648438,8.71289062 Z M55.8457031,15.1464844 C55.4277323,15.1464844 55.0556657,15.092774 54.7294922,14.9853516 C54.4033187,14.8779292 54.1328136,14.7304697 53.9179687,14.5429687 C53.7031239,14.3554678 53.5263679,14.1259779 53.3876953,13.8544922 C53.2490227,13.5830065 53.1494144,13.2900406 53.0888672,12.9755859 C53.02832,12.6611312 52.9980469,12.3164081 52.9980469,11.9414062 C52.9980469,10.9296824 53.2558568,10.1367216 53.7714844,9.5625 C54.287112,8.98827838 55.029292,8.70117188 55.9980469,8.70117188 C56.478518,8.70117188 56.8974592,8.77538988 57.2548828,8.92382812 C57.6123065,9.07226637 57.899413,9.28515486 58.1162109,9.5625 C58.3330089,9.83984514 58.4941401,10.1640606 58.5996094,10.5351562 C58.7050787,10.9062519 58.7578125,11.3261695 58.7578125,11.7949219 C58.7578125,12.8535209 58.5224633,13.6767549 58.0517578,14.2646484 C57.5810523,14.852542 56.8457081,15.1464844 55.8457031,15.1464844 Z M55.9042969,14.2675781 C56.4628934,14.2675781 56.8886704,14.0781269 57.1816406,13.6992188 C57.4746108,13.3203106 57.6210938,12.7089886 57.6210938,11.8652344 C57.6210938,11.0449178 57.4824233,10.4619158 57.2050781,10.1162109 C56.927733,9.77050608 56.5097684,9.59765625 55.9511719,9.59765625 C55.3769503,9.59765625 54.9296891,9.78320127 54.609375,10.1542969 C54.2890609,10.5253925 54.1289062,11.1054648 54.1289062,11.8945312 C54.1289062,12.7070353 54.2744126,13.3056621 54.5654297,13.6904297 C54.8564468,14.0751972 55.3027314,14.2675781 55.9042969,14.2675781 Z M59.6542969,17.6777344 C59.4511709,17.6777344 59.2333996,17.6542971 59.0009766,17.6074219 C58.7685535,17.5605466 58.5996099,17.5039066 58.4941406,17.4375 L58.6113281,16.546875 C58.9199234,16.6679694 59.2207017,16.7285156 59.5136719,16.7285156 C59.7753919,16.7285156 59.9746087,16.6542976 60.1113281,16.5058594 C60.2480476,16.3574211 60.3164062,16.1074236 60.3164062,15.7558594 L60.3164062,8.83007812 L61.40625,8.83007812 L61.40625,15.8027344 C61.40625,17.0527406 60.8222715,17.6777344 59.6542969,17.6777344 Z M61.6582031,6.75585938 C61.6582031,7.00976689 61.5917975,7.20507744 61.4589844,7.34179688 C61.3261712,7.47851631 61.13672,7.546875 60.890625,7.546875 C60.64453,7.546875 60.4531257,7.47753976 60.3164062,7.33886719 C60.1796868,7.20019462 60.1113281,7.00586062 60.1113281,6.75585938 C60.1113281,6.50976439 60.1796868,6.31836006 60.3164062,6.18164062 C60.4531257,6.04492119 60.64453,5.9765625 60.890625,5.9765625 C61.13672,5.9765625 61.3261712,6.04492119 61.4589844,6.18164062 C61.5917975,6.31836006 61.6582031,6.50976439 61.6582031,6.75585938 Z M65.7363281,15.1464844 C65.3105447,15.1464844 64.9326188,15.0888678 64.6025391,14.9736328 C64.2724593,14.8583979 64.0009776,14.7021494 63.7880859,14.5048828 C63.5751942,14.3076162 63.4003913,14.0693373 63.2636719,13.7900391 C63.1269524,13.5107408 63.0302737,13.2197281 62.9736328,12.9169922 C62.9169919,12.6142563 62.8886719,12.285158 62.8886719,11.9296875 C62.8886719,11.488279 62.9394526,11.0878924 63.0410156,10.7285156 C63.1425786,10.3691388 63.2812491,10.0654309 63.4570312,9.81738281 C63.6328134,9.5693347 63.8437488,9.36035241 64.0898438,9.19042969 C64.3359387,9.02050696 64.6015611,8.89648477 64.8867188,8.81835938 C65.1718764,8.74023398 65.4746078,8.70117188 65.7949219,8.70117188 C66.216799,8.70117188 66.5869125,8.76757746 66.9052734,8.90039062 C67.2236344,9.03320379 67.4785147,9.22070191 67.6699219,9.46289062 C67.8613291,9.70507934 68.0048823,9.98437342 68.1005859,10.3007812 C68.1962895,10.6171891 68.2441406,10.9707012 68.2441406,11.3613281 C68.2441406,11.6464858 68.2285158,11.9160144 68.1972656,12.1699219 L64.0429688,12.1699219 C64.0664064,12.9121131 64.2275376,13.4414047 64.5263672,13.7578125 C64.8251968,14.0742203 65.2402317,14.2324219 65.7714844,14.2324219 C66.1972678,14.2324219 66.5234364,14.1416025 66.75,13.9599609 C66.9765636,13.7783194 67.1347652,13.5058612 67.2246094,13.1425781 L68.1855469,13.3535156 C68.0644525,13.9394561 67.7851584,14.3847641 67.3476562,14.6894531 C66.9101541,14.9941421 66.3730501,15.1464844 65.7363281,15.1464844 Z M64.0546875,11.3027344 L67.1132812,11.3027344 C67.1132812,10.1581974 66.6503953,9.5859375 65.7246094,9.5859375 C65.5136708,9.5859375 65.3144541,9.61914029 65.1269531,9.68554688 C64.9394522,9.75195346 64.7666024,9.85156184 64.6083984,9.984375 C64.4501945,10.1171882 64.3222661,10.2958973 64.2246094,10.5205078 C64.1269526,10.7451183 64.0703126,11.0058579 64.0546875,11.3027344 Z M72.2753906,15.1464844 C71.7792944,15.1464844 71.3466815,15.0693367 70.9775391,14.9150391 C70.6083966,14.7607414 70.3125011,14.5400405 70.0898438,14.2529297 C69.8671864,13.9658189 69.7031255,13.6328144 69.5976562,13.2539062 C69.492187,12.8749981 69.4394531,12.4492211 69.4394531,11.9765625 C69.4394531,10.9140572 69.6982396,10.1025419 70.2158203,9.54199219 C70.733401,8.98144251 71.4589797,8.70117188 72.3925781,8.70117188 C73.0996129,8.70117188 73.6630838,8.88378724 74.0830078,9.24902344 C74.5029318,9.61425964 74.7324217,10.1464809 74.7714844,10.8457031 L73.7226562,10.9921875 C73.675781,10.5273414 73.5410167,10.1806652 73.3183594,9.95214844 C73.095702,9.72363167 72.7714865,9.609375 72.3457031,9.609375 C72.1074207,9.609375 71.8886729,9.6445309 71.6894531,9.71484375 C71.4902334,9.7851566 71.3046884,9.90136638 71.1328125,10.0634766 C70.9609366,10.2255867 70.8261724,10.4570297 70.7285156,10.7578125 C70.6308589,11.0585953 70.5820312,11.4199198 70.5820312,11.8417969 C70.5820312,12.2871116 70.6249996,12.6679672 70.7109375,12.984375 C70.7968754,13.3007828 70.9199211,13.5478507 71.0800781,13.7255859 C71.2402352,13.9033212 71.4208974,14.0322262 71.6220703,14.1123047 C71.8232432,14.1923832 72.0527331,14.2324219 72.3105469,14.2324219 C73.181645,14.2324219 73.6933586,13.7929731 73.8457031,12.9140625 L74.8066406,13.1132812 C74.7089839,13.7929721 74.4277367,14.3017561 73.9628906,14.6396484 C73.4980446,14.9775408 72.9355502,15.1464844 72.2753906,15.1464844 Z M79.5292969,13.9453125 L79.7226562,14.7363281 C79.5624992,14.8457037 79.3388686,14.9414058 79.0517578,15.0234375 C78.764647,15.1054692 78.4843764,15.1464844 78.2109375,15.1464844 C77.6249971,15.1464844 77.188478,15.0048842 76.9013672,14.7216797 C76.6142564,14.4384751 76.4707031,13.9921905 76.4707031,13.3828125 L76.4707031,9.70898438 L75.5214844,9.70898438 L75.5214844,8.83007812 L76.4707031,8.83007812 L76.4707031,7.04296875 L77.5605469,6.87890625 L77.5605469,8.83007812 L79.265625,8.83007812 L79.265625,9.70898438 L77.5605469,9.70898438 L77.5605469,13.2363281 C77.5605469,13.5878924 77.6210931,13.8437492 77.7421875,14.0039062 C77.8632819,14.1640633 78.0996076,14.2441406 78.4511719,14.2441406 C78.8105487,14.2441406 79.1699201,14.1445322 79.5292969,13.9453125 Z M3.421875,38.1464844 C2.92577877,38.1464844 2.49316591,38.0693367 2.12402344,37.9150391 C1.75488097,37.7607414 1.45898549,37.5400405 1.23632812,37.2529297 C1.01367076,36.9658189 0.849609902,36.6328144 0.744140625,36.2539062 C0.638671348,35.8749981 0.5859375,35.4492211 0.5859375,34.9765625 C0.5859375,33.9140572 0.844723975,33.1025419 1.36230469,32.5419922 C1.8798854,31.9814425 2.60546408,31.7011719 3.5390625,31.7011719 C4.24609729,31.7011719 4.80956821,31.8837872 5.22949219,32.2490234 C5.64941616,32.6142596 5.87890605,33.1464809 5.91796875,33.8457031 L4.86914062,33.9921875 C4.82226539,33.5273414 4.68750111,33.1806652 4.46484375,32.9521484 C4.24218639,32.7236317 3.91797088,32.609375 3.4921875,32.609375 C3.25390506,32.609375 3.03515725,32.6445309 2.8359375,32.7148438 C2.63671775,32.7851566 2.45117273,32.9013664 2.27929687,33.0634766 C2.10742102,33.2255867 1.97265674,33.4570297 1.875,33.7578125 C1.77734326,34.0585953 1.72851562,34.4199198 1.72851562,34.8417969 C1.72851562,35.2871116 1.77148395,35.6679672 1.85742187,35.984375 C1.9433598,36.3007828 2.06640545,36.5478507 2.2265625,36.7255859 C2.38671955,36.9033212 2.56738181,37.0322262 2.76855469,37.1123047 C2.96972757,37.1923832 3.19921746,37.2324219 3.45703125,37.2324219 C4.32812936,37.2324219 4.83984299,36.7929731 4.9921875,35.9140625 L5.953125,36.1132812 C5.85546826,36.7929721 5.57422107,37.3017561 5.109375,37.6396484 C4.64452893,37.9775408 4.08203455,38.1464844 3.421875,38.1464844 Z M12.4511719,28.9414062 L12.4511719,38 L11.5371094,38 L11.4550781,37.3378906 L11.4433594,37.3261719 C10.8417939,37.8730496 10.1621132,38.1464844 9.40429688,38.1464844 C8.66601193,38.1464844 8.08886927,37.8935572 7.67285156,37.3876953 C7.25683386,36.8818334 7.04882812,36.0898491 7.04882812,35.0117188 C7.04882812,34.5390601 7.09570266,34.1132831 7.18945312,33.734375 C7.28320359,33.3554669 7.41015545,33.0410169 7.5703125,32.7910156 C7.73046955,32.5410144 7.92285044,32.3330086 8.14746094,32.1669922 C8.37207144,32.0009757 8.60937375,31.8818363 8.859375,31.8095703 C9.10937625,31.7373043 9.37499859,31.7011719 9.65625,31.7011719 C10.3281284,31.7011719 10.9042945,31.8925762 11.3847656,32.2753906 L11.3847656,28.9414062 L12.4511719,28.9414062 Z M11.3730469,36.4765625 L11.3730469,33.1777344 C10.896482,32.8183576 10.3710966,32.6386719 9.796875,32.6386719 C8.71874461,32.6386719 8.1796875,33.4296796 8.1796875,35.0117188 C8.1796875,35.769535 8.3037097,36.3290998 8.55175781,36.6904297 C8.79980593,37.0517596 9.19140357,37.2324219 9.7265625,37.2324219 C10.0273453,37.2324219 10.3232407,37.160157 10.6142578,37.015625 C10.9052749,36.871093 11.1582021,36.6914073 11.3730469,36.4765625 Z M16.9101562,40.5429688 L16.9101562,31.8300781 L17.859375,31.8300781 L17.9179688,32.5390625 C18.5429719,31.980466 19.2539023,31.7011719 20.0507812,31.7011719 C20.3867204,31.7011719 20.6874987,31.7558588 20.953125,31.8652344 C21.2187513,31.9746099 21.4550771,32.1464832 21.6621094,32.3808594 C21.8691417,32.6152355 22.0283198,32.9345683 22.1396484,33.3388672 C22.2509771,33.7431661 22.3066406,34.2207004 22.3066406,34.7714844 C22.3066406,35.3574248 22.2382819,35.8710915 22.1015625,36.3125 C21.9648431,36.7539085 21.7773449,37.1054674 21.5390625,37.3671875 C21.3007801,37.6289076 21.030275,37.8242181 20.7275391,37.953125 C20.4248032,38.0820319 20.0957049,38.1464844 19.7402344,38.1464844 C19.0917936,38.1464844 18.5000027,37.9453145 17.9648438,37.5429688 L17.9648438,40.5429688 L16.9101562,40.5429688 Z M18,33.3945312 L18,36.6054688 C18.5273464,37.0156271 19.056638,37.2207031 19.5878906,37.2207031 C20.6582085,37.2207031 21.1933594,36.4003988 21.1933594,34.7597656 C21.1933594,33.9980431 21.0742199,33.4492204 20.8359375,33.1132812 C20.5976551,32.7773421 20.2285181,32.609375 19.7285156,32.609375 C19.4121078,32.609375 19.0966813,32.6884758 18.7822266,32.8466797 C18.4677719,33.0048836 18.2070323,33.187499 18,33.3945312 Z M27.1523438,31.7128906 L27.1523438,32.8378906 C26.7773419,32.7871091 26.3837911,32.8271478 25.9716797,32.9580078 C25.5595683,33.0888678 25.2246107,33.2734363 24.9667969,33.5117188 L24.9667969,38 L23.8769531,38 L23.8769531,31.8300781 L24.7910156,31.8300781 L24.8730469,32.7207031 C25.1386732,32.3613263 25.4365218,32.1015633 25.7666016,31.9414062 C26.0966813,31.7812492 26.4824197,31.7011719 26.9238281,31.7011719 C26.9472657,31.7011719 26.9853513,31.703125 27.0380859,31.7070312 C27.0908206,31.7109375 27.1289061,31.7128906 27.1523438,31.7128906 Z M30.5332031,38.1464844 C30.1152323,38.1464844 29.7431657,38.092774 29.4169922,37.9853516 C29.0908187,37.8779292 28.8203136,37.7304697 28.6054687,37.5429688 C28.3906239,37.3554678 28.2138679,37.1259779 28.0751953,36.8544922 C27.9365227,36.5830065 27.8369144,36.2900406 27.7763672,35.9755859 C27.71582,35.6611312 27.6855469,35.3164081 27.6855469,34.9414062 C27.6855469,33.9296824 27.9433568,33.1367216 28.4589844,32.5625 C28.974612,31.9882784 29.716792,31.7011719 30.6855469,31.7011719 C31.166018,31.7011719 31.5849592,31.7753899 31.9423828,31.9238281 C32.2998065,32.0722664 32.586913,32.2851549 32.8037109,32.5625 C33.0205089,32.8398451 33.1816401,33.1640606 33.2871094,33.5351562 C33.3925787,33.9062519 33.4453125,34.3261695 33.4453125,34.7949219 C33.4453125,35.8535209 33.2099633,36.6767549 32.7392578,37.2646484 C32.2685523,37.852542 31.5332081,38.1464844 30.5332031,38.1464844 Z M30.5917969,37.2675781 C31.1503934,37.2675781 31.5761704,37.0781269 31.8691406,36.6992188 C32.1621108,36.3203106 32.3085938,35.7089886 32.3085938,34.8652344 C32.3085938,34.0449178 32.1699233,33.4619158 31.8925781,33.1162109 C31.615233,32.7705061 31.1972684,32.5976562 30.6386719,32.5976562 C30.0644503,32.5976562 29.6171891,32.7832013 29.296875,33.1542969 C28.9765609,33.5253925 28.8164062,34.1054648 28.8164062,34.8945312 C28.8164062,35.7070353 28.9619126,36.3056621 29.2529297,36.6904297 C29.5439468,37.0751972 29.9902314,37.2675781 30.5917969,37.2675781 Z M34.3417969,40.6777344 C34.1386709,40.6777344 33.9208996,40.6542971 33.6884766,40.6074219 C33.4560535,40.5605466 33.2871099,40.5039066 33.1816406,40.4375 L33.2988281,39.546875 C33.6074234,39.6679694 33.9082017,39.7285156 34.2011719,39.7285156 C34.4628919,39.7285156 34.6621087,39.6542976 34.7988281,39.5058594 C34.9355476,39.3574211 35.0039062,39.1074236 35.0039062,38.7558594 L35.0039062,31.8300781 L36.09375,31.8300781 L36.09375,38.8027344 C36.09375,40.0527406 35.5097715,40.6777344 34.3417969,40.6777344 Z M36.3457031,29.7558594 C36.3457031,30.0097669 36.2792975,30.2050774 36.1464844,30.3417969 C36.0136712,30.4785163 35.82422,30.546875 35.578125,30.546875 C35.33203,30.546875 35.1406257,30.4775398 35.0039062,30.3388672 C34.8671868,30.2001946 34.7988281,30.0058606 34.7988281,29.7558594 C34.7988281,29.5097644 34.8671868,29.3183601 35.0039062,29.1816406 C35.1406257,29.0449212 35.33203,28.9765625 35.578125,28.9765625 C35.82422,28.9765625 36.0136712,29.0449212 36.1464844,29.1816406 C36.2792975,29.3183601 36.3457031,29.5097644 36.3457031,29.7558594 Z M40.4238281,38.1464844 C39.9980447,38.1464844 39.6201188,38.0888678 39.2900391,37.9736328 C38.9599593,37.8583979 38.6884776,37.7021494 38.4755859,37.5048828 C38.2626942,37.3076162 38.0878913,37.0693373 37.9511719,36.7900391 C37.8144524,36.5107408 37.7177737,36.2197281 37.6611328,35.9169922 C37.6044919,35.6142563 37.5761719,35.285158 37.5761719,34.9296875 C37.5761719,34.488279 37.6269526,34.0878924 37.7285156,33.7285156 C37.8300786,33.3691388 37.9687491,33.0654309 38.1445312,32.8173828 C38.3203134,32.5693347 38.5312488,32.3603524 38.7773438,32.1904297 C39.0234387,32.020507 39.2890611,31.8964848 39.5742188,31.8183594 C39.8593764,31.740234 40.1621078,31.7011719 40.4824219,31.7011719 C40.904299,31.7011719 41.2744125,31.7675775 41.5927734,31.9003906 C41.9111344,32.0332038 42.1660147,32.2207019 42.3574219,32.4628906 C42.5488291,32.7050793 42.6923823,32.9843734 42.7880859,33.3007812 C42.8837895,33.6171891 42.9316406,33.9707012 42.9316406,34.3613281 C42.9316406,34.6464858 42.9160158,34.9160144 42.8847656,35.1699219 L38.7304688,35.1699219 C38.7539064,35.9121131 38.9150376,36.4414047 39.2138672,36.7578125 C39.5126968,37.0742203 39.9277317,37.2324219 40.4589844,37.2324219 C40.8847678,37.2324219 41.2109364,37.1416025 41.4375,36.9599609 C41.6640636,36.7783194 41.8222652,36.5058612 41.9121094,36.1425781 L42.8730469,36.3535156 C42.7519525,36.9394561 42.4726584,37.3847641 42.0351562,37.6894531 C41.5976541,37.9941421 41.0605501,38.1464844 40.4238281,38.1464844 Z M38.7421875,34.3027344 L41.8007812,34.3027344 C41.8007812,33.1581974 41.3378953,32.5859375 40.4121094,32.5859375 C40.2011708,32.5859375 40.0019541,32.6191403 39.8144531,32.6855469 C39.6269522,32.7519535 39.4541024,32.8515618 39.2958984,32.984375 C39.1376945,33.1171882 39.0097661,33.2958973 38.9121094,33.5205078 C38.8144526,33.7451183 38.7578126,34.0058579 38.7421875,34.3027344 Z M46.9628906,38.1464844 C46.4667944,38.1464844 46.0341815,38.0693367 45.6650391,37.9150391 C45.2958966,37.7607414 45.0000011,37.5400405 44.7773438,37.2529297 C44.5546864,36.9658189 44.3906255,36.6328144 44.2851562,36.2539062 C44.179687,35.8749981 44.1269531,35.4492211 44.1269531,34.9765625 C44.1269531,33.9140572 44.3857396,33.1025419 44.9033203,32.5419922 C45.420901,31.9814425 46.1464797,31.7011719 47.0800781,31.7011719 C47.7871129,31.7011719 48.3505838,31.8837872 48.7705078,32.2490234 C49.1904318,32.6142596 49.4199217,33.1464809 49.4589844,33.8457031 L48.4101562,33.9921875 C48.363281,33.5273414 48.2285167,33.1806652 48.0058594,32.9521484 C47.783202,32.7236317 47.4589865,32.609375 47.0332031,32.609375 C46.7949207,32.609375 46.5761729,32.6445309 46.3769531,32.7148438 C46.1777334,32.7851566 45.9921884,32.9013664 45.8203125,33.0634766 C45.6484366,33.2255867 45.5136724,33.4570297 45.4160156,33.7578125 C45.3183589,34.0585953 45.2695312,34.4199198 45.2695312,34.8417969 C45.2695312,35.2871116 45.3124996,35.6679672 45.3984375,35.984375 C45.4843754,36.3007828 45.6074211,36.5478507 45.7675781,36.7255859 C45.9277352,36.9033212 46.1083974,37.0322262 46.3095703,37.1123047 C46.5107432,37.1923832 46.7402331,37.2324219 46.9980469,37.2324219 C47.869145,37.2324219 48.3808586,36.7929731 48.5332031,35.9140625 L49.4941406,36.1132812 C49.3964839,36.7929721 49.1152367,37.3017561 48.6503906,37.6396484 C48.1855446,37.9775408 47.6230502,38.1464844 46.9628906,38.1464844 Z M54.2167969,36.9453125 L54.4101562,37.7363281 C54.2499992,37.8457037 54.0263686,37.9414058 53.7392578,38.0234375 C53.452147,38.1054692 53.1718764,38.1464844 52.8984375,38.1464844 C52.3124971,38.1464844 51.875978,38.0048842 51.5888672,37.7216797 C51.3017564,37.4384751 51.1582031,36.9921905 51.1582031,36.3828125 L51.1582031,32.7089844 L50.2089844,32.7089844 L50.2089844,31.8300781 L51.1582031,31.8300781 L51.1582031,30.0429687 L52.2480469,29.8789062 L52.2480469,31.8300781 L53.953125,31.8300781 L53.953125,32.7089844 L52.2480469,32.7089844 L52.2480469,36.2363281 C52.2480469,36.5878924 52.3085931,36.8437492 52.4296875,37.0039062 C52.5507819,37.1640633 52.7871076,37.2441406 53.1386719,37.2441406 C53.4980487,37.2441406 53.8574201,37.1445322 54.2167969,36.9453125 Z M6.10546875,56.8105469 L6.10546875,61 L5.015625,61 L5.015625,56.9804687 C5.015625,56.5429666 4.9248056,56.2138683 4.74316406,55.9931641 C4.56152253,55.7724598 4.26758016,55.6621094 3.86132812,55.6621094 C3.54101402,55.6621094 3.2109392,55.7412101 2.87109375,55.8994141 C2.5312483,56.057618 2.26171975,56.2265616 2.0625,56.40625 L2.0625,61 L0.97265625,61 L0.97265625,54.8300781 L1.93359375,54.8300781 L1.9921875,55.5625 C2.70703482,54.9882784 3.4472618,54.7011719 4.21289062,54.7011719 C4.86523764,54.7011719 5.34374848,54.8759748 5.6484375,55.2255859 C5.95312652,55.5751971 6.10546875,56.1035121 6.10546875,56.8105469 Z M7.95117187,63.5429687 L7.95117187,54.8300781 L8.90039062,54.8300781 L8.95898437,55.5390625 C9.5839875,54.980466 10.2949179,54.7011719 11.0917969,54.7011719 C11.4277361,54.7011719 11.7285143,54.7558588 11.9941406,54.8652344 C12.259767,54.9746099 12.4960927,55.1464832 12.703125,55.3808594 C12.9101573,55.6152355 13.0693354,55.9345683 13.1806641,56.3388672 C13.2919927,56.7431661 13.3476562,57.2207004 13.3476562,57.7714844 C13.3476562,58.3574248 13.2792976,58.8710915 13.1425781,59.3125 C13.0058587,59.7539085 12.8183606,60.1054674 12.5800781,60.3671875 C12.3417957,60.6289076 12.0712906,60.8242181 11.7685547,60.953125 C11.4658188,61.0820319 11.1367205,61.1464844 10.78125,61.1464844 C10.1328093,61.1464844 9.5410183,60.9453145 9.00585937,60.5429687 L9.00585937,63.5429687 L7.95117187,63.5429687 Z M9.04101562,56.3945312 L9.04101562,59.6054688 C9.56836201,60.0156271 10.0976536,60.2207031 10.6289062,60.2207031 C11.6992241,60.2207031 12.234375,59.4003988 12.234375,57.7597656 C12.234375,56.9980431 12.1152356,56.4492204 11.8769531,56.1132812 C11.6386707,55.7773421 11.2695338,55.609375 10.7695312,55.609375 C10.4531234,55.609375 10.1376969,55.6884758 9.82324219,55.8466797 C9.50878749,56.0048836 9.24804791,56.187499 9.04101562,56.3945312 Z M16.0078125,56.3945312 L16.0078125,61 L14.9179688,61 L14.9179688,54.8300781 L15.8554688,54.8300781 L15.9140625,55.5273437 C16.2578142,55.2656237 16.5957015,55.0625007 16.9277344,54.9179687 C17.2597673,54.7734368 17.6210918,54.7011719 18.0117188,54.7011719 C18.8046915,54.7011719 19.3203113,54.9843722 19.5585938,55.5507812 C20.2617223,54.9843722 20.9746058,54.7011719 21.6972656,54.7011719 C22.326175,54.7011719 22.7753893,54.8720686 23.0449219,55.2138672 C23.3144545,55.5556658 23.4492188,56.0839808 23.4492188,56.7988281 L23.4492188,61 L22.359375,61 L22.359375,56.9570312 C22.359375,56.5117165 22.2929694,56.1845714 22.1601562,55.9755859 C22.0273431,55.7666005 21.7734394,55.6621094 21.3984375,55.6621094 C21.1289049,55.6621094 20.8359391,55.7324212 20.5195312,55.8730469 C20.2031234,56.0136726 19.9433604,56.169921 19.7402344,56.3417969 C19.7558595,56.5371104 19.7636719,56.6894526 19.7636719,56.7988281 L19.7636719,61 L18.6738281,61 L18.6738281,56.9570312 C18.6738281,56.5117165 18.6074225,56.1845714 18.4746094,55.9755859 C18.3417962,55.7666005 18.0878925,55.6621094 17.7128906,55.6621094 C17.4277329,55.6621094 17.1191423,55.7402336 16.7871094,55.8964844 C16.4550765,56.0527352 16.1953134,56.2187491 16.0078125,56.3945312 Z M28.9628906,54.8300781 L28.9628906,61 L27.8730469,61 L27.8730469,54.8300781 L28.9628906,54.8300781 Z M29.0097656,52.2753906 C29.1464851,52.4082038 29.2148437,52.5996081 29.2148437,52.8496094 C29.2148437,53.0996106 29.1464851,53.2949212 29.0097656,53.4355469 C28.8730462,53.5761726 28.6816419,53.6464844 28.4355469,53.6464844 C28.1894519,53.6464844 28.0000007,53.5771491 27.8671875,53.4384766 C27.7343743,53.299804 27.6679687,53.1035169 27.6679687,52.8496094 C27.6679687,52.5996081 27.7343743,52.4072272 27.8671875,52.2724609 C28.0000007,52.1376946 28.1894519,52.0703125 28.4355469,52.0703125 C28.6816419,52.0703125 28.8730462,52.1386712 29.0097656,52.2753906 Z M40.0957031,61.5625 L40.5234375,62.2363281 C40.1914046,62.5253921 39.7714869,62.7431633 39.2636719,62.8896484 C38.7558568,63.0361335 38.1972687,63.109375 37.5878906,63.109375 C36.9394499,63.109375 36.3417996,63.017579 35.7949219,62.8339844 C35.2480441,62.6503897 34.7666036,62.3818377 34.3505859,62.0283203 C33.9345682,61.6748029 33.6093762,61.2158231 33.375,60.6513672 C33.1406238,60.0869112 33.0234375,59.4472692 33.0234375,58.7324219 C33.0234375,57.8222611 33.2197246,57.0175816 33.6123047,56.3183594 C34.0048848,55.6191371 34.5595667,55.0781269 35.2763672,54.6953125 C35.9931676,54.3124981 36.8183547,54.1210937 37.7519531,54.1210937 C38.3613312,54.1210937 38.9238255,54.2050773 39.4394531,54.3730469 C39.9550807,54.5410165 40.4033184,54.7841781 40.7841797,55.1025391 C41.165041,55.4209 41.4628896,55.8281225 41.6777344,56.3242187 C41.8925792,56.820315 42,57.3789031 42,58 C42,59.0195363 41.8115253,59.782224 41.4345703,60.2880859 C41.0576153,60.7939478 40.5468782,61.046875 39.9023438,61.046875 C39.5742171,61.046875 39.2919934,60.9873053 39.0556641,60.8681641 C38.8193348,60.7490228 38.6523442,60.5898447 38.5546875,60.390625 C38.3945304,60.6093761 38.1904309,60.7812494 37.9423828,60.90625 C37.6943347,61.0312506 37.4199234,61.09375 37.1191406,61.09375 C36.8066391,61.09375 36.5341808,61.0371099 36.3017578,60.9238281 C36.0693348,60.8105463 35.8857429,60.6503917 35.7509766,60.4433594 C35.6162103,60.2363271 35.5166019,60.0019544 35.4521484,59.7402344 C35.387695,59.4785143 35.3554688,59.1855485 35.3554688,58.8613281 C35.3554688,58.091793 35.5419903,57.4619165 35.9150391,56.9716797 C36.2880878,56.4814429 36.7851531,56.2363281 37.40625,56.2363281 C37.8398459,56.2363281 38.2070297,56.3808579 38.5078125,56.6699219 L38.5664062,56.3066406 L39.3105469,56.3066406 L39.3105469,59.3535156 C39.3105469,59.4824225 39.3134765,59.5878902 39.3193359,59.6699219 C39.3251953,59.7519535 39.3398436,59.8388667 39.3632812,59.9306641 C39.3867189,60.0224614 39.4208982,60.0937497 39.4658203,60.1445312 C39.5107424,60.1953128 39.5751949,60.2382811 39.6591797,60.2734375 C39.7431645,60.3085939 39.8437494,60.3261719 39.9609375,60.3261719 C40.3007829,60.3261719 40.5742177,60.1318379 40.78125,59.7431641 C40.9882823,59.3544902 41.0917969,58.8261752 41.0917969,58.1582031 C41.0917969,57.0800727 40.8017607,56.2744167 40.2216797,55.7412109 C39.6415987,55.2080051 38.7910212,54.9414062 37.6699219,54.9414062 C37.0878877,54.9414062 36.5605492,55.0390615 36.0878906,55.234375 C35.615232,55.4296885 35.2255875,55.6972639 34.9189453,56.0371094 C34.6123032,56.3769548 34.3759774,56.7744118 34.2099609,57.2294922 C34.0439445,57.6845726 33.9609375,58.1738255 33.9609375,58.6972656 C33.9609375,59.3105499 34.05371,59.8496071 34.2392578,60.3144531 C34.4248056,60.7792992 34.6874983,61.1542954 35.0273438,61.4394531 C35.3671892,61.7246108 35.7597634,61.9384758 36.2050781,62.0810547 C36.6503929,62.2236335 37.1464816,62.2949219 37.6933594,62.2949219 C38.6777393,62.2949219 39.4785125,62.0507837 40.0957031,61.5625 Z M38.4609375,59.59375 L38.4609375,57.3378906 C38.1835924,57.0996082 37.8710955,56.9804687 37.5234375,56.9804687 C37.1523419,56.9804687 36.8515637,57.1308579 36.6210938,57.4316406 C36.3906238,57.7324234 36.2753906,58.1855438 36.2753906,58.7910156 C36.2753906,59.8222708 36.6074186,60.3378906 37.2714844,60.3378906 C37.7714869,60.3378906 38.1679673,60.0898462 38.4609375,59.59375 Z M45.984375,61.1464844 C45.5585916,61.1464844 45.1806657,61.0888678 44.8505859,60.9736328 C44.5205062,60.8583979 44.2490245,60.7021494 44.0361328,60.5048828 C43.8232411,60.3076162 43.6484382,60.0693373 43.5117188,59.7900391 C43.3749993,59.5107408 43.2783206,59.2197281 43.2216797,58.9169922 C43.1650388,58.6142563 43.1367188,58.285158 43.1367188,57.9296875 C43.1367188,57.488279 43.1874995,57.0878924 43.2890625,56.7285156 C43.3906255,56.3691388 43.529296,56.0654309 43.7050781,55.8173828 C43.8808603,55.5693347 44.0917956,55.3603524 44.3378906,55.1904297 C44.5839856,55.020507 44.8496079,54.8964848 45.1347656,54.8183594 C45.4199233,54.740234 45.7226546,54.7011719 46.0429688,54.7011719 C46.4648459,54.7011719 46.8349593,54.7675775 47.1533203,54.9003906 C47.4716813,55.0332038 47.7265615,55.2207019 47.9179688,55.4628906 C48.109376,55.7050793 48.2529292,55.9843734 48.3486328,56.3007812 C48.4443364,56.6171891 48.4921875,56.9707012 48.4921875,57.3613281 C48.4921875,57.6464858 48.4765627,57.9160144 48.4453125,58.1699219 L44.2910156,58.1699219 C44.3144532,58.9121131 44.4755844,59.4414047 44.7744141,59.7578125 C45.0732437,60.0742203 45.4882786,60.2324219 46.0195312,60.2324219 C46.4453146,60.2324219 46.7714832,60.1416025 46.9980469,59.9599609 C47.2246105,59.7783194 47.3828121,59.5058612 47.4726562,59.1425781 L48.4335938,59.3535156 C48.3124994,59.9394561 48.0332053,60.3847641 47.5957031,60.6894531 C47.1582009,60.9941421 46.6210969,61.1464844 45.984375,61.1464844 Z M44.3027344,57.3027344 L47.3613281,57.3027344 C47.3613281,56.1581974 46.8984421,55.5859375 45.9726562,55.5859375 C45.7617177,55.5859375 45.5625009,55.6191403 45.375,55.6855469 C45.1874991,55.7519535 45.0146492,55.8515618 44.8564453,55.984375 C44.6982414,56.1171882 44.570313,56.2958973 44.4726562,56.5205078 C44.3749995,56.7451183 44.3183595,57.0058579 44.3027344,57.3027344 Z M54.3925781,56.8222656 L54.3925781,59.8339844 C54.3925781,60.0097665 54.4169919,60.1337887 54.4658203,60.2060547 C54.5146487,60.2783207 54.6132805,60.3144531 54.7617187,60.3144531 C54.8515629,60.3144531 54.9765617,60.2910159 55.1367187,60.2441406 L55.1835937,60.9296875 C54.92578,61.0546881 54.6425797,61.1171875 54.3339844,61.1171875 C54.0449204,61.1171875 53.8222664,61.0498054 53.6660156,60.9150391 C53.5097648,60.7802728 53.4160158,60.6054698 53.3847656,60.390625 C52.8808569,60.8945338 52.2207072,61.1464844 51.4042969,61.1464844 C51.1074204,61.1464844 50.8457043,61.1074223 50.6191406,61.0292969 C50.392577,60.9511715 50.2158209,60.8544928 50.0888672,60.7392578 C49.9619134,60.6240229 49.8583988,60.4873055 49.7783203,60.3291016 C49.6982418,60.1708976 49.6455079,60.0253913 49.6201172,59.8925781 C49.5947264,59.759765 49.5820312,59.6250007 49.5820312,59.4882812 C49.5820312,58.0898368 50.6445206,57.390625 52.7695312,57.390625 C52.9062507,57.390625 53.0878895,57.3984374 53.3144531,57.4140625 L53.3144531,56.8105469 C53.3144531,56.3847635 53.2285165,56.0683604 53.0566406,55.8613281 C52.8847648,55.6542958 52.5625024,55.5507812 52.0898437,55.5507812 C51.6796854,55.5507812 51.3759775,55.6318351 51.1787109,55.7939453 C50.9814443,55.9560555 50.8476566,56.214842 50.7773437,56.5703125 L49.8222656,56.3945312 C49.9199224,55.8164034 50.1591778,55.3896498 50.5400391,55.1142578 C50.9209003,54.8388658 51.4687464,54.7011719 52.1835937,54.7011719 C52.9570351,54.7011719 53.5185529,54.8652327 53.8681641,55.1933594 C54.2177752,55.521486 54.3925781,56.0644493 54.3925781,56.8222656 Z M53.3261719,59.59375 L53.3261719,58.2050781 C53.154296,58.1816405 52.9453137,58.1699219 52.6992187,58.1699219 C52.4921865,58.1699219 52.3115242,58.1748046 52.1572266,58.1845703 C52.0029289,58.194336 51.8291025,58.2216795 51.6357422,58.2666016 C51.4423818,58.3115237 51.2832037,58.3730465 51.1582031,58.4511719 C51.0332025,58.5292973 50.9267583,58.6406243 50.8388672,58.7851562 C50.7509761,58.9296882 50.7070312,59.1035146 50.7070312,59.3066406 C50.7070312,59.6074234 50.7822258,59.8466788 50.9326172,60.0244141 C51.0830086,60.2021493 51.3515606,60.2910156 51.7382812,60.2910156 C52.039064,60.2910156 52.3339829,60.2236335 52.6230469,60.0888672 C52.9121108,59.9541009 53.1464835,59.7890635 53.3261719,59.59375 Z M57.5097656,56.3945312 L57.5097656,61 L56.4199219,61 L56.4199219,54.8300781 L57.3574219,54.8300781 L57.4160156,55.5273437 C57.7597673,55.2656237 58.0976546,55.0625007 58.4296875,54.9179687 C58.7617204,54.7734368 59.1230449,54.7011719 59.5136719,54.7011719 C60.3066446,54.7011719 60.8222644,54.9843722 61.0605469,55.5507812 C61.7636754,54.9843722 62.4765589,54.7011719 63.1992188,54.7011719 C63.8281281,54.7011719 64.2773424,54.8720686 64.546875,55.2138672 C64.8164076,55.5556658 64.9511719,56.0839808 64.9511719,56.7988281 L64.9511719,61 L63.8613281,61 L63.8613281,56.9570312 C63.8613281,56.5117165 63.7949225,56.1845714 63.6621094,55.9755859 C63.5292962,55.7666005 63.2753925,55.6621094 62.9003906,55.6621094 C62.630858,55.6621094 62.3378922,55.7324212 62.0214844,55.8730469 C61.7050765,56.0136726 61.4453135,56.169921 61.2421875,56.3417969 C61.2578126,56.5371104 61.265625,56.6894526 61.265625,56.7988281 L61.265625,61 L60.1757812,61 L60.1757812,56.9570312 C60.1757812,56.5117165 60.1093757,56.1845714 59.9765625,55.9755859 C59.8437493,55.7666005 59.5898456,55.6621094 59.2148438,55.6621094 C58.9296861,55.6621094 58.6210954,55.7402336 58.2890625,55.8964844 C57.9570296,56.0527352 57.6972666,56.2187491 57.5097656,56.3945312 Z M69.2695312,61.1464844 C68.8515604,61.1464844 68.4794938,61.092774 68.1533203,60.9853516 C67.8271468,60.8779292 67.5566417,60.7304697 67.3417969,60.5429687 C67.1269521,60.3554678 66.950196,60.1259779 66.8115234,59.8544922 C66.6728509,59.5830065 66.5732425,59.2900406 66.5126953,58.9755859 C66.4521481,58.6611312 66.421875,58.3164081 66.421875,57.9414062 C66.421875,56.9296824 66.6796849,56.1367216 67.1953125,55.5625 C67.7109401,54.9882784 68.4531202,54.7011719 69.421875,54.7011719 C69.9023462,54.7011719 70.3212873,54.7753899 70.6787109,54.9238281 C71.0361346,55.0722664 71.3232411,55.2851549 71.5400391,55.5625 C71.756837,55.8398451 71.9179682,56.1640606 72.0234375,56.5351562 C72.1289068,56.9062519 72.1816406,57.3261695 72.1816406,57.7949219 C72.1816406,58.8535209 71.9462914,59.6767549 71.4755859,60.2646484 C71.0048805,60.852542 70.2695363,61.1464844 69.2695312,61.1464844 Z M69.328125,60.2675781 C69.8867215,60.2675781 70.3124985,60.0781269 70.6054688,59.6992187 C70.898439,59.3203106 71.0449219,58.7089886 71.0449219,57.8652344 C71.0449219,57.0449178 70.9062514,56.4619158 70.6289062,56.1162109 C70.3515611,55.7705061 69.9335965,55.5976562 69.375,55.5976562 C68.8007784,55.5976562 68.3535172,55.7832013 68.0332031,56.1542969 C67.712889,56.5253925 67.5527344,57.1054648 67.5527344,57.8945312 C67.5527344,58.7070353 67.6982407,59.3056621 67.9892578,59.6904297 C68.2802749,60.0751972 68.7265595,60.2675781 69.328125,60.2675781 Z M78.7675781,51.9414062 L78.7675781,61 L77.8535156,61 L77.7714844,60.3378906 L77.7597656,60.3261719 C77.1582001,60.8730496 76.4785194,61.1464844 75.7207031,61.1464844 C74.9824182,61.1464844 74.4052755,60.8935572 73.9892578,60.3876953 C73.5732401,59.8818334 73.3652344,59.0898491 73.3652344,58.0117188 C73.3652344,57.5390601 73.4121089,57.1132831 73.5058594,56.734375 C73.5996098,56.3554669 73.7265617,56.0410169 73.8867188,55.7910156 C74.0468758,55.5410144 74.2392567,55.3330086 74.4638672,55.1669922 C74.6884777,55.0009757 74.92578,54.8818363 75.1757812,54.8095703 C75.4257825,54.7373043 75.6914048,54.7011719 75.9726562,54.7011719 C76.6445346,54.7011719 77.2207007,54.8925762 77.7011719,55.2753906 L77.7011719,51.9414062 L78.7675781,51.9414062 Z M77.6894531,59.4765625 L77.6894531,56.1777344 C77.2128882,55.8183576 76.6875029,55.6386719 76.1132812,55.6386719 C75.0351509,55.6386719 74.4960938,56.4296796 74.4960938,58.0117187 C74.4960938,58.769535 74.6201159,59.3290998 74.8681641,59.6904297 C75.1162122,60.0517596 75.5078098,60.2324219 76.0429688,60.2324219 C76.3437515,60.2324219 76.639647,60.160157 76.9306641,60.015625 C77.2216811,59.871093 77.4746083,59.6914073 77.6894531,59.4765625 Z M83.1210937,61.1464844 C82.6953104,61.1464844 82.3173845,61.0888678 81.9873047,60.9736328 C81.6572249,60.8583979 81.3857433,60.7021494 81.1728516,60.5048828 C80.9599599,60.3076162 80.7851569,60.0693373 80.6484375,59.7900391 C80.5117181,59.5107408 80.4150393,59.2197281 80.3583984,58.9169922 C80.3017575,58.6142563 80.2734375,58.285158 80.2734375,57.9296875 C80.2734375,57.488279 80.3242182,57.0878924 80.4257812,56.7285156 C80.5273443,56.3691388 80.6660147,56.0654309 80.8417969,55.8173828 C81.017579,55.5693347 81.2285144,55.3603524 81.4746094,55.1904297 C81.7207044,55.020507 81.9863267,54.8964848 82.2714844,54.8183594 C82.5566421,54.740234 82.8593734,54.7011719 83.1796875,54.7011719 C83.6015646,54.7011719 83.9716781,54.7675775 84.2900391,54.9003906 C84.6084,55.0332038 84.8632803,55.2207019 85.0546875,55.4628906 C85.2460947,55.7050793 85.389648,55.9843734 85.4853516,56.3007812 C85.5810552,56.6171891 85.6289062,56.9707012 85.6289062,57.3613281 C85.6289062,57.6464858 85.6132814,57.9160144 85.5820312,58.1699219 L81.4277344,58.1699219 C81.451172,58.9121131 81.6123032,59.4414047 81.9111328,59.7578125 C82.2099624,60.0742203 82.6249973,60.2324219 83.15625,60.2324219 C83.5820334,60.2324219 83.908202,60.1416025 84.1347656,59.9599609 C84.3613293,59.7783194 84.5195308,59.5058612 84.609375,59.1425781 L85.5703125,59.3535156 C85.4492181,59.9394561 85.1699241,60.3847641 84.7324219,60.6894531 C84.2949197,60.9941421 83.7578157,61.1464844 83.1210937,61.1464844 Z M81.4394531,57.3027344 L84.4980469,57.3027344 C84.4980469,56.1581974 84.0351609,55.5859375 83.109375,55.5859375 C82.8984364,55.5859375 82.6992197,55.6191403 82.5117188,55.6855469 C82.3242178,55.7519535 82.151368,55.8515618 81.9931641,55.984375 C81.8349601,56.1171882 81.7070317,56.2958973 81.609375,56.5205078 C81.5117183,56.7451183 81.4550782,57.0058579 81.4394531,57.3027344 Z M87.3164062,62.1015625 L86.3203125,62.1015625 L89.6953125,51.9414062 L90.6796875,51.9414062 L87.3164062,62.1015625 Z M93.7148437,61.1464844 C93.2890604,61.1464844 92.9111345,61.0888678 92.5810547,60.9736328 C92.2509749,60.8583979 91.9794933,60.7021494 91.7666016,60.5048828 C91.5537099,60.3076162 91.3789069,60.0693373 91.2421875,59.7900391 C91.1054681,59.5107408 91.0087893,59.2197281 90.9521484,58.9169922 C90.8955075,58.6142563 90.8671875,58.285158 90.8671875,57.9296875 C90.8671875,57.488279 90.9179682,57.0878924 91.0195312,56.7285156 C91.1210943,56.3691388 91.2597647,56.0654309 91.4355469,55.8173828 C91.611329,55.5693347 91.8222644,55.3603524 92.0683594,55.1904297 C92.3144544,55.020507 92.5800767,54.8964848 92.8652344,54.8183594 C93.1503921,54.740234 93.4531234,54.7011719 93.7734375,54.7011719 C94.1953146,54.7011719 94.5654281,54.7675775 94.8837891,54.9003906 C95.20215,55.0332038 95.4570303,55.2207019 95.6484375,55.4628906 C95.8398447,55.7050793 95.983398,55.9843734 96.0791016,56.3007812 C96.1748052,56.6171891 96.2226562,56.9707012 96.2226562,57.3613281 C96.2226562,57.6464858 96.2070314,57.9160144 96.1757812,58.1699219 L92.0214844,58.1699219 C92.044922,58.9121131 92.2060532,59.4414047 92.5048828,59.7578125 C92.8037124,60.0742203 93.2187473,60.2324219 93.75,60.2324219 C94.1757834,60.2324219 94.501952,60.1416025 94.7285156,59.9599609 C94.9550793,59.7783194 95.1132808,59.5058612 95.203125,59.1425781 L96.1640625,59.3535156 C96.0429681,59.9394561 95.7636741,60.3847641 95.3261719,60.6894531 C94.8886697,60.9941421 94.3515657,61.1464844 93.7148437,61.1464844 Z M92.0332031,57.3027344 L95.0917969,57.3027344 C95.0917969,56.1581974 94.6289109,55.5859375 93.703125,55.5859375 C93.4921864,55.5859375 93.2929697,55.6191403 93.1054687,55.6855469 C92.9179678,55.7519535 92.745118,55.8515618 92.5869141,55.984375 C92.4287101,56.1171882 92.3007817,56.2958973 92.203125,56.5205078 C92.1054683,56.7451183 92.0488282,57.0058579 92.0332031,57.3027344 Z M102.123047,56.8222656 L102.123047,59.8339844 C102.123047,60.0097665 102.147461,60.1337887 102.196289,60.2060547 C102.245117,60.2783207 102.343749,60.3144531 102.492187,60.3144531 C102.582032,60.3144531 102.70703,60.2910159 102.867187,60.2441406 L102.914062,60.9296875 C102.656249,61.0546881 102.373048,61.1171875 102.064453,61.1171875 C101.775389,61.1171875 101.552735,61.0498054 101.396484,60.9150391 C101.240234,60.7802728 101.146485,60.6054698 101.115234,60.390625 C100.611326,60.8945338 99.951176,61.1464844 99.1347656,61.1464844 C98.8378891,61.1464844 98.576173,61.1074223 98.3496094,61.0292969 C98.1230457,60.9511715 97.9462897,60.8544928 97.8193359,60.7392578 C97.6923822,60.6240229 97.5888676,60.4873055 97.5087891,60.3291016 C97.4287105,60.1708976 97.3759767,60.0253913 97.3505859,59.8925781 C97.3251952,59.759765 97.3125,59.6250007 97.3125,59.4882812 C97.3125,58.0898368 98.3749894,57.390625 100.5,57.390625 C100.636719,57.390625 100.818358,57.3984374 101.044922,57.4140625 L101.044922,56.8105469 C101.044922,56.3847635 100.958985,56.0683604 100.787109,55.8613281 C100.615234,55.6542958 100.292971,55.5507812 99.8203125,55.5507812 C99.4101542,55.5507812 99.1064463,55.6318351 98.9091797,55.7939453 C98.7119131,55.9560555 98.5781254,56.214842 98.5078125,56.5703125 L97.5527344,56.3945312 C97.6503911,55.8164034 97.8896465,55.3896498 98.2705078,55.1142578 C98.6513691,54.8388658 99.1992152,54.7011719 99.9140625,54.7011719 C100.687504,54.7011719 101.249022,54.8652327 101.598633,55.1933594 C101.948244,55.521486 102.123047,56.0644493 102.123047,56.8222656 Z M101.056641,59.59375 L101.056641,58.2050781 C100.884765,58.1816405 100.675782,58.1699219 100.429687,58.1699219 C100.222655,58.1699219 100.041993,58.1748046 99.8876953,58.1845703 C99.7333977,58.194336 99.5595713,58.2216795 99.3662109,58.2666016 C99.1728506,58.3115237 99.0136725,58.3730465 98.8886719,58.4511719 C98.7636712,58.5292973 98.657227,58.6406243 98.5693359,58.7851562 C98.4814449,58.9296882 98.4375,59.1035146 98.4375,59.3066406 C98.4375,59.6074234 98.5126946,59.8466788 98.6630859,60.0244141 C98.8134773,60.2021493 99.0820293,60.2910156 99.46875,60.2910156 C99.7695328,60.2910156 100.064452,60.2236335 100.353516,60.0888672 C100.64258,59.9541009 100.876952,59.7890635 101.056641,59.59375 Z M109.283203,56.8105469 L109.283203,61 L108.193359,61 L108.193359,56.9804687 C108.193359,56.5429666 108.10254,56.2138683 107.920898,55.9931641 C107.739257,55.7724598 107.445315,55.6621094 107.039062,55.6621094 C106.718748,55.6621094 106.388674,55.7412101 106.048828,55.8994141 C105.708983,56.057618 105.439454,56.2265616 105.240234,56.40625 L105.240234,61 L104.150391,61 L104.150391,54.8300781 L105.111328,54.8300781 L105.169922,55.5625 C105.884769,54.9882784 106.624996,54.7011719 107.390625,54.7011719 C108.042972,54.7011719 108.521483,54.8759748 108.826172,55.2255859 C109.130861,55.5751971 109.283203,56.1035121 109.283203,56.8105469 Z M113.384766,54.7011719 C114.201176,54.7011719 114.796873,54.88867 115.171875,55.2636719 C115.277344,55.0214832 115.412109,54.8271492 115.576172,54.6806641 C115.740235,54.534179 115.929686,54.4609375 116.144531,54.4609375 C116.308595,54.4609375 116.48828,54.4921872 116.683594,54.5546875 L116.683594,55.4335937 C116.269529,55.4062499 115.876955,55.4492182 115.505859,55.5625 C115.810548,55.9140643 115.962891,56.3632785 115.962891,56.9101562 C115.962891,57.5898471 115.725588,58.1269512 115.250977,58.5214844 C114.776365,58.9160176 114.173832,59.1132812 113.443359,59.1132812 C112.986326,59.1132812 112.619142,59.0664067 112.341797,58.9726562 C112.337891,58.9765625 112.309571,59.0019529 112.256836,59.0488281 C112.204101,59.0957034 112.172852,59.1249999 112.163086,59.1367187 C112.15332,59.1484376 112.128906,59.175781 112.089844,59.21875 C112.050781,59.261719 112.025391,59.2968749 112.013672,59.3242187 C112.001953,59.3515626 111.989258,59.385742 111.975586,59.4267578 C111.961914,59.4677736 111.955078,59.5078123 111.955078,59.546875 C111.955078,59.6835944 112.009765,59.7900387 112.119141,59.8662109 C112.228516,59.9423832 112.437498,59.9921874 112.746094,60.015625 L114.462891,60.1386719 C115.1543,60.1816408 115.663084,60.3173817 115.989258,60.5458984 C116.315431,60.7744152 116.478516,61.1738253 116.478516,61.7441406 C116.478516,62.0371108 116.417969,62.298827 116.296875,62.5292969 C116.175781,62.7597668 116.014649,62.9472649 115.813477,63.0917969 C115.612304,63.2363288 115.372072,63.3564448 115.092773,63.4521484 C114.813475,63.547852 114.528322,63.6152342 114.237305,63.6542969 C113.946288,63.6933596 113.638673,63.7128906 113.314453,63.7128906 C111.466788,63.7128906 110.542969,63.2050832 110.542969,62.1894531 C110.542969,61.8652328 110.638671,61.5820325 110.830078,61.3398437 C111.021485,61.097655 111.257811,60.9082038 111.539062,60.7714844 L111.539062,60.7597656 C111.316405,60.6699214 111.148438,60.5585944 111.035156,60.4257812 C110.921874,60.2929681 110.865234,60.1210948 110.865234,59.9101562 C110.865234,59.6718738 110.935546,59.4609384 111.076172,59.2773437 C111.216798,59.0937491 111.417967,58.9003916 111.679687,58.6972656 C111.39453,58.5449211 111.170899,58.3164078 111.008789,58.0117187 C110.846679,57.7070297 110.765625,57.359377 110.765625,56.96875 C110.765625,56.2890591 111.003904,55.741213 111.480469,55.3251953 C111.957034,54.9091776 112.591793,54.7011719 113.384766,54.7011719 Z M114.908203,56.921875 C114.908203,56.4687477 114.779298,56.1308605 114.521484,55.9082031 C114.263671,55.6855458 113.896487,55.5742187 113.419922,55.5742187 C112.955076,55.5742187 112.579103,55.6826161 112.291992,55.8994141 C112.004881,56.116212 111.861328,56.4492165 111.861328,56.8984375 C111.861328,57.7773481 112.373042,58.2167969 113.396484,58.2167969 C113.853518,58.2167969 114.219725,58.1025402 114.495117,57.8740234 C114.770509,57.6455067 114.908203,57.328127 114.908203,56.921875 Z M115.353516,61.8789062 C115.353516,61.6406238 115.281251,61.4638678 115.136719,61.3486328 C114.992187,61.2333979 114.720705,61.1621095 114.322266,61.1347656 L112.318359,61.0117187 C112.072264,61.1718758 111.896485,61.324218 111.791016,61.46875 C111.685546,61.613282 111.632812,61.7851553 111.632812,61.984375 C111.632812,62.2617201 111.76953,62.4746086 112.042969,62.6230469 C112.316408,62.7714851 112.7832,62.8457031 113.443359,62.8457031 C114.716803,62.8457031 115.353516,62.5234407 115.353516,61.8789062 Z" id="ng-new-project-cd-pr"></path>
                    <path d="M1.078125,97.1015625 L0.08203125,97.1015625 L3.45703125,86.9414062 L4.44140625,86.9414062 L1.078125,97.1015625 Z M7.62890625,86.9414062 L7.82226562,88.59375 L9.35742188,88.2128906 L9.515625,88.7285156 L8.0859375,89.4492188 L9.03515625,90.890625 L8.625,91.2128906 L7.35351562,90.0117188 L6.09375,91.2480469 L5.68945312,90.9023438 L6.62109375,89.4492188 L5.16796875,88.7402344 L5.33789062,88.2246094 L6.89648438,88.59375 L7.125,86.9414062 L7.62890625,86.9414062 Z M16.3476562,88.0898438 C15.7187469,88.0898438 15.2597671,88.2128894 14.9707031,88.4589844 C14.6816392,88.7050794 14.5371094,89.0351542 14.5371094,89.4492188 C14.5371094,89.597657 14.5585935,89.7343744 14.6015625,89.859375 C14.6445315,89.9843756 14.6953122,90.092773 14.7539062,90.1845703 C14.8125003,90.2763676 14.90039,90.3662105 15.0175781,90.4541016 C15.1347662,90.5419926 15.2402339,90.6123044 15.3339844,90.6650391 C15.4277348,90.7177737 15.560546,90.7763669 15.7324219,90.8408203 C15.9042977,90.9052738 16.0439448,90.9550779 16.1513672,90.9902344 C16.2587896,91.0253908 16.4121084,91.0722653 16.6113281,91.1308594 C16.7988291,91.1855471 16.9423823,91.2275389 17.0419922,91.2568359 C17.1416021,91.286133 17.279296,91.3320309 17.4550781,91.3945312 C17.6308603,91.4570316 17.7685542,91.5117185 17.8681641,91.5585938 C17.9677739,91.605469 18.0908196,91.6699215 18.2373047,91.7519531 C18.3837898,91.8339848 18.499023,91.9140621 18.5830078,91.9921875 C18.6669926,92.0703129 18.757812,92.1669916 18.8554687,92.2822266 C18.9531255,92.3974615 19.02832,92.5175775 19.0810547,92.6425781 C19.1337893,92.7675787 19.1777342,92.9101554 19.2128906,93.0703125 C19.2480471,93.2304696 19.265625,93.4023428 19.265625,93.5859375 C19.265625,93.941408 19.2099615,94.2636704 19.0986328,94.5527344 C18.9873041,94.8417983 18.836915,95.0839834 18.6474609,95.2792969 C18.4580069,95.4746104 18.2314466,95.6386712 17.9677734,95.7714844 C17.7041002,95.9042975 17.4248062,95.9999997 17.1298828,96.0585938 C16.8349595,96.1171878 16.5234391,96.1464844 16.1953125,96.1464844 C15.2617141,96.1464844 14.5273464,95.9462911 13.9921875,95.5458984 C13.4570286,95.1455058 13.1347662,94.50977 13.0253906,93.6386719 L14.0800781,93.4804688 C14.1386722,93.7382825 14.2109371,93.9609366 14.296875,94.1484375 C14.3828129,94.3359384 14.5029289,94.5146476 14.6572266,94.6845703 C14.8115242,94.854493 15.0185534,94.9843746 15.2783203,95.0742188 C15.5380872,95.1640629 15.8476545,95.2089844 16.2070312,95.2089844 C16.4609388,95.2089844 16.6953114,95.1855471 16.9101562,95.1386719 C17.1250011,95.0917966 17.328124,95.0166021 17.5195312,94.9130859 C17.7109385,94.8095698 17.8623041,94.6582041 17.9736328,94.4589844 C18.0849615,94.2597646 18.140625,94.0214858 18.140625,93.7441406 C18.140625,93.5957024 18.1201174,93.4570319 18.0791016,93.328125 C18.0380857,93.1992181 17.987305,93.0878911 17.9267578,92.9941406 C17.8662106,92.9003902 17.7792974,92.8115239 17.6660156,92.7275391 C17.5527338,92.6435543 17.4482427,92.574219 17.3525391,92.5195312 C17.2568355,92.4648435 17.1269539,92.4072269 16.9628906,92.3466797 C16.7988273,92.2861325 16.6611334,92.239258 16.5498047,92.2060547 C16.438476,92.1728514 16.2871103,92.1289065 16.0957031,92.0742188 C15.412106,91.8828115 14.9257827,91.7148445 14.6367187,91.5703125 C13.9804655,91.2343733 13.5898444,90.746097 13.4648437,90.1054688 C13.4296873,89.9335929 13.4121094,89.750001 13.4121094,89.5546875 C13.4121094,88.8242151 13.6855441,88.2421897 14.2324219,87.8085938 C14.7792996,87.3749978 15.4804645,87.1582031 16.3359375,87.1582031 C16.734377,87.1582031 17.0908187,87.1992183 17.4052734,87.28125 C17.7197281,87.3632817 18.0058581,87.4960928 18.2636719,87.6796875 C18.5214857,87.8632822 18.7304679,88.1162093 18.890625,88.4384766 C19.0507821,88.7607438 19.1523435,89.1484352 19.1953125,89.6015625 L18.1640625,89.7246094 C18.1328123,89.5410147 18.0957033,89.3779304 18.0527344,89.2353516 C18.0097654,89.0927727 17.9433598,88.9462898 17.8535156,88.7958984 C17.7636714,88.6455071 17.6552741,88.5214849 17.5283203,88.4238281 C17.4013666,88.3261714 17.2373057,88.2460941 17.0361328,88.1835938 C16.8349599,88.1210934 16.60547,88.0898438 16.3476562,88.0898438 Z M23.9765625,94.9453125 L24.1699219,95.7363281 C24.0097648,95.8457037 23.7861342,95.9414058 23.4990234,96.0234375 C23.2119126,96.1054692 22.931642,96.1464844 22.6582031,96.1464844 C22.0722627,96.1464844 21.6357436,96.0048842 21.3486328,95.7216797 C21.061522,95.4384751 20.9179687,94.9921905 20.9179687,94.3828125 L20.9179687,90.7089844 L19.96875,90.7089844 L19.96875,89.8300781 L20.9179687,89.8300781 L20.9179687,88.0429688 L22.0078125,87.8789062 L22.0078125,89.8300781 L23.7128906,89.8300781 L23.7128906,90.7089844 L22.0078125,90.7089844 L22.0078125,94.2363281 C22.0078125,94.5878924 22.0683588,94.8437492 22.1894531,95.0039062 C22.3105475,95.1640633 22.5468732,95.2441406 22.8984375,95.2441406 C23.2578143,95.2441406 23.6171857,95.1445322 23.9765625,94.9453125 Z M26.5722656,96.0703125 L24.2753906,89.8300781 L25.4882812,89.8300781 L27.1230469,94.7285156 L27.1347656,94.7285156 L28.828125,89.8300781 L29.9414062,89.8300781 L27.2753906,96.9023438 C27.0292956,97.5507845 26.7519547,98.0087877 26.4433594,98.2763672 C26.1347641,98.5439467 25.7363306,98.6777344 25.2480469,98.6777344 C24.8066384,98.6777344 24.4121111,98.6015633 24.0644531,98.4492188 L24.1933594,97.59375 C24.5527362,97.7226569 24.8808579,97.7871094 25.1777344,97.7871094 C25.4160168,97.7871094 25.6269522,97.7138679 25.8105469,97.5673828 C25.9941415,97.4208977 26.15039,97.1738299 26.2792969,96.8261719 L26.5722656,96.0703125 Z M32.0625,86.9414062 L32.0625,96 L30.9726562,96 L30.9726562,86.9414062 L32.0625,86.9414062 Z M36.4160156,96.1464844 C35.9902322,96.1464844 35.6123063,96.0888678 35.2822266,95.9736328 C34.9521468,95.8583979 34.6806651,95.7021494 34.4677734,95.5048828 C34.2548817,95.3076162 34.0800788,95.0693373 33.9433594,94.7900391 C33.8066399,94.5107408 33.7099612,94.2197281 33.6533203,93.9169922 C33.5966794,93.6142563 33.5683594,93.285158 33.5683594,92.9296875 C33.5683594,92.488279 33.6191401,92.0878924 33.7207031,91.7285156 C33.8222661,91.3691388 33.9609366,91.0654309 34.1367187,90.8173828 C34.3125009,90.5693347 34.5234363,90.3603524 34.7695312,90.1904297 C35.0156262,90.020507 35.2812486,89.8964848 35.5664062,89.8183594 C35.8515639,89.740234 36.1542953,89.7011719 36.4746094,89.7011719 C36.8964865,89.7011719 37.2666,89.7675775 37.5849609,89.9003906 C37.9033219,90.0332038 38.1582022,90.2207019 38.3496094,90.4628906 C38.5410166,90.7050793 38.6845698,90.9843734 38.7802734,91.3007812 C38.875977,91.6171891 38.9238281,91.9707012 38.9238281,92.3613281 C38.9238281,92.6464858 38.9082033,92.9160144 38.8769531,93.1699219 L34.7226562,93.1699219 C34.7460939,93.9121131 34.9072251,94.4414047 35.2060547,94.7578125 C35.5048843,95.0742203 35.9199192,95.2324219 36.4511719,95.2324219 C36.8769553,95.2324219 37.2031239,95.1416025 37.4296875,94.9599609 C37.6562511,94.7783194 37.8144527,94.5058612 37.9042969,94.1425781 L38.8652344,94.3535156 C38.74414,94.9394561 38.4648459,95.3847641 38.0273437,95.6894531 C37.5898416,95.9941421 37.0527376,96.1464844 36.4160156,96.1464844 Z M34.734375,92.3027344 L37.7929688,92.3027344 C37.7929688,91.1581974 37.3300828,90.5859375 36.4042969,90.5859375 C36.1933583,90.5859375 35.9941416,90.6191403 35.8066406,90.6855469 C35.6191397,90.7519535 35.4462899,90.8515618 35.2880859,90.984375 C35.129882,91.1171882 35.0019536,91.2958973 34.9042969,91.5205078 C34.8066401,91.7451183 34.7500001,92.0058579 34.734375,92.3027344 Z M42.4863281,89.7011719 C43.1855504,89.7011719 43.7109357,89.8544907 44.0625,90.1611328 C44.4140643,90.467775 44.6406245,90.9101534 44.7421875,91.4882812 L43.7578125,91.7050781 C43.7187498,91.5097646 43.6728518,91.3486334 43.6201172,91.2216797 C43.5673825,91.0947259 43.4941411,90.9775396 43.4003906,90.8701172 C43.3066402,90.7626948 43.1835945,90.6845706 43.03125,90.6357422 C42.8789055,90.5869138 42.6933605,90.5625 42.4746094,90.5625 C42.0527323,90.5625 41.7490244,90.6425773 41.5634766,90.8027344 C41.3779288,90.9628914 41.2851562,91.1718737 41.2851562,91.4296875 C41.2851562,91.5546881 41.3066404,91.6650386 41.3496094,91.7607422 C41.3925783,91.8564458 41.4482418,91.9374997 41.5166016,92.0039062 C41.5849613,92.0703128 41.68164,92.1298825 41.8066406,92.1826172 C41.9316412,92.2353518 42.05664,92.2792967 42.1816406,92.3144531 C42.3066412,92.3496096 42.4648428,92.3867186 42.65625,92.4257812 C42.8242196,92.4609377 42.9501949,92.4882812 43.0341797,92.5078125 C43.1181645,92.5273438 43.2353508,92.5566404 43.3857422,92.5957031 C43.5361336,92.6347658 43.6513668,92.6708983 43.7314453,92.7041016 C43.8115238,92.7373049 43.9121088,92.7822263 44.0332031,92.8388672 C44.1542975,92.8955081 44.24707,92.9531247 44.3115234,93.0117188 C44.3759769,93.0703128 44.4482418,93.1435542 44.5283203,93.2314453 C44.6083988,93.3193364 44.6679686,93.4121089 44.7070312,93.5097656 C44.7460939,93.6074224 44.7792967,93.7207025 44.8066406,93.8496094 C44.8339845,93.9785163 44.8476562,94.1191399 44.8476562,94.2714844 C44.8476562,94.8574248 44.6337912,95.3164046 44.2060547,95.6484375 C43.7783182,95.9804704 43.1894569,96.1464844 42.4394531,96.1464844 C40.9863209,96.1464844 40.1660166,95.5488341 39.9785156,94.3535156 L40.9511719,94.0898438 C40.9980471,94.2773447 41.0517575,94.4345697 41.1123047,94.5615234 C41.1728519,94.6884772 41.2587885,94.8105463 41.3701172,94.9277344 C41.4814459,95.0449225 41.6298819,95.1328122 41.8154297,95.1914062 C42.0009775,95.2500003 42.2246081,95.2792969 42.4863281,95.2792969 C43.3418012,95.2792969 43.7695312,94.9843779 43.7695312,94.3945312 C43.7695312,94.2812494 43.7578126,94.1816411 43.734375,94.0957031 C43.7109374,94.0097652 43.6679691,93.9355472 43.6054687,93.8730469 C43.5429684,93.8105466 43.4804691,93.7578127 43.4179687,93.7148438 C43.3554684,93.6718748 43.2636725,93.6318361 43.1425781,93.5947266 C43.0214838,93.557617 42.9150395,93.5283204 42.8232422,93.5068359 C42.7314449,93.4853515 42.5996102,93.4570314 42.4277344,93.421875 C41.8378877,93.3007806 41.4218762,93.1855474 41.1796875,93.0761719 C40.5742157,92.8066393 40.2519533,92.3476595 40.2128906,91.6992188 C40.2089844,91.6523435 40.2070312,91.605469 40.2070312,91.5585938 C40.2070312,91.156248 40.3115224,90.8125014 40.5205078,90.5273438 C40.7294932,90.2421861 41.002928,90.0332038 41.3408203,89.9003906 C41.6787126,89.7675775 42.0605447,89.7011719 42.4863281,89.7011719 Z M51,86.9414062 L51.1933594,88.59375 L52.7285156,88.2128906 L52.8867188,88.7285156 L51.4570312,89.4492188 L52.40625,90.890625 L51.9960938,91.2128906 L50.7246094,90.0117188 L49.4648438,91.2480469 L49.0605469,90.9023438 L49.9921875,89.4492188 L48.5390625,88.7402344 L48.7089844,88.2246094 L50.2675781,88.59375 L50.4960938,86.9414062 L51,86.9414062 Z M54.6445312,97.1015625 L53.6484375,97.1015625 L57.0234375,86.9414062 L58.0078125,86.9414062 L54.6445312,97.1015625 Z M3.4921875,115.988281 L0.240234375,115.988281 L0.240234375,114.945312 L3.4921875,114.945312 L3.4921875,115.988281 Z M9.84960937,115.988281 L6.59765625,115.988281 L6.59765625,114.945312 L9.84960937,114.945312 L9.84960937,115.988281 Z M16.1484375,119.146484 C15.7226541,119.146484 15.3447282,119.088868 15.0146484,118.973633 C14.6845687,118.858398 14.413087,118.702149 14.2001953,118.504883 C13.9873036,118.307616 13.8125007,118.069337 13.6757812,117.790039 C13.5390618,117.510741 13.4423831,117.219728 13.3857422,116.916992 C13.3291013,116.614256 13.3007812,116.285158 13.3007812,115.929688 C13.3007812,115.488279 13.351562,115.087892 13.453125,114.728516 C13.554688,114.369139 13.6933585,114.065431 13.8691406,113.817383 C14.0449228,113.569335 14.2558581,113.360352 14.5019531,113.19043 C14.7480481,113.020507 15.0136704,112.896485 15.2988281,112.818359 C15.5839858,112.740234 15.8867171,112.701172 16.2070312,112.701172 C16.6289084,112.701172 16.9990218,112.767577 17.3173828,112.900391 C17.6357438,113.033204 17.890624,113.220702 18.0820312,113.462891 C18.2734385,113.705079 18.4169917,113.984373 18.5126953,114.300781 C18.6083989,114.617189 18.65625,114.970701 18.65625,115.361328 C18.65625,115.646486 18.6406252,115.916014 18.609375,116.169922 L14.4550781,116.169922 C14.4785157,116.912113 14.6396469,117.441405 14.9384766,117.757812 C15.2373062,118.07422 15.6523411,118.232422 16.1835938,118.232422 C16.6093771,118.232422 16.9355457,118.141602 17.1621094,117.959961 C17.388673,117.778319 17.5468746,117.505861 17.6367188,117.142578 L18.5976562,117.353516 C18.4765619,117.939456 18.1972678,118.384764 17.7597656,118.689453 C17.3222634,118.994142 16.7851594,119.146484 16.1484375,119.146484 Z M14.4667969,115.302734 L17.5253906,115.302734 C17.5253906,114.158197 17.0625046,113.585938 16.1367188,113.585938 C15.9257802,113.585938 15.7265634,113.61914 15.5390625,113.685547 C15.3515616,113.751953 15.1787117,113.851562 15.0205078,113.984375 C14.8623039,114.117188 14.7343755,114.295897 14.6367188,114.520508 C14.539062,114.745118 14.482422,115.005858 14.4667969,115.302734 Z M24.5566406,114.822266 L24.5566406,117.833984 C24.5566406,118.009767 24.5810544,118.133789 24.6298828,118.206055 C24.6787112,118.278321 24.777343,118.314453 24.9257812,118.314453 C25.0156254,118.314453 25.1406242,118.291016 25.3007812,118.244141 L25.3476562,118.929688 C25.0898425,119.054688 24.8066422,119.117188 24.4980469,119.117188 C24.2089829,119.117188 23.9863289,119.049805 23.8300781,118.915039 C23.6738273,118.780273 23.5800783,118.60547 23.5488281,118.390625 C23.0449194,118.894534 22.3847697,119.146484 21.5683594,119.146484 C21.2714829,119.146484 21.0097668,119.107422 20.7832031,119.029297 C20.5566395,118.951171 20.3798834,118.854493 20.2529297,118.739258 C20.1259759,118.624023 20.0224613,118.487305 19.9423828,118.329102 C19.8623043,118.170898 19.8095704,118.025391 19.7841797,117.892578 C19.7587889,117.759765 19.7460938,117.625001 19.7460938,117.488281 C19.7460938,116.089837 20.8085831,115.390625 22.9335938,115.390625 C23.0703132,115.390625 23.251952,115.398437 23.4785156,115.414062 L23.4785156,114.810547 C23.4785156,114.384763 23.392579,114.06836 23.2207031,113.861328 C23.0488273,113.654296 22.7265649,113.550781 22.2539062,113.550781 C21.8437479,113.550781 21.54004,113.631835 21.3427734,113.793945 C21.1455068,113.956055 21.0117191,114.214842 20.9414062,114.570312 L19.9863281,114.394531 C20.0839849,113.816403 20.3232403,113.38965 20.7041016,113.114258 C21.0849628,112.838866 21.6328089,112.701172 22.3476562,112.701172 C23.1210976,112.701172 23.6826154,112.865233 24.0322266,113.193359 C24.3818377,113.521486 24.5566406,114.064449 24.5566406,114.822266 Z M23.4902344,117.59375 L23.4902344,116.205078 C23.3183585,116.181641 23.1093762,116.169922 22.8632812,116.169922 C22.656249,116.169922 22.4755867,116.174805 22.3212891,116.18457 C22.1669914,116.194336 21.993165,116.221679 21.7998047,116.266602 C21.6064443,116.311524 21.4472662,116.373046 21.3222656,116.451172 C21.197265,116.529297 21.0908208,116.640624 21.0029297,116.785156 C20.9150386,116.929688 20.8710938,117.103515 20.8710938,117.306641 C20.8710938,117.607423 20.9462883,117.846679 21.0966797,118.024414 C21.2470711,118.202149 21.5156231,118.291016 21.9023438,118.291016 C22.2031265,118.291016 22.4980454,118.223633 22.7871094,118.088867 C23.0761733,117.954101 23.310546,117.789063 23.4902344,117.59375 Z M28.8632812,115.988281 L25.6113281,115.988281 L25.6113281,114.945312 L28.8632812,114.945312 L28.8632812,115.988281 Z M32.5839844,119.146484 C32.0878881,119.146484 31.6552753,119.069337 31.2861328,118.915039 C30.9169903,118.760741 30.6210949,118.54004 30.3984375,118.25293 C30.1757801,117.965819 30.0117193,117.632814 29.90625,117.253906 C29.8007807,116.874998 29.7480469,116.449221 29.7480469,115.976562 C29.7480469,114.914057 30.0068333,114.102542 30.5244141,113.541992 C31.0419948,112.981443 31.7675735,112.701172 32.7011719,112.701172 C33.4082067,112.701172 33.9716776,112.883787 34.3916016,113.249023 C34.8115255,113.61426 35.0410154,114.146481 35.0800781,114.845703 L34.03125,114.992188 C33.9843748,114.527341 33.8496105,114.180665 33.6269531,113.952148 C33.4042958,113.723632 33.0800803,113.609375 32.6542969,113.609375 C32.4160144,113.609375 32.1972666,113.644531 31.9980469,113.714844 C31.7988271,113.785157 31.6132821,113.901366 31.4414062,114.063477 C31.2695304,114.225587 31.1347661,114.45703 31.0371094,114.757812 C30.9394526,115.058595 30.890625,115.41992 30.890625,115.841797 C30.890625,116.287112 30.9335933,116.667967 31.0195312,116.984375 C31.1054692,117.300783 31.2285148,117.547851 31.3886719,117.725586 C31.5488289,117.903321 31.7294912,118.032226 31.9306641,118.112305 C32.1318369,118.192383 32.3613268,118.232422 32.6191406,118.232422 C33.4902387,118.232422 34.0019524,117.792973 34.1542969,116.914062 L35.1152344,117.113281 C35.0175776,117.792972 34.7363304,118.301756 34.2714844,118.639648 C33.8066383,118.977541 33.2441439,119.146484 32.5839844,119.146484 Z M39.046875,119.146484 C38.6289042,119.146484 38.2568376,119.092774 37.9306641,118.985352 C37.6044906,118.877929 37.3339854,118.73047 37.1191406,118.542969 C36.9042958,118.355468 36.7275398,118.125978 36.5888672,117.854492 C36.4501946,117.583006 36.3505862,117.290041 36.2900391,116.975586 C36.2294919,116.661131 36.1992187,116.316408 36.1992187,115.941406 C36.1992187,114.929682 36.4570287,114.136722 36.9726562,113.5625 C37.4882838,112.988278 38.2304639,112.701172 39.1992187,112.701172 C39.6796899,112.701172 40.098631,112.77539 40.4560547,112.923828 C40.8134783,113.072266 41.1005849,113.285155 41.3173828,113.5625 C41.5341808,113.839845 41.695312,114.164061 41.8007812,114.535156 C41.9062505,114.906252 41.9589844,115.32617 41.9589844,115.794922 C41.9589844,116.853521 41.7236352,117.676755 41.2529297,118.264648 C40.7822242,118.852542 40.04688,119.146484 39.046875,119.146484 Z M39.1054688,118.267578 C39.6640653,118.267578 40.0898423,118.078127 40.3828125,117.699219 C40.6757827,117.320311 40.8222656,116.708989 40.8222656,115.865234 C40.8222656,115.044918 40.6835951,114.461916 40.40625,114.116211 C40.1289049,113.770506 39.7109403,113.597656 39.1523438,113.597656 C38.5781221,113.597656 38.130861,113.783201 37.8105469,114.154297 C37.4902328,114.525392 37.3300781,115.105465 37.3300781,115.894531 C37.3300781,116.707035 37.4755845,117.305662 37.7666016,117.69043 C38.0576186,118.075197 38.5039032,118.267578 39.1054688,118.267578 Z M44.6074219,109.941406 L44.6074219,119 L43.5175781,119 L43.5175781,109.941406 L44.6074219,109.941406 Z M48.9609375,119.146484 C48.5429667,119.146484 48.1709001,119.092774 47.8447266,118.985352 C47.5185531,118.877929 47.2480479,118.73047 47.0332031,118.542969 C46.8183583,118.355468 46.6416023,118.125978 46.5029297,117.854492 C46.3642571,117.583006 46.2646487,117.290041 46.2041016,116.975586 C46.1435544,116.661131 46.1132812,116.316408 46.1132812,115.941406 C46.1132812,114.929682 46.3710912,114.136722 46.8867187,113.5625 C47.4023463,112.988278 48.1445264,112.701172 49.1132812,112.701172 C49.5937524,112.701172 50.0126935,112.77539 50.3701172,112.923828 C50.7275408,113.072266 51.0146474,113.285155 51.2314453,113.5625 C51.4482433,113.839845 51.6093745,114.164061 51.7148437,114.535156 C51.820313,114.906252 51.8730469,115.32617 51.8730469,115.794922 C51.8730469,116.853521 51.6376977,117.676755 51.1669922,118.264648 C50.6962867,118.852542 49.9609425,119.146484 48.9609375,119.146484 Z M49.0195312,118.267578 C49.5781278,118.267578 50.0039048,118.078127 50.296875,117.699219 C50.5898452,117.320311 50.7363281,116.708989 50.7363281,115.865234 C50.7363281,115.044918 50.5976576,114.461916 50.3203125,114.116211 C50.0429674,113.770506 49.6250028,113.597656 49.0664062,113.597656 C48.4921846,113.597656 48.0449235,113.783201 47.7246094,114.154297 C47.4042953,114.525392 47.2441406,115.105465 47.2441406,115.894531 C47.2441406,116.707035 47.389647,117.305662 47.6806641,117.69043 C47.9716811,118.075197 48.4179657,118.267578 49.0195312,118.267578 Z M56.7070312,112.712891 L56.7070312,113.837891 C56.3320294,113.787109 55.9384786,113.827148 55.5263672,113.958008 C55.1142558,114.088868 54.7792982,114.273436 54.5214844,114.511719 L54.5214844,119 L53.4316406,119 L53.4316406,112.830078 L54.3457031,112.830078 L54.4277344,113.720703 C54.6933607,113.361326 54.9912093,113.101563 55.3212891,112.941406 C55.6513688,112.781249 56.0371072,112.701172 56.4785156,112.701172 C56.5019532,112.701172 56.5400388,112.703125 56.5927734,112.707031 C56.6455081,112.710938 56.6835936,112.712891 56.7070312,112.712891 Z M60.0761719,115.988281 L56.8242187,115.988281 L56.8242187,114.945312 L60.0761719,114.945312 L60.0761719,115.988281 Z M63.8789062,119 L62.8007812,119 L62.8007812,111.810547 C62.6132803,111.919922 62.3154317,112.013671 61.9072266,112.091797 C61.4990214,112.169922 61.1757824,112.208984 60.9375,112.208984 L60.8554687,111.318359 C61.4257841,111.271484 61.9013653,111.169923 62.2822266,111.013672 C62.6630878,110.857421 62.9882799,110.623048 63.2578125,110.310547 L63.8789062,110.310547 L63.8789062,119 Z M67.2890625,117.740234 C67.4296882,117.876954 67.5,118.076171 67.5,118.337891 C67.5,118.599611 67.4296882,118.799804 67.2890625,118.938477 C67.1484368,119.077149 66.9453138,119.146484 66.6796875,119.146484 C66.136716,119.146484 65.8652344,118.876956 65.8652344,118.337891 C65.8652344,118.076171 65.9345696,117.876954 66.0732422,117.740234 C66.2119148,117.603515 66.4140612,117.535156 66.6796875,117.535156 C66.9453138,117.535156 67.1484368,117.603515 67.2890625,117.740234 Z M67.2890625,113.193359 C67.4296882,113.330079 67.5,113.529296 67.5,113.791016 C67.5,114.052736 67.4296882,114.251952 67.2890625,114.388672 C67.1484368,114.525391 66.9453138,114.59375 66.6796875,114.59375 C66.136716,114.59375 65.8652344,114.326175 65.8652344,113.791016 C65.8652344,113.529296 65.9345696,113.330079 66.0732422,113.193359 C66.2119148,113.05664 66.4140612,112.988281 66.6796875,112.988281 C66.9453138,112.988281 67.1484368,113.05664 67.2890625,113.193359 Z M75.3164062,119 L74.4492187,119 L74.7128906,117.271484 L73.265625,117.271484 L73.0019531,119 L72.1347656,119 L72.3867187,117.271484 L71.0097656,117.271484 L71.1972656,116.445312 L72.5214844,116.445312 L72.796875,114.705078 L71.4140625,114.705078 L71.5839844,113.861328 L72.9140625,113.861328 L73.1425781,112.291016 L74.0214844,112.291016 L73.78125,113.861328 L75.2050781,113.861328 L75.4335937,112.291016 L76.3125,112.291016 L76.0722656,113.861328 L77.4492187,113.861328 L77.296875,114.705078 L75.9492187,114.705078 L75.6972656,116.445312 L77.0683594,116.445312 L76.8984375,117.271484 L75.5800781,117.271484 L75.3164062,119 Z M74.8359375,116.445312 L75.0878906,114.705078 L73.6582031,114.705078 L73.3828125,116.445312 L74.8359375,116.445312 Z M81.0878906,110.158203 C81.8300818,110.158203 82.4111307,110.337889 82.8310547,110.697266 C83.2509787,111.056642 83.4609375,111.5957 83.4609375,112.314453 C83.4609375,112.634767 83.4228519,112.938475 83.3466797,113.225586 C83.2705074,113.512697 83.1416025,113.808592 82.9599609,114.113281 C82.7783194,114.41797 82.5888682,114.700194 82.3916016,114.959961 C82.194335,115.219728 81.9238298,115.550779 81.5800781,115.953125 L79.8164062,118.015625 L79.8164062,118.039062 L83.5839844,118.039062 L83.5839844,119 L78.5449219,119 L78.5449219,118.085938 L80.5839844,115.630859 C80.8652358,115.291014 81.0839836,115.023438 81.2402344,114.828125 C81.3964852,114.632812 81.5566398,114.416017 81.7207031,114.177734 C81.8847664,113.939452 82.005859,113.733399 82.0839844,113.55957 C82.1621098,113.385741 82.2255857,113.197267 82.2744141,112.994141 C82.3232424,112.791015 82.3476562,112.580079 82.3476562,112.361328 C82.3476562,111.505855 81.8906296,111.078125 80.9765625,111.078125 C80.7578114,111.078125 80.5654305,111.102539 80.3994141,111.151367 C80.2333976,111.200196 80.0976568,111.264648 79.9921875,111.344727 C79.8867182,111.424805 79.7958988,111.530273 79.7197266,111.661133 C79.6435543,111.791993 79.5859377,111.922851 79.546875,112.053711 C79.5078123,112.184571 79.4726564,112.343749 79.4414062,112.53125 L78.4453125,112.349609 C78.554688,111.591793 78.8398414,111.037111 79.3007812,110.685547 C79.7617211,110.333983 80.3574182,110.158203 81.0878906,110.158203 Z M89.0039062,119 L87.9492187,119 L87.9492187,116.861328 L83.9414062,116.861328 L83.9414062,116.046875 L87.6503906,110.310547 L89.015625,110.310547 L89.015625,115.929688 L90.0351562,115.929688 L90.0351562,116.861328 L89.0039062,116.861328 L89.0039062,119 Z M85.0195312,115.929688 L87.9609375,115.929688 L87.9609375,111.394531 L85.0195312,115.929688 Z M93.515625,110.158203 C94.2578162,110.158203 94.8388651,110.337889 95.2587891,110.697266 C95.678713,111.056642 95.8886719,111.5957 95.8886719,112.314453 C95.8886719,112.634767 95.8505863,112.938475 95.7744141,113.225586 C95.6982418,113.512697 95.5693368,113.808592 95.3876953,114.113281 C95.2060538,114.41797 95.0166025,114.700194 94.8193359,114.959961 C94.6220693,115.219728 94.3515642,115.550779 94.0078125,115.953125 L92.2441406,118.015625 L92.2441406,118.039062 L96.0117187,118.039062 L96.0117187,119 L90.9726562,119 L90.9726562,118.085938 L93.0117187,115.630859 C93.2929702,115.291014 93.511718,115.023438 93.6679687,114.828125 C93.8242195,114.632812 93.9843742,114.416017 94.1484375,114.177734 C94.3125008,113.939452 94.4335934,113.733399 94.5117187,113.55957 C94.5898441,113.385741 94.6533201,113.197267 94.7021484,112.994141 C94.7509768,112.791015 94.7753906,112.580079 94.7753906,112.361328 C94.7753906,111.505855 94.3183639,111.078125 93.4042969,111.078125 C93.1855458,111.078125 92.9931649,111.102539 92.8271484,111.151367 C92.661132,111.200196 92.5253912,111.264648 92.4199219,111.344727 C92.3144526,111.424805 92.2236332,111.530273 92.1474609,111.661133 C92.0712887,111.791993 92.0136721,111.922851 91.9746094,112.053711 C91.9355467,112.184571 91.9003908,112.343749 91.8691406,112.53125 L90.8730469,112.349609 C90.9824224,111.591793 91.2675758,111.037111 91.7285156,110.685547 C92.1894554,110.333983 92.7851526,110.158203 93.515625,110.158203 Z M100.089844,119 L99.0117187,119 L99.0117187,111.810547 C98.8242178,111.919922 98.5263692,112.013671 98.1181641,112.091797 C97.7099589,112.169922 97.3867199,112.208984 97.1484375,112.208984 L97.0664062,111.318359 C97.6367216,111.271484 98.1123028,111.169923 98.4931641,111.013672 C98.8740253,110.857421 99.1992174,110.623048 99.46875,110.310547 L100.089844,110.310547 L100.089844,119 Z M106.804687,119 L105.75,119 L105.75,116.861328 L101.742187,116.861328 L101.742187,116.046875 L105.451172,110.310547 L106.816406,110.310547 L106.816406,115.929688 L107.835937,115.929688 L107.835937,116.861328 L106.804687,116.861328 L106.804687,119 Z M102.820312,115.929688 L105.761719,115.929688 L105.761719,111.394531 L102.820312,115.929688 Z M113.4375,119 L112.382812,119 L112.382812,116.861328 L108.375,116.861328 L108.375,116.046875 L112.083984,110.310547 L113.449219,110.310547 L113.449219,115.929688 L114.46875,115.929688 L114.46875,116.861328 L113.4375,116.861328 L113.4375,119 Z M109.453125,115.929688 L112.394531,115.929688 L112.394531,111.394531 L109.453125,115.929688 Z M114.802734,120.441406 L115.476562,117.728516 L116.689453,117.728516 L115.681641,120.546875 L114.802734,120.441406 Z M116.847656,113.193359 C116.988282,113.330079 117.058594,113.529296 117.058594,113.791016 C117.058594,114.052736 116.989259,114.251952 116.850586,114.388672 C116.711913,114.525391 116.509767,114.59375 116.244141,114.59375 C115.701169,114.59375 115.429687,114.326175 115.429687,113.791016 C115.429687,113.529296 115.499023,113.330079 115.637695,113.193359 C115.776368,113.05664 115.978514,112.988281 116.244141,112.988281 C116.509767,112.988281 116.710937,113.05664 116.847656,113.193359 Z" id="/*-Styles-*/-----ea-"></path>
                </g>
            </g>
        </g>
    </g>
</svg>
