
<svg width="100%" height="100%" viewBox="0 0 1074 694" version="1.1" xmlns="http://www.w3.org/2000/svg" xmlns:xlink="http://www.w3.org/1999/xlink">
    <!-- Generator: Sketch 49.3 (51167) - http://www.bohemiancoding.com/sketch -->
    <desc>Created with Sketch.</desc>
    <defs>
        <rect id="path-1" x="0" y="62" width="193" height="632"></rect>
        <rect id="path-2" x="159" y="129" width="16" height="492" rx="8"></rect>
        <rect id="path-3" x="1025" y="129" width="16" height="525" rx="8"></rect>
    </defs>
    <g id="Page-1" stroke="none" stroke-width="1" fill="none" fill-rule="evenodd">
        <g id="Artboard">
            <g id="Group-2">
                <rect id="Rectangle-3" fill="#D8D8D8" x="259" y="157" width="697" height="346"></rect>
                <rect id="Rectangle" fill="#D8D8D8" x="0" y="0" width="1075" height="62"></rect>
                <g id="Rectangle">
                    <use fill="#9A9A9A" fill-rule="evenodd" xlink:href="#path-1"></use>
                    <rect stroke="#979797" stroke-width="1" x="0.5" y="62.5" width="192" height="631"></rect>
                </g>
                <path d="M22.613918,104.572896 L28.2114433,106.54676 L28.2114433,109.296421 L19.7562341,105.712041 L19.7562341,103.394469 L28.2114433,99.8100891 L28.2114433,102.559751 L22.613918,104.572896 Z M35.439125,110.838196 C33.8809757,110.838196 32.6125433,110.360283 31.6337898,109.404444 C30.6550364,108.448604 30.165667,107.175262 30.165667,105.584378 L30.165667,105.309412 C30.165667,104.242276 30.3718895,103.288088 30.7843408,102.446818 C31.1967921,101.605548 31.7810893,100.95742 32.5372501,100.502415 C33.2934108,100.047409 34.1559448,99.8199093 35.124878,99.8199093 C36.5782777,99.8199093 37.7223219,100.278182 38.5570448,101.19474 C39.3917676,102.111298 39.8091228,103.410828 39.8091228,105.093367 L39.8091228,106.252153 L33.0429914,106.252153 C33.1346472,106.946119 33.4112473,107.502592 33.8727999,107.921591 C34.3343526,108.340589 34.9186498,108.550085 35.6257092,108.550085 C36.7190324,108.550085 37.573383,108.154006 38.1887865,107.361838 L39.5832577,108.923253 C39.1577127,109.525563 38.5815989,109.995292 37.854899,110.332455 C37.1281991,110.669617 36.3229492,110.838196 35.439125,110.838196 Z M35.1150577,102.117841 C34.552029,102.117841 34.0953933,102.307696 33.7451371,102.687413 C33.3948808,103.067131 33.1706547,103.610511 33.072452,104.31757 L37.0201804,104.31757 L37.0201804,104.091705 C37.0070867,103.463208 36.8368712,102.977112 36.5095289,102.633402 C36.1821866,102.289693 35.7173676,102.117841 35.1150577,102.117841 Z M47.5769166,110.641791 C47.4459797,110.386464 47.3510518,110.068947 47.2921302,109.68923 C46.6047114,110.455211 45.7110803,110.838196 44.6112102,110.838196 C43.5702617,110.838196 42.7077277,110.537045 42.0235823,109.934736 C41.3394369,109.332426 40.9973694,108.573003 40.9973694,107.656445 C40.9973694,106.530387 41.4147245,105.666216 42.2494474,105.063907 C43.0841702,104.461597 44.2904085,104.157173 45.8681984,104.150626 L47.1742876,104.150626 L47.1742876,103.541773 C47.1742876,103.050759 47.0482627,102.657954 46.7962091,102.363346 C46.5441556,102.068738 46.1464406,101.921436 45.6030524,101.921436 C45.1251327,101.921436 44.7503314,102.036004 44.4786373,102.265144 C44.2069432,102.494284 44.0710981,102.808528 44.0710981,103.207885 L41.2330546,103.207885 C41.2330546,102.592482 41.4229103,102.022915 41.8026274,101.499167 C42.1823444,100.975419 42.7191778,100.564611 43.4131434,100.266729 C44.1071091,99.9688478 44.8861721,99.8199093 45.7503557,99.8199093 C47.0597249,99.8199093 48.0990211,100.148883 48.8682755,100.806841 C49.6375299,101.464799 50.0221513,102.389528 50.0221513,103.581053 L50.0221513,108.186737 C50.0286982,109.194951 50.1694532,109.957647 50.4444208,110.474848 L50.4444208,110.641791 L47.5769166,110.641791 Z M45.2298841,108.667927 C45.6488822,108.667927 46.0351403,108.574636 46.38867,108.388051 C46.7421997,108.201466 47.0040696,107.951053 47.1742876,107.636804 L47.1742876,105.810243 L46.1137038,105.810243 C44.6930383,105.810243 43.9368889,106.301249 43.8452331,107.283276 L43.8354129,107.45022 C43.8354129,107.80375 43.9598011,108.09508 44.2085812,108.32422 C44.4573614,108.553359 44.7977922,108.667927 45.2298841,108.667927 Z M57.7212036,105.66294 L52.1924199,105.66294 L52.1924199,103.374829 L57.7212036,103.374829 L57.7212036,105.66294 Z M59.5575847,105.250491 C59.5575847,103.594139 59.9291126,102.274969 60.6721796,101.292942 C61.4152466,100.310915 62.4316292,99.8199093 63.7213579,99.8199093 C64.7557595,99.8199093 65.6101101,100.206167 66.2844352,100.978695 L66.2844352,95.5579339 L69.1322989,95.5579339 L69.1322989,110.641791 L66.5692216,110.641791 L66.4317385,109.512466 C65.7246791,110.39629 64.8146812,110.838196 63.7017174,110.838196 C62.4512698,110.838196 61.4479808,110.345553 60.6918201,109.360253 C59.9356594,108.374952 59.5575847,107.005046 59.5575847,105.250491 Z M62.3956282,105.456715 C62.3956282,106.451836 62.569117,107.214532 62.9160998,107.744827 C63.2630827,108.275121 63.7671822,108.540264 64.4284137,108.540264 C65.305691,108.540264 65.9243587,108.170373 66.2844352,107.43058 L66.2844352,103.237346 C65.9309055,102.497552 65.3187846,102.127661 64.4480541,102.127661 C63.0797633,102.127661 62.3956282,103.237335 62.3956282,105.456715 Z M77.3027218,102.677593 C76.9164579,102.625218 76.576027,102.599031 76.2814189,102.599031 C75.2077362,102.599031 74.5039608,102.962376 74.1700717,103.689076 L74.1700717,110.641791 L71.3320282,110.641791 L71.3320282,100.016314 L74.0129481,100.016314 L74.0915099,101.283122 C74.6610855,100.307642 75.4499686,99.8199093 76.4581829,99.8199093 C76.7724315,99.8199093 77.0670351,99.8624632 77.3420026,99.9475722 L77.3027218,102.677593 Z M84.8250101,110.641791 C84.6940732,110.386464 84.5991453,110.068947 84.5402237,109.68923 C83.8528049,110.455211 82.9591738,110.838196 81.8593037,110.838196 C80.8183552,110.838196 79.9558212,110.537045 79.2716758,109.934736 C78.5875304,109.332426 78.2454629,108.573003 78.2454629,107.656445 C78.2454629,106.530387 78.662818,105.666216 79.4975409,105.063907 C80.3322637,104.461597 81.538502,104.157173 83.1162918,104.150626 L84.4223811,104.150626 L84.4223811,103.541773 C84.4223811,103.050759 84.2963562,102.657954 84.0443026,102.363346 C83.792249,102.068738 83.3945341,101.921436 82.8511459,101.921436 C82.3732262,101.921436 81.9984249,102.036004 81.7267308,102.265144 C81.4550366,102.494284 81.3191916,102.808528 81.3191916,103.207885 L78.4811481,103.207885 C78.4811481,102.592482 78.6710038,102.022915 79.0507209,101.499167 C79.4304379,100.975419 79.9672712,100.564611 80.6612369,100.266729 C81.3552026,99.9688478 82.1342656,99.8199093 82.9984492,99.8199093 C84.3078184,99.8199093 85.3471146,100.148883 86.116369,100.806841 C86.8856234,101.464799 87.2702448,102.389528 87.2702448,103.581053 L87.2702448,108.186737 C87.2767916,109.194951 87.4175467,109.957647 87.6925142,110.474848 L87.6925142,110.641791 L84.8250101,110.641791 Z M82.4779776,108.667927 C82.8969757,108.667927 83.2832338,108.574636 83.6367635,108.388051 C83.9902932,108.201466 84.2521631,107.951053 84.4223811,107.636804 L84.4223811,105.810243 L83.3617973,105.810243 C81.9411318,105.810243 81.1849824,106.301249 81.0933266,107.283276 L81.0835064,107.45022 C81.0835064,107.80375 81.2078946,108.09508 81.4566747,108.32422 C81.7054549,108.553359 82.0458857,108.667927 82.4779776,108.667927 Z M98.6911604,106.782445 L100.085632,100.016314 L102.825473,100.016314 L100.115092,110.641791 L97.738599,110.641791 L95.725454,103.954222 L93.712309,110.641791 L91.345636,110.641791 L88.6352553,100.016314 L91.3750967,100.016314 L92.7597476,106.772625 L94.7041511,100.016314 L96.7565771,100.016314 L98.6911604,106.782445 Z M109.120234,110.838196 C107.562084,110.838196 106.293652,110.360283 105.314899,109.404444 C104.336145,108.448604 103.846776,107.175262 103.846776,105.584378 L103.846776,105.309412 C103.846776,104.242276 104.052998,103.288088 104.46545,102.446818 C104.877901,101.605548 105.462198,100.95742 106.218359,100.502415 C106.974519,100.047409 107.837054,99.8199093 108.805987,99.8199093 C110.259386,99.8199093 111.403431,100.278182 112.238154,101.19474 C113.072876,102.111298 113.490232,103.410828 113.490232,105.093367 L113.490232,106.252153 L106.7241,106.252153 C106.815756,106.946119 107.092356,107.502592 107.553909,107.921591 C108.015461,108.340589 108.599759,108.550085 109.306818,108.550085 C110.400141,108.550085 111.254492,108.154006 111.869895,107.361838 L113.264366,108.923253 C112.838821,109.525563 112.262708,109.995292 111.536008,110.332455 C110.809308,110.669617 110.004058,110.838196 109.120234,110.838196 Z M108.796166,102.117841 C108.233138,102.117841 107.776502,102.307696 107.426246,102.687413 C107.07599,103.067131 106.851763,103.610511 106.753561,104.31757 L110.701289,104.31757 L110.701289,104.091705 C110.688195,103.463208 110.51798,102.977112 110.190638,102.633402 C109.863295,102.289693 109.398476,102.117841 108.796166,102.117841 Z M121.071441,102.677593 C120.685177,102.625218 120.344746,102.599031 120.050138,102.599031 C118.976456,102.599031 118.27268,102.962376 117.938791,103.689076 L117.938791,110.641791 L115.100748,110.641791 L115.100748,100.016314 L117.781668,100.016314 L117.860229,101.283122 C118.429805,100.307642 119.218688,99.8199093 120.226902,99.8199093 C120.541151,99.8199093 120.835755,99.8624632 121.110722,99.9475722 L121.071441,102.677593 Z M128.230381,104.543435 L122.524834,102.54993 L122.524834,99.8199093 L131.078245,103.40429 L131.078245,105.712041 L122.524834,109.306242 L122.524834,106.5664 L128.230381,104.543435 Z M18.8576839,667.703577 L24.4552092,669.677441 L24.4552092,672.427102 L16,668.842722 L16,666.52515 L24.4552092,662.94077 L24.4552092,665.690432 L18.8576839,667.703577 Z M27.6860615,675 L25.5747143,675 L30.838352,659.474233 L32.9496993,659.474233 L27.6860615,675 Z M39.195359,673.968877 C37.6372097,673.968877 36.3687773,673.490964 35.3900239,672.535125 C34.4112704,671.579285 33.921901,670.305943 33.921901,668.715059 L33.921901,668.440093 C33.921901,667.372957 34.1281236,666.418769 34.5405749,665.577499 C34.9530262,664.736229 35.5373234,664.088101 36.2934841,663.633096 C37.0496448,663.17809 37.9121788,662.95059 38.881112,662.95059 C40.3345118,662.95059 41.478556,663.408863 42.3132788,664.325421 C43.1480017,665.24198 43.5653568,666.541509 43.5653568,668.224048 L43.5653568,669.382834 L36.7992254,669.382834 C36.8908813,670.0768 37.1674814,670.633274 37.629034,671.052272 C38.0905866,671.47127 38.6748839,671.680766 39.3819432,671.680766 C40.4752665,671.680766 41.3296171,671.284687 41.9450206,670.492519 L43.3394918,672.053934 C42.9139468,672.656244 42.337833,673.125973 41.6111331,673.463136 C40.8844332,673.800298 40.0791832,673.968877 39.195359,673.968877 Z M38.8712918,665.248522 C38.308263,665.248522 37.8516274,665.438377 37.5013711,665.818095 C37.1511149,666.197812 36.9268888,666.741192 36.8286861,667.448251 L40.7764144,667.448251 L40.7764144,667.222386 C40.7633207,666.593889 40.5931053,666.107793 40.265763,665.764083 C39.9384207,665.420374 39.4736016,665.248522 38.8712918,665.248522 Z M51.3331506,673.772473 C51.2022137,673.517146 51.1072859,673.199628 51.0483643,672.819911 C50.3609455,673.585892 49.4673144,673.968877 48.3674443,673.968877 C47.3264958,673.968877 46.4639618,673.667727 45.7798164,673.065417 C45.095671,672.463107 44.7536034,671.703684 44.7536034,670.787126 C44.7536034,669.661068 45.1709586,668.796898 46.0056814,668.194588 C46.8404043,667.592278 48.0466425,667.287854 49.6244324,667.281307 L50.9305216,667.281307 L50.9305216,666.672454 C50.9305216,666.18144 50.8044967,665.788635 50.5524432,665.494027 C50.3003896,665.199419 49.9026747,665.052117 49.3592865,665.052117 C48.8813667,665.052117 48.5065654,665.166685 48.2348713,665.395825 C47.9631772,665.624965 47.8273322,665.939209 47.8273322,666.338566 L44.9892887,666.338566 C44.9892887,665.723163 45.1791444,665.153596 45.5588614,664.629848 C45.9385785,664.1061 46.4754118,663.695292 47.1693775,663.39741 C47.8633431,663.099529 48.6424061,662.95059 49.5065898,662.95059 C50.8159589,662.95059 51.8552551,663.279564 52.6245095,663.937522 C53.3937639,664.59548 53.7783854,665.520209 53.7783854,666.711735 L53.7783854,671.317418 C53.7849322,672.325632 53.9256873,673.088328 54.2006548,673.605529 L54.2006548,673.772473 L51.3331506,673.772473 Z M48.9861181,671.798608 C49.4051163,671.798608 49.7913744,671.705317 50.1449041,671.518732 C50.4984337,671.332147 50.7603036,671.081734 50.9305216,670.767485 L50.9305216,668.940924 L49.8699379,668.940924 C48.4492723,668.940924 47.693123,669.43193 47.6014671,670.413957 L47.5916469,670.580901 C47.5916469,670.934431 47.7160351,671.225761 47.9648153,671.454901 C48.2135954,671.68404 48.5540263,671.798608 48.9861181,671.798608 Z M61.4774376,668.793621 L55.9486539,668.793621 L55.9486539,666.50551 L61.4774376,666.50551 L61.4774376,668.793621 Z M63.3138187,668.381172 C63.3138187,666.72482 63.6853467,665.40565 64.4284137,664.423623 C65.1714807,663.441596 66.1878633,662.95059 67.4775919,662.95059 C68.5119936,662.95059 69.3663441,663.336848 70.0406693,664.109376 L70.0406693,658.688615 L72.888533,658.688615 L72.888533,673.772473 L70.3254556,673.772473 L70.1879726,672.643147 C69.4809132,673.526971 68.5709153,673.968877 67.4579515,673.968877 C66.2075039,673.968877 65.2042148,673.476234 64.4480541,672.490934 C63.6918934,671.505634 63.3138187,670.135727 63.3138187,668.381172 Z M66.1518622,668.587397 C66.1518622,669.582517 66.3253511,670.345213 66.6723339,670.875508 C67.0193167,671.405802 67.5234163,671.670946 68.1846477,671.670946 C69.0619251,671.670946 69.6805927,671.301054 70.0406693,670.561261 L70.0406693,666.368027 C69.6871396,665.628233 69.0750187,665.258342 68.2042882,665.258342 C66.8359974,665.258342 66.1518622,666.368016 66.1518622,668.587397 Z M81.0589558,665.808274 C80.6726919,665.7559 80.332261,665.729713 80.037653,665.729713 C78.9639702,665.729713 78.2601949,666.093057 77.9263057,666.819757 L77.9263057,673.772473 L75.0882622,673.772473 L75.0882622,663.146995 L77.7691822,663.146995 L77.847744,664.413803 C78.4173195,663.438323 79.2062026,662.95059 80.2144169,662.95059 C80.5286655,662.95059 80.8232692,662.993144 81.0982367,663.078253 L81.0589558,665.808274 Z M88.5812441,673.772473 C88.4503072,673.517146 88.3553794,673.199628 88.2964578,672.819911 C87.6090389,673.585892 86.7154079,673.968877 85.6155378,673.968877 C84.5745893,673.968877 83.7120553,673.667727 83.0279099,673.065417 C82.3437645,672.463107 82.0016969,671.703684 82.0016969,670.787126 C82.0016969,669.661068 82.4190521,668.796898 83.2537749,668.194588 C84.0884978,667.592278 85.294736,667.287854 86.8725259,667.281307 L88.1786151,667.281307 L88.1786151,666.672454 C88.1786151,666.18144 88.0525902,665.788635 87.8005367,665.494027 C87.5484831,665.199419 87.1507682,665.052117 86.60738,665.052117 C86.1294602,665.052117 85.7546589,665.166685 85.4829648,665.395825 C85.2112707,665.624965 85.0754257,665.939209 85.0754257,666.338566 L82.2373822,666.338566 C82.2373822,665.723163 82.4272379,665.153596 82.8069549,664.629848 C83.186672,664.1061 83.7235053,663.695292 84.417471,663.39741 C85.1114366,663.099529 85.8904996,662.95059 86.7546833,662.95059 C88.0640524,662.95059 89.1033486,663.279564 89.872603,663.937522 C90.6418574,664.59548 91.0264789,665.520209 91.0264789,666.711735 L91.0264789,671.317418 C91.0330257,672.325632 91.1737808,673.088328 91.4487483,673.605529 L91.4487483,673.772473 L88.5812441,673.772473 Z M86.2342116,671.798608 C86.6532098,671.798608 87.0394679,671.705317 87.3929975,671.518732 C87.7465272,671.332147 88.0083971,671.081734 88.1786151,670.767485 L88.1786151,668.940924 L87.1180314,668.940924 C85.6973658,668.940924 84.9412165,669.43193 84.8495606,670.413957 L84.8397404,670.580901 C84.8397404,670.934431 84.9641286,671.225761 85.2129088,671.454901 C85.4616889,671.68404 85.8021198,671.798608 86.2342116,671.798608 Z M102.447394,669.913126 L103.841866,663.146995 L106.581707,663.146995 L103.871326,673.772473 L101.494833,673.772473 L99.4816881,667.084903 L97.468543,673.772473 L95.10187,673.772473 L92.3914894,663.146995 L95.1313307,663.146995 L96.5159817,669.903306 L98.4603852,663.146995 L100.512811,663.146995 L102.447394,669.913126 Z M112.876468,673.968877 C111.318318,673.968877 110.049886,673.490964 109.071133,672.535125 C108.092379,671.579285 107.60301,670.305943 107.60301,668.715059 L107.60301,668.440093 C107.60301,667.372957 107.809232,666.418769 108.221684,665.577499 C108.634135,664.736229 109.218432,664.088101 109.974593,663.633096 C110.730754,663.17809 111.593288,662.95059 112.562221,662.95059 C114.015621,662.95059 115.159665,663.408863 115.994388,664.325421 C116.82911,665.24198 117.246466,666.541509 117.246466,668.224048 L117.246466,669.382834 L110.480334,669.382834 C110.57199,670.0768 110.84859,670.633274 111.310143,671.052272 C111.771695,671.47127 112.355993,671.680766 113.063052,671.680766 C114.156375,671.680766 115.010726,671.284687 115.626129,670.492519 L117.020601,672.053934 C116.595056,672.656244 116.018942,673.125973 115.292242,673.463136 C114.565542,673.800298 113.760292,673.968877 112.876468,673.968877 Z M112.552401,665.248522 C111.989372,665.248522 111.532736,665.438377 111.18248,665.818095 C110.832224,666.197812 110.607998,666.741192 110.509795,667.448251 L114.457523,667.448251 L114.457523,667.222386 C114.444429,666.593889 114.274214,666.107793 113.946872,665.764083 C113.619529,665.420374 113.15471,665.248522 112.552401,665.248522 Z M124.827675,665.808274 C124.441411,665.7559 124.10098,665.729713 123.806372,665.729713 C122.73269,665.729713 122.028914,666.093057 121.695025,666.819757 L121.695025,673.772473 L118.856982,673.772473 L118.856982,663.146995 L121.537902,663.146995 L121.616463,664.413803 C122.186039,663.438323 122.974922,662.95059 123.983136,662.95059 C124.297385,662.95059 124.591989,662.993144 124.866956,663.078253 L124.827675,665.808274 Z M131.986615,667.674116 L126.281068,665.680611 L126.281068,662.95059 L134.834479,666.534971 L134.834479,668.842722 L126.281068,672.436923 L126.281068,669.697081 L131.986615,667.674116 Z" id="&lt;ea-drawer&gt;-&lt;/ea-dra" fill="#4B4B4B"></path>
                <g id="Rectangle-5">
                    <use fill="#D8D8D8" fill-rule="evenodd" xlink:href="#path-2"></use>
                    <rect stroke="#979797" stroke-width="1" x="159.5" y="129.5" width="15" height="491" rx="7.5"></rect>
                </g>
                <path d="M218.042969,88.7578125 L224.722656,91.1132812 L224.722656,94.3945312 L214.632812,90.1171875 L214.632812,87.3515625 L224.722656,83.0742188 L224.722656,86.3554688 L218.042969,88.7578125 Z M233.347656,96.234375 C231.488272,96.234375 229.974615,95.6640682 228.806641,94.5234375 C227.638666,93.3828068 227.054688,91.8632907 227.054688,89.9648438 L227.054688,89.6367188 C227.054688,88.3632749 227.300779,87.2246144 227.792969,86.2207031 C228.285159,85.2167919 228.982417,84.4433621 229.884766,83.9003906 C230.787114,83.3574192 231.8164,83.0859375 232.972656,83.0859375 C234.70704,83.0859375 236.072261,83.632807 237.068359,84.7265625 C238.064458,85.820318 238.5625,87.3710837 238.5625,89.3789062 L238.5625,90.7617188 L230.488281,90.7617188 C230.597657,91.5898479 230.927732,92.2539038 231.478516,92.7539062 C232.0293,93.2539087 232.726558,93.5039062 233.570312,93.5039062 C234.875007,93.5039062 235.894528,93.0312547 236.628906,92.0859375 L238.292969,93.9492188 C237.785154,94.6679723 237.097661,95.2285136 236.230469,95.6308594 C235.363277,96.0332051 234.402349,96.234375 233.347656,96.234375 Z M232.960938,85.828125 C232.289059,85.828125 231.744143,86.0546852 231.326172,86.5078125 C230.908201,86.9609398 230.640626,87.6093708 230.523438,88.453125 L235.234375,88.453125 L235.234375,88.1835938 C235.21875,87.43359 235.015627,86.8535177 234.625,86.4433594 C234.234373,86.0332011 233.679691,85.828125 232.960938,85.828125 Z M247.832031,96 C247.67578,95.695311 247.5625,95.3164085 247.492188,94.8632812 C246.671871,95.7773483 245.605475,96.234375 244.292969,96.234375 C243.050775,96.234375 242.021488,95.8750036 241.205078,95.15625 C240.388668,94.4374964 239.980469,93.5312555 239.980469,92.4375 C239.980469,91.0937433 240.478511,90.0625036 241.474609,89.34375 C242.470708,88.6249964 243.910147,88.2617188 245.792969,88.2539062 L247.351562,88.2539062 L247.351562,87.5273438 C247.351562,86.9414033 247.201173,86.472658 246.900391,86.1210938 C246.599608,85.7695295 246.125003,85.59375 245.476562,85.59375 C244.906247,85.59375 244.458986,85.7304674 244.134766,86.0039062 C243.810545,86.2773451 243.648438,86.6523414 243.648438,87.1289062 L240.261719,87.1289062 C240.261719,86.3945276 240.488279,85.7148469 240.941406,85.0898438 C241.394534,84.4648406 242.035152,83.9746112 242.863281,83.6191406 C243.69141,83.2636701 244.621089,83.0859375 245.652344,83.0859375 C247.214852,83.0859375 248.455074,83.4785117 249.373047,84.2636719 C250.29102,85.0488321 250.75,86.1523366 250.75,87.5742188 L250.75,93.0703125 C250.757813,94.2734435 250.92578,95.1835907 251.253906,95.8007812 L251.253906,96 L247.832031,96 Z M245.03125,93.6445312 C245.531252,93.6445312 245.992185,93.5332042 246.414062,93.3105469 C246.83594,93.0878895 247.148436,92.7890644 247.351562,92.4140625 L247.351562,90.234375 L246.085938,90.234375 C244.390617,90.234375 243.488282,90.8203066 243.378906,91.9921875 L243.367188,92.1914062 C243.367188,92.6132834 243.515624,92.9609361 243.8125,93.234375 C244.109376,93.5078139 244.515622,93.6445312 245.03125,93.6445312 Z M259.9375,90.0585938 L253.339844,90.0585938 L253.339844,87.328125 L259.9375,87.328125 L259.9375,90.0585938 Z M265.832031,83.3203125 L265.9375,84.7382812 C266.835942,83.6367132 268.050774,83.0859375 269.582031,83.0859375 C271.214852,83.0859375 272.335934,83.7304623 272.945312,85.0195312 C273.835942,83.7304623 275.105461,83.0859375 276.753906,83.0859375 C278.128913,83.0859375 279.15234,83.4863241 279.824219,84.2871094 C280.496097,85.0878946 280.832031,86.2929607 280.832031,87.9023438 L280.832031,96 L277.433594,96 L277.433594,87.9140625 C277.433594,87.1953089 277.29297,86.6699235 277.011719,86.3378906 C276.730467,86.0058577 276.234379,85.8398438 275.523438,85.8398438 C274.507807,85.8398438 273.804689,86.3242139 273.414062,87.2929688 L273.425781,96 L270.039062,96 L270.039062,87.9257812 C270.039062,87.1914026 269.894533,86.6601579 269.605469,86.3320312 C269.316405,86.0039046 268.824222,85.8398438 268.128906,85.8398438 C267.167964,85.8398438 266.472658,86.2382773 266.042969,87.0351562 L266.042969,96 L262.65625,96 L262.65625,83.3203125 L265.832031,83.3203125 Z M290.78125,96 C290.624999,95.695311 290.511719,95.3164085 290.441406,94.8632812 C289.62109,95.7773483 288.554694,96.234375 287.242188,96.234375 C285.999994,96.234375 284.970707,95.8750036 284.154297,95.15625 C283.337887,94.4374964 282.929688,93.5312555 282.929688,92.4375 C282.929688,91.0937433 283.427729,90.0625036 284.423828,89.34375 C285.419927,88.6249964 286.859366,88.2617188 288.742188,88.2539062 L290.300781,88.2539062 L290.300781,87.5273438 C290.300781,86.9414033 290.150392,86.472658 289.849609,86.1210938 C289.548827,85.7695295 289.074222,85.59375 288.425781,85.59375 C287.855466,85.59375 287.408205,85.7304674 287.083984,86.0039062 C286.759764,86.2773451 286.597656,86.6523414 286.597656,87.1289062 L283.210938,87.1289062 C283.210938,86.3945276 283.437498,85.7148469 283.890625,85.0898438 C284.343752,84.4648406 284.984371,83.9746112 285.8125,83.6191406 C286.640629,83.2636701 287.570307,83.0859375 288.601562,83.0859375 C290.16407,83.0859375 291.404292,83.4785117 292.322266,84.2636719 C293.240239,85.0488321 293.699219,86.1523366 293.699219,87.5742188 L293.699219,93.0703125 C293.707031,94.2734435 293.874998,95.1835907 294.203125,95.8007812 L294.203125,96 L290.78125,96 Z M287.980469,93.6445312 C288.480471,93.6445312 288.941404,93.5332042 289.363281,93.3105469 C289.785158,93.0878895 290.097655,92.7890644 290.300781,92.4140625 L290.300781,90.234375 L289.035156,90.234375 C287.339835,90.234375 286.437501,90.8203066 286.328125,91.9921875 L286.316406,92.1914062 C286.316406,92.6132834 286.464842,92.9609361 286.761719,93.234375 C287.058595,93.5078139 287.464841,93.6445312 287.980469,93.6445312 Z M299.875,96 L296.476562,96 L296.476562,83.3203125 L299.875,83.3203125 L299.875,96 Z M296.277344,80.0390625 C296.277344,79.5312475 296.447264,79.1132829 296.787109,78.7851562 C297.126955,78.4570296 297.589841,78.2929688 298.175781,78.2929688 C298.753909,78.2929688 299.214842,78.4570296 299.558594,78.7851562 C299.902345,79.1132829 300.074219,79.5312475 300.074219,80.0390625 C300.074219,80.5546901 299.900392,80.9765609 299.552734,81.3046875 C299.205076,81.6328141 298.746097,81.796875 298.175781,81.796875 C297.605466,81.796875 297.146486,81.6328141 296.798828,81.3046875 C296.45117,80.9765609 296.277344,80.5546901 296.277344,80.0390625 Z M305.78125,83.3203125 L305.886719,84.7851562 C306.792973,83.6523381 308.007805,83.0859375 309.53125,83.0859375 C310.875007,83.0859375 311.874997,83.4804648 312.53125,84.2695312 C313.187503,85.0585977 313.523437,86.2382734 313.539062,87.8085938 L313.539062,96 L310.152344,96 L310.152344,87.890625 C310.152344,87.1718714 309.996095,86.6503922 309.683594,86.3261719 C309.371092,86.0019515 308.851566,85.8398438 308.125,85.8398438 C307.17187,85.8398438 306.457034,86.2460897 305.980469,87.0585938 L305.980469,96 L302.59375,96 L302.59375,83.3203125 L305.78125,83.3203125 Z M323.019531,88.7226562 L316.210938,86.34375 L316.210938,83.0859375 L326.417969,87.3632812 L326.417969,90.1171875 L316.210938,94.40625 L316.210938,91.1367188 L323.019531,88.7226562 Z" id="&lt;ea-main&gt;" fill="#4B4B4B"></path>
                <path d="M221.042969,670.757812 L227.722656,673.113281 L227.722656,676.394531 L217.632812,672.117188 L217.632812,669.351562 L227.722656,665.074219 L227.722656,668.355469 L221.042969,670.757812 Z M231.578125,679.464844 L229.058594,679.464844 L235.339844,660.9375 L237.859375,660.9375 L231.578125,679.464844 Z M245.3125,678.234375 C243.453116,678.234375 241.939459,677.664068 240.771484,676.523438 C239.60351,675.382807 239.019531,673.863291 239.019531,671.964844 L239.019531,671.636719 C239.019531,670.363275 239.265623,669.224614 239.757812,668.220703 C240.250002,667.216792 240.947261,666.443362 241.849609,665.900391 C242.751958,665.357419 243.781244,665.085938 244.9375,665.085938 C246.671884,665.085938 248.037104,665.632807 249.033203,666.726562 C250.029302,667.820318 250.527344,669.371084 250.527344,671.378906 L250.527344,672.761719 L242.453125,672.761719 C242.562501,673.589848 242.892575,674.253904 243.443359,674.753906 C243.994143,675.253909 244.691402,675.503906 245.535156,675.503906 C246.83985,675.503906 247.859371,675.031255 248.59375,674.085938 L250.257812,675.949219 C249.749997,676.667972 249.062504,677.228514 248.195312,677.630859 C247.328121,678.033205 246.367193,678.234375 245.3125,678.234375 Z M244.925781,667.828125 C244.253903,667.828125 243.708986,668.054685 243.291016,668.507812 C242.873045,668.96094 242.605469,669.609371 242.488281,670.453125 L247.199219,670.453125 L247.199219,670.183594 C247.183594,669.43359 246.980471,668.853518 246.589844,668.443359 C246.199217,668.033201 245.644535,667.828125 244.925781,667.828125 Z M259.796875,678 C259.640624,677.695311 259.527344,677.316409 259.457031,676.863281 C258.636715,677.777348 257.570319,678.234375 256.257812,678.234375 C255.015619,678.234375 253.986332,677.875004 253.169922,677.15625 C252.353512,676.437496 251.945312,675.531255 251.945312,674.4375 C251.945312,673.093743 252.443354,672.062504 253.439453,671.34375 C254.435552,670.624996 255.874991,670.261719 257.757812,670.253906 L259.316406,670.253906 L259.316406,669.527344 C259.316406,668.941403 259.166017,668.472658 258.865234,668.121094 C258.564452,667.769529 258.089847,667.59375 257.441406,667.59375 C256.871091,667.59375 256.42383,667.730467 256.099609,668.003906 C255.775389,668.277345 255.613281,668.652341 255.613281,669.128906 L252.226562,669.128906 C252.226562,668.394528 252.453123,667.714847 252.90625,667.089844 C253.359377,666.464841 253.999996,665.974611 254.828125,665.619141 C255.656254,665.26367 256.585932,665.085938 257.617188,665.085938 C259.179695,665.085938 260.419917,665.478512 261.337891,666.263672 C262.255864,667.048832 262.714844,668.152337 262.714844,669.574219 L262.714844,675.070312 C262.722656,676.273444 262.890623,677.183591 263.21875,677.800781 L263.21875,678 L259.796875,678 Z M256.996094,675.644531 C257.496096,675.644531 257.957029,675.533204 258.378906,675.310547 C258.800783,675.08789 259.11328,674.789064 259.316406,674.414062 L259.316406,672.234375 L258.050781,672.234375 C256.35546,672.234375 255.453126,672.820307 255.34375,673.992188 L255.332031,674.191406 C255.332031,674.613283 255.480467,674.960936 255.777344,675.234375 C256.07422,675.507814 256.480466,675.644531 256.996094,675.644531 Z M271.902344,672.058594 L265.304688,672.058594 L265.304688,669.328125 L271.902344,669.328125 L271.902344,672.058594 Z M277.796875,665.320312 L277.902344,666.738281 C278.800786,665.636713 280.015617,665.085938 281.546875,665.085938 C283.179696,665.085938 284.300778,665.730462 284.910156,667.019531 C285.800786,665.730462 287.070304,665.085938 288.71875,665.085938 C290.093757,665.085938 291.117184,665.486324 291.789062,666.287109 C292.460941,667.087895 292.796875,668.292961 292.796875,669.902344 L292.796875,678 L289.398438,678 L289.398438,669.914062 C289.398438,669.195309 289.257814,668.669924 288.976562,668.337891 C288.695311,668.005858 288.199222,667.839844 287.488281,667.839844 C286.472651,667.839844 285.769533,668.324214 285.378906,669.292969 L285.390625,678 L282.003906,678 L282.003906,669.925781 C282.003906,669.191403 281.859376,668.660158 281.570312,668.332031 C281.281249,668.003905 280.789066,667.839844 280.09375,667.839844 C279.132808,667.839844 278.437502,668.238277 278.007812,669.035156 L278.007812,678 L274.621094,678 L274.621094,665.320312 L277.796875,665.320312 Z M302.746094,678 C302.589843,677.695311 302.476563,677.316409 302.40625,676.863281 C301.585933,677.777348 300.519538,678.234375 299.207031,678.234375 C297.964838,678.234375 296.935551,677.875004 296.119141,677.15625 C295.30273,676.437496 294.894531,675.531255 294.894531,674.4375 C294.894531,673.093743 295.392573,672.062504 296.388672,671.34375 C297.384771,670.624996 298.824209,670.261719 300.707031,670.253906 L302.265625,670.253906 L302.265625,669.527344 C302.265625,668.941403 302.115236,668.472658 301.814453,668.121094 C301.51367,667.769529 301.039066,667.59375 300.390625,667.59375 C299.82031,667.59375 299.373048,667.730467 299.048828,668.003906 C298.724608,668.277345 298.5625,668.652341 298.5625,669.128906 L295.175781,669.128906 C295.175781,668.394528 295.402341,667.714847 295.855469,667.089844 C296.308596,666.464841 296.949215,665.974611 297.777344,665.619141 C298.605473,665.26367 299.535151,665.085938 300.566406,665.085938 C302.128914,665.085938 303.369136,665.478512 304.287109,666.263672 C305.205083,667.048832 305.664062,668.152337 305.664062,669.574219 L305.664062,675.070312 C305.671875,676.273444 305.839842,677.183591 306.167969,677.800781 L306.167969,678 L302.746094,678 Z M299.945312,675.644531 C300.445315,675.644531 300.906248,675.533204 301.328125,675.310547 C301.750002,675.08789 302.062499,674.789064 302.265625,674.414062 L302.265625,672.234375 L301,672.234375 C299.304679,672.234375 298.402344,672.820307 298.292969,673.992188 L298.28125,674.191406 C298.28125,674.613283 298.429686,674.960936 298.726562,675.234375 C299.023439,675.507814 299.429685,675.644531 299.945312,675.644531 Z M311.839844,678 L308.441406,678 L308.441406,665.320312 L311.839844,665.320312 L311.839844,678 Z M308.242188,662.039062 C308.242188,661.531247 308.412108,661.113283 308.751953,660.785156 C309.091799,660.45703 309.554685,660.292969 310.140625,660.292969 C310.718753,660.292969 311.179686,660.45703 311.523438,660.785156 C311.867189,661.113283 312.039062,661.531247 312.039062,662.039062 C312.039062,662.55469 311.865236,662.976561 311.517578,663.304688 C311.16992,663.632814 310.71094,663.796875 310.140625,663.796875 C309.57031,663.796875 309.11133,663.632814 308.763672,663.304688 C308.416014,662.976561 308.242188,662.55469 308.242188,662.039062 Z M317.746094,665.320312 L317.851562,666.785156 C318.757817,665.652338 319.972649,665.085938 321.496094,665.085938 C322.83985,665.085938 323.83984,665.480465 324.496094,666.269531 C325.152347,667.058598 325.488281,668.238273 325.503906,669.808594 L325.503906,678 L322.117188,678 L322.117188,669.890625 C322.117188,669.171871 321.960939,668.650392 321.648438,668.326172 C321.335936,668.001952 320.81641,667.839844 320.089844,667.839844 C319.136714,667.839844 318.421877,668.24609 317.945312,669.058594 L317.945312,678 L314.558594,678 L314.558594,665.320312 L317.746094,665.320312 Z M334.984375,670.722656 L328.175781,668.34375 L328.175781,665.085938 L338.382812,669.363281 L338.382812,672.117188 L328.175781,676.40625 L328.175781,673.136719 L334.984375,670.722656 Z" id="&lt;/ea-main&gt;" fill="#4B4B4B"></path>
                <path d="M290.042969,190.757812 L296.722656,193.113281 L296.722656,196.394531 L286.632812,192.117188 L286.632812,189.351562 L296.722656,185.074219 L296.722656,188.355469 L290.042969,190.757812 Z M305.347656,198.234375 C303.488272,198.234375 301.974615,197.664068 300.806641,196.523438 C299.638666,195.382807 299.054688,193.863291 299.054688,191.964844 L299.054688,191.636719 C299.054688,190.363275 299.300779,189.224614 299.792969,188.220703 C300.285159,187.216792 300.982417,186.443362 301.884766,185.900391 C302.787114,185.357419 303.8164,185.085938 304.972656,185.085938 C306.70704,185.085938 308.072261,185.632807 309.068359,186.726562 C310.064458,187.820318 310.5625,189.371084 310.5625,191.378906 L310.5625,192.761719 L302.488281,192.761719 C302.597657,193.589848 302.927732,194.253904 303.478516,194.753906 C304.0293,195.253909 304.726558,195.503906 305.570312,195.503906 C306.875007,195.503906 307.894528,195.031255 308.628906,194.085938 L310.292969,195.949219 C309.785154,196.667972 309.097661,197.228514 308.230469,197.630859 C307.363277,198.033205 306.402349,198.234375 305.347656,198.234375 Z M304.960938,187.828125 C304.289059,187.828125 303.744143,188.054685 303.326172,188.507812 C302.908201,188.96094 302.640626,189.609371 302.523438,190.453125 L307.234375,190.453125 L307.234375,190.183594 C307.21875,189.43359 307.015627,188.853518 306.625,188.443359 C306.234373,188.033201 305.679691,187.828125 304.960938,187.828125 Z M319.832031,198 C319.67578,197.695311 319.5625,197.316409 319.492188,196.863281 C318.671871,197.777348 317.605475,198.234375 316.292969,198.234375 C315.050775,198.234375 314.021488,197.875004 313.205078,197.15625 C312.388668,196.437496 311.980469,195.531255 311.980469,194.4375 C311.980469,193.093743 312.478511,192.062504 313.474609,191.34375 C314.470708,190.624996 315.910147,190.261719 317.792969,190.253906 L319.351562,190.253906 L319.351562,189.527344 C319.351562,188.941403 319.201173,188.472658 318.900391,188.121094 C318.599608,187.769529 318.125003,187.59375 317.476562,187.59375 C316.906247,187.59375 316.458986,187.730467 316.134766,188.003906 C315.810545,188.277345 315.648438,188.652341 315.648438,189.128906 L312.261719,189.128906 C312.261719,188.394528 312.488279,187.714847 312.941406,187.089844 C313.394534,186.464841 314.035152,185.974611 314.863281,185.619141 C315.69141,185.26367 316.621089,185.085938 317.652344,185.085938 C319.214852,185.085938 320.455074,185.478512 321.373047,186.263672 C322.29102,187.048832 322.75,188.152337 322.75,189.574219 L322.75,195.070312 C322.757813,196.273444 322.92578,197.183591 323.253906,197.800781 L323.253906,198 L319.832031,198 Z M317.03125,195.644531 C317.531252,195.644531 317.992185,195.533204 318.414062,195.310547 C318.83594,195.08789 319.148436,194.789064 319.351562,194.414062 L319.351562,192.234375 L318.085938,192.234375 C316.390617,192.234375 315.488282,192.820307 315.378906,193.992188 L315.367188,194.191406 C315.367188,194.613283 315.515624,194.960936 315.8125,195.234375 C316.109376,195.507814 316.515622,195.644531 317.03125,195.644531 Z M331.9375,192.058594 L325.339844,192.058594 L325.339844,189.328125 L331.9375,189.328125 L331.9375,192.058594 Z M346.082031,191.777344 C346.082031,193.808604 345.648442,195.392572 344.78125,196.529297 C343.914058,197.666021 342.703133,198.234375 341.148438,198.234375 C339.773431,198.234375 338.675785,197.707037 337.855469,196.652344 L337.703125,198 L334.65625,198 L334.65625,180 L338.042969,180 L338.042969,186.457031 C338.824223,185.542964 339.851556,185.085938 341.125,185.085938 C342.671883,185.085938 343.884761,185.654291 344.763672,186.791016 C345.642583,187.92774 346.082031,189.527333 346.082031,191.589844 L346.082031,191.777344 Z M342.695312,191.53125 C342.695312,190.249994 342.49219,189.314456 342.085938,188.724609 C341.679685,188.134763 341.074223,187.839844 340.269531,187.839844 C339.191401,187.839844 338.449221,188.281246 338.042969,189.164062 L338.042969,194.167969 C338.457033,195.058598 339.207026,195.503906 340.292969,195.503906 C341.386724,195.503906 342.105467,194.964849 342.449219,193.886719 C342.613282,193.371091 342.695312,192.585943 342.695312,191.53125 Z M347.640625,191.542969 C347.640625,190.28515 347.88281,189.164067 348.367188,188.179688 C348.851565,187.195308 349.548824,186.433596 350.458984,185.894531 C351.369145,185.355466 352.425775,185.085938 353.628906,185.085938 C355.339852,185.085938 356.736323,185.60937 357.818359,186.65625 C358.900396,187.70313 359.503906,189.124991 359.628906,190.921875 L359.652344,191.789062 C359.652344,193.734385 359.10938,195.294916 358.023438,196.470703 C356.937495,197.64649 355.480478,198.234375 353.652344,198.234375 C351.82421,198.234375 350.36524,197.648443 349.275391,196.476562 C348.185541,195.304682 347.640625,193.710948 347.640625,191.695312 L347.640625,191.542969 Z M351.027344,191.789062 C351.027344,192.992194 351.253904,193.912106 351.707031,194.548828 C352.160159,195.18555 352.80859,195.503906 353.652344,195.503906 C354.47266,195.503906 355.113279,195.189456 355.574219,194.560547 C356.035159,193.931637 356.265625,192.925788 356.265625,191.542969 C356.265625,190.363275 356.035159,189.449222 355.574219,188.800781 C355.113279,188.152341 354.464848,187.828125 353.628906,187.828125 C352.800777,187.828125 352.160159,188.150387 351.707031,188.794922 C351.253904,189.439456 351.027344,190.437493 351.027344,191.789062 Z M361.210938,191.566406 C361.210938,189.589834 361.654292,188.015631 362.541016,186.84375 C363.427739,185.671869 364.640617,185.085938 366.179688,185.085938 C367.414069,185.085938 368.43359,185.54687 369.238281,186.46875 L369.238281,180 L372.636719,180 L372.636719,198 L369.578125,198 L369.414062,196.652344 C368.570308,197.707037 367.484382,198.234375 366.15625,198.234375 C364.664055,198.234375 363.466801,197.64649 362.564453,196.470703 C361.662105,195.294916 361.210938,193.660167 361.210938,191.566406 Z M364.597656,191.8125 C364.597656,193.000006 364.804685,193.910153 365.21875,194.542969 C365.632815,195.175784 366.234371,195.492188 367.023438,195.492188 C368.070318,195.492188 368.808592,195.050786 369.238281,194.167969 L369.238281,189.164062 C368.816404,188.281246 368.085943,187.839844 367.046875,187.839844 C365.414054,187.839844 364.597656,189.164049 364.597656,191.8125 Z M379.996094,193.207031 L382.339844,185.320312 L385.972656,185.320312 L380.875,199.96875 L380.59375,200.636719 C379.835934,202.292977 378.585946,203.121094 376.84375,203.121094 C376.35156,203.121094 375.851565,203.046876 375.34375,202.898438 L375.34375,200.332031 L375.859375,200.34375 C376.500003,200.34375 376.978514,200.246095 377.294922,200.050781 C377.61133,199.855468 377.859374,199.531252 378.039062,199.078125 L378.4375,198.035156 L373.996094,185.320312 L377.640625,185.320312 L379.996094,193.207031 Z M394.222656,190.722656 L387.414062,188.34375 L387.414062,185.085938 L397.621094,189.363281 L397.621094,192.117188 L387.414062,196.40625 L387.414062,193.136719 L394.222656,190.722656 Z M290.042969,470.757812 L296.722656,473.113281 L296.722656,476.394531 L286.632812,472.117188 L286.632812,469.351562 L296.722656,465.074219 L296.722656,468.355469 L290.042969,470.757812 Z M300.578125,479.464844 L298.058594,479.464844 L304.339844,460.9375 L306.859375,460.9375 L300.578125,479.464844 Z M314.3125,478.234375 C312.453116,478.234375 310.939459,477.664068 309.771484,476.523438 C308.60351,475.382807 308.019531,473.863291 308.019531,471.964844 L308.019531,471.636719 C308.019531,470.363275 308.265623,469.224614 308.757812,468.220703 C309.250002,467.216792 309.947261,466.443362 310.849609,465.900391 C311.751958,465.357419 312.781244,465.085938 313.9375,465.085938 C315.671884,465.085938 317.037104,465.632807 318.033203,466.726562 C319.029302,467.820318 319.527344,469.371084 319.527344,471.378906 L319.527344,472.761719 L311.453125,472.761719 C311.562501,473.589848 311.892575,474.253904 312.443359,474.753906 C312.994143,475.253909 313.691402,475.503906 314.535156,475.503906 C315.83985,475.503906 316.859371,475.031255 317.59375,474.085938 L319.257812,475.949219 C318.749997,476.667972 318.062504,477.228514 317.195312,477.630859 C316.328121,478.033205 315.367193,478.234375 314.3125,478.234375 Z M313.925781,467.828125 C313.253903,467.828125 312.708986,468.054685 312.291016,468.507812 C311.873045,468.96094 311.605469,469.609371 311.488281,470.453125 L316.199219,470.453125 L316.199219,470.183594 C316.183594,469.43359 315.980471,468.853518 315.589844,468.443359 C315.199217,468.033201 314.644535,467.828125 313.925781,467.828125 Z M328.796875,478 C328.640624,477.695311 328.527344,477.316409 328.457031,476.863281 C327.636715,477.777348 326.570319,478.234375 325.257812,478.234375 C324.015619,478.234375 322.986332,477.875004 322.169922,477.15625 C321.353512,476.437496 320.945312,475.531255 320.945312,474.4375 C320.945312,473.093743 321.443354,472.062504 322.439453,471.34375 C323.435552,470.624996 324.874991,470.261719 326.757812,470.253906 L328.316406,470.253906 L328.316406,469.527344 C328.316406,468.941403 328.166017,468.472658 327.865234,468.121094 C327.564452,467.769529 327.089847,467.59375 326.441406,467.59375 C325.871091,467.59375 325.42383,467.730467 325.099609,468.003906 C324.775389,468.277345 324.613281,468.652341 324.613281,469.128906 L321.226562,469.128906 C321.226562,468.394528 321.453123,467.714847 321.90625,467.089844 C322.359377,466.464841 322.999996,465.974611 323.828125,465.619141 C324.656254,465.26367 325.585932,465.085938 326.617188,465.085938 C328.179695,465.085938 329.419917,465.478512 330.337891,466.263672 C331.255864,467.048832 331.714844,468.152337 331.714844,469.574219 L331.714844,475.070312 C331.722656,476.273444 331.890623,477.183591 332.21875,477.800781 L332.21875,478 L328.796875,478 Z M325.996094,475.644531 C326.496096,475.644531 326.957029,475.533204 327.378906,475.310547 C327.800783,475.08789 328.11328,474.789064 328.316406,474.414062 L328.316406,472.234375 L327.050781,472.234375 C325.35546,472.234375 324.453126,472.820307 324.34375,473.992188 L324.332031,474.191406 C324.332031,474.613283 324.480467,474.960936 324.777344,475.234375 C325.07422,475.507814 325.480466,475.644531 325.996094,475.644531 Z M340.902344,472.058594 L334.304688,472.058594 L334.304688,469.328125 L340.902344,469.328125 L340.902344,472.058594 Z M355.046875,471.777344 C355.046875,473.808604 354.613286,475.392572 353.746094,476.529297 C352.878902,477.666021 351.667977,478.234375 350.113281,478.234375 C348.738274,478.234375 347.640629,477.707037 346.820312,476.652344 L346.667969,478 L343.621094,478 L343.621094,460 L347.007812,460 L347.007812,466.457031 C347.789066,465.542964 348.8164,465.085938 350.089844,465.085938 C351.636726,465.085938 352.849605,465.654291 353.728516,466.791016 C354.607426,467.92774 355.046875,469.527333 355.046875,471.589844 L355.046875,471.777344 Z M351.660156,471.53125 C351.660156,470.249994 351.457033,469.314456 351.050781,468.724609 C350.644529,468.134763 350.039067,467.839844 349.234375,467.839844 C348.156245,467.839844 347.414065,468.281246 347.007812,469.164062 L347.007812,474.167969 C347.421877,475.058598 348.17187,475.503906 349.257812,475.503906 C350.351568,475.503906 351.070311,474.964849 351.414062,473.886719 C351.578126,473.371091 351.660156,472.585943 351.660156,471.53125 Z M356.605469,471.542969 C356.605469,470.28515 356.847654,469.164067 357.332031,468.179688 C357.816409,467.195308 358.513667,466.433596 359.423828,465.894531 C360.333989,465.355466 361.390619,465.085938 362.59375,465.085938 C364.304696,465.085938 365.701166,465.60937 366.783203,466.65625 C367.86524,467.70313 368.468749,469.124991 368.59375,470.921875 L368.617188,471.789062 C368.617188,473.734385 368.074224,475.294916 366.988281,476.470703 C365.902338,477.64649 364.445322,478.234375 362.617188,478.234375 C360.789053,478.234375 359.330084,477.648443 358.240234,476.476562 C357.150385,475.304682 356.605469,473.710948 356.605469,471.695312 L356.605469,471.542969 Z M359.992188,471.789062 C359.992188,472.992194 360.218748,473.912106 360.671875,474.548828 C361.125002,475.18555 361.773433,475.503906 362.617188,475.503906 C363.437504,475.503906 364.078123,475.189456 364.539062,474.560547 C365.000002,473.931637 365.230469,472.925788 365.230469,471.542969 C365.230469,470.363275 365.000002,469.449222 364.539062,468.800781 C364.078123,468.152341 363.429692,467.828125 362.59375,467.828125 C361.765621,467.828125 361.125002,468.150387 360.671875,468.794922 C360.218748,469.439456 359.992188,470.437493 359.992188,471.789062 Z M370.175781,471.566406 C370.175781,469.589834 370.619136,468.015631 371.505859,466.84375 C372.392583,465.671869 373.605461,465.085938 375.144531,465.085938 C376.378912,465.085938 377.398433,465.54687 378.203125,466.46875 L378.203125,460 L381.601562,460 L381.601562,478 L378.542969,478 L378.378906,476.652344 C377.535152,477.707037 376.449225,478.234375 375.121094,478.234375 C373.628899,478.234375 372.431645,477.64649 371.529297,476.470703 C370.626949,475.294916 370.175781,473.660167 370.175781,471.566406 Z M373.5625,471.8125 C373.5625,473.000006 373.769529,473.910153 374.183594,474.542969 C374.597658,475.175784 375.199215,475.492188 375.988281,475.492188 C377.035161,475.492188 377.773435,475.050786 378.203125,474.167969 L378.203125,469.164062 C377.781248,468.281246 377.050786,467.839844 376.011719,467.839844 C374.378898,467.839844 373.5625,469.164049 373.5625,471.8125 Z M388.960938,473.207031 L391.304688,465.320312 L394.9375,465.320312 L389.839844,479.96875 L389.558594,480.636719 C388.800777,482.292977 387.55079,483.121094 385.808594,483.121094 C385.316404,483.121094 384.816409,483.046876 384.308594,482.898438 L384.308594,480.332031 L384.824219,480.34375 C385.464847,480.34375 385.943358,480.246095 386.259766,480.050781 C386.576173,479.855468 386.824218,479.531252 387.003906,479.078125 L387.402344,478.035156 L382.960938,465.320312 L386.605469,465.320312 L388.960938,473.207031 Z M403.1875,470.722656 L396.378906,468.34375 L396.378906,465.085938 L406.585938,469.363281 L406.585938,472.117188 L396.378906,476.40625 L396.378906,473.136719 L403.1875,470.722656 Z" id="&lt;ea-body&gt;-&lt;/ea-body&gt;" fill="#4B4B4B"></path>
                <rect id="Rectangle-2" fill="#D8D8D8" x="261" y="551" width="696" height="94"></rect>
                <path d="M283.042969,576.757812 L289.722656,579.113281 L289.722656,582.394531 L279.632812,578.117188 L279.632812,575.351562 L289.722656,571.074219 L289.722656,574.355469 L283.042969,576.757812 Z M298.347656,584.234375 C296.488272,584.234375 294.974615,583.664068 293.806641,582.523438 C292.638666,581.382807 292.054688,579.863291 292.054688,577.964844 L292.054688,577.636719 C292.054688,576.363275 292.300779,575.224614 292.792969,574.220703 C293.285159,573.216792 293.982417,572.443362 294.884766,571.900391 C295.787114,571.357419 296.8164,571.085938 297.972656,571.085938 C299.70704,571.085938 301.072261,571.632807 302.068359,572.726562 C303.064458,573.820318 303.5625,575.371084 303.5625,577.378906 L303.5625,578.761719 L295.488281,578.761719 C295.597657,579.589848 295.927732,580.253904 296.478516,580.753906 C297.0293,581.253909 297.726558,581.503906 298.570312,581.503906 C299.875007,581.503906 300.894528,581.031255 301.628906,580.085938 L303.292969,581.949219 C302.785154,582.667972 302.097661,583.228514 301.230469,583.630859 C300.363277,584.033205 299.402349,584.234375 298.347656,584.234375 Z M297.960938,573.828125 C297.289059,573.828125 296.744143,574.054685 296.326172,574.507812 C295.908201,574.96094 295.640626,575.609371 295.523438,576.453125 L300.234375,576.453125 L300.234375,576.183594 C300.21875,575.43359 300.015627,574.853518 299.625,574.443359 C299.234373,574.033201 298.679691,573.828125 297.960938,573.828125 Z M312.832031,584 C312.67578,583.695311 312.5625,583.316409 312.492188,582.863281 C311.671871,583.777348 310.605475,584.234375 309.292969,584.234375 C308.050775,584.234375 307.021488,583.875004 306.205078,583.15625 C305.388668,582.437496 304.980469,581.531255 304.980469,580.4375 C304.980469,579.093743 305.478511,578.062504 306.474609,577.34375 C307.470708,576.624996 308.910147,576.261719 310.792969,576.253906 L312.351562,576.253906 L312.351562,575.527344 C312.351562,574.941403 312.201173,574.472658 311.900391,574.121094 C311.599608,573.769529 311.125003,573.59375 310.476562,573.59375 C309.906247,573.59375 309.458986,573.730467 309.134766,574.003906 C308.810545,574.277345 308.648438,574.652341 308.648438,575.128906 L305.261719,575.128906 C305.261719,574.394528 305.488279,573.714847 305.941406,573.089844 C306.394534,572.464841 307.035152,571.974611 307.863281,571.619141 C308.69141,571.26367 309.621089,571.085938 310.652344,571.085938 C312.214852,571.085938 313.455074,571.478512 314.373047,572.263672 C315.29102,573.048832 315.75,574.152337 315.75,575.574219 L315.75,581.070312 C315.757813,582.273444 315.92578,583.183591 316.253906,583.800781 L316.253906,584 L312.832031,584 Z M310.03125,581.644531 C310.531252,581.644531 310.992185,581.533204 311.414062,581.310547 C311.83594,581.08789 312.148436,580.789064 312.351562,580.414062 L312.351562,578.234375 L311.085938,578.234375 C309.390617,578.234375 308.488282,578.820307 308.378906,579.992188 L308.367188,580.191406 C308.367188,580.613283 308.515624,580.960936 308.8125,581.234375 C309.109376,581.507814 309.515622,581.644531 310.03125,581.644531 Z M324.9375,578.058594 L318.339844,578.058594 L318.339844,575.328125 L324.9375,575.328125 L324.9375,578.058594 Z M328.582031,584 L328.582031,573.804688 L326.695312,573.804688 L326.695312,571.320312 L328.582031,571.320312 L328.582031,570.242188 C328.582031,568.820305 328.99023,567.716801 329.806641,566.931641 C330.623051,566.14648 331.765618,565.753906 333.234375,565.753906 C333.703127,565.753906 334.27734,565.83203 334.957031,565.988281 L334.921875,568.613281 C334.640624,568.542968 334.296877,568.507812 333.890625,568.507812 C332.617181,568.507812 331.980469,569.105463 331.980469,570.300781 L331.980469,571.320312 L334.5,571.320312 L334.5,573.804688 L331.980469,573.804688 L331.980469,584 L328.582031,584 Z M335.730469,577.542969 C335.730469,576.28515 335.972654,575.164067 336.457031,574.179688 C336.941409,573.195308 337.638667,572.433596 338.548828,571.894531 C339.458989,571.355466 340.515619,571.085938 341.71875,571.085938 C343.429696,571.085938 344.826166,571.60937 345.908203,572.65625 C346.99024,573.70313 347.593749,575.124991 347.71875,576.921875 L347.742188,577.789062 C347.742188,579.734385 347.199224,581.294916 346.113281,582.470703 C345.027338,583.64649 343.570322,584.234375 341.742188,584.234375 C339.914053,584.234375 338.455084,583.648443 337.365234,582.476562 C336.275385,581.304682 335.730469,579.710948 335.730469,577.695312 L335.730469,577.542969 Z M339.117188,577.789062 C339.117188,578.992194 339.343748,579.912106 339.796875,580.548828 C340.250002,581.18555 340.898433,581.503906 341.742188,581.503906 C342.562504,581.503906 343.203123,581.189456 343.664062,580.560547 C344.125002,579.931637 344.355469,578.925788 344.355469,577.542969 C344.355469,576.363275 344.125002,575.449222 343.664062,574.800781 C343.203123,574.152341 342.554692,573.828125 341.71875,573.828125 C340.890621,573.828125 340.250002,574.150387 339.796875,574.794922 C339.343748,575.439456 339.117188,576.437493 339.117188,577.789062 Z M349.300781,577.542969 C349.300781,576.28515 349.542966,575.164067 350.027344,574.179688 C350.511721,573.195308 351.20898,572.433596 352.119141,571.894531 C353.029301,571.355466 354.085931,571.085938 355.289062,571.085938 C357.000009,571.085938 358.396479,571.60937 359.478516,572.65625 C360.560552,573.70313 361.164062,575.124991 361.289062,576.921875 L361.3125,577.789062 C361.3125,579.734385 360.769537,581.294916 359.683594,582.470703 C358.597651,583.64649 357.140634,584.234375 355.3125,584.234375 C353.484366,584.234375 352.025396,583.648443 350.935547,582.476562 C349.845698,581.304682 349.300781,579.710948 349.300781,577.695312 L349.300781,577.542969 Z M352.6875,577.789062 C352.6875,578.992194 352.91406,579.912106 353.367188,580.548828 C353.820315,581.18555 354.468746,581.503906 355.3125,581.503906 C356.132817,581.503906 356.773435,581.189456 357.234375,580.560547 C357.695315,579.931637 357.925781,578.925788 357.925781,577.542969 C357.925781,576.363275 357.695315,575.449222 357.234375,574.800781 C356.773435,574.152341 356.125004,573.828125 355.289062,573.828125 C354.460933,573.828125 353.820315,574.150387 353.367188,574.794922 C352.91406,575.439456 352.6875,576.437493 352.6875,577.789062 Z M367.453125,568.203125 L367.453125,571.320312 L369.621094,571.320312 L369.621094,573.804688 L367.453125,573.804688 L367.453125,580.132812 C367.453125,580.601565 367.542968,580.937499 367.722656,581.140625 C367.902345,581.343751 368.246091,581.445312 368.753906,581.445312 C369.128908,581.445312 369.460936,581.417969 369.75,581.363281 L369.75,583.929688 C369.085934,584.132814 368.402347,584.234375 367.699219,584.234375 C365.324207,584.234375 364.113281,583.035168 364.066406,580.636719 L364.066406,573.804688 L362.214844,573.804688 L362.214844,571.320312 L364.066406,571.320312 L364.066406,568.203125 L367.453125,568.203125 Z M377.34375,584.234375 C375.484366,584.234375 373.970709,583.664068 372.802734,582.523438 C371.63476,581.382807 371.050781,579.863291 371.050781,577.964844 L371.050781,577.636719 C371.050781,576.363275 371.296873,575.224614 371.789062,574.220703 C372.281252,573.216792 372.978511,572.443362 373.880859,571.900391 C374.783208,571.357419 375.812494,571.085938 376.96875,571.085938 C378.703134,571.085938 380.068354,571.632807 381.064453,572.726562 C382.060552,573.820318 382.558594,575.371084 382.558594,577.378906 L382.558594,578.761719 L374.484375,578.761719 C374.593751,579.589848 374.923825,580.253904 375.474609,580.753906 C376.025393,581.253909 376.722652,581.503906 377.566406,581.503906 C378.8711,581.503906 379.890621,581.031255 380.625,580.085938 L382.289062,581.949219 C381.781247,582.667972 381.093754,583.228514 380.226562,583.630859 C379.359371,584.033205 378.398443,584.234375 377.34375,584.234375 Z M376.957031,573.828125 C376.285153,573.828125 375.740236,574.054685 375.322266,574.507812 C374.904295,574.96094 374.636719,575.609371 374.519531,576.453125 L379.230469,576.453125 L379.230469,576.183594 C379.214844,575.43359 379.011721,574.853518 378.621094,574.443359 C378.230467,574.033201 377.675785,573.828125 376.957031,573.828125 Z M391.605469,574.496094 C391.144529,574.433593 390.738283,574.402344 390.386719,574.402344 C389.105462,574.402344 388.265627,574.835933 387.867188,575.703125 L387.867188,584 L384.480469,584 L384.480469,571.320312 L387.679688,571.320312 L387.773438,572.832031 C388.453128,571.667963 389.394525,571.085938 390.597656,571.085938 C390.972658,571.085938 391.324217,571.136718 391.652344,571.238281 L391.605469,574.496094 Z M400.148438,576.722656 L393.339844,574.34375 L393.339844,571.085938 L403.546875,575.363281 L403.546875,578.117188 L393.339844,582.40625 L393.339844,579.136719 L400.148438,576.722656 Z M283.042969,620.757812 L289.722656,623.113281 L289.722656,626.394531 L279.632812,622.117188 L279.632812,619.351562 L289.722656,615.074219 L289.722656,618.355469 L283.042969,620.757812 Z M293.578125,629.464844 L291.058594,629.464844 L297.339844,610.9375 L299.859375,610.9375 L293.578125,629.464844 Z M307.3125,628.234375 C305.453116,628.234375 303.939459,627.664068 302.771484,626.523438 C301.60351,625.382807 301.019531,623.863291 301.019531,621.964844 L301.019531,621.636719 C301.019531,620.363275 301.265623,619.224614 301.757812,618.220703 C302.250002,617.216792 302.947261,616.443362 303.849609,615.900391 C304.751958,615.357419 305.781244,615.085938 306.9375,615.085938 C308.671884,615.085938 310.037104,615.632807 311.033203,616.726562 C312.029302,617.820318 312.527344,619.371084 312.527344,621.378906 L312.527344,622.761719 L304.453125,622.761719 C304.562501,623.589848 304.892575,624.253904 305.443359,624.753906 C305.994143,625.253909 306.691402,625.503906 307.535156,625.503906 C308.83985,625.503906 309.859371,625.031255 310.59375,624.085938 L312.257812,625.949219 C311.749997,626.667972 311.062504,627.228514 310.195312,627.630859 C309.328121,628.033205 308.367193,628.234375 307.3125,628.234375 Z M306.925781,617.828125 C306.253903,617.828125 305.708986,618.054685 305.291016,618.507812 C304.873045,618.96094 304.605469,619.609371 304.488281,620.453125 L309.199219,620.453125 L309.199219,620.183594 C309.183594,619.43359 308.980471,618.853518 308.589844,618.443359 C308.199217,618.033201 307.644535,617.828125 306.925781,617.828125 Z M321.796875,628 C321.640624,627.695311 321.527344,627.316409 321.457031,626.863281 C320.636715,627.777348 319.570319,628.234375 318.257812,628.234375 C317.015619,628.234375 315.986332,627.875004 315.169922,627.15625 C314.353512,626.437496 313.945312,625.531255 313.945312,624.4375 C313.945312,623.093743 314.443354,622.062504 315.439453,621.34375 C316.435552,620.624996 317.874991,620.261719 319.757812,620.253906 L321.316406,620.253906 L321.316406,619.527344 C321.316406,618.941403 321.166017,618.472658 320.865234,618.121094 C320.564452,617.769529 320.089847,617.59375 319.441406,617.59375 C318.871091,617.59375 318.42383,617.730467 318.099609,618.003906 C317.775389,618.277345 317.613281,618.652341 317.613281,619.128906 L314.226562,619.128906 C314.226562,618.394528 314.453123,617.714847 314.90625,617.089844 C315.359377,616.464841 315.999996,615.974611 316.828125,615.619141 C317.656254,615.26367 318.585932,615.085938 319.617188,615.085938 C321.179695,615.085938 322.419917,615.478512 323.337891,616.263672 C324.255864,617.048832 324.714844,618.152337 324.714844,619.574219 L324.714844,625.070312 C324.722656,626.273444 324.890623,627.183591 325.21875,627.800781 L325.21875,628 L321.796875,628 Z M318.996094,625.644531 C319.496096,625.644531 319.957029,625.533204 320.378906,625.310547 C320.800783,625.08789 321.11328,624.789064 321.316406,624.414062 L321.316406,622.234375 L320.050781,622.234375 C318.35546,622.234375 317.453126,622.820307 317.34375,623.992188 L317.332031,624.191406 C317.332031,624.613283 317.480467,624.960936 317.777344,625.234375 C318.07422,625.507814 318.480466,625.644531 318.996094,625.644531 Z M333.902344,622.058594 L327.304688,622.058594 L327.304688,619.328125 L333.902344,619.328125 L333.902344,622.058594 Z M337.546875,628 L337.546875,617.804688 L335.660156,617.804688 L335.660156,615.320312 L337.546875,615.320312 L337.546875,614.242188 C337.546875,612.820305 337.955074,611.716801 338.771484,610.931641 C339.587895,610.14648 340.730461,609.753906 342.199219,609.753906 C342.667971,609.753906 343.242184,609.83203 343.921875,609.988281 L343.886719,612.613281 C343.605467,612.542968 343.261721,612.507812 342.855469,612.507812 C341.582025,612.507812 340.945312,613.105463 340.945312,614.300781 L340.945312,615.320312 L343.464844,615.320312 L343.464844,617.804688 L340.945312,617.804688 L340.945312,628 L337.546875,628 Z M344.695312,621.542969 C344.695312,620.28515 344.937498,619.164067 345.421875,618.179688 C345.906252,617.195308 346.603511,616.433596 347.513672,615.894531 C348.423833,615.355466 349.480463,615.085938 350.683594,615.085938 C352.39454,615.085938 353.79101,615.60937 354.873047,616.65625 C355.955084,617.70313 356.558593,619.124991 356.683594,620.921875 L356.707031,621.789062 C356.707031,623.734385 356.164068,625.294916 355.078125,626.470703 C353.992182,627.64649 352.535165,628.234375 350.707031,628.234375 C348.878897,628.234375 347.419927,627.648443 346.330078,626.476562 C345.240229,625.304682 344.695312,623.710948 344.695312,621.695312 L344.695312,621.542969 Z M348.082031,621.789062 C348.082031,622.992194 348.308591,623.912106 348.761719,624.548828 C349.214846,625.18555 349.863277,625.503906 350.707031,625.503906 C351.527348,625.503906 352.167966,625.189456 352.628906,624.560547 C353.089846,623.931637 353.320312,622.925788 353.320312,621.542969 C353.320312,620.363275 353.089846,619.449222 352.628906,618.800781 C352.167966,618.152341 351.519535,617.828125 350.683594,617.828125 C349.855465,617.828125 349.214846,618.150387 348.761719,618.794922 C348.308591,619.439456 348.082031,620.437493 348.082031,621.789062 Z M358.265625,621.542969 C358.265625,620.28515 358.50781,619.164067 358.992188,618.179688 C359.476565,617.195308 360.173824,616.433596 361.083984,615.894531 C361.994145,615.355466 363.050775,615.085938 364.253906,615.085938 C365.964852,615.085938 367.361323,615.60937 368.443359,616.65625 C369.525396,617.70313 370.128906,619.124991 370.253906,620.921875 L370.277344,621.789062 C370.277344,623.734385 369.73438,625.294916 368.648438,626.470703 C367.562495,627.64649 366.105478,628.234375 364.277344,628.234375 C362.44921,628.234375 360.99024,627.648443 359.900391,626.476562 C358.810541,625.304682 358.265625,623.710948 358.265625,621.695312 L358.265625,621.542969 Z M361.652344,621.789062 C361.652344,622.992194 361.878904,623.912106 362.332031,624.548828 C362.785159,625.18555 363.43359,625.503906 364.277344,625.503906 C365.09766,625.503906 365.738279,625.189456 366.199219,624.560547 C366.660159,623.931637 366.890625,622.925788 366.890625,621.542969 C366.890625,620.363275 366.660159,619.449222 366.199219,618.800781 C365.738279,618.152341 365.089848,617.828125 364.253906,617.828125 C363.425777,617.828125 362.785159,618.150387 362.332031,618.794922 C361.878904,619.439456 361.652344,620.437493 361.652344,621.789062 Z M376.417969,612.203125 L376.417969,615.320312 L378.585938,615.320312 L378.585938,617.804688 L376.417969,617.804688 L376.417969,624.132812 C376.417969,624.601565 376.507812,624.937499 376.6875,625.140625 C376.867188,625.343751 377.210935,625.445312 377.71875,625.445312 C378.093752,625.445312 378.42578,625.417969 378.714844,625.363281 L378.714844,627.929688 C378.050778,628.132814 377.367191,628.234375 376.664062,628.234375 C374.289051,628.234375 373.078125,627.035168 373.03125,624.636719 L373.03125,617.804688 L371.179688,617.804688 L371.179688,615.320312 L373.03125,615.320312 L373.03125,612.203125 L376.417969,612.203125 Z M386.308594,628.234375 C384.449209,628.234375 382.935553,627.664068 381.767578,626.523438 C380.599604,625.382807 380.015625,623.863291 380.015625,621.964844 L380.015625,621.636719 C380.015625,620.363275 380.261716,619.224614 380.753906,618.220703 C381.246096,617.216792 381.943355,616.443362 382.845703,615.900391 C383.748051,615.357419 384.777338,615.085938 385.933594,615.085938 C387.667977,615.085938 389.033198,615.632807 390.029297,616.726562 C391.025396,617.820318 391.523438,619.371084 391.523438,621.378906 L391.523438,622.761719 L383.449219,622.761719 C383.558594,623.589848 383.888669,624.253904 384.439453,624.753906 C384.990237,625.253909 385.687496,625.503906 386.53125,625.503906 C387.835944,625.503906 388.855465,625.031255 389.589844,624.085938 L391.253906,625.949219 C390.746091,626.667972 390.058598,627.228514 389.191406,627.630859 C388.324214,628.033205 387.363287,628.234375 386.308594,628.234375 Z M385.921875,617.828125 C385.249997,617.828125 384.70508,618.054685 384.287109,618.507812 C383.869139,618.96094 383.601563,619.609371 383.484375,620.453125 L388.195312,620.453125 L388.195312,620.183594 C388.179687,619.43359 387.976564,618.853518 387.585938,618.443359 C387.195311,618.033201 386.640629,617.828125 385.921875,617.828125 Z M400.570312,618.496094 C400.109373,618.433593 399.703127,618.402344 399.351562,618.402344 C398.070306,618.402344 397.230471,618.835933 396.832031,619.703125 L396.832031,628 L393.445312,628 L393.445312,615.320312 L396.644531,615.320312 L396.738281,616.832031 C397.417972,615.667963 398.359369,615.085938 399.5625,615.085938 C399.937502,615.085938 400.289061,615.136718 400.617188,615.238281 L400.570312,618.496094 Z M409.113281,620.722656 L402.304688,618.34375 L402.304688,615.085938 L412.511719,619.363281 L412.511719,622.117188 L402.304688,626.40625 L402.304688,623.136719 L409.113281,620.722656 Z" id="&lt;ea-footer&gt;-&lt;/ea-foo" fill="#4B4B4B"></path>
                <g id="Rectangle-5">
                    <use fill="#838383" fill-rule="evenodd" xlink:href="#path-3"></use>
                    <rect stroke="#979797" stroke-width="1" x="1025.5" y="129.5" width="15" height="524" rx="7.5"></rect>
                </g>
                <path d="M411.042969,32.7578125 L417.722656,35.1132812 L417.722656,38.3945312 L407.632812,34.1171875 L407.632812,31.3515625 L417.722656,27.0742188 L417.722656,30.3554688 L411.042969,32.7578125 Z M426.347656,40.234375 C424.488272,40.234375 422.974615,39.6640682 421.806641,38.5234375 C420.638666,37.3828068 420.054688,35.8632907 420.054688,33.9648438 L420.054688,33.6367188 C420.054688,32.3632749 420.300779,31.2246144 420.792969,30.2207031 C421.285159,29.2167919 421.982417,28.4433621 422.884766,27.9003906 C423.787114,27.3574192 424.8164,27.0859375 425.972656,27.0859375 C427.70704,27.0859375 429.072261,27.632807 430.068359,28.7265625 C431.064458,29.820318 431.5625,31.3710837 431.5625,33.3789062 L431.5625,34.7617188 L423.488281,34.7617188 C423.597657,35.5898479 423.927732,36.2539037 424.478516,36.7539062 C425.0293,37.2539088 425.726558,37.5039062 426.570312,37.5039062 C427.875007,37.5039062 428.894528,37.0312547 429.628906,36.0859375 L431.292969,37.9492188 C430.785154,38.6679723 430.097661,39.2285136 429.230469,39.6308594 C428.363277,40.0332051 427.402349,40.234375 426.347656,40.234375 Z M425.960938,29.828125 C425.289059,29.828125 424.744143,30.0546852 424.326172,30.5078125 C423.908201,30.9609398 423.640626,31.6093708 423.523438,32.453125 L428.234375,32.453125 L428.234375,32.1835938 C428.21875,31.43359 428.015627,30.8535177 427.625,30.4433594 C427.234373,30.0332011 426.679691,29.828125 425.960938,29.828125 Z M440.832031,40 C440.67578,39.695311 440.5625,39.3164085 440.492188,38.8632812 C439.671871,39.7773483 438.605475,40.234375 437.292969,40.234375 C436.050775,40.234375 435.021488,39.8750036 434.205078,39.15625 C433.388668,38.4374964 432.980469,37.5312555 432.980469,36.4375 C432.980469,35.0937433 433.478511,34.0625036 434.474609,33.34375 C435.470708,32.6249964 436.910147,32.2617188 438.792969,32.2539062 L440.351562,32.2539062 L440.351562,31.5273438 C440.351562,30.9414033 440.201173,30.472658 439.900391,30.1210938 C439.599608,29.7695295 439.125003,29.59375 438.476562,29.59375 C437.906247,29.59375 437.458986,29.7304674 437.134766,30.0039062 C436.810545,30.2773451 436.648438,30.6523414 436.648438,31.1289062 L433.261719,31.1289062 C433.261719,30.3945276 433.488279,29.7148469 433.941406,29.0898438 C434.394534,28.4648406 435.035152,27.9746112 435.863281,27.6191406 C436.69141,27.2636701 437.621089,27.0859375 438.652344,27.0859375 C440.214852,27.0859375 441.455074,27.4785117 442.373047,28.2636719 C443.29102,29.0488321 443.75,30.1523366 443.75,31.5742188 L443.75,37.0703125 C443.757813,38.2734435 443.92578,39.1835907 444.253906,39.8007812 L444.253906,40 L440.832031,40 Z M438.03125,37.6445312 C438.531252,37.6445312 438.992185,37.5332042 439.414062,37.3105469 C439.83594,37.0878895 440.148436,36.7890644 440.351562,36.4140625 L440.351562,34.234375 L439.085938,34.234375 C437.390617,34.234375 436.488282,34.8203066 436.378906,35.9921875 L436.367188,36.1914062 C436.367188,36.6132834 436.515624,36.9609361 436.8125,37.234375 C437.109376,37.5078139 437.515622,37.6445312 438.03125,37.6445312 Z M452.9375,34.0585938 L446.339844,34.0585938 L446.339844,31.328125 L452.9375,31.328125 L452.9375,34.0585938 Z M459.710938,24.203125 L459.710938,27.3203125 L461.878906,27.3203125 L461.878906,29.8046875 L459.710938,29.8046875 L459.710938,36.1328125 C459.710938,36.6015648 459.80078,36.937499 459.980469,37.140625 C460.160157,37.343751 460.503904,37.4453125 461.011719,37.4453125 C461.386721,37.4453125 461.718749,37.417969 462.007812,37.3632812 L462.007812,39.9296875 C461.343747,40.1328135 460.66016,40.234375 459.957031,40.234375 C457.582019,40.234375 456.371094,39.0351682 456.324219,36.6367188 L456.324219,29.8046875 L454.472656,29.8046875 L454.472656,27.3203125 L456.324219,27.3203125 L456.324219,24.203125 L459.710938,24.203125 Z M463.238281,33.5429688 C463.238281,32.28515 463.480466,31.1640674 463.964844,30.1796875 C464.449221,29.1953076 465.14648,28.4335964 466.056641,27.8945312 C466.966801,27.3554661 468.023431,27.0859375 469.226562,27.0859375 C470.937509,27.0859375 472.333979,27.6093698 473.416016,28.65625 C474.498052,29.7031302 475.101562,31.124991 475.226562,32.921875 L475.25,33.7890625 C475.25,35.7343847 474.707037,37.294916 473.621094,38.4707031 C472.535151,39.6464903 471.078134,40.234375 469.25,40.234375 C467.421866,40.234375 465.962896,39.6484434 464.873047,38.4765625 C463.783198,37.3046816 463.238281,35.7109476 463.238281,33.6953125 L463.238281,33.5429688 Z M466.625,33.7890625 C466.625,34.9921935 466.85156,35.9121062 467.304688,36.5488281 C467.757815,37.1855501 468.406246,37.5039062 469.25,37.5039062 C470.070317,37.5039062 470.710935,37.1894563 471.171875,36.5605469 C471.632815,35.9316375 471.863281,34.9257882 471.863281,33.5429688 C471.863281,32.3632754 471.632815,31.449222 471.171875,30.8007812 C470.710935,30.1523405 470.062504,29.828125 469.226562,29.828125 C468.398433,29.828125 467.757815,30.1503874 467.304688,30.7949219 C466.85156,31.4394563 466.625,32.4374932 466.625,33.7890625 Z M476.808594,33.5429688 C476.808594,32.28515 477.050779,31.1640674 477.535156,30.1796875 C478.019534,29.1953076 478.716792,28.4335964 479.626953,27.8945312 C480.537114,27.3554661 481.593744,27.0859375 482.796875,27.0859375 C484.507821,27.0859375 485.904291,27.6093698 486.986328,28.65625 C488.068365,29.7031302 488.671874,31.124991 488.796875,32.921875 L488.820312,33.7890625 C488.820312,35.7343847 488.277349,37.294916 487.191406,38.4707031 C486.105463,39.6464903 484.648447,40.234375 482.820312,40.234375 C480.992178,40.234375 479.533209,39.6484434 478.443359,38.4765625 C477.35351,37.3046816 476.808594,35.7109476 476.808594,33.6953125 L476.808594,33.5429688 Z M480.195312,33.7890625 C480.195312,34.9921935 480.421873,35.9121062 480.875,36.5488281 C481.328127,37.1855501 481.976558,37.5039062 482.820312,37.5039062 C483.640629,37.5039062 484.281248,37.1894563 484.742188,36.5605469 C485.203127,35.9316375 485.433594,34.9257882 485.433594,33.5429688 C485.433594,32.3632754 485.203127,31.449222 484.742188,30.8007812 C484.281248,30.1523405 483.632817,29.828125 482.796875,29.828125 C481.968746,29.828125 481.328127,30.1503874 480.875,30.7949219 C480.421873,31.4394563 480.195312,32.4374932 480.195312,33.7890625 Z M494.480469,40 L491.082031,40 L491.082031,22 L494.480469,22 L494.480469,40 Z M508.695312,33.7773438 C508.695312,35.8086039 508.261723,37.3925724 507.394531,38.5292969 C506.527339,39.6660213 505.316414,40.234375 503.761719,40.234375 C502.386712,40.234375 501.289067,39.7070365 500.46875,38.6523438 L500.316406,40 L497.269531,40 L497.269531,22 L500.65625,22 L500.65625,28.4570312 C501.437504,27.5429642 502.464837,27.0859375 503.738281,27.0859375 C505.285164,27.0859375 506.498042,27.6542912 507.376953,28.7910156 C508.255864,29.9277401 508.695312,31.5273334 508.695312,33.5898438 L508.695312,33.7773438 Z M505.308594,33.53125 C505.308594,32.2499936 505.105471,31.3144561 504.699219,30.7246094 C504.292967,30.1347627 503.687504,29.8398438 502.882812,29.8398438 C501.804682,29.8398438 501.062502,30.2812456 500.65625,31.1640625 L500.65625,36.1679688 C501.070315,37.0585982 501.820307,37.5039062 502.90625,37.5039062 C504.000005,37.5039062 504.718748,36.9648491 505.0625,35.8867188 C505.226563,35.3710912 505.308594,34.5859428 505.308594,33.53125 Z M518.128906,40 C517.972655,39.695311 517.859375,39.3164085 517.789062,38.8632812 C516.968746,39.7773483 515.90235,40.234375 514.589844,40.234375 C513.34765,40.234375 512.318363,39.8750036 511.501953,39.15625 C510.685543,38.4374964 510.277344,37.5312555 510.277344,36.4375 C510.277344,35.0937433 510.775386,34.0625036 511.771484,33.34375 C512.767583,32.6249964 514.207022,32.2617188 516.089844,32.2539062 L517.648438,32.2539062 L517.648438,31.5273438 C517.648438,30.9414033 517.498048,30.472658 517.197266,30.1210938 C516.896483,29.7695295 516.421878,29.59375 515.773438,29.59375 C515.203122,29.59375 514.755861,29.7304674 514.431641,30.0039062 C514.10742,30.2773451 513.945312,30.6523414 513.945312,31.1289062 L510.558594,31.1289062 C510.558594,30.3945276 510.785154,29.7148469 511.238281,29.0898438 C511.691409,28.4648406 512.332027,27.9746112 513.160156,27.6191406 C513.988285,27.2636701 514.917964,27.0859375 515.949219,27.0859375 C517.511727,27.0859375 518.751949,27.4785117 519.669922,28.2636719 C520.587895,29.0488321 521.046875,30.1523366 521.046875,31.5742188 L521.046875,37.0703125 C521.054688,38.2734435 521.222655,39.1835907 521.550781,39.8007812 L521.550781,40 L518.128906,40 Z M515.328125,37.6445312 C515.828127,37.6445312 516.28906,37.5332042 516.710938,37.3105469 C517.132815,37.0878895 517.445311,36.7890644 517.648438,36.4140625 L517.648438,34.234375 L516.382812,34.234375 C514.687492,34.234375 513.785157,34.8203066 513.675781,35.9921875 L513.664062,36.1914062 C513.664062,36.6132834 513.812499,36.9609361 514.109375,37.234375 C514.406251,37.5078139 514.812497,37.6445312 515.328125,37.6445312 Z M530.773438,30.4960938 C530.312498,30.4335934 529.906252,30.4023438 529.554688,30.4023438 C528.273431,30.4023438 527.433596,30.8359332 527.035156,31.703125 L527.035156,40 L523.648438,40 L523.648438,27.3203125 L526.847656,27.3203125 L526.941406,28.8320312 C527.621097,27.6679629 528.562494,27.0859375 529.765625,27.0859375 C530.140627,27.0859375 530.492186,27.1367182 530.820312,27.2382812 L530.773438,30.4960938 Z M539.316406,32.7226562 L532.507812,30.34375 L532.507812,27.0859375 L542.714844,31.3632812 L542.714844,34.1171875 L532.507812,38.40625 L532.507812,35.1367188 L539.316406,32.7226562 Z M547.542969,32.7578125 L554.222656,35.1132812 L554.222656,38.3945312 L544.132812,34.1171875 L544.132812,31.3515625 L554.222656,27.0742188 L554.222656,30.3554688 L547.542969,32.7578125 Z M562.847656,40.234375 C560.988272,40.234375 559.474615,39.6640682 558.306641,38.5234375 C557.138666,37.3828068 556.554688,35.8632907 556.554688,33.9648438 L556.554688,33.6367188 C556.554688,32.3632749 556.800779,31.2246144 557.292969,30.2207031 C557.785159,29.2167919 558.482417,28.4433621 559.384766,27.9003906 C560.287114,27.3574192 561.3164,27.0859375 562.472656,27.0859375 C564.20704,27.0859375 565.572261,27.632807 566.568359,28.7265625 C567.564458,29.820318 568.0625,31.3710837 568.0625,33.3789062 L568.0625,34.7617188 L559.988281,34.7617188 C560.097657,35.5898479 560.427732,36.2539037 560.978516,36.7539062 C561.5293,37.2539088 562.226558,37.5039062 563.070312,37.5039062 C564.375007,37.5039062 565.394528,37.0312547 566.128906,36.0859375 L567.792969,37.9492188 C567.285154,38.6679723 566.597661,39.2285136 565.730469,39.6308594 C564.863277,40.0332051 563.902349,40.234375 562.847656,40.234375 Z M562.460938,29.828125 C561.789059,29.828125 561.244143,30.0546852 560.826172,30.5078125 C560.408201,30.9609398 560.140626,31.6093708 560.023438,32.453125 L564.734375,32.453125 L564.734375,32.1835938 C564.71875,31.43359 564.515627,30.8535177 564.125,30.4433594 C563.734373,30.0332011 563.179691,29.828125 562.460938,29.828125 Z M577.332031,40 C577.17578,39.695311 577.0625,39.3164085 576.992188,38.8632812 C576.171871,39.7773483 575.105475,40.234375 573.792969,40.234375 C572.550775,40.234375 571.521488,39.8750036 570.705078,39.15625 C569.888668,38.4374964 569.480469,37.5312555 569.480469,36.4375 C569.480469,35.0937433 569.978511,34.0625036 570.974609,33.34375 C571.970708,32.6249964 573.410147,32.2617188 575.292969,32.2539062 L576.851562,32.2539062 L576.851562,31.5273438 C576.851562,30.9414033 576.701173,30.472658 576.400391,30.1210938 C576.099608,29.7695295 575.625003,29.59375 574.976562,29.59375 C574.406247,29.59375 573.958986,29.7304674 573.634766,30.0039062 C573.310545,30.2773451 573.148438,30.6523414 573.148438,31.1289062 L569.761719,31.1289062 C569.761719,30.3945276 569.988279,29.7148469 570.441406,29.0898438 C570.894534,28.4648406 571.535152,27.9746112 572.363281,27.6191406 C573.19141,27.2636701 574.121089,27.0859375 575.152344,27.0859375 C576.714852,27.0859375 577.955074,27.4785117 578.873047,28.2636719 C579.79102,29.0488321 580.25,30.1523366 580.25,31.5742188 L580.25,37.0703125 C580.257813,38.2734435 580.42578,39.1835907 580.753906,39.8007812 L580.753906,40 L577.332031,40 Z M574.53125,37.6445312 C575.031252,37.6445312 575.492185,37.5332042 575.914062,37.3105469 C576.33594,37.0878895 576.648436,36.7890644 576.851562,36.4140625 L576.851562,34.234375 L575.585938,34.234375 C573.890617,34.234375 572.988282,34.8203066 572.878906,35.9921875 L572.867188,36.1914062 C572.867188,36.6132834 573.015624,36.9609361 573.3125,37.234375 C573.609376,37.5078139 574.015622,37.6445312 574.53125,37.6445312 Z M589.4375,34.0585938 L582.839844,34.0585938 L582.839844,31.328125 L589.4375,31.328125 L589.4375,34.0585938 Z M596.210938,24.203125 L596.210938,27.3203125 L598.378906,27.3203125 L598.378906,29.8046875 L596.210938,29.8046875 L596.210938,36.1328125 C596.210938,36.6015648 596.30078,36.937499 596.480469,37.140625 C596.660157,37.343751 597.003904,37.4453125 597.511719,37.4453125 C597.886721,37.4453125 598.218749,37.417969 598.507812,37.3632812 L598.507812,39.9296875 C597.843747,40.1328135 597.16016,40.234375 596.457031,40.234375 C594.082019,40.234375 592.871094,39.0351682 592.824219,36.6367188 L592.824219,29.8046875 L590.972656,29.8046875 L590.972656,27.3203125 L592.824219,27.3203125 L592.824219,24.203125 L596.210938,24.203125 Z M599.738281,33.5429688 C599.738281,32.28515 599.980466,31.1640674 600.464844,30.1796875 C600.949221,29.1953076 601.64648,28.4335964 602.556641,27.8945312 C603.466801,27.3554661 604.523431,27.0859375 605.726562,27.0859375 C607.437509,27.0859375 608.833979,27.6093698 609.916016,28.65625 C610.998052,29.7031302 611.601562,31.124991 611.726562,32.921875 L611.75,33.7890625 C611.75,35.7343847 611.207037,37.294916 610.121094,38.4707031 C609.035151,39.6464903 607.578134,40.234375 605.75,40.234375 C603.921866,40.234375 602.462896,39.6484434 601.373047,38.4765625 C600.283198,37.3046816 599.738281,35.7109476 599.738281,33.6953125 L599.738281,33.5429688 Z M603.125,33.7890625 C603.125,34.9921935 603.35156,35.9121062 603.804688,36.5488281 C604.257815,37.1855501 604.906246,37.5039062 605.75,37.5039062 C606.570317,37.5039062 607.210935,37.1894563 607.671875,36.5605469 C608.132815,35.9316375 608.363281,34.9257882 608.363281,33.5429688 C608.363281,32.3632754 608.132815,31.449222 607.671875,30.8007812 C607.210935,30.1523405 606.562504,29.828125 605.726562,29.828125 C604.898433,29.828125 604.257815,30.1503874 603.804688,30.7949219 C603.35156,31.4394563 603.125,32.4374932 603.125,33.7890625 Z M613.308594,33.5429688 C613.308594,32.28515 613.550779,31.1640674 614.035156,30.1796875 C614.519534,29.1953076 615.216792,28.4335964 616.126953,27.8945312 C617.037114,27.3554661 618.093744,27.0859375 619.296875,27.0859375 C621.007821,27.0859375 622.404291,27.6093698 623.486328,28.65625 C624.568365,29.7031302 625.171874,31.124991 625.296875,32.921875 L625.320312,33.7890625 C625.320312,35.7343847 624.777349,37.294916 623.691406,38.4707031 C622.605463,39.6464903 621.148447,40.234375 619.320312,40.234375 C617.492178,40.234375 616.033209,39.6484434 614.943359,38.4765625 C613.85351,37.3046816 613.308594,35.7109476 613.308594,33.6953125 L613.308594,33.5429688 Z M616.695312,33.7890625 C616.695312,34.9921935 616.921873,35.9121062 617.375,36.5488281 C617.828127,37.1855501 618.476558,37.5039062 619.320312,37.5039062 C620.140629,37.5039062 620.781248,37.1894563 621.242188,36.5605469 C621.703127,35.9316375 621.933594,34.9257882 621.933594,33.5429688 C621.933594,32.3632754 621.703127,31.449222 621.242188,30.8007812 C620.781248,30.1523405 620.132817,29.828125 619.296875,29.828125 C618.468746,29.828125 617.828127,30.1503874 617.375,30.7949219 C616.921873,31.4394563 616.695312,32.4374932 616.695312,33.7890625 Z M630.980469,40 L627.582031,40 L627.582031,22 L630.980469,22 L630.980469,40 Z M645.195312,33.7773438 C645.195312,35.8086039 644.761723,37.3925724 643.894531,38.5292969 C643.027339,39.6660213 641.816414,40.234375 640.261719,40.234375 C638.886712,40.234375 637.789067,39.7070365 636.96875,38.6523438 L636.816406,40 L633.769531,40 L633.769531,22 L637.15625,22 L637.15625,28.4570312 C637.937504,27.5429642 638.964837,27.0859375 640.238281,27.0859375 C641.785164,27.0859375 642.998042,27.6542912 643.876953,28.7910156 C644.755864,29.9277401 645.195312,31.5273334 645.195312,33.5898438 L645.195312,33.7773438 Z M641.808594,33.53125 C641.808594,32.2499936 641.605471,31.3144561 641.199219,30.7246094 C640.792967,30.1347627 640.187504,29.8398438 639.382812,29.8398438 C638.304682,29.8398438 637.562502,30.2812456 637.15625,31.1640625 L637.15625,36.1679688 C637.570315,37.0585982 638.320307,37.5039062 639.40625,37.5039062 C640.500005,37.5039062 641.218748,36.9648491 641.5625,35.8867188 C641.726563,35.3710912 641.808594,34.5859428 641.808594,33.53125 Z M654.628906,40 C654.472655,39.695311 654.359375,39.3164085 654.289062,38.8632812 C653.468746,39.7773483 652.40235,40.234375 651.089844,40.234375 C649.84765,40.234375 648.818363,39.8750036 648.001953,39.15625 C647.185543,38.4374964 646.777344,37.5312555 646.777344,36.4375 C646.777344,35.0937433 647.275386,34.0625036 648.271484,33.34375 C649.267583,32.6249964 650.707022,32.2617188 652.589844,32.2539062 L654.148438,32.2539062 L654.148438,31.5273438 C654.148438,30.9414033 653.998048,30.472658 653.697266,30.1210938 C653.396483,29.7695295 652.921878,29.59375 652.273438,29.59375 C651.703122,29.59375 651.255861,29.7304674 650.931641,30.0039062 C650.60742,30.2773451 650.445312,30.6523414 650.445312,31.1289062 L647.058594,31.1289062 C647.058594,30.3945276 647.285154,29.7148469 647.738281,29.0898438 C648.191409,28.4648406 648.832027,27.9746112 649.660156,27.6191406 C650.488285,27.2636701 651.417964,27.0859375 652.449219,27.0859375 C654.011727,27.0859375 655.251949,27.4785117 656.169922,28.2636719 C657.087895,29.0488321 657.546875,30.1523366 657.546875,31.5742188 L657.546875,37.0703125 C657.554688,38.2734435 657.722655,39.1835907 658.050781,39.8007812 L658.050781,40 L654.628906,40 Z M651.828125,37.6445312 C652.328127,37.6445312 652.78906,37.5332042 653.210938,37.3105469 C653.632815,37.0878895 653.945311,36.7890644 654.148438,36.4140625 L654.148438,34.234375 L652.882812,34.234375 C651.187492,34.234375 650.285157,34.8203066 650.175781,35.9921875 L650.164062,36.1914062 C650.164062,36.6132834 650.312499,36.9609361 650.609375,37.234375 C650.906251,37.5078139 651.312497,37.6445312 651.828125,37.6445312 Z M667.273438,30.4960938 C666.812498,30.4335934 666.406252,30.4023438 666.054688,30.4023438 C664.773431,30.4023438 663.933596,30.8359332 663.535156,31.703125 L663.535156,40 L660.148438,40 L660.148438,27.3203125 L663.347656,27.3203125 L663.441406,28.8320312 C664.121097,27.6679629 665.062494,27.0859375 666.265625,27.0859375 C666.640627,27.0859375 666.992186,27.1367182 667.320312,27.2382812 L667.273438,30.4960938 Z M675.816406,32.7226562 L669.007812,30.34375 L669.007812,27.0859375 L679.214844,31.3632812 L679.214844,34.1171875 L669.007812,38.40625 L669.007812,35.1367188 L675.816406,32.7226562 Z" id="&lt;ea-toolbar&gt;&lt;ea-tool" fill="#4B4B4B"></path>
            </g>
        </g>
    </g>
</svg>
