<svg viewBox="0 0 1074 694" xmlns="http://www.w3.org/2000/svg" xmlns:xlink="http://www.w3.org/1999/xlink">
  <defs>
    <path id="a" d="M0 62h193v632H0z"/>
    <rect id="b" x="159" y="129" width="16" height="492" rx="8"/>
    <rect id="c" x="1025" y="129" width="16" height="525" rx="8"/>
  </defs>
  <g fill="none" fill-rule="evenodd">
    <path fill="#D8D8D8" d="M259 157h697v346H259zM0 0h1075v62H0z"/>
    <use fill="#9A9A9A" xlink:href="#a"/>
    <path stroke="#979797" d="M.5 62.5h192v631H.5z"/>
    <path d="M22.614 104.573l5.597 1.974v2.75l-8.455-3.585v-2.318l8.455-3.584v2.75l-5.597 2.013zm12.825 6.265c-1.558 0-2.826-.478-3.805-1.434-.979-.955-1.468-2.229-1.468-3.82v-.275c0-1.067.206-2.02.618-2.862.413-.841.997-1.49 1.753-1.945.756-.455 1.619-.682 2.588-.682 1.453 0 2.597.458 3.432 1.375.835.916 1.252 2.216 1.252 3.898v1.16h-6.766c.092.693.368 1.25.83 1.669.461.419 1.046.628 1.753.628 1.093 0 1.947-.396 2.563-1.188l1.394 1.561c-.425.603-1.001 1.072-1.728 1.41-.727.337-1.532.505-2.416.505zm-.324-8.72c-.563 0-1.02.19-1.37.57-.35.38-.574.923-.673 1.63h3.948v-.226c-.013-.629-.183-1.115-.51-1.459-.328-.343-.793-.515-1.395-.515zm12.462 8.524a3.152 3.152 0 0 1-.285-.953c-.687.766-1.58 1.15-2.68 1.15-1.042 0-1.904-.302-2.588-.904-.685-.603-1.027-1.362-1.027-2.279 0-1.126.418-1.99 1.252-2.592.835-.602 2.041-.907 3.62-.913h1.305v-.61c0-.49-.126-.883-.378-1.178-.252-.294-.65-.442-1.193-.442-.478 0-.853.115-1.124.344-.272.23-.408.544-.408.943h-2.838c0-.616.19-1.185.57-1.709.38-.524.916-.934 1.61-1.232.694-.298 1.473-.447 2.337-.447 1.31 0 2.349.329 3.118.987.77.658 1.154 1.583 1.154 2.774v4.606c.007 1.008.147 1.77.422 2.288v.167h-2.867zm-2.347-1.974c.419 0 .805-.093 1.159-.28.353-.187.615-.437.785-.751v-1.827h-1.06c-1.421 0-2.177.491-2.269 1.473l-.01.167c0 .354.125.645.374.874.248.23.589.344 1.02.344zm12.491-3.005h-5.529v-2.288h5.53v2.288zm1.837-.413c0-1.656.371-2.975 1.114-3.957.743-.982 1.76-1.473 3.05-1.473 1.034 0 1.888.386 2.562 1.159v-5.421h2.848v15.084H66.57l-.137-1.13c-.707.884-1.617 1.326-2.73 1.326-1.25 0-2.254-.492-3.01-1.478-.756-.985-1.134-2.355-1.134-4.11zm2.838.207c0 .995.173 1.758.52 2.288.347.53.851.795 1.512.795.878 0 1.496-.37 1.856-1.11v-4.193c-.353-.74-.965-1.11-1.836-1.11-1.368 0-2.052 1.11-2.052 3.33zm14.907-2.78a7.71 7.71 0 0 0-1.022-.078c-1.073 0-1.777.363-2.11 1.09v6.953h-2.839v-10.626h2.68l.08 1.267c.57-.975 1.358-1.463 2.366-1.463.314 0 .609.042.884.128l-.04 2.73zm7.522 7.965a3.152 3.152 0 0 1-.285-.953c-.687.766-1.58 1.15-2.68 1.15-1.042 0-1.904-.302-2.588-.904-.684-.603-1.027-1.362-1.027-2.279 0-1.126.418-1.99 1.253-2.592.834-.602 2.04-.907 3.618-.913h1.306v-.61c0-.49-.126-.883-.378-1.178-.252-.294-.65-.442-1.193-.442-.478 0-.853.115-1.124.344-.272.23-.408.544-.408.943h-2.838c0-.616.19-1.185.57-1.709.38-.524.916-.934 1.61-1.232.694-.298 1.473-.447 2.337-.447 1.31 0 2.35.329 3.118.987.77.658 1.154 1.583 1.154 2.774v4.606c.007 1.008.148 1.77.423 2.288v.167h-2.868zm-2.347-1.974c.419 0 .805-.093 1.159-.28.353-.187.615-.437.785-.751v-1.827h-1.06c-1.42 0-2.177.491-2.269 1.473l-.01.167c0 .354.125.645.374.874.248.23.589.344 1.021.344zm16.213-1.886l1.395-6.766h2.74l-2.71 10.626h-2.377l-2.014-6.688-2.013 6.688h-2.366l-2.71-10.626h2.74l1.384 6.757 1.944-6.757h2.053l1.934 6.766zm10.43 4.056c-1.559 0-2.827-.478-3.806-1.434-.979-.955-1.468-2.229-1.468-3.82v-.275c0-1.067.206-2.02.618-2.862.413-.841.997-1.49 1.753-1.945.757-.455 1.62-.682 2.588-.682 1.453 0 2.597.458 3.432 1.375.835.916 1.252 2.216 1.252 3.898v1.16h-6.766c.092.693.368 1.25.83 1.669.461.419 1.046.628 1.753.628 1.093 0 1.947-.396 2.563-1.188l1.394 1.561c-.425.603-1.001 1.072-1.728 1.41-.727.337-1.532.505-2.416.505zm-.325-8.72c-.563 0-1.02.19-1.37.57-.35.38-.574.923-.672 1.63h3.947v-.226c-.013-.629-.183-1.115-.51-1.459-.328-.343-.793-.515-1.395-.515zm12.275.56a7.71 7.71 0 0 0-1.02-.079c-1.075 0-1.778.363-2.112 1.09v6.953H115.1v-10.626h2.68l.08 1.267c.569-.975 1.358-1.463 2.366-1.463.314 0 .609.042.884.128l-.04 2.73zm7.16 1.865l-5.706-1.993v-2.73l8.553 3.584v2.308l-8.553 3.594v-2.74l5.705-2.023zM18.857 667.703l5.597 1.974v2.75L16 668.843v-2.318l8.455-3.584v2.75l-5.597 2.013zM27.686 675h-2.111l5.263-15.526h2.112L27.686 675zm11.51-1.031c-1.559 0-2.827-.478-3.806-1.434-.979-.956-1.468-2.23-1.468-3.82v-.275c0-1.067.206-2.021.619-2.863.412-.84.996-1.489 1.752-1.944.757-.455 1.62-.682 2.588-.682 1.454 0 2.598.458 3.432 1.374.835.917 1.252 2.217 1.252 3.899v1.159H36.8c.092.694.368 1.25.83 1.67.462.418 1.046.628 1.753.628 1.093 0 1.948-.396 2.563-1.188l1.394 1.56c-.425.603-1.001 1.073-1.728 1.41-.727.337-1.532.506-2.416.506zm-.325-8.72c-.563 0-1.02.19-1.37.57-.35.379-.574.922-.672 1.63h3.947v-.227c-.013-.628-.183-1.114-.51-1.458-.328-.344-.792-.515-1.395-.515zm12.462 8.523a3.152 3.152 0 0 1-.285-.952c-.687.766-1.58 1.149-2.68 1.149-1.042 0-1.904-.301-2.588-.904-.684-.602-1.026-1.361-1.026-2.278 0-1.126.417-1.99 1.252-2.592.834-.603 2.04-.907 3.618-.914h1.307v-.609c0-.49-.127-.883-.379-1.178-.252-.295-.65-.442-1.193-.442-.478 0-.852.115-1.124.344-.272.229-.408.543-.408.943H44.99c0-.616.19-1.185.57-1.71.38-.523.916-.934 1.61-1.232.694-.297 1.473-.446 2.338-.446 1.309 0 2.348.329 3.118.987.769.657 1.153 1.582 1.153 2.774v4.605c.007 1.009.148 1.771.423 2.289v.166h-2.868zm-2.347-1.973c.42 0 .805-.094 1.159-.28.353-.187.615-.437.786-.752v-1.826H49.87c-1.42 0-2.177.49-2.269 1.473l-.01.167c0 .353.125.645.374.874.249.229.589.344 1.021.344zm12.491-3.005H55.95v-2.288h5.528v2.288zm1.837-.413c0-1.656.371-2.975 1.114-3.957.743-.982 1.76-1.473 3.05-1.473 1.034 0 1.888.386 2.563 1.158v-5.42h2.848v15.083h-2.564l-.137-1.129c-.707.884-1.617 1.326-2.73 1.326-1.25 0-2.254-.493-3.01-1.478-.756-.985-1.134-2.355-1.134-4.11zm2.838.206c0 .996.173 1.758.52 2.289.347.53.851.795 1.513.795.877 0 1.496-.37 1.856-1.11v-4.193c-.354-.74-.966-1.11-1.837-1.11-1.368 0-2.052 1.11-2.052 3.33zm14.907-2.779a7.71 7.71 0 0 0-1.021-.078c-1.074 0-1.778.363-2.112 1.09v6.952h-2.838v-10.625h2.681l.079 1.267c.57-.976 1.358-1.463 2.366-1.463.315 0 .61.042.884.127l-.039 2.73zm7.522 7.964a3.152 3.152 0 0 1-.285-.952c-.687.766-1.58 1.149-2.68 1.149-1.041 0-1.904-.301-2.588-.904-.684-.602-1.026-1.361-1.026-2.278 0-1.126.417-1.99 1.252-2.592.834-.603 2.04-.907 3.619-.914h1.306v-.609c0-.49-.126-.883-.378-1.178-.253-.295-.65-.442-1.194-.442-.478 0-.852.115-1.124.344-.272.229-.408.543-.408.943h-2.838c0-.616.19-1.185.57-1.71.38-.523.917-.934 1.61-1.232.694-.297 1.473-.446 2.338-.446 1.31 0 2.348.329 3.118.987.769.657 1.153 1.582 1.153 2.774v4.605c.007 1.009.148 1.771.423 2.289v.166H88.58zm-2.347-1.973c.42 0 .805-.094 1.159-.28.354-.187.615-.437.786-.752v-1.826h-1.061c-1.42 0-2.177.49-2.268 1.473l-.01.167c0 .353.124.645.373.874.249.229.59.344 1.021.344zm16.213-1.886l1.395-6.766h2.74l-2.71 10.625h-2.377l-2.013-6.687-2.013 6.687h-2.367l-2.71-10.625h2.74l1.384 6.756 1.944-6.756h2.053l1.934 6.766zm10.43 4.056c-1.559 0-2.827-.478-3.806-1.434-.979-.956-1.468-2.23-1.468-3.82v-.275c0-1.067.206-2.021.619-2.863.412-.84.996-1.489 1.753-1.944.756-.455 1.618-.682 2.587-.682 1.454 0 2.598.458 3.432 1.374.835.917 1.252 2.217 1.252 3.899v1.159h-6.766c.092.694.369 1.25.83 1.67.462.418 1.046.628 1.753.628 1.093 0 1.948-.396 2.563-1.188l1.395 1.56c-.426.603-1.002 1.073-1.729 1.41-.726.337-1.532.506-2.416.506zm-.325-8.72c-.563 0-1.02.19-1.37.57-.35.379-.574.922-.672 1.63h3.948v-.227c-.014-.628-.184-1.114-.511-1.458-.327-.344-.792-.515-1.395-.515zm12.276.56a7.71 7.71 0 0 0-1.022-.08c-1.073 0-1.777.364-2.111 1.09v6.953h-2.838v-10.625h2.68l.08 1.267c.569-.976 1.358-1.463 2.366-1.463.314 0 .609.042.884.127l-.04 2.73zm7.159 1.865l-5.706-1.993v-2.73l8.553 3.584v2.308l-8.553 3.594v-2.74l5.706-2.023z" fill="#4B4B4B"/>
    <use fill="#D8D8D8" xlink:href="#b"/>
    <rect stroke="#979797" x="159.5" y="129.5" width="15" height="491" rx="7.5"/>
    <path d="M218.043 88.758l6.68 2.355v3.282l-10.09-4.278v-2.765l10.09-4.278v3.281l-6.68 2.403zm15.305 7.476c-1.86 0-3.373-.57-4.541-1.71-1.168-1.141-1.752-2.66-1.752-4.56v-.327c0-1.274.246-2.412.738-3.416s1.19-1.778 2.092-2.32c.902-.544 1.931-.815 3.088-.815 1.734 0 3.1.547 4.095 1.64.996 1.094 1.494 2.645 1.494 4.653v1.383h-8.074c.11.828.44 1.492.99 1.992.551.5 1.249.75 2.092.75 1.305 0 2.325-.473 3.059-1.418l1.664 1.863c-.508.719-1.195 1.28-2.063 1.682-.867.402-1.828.603-2.882.603zm-.387-10.406c-.672 0-1.217.227-1.635.68-.418.453-.685 1.101-.803 1.945h4.711v-.27c-.015-.75-.218-1.33-.609-1.74-.39-.41-.945-.615-1.664-.615zM247.832 96c-.156-.305-.27-.684-.34-1.137-.82.914-1.887 1.371-3.199 1.371-1.242 0-2.272-.359-3.088-1.078-.816-.719-1.225-1.625-1.225-2.719 0-1.343.499-2.374 1.495-3.093.996-.719 2.435-1.082 4.318-1.09h1.559v-.727c0-.586-.15-1.054-.452-1.406-.3-.351-.775-.527-1.423-.527-.57 0-1.018.136-1.342.41-.324.273-.487.648-.487 1.125h-3.386c0-.734.226-1.414.68-2.04.453-.624 1.093-1.114 1.921-1.47.828-.355 1.758-.533 2.79-.533 1.562 0 2.802.393 3.72 1.178.918.785 1.377 1.888 1.377 3.31v5.496c.008 1.203.176 2.114.504 2.73v.2h-3.422zm-2.8-2.355c.5 0 .96-.112 1.382-.334.422-.223.734-.522.938-.897v-2.18h-1.266c-1.695 0-2.598.586-2.707 1.758l-.012.2c0 .421.149.769.446 1.042.296.274.703.41 1.218.41zm14.905-3.586h-6.597v-2.73h6.597v2.73zm5.895-6.739l.106 1.418c.898-1.101 2.113-1.652 3.644-1.652 1.633 0 2.754.644 3.363 1.934.89-1.29 2.16-1.934 3.809-1.934 1.375 0 2.398.4 3.07 1.201.672.8 1.008 2.006 1.008 3.615V96h-3.398v-8.086c0-.719-.141-1.244-.422-1.576-.282-.332-.778-.498-1.489-.498-1.015 0-1.718.484-2.109 1.453l.012 8.707h-3.387v-8.074c0-.735-.144-1.266-.434-1.594-.289-.328-.78-.492-1.476-.492-.961 0-1.656.398-2.086 1.195V96h-3.387V83.32h3.176zM290.782 96c-.157-.305-.27-.684-.34-1.137-.82.914-1.887 1.371-3.2 1.371-1.242 0-2.271-.359-3.088-1.078-.816-.719-1.224-1.625-1.224-2.719 0-1.343.498-2.374 1.494-3.093.996-.719 2.435-1.082 4.318-1.09h1.559v-.727c0-.586-.15-1.054-.451-1.406-.301-.351-.776-.527-1.424-.527-.57 0-1.018.136-1.342.41-.324.273-.486.648-.486 1.125h-3.387c0-.734.226-1.414.68-2.04.453-.624 1.093-1.114 1.921-1.47.829-.355 1.758-.533 2.79-.533 1.562 0 2.802.393 3.72 1.178.918.785 1.377 1.888 1.377 3.31v5.496c.008 1.203.176 2.114.504 2.73v.2h-3.422zm-2.802-2.355c.5 0 .961-.112 1.383-.334.422-.223.735-.522.938-.897v-2.18h-1.266c-1.695 0-2.597.586-2.707 1.758l-.012.2c0 .421.149.769.446 1.042.297.274.703.41 1.218.41zM299.875 96h-3.398V83.32h3.398V96zm-3.598-15.96c0-.509.17-.927.51-1.255.34-.328.803-.492 1.389-.492.578 0 1.039.164 1.383.492.343.328.515.746.515 1.254 0 .516-.174.938-.521 1.266-.348.328-.807.492-1.377.492s-1.03-.164-1.377-.492c-.348-.328-.522-.75-.522-1.266zm9.504 3.28l.106 1.465c.906-1.133 2.12-1.7 3.644-1.7 1.344 0 2.344.395 3 1.185.657.789.992 1.968 1.008 3.539V96h-3.387v-8.11c0-.718-.156-1.24-.468-1.564-.313-.324-.832-.486-1.559-.486-.953 0-1.668.406-2.145 1.219V96h-3.386V83.32h3.187zm17.239 5.403l-6.81-2.38v-3.257l10.208 4.277v2.754l-10.207 4.29v-3.27l6.809-2.414zM221.043 670.758l6.68 2.355v3.282l-10.09-4.278v-2.765l10.09-4.278v3.281l-6.68 2.403zm10.535 8.707h-2.52l6.282-18.528h2.52l-6.282 18.528zm13.734-1.23c-1.859 0-3.373-.57-4.54-1.712-1.168-1.14-1.752-2.66-1.752-4.558v-.328c0-1.274.246-2.412.738-3.416s1.19-1.778 2.092-2.32c.902-.544 1.931-.815 3.088-.815 1.734 0 3.1.547 4.095 1.64.996 1.094 1.494 2.645 1.494 4.653v1.383h-8.074c.11.828.44 1.492.99 1.992.551.5 1.248.75 2.092.75 1.305 0 2.324-.473 3.059-1.418l1.664 1.863c-.508.719-1.195 1.28-2.063 1.682-.867.402-1.828.603-2.882.603zm-.386-10.407c-.672 0-1.217.227-1.635.68-.418.453-.686 1.101-.803 1.945h4.711v-.27c-.015-.75-.219-1.33-.61-1.74-.39-.41-.944-.615-1.663-.615zM259.796 678c-.155-.305-.269-.684-.339-1.137-.82.914-1.887 1.371-3.2 1.371-1.241 0-2.27-.359-3.087-1.078-.816-.719-1.225-1.625-1.225-2.718 0-1.344.498-2.375 1.494-3.094.997-.719 2.436-1.082 4.319-1.09h1.558v-.727c0-.586-.15-1.054-.45-1.406-.302-.351-.776-.527-1.425-.527-.57 0-1.017.136-1.341.41-.325.273-.487.648-.487 1.125h-3.386c0-.734.226-1.414.68-2.04.452-.624 1.093-1.114 1.921-1.47.828-.355 1.758-.533 2.79-.533 1.562 0 2.802.393 3.72 1.178.918.785 1.377 1.888 1.377 3.31v5.496c.008 1.203.176 2.114.504 2.73v.2h-3.422zm-2.8-2.355c.5 0 .961-.112 1.383-.334.422-.223.734-.522.937-.897v-2.18h-1.265c-1.696 0-2.598.586-2.707 1.758l-.012.2c0 .421.148.769.445 1.042.297.274.703.41 1.22.41zm14.906-3.586h-6.597v-2.73h6.597v2.73zm5.895-6.739l.105 1.418c.899-1.101 2.114-1.652 3.645-1.652 1.633 0 2.754.644 3.363 1.934.89-1.29 2.16-1.934 3.809-1.934 1.375 0 2.398.4 3.07 1.201.672.8 1.008 2.006 1.008 3.615V678h-3.399v-8.086c0-.719-.14-1.244-.421-1.576-.282-.332-.778-.498-1.489-.498-1.015 0-1.718.484-2.11 1.453l.013 8.707h-3.387v-8.074c0-.735-.145-1.266-.434-1.594-.289-.328-.78-.492-1.476-.492-.961 0-1.656.398-2.086 1.195V678h-3.387v-12.68h3.176zm24.95 12.68c-.157-.305-.27-.684-.34-1.137-.821.914-1.887 1.371-3.2 1.371-1.242 0-2.271-.359-3.088-1.078-.816-.719-1.224-1.625-1.224-2.718 0-1.344.498-2.375 1.494-3.094.996-.719 2.435-1.082 4.318-1.09h1.559v-.727c0-.586-.15-1.054-.452-1.406-.3-.351-.775-.527-1.423-.527-.57 0-1.018.136-1.342.41-.324.273-.486.648-.486 1.125h-3.387c0-.734.226-1.414.68-2.04.453-.624 1.093-1.114 1.921-1.47.828-.355 1.758-.533 2.79-.533 1.562 0 2.802.393 3.72 1.178.918.785 1.377 1.888 1.377 3.31v5.496c.008 1.203.176 2.114.504 2.73v.2h-3.422zm-2.802-2.355c.5 0 .961-.112 1.383-.334.422-.223.734-.522.938-.897v-2.18H301c-1.695 0-2.598.586-2.707 1.758l-.012.2c0 .421.149.769.446 1.042.296.274.703.41 1.218.41zM311.84 678h-3.399v-12.68h3.399V678zm-3.598-15.96c0-.509.17-.927.51-1.255.34-.328.803-.492 1.389-.492.578 0 1.039.164 1.382.492.344.328.516.746.516 1.254 0 .516-.174.938-.521 1.266-.348.328-.807.492-1.377.492s-1.03-.164-1.377-.492c-.348-.328-.522-.75-.522-1.266zm9.504 3.28l.106 1.465c.906-1.133 2.12-1.7 3.644-1.7 1.344 0 2.344.395 3 1.185.656.789.992 1.968 1.008 3.539V678h-3.387v-8.11c0-.718-.156-1.24-.469-1.564-.312-.324-.832-.486-1.558-.486-.953 0-1.668.406-2.145 1.219V678h-3.386v-12.68h3.187zm17.238 5.403l-6.808-2.38v-3.257l10.207 4.277v2.754l-10.207 4.29v-3.27l6.808-2.414zM290.043 190.758l6.68 2.355v3.282l-10.09-4.278v-2.765l10.09-4.278v3.281l-6.68 2.403zm15.305 7.476c-1.86 0-3.373-.57-4.541-1.71-1.168-1.141-1.752-2.66-1.752-4.56v-.327c0-1.274.246-2.412.738-3.416s1.19-1.778 2.092-2.32c.902-.544 1.931-.815 3.088-.815 1.734 0 3.1.547 4.095 1.64.996 1.094 1.495 2.645 1.495 4.653v1.383h-8.075c.11.828.44 1.492.99 1.992.551.5 1.249.75 2.092.75 1.305 0 2.325-.473 3.059-1.418l1.664 1.863c-.508.719-1.195 1.28-2.063 1.682-.867.402-1.828.603-2.882.603zm-.387-10.406c-.672 0-1.217.227-1.635.68-.418.453-.685 1.101-.803 1.945h4.711v-.27c-.015-.75-.218-1.33-.609-1.74-.39-.41-.945-.615-1.664-.615zM319.832 198c-.156-.305-.27-.684-.34-1.137-.82.914-1.887 1.371-3.199 1.371-1.242 0-2.272-.359-3.088-1.078-.816-.719-1.225-1.625-1.225-2.719 0-1.343.499-2.374 1.495-3.093.996-.719 2.435-1.082 4.318-1.09h1.559v-.727c0-.586-.15-1.054-.452-1.406-.3-.351-.775-.527-1.423-.527-.57 0-1.018.136-1.342.41-.324.273-.487.648-.487 1.125h-3.386c0-.734.226-1.414.68-2.04.453-.624 1.093-1.114 1.921-1.47.828-.355 1.758-.533 2.79-.533 1.562 0 2.802.393 3.72 1.178.918.785 1.377 1.888 1.377 3.31v5.496c.008 1.203.176 2.114.504 2.73v.2h-3.422zm-2.8-2.355c.5 0 .96-.112 1.382-.334.422-.223.734-.522.938-.897v-2.18h-1.266c-1.695 0-2.598.586-2.707 1.758l-.012.2c0 .421.149.769.445 1.042.297.274.704.41 1.22.41zm14.906-3.586h-6.598v-2.73h6.598v2.73zm14.144-.282c0 2.032-.434 3.616-1.3 4.752-.868 1.137-2.079 1.705-3.634 1.705-1.375 0-2.472-.527-3.293-1.582l-.152 1.348h-3.047v-18h3.387v6.457c.781-.914 1.809-1.371 3.082-1.371 1.547 0 2.76.568 3.639 1.705s1.318 2.736 1.318 4.799v.187zm-3.387-.246c0-1.281-.203-2.217-.61-2.806-.405-.59-1.01-.885-1.815-.885-1.079 0-1.82.441-2.227 1.324v5.004c.414.89 1.164 1.336 2.25 1.336 1.094 0 1.812-.54 2.156-1.617.164-.516.246-1.301.246-2.356zm4.946.012c0-1.258.242-2.379.726-3.363.485-.985 1.182-1.746 2.092-2.285.91-.54 1.967-.81 3.17-.81 1.71 0 3.107.524 4.19 1.571 1.081 1.047 1.685 2.469 1.81 4.266l.023.867c0 1.945-.543 3.506-1.629 4.682-1.086 1.175-2.543 1.763-4.37 1.763-1.829 0-3.288-.586-4.378-1.757-1.09-1.172-1.634-2.766-1.634-4.782v-.152zm3.386.246c0 1.203.227 2.123.68 2.76.453.637 1.102.955 1.945.955.82 0 1.461-.315 1.922-.943.461-.63.692-1.635.692-3.018 0-1.18-.23-2.094-.692-2.742-.46-.649-1.11-.973-1.945-.973-.828 0-1.469.322-1.922.967-.453.644-.68 1.642-.68 2.994zm10.184-.223c0-1.976.443-3.55 1.33-4.722.887-1.172 2.1-1.758 3.639-1.758 1.234 0 2.254.46 3.058 1.383V180h3.399v18h-3.059l-.164-1.348c-.844 1.055-1.93 1.582-3.258 1.582-1.492 0-2.69-.588-3.592-1.763-.902-1.176-1.353-2.81-1.353-4.905zm3.387.246c0 1.188.207 2.098.62 2.731.415.633 1.016.95 1.805.95 1.047 0 1.786-.442 2.215-1.325v-5.004c-.422-.883-1.152-1.324-2.191-1.324-1.633 0-2.45 1.324-2.45 3.972zm15.398 1.395l2.344-7.887h3.633l-5.098 14.649-.281.668c-.758 1.656-2.008 2.484-3.75 2.484-.492 0-.992-.074-1.5-.223v-2.566l.515.012c.641 0 1.12-.098 1.436-.293.316-.196.564-.52.744-.973l.399-1.043-4.442-12.715h3.645l2.355 7.887zm14.227-2.484l-6.809-2.38v-3.257l10.207 4.277v2.754l-10.207 4.29v-3.27l6.809-2.414zm-104.18 280.035l6.68 2.355v3.282l-10.09-4.278v-2.765l10.09-4.278v3.281l-6.68 2.403zm10.535 8.707h-2.52l6.282-18.527h2.52l-6.282 18.527zm13.735-1.23c-1.86 0-3.374-.57-4.542-1.712-1.167-1.14-1.751-2.66-1.751-4.558v-.328c0-1.274.246-2.412.738-3.416s1.19-1.778 2.092-2.32c.902-.544 1.931-.815 3.087-.815 1.735 0 3.1.547 4.096 1.64.996 1.094 1.494 2.645 1.494 4.653v1.383h-8.074c.11.828.44 1.492.99 1.992.551.5 1.248.75 2.092.75 1.305 0 2.324-.473 3.059-1.418l1.664 1.863c-.508.719-1.195 1.28-2.063 1.682-.867.402-1.828.603-2.882.603zm-.387-10.407c-.672 0-1.217.227-1.635.68-.418.453-.686 1.101-.803 1.945h4.711v-.27c-.015-.75-.219-1.33-.61-1.74-.39-.41-.944-.615-1.663-.615zM328.796 478c-.155-.305-.269-.684-.339-1.137-.82.914-1.887 1.371-3.2 1.371-1.241 0-2.27-.359-3.087-1.078-.816-.719-1.225-1.625-1.225-2.719 0-1.343.498-2.374 1.494-3.093.997-.719 2.436-1.082 4.319-1.09h1.558v-.727c0-.586-.15-1.054-.45-1.406-.302-.351-.776-.527-1.425-.527-.57 0-1.017.136-1.341.41-.325.273-.487.648-.487 1.125h-3.386c0-.734.226-1.414.68-2.04.452-.624 1.093-1.114 1.921-1.47.828-.355 1.758-.533 2.79-.533 1.562 0 2.802.393 3.72 1.178.918.785 1.377 1.888 1.377 3.31v5.496c.008 1.203.176 2.114.504 2.73v.2h-3.422zm-2.8-2.355c.5 0 .961-.112 1.383-.334.422-.223.734-.522.937-.897v-2.18h-1.265c-1.696 0-2.598.586-2.707 1.758l-.012.2c0 .421.148.769.445 1.042.297.274.703.41 1.22.41zm14.906-3.586h-6.597v-2.73h6.597v2.73zm14.145-.282c0 2.032-.434 3.616-1.3 4.752-.868 1.137-2.079 1.705-3.634 1.705-1.375 0-2.472-.527-3.293-1.582l-.152 1.348h-3.047v-18h3.387v6.457c.781-.914 1.808-1.371 3.082-1.371 1.547 0 2.76.568 3.639 1.705.878 1.137 1.318 2.736 1.318 4.799v.187zm-3.387-.246c0-1.281-.203-2.217-.61-2.806-.405-.59-1.01-.885-1.816-.885-1.078 0-1.82.441-2.226 1.324v5.004c.414.89 1.164 1.336 2.25 1.336 1.094 0 1.812-.54 2.156-1.617.164-.516.246-1.301.246-2.356zm4.945.012c0-1.258.243-2.379.727-3.363.484-.985 1.182-1.746 2.092-2.285.91-.54 1.967-.81 3.17-.81 1.71 0 3.107.524 4.19 1.571 1.081 1.047 1.685 2.469 1.81 4.266l.023.867c0 1.945-.543 3.506-1.629 4.682-1.086 1.175-2.543 1.763-4.37 1.763-1.829 0-3.288-.586-4.378-1.757-1.09-1.172-1.635-2.766-1.635-4.782v-.152zm3.387.246c0 1.203.227 2.123.68 2.76.453.637 1.101.955 1.945.955.82 0 1.461-.315 1.922-.943.461-.63.691-1.635.691-3.018 0-1.18-.23-2.094-.69-2.742-.462-.649-1.11-.973-1.946-.973-.828 0-1.469.322-1.922.967-.453.644-.68 1.642-.68 2.994zm10.184-.223c0-1.976.443-3.55 1.33-4.722.887-1.172 2.1-1.758 3.639-1.758 1.234 0 2.253.46 3.058 1.383V460h3.399v18h-3.059l-.164-1.348c-.844 1.055-1.93 1.582-3.258 1.582-1.492 0-2.69-.588-3.592-1.763-.902-1.176-1.353-2.81-1.353-4.905zm3.387.247c0 1.187.207 2.097.62 2.73.415.633 1.016.95 1.805.95 1.047 0 1.785-.442 2.215-1.325v-5.004c-.422-.883-1.152-1.324-2.191-1.324-1.633 0-2.45 1.324-2.45 3.973zm15.398 1.394l2.344-7.887h3.632l-5.097 14.649-.281.668c-.758 1.656-2.008 2.484-3.75 2.484-.493 0-.993-.074-1.5-.223v-2.566l.515.012c.64 0 1.12-.098 1.436-.293.316-.196.564-.52.744-.973l.398-1.043-4.441-12.715h3.644l2.356 7.887zm14.226-2.484l-6.808-2.38v-3.257l10.207 4.277v2.754l-10.207 4.29v-3.27l6.808-2.414z" fill="#4B4B4B"/>
    <path fill="#D8D8D8" d="M261 551h696v94H261z"/>
    <path d="M283.043 576.758l6.68 2.355v3.282l-10.09-4.278v-2.765l10.09-4.278v3.281l-6.68 2.403zm15.305 7.476c-1.86 0-3.373-.57-4.541-1.71-1.168-1.141-1.752-2.66-1.752-4.56v-.327c0-1.274.246-2.412.738-3.416s1.19-1.778 2.092-2.32c.902-.544 1.931-.815 3.088-.815 1.734 0 3.1.547 4.095 1.64.996 1.094 1.495 2.645 1.495 4.653v1.383h-8.075c.11.828.44 1.492.99 1.992.551.5 1.249.75 2.092.75 1.305 0 2.325-.473 3.059-1.418l1.664 1.863c-.508.719-1.195 1.28-2.063 1.682-.867.402-1.828.603-2.882.603zm-.387-10.406c-.672 0-1.217.227-1.635.68-.418.453-.685 1.101-.803 1.945h4.711v-.27c-.015-.75-.218-1.33-.609-1.74-.39-.41-.945-.615-1.664-.615zM312.832 584c-.156-.305-.27-.684-.34-1.137-.82.914-1.887 1.371-3.199 1.371-1.242 0-2.272-.359-3.088-1.078-.816-.719-1.225-1.625-1.225-2.718 0-1.344.499-2.375 1.495-3.094.996-.719 2.435-1.082 4.318-1.09h1.559v-.727c0-.586-.15-1.054-.452-1.406-.3-.351-.775-.527-1.423-.527-.57 0-1.018.136-1.342.41-.324.273-.487.648-.487 1.125h-3.386c0-.734.226-1.414.68-2.04.453-.624 1.093-1.114 1.921-1.47.828-.355 1.758-.533 2.79-.533 1.562 0 2.802.393 3.72 1.178.918.785 1.377 1.888 1.377 3.31v5.496c.008 1.203.176 2.114.504 2.73v.2h-3.422zm-2.8-2.355c.5 0 .96-.112 1.382-.334.422-.223.734-.522.938-.897v-2.18h-1.266c-1.695 0-2.598.586-2.707 1.758l-.012.2c0 .421.149.769.445 1.042.297.274.704.41 1.22.41zm14.906-3.586h-6.598v-2.73h6.598v2.73zm3.644 5.941v-10.195h-1.887v-2.485h1.887v-1.078c0-1.422.408-2.525 1.225-3.31.816-.786 1.959-1.178 3.427-1.178.47 0 1.043.078 1.723.234l-.035 2.625a4.318 4.318 0 0 0-1.031-.105c-1.274 0-1.91.597-1.91 1.793v1.02h2.519v2.484h-2.52V584h-3.398zm7.148-6.457c0-1.258.243-2.379.727-3.363.484-.985 1.182-1.746 2.092-2.285.91-.54 1.967-.81 3.17-.81 1.71 0 3.107.524 4.19 1.571 1.081 1.047 1.685 2.469 1.81 4.266l.023.867c0 1.945-.543 3.506-1.629 4.682-1.086 1.175-2.543 1.763-4.37 1.763-1.829 0-3.288-.586-4.378-1.757-1.09-1.172-1.635-2.766-1.635-4.782v-.152zm3.387.246c0 1.203.227 2.123.68 2.76.453.637 1.101.955 1.945.955.82 0 1.461-.315 1.922-.943.461-.63.691-1.635.691-3.018 0-1.18-.23-2.094-.69-2.742-.462-.649-1.11-.973-1.946-.973-.828 0-1.469.322-1.922.967-.453.644-.68 1.642-.68 2.994zm10.184-.246c0-1.258.242-2.379.726-3.363.485-.985 1.182-1.746 2.092-2.285.91-.54 1.967-.81 3.17-.81 1.711 0 3.107.524 4.19 1.571 1.082 1.047 1.685 2.469 1.81 4.266l.024.867c0 1.945-.543 3.506-1.63 4.682-1.085 1.175-2.542 1.763-4.37 1.763-1.829 0-3.288-.586-4.377-1.757-1.09-1.172-1.635-2.766-1.635-4.782v-.152zm3.387.246c0 1.203.226 2.123.68 2.76.452.637 1.1.955 1.945.955.82 0 1.46-.315 1.921-.943.461-.63.692-1.635.692-3.018 0-1.18-.23-2.094-.692-2.742-.46-.649-1.109-.973-1.945-.973-.828 0-1.469.322-1.922.967-.453.644-.68 1.642-.68 2.994zm14.765-9.586v3.117h2.168v2.485h-2.168v6.328c0 .469.09.804.27 1.008.18.203.523.304 1.03.304a5.4 5.4 0 0 0 .997-.082v2.567a6.972 6.972 0 0 1-2.05.304c-2.376 0-3.587-1.199-3.634-3.597v-6.832h-1.851v-2.485h1.851v-3.117h3.387zm9.89 16.031c-1.859 0-3.372-.57-4.54-1.71-1.168-1.141-1.752-2.66-1.752-4.56v-.327c0-1.274.246-2.412.738-3.416s1.19-1.778 2.092-2.32c.902-.544 1.931-.815 3.088-.815 1.734 0 3.1.547 4.095 1.64.997 1.094 1.495 2.645 1.495 4.653v1.383h-8.075c.11.828.44 1.492.99 1.992.551.5 1.249.75 2.092.75 1.305 0 2.325-.473 3.059-1.418l1.664 1.863c-.508.719-1.195 1.28-2.062 1.682-.868.402-1.829.603-2.883.603zm-.386-10.406c-.672 0-1.217.227-1.635.68-.418.453-.685 1.101-.802 1.945h4.71v-.27c-.015-.75-.218-1.33-.609-1.74-.39-.41-.945-.615-1.664-.615zm14.648.668a9.2 9.2 0 0 0-1.218-.094c-1.282 0-2.121.434-2.52 1.301V584h-3.387v-12.68h3.2l.093 1.512c.68-1.164 1.622-1.746 2.825-1.746.375 0 .726.05 1.054.152l-.047 3.258zm8.543 2.227l-6.808-2.38v-3.257l10.207 4.277v2.754l-10.207 4.29v-3.27l6.808-2.414zm-117.105 44.035l6.68 2.355v3.282l-10.09-4.278v-2.765l10.09-4.278v3.281l-6.68 2.403zm10.535 8.707h-2.52l6.282-18.528h2.52l-6.282 18.528zm13.735-1.23c-1.86 0-3.374-.57-4.542-1.712-1.167-1.14-1.751-2.66-1.751-4.558v-.328c0-1.274.246-2.412.738-3.416s1.19-1.778 2.092-2.32c.902-.544 1.931-.815 3.087-.815 1.735 0 3.1.547 4.096 1.64.996 1.094 1.494 2.645 1.494 4.653v1.383h-8.074c.11.828.44 1.492.99 1.992.551.5 1.248.75 2.092.75 1.305 0 2.324-.473 3.059-1.418l1.664 1.863c-.508.719-1.195 1.28-2.063 1.682-.867.402-1.828.603-2.882.603zm-.387-10.407c-.672 0-1.217.227-1.635.68-.418.453-.686 1.101-.803 1.945h4.711v-.27c-.015-.75-.219-1.33-.61-1.74-.39-.41-.944-.615-1.663-.615zM321.796 628c-.155-.305-.269-.684-.339-1.137-.82.914-1.887 1.371-3.2 1.371-1.241 0-2.27-.359-3.087-1.078-.816-.719-1.225-1.625-1.225-2.718 0-1.344.498-2.375 1.494-3.094.997-.719 2.436-1.082 4.319-1.09h1.558v-.727c0-.586-.15-1.054-.45-1.406-.302-.351-.776-.527-1.425-.527-.57 0-1.017.136-1.341.41-.325.273-.487.648-.487 1.125h-3.386c0-.734.226-1.414.68-2.04.452-.624 1.093-1.114 1.921-1.47.828-.355 1.758-.533 2.79-.533 1.562 0 2.802.393 3.72 1.178.918.785 1.377 1.888 1.377 3.31v5.496c.008 1.203.176 2.114.504 2.73v.2h-3.422zm-2.8-2.355c.5 0 .961-.112 1.383-.334.422-.223.734-.522.937-.897v-2.18h-1.265c-1.696 0-2.598.586-2.707 1.758l-.012.2c0 .421.148.769.445 1.042.297.274.703.41 1.22.41zm14.906-3.586h-6.597v-2.73h6.597v2.73zm3.645 5.941v-10.195h-1.887v-2.485h1.887v-1.078c0-1.422.408-2.525 1.224-3.31.817-.786 1.96-1.178 3.428-1.178.469 0 1.043.078 1.723.234l-.035 2.625a4.318 4.318 0 0 0-1.032-.105c-1.273 0-1.91.597-1.91 1.793v1.02h2.52v2.484h-2.52V628h-3.398zm7.148-6.457c0-1.258.242-2.379.727-3.363.484-.985 1.182-1.746 2.092-2.285.91-.54 1.966-.81 3.17-.81 1.71 0 3.107.524 4.189 1.571 1.082 1.047 1.686 2.469 1.81 4.266l.024.867c0 1.945-.543 3.506-1.629 4.682-1.086 1.175-2.543 1.763-4.371 1.763-1.828 0-3.287-.586-4.377-1.757-1.09-1.172-1.635-2.766-1.635-4.782v-.152zm3.387.246c0 1.203.227 2.123.68 2.76.453.637 1.101.955 1.945.955.82 0 1.461-.315 1.922-.943.46-.63.691-1.635.691-3.018 0-1.18-.23-2.094-.691-2.742-.461-.649-1.11-.973-1.945-.973-.829 0-1.47.322-1.922.967-.453.644-.68 1.642-.68 2.994zm10.184-.246c0-1.258.242-2.379.726-3.363.485-.985 1.182-1.746 2.092-2.285.91-.54 1.967-.81 3.17-.81 1.71 0 3.107.524 4.19 1.571 1.081 1.047 1.685 2.469 1.81 4.266l.023.867c0 1.945-.543 3.506-1.629 4.682-1.086 1.175-2.543 1.763-4.37 1.763-1.829 0-3.288-.586-4.378-1.757-1.09-1.172-1.634-2.766-1.634-4.782v-.152zm3.386.246c0 1.203.227 2.123.68 2.76.453.637 1.102.955 1.945.955.82 0 1.461-.315 1.922-.943.461-.63.692-1.635.692-3.018 0-1.18-.23-2.094-.692-2.742-.46-.649-1.11-.973-1.945-.973-.828 0-1.469.322-1.922.967-.453.644-.68 1.642-.68 2.994zm14.766-9.586v3.117h2.168v2.485h-2.168v6.328c0 .469.09.804.27 1.008.18.203.523.304 1.03.304a5.4 5.4 0 0 0 .997-.082v2.567a6.972 6.972 0 0 1-2.05.304c-2.376 0-3.587-1.199-3.634-3.597v-6.832h-1.851v-2.485h1.851v-3.117h3.387zm9.89 16.031c-1.859 0-3.372-.57-4.54-1.71-1.168-1.141-1.752-2.66-1.752-4.56v-.327c0-1.274.246-2.412.738-3.416s1.19-1.778 2.092-2.32c.902-.544 1.931-.815 3.088-.815 1.734 0 3.1.547 4.095 1.64.996 1.094 1.494 2.645 1.494 4.653v1.383h-8.074c.11.828.44 1.492.99 1.992.551.5 1.248.75 2.092.75 1.305 0 2.324-.473 3.059-1.418l1.664 1.863c-.508.719-1.195 1.28-2.063 1.682-.867.402-1.828.603-2.882.603zm-.386-10.406c-.672 0-1.217.227-1.635.68-.418.453-.685 1.101-.803 1.945h4.711v-.27c-.015-.75-.218-1.33-.61-1.74-.39-.41-.944-.615-1.663-.615zm14.648.668a9.2 9.2 0 0 0-1.218-.094c-1.282 0-2.122.434-2.52 1.301V628h-3.387v-12.68h3.2l.093 1.512c.68-1.164 1.621-1.746 2.825-1.746.375 0 .726.05 1.054.152l-.047 3.258zm8.543 2.227l-6.808-2.38v-3.257l10.207 4.277v2.754l-10.207 4.29v-3.27l6.808-2.414z" fill="#4B4B4B"/>
    <g>
      <use fill="#838383" xlink:href="#c"/>
      <rect stroke="#979797" x="1025.5" y="129.5" width="15" height="524" rx="7.5"/>
    </g>
    <path d="M411.043 32.758l6.68 2.355v3.282l-10.09-4.278v-2.765l10.09-4.278v3.281l-6.68 2.403zm15.305 7.476c-1.86 0-3.373-.57-4.541-1.71-1.168-1.141-1.752-2.66-1.752-4.56v-.327c0-1.274.246-2.412.738-3.416s1.19-1.778 2.092-2.32c.902-.544 1.931-.815 3.088-.815 1.734 0 3.1.547 4.095 1.64.996 1.094 1.495 2.645 1.495 4.653v1.383h-8.075c.11.828.44 1.492.99 1.992.551.5 1.249.75 2.092.75 1.305 0 2.325-.473 3.059-1.418l1.664 1.863c-.508.719-1.195 1.28-2.063 1.682-.867.402-1.828.603-2.882.603zm-.387-10.406c-.672 0-1.217.227-1.635.68-.418.453-.685 1.101-.803 1.945h4.711v-.27c-.015-.75-.218-1.33-.609-1.74-.39-.41-.945-.615-1.664-.615zM440.832 40c-.156-.305-.27-.684-.34-1.137-.82.914-1.887 1.371-3.199 1.371-1.242 0-2.272-.359-3.088-1.078-.816-.719-1.225-1.625-1.225-2.718 0-1.344.499-2.375 1.495-3.094.996-.719 2.435-1.082 4.318-1.09h1.559v-.727c0-.586-.15-1.054-.452-1.406-.3-.351-.775-.527-1.423-.527-.57 0-1.018.136-1.342.41-.324.273-.487.648-.487 1.125h-3.386c0-.734.226-1.414.68-2.04.453-.624 1.093-1.114 1.921-1.47.828-.355 1.758-.533 2.79-.533 1.562 0 2.802.393 3.72 1.178.918.785 1.377 1.888 1.377 3.31v5.496c.008 1.203.176 2.114.504 2.73v.2h-3.422zm-2.8-2.355c.5 0 .96-.112 1.382-.334.422-.223.734-.522.938-.897v-2.18h-1.266c-1.695 0-2.598.586-2.707 1.758l-.012.2c0 .421.149.769.445 1.042.297.274.704.41 1.22.41zm14.906-3.586h-6.598v-2.73h6.598v2.73zm6.773-9.856v3.117h2.168v2.485h-2.168v6.328c0 .469.09.804.27 1.008.18.203.523.304 1.03.304a5.4 5.4 0 0 0 .997-.082v2.567a6.972 6.972 0 0 1-2.051.304c-2.375 0-3.586-1.199-3.633-3.597v-6.832h-1.851V27.32h1.851v-3.117h3.387zm3.527 9.34c0-1.258.242-2.379.727-3.363.484-.985 1.181-1.746 2.092-2.285.91-.54 1.966-.81 3.17-.81 1.71 0 3.107.524 4.189 1.571 1.082 1.047 1.686 2.469 1.81 4.266l.024.867c0 1.945-.543 3.506-1.629 4.682-1.086 1.175-2.543 1.763-4.371 1.763-1.828 0-3.287-.586-4.377-1.757-1.09-1.172-1.635-2.766-1.635-4.782v-.152zm3.387.246c0 1.203.227 2.123.68 2.76.453.637 1.101.955 1.945.955.82 0 1.46-.315 1.922-.943.46-.63.691-1.635.691-3.018 0-1.18-.23-2.094-.691-2.742-.461-.649-1.11-.973-1.945-.973-.829 0-1.47.322-1.922.967-.453.644-.68 1.642-.68 2.994zm10.184-.246c0-1.258.242-2.379.726-3.363.485-.985 1.182-1.746 2.092-2.285.91-.54 1.967-.81 3.17-.81 1.71 0 3.107.524 4.19 1.571 1.081 1.047 1.685 2.469 1.81 4.266l.023.867c0 1.945-.543 3.506-1.629 4.682-1.086 1.175-2.543 1.763-4.37 1.763-1.829 0-3.288-.586-4.378-1.757-1.09-1.172-1.634-2.766-1.634-4.782v-.152zm3.386.246c0 1.203.227 2.123.68 2.76.453.637 1.102.955 1.945.955.82 0 1.461-.315 1.922-.943.461-.63.692-1.635.692-3.018 0-1.18-.23-2.094-.692-2.742-.46-.649-1.11-.973-1.945-.973-.828 0-1.469.322-1.922.967-.453.644-.68 1.642-.68 2.994zM494.48 40h-3.398V22h3.398v18zm14.215-6.223c0 2.032-.433 3.616-1.3 4.752-.868 1.137-2.079 1.705-3.633 1.705-1.375 0-2.473-.527-3.293-1.582L500.316 40h-3.046V22h3.386v6.457c.782-.914 1.809-1.371 3.082-1.371 1.547 0 2.76.568 3.639 1.705s1.318 2.736 1.318 4.799v.187zm-3.386-.246c0-1.281-.204-2.217-.61-2.806-.406-.59-1.011-.885-1.816-.885-1.078 0-1.82.441-2.227 1.324v5.004c.414.89 1.164 1.336 2.25 1.336 1.094 0 1.813-.54 2.156-1.617.165-.516.247-1.301.247-2.356zM518.129 40c-.156-.305-.27-.684-.34-1.137-.82.914-1.887 1.371-3.2 1.371-1.241 0-2.27-.359-3.087-1.078-.816-.719-1.225-1.625-1.225-2.718 0-1.344.498-2.375 1.494-3.094.997-.719 2.436-1.082 4.319-1.09h1.558v-.727c0-.586-.15-1.054-.45-1.406-.302-.351-.776-.527-1.425-.527-.57 0-1.017.136-1.341.41-.325.273-.487.648-.487 1.125h-3.386c0-.734.226-1.414.68-2.04.452-.624 1.093-1.114 1.921-1.47.828-.355 1.758-.533 2.79-.533 1.562 0 2.802.393 3.72 1.178.918.785 1.377 1.888 1.377 3.31v5.496c.008 1.203.176 2.114.504 2.73v.2h-3.422zm-2.8-2.355c.5 0 .96-.112 1.382-.334.422-.223.734-.522.937-.897v-2.18h-1.265c-1.696 0-2.598.586-2.707 1.758l-.012.2c0 .421.148.769.445 1.042.297.274.703.41 1.22.41zm15.444-7.149a9.2 9.2 0 0 0-1.218-.094c-1.282 0-2.121.434-2.52 1.301V40h-3.387V27.32h3.2l.093 1.512c.68-1.164 1.621-1.746 2.825-1.746.375 0 .726.05 1.054.152l-.047 3.258zm8.543 2.227l-6.808-2.38v-3.257l10.207 4.277v2.754l-10.207 4.29v-3.27l6.808-2.414zm8.227.035l6.68 2.355v3.282l-10.09-4.278v-2.765l10.09-4.278v3.281l-6.68 2.403zm15.305 7.476c-1.86 0-3.373-.57-4.541-1.71-1.168-1.141-1.752-2.66-1.752-4.56v-.327c0-1.274.246-2.412.738-3.416s1.19-1.778 2.092-2.32c.902-.544 1.931-.815 3.088-.815 1.734 0 3.1.547 4.095 1.64.996 1.094 1.495 2.645 1.495 4.653v1.383h-8.075c.11.828.44 1.492.99 1.992.551.5 1.249.75 2.092.75 1.305 0 2.325-.473 3.059-1.418l1.664 1.863c-.508.719-1.195 1.28-2.063 1.682-.867.402-1.828.603-2.882.603zm-.387-10.406c-.672 0-1.217.227-1.635.68-.418.453-.685 1.101-.803 1.945h4.711v-.27c-.015-.75-.218-1.33-.609-1.74-.39-.41-.945-.615-1.664-.615zM577.332 40c-.156-.305-.27-.684-.34-1.137-.82.914-1.887 1.371-3.199 1.371-1.242 0-2.272-.359-3.088-1.078-.816-.719-1.225-1.625-1.225-2.718 0-1.344.499-2.375 1.495-3.094.996-.719 2.435-1.082 4.318-1.09h1.559v-.727c0-.586-.15-1.054-.452-1.406-.3-.351-.775-.527-1.423-.527-.57 0-1.018.136-1.342.41-.324.273-.487.648-.487 1.125h-3.386c0-.734.226-1.414.68-2.04.453-.624 1.093-1.114 1.921-1.47.828-.355 1.758-.533 2.79-.533 1.562 0 2.802.393 3.72 1.178.918.785 1.377 1.888 1.377 3.31v5.496c.008 1.203.176 2.114.504 2.73v.2h-3.422zm-2.8-2.355c.5 0 .96-.112 1.382-.334.422-.223.734-.522.938-.897v-2.18h-1.266c-1.695 0-2.598.586-2.707 1.758l-.012.2c0 .421.149.769.446 1.042.296.274.703.41 1.218.41zm14.905-3.586h-6.597v-2.73h6.597v2.73zm6.774-9.856v3.117h2.168v2.485h-2.168v6.328c0 .469.09.804.27 1.008.18.203.523.304 1.03.304a5.4 5.4 0 0 0 .997-.082v2.567a6.972 6.972 0 0 1-2.051.304c-2.375 0-3.586-1.199-3.633-3.597v-6.832h-1.851V27.32h1.851v-3.117h3.387zm3.527 9.34c0-1.258.242-2.379.727-3.363.484-.985 1.181-1.746 2.092-2.285.91-.54 1.966-.81 3.17-.81 1.71 0 3.107.524 4.189 1.571 1.082 1.047 1.686 2.469 1.81 4.266l.024.867c0 1.945-.543 3.506-1.629 4.682-1.086 1.175-2.543 1.763-4.371 1.763-1.828 0-3.287-.586-4.377-1.757-1.09-1.172-1.635-2.766-1.635-4.782v-.152zm3.387.246c0 1.203.227 2.123.68 2.76.453.637 1.101.955 1.945.955.82 0 1.46-.315 1.922-.943.46-.63.691-1.635.691-3.018 0-1.18-.23-2.094-.691-2.742-.461-.649-1.11-.973-1.945-.973-.829 0-1.47.322-1.922.967-.453.644-.68 1.642-.68 2.994zm10.184-.246c0-1.258.242-2.379.726-3.363.485-.985 1.182-1.746 2.092-2.285.91-.54 1.967-.81 3.17-.81 1.71 0 3.107.524 4.19 1.571 1.081 1.047 1.685 2.469 1.81 4.266l.023.867c0 1.945-.543 3.506-1.629 4.682-1.086 1.175-2.543 1.763-4.37 1.763-1.829 0-3.288-.586-4.378-1.757-1.09-1.172-1.634-2.766-1.634-4.782v-.152zm3.386.246c0 1.203.227 2.123.68 2.76.453.637 1.102.955 1.945.955.82 0 1.461-.315 1.922-.943.461-.63.692-1.635.692-3.018 0-1.18-.23-2.094-.692-2.742-.46-.649-1.11-.973-1.945-.973-.828 0-1.469.322-1.922.967-.453.644-.68 1.642-.68 2.994zM630.98 40h-3.398V22h3.398v18zm14.215-6.223c0 2.032-.433 3.616-1.3 4.752-.868 1.137-2.079 1.705-3.633 1.705-1.375 0-2.473-.527-3.293-1.582L636.816 40h-3.046V22h3.386v6.457c.782-.914 1.809-1.371 3.082-1.371 1.547 0 2.76.568 3.639 1.705s1.318 2.736 1.318 4.799v.187zm-3.386-.246c0-1.281-.204-2.217-.61-2.806-.406-.59-1.011-.885-1.816-.885-1.078 0-1.82.441-2.227 1.324v5.004c.414.89 1.164 1.336 2.25 1.336 1.094 0 1.813-.54 2.157-1.617.164-.516.246-1.301.246-2.356zM654.629 40c-.156-.305-.27-.684-.34-1.137-.82.914-1.887 1.371-3.2 1.371-1.241 0-2.27-.359-3.087-1.078-.816-.719-1.225-1.625-1.225-2.718 0-1.344.498-2.375 1.494-3.094.997-.719 2.436-1.082 4.319-1.09h1.558v-.727c0-.586-.15-1.054-.45-1.406-.302-.351-.776-.527-1.425-.527-.57 0-1.017.136-1.341.41-.325.273-.487.648-.487 1.125h-3.386c0-.734.226-1.414.68-2.04.452-.624 1.093-1.114 1.921-1.47.828-.355 1.758-.533 2.79-.533 1.562 0 2.802.393 3.72 1.178.918.785 1.377 1.888 1.377 3.31v5.496c.008 1.203.176 2.114.504 2.73v.2h-3.422zm-2.8-2.355c.5 0 .96-.112 1.382-.334.422-.223.734-.522.937-.897v-2.18h-1.265c-1.696 0-2.598.586-2.707 1.758l-.012.2c0 .421.148.769.445 1.042.297.274.703.41 1.22.41zm15.444-7.149a9.2 9.2 0 0 0-1.218-.094c-1.282 0-2.121.434-2.52 1.301V40h-3.387V27.32h3.2l.093 1.512c.68-1.164 1.621-1.746 2.825-1.746.375 0 .726.05 1.054.152l-.047 3.258zm8.543 2.227l-6.808-2.38v-3.257l10.207 4.277v2.754l-10.207 4.29v-3.27l6.808-2.414z" fill="#4B4B4B"/>
  </g>
</svg>
