<svg viewBox="0 0 1120 698" xmlns="http://www.w3.org/2000/svg" xmlns:xlink="http://www.w3.org/1999/xlink">
  <defs>
    <linearGradient x1="0%" y1="50.0010198%" y2="50.0010198%" id="a">
      <stop stop-color="gray" stop-opacity=".25" offset="0%"/>
      <stop stop-color="gray" stop-opacity=".12" offset="54%"/>
      <stop stop-color="gray" stop-opacity=".1" offset="100%"/>
    </linearGradient>
    <linearGradient x1="66092%" y1="51819%" x2="66092%" y2="49417%" id="b">
      <stop stop-color="gray" stop-opacity=".25" offset="0%"/>
      <stop stop-color="gray" stop-opacity=".12" offset="54%"/>
      <stop stop-color="gray" stop-opacity=".1" offset="100%"/>
    </linearGradient>
    <path id="c" d="M190 144h721v201H190z"/>
  </defs>
  <g transform="translate(2 2)" fill="none" fill-rule="evenodd">
    <path fill="#F5F5F5" fill-rule="nonzero" d="M421.18013575 89.25875l4.35654208-28.6709006L1097.81986425 162.74125l-4.35654208 28.6709006z"/>
    <path stroke="#000" stroke-width="5" fill="url(#a)" fill-rule="nonzero" transform="rotate(-81.36 723.5 371)" d="M452 17h543v708H452z"/>
    <path fill="#F5F5F5" fill-rule="nonzero" d="M346.17757348 578.61460652L420.5392401 89.23199288l672.28318642 102.1534006-74.36166662 489.38261364z"/>
    <circle fill="#FF5252" fill-rule="nonzero" transform="rotate(-81.36 520 107)" cx="520" cy="107" r="7"/>
    <circle fill="#FF0" fill-rule="nonzero" transform="rotate(-81.36 539 110)" cx="539" cy="110" r="7"/>
    <circle fill="#69F0AE" fill-rule="nonzero" transform="rotate(-81.36 558 113)" cx="558" cy="113" r="7"/>
    <path stroke="#000" stroke-width="4" d="M448.8561781 145.09956683l590.2250916 89.6846767-24.9374478 164.11618964-590.2250916-89.6846767z"/>
    <path fill="url(#b)" fill-rule="nonzero" transform="rotate(-81.36 606.5 449.5)" d="M589 429h35v41h-35z"/>
    <path fill="#425B9A" fill-rule="nonzero" d="M590.3938879 431.3102635l37.5687663 5.7085724-4.3565421 28.6709006-37.5687663-5.7085724z"/>
    <path fill="#FF5252" fill-rule="nonzero" d="M582.3938879 480.3102635l37.5687663 5.7085724-4.3565421 28.6709006-37.5687663-5.7085724z"/>
    <path fill="#FF9800" fill-rule="nonzero" d="M575.3938879 528.3102635l37.5687663 5.7085724-4.3565421 28.6709006-37.5687663-5.7085724z"/>
    <path fill="#4A4A4A" fill-rule="nonzero" opacity=".4" d="M690.03022295 402.88660665l305.49338912 46.41970704-2.55383502 16.80707966-305.49338912-46.41970704zM682.03022295 450.88660665l305.49338912 46.41970704-2.55383502 16.80707966-305.49338912-46.41970704zM675.03022295 499.88660665l305.49338912 46.41970704-2.55383502 16.80707966-305.49338912-46.41970704z"/>
    <path stroke="#000" stroke-width="2" d="M16.6641268 171.30501872L723.22786244 13.36931195l6.10801076 27.32566933L22.77213756 198.63068805z"/>
    <path stroke="#000" stroke-width="3" d="M.72606368 164.68226819L736.56730218.20226417l116.70663414 522.11546764-735.8412385 164.48000402z"/>
    <path stroke="#000" stroke-width="2" fill="#F5F5F5" fill-rule="nonzero" d="M22.6002529 198.83212185L729.16398854 40.89641508 835.3997471 516.16787815 128.83601146 674.10358492z"/>
    <ellipse stroke="#000" stroke-width="2" transform="rotate(-12.6 36.5 181)" cx="36.5" cy="181" rx="7.5" ry="7"/>
    <ellipse stroke="#000" stroke-width="2" transform="rotate(-12.6 56.5 177)" cx="56.5" cy="177" rx="7.5" ry="7"/>
    <ellipse stroke="#000" stroke-width="2" transform="rotate(-12.6 76.5 172)" cx="76.5" cy="172" rx="7.5" ry="7"/>
    <path stroke="#000" stroke-width="5" d="M70.7707239 239.34437629l620.6830606-138.73910153 35.7754916 160.05034895-620.6830606 138.73910153z"/>
    <path fill="#000" fill-rule="nonzero" d="M158.43127996 482.83025869l40.00436626-8.98057238 6.13307382 27.320055-40.00436626 8.98057238zM166.439701 528.80910178l40.01258724-8.9438729 6.10801076 27.32566934-40.01258724 8.9438729z"/>
    <path fill="#FF9800" fill-rule="nonzero" d="M150.43127996 567.83025869l40.00436626-8.98057238 6.13307382 27.320055-40.00436626 8.98057238z"/>
    <path fill="#425B9A" fill-rule="nonzero" opacity=".4" d="M232.21654673 453.07722911l321.07661468-71.76912642 3.49029186 15.6146682-321.07661468 71.76912642zM243.21654673 500.07722911l321.07661468-71.76912642 3.49029186 15.6146682-321.07661468 71.76912642zM254.21654673 548.07722911l321.07661468-71.76912642 3.49029186 15.6146682-321.07661468 71.76912642z"/>
    <path stroke="#000" stroke-width="4" fill="#F5F5F5" fill-rule="nonzero" d="M146 47h821v35H146z"/>
    <path stroke="#000" stroke-width="3" d="M130 36h855v656H130z"/>
    <path stroke="#000" stroke-width="4" fill="#FFF" fill-rule="nonzero" d="M146 82h821v598H146z"/>
    <circle stroke="#000" stroke-width="3" cx="166.5" cy="64.5" r="8.5"/>
    <circle stroke="#000" stroke-width="3" cx="189.5" cy="64.5" r="8.5"/>
    <circle stroke="#000" stroke-width="3" cx="212.5" cy="64.5" r="8.5"/>
    <use stroke="#000" stroke-width="4" fill="#425B9A" fill-rule="nonzero" xlink:href="#c"/>
    <path stroke="#000" stroke-width="4" d="M309 439h46v35h-46zM309 498h46v35h-46zM309 557h46v35h-46z"/>
    <path stroke="#000" stroke-width="4" opacity=".4" d="M432 446h373v20H432zM432 505h373v20H432zM432 564h373v20H432z"/>
  </g>
</svg>
