<svg viewBox="0 0 855 681" xmlns="http://www.w3.org/2000/svg">
  <defs>
    <linearGradient x1="50%" y1="100%" x2="50%" y2="0%" id="a">
      <stop stop-color="gray" stop-opacity=".25" offset="0%"/>
      <stop stop-color="gray" stop-opacity=".12" offset="54%"/>
      <stop stop-color="gray" stop-opacity=".1" offset="100%"/>
    </linearGradient>
  </defs>
  <g fill-rule="nonzero" fill="none">
    <g transform="translate(3 3)">
      <path stroke="#979797" stroke-width="6" d="M0 0v675h849V0z"/>
      <path stroke="#060606" stroke-width="4" fill="#FFF" d="M12 42h828v621H12z"/>
      <path stroke="#242424" stroke-width="4" d="M12 9h828v33H12z"/>
      <circle stroke="#000" stroke-width="4" cx="36" cy="25" r="8"/>
      <circle stroke="#000" stroke-width="4" cx="58" cy="25" r="8"/>
      <circle stroke="#000" stroke-width="4" cx="80" cy="25" r="8"/>
    </g>
    <path d="M251.34 353.37v282.87H43.25V353.37h208.09zM587.9 397.81h70.45v9.75H587.9zM709.28 332.78h70.45v9.75h-70.45zM709.28 363.13h70.45v9.75h-70.45zM709.28 428.16h70.45v9.75h-70.45zM332.12 337.12h209.17v9.75H332.12zM332.12 367.46h209.17v9.75H332.12zM332.12 397.81h209.17v9.75H332.12zM332.12 428.16h209.17v9.75H332.12z" fill="#DDE1EC"/>
    <path fill="#425B9A" d="M43.25 81.34h208.09v277.45H43.25z"/>
    <path d="M208 220.07c.018851 13.899854-4.756234 27.380992-13.52 38.17-.33.41-.66.81-1 1.21-.066254.067986-.12648.141595-.18.22-3.10481 3.593315-6.618606 6.811778-10.47 9.59l-.5.37c-.69.49-1.39 1-2.1 1.42l-.49.31-1.05.65c-.15524.098211-.315454.188332-.48.27a3.21007443 3.21007443 0 0 1-.41.25c-1.54.9-3.13 1.73-4.76 2.49-.18.1-.38.18-.57.27-.19.09-.41.2-.63.28-.22.08-.65.29-1 .42-3.492462 1.478425-7.119209 2.617016-10.83 3.4-3.536968.757143-7.134711 1.195565-10.75 1.31h-1.98c-4.7710352.016459-9.5273166-.530665-14.17-1.63l-.87-.21c-2.04-.533333-4.04-1.153333-6-1.86-1.19-.44-2.37-.92-3.52-1.43-.29-.13-.57-.25-.86-.39l-.87-.39-.76-.39-.8-.41-.89-.47-1-.57-.16-.09c-4.2626918-2.418973-8.2179424-5.343441-11.78-8.71-.3-.29-.61-.57-.9-.88-.29-.31-.63-.62-.93-.94-19.0606268-19.628958-22.6303181-49.584711-8.7161348-73.143127 13.9141833-23.5584162 41.8713422-34.8936319 68.2631478-27.6772584C189.708819 168.7259881 208.008728 192.709382 208 220.07z" fill="#FFF"/>
    <path fill="#DDE1EC" d="M332.12 494.81h209.17V616.2H332.12z"/>
    <path d="M332 120h456v166H332V120z" stroke="#425B9A" fill="#FFF" stroke-dasharray="14 16"/>
    <path d="M560.000001 244.999999c26.509667 0 47.999999-21.490332 47.999999-47.9999996C608 170.4903317 586.509668 149 560.000001 149c-26.509668 0-48 21.4903317-48 47.9999994-.002866 12.7312699 5.053342 24.9419226 14.055709 33.9442906 9.002368 9.002367 21.213021 14.058575 33.944291 14.055709zm0-86.7089795c15.656321 0 29.771019 9.4311401 35.762434 23.8956946 5.991415 14.4645544 2.679638 31.1139768-8.391052 42.1846679-11.070691 11.07069-27.720113 14.382466-42.184668 8.391052-14.464554-5.991415-23.895694-20.1061137-23.895694-35.7624346-.002867-10.2671384 4.074468-20.1145846 11.334432-27.374548 7.259963-7.2599634 17.107409-11.3372987 27.374548-11.3344319zm3.867657 63.4814305h-7.746118c-1.280364-.005914-2.316841-1.04239-2.322755-2.3227547v-22.4496959h-12.964213c-.939279-.0002442-1.785962-.5661624-2.145375-1.4339567-.359414-.8677944-.160807-1.8666392.503241-2.5309318l19.165429-19.1654286c.901856-.8782647 2.339197-.8782647 3.241053 0l19.165429 19.1654286c.664048.6642926.862655 1.6631374.503242 2.5309318-.359414.8677943-1.206097 1.4337125-2.145376 1.4339567h-12.964213v22.4496959c-.005513 1.2637837-1.016083 2.2935127-2.279541 2.3227547h-.010803z" fill="#425B9A" opacity=".5"/>
    <g transform="translate(93 166)">
      <circle fill="url(#a)" cx="54" cy="54" r="54"/>
      <circle fill="#425B9A" cx="54" cy="54" r="53"/>
      <circle fill="#DDE1EC" cx="54" cy="54" r="42"/>
      <path fill="#535461" opacity=".3" d="M53 19h2v37h-2z"/>
      <g opacity=".1" transform="translate(31 42)" fill="#000">
        <path d="M25.4505242 11.0514655h33.5405712v2.93103448H25.4505242zM.52563148 2.69861212L1.90261918.06915029l20.83986698 10.91335124-1.3769877 2.62946183z"/>
        <ellipse cx="22.9275609" cy="12.5169828" rx="4.45228822" ry="4.39655172"/>
      </g>
      <path fill="#535461" d="M56 53h34v3H56zM33.06531285 41.60420481l21.26111812 11.13395062-1.39174382 2.65763976-21.26111812-11.13395062z"/>
      <circle fill="#535461" cx="54.5" cy="54.5" r="4.5"/>
      <path d="M15.44015009 58.8424449c0-23.0662995 19.01688551-41.76431715 42.47654781-41.76431715 13.3500733-.01161524 25.9264805 6.15802795 33.9452158 16.65259915-7.2285178-12.91594716-21.187242-21.6702203-37.2472796-21.6702203-23.4596622 0-42.4765478 18.6980176-42.4765478 41.7643172-.0137979 9.06148 2.98351471 17.879325 8.5358349 25.1117181-3.44329152-6.155656-5.24392558-13.0688576-5.23377111-20.094097z" opacity=".1" fill="#000"/>
      <path d="M85.5 34s-.7803941 1.5201401-.3912661 2M63 33s.4575 1.5201401 0 2" fill="#000" opacity=".05"/>
    </g>
  </g>
</svg>
