<svg viewBox="0 0 855 681" xmlns="http://www.w3.org/2000/svg" xmlns:xlink="http://www.w3.org/1999/xlink">
  <defs>
    <path id="a" d="M426 42h414v621H426z"/>
    <linearGradient x1="50%" y1="100%" x2="50%" y2="0%" id="b">
      <stop stop-color="#FFF" stop-opacity=".12" offset="0%"/>
      <stop stop-color="#FFF" stop-opacity=".09" offset="55%"/>
      <stop stop-color="#FFF" stop-opacity=".02" offset="100%"/>
    </linearGradient>
    <linearGradient x1="63400%" y1="32800%" x2="63400%" y2="31200%" id="c">
      <stop stop-color="#FFF" stop-opacity=".12" offset="0%"/>
      <stop stop-color="#FFF" stop-opacity=".09" offset="55%"/>
      <stop stop-color="#FFF" stop-opacity=".02" offset="100%"/>
    </linearGradient>
    <linearGradient x1="63400%" y1="35300%" x2="63400%" y2="33700%" id="d">
      <stop stop-color="#FFF" stop-opacity=".12" offset="0%"/>
      <stop stop-color="#FFF" stop-opacity=".09" offset="55%"/>
      <stop stop-color="#FFF" stop-opacity=".02" offset="100%"/>
    </linearGradient>
    <linearGradient x1="63400%" y1="37800%" x2="63400%" y2="36200%" id="e">
      <stop stop-color="#FFF" stop-opacity=".12" offset="0%"/>
      <stop stop-color="#FFF" stop-opacity=".09" offset="55%"/>
      <stop stop-color="#FFF" stop-opacity=".02" offset="100%"/>
    </linearGradient>
    <linearGradient x1="63400%" y1="40300%" x2="63400%" y2="38700%" id="f">
      <stop stop-color="#FFF" stop-opacity=".12" offset="0%"/>
      <stop stop-color="#FFF" stop-opacity=".09" offset="55%"/>
      <stop stop-color="#FFF" stop-opacity=".02" offset="100%"/>
    </linearGradient>
    <linearGradient x1="63400%" y1="42800%" x2="63400%" y2="41200%" id="g">
      <stop stop-color="#FFF" stop-opacity=".12" offset="0%"/>
      <stop stop-color="#FFF" stop-opacity=".09" offset="55%"/>
      <stop stop-color="#FFF" stop-opacity=".02" offset="100%"/>
    </linearGradient>
  </defs>
  <g transform="translate(3 3)" fill="none" fill-rule="evenodd">
    <path stroke="#979797" stroke-width="6" d="M0 0v675h849V0z"/>
    <path stroke="#060606" stroke-width="4" fill="#FFF" fill-rule="nonzero" d="M12 42h828v621H12z"/>
    <path stroke="#242424" stroke-width="4" d="M12 9h828v33H12z"/>
    <circle stroke="#000" stroke-width="4" cx="36" cy="25" r="8"/>
    <circle stroke="#000" stroke-width="4" cx="58" cy="25" r="8"/>
    <circle stroke="#000" stroke-width="4" cx="80" cy="25" r="8"/>
    <use fill="#425B9A" fill-rule="nonzero" xlink:href="#a"/>
    <path fill="url(#b)" fill-rule="nonzero" d="M514 256h227v25H514z"/>
    <path stroke="#000" stroke-width="5" d="M98 259h220v18H98z"/>
    <path fill="url(#c)" fill-rule="nonzero" d="M483 312h302v16H483z"/>
    <path fill="url(#d)" fill-rule="nonzero" d="M483 337h302v16H483z"/>
    <path fill="url(#e)" fill-rule="nonzero" d="M483 362h302v16H483z"/>
    <path fill="url(#f)" fill-rule="nonzero" d="M483 387h302v16H483z"/>
    <path fill="url(#g)" fill-rule="nonzero" d="M483 412h302v16H483z"/>
    <path stroke="#000" stroke-width="5" d="M66 314h297v11H66zM66 339h297v11H66zM66 364h297v11H66zM66 389h297v11H66zM66 414h297v11H66z"/>
    <path fill="#FFF" fill-rule="nonzero" d="M517 259h220v18H517zM485 314h297v11H485zM485 339h297v11H485zM485 364h297v11H485zM485 389h297v11H485zM485 414h297v11H485z"/>
  </g>
</svg>
