
<svg width="100%" height="100%" viewBox="0 0 165 145" version="1.1" xmlns="http://www.w3.org/2000/svg" xmlns:xlink="http://www.w3.org/1999/xlink">
    <!-- Generator: Sketch 49.3 (51167) - http://www.bohemiancoding.com/sketch -->
    <desc>Created with Sketch.</desc>
    <defs></defs>
    <g id="Page-1" stroke="none" stroke-width="1" fill="none" fill-rule="evenodd">
        <g id="eang-redesign" transform="translate(-783.000000, -1834.000000)">
            <g id="Group-10" transform="translate(783.000000, 1834.000000)">
                <path d="M91.191,65.4126376 C90.866,65.8586376 90.964,66.4846376 91.412,66.8086376 L99.925,73.0006376 L92,73.0006376 C84.832,73.0006376 79,78.8326376 79,86.0006376 C79,92.0656376 74.065,97.0006376 68,97.0006376 L66,97.0006376 C65.447,97.0006376 65,97.4476376 65,98.0006376 C65,98.5536376 65.447,99.0006376 66,99.0006376 L68,99.0006376 C75.168,99.0006376 81,93.1686376 81,86.0006376 C81,79.9356376 85.935,75.0006376 92,75.0006376 L99.925,75.0006376 L91.412,81.1916376 C90.965,81.5156376 90.866,82.1416376 91.191,82.5876376 C91.386,82.8576376 91.691,82.9996376 92.001,82.9996376 C92.205,82.9996376 92.41,82.9366376 92.588,82.8086376 L104.7,74.0006376 L92.588,65.1916376 C92.14,64.8666376 91.516,64.9646376 91.191,65.4126376 Z" id="Shape" fill="#000000" fill-rule="nonzero" transform="translate(84.850000, 82.000319) rotate(87.000000) translate(-84.850000, -82.000319) "></path>
                <path d="M40.191,65.4126376 C39.866,65.8586376 39.964,66.4846376 40.412,66.8086376 L48.925,73.0006376 L41,73.0006376 C33.832,73.0006376 28,78.8326376 28,86.0006376 C28,92.0656376 23.065,97.0006376 17,97.0006376 L15,97.0006376 C14.447,97.0006376 14,97.4476376 14,98.0006376 C14,98.5536376 14.447,99.0006376 15,99.0006376 L17,99.0006376 C24.168,99.0006376 30,93.1686376 30,86.0006376 C30,79.9356376 34.935,75.0006376 41,75.0006376 L48.925,75.0006376 L40.412,81.1916376 C39.965,81.5156376 39.866,82.1416376 40.191,82.5876376 C40.386,82.8576376 40.691,82.9996376 41.001,82.9996376 C41.205,82.9996376 41.41,82.9366376 41.588,82.8086376 L53.7,74.0006376 L41.588,65.1916376 C41.14,64.8666376 40.516,64.9646376 40.191,65.4126376 Z" id="Shape" fill="#000000" fill-rule="nonzero" transform="translate(33.850000, 82.000319) scale(-1, 1) rotate(87.000000) translate(-33.850000, -82.000319) "></path>
                <rect id="Rectangle-18" fill="#425B9A" x="2" y="37" width="31" height="30" rx="3"></rect>
                <rect id="Rectangle-18" fill="#4D6AB3" x="43" y="37" width="31" height="30" rx="3"></rect>
                <rect id="Rectangle-18" fill="#EDEDED" x="84" y="37" width="31" height="30" rx="3"></rect>
                <rect id="Rectangle-18" fill="#333333" x="125" y="37" width="31" height="30" rx="3"></rect>
                <rect id="Rectangle-18" fill="#4D6AB3" x="43" y="0" width="31" height="30" rx="3"></rect>
                <rect id="Rectangle-18" fill="#666666" x="83" y="0" width="31" height="30" rx="3"></rect>
                <rect id="Rectangle-18" fill="#4D6AB3" x="87" y="103" width="31" height="30" rx="3"></rect>
                <rect id="Rectangle-18" fill="#60CC7D" x="41" y="103" width="31" height="30" rx="3"></rect>
                <rect id="Rectangle-18" fill="#4D6AB3" x="2" y="103" width="31" height="30" rx="3"></rect>
                <rect id="Rectangle-18" fill="#D72D06" x="126" y="103" width="31" height="30" rx="3"></rect>
                <path d="M0,86 L166.692081,86" id="Path-16" stroke="#333333" stroke-dasharray="5"></path>
                <path d="M81,145 L81,91.9905669" id="Path-19" stroke="#333333" stroke-dasharray="4"></path>
            </g>
        </g>
    </g>
</svg>
