
<svg width="100%" height="100%" viewBox="0 0 18 14" version="1.1" xmlns="http://www.w3.org/2000/svg" xmlns:xlink="http://www.w3.org/1999/xlink">
    <!-- Generator: Sketch 49.3 (51167) - http://www.bohemiancoding.com/sketch -->
    <desc>Created with Sketch.</desc>
    <defs></defs>
    <g id="Page-1" stroke="none" stroke-width="1" fill="none" fill-rule="evenodd">
        <g id="baseline-vertical_split-24px" transform="translate(-3.000000, -5.000000)">
            <polygon id="Shape" points="0 0 24 0 24 24 0 24"></polygon>
            <path d="M3,15 L11,15 L11,13 L3,13 L3,15 Z M3,19 L11,19 L11,17 L3,17 L3,19 Z M3,11 L11,11 L11,9 L3,9 L3,11 Z M3,5 L3,7 L11,7 L11,5 L3,5 Z M13,5 L21,5 L21,19 L13,19 L13,5 Z" id="Shape" fill="#fff" fill-rule="nonzero"></path>
        </g>
    </g>
</svg>
