
<svg width="100%" height="100%" viewBox="0 0 20 20" version="1.1" xmlns="http://www.w3.org/2000/svg" xmlns:xlink="http://www.w3.org/1999/xlink">
    <!-- Generator: Sketch 49.3 (51167) - http://www.bohemiancoding.com/sketch -->
    <desc>Created with Sketch.</desc>
    <defs></defs>
    <g id="Page-1" stroke="none" stroke-width="1" fill="none" fill-rule="evenodd">
        <g id="baseline-track_changes-24px" transform="translate(-2.000000, -2.000000)">
            <polygon id="Shape" points="0 0 24 0 24 24 0 24"></polygon>
            <path d="M19.07,4.93 L17.66,6.34 C19.1,7.79 20,9.79 20,12 C20,16.42 16.42,20 12,20 C7.58,20 4,16.42 4,12 C4,7.92 7.05,4.56 11,4.07 L11,6.09 C8.16,6.57 6,9.03 6,12 C6,15.31 8.69,18 12,18 C15.31,18 18,15.31 18,12 C18,10.34 17.33,8.84 16.24,7.76 L14.83,9.17 C15.55,9.9 16,10.9 16,12 C16,14.21 14.21,16 12,16 C9.79,16 8,14.21 8,12 C8,10.14 9.28,8.59 11,8.14 L11,10.28 C10.4,10.63 10,11.26 10,12 C10,13.1 10.9,14 12,14 C13.1,14 14,13.1 14,12 C14,11.26 13.6,10.62 13,10.28 L13,2 L12,2 C6.48,2 2,6.48 2,12 C2,17.52 6.48,22 12,22 C17.52,22 22,17.52 22,12 C22,9.24 20.88,6.74 19.07,4.93 Z" id="Shape" fill="#fff" fill-rule="nonzero"></path>
        </g>
    </g>
</svg>
