<svg version="1.1" id="Capa_1" xmlns="http://www.w3.org/2000/svg" xmlns:xlink="http://www.w3.org/1999/xlink" x="0px" y="0px"
	 viewBox="0 0 56 56" style="enable-background:new 0 0 56 56;" xml:space="preserve">
<g>
	<path d="M8,41.08V2c0-0.553-0.448-1-1-1S6,1.447,6,2v39.08C2.613,41.568,0,44.481,0,48c0,3.859,3.14,7,7,7s7-3.141,7-7
		C14,44.481,11.387,41.568,8,41.08z"/>
	<path d="M29,20.695V2c0-0.553-0.448-1-1-1s-1,0.447-1,1v18.632c-3.602,0.396-6.414,3.456-6.414,7.161s2.812,6.765,6.414,7.161V54
		c0,0.553,0.448,1,1,1s1-0.447,1-1V34.891c3.4-0.577,6-3.536,6-7.098S32.4,21.272,29,20.695z"/>
	<path d="M56,8c0-3.859-3.14-7-7-7s-7,3.141-7,7c0,3.519,2.613,6.432,6,6.92V54c0,0.553,0.448,1,1,1s1-0.447,1-1V14.92
		C53.387,14.432,56,11.519,56,8z"/>
</g>
</svg>
