
<svg width="100%" height="100%" viewBox="0 0 26 23" version="1.1" xmlns="http://www.w3.org/2000/svg" xmlns:xlink="http://www.w3.org/1999/xlink">
    <!-- Generator: Sketch 49.3 (51167) - http://www.bohemiancoding.com/sketch -->
    <desc>Created with Sketch.</desc>
    <defs></defs>
    <g id="Page-1" stroke="none" stroke-width="1" fill="none" fill-rule="evenodd" stroke-linecap="round" stroke-linejoin="round">
        <g id="Group-17" transform="translate(1.000000, 1.000000)" stroke-width="2">
            <g id="check-square" transform="translate(0.000000, 3.000000)" stroke="#000000">
                <path d="M18,9 L18,16 C18,17.1045695 17.1045695,18 16,18 L2,18 C0.8954305,18 0,17.1045695 0,16 L0,2 C0,0.8954305 0.8954305,0 2,0 L13,0" id="Shape"></path>
            </g>
            <g id="check-square" transform="translate(5.000000, 0.000000)" fill="#FFFFFF" stroke="#000000">
                <path d="M18,9 L18,16 C18,17.1045695 17.1045695,18 16,18 L2,18 C0.8954305,18 0,17.1045695 0,16 L0,2 C0,0.8954305 0.8954305,0 2,0 L13,0" id="Shape"></path>
            </g>
            <g id="plus" transform="translate(17.000000, 1.000000)" stroke="#417505">
                <path d="M4,0 L4,6" id="Shape"></path>
                <path d="M0.5,3 L7,3" id="Shape"></path>
            </g>
        </g>
    </g>
</svg>
