<svg width="266" height="156" viewBox="0 0 266 156" version="1.1" xmlns="http://www.w3.org/2000/svg" xmlns:xlink="http://www.w3.org/1999/xlink">
<title>Canvas</title>
<desc>Created using Figma</desc>
<g id="Canvas" transform="translate(-171 2227)">
<g id="Rectangle 50">
<use xlink:href="#path0_fill" transform="translate(171 -2227)" fill="#828282"/>
</g>
<g id="Rectangle 50">
<use xlink:href="#path1_fill" transform="translate(183 -2215)" fill="#333333"/>
</g>
<g id="template =">
<use xlink:href="#path2_fill" transform="translate(195 -2200)" fill="#F2C94C"/>
</g>
<g id="eang.export()">
<use xlink:href="#path3_fill" transform="translate(195 -2105)" fill="#219653"/>
<use xlink:href="#path4_fill" transform="translate(195 -2105)" fill="#F2C94C"/>
</g>
<g id="&#60;ul&#62; &#60;li&#62; {{template}} &#60;/li&#62; &#60;/ul&#62;">
<use xlink:href="#path5_fill" transform="translate(233 -2182)" fill="#BB6BD9"/>
</g>
</g>
<defs>
<path id="path0_fill" d="M 0 3C 0 1.34315 1.34315 0 3 0L 263 0C 264.657 0 266 1.34315 266 3L 266 153C 266 154.657 264.657 156 263 156L 3 156C 1.34315 156 0 154.657 0 153L 0 3Z"/>
<path id="path1_fill" d="M 0 3C 0 1.34315 1.34315 0 3 0L 238 0C 239.657 0 241 1.34315 241 3L 241 141C 241 142.657 239.657 144 238 144L 3 144C 1.34315 144 0 142.657 0 141L 0 3Z"/>
<path id="path2_fill" d="M 5.84912 10.7583C 5.38005 10.9552 5.03988 11.0716 4.82861 11.1074C 4.61735 11.1468 4.41325 11.1665 4.21631 11.1665C 3.79736 11.1665 3.41423 11.0859 3.06689 10.9248C 2.71956 10.7637 2.45638 10.5256 2.27734 10.2104C 2.10189 9.89535 2.01416 9.40837 2.01416 8.74951L 2.01416 6.33252L 0.515625 6.33252L 0.515625 5.5L 2.01416 5.5L 2.01416 3.08301L 3.01318 3.08301L 3.01318 5.5L 5.68262 5.5L 5.68262 6.33252L 3.01318 6.33252L 3.01318 8.7334C 3.01318 9.2168 3.07048 9.55876 3.18506 9.75928C 3.29964 9.95622 3.45182 10.1012 3.6416 10.1943C 3.83496 10.2874 4.06234 10.334 4.32373 10.334C 4.80713 10.334 5.31559 10.1818 5.84912 9.87744L 5.84912 10.7583ZM 12.4287 10.6025C 11.6302 10.9821 10.8747 11.1719 10.1621 11.1719C 9.62142 11.1719 9.13802 11.0376 8.71191 10.769C 8.28581 10.5005 7.94385 10.1174 7.68604 9.61963C 7.4318 9.11833 7.30469 8.58301 7.30469 8.01367C 7.30469 7.46582 7.42643 6.93945 7.66992 6.43457C 7.91341 5.92969 8.25358 5.5376 8.69043 5.2583C 9.12728 4.97542 9.61426 4.83398 10.1514 4.83398C 10.8639 4.83398 11.4351 5.08822 11.8647 5.59668C 12.298 6.10514 12.5146 6.88932 12.5146 7.94922L 12.5146 8.16406L 8.37891 8.16406C 8.37891 8.57943 8.46484 8.95898 8.63672 9.30273C 8.81217 9.64648 9.04134 9.9043 9.32422 10.0762C 9.6071 10.248 9.92936 10.334 10.291 10.334C 10.9355 10.334 11.6481 10.1191 12.4287 9.68945L 12.4287 10.6025ZM 8.43799 7.41748L 11.4297 7.41748L 11.4297 7.27246C 11.4297 6.7819 11.3097 6.3916 11.0698 6.10156C 10.8299 5.81152 10.5094 5.6665 10.1084 5.6665C 9.70378 5.6665 9.35286 5.8151 9.05566 6.1123C 8.76204 6.40592 8.55615 6.84098 8.43799 7.41748ZM 13.5942 11L 13.5942 5.00049L 14.4697 5.00049L 14.4697 6.37549C 14.7454 5.79183 15.0015 5.389 15.2378 5.16699C 15.4777 4.94499 15.7194 4.83398 15.9629 4.83398C 16.2529 4.83398 16.4857 4.94857 16.6611 5.17773C 16.8402 5.40332 16.9297 5.72559 16.9297 6.14453L 16.9297 6.4668C 17.0479 6.10156 17.1893 5.80615 17.354 5.58057C 17.5223 5.3514 17.696 5.17057 17.875 5.03809C 18.054 4.90202 18.2599 4.83398 18.4927 4.83398C 18.7505 4.83398 18.9707 4.9432 19.1533 5.16162C 19.3359 5.38005 19.4272 5.8151 19.4272 6.4668L 19.4272 11L 18.5518 11L 18.5518 6.90186C 18.5518 6.56527 18.541 6.3361 18.5195 6.21436C 18.498 6.08903 18.4551 5.99414 18.3906 5.92969C 18.3262 5.86523 18.2563 5.83301 18.1812 5.83301C 17.995 5.83301 17.7944 5.97624 17.5796 6.2627C 17.3683 6.54557 17.1517 7.01644 16.9297 7.67529L 16.9297 11L 16.0918 11L 16.0918 6.90723C 16.0918 6.37728 16.0399 6.06576 15.936 5.97266C 15.8322 5.87956 15.7391 5.83301 15.6567 5.83301C 15.4741 5.83301 15.2772 5.99235 15.0659 6.31104C 14.8582 6.62972 14.6595 7.03792 14.4697 7.53564L 14.4697 11L 13.5942 11ZM 21.5757 6.34863C 21.8836 5.84733 22.2507 5.46956 22.6768 5.21533C 23.1029 4.9611 23.495 4.83398 23.853 4.83398C 24.3543 4.83398 24.8055 5.05062 25.2065 5.48389C 25.6076 5.91715 25.8081 6.57422 25.8081 7.45508C 25.8081 8.14974 25.6738 8.771 25.4053 9.31885C 25.1403 9.86312 24.7858 10.2946 24.3418 10.6133C 23.8978 10.9284 23.3481 11.0859 22.6929 11.0859C 22.5067 11.0859 22.2202 11.0662 21.8335 11.0269C 21.7762 11.0197 21.6903 11.0107 21.5757 11L 21.5757 13.3311L 20.5767 13.3311L 20.5767 5.00049L 21.5757 5.00049L 21.5757 6.34863ZM 21.5757 7.53564L 21.5757 10.1084C 21.9373 10.2015 22.2703 10.248 22.5747 10.248C 23.1799 10.248 23.6883 10.0117 24.1001 9.53906C 24.5155 9.06283 24.7231 8.41292 24.7231 7.58936C 24.7231 6.99137 24.6104 6.54199 24.3848 6.24121C 24.1592 5.94043 23.9032 5.79004 23.6167 5.79004C 23.3052 5.79004 22.9614 5.94759 22.5854 6.2627C 22.2131 6.5778 21.8765 7.00212 21.5757 7.53564ZM 28.8696 11L 28.8696 3.16895L 27.0757 3.16895L 27.0757 2.33105L 29.8687 2.33105L 29.8687 10.1675L 31.7432 10.1675L 31.7432 11L 28.8696 11ZM 37.8071 9.65186C 37.5028 10.1532 37.1357 10.5309 36.7061 10.7852C 36.2799 11.0394 35.8879 11.1665 35.5298 11.1665C 35.0285 11.1665 34.5773 10.9499 34.1763 10.5166C 33.7788 10.0833 33.5801 9.42627 33.5801 8.54541C 33.5801 7.85075 33.7126 7.23128 33.9775 6.68701C 34.2425 6.13916 34.597 5.70768 35.041 5.39258C 35.485 5.07389 36.0347 4.91455 36.6899 4.91455C 36.8797 4.91455 37.1662 4.93424 37.5493 4.97363C 37.6066 4.98079 37.6925 4.98975 37.8071 5.00049L 38.8115 5.00049L 38.8115 9.23828C 38.8115 9.96159 38.8867 10.5488 39.0371 11L 37.9951 11C 37.9163 10.6706 37.8537 10.2212 37.8071 9.65186ZM 37.8071 8.46484L 37.8071 5.89209C 37.4526 5.79899 37.1232 5.75244 36.8188 5.75244C 36.203 5.75244 35.6891 5.99056 35.2773 6.4668C 34.8691 6.94303 34.665 7.59115 34.665 8.41113C 34.665 9.00553 34.776 9.45492 34.998 9.75928C 35.2236 10.0601 35.4797 10.2104 35.7661 10.2104C 36.0776 10.2104 36.4214 10.0529 36.7974 9.73779C 37.1733 9.42269 37.5099 8.99837 37.8071 8.46484ZM 45.4878 10.7583C 45.0187 10.9552 44.6785 11.0716 44.4673 11.1074C 44.256 11.1468 44.0519 11.1665 43.855 11.1665C 43.436 11.1665 43.0529 11.0859 42.7056 10.9248C 42.3582 10.7637 42.0951 10.5256 41.916 10.2104C 41.7406 9.89535 41.6528 9.40837 41.6528 8.74951L 41.6528 6.33252L 40.1543 6.33252L 40.1543 5.5L 41.6528 5.5L 41.6528 3.08301L 42.6519 3.08301L 42.6519 5.5L 45.3213 5.5L 45.3213 6.33252L 42.6519 6.33252L 42.6519 8.7334C 42.6519 9.2168 42.7091 9.55876 42.8237 9.75928C 42.9383 9.95622 43.0905 10.1012 43.2803 10.1943C 43.4736 10.2874 43.701 10.334 43.9624 10.334C 44.4458 10.334 44.9543 10.1818 45.4878 9.87744L 45.4878 10.7583ZM 52.0674 10.6025C 51.2689 10.9821 50.5133 11.1719 49.8008 11.1719C 49.2601 11.1719 48.7767 11.0376 48.3506 10.769C 47.9245 10.5005 47.5825 10.1174 47.3247 9.61963C 47.0705 9.11833 46.9434 8.58301 46.9434 8.01367C 46.9434 7.46582 47.0651 6.93945 47.3086 6.43457C 47.5521 5.92969 47.8923 5.5376 48.3291 5.2583C 48.766 4.97542 49.2529 4.83398 49.79 4.83398C 50.5026 4.83398 51.0737 5.08822 51.5034 5.59668C 51.9367 6.10514 52.1533 6.88932 52.1533 7.94922L 52.1533 8.16406L 48.0176 8.16406C 48.0176 8.57943 48.1035 8.95898 48.2754 9.30273C 48.4508 9.64648 48.68 9.9043 48.9629 10.0762C 49.2458 10.248 49.568 10.334 49.9297 10.334C 50.5742 10.334 51.2868 10.1191 52.0674 9.68945L 52.0674 10.6025ZM 48.0767 7.41748L 51.0684 7.41748L 51.0684 7.27246C 51.0684 6.7819 50.9484 6.3916 50.7085 6.10156C 50.4686 5.81152 50.1481 5.6665 49.7471 5.6665C 49.3424 5.6665 48.9915 5.8151 48.6943 6.1123C 48.4007 6.40592 48.1948 6.84098 48.0767 7.41748ZM 65.6724 6.75146L 65.6724 7.58398L 59.8394 7.58398L 59.8394 6.75146L 65.6724 6.75146ZM 65.6724 8.62598L 65.6724 9.4585L 59.8394 9.4585L 59.8394 8.62598L 65.6724 8.62598Z"/>
<path id="path3_fill" d="M 38.8545 10.6025C 38.056 10.9821 37.3005 11.1719 36.5879 11.1719C 36.0472 11.1719 35.5638 11.0376 35.1377 10.769C 34.7116 10.5005 34.3696 10.1174 34.1118 9.61963C 33.8576 9.11833 33.7305 8.58301 33.7305 8.01367C 33.7305 7.46582 33.8522 6.93945 34.0957 6.43457C 34.3392 5.92969 34.6794 5.5376 35.1162 5.2583C 35.5531 4.97542 36.04 4.83398 36.5771 4.83398C 37.2897 4.83398 37.8608 5.08822 38.2905 5.59668C 38.7238 6.10514 38.9404 6.88932 38.9404 7.94922L 38.9404 8.16406L 34.8047 8.16406C 34.8047 8.57943 34.8906 8.95898 35.0625 9.30273C 35.238 9.64648 35.4671 9.9043 35.75 10.0762C 36.0329 10.248 36.3551 10.334 36.7168 10.334C 37.3613 10.334 38.0739 10.1191 38.8545 9.68945L 38.8545 10.6025ZM 34.8638 7.41748L 37.8555 7.41748L 37.8555 7.27246C 37.8555 6.7819 37.7355 6.3916 37.4956 6.10156C 37.2557 5.81152 36.9352 5.6665 36.5342 5.6665C 36.1296 5.6665 35.7786 5.8151 35.4814 6.1123C 35.1878 6.40592 34.9819 6.84098 34.8638 7.41748ZM 41.0942 11L 39.9395 11L 42.2974 7.85791L 40.0952 5.00049L 41.3735 5.00049L 42.9365 7.01465L 44.4565 5.00049L 45.5898 5.00049L 43.5059 7.76123L 45.9819 11L 44.6982 11L 42.8721 8.60986L 41.0942 11ZM 48.0015 6.34863C 48.3094 5.84733 48.6764 5.46956 49.1025 5.21533C 49.5286 4.9611 49.9207 4.83398 50.2788 4.83398C 50.7801 4.83398 51.2313 5.05062 51.6323 5.48389C 52.0334 5.91715 52.2339 6.57422 52.2339 7.45508C 52.2339 8.14974 52.0996 8.771 51.8311 9.31885C 51.5661 9.86312 51.2116 10.2946 50.7676 10.6133C 50.3236 10.9284 49.7739 11.0859 49.1187 11.0859C 48.9325 11.0859 48.646 11.0662 48.2593 11.0269C 48.202 11.0197 48.116 11.0107 48.0015 11L 48.0015 13.3311L 47.0024 13.3311L 47.0024 5.00049L 48.0015 5.00049L 48.0015 6.34863ZM 48.0015 7.53564L 48.0015 10.1084C 48.3631 10.2015 48.6961 10.248 49.0005 10.248C 49.6056 10.248 50.1141 10.0117 50.5259 9.53906C 50.9412 9.06283 51.1489 8.41292 51.1489 7.58936C 51.1489 6.99137 51.0361 6.54199 50.8105 6.24121C 50.585 5.94043 50.3289 5.79004 50.0425 5.79004C 49.731 5.79004 49.3872 5.94759 49.0112 6.2627C 48.6388 6.5778 48.3022 7.00212 48.0015 7.53564ZM 56.1548 11.1665C 55.2954 11.1665 54.6079 10.8675 54.0923 10.2695C 53.5767 9.66797 53.3188 8.91064 53.3188 7.99756C 53.3188 7.08447 53.5767 6.32894 54.0923 5.73096C 54.6079 5.13298 55.2954 4.83398 56.1548 4.83398C 57.0106 4.83398 57.6963 5.13298 58.2119 5.73096C 58.7275 6.32894 58.9854 7.08447 58.9854 7.99756C 58.9854 8.91064 58.7275 9.66797 58.2119 10.2695C 57.6963 10.8675 57.0106 11.1665 56.1548 11.1665ZM 56.1548 10.334C 56.6883 10.334 57.1126 10.1263 57.4277 9.71094C 57.7428 9.29557 57.9004 8.72445 57.9004 7.99756C 57.9004 7.27425 57.7428 6.70492 57.4277 6.28955C 57.1126 5.87419 56.6883 5.6665 56.1548 5.6665C 55.6177 5.6665 55.1916 5.87419 54.8765 6.28955C 54.5614 6.70492 54.4038 7.27425 54.4038 7.99756C 54.4038 8.72445 54.5614 9.29557 54.8765 9.71094C 55.1916 10.1263 55.6177 10.334 56.1548 10.334ZM 60.8008 11L 60.8008 5.00049L 61.7998 5.00049L 61.7998 6.31104C 62.1113 5.81689 62.4676 5.44808 62.8687 5.20459C 63.2733 4.95752 63.7227 4.83398 64.2168 4.83398C 64.5785 4.83398 64.9401 4.88949 65.3018 5.00049L 65.3018 7.16504L 64.3403 7.16504L 64.3403 5.79541C 64.172 5.76676 64.0396 5.75244 63.9429 5.75244C 63.5705 5.75244 63.2052 5.89925 62.8472 6.19287C 62.4891 6.48649 62.14 6.92692 61.7998 7.51416L 61.7998 11L 60.8008 11ZM 71.9136 10.7583C 71.4445 10.9552 71.1043 11.0716 70.8931 11.1074C 70.6818 11.1468 70.4777 11.1665 70.2808 11.1665C 69.8618 11.1665 69.4787 11.0859 69.1313 10.9248C 68.784 10.7637 68.5208 10.5256 68.3418 10.2104C 68.1663 9.89535 68.0786 9.40837 68.0786 8.74951L 68.0786 6.33252L 66.5801 6.33252L 66.5801 5.5L 68.0786 5.5L 68.0786 3.08301L 69.0776 3.08301L 69.0776 5.5L 71.7471 5.5L 71.7471 6.33252L 69.0776 6.33252L 69.0776 8.7334C 69.0776 9.2168 69.1349 9.55876 69.2495 9.75928C 69.3641 9.95622 69.5163 10.1012 69.7061 10.1943C 69.8994 10.2874 70.1268 10.334 70.3882 10.334C 70.8716 10.334 71.38 10.1818 71.9136 9.87744L 71.9136 10.7583ZM 78.4287 12.998C 77.4368 12.9372 76.6007 12.6561 75.9204 12.1548C 75.2401 11.6571 74.6958 10.9839 74.2876 10.1353C 73.883 9.28662 73.6807 8.4362 73.6807 7.58398C 73.6807 6.73177 73.883 5.88135 74.2876 5.03271C 74.6958 4.18408 75.2401 3.5109 75.9204 3.01318C 76.6007 2.51188 77.4368 2.229 78.4287 2.16455L 78.4287 3.00244C 77.6803 3.07048 77.0358 3.32292 76.4951 3.75977C 75.958 4.19303 75.5355 4.74626 75.2275 5.41943C 74.9196 6.09261 74.7656 6.81413 74.7656 7.58398C 74.7656 8.35384 74.9196 9.07536 75.2275 9.74854C 75.5355 10.4217 75.958 10.9749 76.4951 11.4082C 77.0358 11.8415 77.6803 12.0939 78.4287 12.1655L 78.4287 12.998ZM 80.1206 2.16455C 81.1125 2.229 81.9486 2.51188 82.6289 3.01318C 83.3092 3.5109 83.8517 4.18408 84.2563 5.03271C 84.6646 5.88135 84.8687 6.73177 84.8687 7.58398C 84.8687 8.4362 84.6646 9.28662 84.2563 10.1353C 83.8517 10.9839 83.3092 11.6571 82.6289 12.1548C 81.9486 12.6561 81.1125 12.9372 80.1206 12.998L 80.1206 12.1655C 80.869 12.0939 81.5117 11.8415 82.0488 11.4082C 82.5895 10.9749 83.0138 10.4217 83.3218 9.74854C 83.6333 9.07536 83.7891 8.35384 83.7891 7.58398C 83.7891 6.81413 83.6333 6.09261 83.3218 5.41943C 83.0138 4.74626 82.5895 4.19303 82.0488 3.75977C 81.5117 3.32292 80.869 3.07048 80.1206 3.00244L 80.1206 2.16455Z"/>
<path id="path4_fill" d="M 5.82227 10.6025C 5.02376 10.9821 4.26823 11.1719 3.55566 11.1719C 3.01497 11.1719 2.53158 11.0376 2.10547 10.769C 1.67936 10.5005 1.3374 10.1174 1.07959 9.61963C 0.825358 9.11833 0.698242 8.58301 0.698242 8.01367C 0.698242 7.46582 0.819987 6.93945 1.06348 6.43457C 1.30697 5.92969 1.64714 5.5376 2.08398 5.2583C 2.52083 4.97542 3.00781 4.83398 3.54492 4.83398C 4.25749 4.83398 4.82861 5.08822 5.2583 5.59668C 5.69157 6.10514 5.9082 6.88932 5.9082 7.94922L 5.9082 8.16406L 1.77246 8.16406C 1.77246 8.57943 1.8584 8.95898 2.03027 9.30273C 2.20573 9.64648 2.4349 9.9043 2.71777 10.0762C 3.00065 10.248 3.32292 10.334 3.68457 10.334C 4.3291 10.334 5.04167 10.1191 5.82227 9.68945L 5.82227 10.6025ZM 1.83154 7.41748L 4.82324 7.41748L 4.82324 7.27246C 4.82324 6.7819 4.70329 6.3916 4.46338 6.10156C 4.22347 5.81152 3.90299 5.6665 3.50195 5.6665C 3.09733 5.6665 2.74642 5.8151 2.44922 6.1123C 2.1556 6.40592 1.94971 6.84098 1.83154 7.41748ZM 11.3813 9.65186C 11.077 10.1532 10.71 10.5309 10.2803 10.7852C 9.85417 11.0394 9.46208 11.1665 9.104 11.1665C 8.6027 11.1665 8.15153 10.9499 7.75049 10.5166C 7.35303 10.0833 7.1543 9.42627 7.1543 8.54541C 7.1543 7.85075 7.28678 7.23128 7.55176 6.68701C 7.81673 6.13916 8.17122 5.70768 8.61523 5.39258C 9.05924 5.07389 9.60889 4.91455 10.2642 4.91455C 10.4539 4.91455 10.7404 4.93424 11.1235 4.97363C 11.1808 4.98079 11.2668 4.98975 11.3813 5.00049L 12.3857 5.00049L 12.3857 9.23828C 12.3857 9.96159 12.4609 10.5488 12.6113 11L 11.5693 11C 11.4906 10.6706 11.4279 10.2212 11.3813 9.65186ZM 11.3813 8.46484L 11.3813 5.89209C 11.0269 5.79899 10.6974 5.75244 10.3931 5.75244C 9.77718 5.75244 9.26335 5.99056 8.85156 6.4668C 8.44336 6.94303 8.23926 7.59115 8.23926 8.41113C 8.23926 9.00553 8.35026 9.45492 8.57227 9.75928C 8.79785 10.0601 9.05387 10.2104 9.34033 10.2104C 9.65186 10.2104 9.99561 10.0529 10.3716 9.73779C 10.7476 9.42269 11.0841 8.99837 11.3813 8.46484ZM 14.0454 11L 14.0454 5.00049L 15.0444 5.00049L 15.0444 6.31104C 15.3309 5.84912 15.6764 5.48747 16.0811 5.22607C 16.4857 4.96468 16.8903 4.83398 17.2949 4.83398C 17.6494 4.83398 17.9717 4.92887 18.2617 5.11865C 18.5518 5.30485 18.7541 5.55013 18.8687 5.85449C 18.9868 6.15885 19.0459 6.75684 19.0459 7.64844L 19.0459 11L 18.0469 11L 18.0469 7.5249C 18.0469 6.9484 18.0182 6.56885 17.9609 6.38623C 17.9072 6.20003 17.8052 6.04785 17.6548 5.92969C 17.508 5.81152 17.3468 5.75244 17.1714 5.75244C 16.8205 5.75244 16.4427 5.91895 16.0381 6.25195C 15.637 6.58496 15.3058 7.00212 15.0444 7.50342L 15.0444 11L 14.0454 11ZM 24.6587 9.65186C 24.3543 10.1532 23.9873 10.5309 23.5576 10.7852C 23.1315 11.0394 22.7394 11.1665 22.3813 11.1665C 21.88 11.1665 21.4289 10.9499 21.0278 10.5166C 20.6304 10.0833 20.4316 9.42627 20.4316 8.54541C 20.4316 7.85075 20.5641 7.23128 20.8291 6.68701C 21.0941 6.13916 21.4486 5.70768 21.8926 5.39258C 22.3366 5.07389 22.8862 4.91455 23.5415 4.91455C 23.7313 4.91455 24.0177 4.93424 24.4009 4.97363C 24.4582 4.98079 24.5441 4.98975 24.6587 5.00049L 25.6631 5.00049L 25.6631 9.24365C 25.6631 10.2534 25.6488 10.8693 25.6201 11.0913C 25.5951 11.3169 25.5521 11.5443 25.4912 11.7734C 25.348 12.307 25.0203 12.7277 24.5083 13.0356C 23.9998 13.3436 23.384 13.4976 22.6606 13.4976C 21.9338 13.4976 21.1979 13.3114 20.4531 12.939L 20.4531 11.9292C 20.736 12.1226 21.0833 12.2926 21.4951 12.4395C 21.9105 12.5898 22.3115 12.665 22.6982 12.665C 23.0026 12.665 23.2909 12.6167 23.563 12.52C 23.8351 12.4233 24.0553 12.2837 24.2236 12.1011C 24.3919 11.9185 24.5065 11.7054 24.5674 11.4619C 24.6283 11.222 24.6587 10.9015 24.6587 10.5005L 24.6587 9.65186ZM 24.6587 8.46484L 24.6587 5.89209C 24.3042 5.79899 23.9748 5.75244 23.6704 5.75244C 23.0545 5.75244 22.5407 5.99056 22.1289 6.4668C 21.7207 6.94303 21.5166 7.59115 21.5166 8.41113C 21.5166 9.00553 21.6276 9.45492 21.8496 9.75928C 22.0752 10.0601 22.3312 10.2104 22.6177 10.2104C 22.9292 10.2104 23.2729 10.0529 23.6489 9.73779C 24.0249 9.42269 24.3615 8.99837 24.6587 8.46484ZM 29.7236 11.2524C 29.4837 11.2524 29.2778 11.1665 29.106 10.9946C 28.9341 10.8228 28.8481 10.6169 28.8481 10.377C 28.8481 10.1335 28.9341 9.92757 29.106 9.75928C 29.2814 9.5874 29.4873 9.50146 29.7236 9.50146C 29.96 9.50146 30.1641 9.5874 30.3359 9.75928C 30.5114 9.92757 30.5991 10.1335 30.5991 10.377C 30.5991 10.6169 30.5132 10.8228 30.3413 10.9946C 30.1694 11.1665 29.9635 11.2524 29.7236 11.2524Z"/>
<path id="path5_fill" d="M 0.381348 8.0835L 6.21436 5.16699L 6.21436 6.09619L 2.229 8.07812L 6.21436 10.0815L 6.21436 11L 0.381348 8.0835ZM 12.375 5.00049L 12.375 11L 11.376 11L 11.376 9.68408C 11.0537 10.1782 10.6956 10.5488 10.3018 10.7959C 9.90788 11.043 9.514 11.1665 9.12012 11.1665C 8.76921 11.1665 8.44694 11.0734 8.15332 10.8872C 7.86328 10.6974 7.66097 10.4504 7.54639 10.146C 7.4318 9.83805 7.37451 9.24007 7.37451 8.35205L 7.37451 5.00049L 8.37354 5.00049L 8.37354 8.47559C 8.37354 9.05208 8.40039 9.43343 8.4541 9.61963C 8.51139 9.80225 8.61344 9.95264 8.76025 10.0708C 8.91064 10.189 9.07178 10.248 9.24365 10.248C 9.59456 10.248 9.97054 10.0833 10.3716 9.75391C 10.7762 9.4209 11.111 9.00195 11.376 8.49707L 11.376 5.00049L 12.375 5.00049ZM 15.6567 11L 15.6567 3.16895L 13.8628 3.16895L 13.8628 2.33105L 16.6558 2.33105L 16.6558 10.1675L 18.5303 10.1675L 18.5303 11L 15.6567 11ZM 26.0337 8.0835L 20.2007 11L 20.2007 10.0708L 24.1914 8.08887L 20.2007 6.08545L 20.2007 5.16699L 26.0337 8.0835ZM 13.5942 23.0835L 19.4272 20.167L 19.4272 21.0962L 15.4419 23.0781L 19.4272 25.0815L 19.4272 26L 13.5942 23.0835ZM 22.2632 26L 22.2632 18.1689L 20.4692 18.1689L 20.4692 17.3311L 23.2622 17.3311L 23.2622 25.1675L 25.1367 25.1675L 25.1367 26L 22.2632 26ZM 28.9395 26L 28.9395 20.833L 27.2744 20.833L 27.2744 20.0005L 29.9385 20.0005L 29.9385 25.1675L 31.6089 25.1675L 31.6089 26L 28.9395 26ZM 28.7729 17.8359C 28.7729 17.6104 28.8499 17.4421 29.0039 17.3311C 29.1579 17.2201 29.3029 17.1646 29.439 17.1646C 29.5786 17.1646 29.7254 17.2201 29.8794 17.3311C 30.0334 17.4421 30.1104 17.6104 30.1104 17.8359C 30.1104 18.0579 30.0334 18.2244 29.8794 18.3354C 29.7254 18.4465 29.5786 18.502 29.439 18.502C 29.3029 18.502 29.1579 18.4465 29.0039 18.3354C 28.8499 18.2244 28.7729 18.0579 28.7729 17.8359ZM 39.2466 23.0835L 33.4136 26L 33.4136 25.0708L 37.4043 23.0889L 33.4136 21.0854L 33.4136 20.167L 39.2466 23.0835ZM 29.3638 36.584C 29.6968 36.7594 29.9403 36.9313 30.0942 37.0996C 30.2518 37.2679 30.3682 37.4416 30.4434 37.6206C 30.5221 37.7961 30.5615 37.9984 30.5615 38.2275C 30.5615 38.4316 30.5257 38.6984 30.4541 39.0278L 30.3198 39.6401C 30.2482 39.9731 30.2124 40.2202 30.2124 40.3813C 30.2124 40.5998 30.2965 40.7842 30.4648 40.9346C 30.6367 41.0885 30.9876 41.1655 31.5176 41.1655L 32.3501 41.1655L 32.3501 41.998L 31.5068 41.998C 30.5257 41.998 29.8937 41.8405 29.6108 41.5254C 29.328 41.2103 29.1865 40.854 29.1865 40.4565C 29.1865 40.2453 29.2134 40.0179 29.2671 39.7744L 29.3638 39.3447L 29.4551 38.8774L 29.5195 38.5928C 29.5446 38.4603 29.5571 38.3314 29.5571 38.2061C 29.5571 37.873 29.4443 37.5884 29.2188 37.3521C 28.9967 37.1157 28.6029 36.9976 28.0371 36.9976L 27.5591 36.9976L 27.5591 36.165L 28.0371 36.165C 28.5957 36.165 28.9878 36.0487 29.2134 35.8159C 29.4425 35.5832 29.5571 35.2931 29.5571 34.9458C 29.5571 34.8169 29.5446 34.6916 29.5195 34.5698L 29.4551 34.2905L 29.3638 33.8232L 29.2671 33.3936C 29.2134 33.1465 29.1865 32.9173 29.1865 32.7061C 29.1865 32.3122 29.328 31.9577 29.6108 31.6426C 29.8937 31.3239 30.5257 31.1646 31.5068 31.1646L 32.3501 31.1646L 32.3501 32.0024L 31.5176 32.0024C 30.9912 32.0024 30.6421 32.0794 30.4702 32.2334C 30.2983 32.3838 30.2124 32.57 30.2124 32.792C 30.2124 32.9495 30.2482 33.1948 30.3198 33.5278L 30.4541 34.1401C 30.5257 34.4696 30.5615 34.7363 30.5615 34.9404C 30.5615 35.1696 30.5221 35.3737 30.4434 35.5527C 30.3682 35.7282 30.2518 35.9001 30.0942 36.0684C 29.9403 36.2367 29.6968 36.4085 29.3638 36.584ZM 35.9702 36.584C 36.3032 36.7594 36.5467 36.9313 36.7007 37.0996C 36.8582 37.2679 36.9746 37.4416 37.0498 37.6206C 37.1286 37.7961 37.168 37.9984 37.168 38.2275C 37.168 38.4316 37.1322 38.6984 37.0605 39.0278L 36.9263 39.6401C 36.8547 39.9731 36.8188 40.2202 36.8188 40.3813C 36.8188 40.5998 36.903 40.7842 37.0713 40.9346C 37.2432 41.0885 37.5941 41.1655 38.124 41.1655L 38.9565 41.1655L 38.9565 41.998L 38.1133 41.998C 37.1322 41.998 36.5002 41.8405 36.2173 41.5254C 35.9344 41.2103 35.793 40.854 35.793 40.4565C 35.793 40.2453 35.8198 40.0179 35.8735 39.7744L 35.9702 39.3447L 36.0615 38.8774L 36.126 38.5928C 36.151 38.4603 36.1636 38.3314 36.1636 38.2061C 36.1636 37.873 36.0508 37.5884 35.8252 37.3521C 35.6032 37.1157 35.2093 36.9976 34.6436 36.9976L 34.1655 36.9976L 34.1655 36.165L 34.6436 36.165C 35.2021 36.165 35.5942 36.0487 35.8198 35.8159C 36.049 35.5832 36.1636 35.2931 36.1636 34.9458C 36.1636 34.8169 36.151 34.6916 36.126 34.5698L 36.0615 34.2905L 35.9702 33.8232L 35.8735 33.3936C 35.8198 33.1465 35.793 32.9173 35.793 32.7061C 35.793 32.3122 35.9344 31.9577 36.2173 31.6426C 36.5002 31.3239 37.1322 31.1646 38.1133 31.1646L 38.9565 31.1646L 38.9565 32.0024L 38.124 32.0024C 37.5977 32.0024 37.2485 32.0794 37.0767 32.2334C 36.9048 32.3838 36.8188 32.57 36.8188 32.792C 36.8188 32.9495 36.8547 33.1948 36.9263 33.5278L 37.0605 34.1401C 37.1322 34.4696 37.168 34.7363 37.168 34.9404C 37.168 35.1696 37.1286 35.3737 37.0498 35.5527C 36.9746 35.7282 36.8582 35.9001 36.7007 36.0684C 36.5467 36.2367 36.3032 36.4085 35.9702 36.584ZM 45.4878 39.7583C 45.0187 39.9552 44.6785 40.0716 44.4673 40.1074C 44.256 40.1468 44.0519 40.1665 43.855 40.1665C 43.436 40.1665 43.0529 40.0859 42.7056 39.9248C 42.3582 39.7637 42.0951 39.5256 41.916 39.2104C 41.7406 38.8953 41.6528 38.4084 41.6528 37.7495L 41.6528 35.3325L 40.1543 35.3325L 40.1543 34.5L 41.6528 34.5L 41.6528 32.083L 42.6519 32.083L 42.6519 34.5L 45.3213 34.5L 45.3213 35.3325L 42.6519 35.3325L 42.6519 37.7334C 42.6519 38.2168 42.7091 38.5588 42.8237 38.7593C 42.9383 38.9562 43.0905 39.1012 43.2803 39.1943C 43.4736 39.2874 43.701 39.334 43.9624 39.334C 44.4458 39.334 44.9543 39.1818 45.4878 38.8774L 45.4878 39.7583ZM 52.0674 39.6025C 51.2689 39.9821 50.5133 40.1719 49.8008 40.1719C 49.2601 40.1719 48.7767 40.0376 48.3506 39.769C 47.9245 39.5005 47.5825 39.1174 47.3247 38.6196C 47.0705 38.1183 46.9434 37.583 46.9434 37.0137C 46.9434 36.4658 47.0651 35.9395 47.3086 35.4346C 47.5521 34.9297 47.8923 34.5376 48.3291 34.2583C 48.766 33.9754 49.2529 33.834 49.79 33.834C 50.5026 33.834 51.0737 34.0882 51.5034 34.5967C 51.9367 35.1051 52.1533 35.8893 52.1533 36.9492L 52.1533 37.1641L 48.0176 37.1641C 48.0176 37.5794 48.1035 37.959 48.2754 38.3027C 48.4508 38.6465 48.68 38.9043 48.9629 39.0762C 49.2458 39.248 49.568 39.334 49.9297 39.334C 50.5742 39.334 51.2868 39.1191 52.0674 38.6895L 52.0674 39.6025ZM 48.0767 36.4175L 51.0684 36.4175L 51.0684 36.2725C 51.0684 35.7819 50.9484 35.3916 50.7085 35.1016C 50.4686 34.8115 50.1481 34.6665 49.7471 34.6665C 49.3424 34.6665 48.9915 34.8151 48.6943 35.1123C 48.4007 35.4059 48.1948 35.841 48.0767 36.4175ZM 53.2329 40L 53.2329 34.0005L 54.1084 34.0005L 54.1084 35.3755C 54.3841 34.7918 54.6401 34.389 54.8765 34.167C 55.1164 33.945 55.3581 33.834 55.6016 33.834C 55.8916 33.834 56.1243 33.9486 56.2998 34.1777C 56.4788 34.4033 56.5684 34.7256 56.5684 35.1445L 56.5684 35.4668C 56.6865 35.1016 56.828 34.8062 56.9927 34.5806C 57.161 34.3514 57.3346 34.1706 57.5137 34.0381C 57.6927 33.902 57.8986 33.834 58.1313 33.834C 58.3892 33.834 58.6094 33.9432 58.792 34.1616C 58.9746 34.38 59.0659 34.8151 59.0659 35.4668L 59.0659 40L 58.1904 40L 58.1904 35.9019C 58.1904 35.5653 58.1797 35.3361 58.1582 35.2144C 58.1367 35.089 58.0938 34.9941 58.0293 34.9297C 57.9648 34.8652 57.895 34.833 57.8198 34.833C 57.6336 34.833 57.4331 34.9762 57.2183 35.2627C 57.007 35.5456 56.7904 36.0164 56.5684 36.6753L 56.5684 40L 55.7305 40L 55.7305 35.9072C 55.7305 35.3773 55.6785 35.0658 55.5747 34.9727C 55.4709 34.8796 55.3778 34.833 55.2954 34.833C 55.1128 34.833 54.9159 34.9924 54.7046 35.311C 54.4969 35.6297 54.2982 36.0379 54.1084 36.5356L 54.1084 40L 53.2329 40ZM 61.2144 35.3486C 61.5223 34.8473 61.8893 34.4696 62.3154 34.2153C 62.7415 33.9611 63.1336 33.834 63.4917 33.834C 63.993 33.834 64.4442 34.0506 64.8452 34.4839C 65.2463 34.9172 65.4468 35.5742 65.4468 36.4551C 65.4468 37.1497 65.3125 37.771 65.0439 38.3188C 64.779 38.8631 64.4245 39.2946 63.9805 39.6133C 63.5365 39.9284 62.9868 40.0859 62.3315 40.0859C 62.1453 40.0859 61.8589 40.0662 61.4722 40.0269C 61.4149 40.0197 61.3289 40.0107 61.2144 40L 61.2144 42.3311L 60.2153 42.3311L 60.2153 34.0005L 61.2144 34.0005L 61.2144 35.3486ZM 61.2144 36.5356L 61.2144 39.1084C 61.576 39.2015 61.909 39.248 62.2134 39.248C 62.8185 39.248 63.327 39.0117 63.7388 38.5391C 64.1541 38.0628 64.3618 37.4129 64.3618 36.5894C 64.3618 35.9914 64.249 35.542 64.0234 35.2412C 63.7979 34.9404 63.5418 34.79 63.2554 34.79C 62.9438 34.79 62.6001 34.9476 62.2241 35.2627C 61.8517 35.5778 61.5151 36.0021 61.2144 36.5356ZM 68.5083 40L 68.5083 32.1689L 66.7144 32.1689L 66.7144 31.3311L 69.5073 31.3311L 69.5073 39.1675L 71.3818 39.1675L 71.3818 40L 68.5083 40ZM 77.4458 38.6519C 77.1414 39.1532 76.7744 39.5309 76.3447 39.7852C 75.9186 40.0394 75.5265 40.1665 75.1685 40.1665C 74.6672 40.1665 74.216 39.9499 73.8149 39.5166C 73.4175 39.0833 73.2188 38.4263 73.2188 37.5454C 73.2188 36.8507 73.3512 36.2313 73.6162 35.687C 73.8812 35.1392 74.2357 34.7077 74.6797 34.3926C 75.1237 34.0739 75.6733 33.9146 76.3286 33.9146C 76.5184 33.9146 76.8049 33.9342 77.188 33.9736C 77.2453 33.9808 77.3312 33.9897 77.4458 34.0005L 78.4502 34.0005L 78.4502 38.2383C 78.4502 38.9616 78.5254 39.5488 78.6758 40L 77.6338 40C 77.555 39.6706 77.4924 39.2212 77.4458 38.6519ZM 77.4458 37.4648L 77.4458 34.8921C 77.0913 34.799 76.7619 34.7524 76.4575 34.7524C 75.8416 34.7524 75.3278 34.9906 74.916 35.4668C 74.5078 35.943 74.3037 36.5911 74.3037 37.4111C 74.3037 38.0055 74.4147 38.4549 74.6367 38.7593C 74.8623 39.0601 75.1183 39.2104 75.4048 39.2104C 75.7163 39.2104 76.0601 39.0529 76.436 38.7378C 76.812 38.4227 77.1486 37.9984 77.4458 37.4648ZM 85.1265 39.7583C 84.6574 39.9552 84.3172 40.0716 84.106 40.1074C 83.8947 40.1468 83.6906 40.1665 83.4937 40.1665C 83.0747 40.1665 82.6916 40.0859 82.3442 39.9248C 81.9969 39.7637 81.7337 39.5256 81.5547 39.2104C 81.3792 38.8953 81.2915 38.4084 81.2915 37.7495L 81.2915 35.3325L 79.793 35.3325L 79.793 34.5L 81.2915 34.5L 81.2915 32.083L 82.2905 32.083L 82.2905 34.5L 84.96 34.5L 84.96 35.3325L 82.2905 35.3325L 82.2905 37.7334C 82.2905 38.2168 82.3478 38.5588 82.4624 38.7593C 82.577 38.9562 82.7292 39.1012 82.9189 39.1943C 83.1123 39.2874 83.3397 39.334 83.6011 39.334C 84.0845 39.334 84.5929 39.1818 85.1265 38.8774L 85.1265 39.7583ZM 91.7061 39.6025C 90.9076 39.9821 90.152 40.1719 89.4395 40.1719C 88.8988 40.1719 88.4154 40.0376 87.9893 39.769C 87.5632 39.5005 87.2212 39.1174 86.9634 38.6196C 86.7091 38.1183 86.582 37.583 86.582 37.0137C 86.582 36.4658 86.7038 35.9395 86.9473 35.4346C 87.1908 34.9297 87.5309 34.5376 87.9678 34.2583C 88.4046 33.9754 88.8916 33.834 89.4287 33.834C 90.1413 33.834 90.7124 34.0882 91.1421 34.5967C 91.5754 35.1051 91.792 35.8893 91.792 36.9492L 91.792 37.1641L 87.6562 37.1641C 87.6562 37.5794 87.7422 37.959 87.9141 38.3027C 88.0895 38.6465 88.3187 38.9043 88.6016 39.0762C 88.8844 39.248 89.2067 39.334 89.5684 39.334C 90.2129 39.334 90.9255 39.1191 91.7061 38.6895L 91.7061 39.6025ZM 87.7153 36.4175L 90.707 36.4175L 90.707 36.2725C 90.707 35.7819 90.5871 35.3916 90.3472 35.1016C 90.1073 34.8115 89.7868 34.6665 89.3857 34.6665C 88.9811 34.6665 88.6302 34.8151 88.333 35.1123C 88.0394 35.4059 87.8335 35.841 87.7153 36.4175ZM 96.1533 36.584C 95.8203 36.4085 95.575 36.2367 95.4175 36.0684C 95.2635 35.9001 95.1489 35.7282 95.0737 35.5527C 94.9985 35.3737 94.9609 35.1696 94.9609 34.9404C 94.9609 34.7363 94.995 34.4696 95.063 34.1401L 95.1973 33.5278C 95.2689 33.1948 95.3047 32.9478 95.3047 32.7866C 95.3047 32.5682 95.2188 32.3838 95.0469 32.2334C 94.8786 32.0794 94.5295 32.0024 93.9995 32.0024L 93.167 32.0024L 93.167 31.1646L 94.0103 31.1646C 94.9914 31.1646 95.6234 31.3239 95.9062 31.6426C 96.1927 31.9577 96.3359 32.3122 96.3359 32.7061C 96.3359 32.9209 96.3073 33.1501 96.25 33.3936L 96.1533 33.8232L 96.062 34.2905L 95.9976 34.5698C 95.9725 34.7059 95.96 34.8366 95.96 34.9619C 95.96 35.2913 96.071 35.5742 96.293 35.8105C 96.5186 36.0469 96.9142 36.165 97.48 36.165L 97.958 36.165L 97.958 36.9976L 97.48 36.9976C 96.9214 36.9976 96.5275 37.1157 96.2983 37.3521C 96.0728 37.5848 95.96 37.8748 95.96 38.2222C 95.96 38.3475 95.9725 38.471 95.9976 38.5928L 96.062 38.8774L 96.1533 39.3447L 96.25 39.7744C 96.3073 40.0215 96.3359 40.2507 96.3359 40.4619C 96.3359 40.8594 96.1927 41.2139 95.9062 41.5254C 95.6234 41.8405 94.9914 41.998 94.0103 41.998L 93.167 41.998L 93.167 41.1655L 93.9995 41.1655C 94.5295 41.1655 94.8786 41.0885 95.0469 40.9346C 95.2188 40.7842 95.3047 40.598 95.3047 40.376C 95.3047 40.2184 95.2689 39.9731 95.1973 39.6401L 95.063 39.0278C 94.995 38.6984 94.9609 38.4316 94.9609 38.2275C 94.9609 37.9984 94.9985 37.7961 95.0737 37.6206C 95.1489 37.4416 95.2635 37.2679 95.4175 37.0996C 95.575 36.9313 95.8203 36.7594 96.1533 36.584ZM 102.76 36.584C 102.427 36.4085 102.181 36.2367 102.024 36.0684C 101.87 35.9001 101.755 35.7282 101.68 35.5527C 101.605 35.3737 101.567 35.1696 101.567 34.9404C 101.567 34.7363 101.601 34.4696 101.669 34.1401L 101.804 33.5278C 101.875 33.1948 101.911 32.9478 101.911 32.7866C 101.911 32.5682 101.825 32.3838 101.653 32.2334C 101.485 32.0794 101.136 32.0024 100.606 32.0024L 99.7734 32.0024L 99.7734 31.1646L 100.617 31.1646C 101.598 31.1646 102.23 31.3239 102.513 31.6426C 102.799 31.9577 102.942 32.3122 102.942 32.7061C 102.942 32.9209 102.914 33.1501 102.856 33.3936L 102.76 33.8232L 102.668 34.2905L 102.604 34.5698C 102.579 34.7059 102.566 34.8366 102.566 34.9619C 102.566 35.2913 102.677 35.5742 102.899 35.8105C 103.125 36.0469 103.521 36.165 104.086 36.165L 104.564 36.165L 104.564 36.9976L 104.086 36.9976C 103.528 36.9976 103.134 37.1157 102.905 37.3521C 102.679 37.5848 102.566 37.8748 102.566 38.2222C 102.566 38.3475 102.579 38.471 102.604 38.5928L 102.668 38.8774L 102.76 39.3447L 102.856 39.7744C 102.914 40.0215 102.942 40.2507 102.942 40.4619C 102.942 40.8594 102.799 41.2139 102.513 41.5254C 102.23 41.8405 101.598 41.998 100.617 41.998L 99.7734 41.998L 99.7734 41.1655L 100.606 41.1655C 101.136 41.1655 101.485 41.0885 101.653 40.9346C 101.825 40.7842 101.911 40.598 101.911 40.376C 101.911 40.2184 101.875 39.9731 101.804 39.6401L 101.669 39.0278C 101.601 38.6984 101.567 38.4316 101.567 38.2275C 101.567 37.9984 101.605 37.7961 101.68 37.6206C 101.755 37.4416 101.87 37.2679 102.024 37.0996C 102.181 36.9313 102.427 36.7594 102.76 36.584ZM 13.5942 52.0835L 19.4272 49.167L 19.4272 50.0962L 15.4419 52.0781L 19.4272 54.0815L 19.4272 55L 13.5942 52.0835ZM 20.9795 55.2524L 19.9966 55.2524L 25.2979 46.417L 26.2485 46.417L 20.9795 55.2524ZM 28.8696 55L 28.8696 47.1689L 27.0757 47.1689L 27.0757 46.3311L 29.8687 46.3311L 29.8687 54.1675L 31.7432 54.1675L 31.7432 55L 28.8696 55ZM 35.5459 55L 35.5459 49.833L 33.8809 49.833L 33.8809 49.0005L 36.5449 49.0005L 36.5449 54.1675L 38.2153 54.1675L 38.2153 55L 35.5459 55ZM 35.3794 46.8359C 35.3794 46.6104 35.4564 46.4421 35.6104 46.3311C 35.7643 46.2201 35.9093 46.1646 36.0454 46.1646C 36.1851 46.1646 36.3319 46.2201 36.4858 46.3311C 36.6398 46.4421 36.7168 46.6104 36.7168 46.8359C 36.7168 47.0579 36.6398 47.2244 36.4858 47.3354C 36.3319 47.4465 36.1851 47.502 36.0454 47.502C 35.9093 47.502 35.7643 47.4465 35.6104 47.3354C 35.4564 47.2244 35.3794 47.0579 35.3794 46.8359ZM 45.853 52.0835L 40.02 55L 40.02 54.0708L 44.0107 52.0889L 40.02 50.0854L 40.02 49.167L 45.853 52.0835ZM 0.381348 67.0835L 6.21436 64.167L 6.21436 65.0962L 2.229 67.0781L 6.21436 69.0815L 6.21436 70L 0.381348 67.0835ZM 7.7666 70.2524L 6.78369 70.2524L 12.085 61.417L 13.0356 61.417L 7.7666 70.2524ZM 18.9814 64.0005L 18.9814 70L 17.9824 70L 17.9824 68.6841C 17.6602 69.1782 17.3021 69.5488 16.9082 69.7959C 16.5143 70.043 16.1204 70.1665 15.7266 70.1665C 15.3757 70.1665 15.0534 70.0734 14.7598 69.8872C 14.4697 69.6974 14.2674 69.4504 14.1528 69.146C 14.0382 68.8381 13.981 68.2401 13.981 67.3521L 13.981 64.0005L 14.98 64.0005L 14.98 67.4756C 14.98 68.0521 15.0068 68.4334 15.0605 68.6196C 15.1178 68.8022 15.2199 68.9526 15.3667 69.0708C 15.5171 69.189 15.6782 69.248 15.8501 69.248C 16.201 69.248 16.577 69.0833 16.978 68.7539C 17.3826 68.4209 17.7174 68.002 17.9824 67.4971L 17.9824 64.0005L 18.9814 64.0005ZM 22.2632 70L 22.2632 62.1689L 20.4692 62.1689L 20.4692 61.3311L 23.2622 61.3311L 23.2622 69.1675L 25.1367 69.1675L 25.1367 70L 22.2632 70ZM 32.6401 67.0835L 26.8071 70L 26.8071 69.0708L 30.7979 67.0889L 26.8071 65.0854L 26.8071 64.167L 32.6401 67.0835Z"/>
</defs>
</svg>
