<svg width="171" height="172" viewBox="0 0 171 172" version="1.1" xmlns="http://www.w3.org/2000/svg" xmlns:xlink="http://www.w3.org/1999/xlink">
<title>Canvas</title>
<desc>Created using Figma</desc>
<g id="Canvas" transform="translate(82 3051)">
<g id="Group">
<g id="Rectangle 47">
<use xlink:href="#path0_fill" transform="translate(-11 -2909)" fill="#FFFFFF"/>
<mask id="mask0_outline_ins">
<use xlink:href="#path0_fill" fill="white" transform="translate(-11 -2909)"/>
</mask>
<g mask="url(#mask0_outline_ins)">
<use xlink:href="#path1_stroke_2x" transform="translate(-11 -2909)" fill="#828282"/>
</g>
</g>
<g id="Rectangle 48">
<use xlink:href="#path2_fill" transform="translate(-4.64384 -2904.26)" fill="#BDBDBD"/>
</g>
<g id="Ellipse 6">
<use xlink:href="#path3_fill" transform="translate(-4.64384 -2894.79)" fill="#E0E0E0"/>
</g>
<g id="Ellipse 6">
<use xlink:href="#path3_fill" transform="translate(5.68493 -2894.79)" fill="#E0E0E0"/>
</g>
</g>
<g id="Vector 56">
<use xlink:href="#path4_fill" transform="translate(-26 -3032)" fill="#F2F2F2"/>
</g>
<g id="Vector 64">
<use xlink:href="#path5_fill" transform="matrix(1 5.34378e-24 -5.34378e-24 1 -26 -2945)" fill="#828282"/>
</g>
<g id="Vector 64">
<use xlink:href="#path5_fill" transform="matrix(-1 -1.22465e-16 1.22465e-16 -1 42.5 -2920)" fill="#828282"/>
</g>
<g id="Vector 63">
<use xlink:href="#path6_fill" transform="matrix(6.12323e-17 1 -1 6.12323e-17 64.25 -3051.25)" fill="#C4C4C4"/>
</g>
<g id="Vector 63">
<use xlink:href="#path6_fill" transform="matrix(1 -2.67189e-24 2.67189e-24 1 -68 -2899)" fill="#C4C4C4"/>
</g>
<g id="Rectangle 49">
<use xlink:href="#path7_fill" transform="translate(36 -2996)" fill="#4F4F4F"/>
</g>
<g id="Rectangle 49">
<use xlink:href="#path7_fill" transform="translate(36 -2982.12)" fill="#4F4F4F"/>
</g>
<g id="Rectangle 49">
<use xlink:href="#path7_fill" transform="translate(36 -2968.24)" fill="#4F4F4F"/>
</g>
<g id="Ellipse 6">
<use xlink:href="#path8_fill" transform="translate(40 -2993)" fill="#FFFFFF"/>
</g>
<g id="Ellipse 6">
<use xlink:href="#path8_fill" transform="translate(40 -2979)" fill="#FFFFFF"/>
</g>
<g id="Ellipse 6">
<use xlink:href="#path8_fill" transform="translate(40 -2966)" fill="#FFFFFF"/>
</g>
<g id="Vector 55">
<use xlink:href="#path9_fill" transform="matrix(-1 5.34378e-24 5.34378e-24 1 64 -2956)" fill="#4F4F4F"/>
</g>
<g id="Vector 65">
<use xlink:href="#path10_stroke" transform="translate(40 -2942)" fill="#4F4F4F"/>
</g>
<g id="Vector 63">
<use xlink:href="#path6_fill" transform="translate(-82 -3015)" fill="#C4C4C4"/>
</g>
<g id="Rectangle 59">
<use xlink:href="#path11_fill" transform="translate(-72 -2931)" fill="#C4C4C4"/>
</g>
<g id="component">
<use xlink:href="#path12_fill" transform="translate(-19 -2939)" fill="#828282"/>
</g>
<g id="Vector 63">
<use xlink:href="#path6_fill" transform="translate(-82 -2935)" fill="#C4C4C4"/>
</g>
</g>
<defs>
<path id="path0_fill" d="M 0 0L 58 0L 58 30L 0 30L 0 0Z"/>
<path id="path1_stroke_2x" d="M 0 0L 0 -1L -1 -1L -1 0L 0 0ZM 58 0L 59 0L 59 -1L 58 -1L 58 0ZM 58 30L 58 31L 59 31L 59 30L 58 30ZM 0 30L -1 30L -1 31L 0 31L 0 30ZM 0 1L 58 1L 58 -1L 0 -1L 0 1ZM 57 0L 57 30L 59 30L 59 0L 57 0ZM 58 29L 0 29L 0 31L 58 31L 58 29ZM 1 30L 1 0L -1 0L -1 30L 1 30Z"/>
<path id="path2_fill" d="M 0 0L 42.9041 0L 42.9041 7.10526L 0 7.10526L 0 0Z"/>
<path id="path3_fill" d="M 7.94521 3.94737C 7.94521 6.12744 6.16661 7.89474 3.9726 7.89474C 1.77859 7.89474 0 6.12744 0 3.94737C 0 1.7673 1.77859 0 3.9726 0C 6.16661 0 7.94521 1.7673 7.94521 3.94737Z"/>
<path id="path4_fill" d="M 1.24092 11.6715C 2.5517 7.33907 8.77794 6.67255 13.3657 6.67255C 16.2424 6.67255 19.8439 8.71994 22.2134 10.4076C 25.1627 6.82974 32.7653 -0.259296 39.5814 0.00731356C 46.3974 0.273923 52.0338 4.56189 54 6.67255L 54 23.6689C 51.16 27.1126 43.8414 34 37.2875 34C 30.7335 34 25.5997 31.1117 23.852 29.6676L 19.2642 34C 13.9118 34 2.81386 33.1335 1.24092 29.6676C -0.725264 25.3352 -0.0698709 16.0039 1.24092 11.6715Z"/>
<path id="path5_fill" d="M 10.5 0L 7.5 0L 0 14.1667L 7.5 25L 10.5 25L 2.59091 14.1667L 10.5 0Z"/>
<path id="path6_fill" d="M 51 2L 0 2L 0 6L 51 6C 51 7 51 8 54.5 8L 54.5 0C 50.9 0 51 1 51 2Z"/>
<path id="path7_fill" d="M 0 0L 53 0L 53 12.2449L 0 12.2449L 0 0Z"/>
<path id="path8_fill" d="M 7 3.5C 7 5.433 5.433 7 3.5 7C 1.567 7 0 5.433 0 3.5C 0 1.567 1.567 0 3.5 0C 5.433 0 7 1.567 7 3.5Z"/>
<path id="path9_fill" d="M 0.000418261 14.3232L 0.000418261 0L 2.73844 0L 2.73844 14.3232C 2.73844 15.8049 2.73844 15.8049 4.92887 15.8049L 23 15.8049L 20.262 17.7805C 15.8811 17.7805 0.000494075 18.2744 0.000267463 17.7805C -0.000412372 16.2988 0.000267388 15.311 0.000418261 14.3232Z"/>
<path id="path10_stroke" d="M -0.384111 0.320092L 4.61589 6.32009L 5.38411 5.67991L 0.384111 -0.320092L -0.384111 0.320092Z"/>
<path id="path11_fill" d="M 0 0L 4 0L 4 38L 0 38L 0 0Z"/>
<path id="path12_fill" d="M 5.34668 9.84375C 4.73796 10.0488 4.15853 10.1514 3.6084 10.1514C 3.06152 10.1514 2.57487 10.026 2.14844 9.77539C 1.72526 9.52148 1.39486 9.17969 1.15723 8.75C 0.919596 8.31706 0.800781 7.82552 0.800781 7.27539C 0.800781 6.44857 1.06934 5.76172 1.60645 5.21484C 2.14681 4.66797 2.79785 4.39453 3.55957 4.39453C 4.12272 4.39453 4.71842 4.50033 5.34668 4.71191L 5.34668 5.58594C 4.71191 5.29622 4.14388 5.15137 3.64258 5.15137C 3.31055 5.15137 2.99805 5.23438 2.70508 5.40039C 2.41211 5.56315 2.18587 5.81868 2.02637 6.16699C 1.86686 6.5153 1.78711 6.87337 1.78711 7.24121C 1.78711 7.73275 1.9401 8.2015 2.24609 8.64746C 2.55534 9.09342 3.03874 9.31641 3.69629 9.31641C 3.89486 9.31641 4.09017 9.30339 4.28223 9.27734C 4.47428 9.24805 4.8291 9.14551 5.34668 8.96973L 5.34668 9.84375ZM 9.00879 10.1514C 8.22754 10.1514 7.60254 9.87956 7.13379 9.33594C 6.66504 8.78906 6.43066 8.10059 6.43066 7.27051C 6.43066 6.44043 6.66504 5.75358 7.13379 5.20996C 7.60254 4.66634 8.22754 4.39453 9.00879 4.39453C 9.78678 4.39453 10.4102 4.66634 10.8789 5.20996C 11.3477 5.75358 11.582 6.44043 11.582 7.27051C 11.582 8.10059 11.3477 8.78906 10.8789 9.33594C 10.4102 9.87956 9.78678 10.1514 9.00879 10.1514ZM 9.00879 9.39453C 9.49382 9.39453 9.87956 9.20573 10.166 8.82812C 10.4525 8.45052 10.5957 7.93132 10.5957 7.27051C 10.5957 6.61296 10.4525 6.09538 10.166 5.71777C 9.87956 5.34017 9.49382 5.15137 9.00879 5.15137C 8.52051 5.15137 8.13314 5.34017 7.84668 5.71777C 7.56022 6.09538 7.41699 6.61296 7.41699 7.27051C 7.41699 7.93132 7.56022 8.45052 7.84668 8.82812C 8.13314 9.20573 8.52051 9.39453 9.00879 9.39453ZM 12.3584 10L 12.3584 4.5459L 13.1543 4.5459L 13.1543 5.7959C 13.4049 5.2653 13.6377 4.89909 13.8525 4.69727C 14.0706 4.49544 14.2904 4.39453 14.5117 4.39453C 14.7754 4.39453 14.987 4.4987 15.1465 4.70703C 15.3092 4.91211 15.3906 5.20508 15.3906 5.58594L 15.3906 5.87891C 15.498 5.54688 15.6266 5.27832 15.7764 5.07324C 15.9294 4.86491 16.0872 4.70052 16.25 4.58008C 16.4128 4.45638 16.5999 4.39453 16.8115 4.39453C 17.0459 4.39453 17.2461 4.49382 17.4121 4.69238C 17.5781 4.89095 17.6611 5.28646 17.6611 5.87891L 17.6611 10L 16.8652 10L 16.8652 6.27441C 16.8652 5.96842 16.8555 5.76009 16.8359 5.64941C 16.8164 5.53548 16.7773 5.44922 16.7188 5.39062C 16.6602 5.33203 16.5967 5.30273 16.5283 5.30273C 16.359 5.30273 16.1768 5.43294 15.9814 5.69336C 15.7894 5.95052 15.5924 6.37858 15.3906 6.97754L 15.3906 10L 14.6289 10L 14.6289 6.2793C 14.6289 5.79753 14.5817 5.51432 14.4873 5.42969C 14.3929 5.34505 14.3083 5.30273 14.2334 5.30273C 14.0674 5.30273 13.8883 5.44759 13.6963 5.7373C 13.5075 6.02702 13.3268 6.39811 13.1543 6.85059L 13.1543 10L 12.3584 10ZM 19.6143 5.77148C 19.8942 5.31576 20.2279 4.97233 20.6152 4.74121C 21.0026 4.51009 21.359 4.39453 21.6846 4.39453C 22.1403 4.39453 22.5505 4.59147 22.915 4.98535C 23.2796 5.37923 23.4619 5.97656 23.4619 6.77734C 23.4619 7.40885 23.3398 7.97363 23.0957 8.47168C 22.8548 8.96647 22.5326 9.35872 22.1289 9.64844C 21.7253 9.9349 21.2256 10.0781 20.6299 10.0781C 20.4606 10.0781 20.2002 10.0602 19.8486 10.0244C 19.7965 10.0179 19.7184 10.0098 19.6143 10L 19.6143 12.1191L 18.7061 12.1191L 18.7061 4.5459L 19.6143 4.5459L 19.6143 5.77148ZM 19.6143 6.85059L 19.6143 9.18945C 19.943 9.27409 20.2458 9.31641 20.5225 9.31641C 21.0726 9.31641 21.5348 9.10156 21.9092 8.67188C 22.2868 8.23893 22.4756 7.64811 22.4756 6.89941C 22.4756 6.35579 22.373 5.94727 22.168 5.67383C 21.9629 5.40039 21.7301 5.26367 21.4697 5.26367C 21.1865 5.26367 20.874 5.4069 20.5322 5.69336C 20.1937 5.97982 19.8877 6.36556 19.6143 6.85059ZM 27.0264 10.1514C 26.2451 10.1514 25.6201 9.87956 25.1514 9.33594C 24.6826 8.78906 24.4482 8.10059 24.4482 7.27051C 24.4482 6.44043 24.6826 5.75358 25.1514 5.20996C 25.6201 4.66634 26.2451 4.39453 27.0264 4.39453C 27.8044 4.39453 28.4277 4.66634 28.8965 5.20996C 29.3652 5.75358 29.5996 6.44043 29.5996 7.27051C 29.5996 8.10059 29.3652 8.78906 28.8965 9.33594C 28.4277 9.87956 27.8044 10.1514 27.0264 10.1514ZM 27.0264 9.39453C 27.5114 9.39453 27.8971 9.20573 28.1836 8.82812C 28.4701 8.45052 28.6133 7.93132 28.6133 7.27051C 28.6133 6.61296 28.4701 6.09538 28.1836 5.71777C 27.8971 5.34017 27.5114 5.15137 27.0264 5.15137C 26.5381 5.15137 26.1507 5.34017 25.8643 5.71777C 25.5778 6.09538 25.4346 6.61296 25.4346 7.27051C 25.4346 7.93132 25.5778 8.45052 25.8643 8.82812C 26.1507 9.20573 26.5381 9.39453 27.0264 9.39453ZM 30.7861 10L 30.7861 4.5459L 31.6943 4.5459L 31.6943 5.7373C 31.9548 5.31738 32.2689 4.98861 32.6367 4.75098C 33.0046 4.51335 33.3724 4.39453 33.7402 4.39453C 34.0625 4.39453 34.3555 4.48079 34.6191 4.65332C 34.8828 4.82259 35.0667 5.04557 35.1709 5.32227C 35.2783 5.59896 35.332 6.14258 35.332 6.95312L 35.332 10L 34.4238 10L 34.4238 6.84082C 34.4238 6.31673 34.3978 5.97168 34.3457 5.80566C 34.2969 5.63639 34.2041 5.49805 34.0674 5.39062C 33.9339 5.2832 33.7874 5.22949 33.6279 5.22949C 33.3089 5.22949 32.9655 5.38086 32.5977 5.68359C 32.2331 5.98633 31.932 6.36556 31.6943 6.82129L 31.6943 10L 30.7861 10ZM 41.3281 9.63867C 40.6022 9.98372 39.9154 10.1562 39.2676 10.1562C 38.776 10.1562 38.3366 10.0342 37.9492 9.79004C 37.5618 9.5459 37.251 9.19759 37.0166 8.74512C 36.7855 8.28939 36.6699 7.80273 36.6699 7.28516C 36.6699 6.78711 36.7806 6.30859 37.002 5.84961C 37.2233 5.39062 37.5326 5.03418 37.9297 4.78027C 38.3268 4.52311 38.7695 4.39453 39.2578 4.39453C 39.9056 4.39453 40.4248 4.62565 40.8154 5.08789C 41.2093 5.55013 41.4062 6.26302 41.4062 7.22656L 41.4062 7.42188L 37.6465 7.42188C 37.6465 7.79948 37.7246 8.14453 37.8809 8.45703C 38.0404 8.76953 38.2487 9.00391 38.5059 9.16016C 38.763 9.31641 39.056 9.39453 39.3848 9.39453C 39.9707 9.39453 40.6185 9.19922 41.3281 8.80859L 41.3281 9.63867ZM 37.7002 6.74316L 40.4199 6.74316L 40.4199 6.61133C 40.4199 6.16536 40.3109 5.81055 40.0928 5.54688C 39.8747 5.2832 39.5833 5.15137 39.2188 5.15137C 38.8509 5.15137 38.5319 5.28646 38.2617 5.55664C 37.9948 5.82357 37.8076 6.21908 37.7002 6.74316ZM 42.7979 10L 42.7979 4.5459L 43.7061 4.5459L 43.7061 5.7373C 43.9665 5.31738 44.2806 4.98861 44.6484 4.75098C 45.0163 4.51335 45.3841 4.39453 45.752 4.39453C 46.0742 4.39453 46.3672 4.48079 46.6309 4.65332C 46.8945 4.82259 47.0785 5.04557 47.1826 5.32227C 47.29 5.59896 47.3438 6.14258 47.3438 6.95312L 47.3438 10L 46.4355 10L 46.4355 6.84082C 46.4355 6.31673 46.4095 5.97168 46.3574 5.80566C 46.3086 5.63639 46.2158 5.49805 46.0791 5.39062C 45.9456 5.2832 45.7992 5.22949 45.6396 5.22949C 45.3206 5.22949 44.9772 5.38086 44.6094 5.68359C 44.2448 5.98633 43.9437 6.36556 43.7061 6.82129L 43.7061 10L 42.7979 10ZM 53.3643 9.78027C 52.9378 9.95931 52.6286 10.0651 52.4365 10.0977C 52.2445 10.1335 52.0589 10.1514 51.8799 10.1514C 51.499 10.1514 51.1507 10.0781 50.835 9.93164C 50.5192 9.78516 50.2799 9.56868 50.1172 9.28223C 49.9577 8.99577 49.8779 8.55306 49.8779 7.9541L 49.8779 5.75684L 48.5156 5.75684L 48.5156 5L 49.8779 5L 49.8779 2.80273L 50.7861 2.80273L 50.7861 5L 53.2129 5L 53.2129 5.75684L 50.7861 5.75684L 50.7861 7.93945C 50.7861 8.37891 50.8382 8.68978 50.9424 8.87207C 51.0465 9.05111 51.1849 9.18294 51.3574 9.26758C 51.5332 9.35221 51.7399 9.39453 51.9775 9.39453C 52.417 9.39453 52.8792 9.25618 53.3643 8.97949L 53.3643 9.78027Z"/>
</defs>
</svg>
