
<svg width="18px" height="7px" viewBox="0 0 18 7" version="1.1" xmlns="http://www.w3.org/2000/svg" xmlns:xlink="http://www.w3.org/1999/xlink">
    <!-- Generator: Sketch 43.2 (39069) - http://www.bohemiancoding.com/sketch -->
    <desc>Created with Sketch.</desc>
    <defs></defs>
    <g id="Page-1" stroke="none" stroke-width="1" fill="none" fill-rule="evenodd">
        <g id="Npm-logo" fill-rule="nonzero">
            <path d="M0,0 L18,0 L18,6 L9,6 L9,7 L5,7 L5,6 L0,6 L0,0 Z M1,5 L3,5 L3,2 L4,2 L4,5 L5,5 L5,1 L1,1 L1,5 Z M6,1 L6,6 L8,6 L8,5 L10,5 L10,1 L6,1 Z M8,2 L9,2 L9,4 L8,4 L8,2 Z M11,1 L11,5 L13,5 L13,2 L14,2 L14,5 L15,5 L15,2 L16,2 L16,5 L17,5 L17,1 L11,1 Z" id="Shape" fill="#000000"></path>
            <polygon id="Shape" fill="#FFFFFF" points="1 5 3 5 3 2 4 2 4 5 5 5 5 1 1 1"></polygon>
            <path d="M6,1 L6,6 L8,6 L8,5 L10,5 L10,1 L6,1 Z M9,4 L8,4 L8,2 L9,2 L9,4 Z" id="Shape" fill="#FFFFFF"></path>
            <polygon id="Shape" fill="#FFFFFF" points="11 1 11 5 13 5 13 2 14 2 14 5 15 5 15 2 16 2 16 5 17 5 17 1"></polygon>
        </g>
    </g>
</svg>