<svg xmlns="http://www.w3.org/2000/svg" viewBox="0 0 100 100" height="100%" width="100%">
    <path d="M 28 14 C 23.593562 14 20 17.593562 20 22 L 20 78 C 20 82.406438 23.593562 86 28 86 L 72 86 C 76.406438 86 80 82.406438 80 78 L 80 35.5 A 1.0001 1.0001 0 0 0 79.707031 34.792969 L 59.207031 14.292969 A 1.0001 1.0001 0 0 0 58.5 14 L 28 14 z M 28 16 L 58 16 L 58 28.5 C 58 32.636219 61.363781 36 65.5 36 L 78 36 L 78 78 C 78 81.325562 75.325562 84 72 84 L 28 84 C 24.674438 84 22 81.325562 22 78 L 22 22 C 22 18.674438 24.674438 16 28 16 z M 59 16.914062 L 77.085938 35 L 65.5 35 C 61.904219 35 59 32.095781 59 28.5 L 59 16.914062 z M 28.5 19 C 26.572833 19 25 20.572833 25 22.5 L 25 77.5 C 25 79.427167 26.572833 81 28.5 81 L 71.5 81 C 73.427167 81 75 79.427167 75 77.5 L 75 52.5 A 0.50005 0.50005 0 1 0 74 52.5 L 74 77.5 C 74 78.886833 72.886833 80 71.5 80 L 28.5 80 C 27.113167 80 26 78.886833 26 77.5 L 26 22.5 C 26 21.113167 27.113167 20 28.5 20 L 41.5 20 A 0.50005 0.50005 0 1 0 41.5 19 L 28.5 19 z M 74.492188 39.992188 A 0.50005 0.50005 0 0 0 74 40.5 L 74 42.5 A 0.50005 0.50005 0 1 0 75 42.5 L 75 40.5 A 0.50005 0.50005 0 0 0 74.492188 39.992188 z M 56.021484 41.996094 C 55.762174 41.994343 55.506119 42.042959 55.267578 42.136719 C 54.790496 42.324235 54.384908 42.692486 54.166016 43.197266 L 43.183594 67.179688 A 0.50005 0.50005 0 0 0 43.179688 67.189453 C 42.742188 68.197027 43.209568 69.38164 44.216797 69.820312 A 0.50005 0.50005 0 0 0 44.21875 69.820312 C 44.476579 69.931377 44.74767 69.986328 45.013672 69.986328 C 45.786685 69.986328 46.521584 69.533436 46.847656 68.783203 L 57.830078 44.800781 A 0.50005 0.50005 0 0 0 57.833984 44.791016 C 58.271484 43.783442 57.804104 42.59883 56.796875 42.160156 A 0.50005 0.50005 0 0 0 56.794922 42.158203 C 56.54336 42.049966 56.280795 41.997844 56.021484 41.996094 z M 56.009766 42.992188 C 56.139873 42.994389 56.271952 43.02286 56.400391 43.078125 C 56.911222 43.302331 57.140069 43.881073 56.917969 44.392578 L 45.935547 68.375 A 0.50005 0.50005 0 0 0 45.931641 68.382812 C 45.765713 68.76458 45.398659 68.986328 45.013672 68.986328 C 44.881674 68.986328 44.745452 68.959274 44.613281 68.902344 C 44.10245 68.678137 43.873602 68.099395 44.095703 67.587891 L 55.078125 43.603516 A 0.50005 0.50005 0 0 0 55.082031 43.595703 C 55.193138 43.339483 55.395395 43.153531 55.632812 43.060547 C 55.751522 43.014057 55.879658 42.989986 56.009766 42.992188 z M 74.492188 44.992188 A 0.50005 0.50005 0 0 0 74 45.5 L 74 49.5 A 0.50005 0.50005 0 1 0 75 49.5 L 75 45.5 A 0.50005 0.50005 0 0 0 74.492188 44.992188 z M 41.152344 48.009766 C 40.641308 47.970516 40.116923 48.123666 39.699219 48.480469 A 0.50005 0.50005 0 0 0 39.697266 48.480469 L 32.697266 54.480469 A 0.50005 0.50005 0 0 0 32.697266 54.482422 C 32.254767 54.862271 32 55.416642 32 56 C 32 56.583358 32.25472 57.137682 32.697266 57.517578 A 0.50005 0.50005 0 0 0 32.697266 57.519531 L 39.697266 63.519531 C 40.072938 63.840922 40.538367 64 40.998047 64 C 41.561315 64 42.12404 63.759247 42.517578 63.300781 A 0.50005 0.50005 0 0 0 42.519531 63.300781 C 43.234196 62.466785 43.137149 61.195492 42.302734 60.480469 L 37.072266 56 L 42.300781 51.517578 C 43.135196 50.802555 43.232243 49.531262 42.517578 48.697266 C 42.160259 48.280945 41.663379 48.04902 41.152344 48.009766 z M 58.847656 48.009766 C 58.336621 48.049016 57.839741 48.280945 57.482422 48.697266 C 56.767757 49.531262 56.864804 50.802555 57.699219 51.517578 L 62.927734 56 L 57.697266 60.480469 C 56.862851 61.195492 56.765804 62.466785 57.480469 63.300781 A 0.50005 0.50005 0 0 0 57.482422 63.300781 C 57.875913 63.759247 58.438685 64 59.001953 64 C 59.461633 64 59.927062 63.840969 60.302734 63.519531 L 67.302734 57.519531 A 0.50005 0.50005 0 0 0 67.302734 57.517578 C 67.74528 57.137729 68 56.583358 68 56 C 68 55.416642 67.74528 54.862318 67.302734 54.482422 A 0.50005 0.50005 0 0 0 67.302734 54.480469 L 60.302734 48.480469 A 0.50005 0.50005 0 0 0 60.300781 48.480469 C 59.883124 48.123713 59.358692 47.970511 58.847656 48.009766 z M 41.076172 49 C 41.330137 49.01949 41.576132 49.13793 41.757812 49.349609 C 42.11972 49.77358 42.073465 50.395274 41.650391 50.757812 L 35.980469 55.621094 A 0.50005 0.50005 0 0 0 35.980469 56.378906 L 41.652344 61.240234 C 42.075929 61.603211 42.123101 62.226387 41.759766 62.650391 C 41.559304 62.883925 41.280779 63 40.998047 63 C 40.765727 63 40.539984 62.92433 40.347656 62.759766 L 33.349609 56.759766 C 33.128155 56.569662 33 56.292642 33 56 C 33 55.707358 33.128155 55.430338 33.349609 55.240234 L 40.347656 49.240234 C 40.560952 49.058037 40.822207 48.980505 41.076172 49 z M 58.923828 49 C 59.177793 48.98051 59.439048 49.05804 59.652344 49.240234 L 66.650391 55.240234 C 66.871845 55.430338 67 55.707358 67 56 C 67 56.292642 66.871845 56.569662 66.650391 56.759766 L 59.652344 62.759766 C 59.460016 62.924328 59.234273 63 59.001953 63 C 58.719221 63 58.440696 62.883925 58.240234 62.650391 C 57.876899 62.226387 57.924071 61.603211 58.347656 61.240234 L 64.019531 56.378906 A 0.50005 0.50005 0 0 0 64.019531 55.621094 L 58.349609 50.757812 C 57.926535 50.395274 57.880281 49.77358 58.242188 49.349609 C 58.423868 49.13793 58.669863 49.019495 58.923828 49 z" font-weight="400" font-family="sans-serif" white-space="normal" fill="white" overflow="visible"></path>
</svg>